<?xml version="1.0" ?><svg xmlns="http://www.w3.org/2000/svg" width="226.43782mm" height="97.367661mm" viewBox="0 0 226.43782 97.367661">
    <path fill="#fbe960" d="m -79.346184,-162.74968 c -17.755075,-11.84333 -8.970187,-42.46608 15.285218,-37.4103 9.649292,2.01131 15.370551,9.33246 15.797518,17.94086 0.426994,8.60843 -5.892035,17.45813 -12.979582,20.83715 -7.087547,3.37902 -14.178353,1.25029 -18.103154,-1.36771 z" transform="translate(-65.616668,297.92083) translate(161.9116,-89.379098)"/>
    <path fill="#484537" d="m 41.062446,-202.49024 -17.394793,8.63997 c 0,0 -16.167682,0.86572 -27.331141,6.79847 -11.163432,5.93275 -18.958427,10.09042 -30.194038,13.66282 l 8.324057,22.75655 c 0,0 -18.405131,-2.27357 -18.790073,0.0434 -0.384969,2.31669 4.162001,14.46371 21.171825,28.6893 17.009824,14.22559 42.2724,4.82864 56.298888,-0.15134 14.026488,-4.97999 20.859194,-29.77251 20.859194,-29.77251 0,0 9.864196,0.88768 18.52549,-2.98794 8.661266,-3.87588 9.118466,-12.10336 15.494136,-13.55407 6.37569,-1.45071 5.87052,1.23428 11.90937,8.20632 6.038819,6.97203 15.830649,10.86961 23.288989,10.00336 7.45837,-0.86598 3.4403,-1.92696 4.54703,-5.00168 1.10672,-3.07472 -12.72723,-1.66767 -20.20962,-5.75998 -7.48239,-4.09231 -5.53352,-6.34365 -5.53352,-6.34365 0,0 9.67211,4.17883 15.90341,5.00168 6.23131,0.82286 8.56473,-0.82285 11.21122,-3.00963 2.6465,-2.18705 -0.0961,-4.1574 -6.61614,-3.68089 -6.52005,0.47625 -20.35432,-2.16587 -20.35432,-2.16587 0,0 12.53485,-2.79295 20.76307,-4.04866 8.22822,-1.25598 5.89468,-4.24392 1.97303,-4.50374 -3.92163,-0.25982 -20.20962,1.01759 -20.20962,1.01759 0,0 7.41026,-2.38151 15.71067,-6.12722 8.3004,-3.74597 3.87342,-6.21453 0.69762,-5.95471 -3.17582,0.25982 -18.09244,5.60784 -18.09244,5.60784 0,0 0.57748,-4.91516 7.72305,-7.64328 7.1456,-2.72838 5.17282,-4.39526 5.17282,-4.39526 0,0 -9.69592,0.23813 -16.095659,2.68473 -6.39972,2.44686 -4.64347,9.65702 -6.68849,16.19647 -2.04504,6.53891 -7.89135,1.12553 -11.35589,-2.0574 -3.464503,-3.18294 -15.686533,-6.75535 -24.395928,-5.47767 -8.709395,1.27741 -20.209615,-3.63802 -20.209615,-3.63802 z m -109.889395,18.04406 c -0.447331,-0.0159 -0.923263,0.11933 -1.408191,0.44741 -3.103642,2.10026 -0.360945,6.36587 2.983282,5.71659 2.415673,-1.66265 0.840396,-6.08436 -1.575091,-6.164 z" transform="translate(-65.616668,297.92083) translate(161.9116,-89.379098)"/>
    <path fill="#fdf5b8" d="m -76.685577,-168.52946 c -5.089234,-4.04561 -8.20637,-7.94139 -4.357661,-16.87177 3.848735,-8.93035 12.627662,-9.11016 17.780502,-7.13229 5.152866,1.97786 8.238199,10.189 6.806856,17.77079 -1.431343,7.58182 -14.440693,11.32777 -20.229697,6.23327 z" transform="translate(-65.616668,297.92083) translate(161.9116,-89.379098)"/>
    <path fill="#fff" d="m -72.500583,-176.75523 c -1.782895,-2.38498 -0.979911,-4.48786 1.170437,-5.50084 2.150348,-1.01299 4.11017,0.88474 3.579389,2.53883 -0.530781,1.65412 -1.987047,4.94951 -4.749826,2.96201 z" transform="translate(-65.616668,297.92083) translate(161.9116,-89.379098)"/>
    <path fill="#fffdf1" d="m -79.427984,-178.48626 c -0.299429,-4.37248 3.851566,-9.10397 7.036277,-9.77075 3.18471,-0.66677 9.75823,0.41029 11.228096,5.03923 1.469866,4.62894 -3.565763,10.34777 -7.539831,11.50178 -3.974068,1.15403 -10.860643,-1.92336 -10.724542,-6.77026 z" transform="translate(-65.616668,297.92083) translate(161.9116,-89.379098)"/>
    <path fill="#888465" d="m -11.310256,-181.14857 -21.1677,8.50335 6.160348,21.59662 -17.586007,0.20257 c 0,0 4.634401,15.76947 8.560201,16.19746 1.448209,0.15788 6.018493,1.31403 8.800496,-2.04949 1.606179,1.10021 3.195783,2.91542 5.258594,1.92598 2.162135,-1.03703 1.49409,-3.41826 0.63407,-4.33771 3.50956,0.0388 5.789402,-1.37989 6.789766,-3.94085 1.30247,0.97498 3.49349,1.89946 5.594491,0.26562 1.976239,-1.53682 0.431288,-3.52093 -1.475362,-4.39663 0.362495,-0.55916 0.335005,-1.39883 0.866614,-1.70739 3.263937,-1.89445 2.414226,-4.63941 1.605586,-7.54941 1.098386,0.36498 2.898204,-0.0909 5.132504,-2.64119 1.775796,-2.02699 -0.326319,-2.99014 -2.319755,-3.02255 -0.584578,-0.01 -1.820526,0.11393 -2.616895,0.28784 0.558231,-2.00146 0.365048,-3.82602 -0.451652,-5.49527 1.164591,-0.18406 4.050652,-1.13254 3.250448,-3.63234 -0.564223,-1.76262 -1.834167,-2.2663 -3.089734,-2.26498 -0.435354,4.6e-4 -0.865184,0.0651 -1.267106,0.15555 1.939124,-5.45363 -0.326239,-6.757 -2.678907,-8.09718 z m 15.048177,1.11879 c -1.435137,0.003 -3.243504,0.4312 -4.971789,1.38803 -0.807691,0.0448 -0.617732,1.47733 0.76016,3.71554 1.377867,2.23819 3.326114,0.93993 6.176884,-2.05931 1.781749,-1.87452 0.42664,-3.04951 -1.965255,-3.04426 z m 1.096058,14.20844 c -1.181389,-0.004 -2.540148,0.22004 -3.787366,0.6537 -1.710447,3.17826 2.755795,6.35657 5.939172,2.86495 2.188572,-2.40049 0.44725,-3.51037 -2.151806,-3.51865 z m -4.810043,12.9005 c -0.387558,-0.003 -0.763285,0.0174 -1.115177,0.0636 -2.280623,2.32777 -0.427685,5.6403 4.893758,3.80494 4.822581,-1.66327 -0.03218,-3.84125 -3.778581,-3.8685 z m 3.904155,9.78752 c -1.037744,0.005 -1.791105,0.0992 -1.791105,0.0992 -1.848695,1.2505 -1.753583,3.88539 0.806152,3.70675 2.559762,-0.17862 7.679139,-1.78675 5.403804,-2.99258 -1.279861,-0.67828 -3.08461,-0.81958 -4.418851,-0.81339 z m -13.52889,5.86321 c -1.282862,-0.0139 -2.228805,0.0806 -2.228805,0.0806 -3.08834,2.37249 1.23542,4.29736 3.468522,4.52117 2.23313,0.22381 6.699775,-2.14873 4.086573,-3.58117 -1.469942,-0.80574 -3.676896,-1.00271 -5.32629,-1.02061 z m -13.936617,5.73556 c -1.025078,0.0112 -2.340326,0.38 -4.236434,0.87127 0,0 3.744657,3.70686 5.214152,4.10879 1.469464,0.40193 2.986714,-1.83101 1.51722,-3.70675 -0.734734,-0.93788 -1.469861,-1.28447 -2.494938,-1.27331 z" transform="translate(-65.616668,297.92083) translate(161.9116,-89.379098)"/>
    <path fill="#030303" d="m -0.648696,-111.59151 c -12.143793,-1.47637 -23.251583,-6.7347 -33.88606,-16.04116 -6.114389,-5.3504 -11.595947,-13.92925 -11.611346,-18.17264 -0.0066,-0.9906 -0.628068,-2.85512 -1.38766,-4.14258 -1.487064,-2.52042 -1.588743,-7.1292 -0.167613,-7.59592 0.436377,-0.14288 1.252431,0.58684 1.813427,1.62163 0.639366,1.17951 1.030076,1.47505 1.046877,0.79243 0.04067,-1.65259 1.621631,-2.73632 2.585561,-1.77271 0.603356,0.60325 0.974593,0.59981 1.59012,-0.0159 1.337601,-1.33747 3.105785,-0.91016 4.990862,1.20518 1.710055,1.91902 3.234425,2.34315 1.676717,0.4662 -0.555307,-0.66887 -0.544486,-1.44833 0.04167,-3.0017 1.010893,-2.67864 0.363961,-3.33349 -1.475237,-1.49463 -2.260971,2.26086 -3.719248,1.51156 -3.569838,-1.83489 0.111628,-2.5019 -0.02961,-2.78738 -1.310957,-2.65192 -2.037345,0.21537 -2.217923,-1.69148 -0.479293,-5.05989 2.082138,-4.03463 3.953377,-5.83009 6.077135,-5.83009 1.010126,0 2.689119,-0.43709 3.731128,-0.97208 1.041902,-0.53446 4.529296,-2.19922 7.749725,-3.69941 6.550554,-3.05143 7.105597,-4.03066 3.902022,-6.88472 -1.074261,-0.95753 -3.146055,-3.49726 -4.604015,-5.64356 -4.048892,-5.96292 -8.050979,-9.56707 -10.623285,-9.56707 -3.394075,0 -5.642504,1.1594 -9.586198,4.94348 -6.699673,6.42831 -15.027963,11.78639 -18.320702,11.78639 -1.298364,0 -1.427401,0.29342 -1.195838,2.72124 0.201163,2.10926 -0.06876,3.07102 -1.200255,4.2754 -1.74207,1.85447 -4.747102,2.57916 -7.054295,1.70233 -1.323975,-0.50324 -1.667007,-1.09299 -1.64547,-2.8276 0.04165,-3.35995 3.182938,-6.60215 7.456223,-7.6962 4.455848,-1.14036 9.154266,-4.76647 16.439832,-12.6881 4.686829,-5.09613 6.352487,-6.44683 9.319207,-7.55702 3.959199,-1.48141 7.218627,-1.70921 9.894305,-0.69189 2.335742,0.88821 8.081539,6.33809 10.592673,10.04702 1.121252,1.65629 3.514672,4.88792 5.318734,7.18106 l 3.280092,4.16957 3.131159,-1.56739 c 6.411436,-3.20914 21.320786,-7.07337 27.375749,-7.09613 2.038006,-0.005 3.818731,-0.63182 6.357197,-2.22885 3.811931,-2.39898 7.439236,-4.02802 15.967418,-7.17232 7.821586,-2.88449 10.062528,-1.78382 5.793793,2.844 -1.794351,1.94601 -5.621099,7.50068 -6.383099,9.26598 -0.106257,0.24632 1.390624,0.65775 3.326262,0.9144 1.935771,0.25691 5.332307,1.07738 7.548007,1.82377 3.89591,1.31286 4.050797,1.31683 4.703286,0.12488 0.371158,-0.67786 2.497826,-3.03927 4.726094,-5.24748 5.25354,-5.20674 12.497461,-7.94438 14.835213,-5.60652 1.302756,1.30281 0.101389,2.70695 -3.764915,4.40028 -3.738165,1.63725 -12.338208,6.88843 -11.937497,7.28901 0.568457,0.56859 7.860453,-2.14868 10.360448,-3.86001 3.587089,-2.45639 7.294351,-3.76978 11.367874,-4.02775 2.48301,-0.15742 3.19408,0.0212 3.19408,0.80116 0,0.948 -3.06922,2.11191 -12.379776,4.6945 l -3.011302,0.83556 2.623502,0.91995 c 2.376593,0.83318 2.884567,0.79349 5.397394,-0.42307 2.897112,-1.40202 7.353622,-1.75603 9.000092,-0.71411 1.65248,1.04537 -0.41447,2.64293 -4.04267,3.1242 -1.80139,0.23892 -3.27528,0.5887 -3.27528,0.77656 0,0.82999 2.49939,2.12195 4.1429,2.141 2.06092,0.0238 3.02969,1.03241 1.54133,1.60338 -1.34003,0.51409 -1.23634,1.08162 0.61053,3.33957 1.33998,1.63804 1.76307,1.80234 2.9719,1.15544 1.93847,-1.03744 2.75363,-2.78395 3.51981,-7.54089 1.16866,-7.25779 3.41108,-9.7626 10.358669,-11.57235 4.2785,-1.11416 13.43173,-1.35149 14.95489,-0.38788 1.69778,1.07447 -0.34375,2.48973 -4.82008,3.34195 -12.17631,2.31775 -14.138059,3.59701 -14.902939,9.71894 -0.24622,1.97036 -1.016,4.5175 -1.71072,5.65971 -1.53961,2.53153 -4.99277,4.73524 -7.42564,4.73868 -0.99036,0 -1.98683,0.30374 -2.21429,0.67152 -0.88152,1.42636 -2.85922,0.53419 -6.04774,-2.72865 -6.468804,-6.61935 -12.183936,-8.72967 -19.766921,-7.29933 -4.005659,0.75592 -5.595937,0.71623 -12.149164,-0.30427 -4.147105,-0.64532 -9.949153,-1.80604 -12.893542,-2.57995 -7.939537,-2.08598 -22.614414,-2.06137 -30.338183,0.0505 -7.261357,1.98491 -13.845963,4.99825 -14.794018,6.7699 -0.416269,0.77787 -1.414013,1.40785 -2.229617,1.40785 -0.811874,0 -3.586798,1.03822 -6.166327,2.30822 -2.579608,1.26921 -6.195827,2.68341 -8.036083,3.14219 -1.840177,0.45879 -3.56997,1.01415 -3.843867,1.23455 -0.672359,0.54054 3.646276,10.65345 6.577489,15.40219 2.888482,4.67968 3.816958,10.4132 1.983237,12.24703 -1.57517,1.57533 -3.51835,1.41235 -4.45889,-0.37333 -1.10834,-2.10502 -1.873859,-2.48787 -4.997821,-2.49951 -1.50286,-0.005 -4.454419,-0.35613 -6.559021,-0.77894 -6.8571,-1.37715 -6.712505,0.59479 0.633783,8.64394 4.826397,5.28849 10.623153,9.37921 19.684735,13.89274 13.936054,6.94055 30.532493,7.48109 43.157113,1.4052 8.230791,-3.96134 12.434888,-8.55318 21.036704,-22.97615 2.679091,-4.49183 5.306536,-8.52911 5.838798,-8.9707 0.70739,-0.58658 1.568979,-0.61833 3.202913,-0.11694 5.889969,1.8079 14.49459,-1.73937 20.435676,-8.42407 3.315576,-3.73036 4.634176,-4.71011 7.599256,-5.64462 4.02392,-1.26868 7.96415,-1.45891 9.80535,-0.47334 1.04834,0.56118 1.17367,0.44714 0.85405,-0.77497 -0.32295,-1.23507 -0.15724,-1.37556 1.20193,-1.02023 0.86709,0.22675 1.8933,0.15214 2.28055,-0.16669 1.430199,-1.1758 18.967579,-5.38559 23.124919,-5.55122 3.58156,-0.14261 4.33732,0.0159 4.53078,0.95912 0.66172,3.21997 -4.78173,5.03237 -17.11121,5.69674 -4.157,0.22437 -7.31885,0.62494 -7.02636,0.89032 2.11252,1.9177 14.46745,4.649 21.06941,4.65746 2.09452,0.005 3.99603,0.3093 4.2255,0.68025 0.7085,1.1467 -0.28445,3.10065 -1.96442,3.86582 -5.30262,2.41618 -13.26415,1.11284 -21.35066,-3.49541 l -5.142019,-2.93052 3.383019,4.04865 c 5.99297,7.17233 8.19499,8.26744 18.40581,9.15432 3.91179,0.33973 7.24985,0.75486 7.41789,0.92287 0.16804,0.16827 -0.4639,1.21973 -1.40412,2.33733 -3.3591,3.99203 -11.9738,5.33161 -18.4531,2.86967 -5.08727,-1.93305 -7.69009,-4.26906 -11.723209,-10.52089 -2.72537,-4.22434 -4.24225,-5.91027 -5.96561,-6.63046 -3.78376,-1.58089 -5.46039,-1.27715 -6.30365,1.14194 -1.0365,2.97312 -1.00237,3.04694 1.64267,3.54277 2.63181,0.49371 3.56404,1.86902 2.29981,3.39222 -0.93139,1.1221 -3.79087,1.29884 -6.19985,0.38285 -1.27865,-0.48577 -2.01038,-0.28442 -3.556743,0.97976 l -1.946883,1.59199 4.015056,0.0712 c 2.20826,0.0402 4.59361,0.29765 5.30082,0.57467 1.21923,0.47784 1.2029,0.56224 -0.31618,1.62613 -1.82705,1.27979 -6.06681,1.45495 -10.209054,0.42254 -2.184876,-0.54451 -3.39799,-0.48128 -5.482404,0.2876 l -2.676684,0.98663 4.349618,0.0508 c 5.235125,0.0611 9.093044,1.03744 9.629694,2.43602 0.23064,0.60087 -0.28511,1.70762 -1.24129,2.66356 -1.457618,1.45759 -2.209087,1.63566 -6.898112,1.63566 -5.812155,0 -11.105198,-1.29038 -13.716238,-3.3446 -0.936811,-0.7366 -1.848141,-1.33959 -2.025306,-1.33959 -0.177112,0 -1.404858,2.28018 -2.728331,5.06704 -3.370421,7.09718 -8.029416,13.83083 -13.210222,19.09366 -9.418029,9.56627 -26.058177,14.54917 -42.081211,12.60025 z m -68.255964,-69.92514 c 0,-0.57362 -0.301122,-0.85672 -0.669158,-0.62944 -0.368009,0.22754 -0.669157,0.69665 -0.669157,1.04351 0,0.34634 0.301148,0.62945 0.669157,0.62945 0.368036,0 0.669158,-0.46937 0.669158,-1.04352 z m 101.533562,-13.41332 c -0.22233,-0.22225 -0.799492,-0.24632 -1.282621,-0.0532 -0.533797,0.21379 -0.375258,0.37227 0.404336,0.40455 0.70538,0.0302 1.100667,-0.12912 0.878285,-0.35137 z m -38.583393,70.16459 c -2.602098,-1.32688 -5.108655,-4.36827 -4.462093,-5.41469 0.277495,-0.44927 1.677697,-0.11748 3.928534,0.93027 1.923468,0.89562 3.841459,1.63116 4.262146,1.63486 1.272963,0.0106 1.587606,1.90818 0.497258,2.99852 -1.281589,1.28138 -1.430655,1.27635 -4.225845,-0.14896 z m 14.00511,-3.33004 c -1.50077,-0.75989 -2.342119,-1.66661 -2.342119,-2.52439 0,-1.17184 0.436484,-1.33456 3.518139,-1.30942 4.124721,0.0352 6.325975,1.54278 5.10233,3.49699 -1.006263,1.60708 -3.503877,1.74123 -6.27835,0.33682 z m 9.535768,-5.01386 c -1.602158,-0.77284 -2.070153,-2.5355 -0.669211,-2.51989 2.199561,0.0238 3.847783,0.91361 3.847783,2.07645 0,1.40124 -0.924825,1.53062 -3.178572,0.44344 z m 8.308948,-4.98263 c -1.031557,-1.03187 -0.390789,-2.31616 1.052672,-2.10979 1.894496,0.26988 2.493036,2.55561 0.66929,2.55561 -0.701728,0 -1.47664,-0.20082 -1.721962,-0.44582 z m 7.490804,-8.90878 c -1.353978,-1.13533 -1.43629,-1.42479 -0.575998,-2.02565 1.083654,-0.75671 4.593352,-0.35428 5.588582,0.64082 1.028065,1.02843 -0.097,2.70933 -1.812978,2.70933 -0.890957,0 -2.330741,-0.59584 -3.199606,-1.3245 z m -18.643758,-15.1855 c -1.370489,-0.5379 -3.345895,-2.30875 -3.345895,-2.99985 0,-0.31115 1.966754,-0.56541 4.370679,-0.56541 3.351027,0 4.464553,0.24474 4.77311,1.04881 0.221271,0.57679 0.127158,1.32397 -0.209286,1.66026 -0.812456,0.81253 -4.327631,1.35096 -5.588608,0.85619 z m -34.964476,-2.94958 c -1.667536,-0.97102 -1.583319,-5.03184 0.123376,-5.94518 2.118624,-1.13427 3.960653,-0.79613 5.094895,0.93503 0.875533,1.33641 0.920354,1.90606 0.249847,3.17871 -1.368743,2.59794 -3.136027,3.18955 -5.468118,1.83144 z m 44.978584,-10.34679 c -0.598408,-0.72126 -0.644789,-1.24407 -0.153775,-1.73487 0.911463,-0.91149 3.523191,0.41301 3.523191,1.78646 0,1.29355 -2.282243,1.25836 -3.369416,-0.0516 z m 76.476881,-2.08783 c -3.225399,-1.30148 5.03979,-5.22049 16.18528,-7.67477 9.13903,-2.01215 12.38144,-1.14935 8.87108,2.36141 -3.22193,3.22157 -20.93219,6.97759 -25.05636,5.31336 z m -1.505659,-7.62397 c 0,-3.3737 19.728129,-9.0043 23.403669,-6.67967 0.83237,0.52652 0.73927,0.88636 -0.59704,2.30876 -2.4435,2.60112 -13.52872,5.74595 -20.25285,5.74595 -2.13058,0 -2.553779,-0.2278 -2.553779,-1.37504 z" transform="translate(-65.616668,297.92083) translate(161.9116,-89.379098)"/>
    <path fill="#fbe960" d="m -66.552957,-206.95894 c -0.548642,0.0126 -1.113989,0.25634 -1.561146,0.82063 -1.636613,3.70403 1.683267,4.20587 3.179651,2.12235 1.075489,-1.4976 -0.216421,-2.97528 -1.618505,-2.94298 z m -12.824024,1.17926 c -1.324319,-5e-4 -2.512187,1.78765 -1.742012,3.7884 0,0 1.492552,1.32654 3.469038,1.21905 1.976532,-0.10752 1.290992,-2.1869 -0.32246,-4.23024 -0.428586,-0.54275 -0.925557,-0.77703 -1.404566,-0.77721 z m 7.051249,2.34146 c -0.09265,-0.003 -0.186938,0.003 -0.283187,0.0212 -0.896886,0.1673 -1.888763,2.17552 -1.279508,4.31705 0.445241,1.98696 2.998289,0.28386 3.466972,-0.88626 0.439365,-1.09695 -0.514471,-3.40447 -1.904277,-3.45198 z m 14.197583,2.84014 c -0.98963,0.0102 -2.166023,1.24644 -2.578137,2.1456 0,0 1.764168,2.86132 3.325895,2.5616 1.561703,-0.29974 1.156393,-2.94301 0.144177,-4.2509 -0.253053,-0.32698 -0.562058,-0.45971 -0.891935,-0.4563 z m -24.338566,1.57251 c -0.461457,-2.9e-4 -0.980253,0.0892 -1.554427,0.293 -1.494479,0.53054 -0.99812,3.27563 0.525033,4.68861 0,0 1.189836,0.2996 2.43706,-0.41962 2.07925,-1.19901 1.412351,-4.56025 -1.407666,-4.56199 z m -5.756754,5.21467 c -0.875211,3.1e-4 -1.592164,0.55987 -1.465027,2.04225 0.568415,2.48023 2.423212,2.76239 3.290755,2.42414 1.720395,-0.67074 1.555845,-2.08594 0.389124,-3.41064 -0.546901,-0.62096 -1.442608,-1.05603 -2.214852,-1.05575 z m 39.832194,4.87722 c -1.014049,-0.0241 -2.080761,0.44208 -2.510958,1.10794 -0.809756,1.25338 1.156896,3.95096 0.954463,3.406 2.284728,-0.49046 4.366732,-1.00822 3.643706,-3.10627 -0.338919,-0.98347 -1.192463,-1.38643 -2.087211,-1.40767 z m -45.615304,0.31678 c -0.607263,0 -1.046448,0.0294 -1.046448,0.0294 -2.748852,0.87492 -0.371268,3.95495 1.70894,3.36 2.080208,-0.59498 3.640348,-2.17014 2.525944,-2.87011 -0.696503,-0.43746 -2.17633,-0.51935 -3.188436,-0.51934 z m 4.534607,5.20743 c -2.49189,0.0229 -5.440638,1.98159 -3.519165,2.79311 2.19597,0.92743 4.657089,0.92742 5.792928,-0.10697 1.135838,-1.03447 -1.249536,-2.56832 -1.249536,-2.56832 -0.321819,-0.0847 -0.668243,-0.12109 -1.024227,-0.11782 z m -3.554305,5.70301 c -4.131657,1.98606 -3.583215,4.8857 -1.348755,4.13102 2.23446,-0.75469 6.197163,-2.54219 1.348755,-4.13102 z m 43.858305,0.32401 c -0.363042,0.0127 -0.69314,0.10295 -0.95343,0.29197 -1.388188,1.00817 -1.214913,3.10627 -1.214913,3.10627 2.342591,1.66208 5.35028,0.5177 5.668388,-0.89917 0.258484,-1.15123 -1.926862,-2.55415 -3.500045,-2.49907 z m -38.487057,2.94091 c -2.408344,1.30089 -4.206598,5.41534 -1.605586,4.84053 2.600973,-0.57481 6.51857,-4.35646 1.605586,-4.84053 z m 37.255091,3.4494 c -2.092734,-0.0226 -3.707985,1.8104 -1.302763,3.38067 2.850622,1.86103 5.465786,0.35996 4.419368,-1.44745 -0.554037,-1.135 -0.856199,-1.32592 -1.927531,-1.71618 -0.397793,-0.14491 -0.801531,-0.21285 -1.189074,-0.21704 z m -35.467603,1.44952 c -0.375972,1.08992 -0.462504,2.61581 1.157035,2.50683 1.619567,-0.10898 -1.157035,-2.50683 -1.157035,-2.50683 z m -2.147156,2.29392 c -0.06048,-8.3e-4 -0.122687,-6.8e-4 -0.186035,5.2e-4 -2.148725,1.90988 -2.513687,6.18807 -0.162264,5.11855 2.314724,-1.0528 4.158417,-5.06677 0.348299,-5.11907 z m 32.562354,0.48318 c -0.07546,-5e-4 -0.149391,0.009 -0.221692,0.0294 -1.156837,0.327 -2.053621,1.30793 -2.053621,1.30793 0.925459,0.79015 1.822025,3.24217 3.354834,2.04329 1.436983,-1.12398 0.05233,-3.37329 -1.079521,-3.38067 z m -24.338049,1.3503 c -0.174577,-0.001 -0.293006,0.0413 -0.293006,0.0413 -2.40043,0.46321 -4.887682,3.81477 -1.793172,5.31337 3.094511,1.49862 3.759745,-1.82552 3.383773,-3.78736 -0.258481,-1.34874 -0.913526,-1.56442 -1.297595,-1.56735 z m 18.972485,1.85053 c -0.819762,-0.0202 -1.39268,0.86145 -1.39268,0.86145 0.549487,2.47954 9.9e-5,5.12244 2.631881,4.76818 2.631781,-0.35422 0.491781,-4.79587 -0.636137,-5.44979 -0.21148,-0.12262 -0.413888,-0.17516 -0.603064,-0.17984 z m 7.997445,1.2945 c -0.84512,-0.0305 -1.707685,0.5051 -2.188497,1.82831 -1.821998,2.20704 4.82946,3.1881 4.511352,0.62684 -0.17895,-1.4407 -1.236273,-2.41594 -2.322855,-2.45515 z m -19.801376,0.73845 c -1.156837,2.39778 -1.966361,4.44108 1.243852,4.44108 3.210187,0 1.532557,-3.48768 0.462504,-3.89641 -1.07008,-0.4087 -1.706356,-0.54467 -1.706356,-0.54467 z m -5.148006,1.96164 c -1.127892,0.79015 -4.656132,4.19627 -1.503784,4.52324 3.152349,0.327 3.672836,-3.84207 1.503784,-4.52324 z m 11.539347,1.11725 c -1.417133,1.25338 -2.689247,1.98892 -1.040763,2.96984 1.648485,0.98091 3.267707,0.40882 2.776058,-1.28054 -0.491674,-1.68934 -0.433863,-1.58029 -1.735295,-1.6893 z m -9.371521,4.55682 c -0.116334,0.001 -0.224587,0.0105 -0.316776,0.0207 -1.330351,1.06268 -1.995306,3.76044 -0.491443,3.35174 1.503891,-0.40873 2.226664,-1.2536 2.082044,-2.34353 -0.117484,-0.88554 -0.769707,-1.03371 -1.273825,-1.02888 z" transform="translate(-65.616668,297.92083) translate(161.9116,-89.379098)"/>
</svg>