<?xml version="1.0" ?><svg xmlns="http://www.w3.org/2000/svg" width="220.64844mm" height="194.60704mm" viewBox="0 0 220.64844 194.60704">
    <path fill="#ae7a4a" d="m 1238.7998,-607.15859 c 14.781,-15.33411 16.5306,-19.47946 41.5801,-24.83229 25.0494,-5.35309 51.5723,-7.20427 59.2621,-11.06799 7.6896,-3.86372 13.1054,-9.00455 13.1054,-9.00455 0,0 -6.8892,-14.25846 2.136,-17.27676 9.0252,-3.01857 15.84,9.49818 15.84,9.49818 0,0 8.3093,-4.00993 14.735,-6.76151 l 6.4256,-2.75158 c 0,0 -1.0842,-13.10571 6.2833,-12.62287 7.3674,0.48309 4.8348,18.27224 4.8348,18.27224 0,0 11.4657,8.61294 16.2086,18.0307 4.7427,9.41775 17.5437,25.03375 13.4917,43.26565 -4.0521,18.2319 -11.0514,24.47023 -19.8001,26.12046 -8.749,1.64997 -28.1028,-5.01492 -28.1028,-5.01492 0,0 3.7899,11.09213 -3.9457,23.52845 -7.7359,12.43632 -27.3518,21.33089 -47.7964,26.48252 -20.4449,5.15163 -45.7245,12.19503 -64.7417,4.14561 -19.0172,-8.04942 -42.0867,-24.43014 -40.6132,-41.69611 1.4735,-17.26597 11.0973,-38.31523 11.0973,-38.31523 z" transform="translate(1.0584139,-58.472931) translate(-1217.5615,742.98327)"/>
    <path fill="#6a5e53" d="m 1400.5436,-681.24828 c -0.7937,0.0108 -1.7461,0.26045 -2.8871,0.83095 -6.0855,3.04268 -3.3326,12.60553 -0.2899,14.05444 8.1137,1.5938 6.8099,-5.50599 6.9546,-8.25892 0.1178,-2.23674 -0.3383,-6.67339 -3.7776,-6.62647 z m -42.6367,12.34756 c -0.6703,0.0291 -1.2906,0.14699 -1.834,0.36432 -4.3468,1.73868 -4.6367,13.04016 2.4629,17.53175 3.3326,2.46314 12.026,-3.91188 11.5916,-9.27282 -0.3805,-4.69081 -7.5277,-8.82728 -12.2205,-8.62325 z m 68.2408,43.81593 c -4.8135,-0.26744 -20.3243,3.47604 -22.7309,5.88285 -2.407,2.40681 -4.0111,16.31324 -3.7439,22.73143 0.2675,6.41818 7.4876,19.78947 10.4293,19.25464 2.9416,-0.53486 10.9647,-2.13943 16.3132,-9.09247 5.3486,-6.95303 7.2201,-20.85922 6.9526,-27.81226 -0.2672,-6.95304 -7.2203,-10.96419 -7.2203,-10.96419 z" transform="translate(1.0584139,-58.472931) translate(-1217.5615,742.98327)"/>
    <path fill="#030303" d="m 1342.2683,-491.05091 c -1.4213,-1.38041 -1.4674,-2.27259 -1.0224,-19.79065 0.4538,-17.86649 0.4278,-18.32903 -0.9949,-17.74418 -9.6117,3.95161 -30.4188,7.79477 -44.2491,8.17251 l -9.1689,0.25054 -0.4789,5.44585 c -0.6721,7.64496 -0.9667,8.88841 -2.7241,12.88292 -1.2646,2.87441 -4.123,1.56929 -4.6945,-0.13156 -0.6292,-1.8725 -0.9612,-3.27425 -0.1369,-10.45692 0.531,-4.62742 0.8368,-8.49988 0.6796,-8.60601 -0.1573,-0.10612 -3.4914,-0.8747 -7.4091,-1.70855 l -7.1231,-1.51609 0.4386,3.41017 c 1.9699,15.31201 2.7697,26.80784 1.9666,28.26509 -2.115,3.83802 -5.4804,-0.56173 -6.8073,-8.90074 -0.4222,-2.65316 -1.0014,-9.35095 -1.2871,-14.88417 l -0.5196,-10.06016 -5.6175,-2.80863 c -6.9259,-3.46234 -16.2469,-11.1682 -21.2203,-17.54298 -2.0571,-2.63722 -4.0093,-4.79444 -4.3381,-4.79444 -0.3288,0 -1.6474,1.40714 -2.9303,3.12751 -1.2828,1.71961 -3.3487,3.6376 -4.5908,4.26074 -1.8302,1.90102 -4.8252,0.0853 -2.9334,-2.54575 1.7789,-2.28005 3.0138,-4.11992 4.8557,-6.86481 l 3.3491,-4.99 -1.2102,-5.02803 c -1.3928,-5.78607 -1.0169,-12.10406 1.2275,-20.62655 6.3678,-24.1814 23.2352,-41.87214 46.2225,-48.47947 17.0245,-4.89363 27.4046,-6.89564 46.6433,-8.99607 18.4388,-2.01384 26.0198,-4.03127 32.1165,-8.54768 l 2.4361,-1.8044 -1.7821,-3.41892 c -4.1128,-7.88958 -3.0308,-14.0719 2.9225,-16.69653 4.3761,-1.92981 7.8237,-1.8206 11.6697,0.36823 3.4494,1.96346 5.2176,4.79187 6.954,11.12451 1.3366,4.87514 1.3395,4.85586 -0.7253,4.85586 -1.0692,0 -2.7271,-1.05073 -4.189,-2.65419 -4.1718,-4.57654 -7.0497,-2.0498 -4.079,3.58158 1.7549,3.32641 0.3725,3.92025 -2.0793,0.89269 -3.1462,-3.88427 -2.9681,-8.88815 0.3452,-9.69579 1.4978,-0.36514 1.7014,-0.66682 1.0016,-1.48602 -1.9328,-2.26181 -7.565,-0.66066 -7.5715,2.15233 -0.01,2.63029 2.5026,8.69337 4.4344,10.71748 0.977,1.02401 1.5939,2.32296 1.3711,2.887 -0.5278,1.33545 -3.489,1.27378 -5.3758,-0.11178 -1.3648,-1.00267 -1.7148,-0.85749 -4.3477,1.80364 -5.567,5.62675 -15.7907,8.82262 -34.6926,10.84442 -17.4515,1.86711 -28.624,4.14227 -43.9784,8.95548 -19.3419,6.06359 -31.9334,18.79388 -38.4749,38.90008 -4.3073,13.23882 -3.9347,23.35089 1.2057,32.71776 2.9076,5.29785 13.7165,15.58568 19.6963,18.74712 l 3.892,2.057 0.012,-2.08732 c 0.03,-5.28448 3.4146,-5.14572 4.2361,0.17422 0.4735,3.06739 0.8421,3.58543 3.2426,4.55932 9.2798,2.47997 20.2102,4.17773 29.0773,4.22553 12.6366,-0.12077 26.8049,-2.48896 40.0311,-6.68982 l 5.9216,-1.88072 v -4.71402 c 0,-8.62759 2.9762,-11.77104 4.5211,-4.7744 0.4551,2.0606 0.8274,4.39846 0.8274,5.19402 19.9634,-4.95427 29.653,-13.35573 34.9541,-33.01353 l 0.7846,-3.54791 c -7.1639,-7.06653 -14.4484,-18.57803 -18.776,-29.34331 -4.7466,-12.7069 -0.2459,-12.48206 2.8948,-3.62706 2.1405,6.03508 4.8924,10.69796 7.2428,13.73245 3.5508,4.53569 16.0834,23.03791 29.5363,18.69187 -2.7628,-4.48995 -3.2226,-9.69142 -3.8712,-15.5754 -0.7838,-7.1115 0.3139,-14.13999 1.5391,-14.13999 0.3899,0 0.7104,1.75326 0.712,3.89584 0.01,5.73982 1.9264,16.24273 3.6752,20.0823 0.8401,1.84449 2.4108,3.91537 3.4905,4.60275 1.922,1.22264 2.0631,1.18306 6.7571,-1.89897 2.6439,-1.7358 3.9374,-2.91681 2.884,-2.63183 -4.6935,1.26761 -7.3271,1.32851 -8.2986,0.19195 -1.3678,-1.60063 -2.1168,-5.7501 3.4116,-5.4109 1.189,0.073 3.7314,-0.61235 3.3588,-2.52391 l 0.012,-8.33953 c 0.012,-8.07717 0.6666,-11.38765 1.8773,-9.48534 0.3034,0.47693 0.7422,4.93706 0.9752,9.91164 0.2838,6.06385 0.539,8.08411 1.2864,9.19959 0.3091,0.46126 3.1217,-2.05186 3.4788,-0.47255 0.5769,2.55088 -2.9353,5.08713 -2.6117,4.90802 6.267,-3.47056 6.7758,-18.59268 6.7847,-23.14198 0.024,-12.24899 -0.3635,-13.07205 -5.8879,-12.5021 -8.9205,0.92045 -15.8777,3.26165 -18.9808,6.38763 -2.0368,2.05777 -2.9895,2.10968 -2.3586,-0.61441 0.8537,-3.68513 4.2466,-5.79146 9.0002,-7.68375 3.2622,-1.2987 6.0512,-1.81263 10.0538,-1.85529 3.0466,-0.0334 5.5394,-0.15777 5.5395,-0.28035 0,-0.80532 -14.5859,-25.97167 -16.9671,-29.27187 -3.0899,-4.28334 -13.7744,-8.72266 -20.992,-8.72266 -3.5094,0 -7.6957,1.03968 -13.4246,3.33386 -2.3698,0.94897 -1.5209,-1.6379 1.1985,-3.6525 2.9557,-2.18985 7.366,-3.81593 12.2953,-4.53388 l 3.4974,-0.50931 -0.4624,-2.80836 c -0.8581,-5.21151 2.4338,-11.35168 6.558,-12.23127 2.9812,-0.63573 7.4071,1.43464 8.847,4.13893 1.4123,2.65265 1.3931,9.38641 -0.034,11.8101 -0.6006,1.02015 -1.1042,2.0552 -1.1191,2.30086 -0.015,0.24489 1.6884,1.48089 3.785,2.74721 4.3579,2.6308 6.759,5.98008 17.3954,24.2644 8.33,14.31884 10.2496,19.71459 10.2962,28.94065 0.055,10.94489 -4.2223,23.1908 -9.5906,27.45667 -1.5409,1.22444 -3.9735,3.14885 -5.4058,4.27666 -5.3759,4.23247 -23.7609,10.91612 -35.7919,3.47494 -2.7862,17.72773 -5.6855,24.52136 -15.8996,31.55063 -3.9282,2.51363 -5.3537,3.83751 -5.0892,4.72764 0.2021,0.67993 1.2842,4.24197 2.4046,7.91528 2.4328,7.97644 4.5024,20.56822 3.8527,23.44032 -0.256,1.13295 -0.9352,2.43731 -1.5092,2.90036 -1.6359,1.31848 -2.4832,-0.98521 -4.983,-13.54538 -2.4328,-12.2251 -4.3096,-19.13385 -5.1748,-19.05033 -0.2989,0.0265 -3.075,1.28045 -6.169,2.78241 l -5.6256,2.73076 0.091,16.32548 c 0.095,17.07556 -0.5292,23.83964 -2.3014,24.92917 -2.031,0.85004 -2.7745,0.10716 -3.6903,-0.77295 z m 58.7942,-181.01438 c 0,-3.10902 -0.3542,-4.6467 -1.2337,-5.35592 -1.0576,-0.85261 -1.4392,-0.74802 -2.6743,0.73364 -1.5902,1.67926 -1.3721,3.79356 -1.8997,5.74701 -0.3458,1.25167 0.019,1.74762 1.7296,2.35303 3.8731,1.36962 4.0781,1.19488 4.0781,-3.47776 z m 7.6923,64.56339 c -1.4727,-2.67294 -0.017,-4.60043 1.9097,-4.60043 2.6616,0 2.7964,5.36542 0.1916,5.84414 -0.7071,0.13003 -1.6527,-0.4299 -2.1013,-1.24371 z m 14.9964,-4.06723 c -0.6131,-1.5513 0.2009,-4.01816 1.484,-4.49611 1.298,-0.48438 2.0274,0.99625 1.6753,3.39938 -0.2859,1.95139 -2.5157,2.72537 -3.1593,1.09673 z m -38.7097,-25.30974 c -0.716,-0.83744 -1.7214,-3.23313 -1.032,-5.26238 1.6761,-4.93218 7.0565,-1.56157 5.7214,3.6047 -1.1769,2.0732 -3.7195,2.72126 -4.6894,1.65768 z m 11.4634,-0.35101 c -1.1338,-2.05726 -1.0101,-4.68138 0.3985,-6.56185 0.9666,-1.29048 2.3347,-1.04893 3.9442,0.51367 1.4152,1.37476 1.3782,5.31506 0.062,6.59346 -1.3767,1.33673 -3.5133,1.07257 -4.4048,-0.54528 z" transform="translate(1.0584139,-58.472931) translate(-1217.5615,742.98327)"/>
    <path fill="#a17044" d="m 1323.6909,-624.55037 c -0.1726,0.0304 -2.0688,0.33959 -2.2355,0.34769 -3.8743,0.18316 -6.6515,1.30175 -10.4063,2.49527 -3.8833,1.23436 -6.024,5.09629 -0.4471,3.59748 2.4561,-0.66009 9.5557,-2.69396 13.4549,-3.35183 5.5281,-0.93265 3.8512,-3.8323 1.2599,-3.37534 z m -25.5766,0.33198 c -0.3774,-0.0333 -0.7578,-0.0404 -1.118,-0.0165 -4.5068,0.29996 -10.5111,2.77838 -13.6166,4.66269 -2.907,1.76394 -1.7002,4.18836 -10e-5,3.32578 4.2252,-2.14363 11.7026,-4.13719 14.6898,-4.89278 5.209,-1.31762 2.6875,-2.84615 0.045,-3.07923 z m -19.3911,2.06296 c -0.7177,-0.056 -1.6204,0.0652 -2.6333,0.43744 -3.7146,1.36535 -7.5306,3.59035 -11.4088,7.10471 -2.1915,1.98603 -1.1336,6.19338 2.4305,2.70283 2.7095,-2.65348 6.4558,-4.99224 11.0638,-6.9559 3.1889,-1.35895 2.7006,-3.12104 0.5478,-3.28908 z m 7.5066,10.77365 c -0.1862,-10e-4 -0.3761,0.0213 -0.5673,0.0711 -5.2472,1.36684 -10.6686,4.33915 -13.6427,8.0665 -2.2121,2.77241 -1.1371,4.73101 3.4155,1.38437 4.6976,-3.4532 10.7378,-5.0052 12.1833,-6.0032 1.8327,-1.26525 0.4114,-3.50524 -1.3888,-3.51874 z m -34.661,10.7612 c -0.5853,-0.0635 -1.2103,0.0838 -1.7125,0.50965 -4.1356,3.50682 -7.732,8.53625 -8.7959,13.18453 -0.7912,3.45742 1.0264,4.75588 3.6776,-0.23377 2.7357,-5.14856 7.5062,-9.16564 8.3761,-10.69173 0.8366,-1.46776 -0.2577,-2.62896 -1.5453,-2.76868 z" transform="translate(1.0584139,-58.472931) translate(-1217.5615,742.98327)"/>
</svg>