<?xml version="1.0" ?><svg xmlns="http://www.w3.org/2000/svg" width="232.67259mm" height="213.30899mm" viewBox="0 0 232.67259 213.30899">
    <path d="m 1648.8751,556.47244 c 5.9937,-8.30462 4.9105,-7.04632 9.5322,-13.75712 4.6216,-6.7108 21.5195,-11.07281 32.4959,-12.07943 10.9764,-1.00662 21.0141,-1.50993 26.3579,-5.53641 5.3437,-4.02648 8.8822,-7.5077 14.3704,-5.74612 5.4882,1.76159 9.0267,14.8057 6.8603,16.52534 -2.1664,1.71964 -12.4207,12.58272 -19.0643,12.54079 -6.6436,-0.042 -21.3752,-6.03972 -24.4803,-7.08828 -3.1052,-1.04855 -7.8713,-1.76159 -11.843,0.54526 -3.9717,2.30684 -6.6436,1.50993 -10.1099,4.19425 -3.4662,2.68432 -12.6373,11.53416 -16.2479,11.86971 -3.6107,0.33555 -7.8713,-1.46799 -7.8713,-1.46799 z" fill="#87cbbc" paint-order="fill markers stroke" transform="translate(16.404194,-40.745823) translate(-1652.556,-477.03412)"/>
    <path d="m 1652.086,553.71939 c 5.1147,0.0204 9.9468,-2.43789 14.9553,-6.55563 5.0086,-4.11776 11.2517,-9.83345 20.881,-10.46853 9.6292,-0.63508 16.5425,3.81045 22.0448,6.37125 5.5025,2.56079 11.6046,-0.7375 15.5548,-3.07295 3.9505,-2.33545 6.9488,-8.5633 7.9717,-9.95638 1.0228,-1.39306 0.3878,-4.58893 3.3858,-1.92572 2.9983,2.66322 -3.774,17.18805 -11.7102,18.99087 -7.9361,1.80279 -12.9799,0.90141 -19.5757,-1.53649 -6.5958,-2.43787 -16.0488,-6.1254 -20.7399,-4.52747 -4.691,1.59792 -11.2868,4.48651 -13.6853,6.35077 -2.3987,1.86425 -7.8658,8.48135 -13.086,9.54664 -5.2202,1.06529 -8.2534,0.77848 -7.9362,0.18436 0.3175,-0.59409 1.9399,-3.40072 1.9399,-3.40072 z" fill="#ddde65" paint-order="fill markers stroke" transform="translate(16.404194,-40.745823) translate(-1652.556,-477.03412)"/>
    <path d="m 1739.647,535.08161 c 0,0 -5.4159,5.24312 -8.3044,8.30492 -2.8886,3.06179 -11.4095,5.57811 -14.6591,5.49424 -3.2496,-0.0839 -16.3923,-5.36867 -16.3923,-5.36867 0,0 2.2383,14.59609 -0.4336,18.91616 -2.6718,4.32008 -9.6042,5.24288 -13.0705,4.32015 -3.4662,-0.92274 -9.6765,-9.6468 -10.543,-12.03751 -0.8665,-2.39072 8.3768,-13.71544 8.3768,-13.71544 0,0 -9.0988,3.10392 -11.1208,4.52995 -2.022,1.42604 -8.5936,7.04659 -11.5544,9.10177 -2.9607,2.05519 -8.0159,2.93556 -12.132,3.01946 0,0 -2.1664,9.77274 0.8666,15.30914 3.0329,5.5364 22.2419,13.71535 26.0692,16.06413 3.8273,2.34879 30.1131,3.98467 32.4239,3.52331 2.3108,-0.46136 12.6369,-19.92282 12.6369,-19.92282 0,0 6.4939,-9.24138 10.1632,-14.55983 -3.2326,5.44681 -6.6104,10.91214 -7.6646,11.73933 -4.0691,6.71752 -6.7344,14.92758 -10.2191,22.24619 5.2029,1.21779 11.6097,1.66863 11.6097,1.66863 0,0 0.8928,-10.2832 1.8247,-11.86181 0.9318,-1.57861 0.6988,-3.38319 4.8922,-3.5636 4.1933,-0.18041 8.0372,2.32303 8.0372,3.72122 0,1.39819 0.66,13.98177 0.3494,15.44763 -0.3106,1.46585 6.1347,5.61574 12.8519,7.1267 6.7171,1.51095 24.7334,15.26729 24.7334,15.26729 0,0 1.1645,-8.9981 6.445,-11.2758 5.2806,-2.27771 7.222,-4.23947 10.5611,-1.03715 3.3392,3.20232 5.9407,4.62266 5.669,8.90747 -0.2719,4.2848 -4.2323,9.87772 -5.9795,12.04267 -1.7472,2.16495 2.058,4.37497 4.4653,7.26158 2.4073,2.88659 8.0189,22.82242 7.9024,29.65555 -0.1165,6.83313 -9.0079,32.83544 -20.035,37.12023 -11.027,4.2848 -14.3272,4.28449 -14.3272,4.28449 0,0 4.7759,-11.86226 4.7371,-15.10968 -0.039,-3.24743 -9.6294,-22.59619 -21.627,-22.55108 -11.9978,0.0451 -27.5679,1.17254 -31.5671,16.64291 -3.9992,15.47033 6.5622,28.57279 22.4038,34.57154 15.8416,5.9987 38.9828,6.26935 54.5915,-1.62369 15.6086,-7.89304 26.4025,-27.62574 29.2757,-38.65345 2.8732,-11.0277 7.7182,-44.26326 6.9417,-60.52292 -0.7766,-16.25966 -7.0712,-50.08026 -22.3304,-58.42434 -15.2592,-8.34408 -32.4597,-20.18365 -54.3585,-19.4169 -21.8987,0.76675 -22.2482,4.37493 -22.2482,4.37493 0,0 -2.2213,3.83369 -3.7585,6.50606 1.8917,-5.35791 4.4975,-17.52296 4.4975,-17.52296 z" fill="#bbe773" paint-order="fill markers stroke" transform="translate(16.404194,-40.745823) translate(-1652.556,-477.03412)"/>
    <path d="m 1688.4388,567.40048 c -7.6324,-1.25236 -12.595,-7.57379 -12.0475,-13.41812 0.5476,-5.84434 2.6012,-13.00066 13.4165,-13.41812 10.8153,-0.41746 13.2453,8.82613 13.1426,14.65059 -0.1026,5.82447 -3.6279,13.23922 -14.5116,12.18565 z" fill="#ae89ae" paint-order="fill markers stroke" transform="translate(16.404194,-40.745823) translate(-1652.556,-477.03412)"/>
    <path d="m 1732.5102,577.87716 c -0.3411,10e-4 -0.696,0.0107 -1.0649,0.029 -5.9018,0.29316 -3.9214,2.66099 -5.1639,7.30661 -1.2425,4.64561 -0.2329,6.13428 0.8154,11.11817 1.0484,4.9839 -1.9027,9.58458 -4.8924,13.05752 -2.9897,3.47294 -14.8707,6.3139 -21.0443,6.26881 -6.1736,-0.0451 -11.2213,4.17254 -13.1627,8.02885 0,0 1.3204,0.92429 3.6112,1.46553 2.2908,0.54124 3.3002,2.50362 2.7177,5.52553 -0.5823,3.02191 -0.1935,3.26982 2.0586,3.83361 2.2519,0.56379 19.452,-5.14157 28.6153,-10.12546 9.1633,-4.9839 14.9098,-14.90727 15.5699,-20.16178 0.66,-5.25451 2.4467,-20.61192 0.7383,-22.61901 -1.6017,-1.88164 -3.6817,-3.74361 -8.7982,-3.72743 z m 60.1066,27.62866 c -1.1223,0.0473 -2.4564,0.38925 -4.07,1.1059 -8.6055,3.82216 -11.0441,15.39473 -10.3538,20.79387 0.6903,5.39914 2.1164,19.59193 1.196,19.35137 -0.9204,-0.24055 -11.9649,-2.19094 -13.6675,-0.77433 -1.7028,1.41661 -4.7856,4.40981 -3.4971,5.77295 1.2885,1.36315 12.6088,6.68253 12.6088,6.68253 0,0 4.1422,11.14557 9.5725,12.26816 5.4302,1.12259 10.1695,-2.48629 10.1695,-2.48629 0,0 -2.1165,-24.77653 -1.2421,-28.54523 0.8743,-3.76871 0.598,-10.18377 2.899,-10.9589 2.3009,-0.77512 5.3379,-2.99348 5.9362,-5.88014 0.5982,-2.88667 -1.2882,-7.91165 -1.2882,-7.91165 -2.5052,-4.29993 -3.3999,-9.62328 -8.2633,-9.41824 z" fill="#ddde65" paint-order="fill markers stroke" transform="translate(16.404194,-40.745823) translate(-1652.556,-477.03412)"/>
    <path d="m 1749.8721,667.63798 -1.9774,16.20995 11.7202,0.90256 7.6242,-8.39248 c -5.6951,-6.72489 -17.367,-8.72003 -17.367,-8.72003 z m -18.2625,7.24349 c -9.6958,5.27605 -7.4358,15.69206 -7.4358,15.69206 l 18.3556,4.53783 0.6121,-4.7572 -5.5536,-5.82205 z m 21.2747,10.19659 -7.3897,3.38984 7.2485,5.44038 2.4001,-1.36635 z m 25.6983,5.35824 c 0,0 -14.1197,1.0667 -15.1551,0.9847 -1.0355,-0.082 -0.7062,5.11181 -0.7062,5.11181 l 13.5083,5.3853 z m -23.769,7.51799 -7.2014,6.36997 9.3201,3.38986 2.4001,-9.02159 z m 28.1466,7.10724 -7.9077,2.8439 2.4473,16.62069 12.4725,-3.3358 c 0,0 -4.4708,-9.70429 -4.7532,-11.34455 -0.2824,-1.6402 -2.2589,-4.78424 -2.2589,-4.78424 z m -34.9242,1.36735 -4.9416,6.09651 -3.8126,3.19753 14.3558,6.17867 4.8944,-12.30226 z" fill="#ae89ae" paint-order="fill markers stroke" transform="translate(16.404194,-40.745823) translate(-1652.556,-477.03412)"/>
    <path d="m 1834.6654,598.50274 c 0,0 -13.6046,6.56333 -23.9814,12.85818 -10.3768,6.29484 -5.4026,9.56611 0.2635,8.8773 5.666,-0.68879 24.937,-5.98853 25.8265,-6.14159 z m 2.0265,36.49093 c 0,0 -10.1463,0.70831 -19.5678,1.83718 -9.4214,1.12886 -7.9382,2.90788 -4.644,4.45768 3.2942,1.54979 20.1604,-0.47753 22.9276,-0.34359 z m -21.5963,21.98392 c -7.1603,-0.16279 -1.7215,9.90768 0.01,11.55493 1.9106,1.81766 10.5743,5.81581 15.7792,7.76739 l 4.2493,-15.38252 c 0,0 -6.4243,-0.80406 -17.394,-3.54011 -1.0284,-0.2565 -1.9038,-0.38285 -2.6445,-0.39969 z" fill="#3bc57d" paint-order="fill markers stroke" transform="translate(16.404194,-40.745823) translate(-1652.556,-477.03412)"/>
    <path d="m 1650.2368,561.28331 c 3.7262,2.49916 19.385,8.09006 28.7005,8.83723 9.3155,0.74717 20.8556,0.32934 28.3012,0.48952 15.3689,0.33064 12.9764,19.84552 -0.2871,22.88573 -13.2635,3.04021 -35.9544,-10.38994 -46.4232,-13.73932 -10.4688,-3.34939 -14.5055,-14.14473 -10.2914,-18.47316 z" fill="#ddde65" paint-order="fill markers stroke" transform="translate(16.404194,-40.745823) translate(-1652.556,-477.03412)"/>
    <path d="m 1815.6786,680.22268 c -5.4037,-0.0515 -6.4123,1.63067 -4.3946,3.13741 2.306,1.72199 9.6854,5.24282 14.462,7.38574 l 4.0189,-7.07921 c 0,0 -3.8543,-2.64004 -11.4968,-3.30971 -0.9553,-0.0837 -1.8175,-0.12687 -2.5895,-0.13423 z m -16.3522,11.40367 c 0,0 -5.7319,5.20375 -5.4684,7.15532 0.2635,1.95158 6.1925,11.95883 12.188,16.12986 0,0 11.3656,-8.15107 10.2126,-9.68172 -1.153,-1.5307 -16.9322,-13.60346 -16.9322,-13.60346 z" fill="#8d949d" paint-order="fill markers stroke" transform="translate(16.404194,-40.745823) translate(-1652.556,-477.03412)"/>
    <path d="m 1775.4262,543.15328 -16.4334,0.19132 c 0,0 -4.1559,35.46533 -5.242,39.99098 -1.0862,4.52565 -1.0391,13.2756 2.0305,7.68025 3.0696,-5.59535 11.9005,-28.5803 11.9005,-28.5803 z m -26.4456,0.41171 -9.6807,0.54794 -3.5411,13.85189 c -0.5195,8.66732 2.5492,17.00466 5.5716,11.43673 3.0223,-5.56794 7.6502,-25.83656 7.6502,-25.83656 z m 38.252,2.98915 -5.195,14.48198 c 0,0 -10.6257,26.96247 -13.1757,32.36582 -2.5502,5.40335 -0.5194,15.13966 4.9585,6.74664 5.478,-8.39303 13.7427,-21.69542 13.7427,-21.69542 l 16.1508,-23.78001 z m 28.2867,17.91089 -11.05,13.19276 c 0,0 -11.4282,16.51157 -14.5922,21.25666 -2.739,6.28106 1.8885,3.84071 5.8081,2.24988 3.9195,-1.59083 27.0591,-19.39187 27.9091,-20.29701 0.85,-0.90514 3.4946,-2.68868 1.6528,-4.77323 -1.8417,-2.08454 -9.7278,-11.62906 -9.7278,-11.62906 z" fill="#45c9bb" paint-order="fill markers stroke" transform="translate(16.404194,-40.745823) translate(-1652.556,-477.03412)"/>
    <path d="m 1733.9212,586.73944 c -1.8527,0.008 -4.34,0.47683 -6.4611,1.46812 -4.2133,3.10412 1.3654,4.23732 5.9686,3.46698 4.6035,-0.77038 4.0961,-3.62548 2.9259,-4.46382 -0.4389,-0.31436 -1.3218,-0.47593 -2.4334,-0.47128 z m -5.0684,10.00352 c 0,0 -1.7941,4.75821 -0.3116,5.00745 1.4822,0.24923 6.7879,0.43055 6.4368,-2.33371 -0.3511,-2.76424 -2.38,-2.65104 -6.1252,-2.67374 z m -2.0283,9.65212 c -3.2769,0.0453 -2.5745,3.24012 -2.5745,3.24012 3.2771,3.98776 7.0606,4.35033 7.9969,2.06189 0.9364,-2.28844 -2.1456,-5.34734 -5.4224,-5.30201 z m 64.4038,0.36536 c -0.5939,0.002 -1.006,0.0962 -1.0485,0.34313 -0.1698,0.98774 0.085,10.39608 2.806,12.42094 2.721,2.02488 5.1868,-6.49447 3.4437,-11.95172 0,0 -3.4195,-0.8193 -5.2012,-0.81235 z m -6.873,2.59054 c 0,0 -4.6343,6.32145 -3.9966,8.59327 0.6379,2.27179 4.209,5.43261 7.0151,4.02508 2.8059,-1.40753 -1.7006,-10.64285 -3.0185,-12.61835 z m -63.9222,3.74809 c -1.4374,0.0347 -3.9465,2.35954 -3.9465,2.35954 0.5072,3.30806 3.3158,6.13991 6.2027,5.32423 2.8866,-0.81569 -0.5067,-6.72908 -1.7161,-7.54476 -0.1512,-0.10197 -0.3347,-0.14397 -0.5401,-0.13901 z m -9.9539,3.12952 -4.0964,0.70228 c -0.5852,4.75816 1.0534,7.9533 3.5109,7.2962 2.4577,-0.65706 0.5855,-7.99848 0.5855,-7.99848 z m 72.7832,10.32857 c -1.6947,-0.005 -3.4459,0.27977 -4.562,0.32608 0,0 -0.9354,5.30941 4.0814,4.88962 5.017,-0.41979 6.4625,-0.44439 5.0173,-3.30884 -0.7681,-1.52176 -2.6161,-1.90091 -4.5367,-1.90686 z m 0.7824,9.5927 c -1.2797,-0.01 -2.8142,0.13266 -4.4086,0.216 0,0 -0.2124,5.23514 0.5954,5.30924 0.8078,0.0741 6.8869,-0.29642 7.1845,-3.23494 0.1861,-1.83659 -1.2385,-2.27439 -3.3713,-2.2903 z m -2.0712,10.3575 c -1.5247,0.0396 -1.8273,2.25465 -1.8273,2.25465 3.8264,4.98809 4.7614,13.38413 7.0998,9.23561 2.3384,-4.1485 -1.9128,-10.17378 -4.2938,-11.2603 -0.372,-0.16977 -0.6964,-0.23728 -0.9787,-0.22996 z" fill="#9dd245" paint-order="fill markers stroke" transform="translate(16.404194,-40.745823) translate(-1652.556,-477.03412)"/>
    <path d="m 1858.0794,724.19223 c -3.9492,-3.77427 -10.7193,-9.82589 -15.0446,-13.44814 -4.3254,-3.62225 -9.3403,-7.93022 -11.1444,-9.57325 -2.6628,-2.42502 -3.4656,-2.83343 -4.2654,-2.16976 -0.5418,0.4497 -1.4304,0.6467 -1.9748,0.43785 -1.2224,-0.46908 -3.8147,3.67621 -3.8147,6.1 0,0.97966 -0.503,1.88505 -1.1949,2.15057 -0.6572,0.25219 -3.196,2.47359 -5.6418,4.93641 -9.3808,9.44647 -26.7279,15.26514 -45.8194,15.3691 -11.2956,0.0616 -15.5423,-0.95181 -26.67,-6.36392 -6.5054,-3.16398 -8.7004,-4.65361 -12.7036,-8.62113 -3.0708,-3.04351 -5.5698,-6.2956 -6.8384,-8.89926 -1.7576,-3.60733 -1.9991,-4.84666 -1.9991,-10.25771 0,-5.68897 0.1918,-6.55636 2.5357,-11.46507 6.1315,-12.8406 15.7629,-17.96309 30.6496,-16.30103 8.4275,0.94093 11.6906,2.53918 17.2745,8.46102 5.241,5.55813 7.5296,9.81107 8.673,16.1173 0.8715,4.80711 0.5197,7.55916 -1.391,10.88106 -0.7032,1.22236 -1.0959,2.22249 -0.8728,2.22249 1.372,0 10.809,-5.95085 13.1509,-8.29275 3.1065,-3.10654 7.1369,-9.34388 9.4381,-14.60618 l 1.4995,-3.42915 -1.8415,-1.36022 c -1.0128,-0.74814 -2.5483,-2.05641 -3.4122,-2.90734 -1.4711,-1.449 -1.6965,-1.48198 -3.5562,-0.52032 -5.9382,3.0708 -13.6362,-0.90375 -17.1543,-8.85697 -1.1458,-2.59032 -1.8481,-3.07377 -10.6718,-7.34635 -13.5893,-6.58001 -23.341,-10.2379 -24.9698,-9.3662 -0.7109,0.38051 -3.8173,1.32524 -6.9029,2.09944 -6.6978,1.68052 -8.0039,2.2989 -8.0039,3.78955 0,1.90922 -2.7997,7.03032 -3.8436,7.03032 -1.7771,0 -1.9093,-2.20813 -0.2997,-5.00494 l 1.5641,-2.71772 -1.6167,0.44729 c -15.2822,4.22822 -19.0548,4.86183 -19.0548,3.20034 0,-0.88544 10.1646,-4.92246 21.667,-8.60543 5.7109,-1.82859 10.2528,-3.53608 10.0932,-3.79442 -0.1597,-0.25839 -1.1338,-0.68142 -2.1646,-0.94017 -1.0308,-0.2587 -6.3986,-2.42507 -11.9284,-4.81419 l -10.0543,-4.34378 -3.4719,1.3192 c -4.2737,1.62389 -10.0894,1.72949 -12.2412,0.22223 -1.2286,-0.86047 -1.5206,-1.62574 -1.3548,-3.55014 l 0.2113,-2.45318 -8.8599,-2.59822 -8.8599,-2.59822 -2.4641,1.63067 c -1.3553,0.89688 -4.4074,2.6116 -6.7826,3.81057 -3.942,1.98994 -4.4129,2.08544 -5.4026,1.09578 -0.9897,-0.98966 -0.9668,-1.19292 0.2618,-2.33193 0.7403,-0.68624 3.4349,-2.10939 5.988,-3.16255 2.553,-1.05316 4.5252,-2.03154 4.3826,-2.17417 -0.1427,-0.14263 -4.9614,-1.33883 -10.7085,-2.65823 -5.747,-1.31939 -10.7445,-2.5815 -11.1055,-2.8046 -0.361,-0.22316 -0.4758,-1.12543 -0.255,-2.00508 0.3317,-1.32175 -0.122,-1.95942 -2.6143,-3.67415 -3.4715,-2.38855 -9.6995,-9.13822 -10.2009,-11.05543 -0.6821,-2.60843 0.9841,-1.96199 5.8468,2.26839 2.7325,2.37711 6.4016,5.15838 8.1536,6.18056 1.7519,1.02223 3.7522,2.58961 4.445,3.48311 1.0344,1.33411 2.6653,1.8911 9.1238,3.11603 4.3254,0.82035 11.5545,2.59052 16.0649,3.93377 l 8.2006,2.4422 1.3732,-1.94952 c 0.7553,-1.07224 2.3121,-2.92386 3.4595,-4.11472 2.0684,-2.14658 2.1454,-2.16535 8.9674,-2.18151 3.7846,-0.009 8.2178,-0.3762 9.8515,-0.8161 6.3578,-1.71201 12.7073,-8.18492 13.4484,-13.70976 0.4136,-3.08403 0.3906,-3.09941 -5.974,-3.98322 -3.3297,-0.46236 -5.7318,-0.35548 -9.5738,0.426 -6.6645,1.35566 -15.2616,0.83042 -24.2609,-1.48218 -3.7525,-0.96438 -6.9067,-1.75335 -7.0094,-1.75335 -0.1026,0 -0.1866,0.48417 -0.1866,1.07593 0,1.56143 -2.3228,0.90765 -2.6357,-0.74183 -0.4969,-2.61992 -3.2981,-3.27123 -3.6424,-0.84698 -0.1434,1.00992 -0.6884,1.53865 -1.5861,1.53865 -1.0895,0 -1.3678,-0.4559 -1.3678,-2.24069 0,-1.93834 -1.0943,-3.52618 -2.4546,-3.56152 -0.2217,-0.006 -0.7537,0.75886 -1.1821,1.69913 -0.4284,0.94028 -1.2864,1.7096 -1.9068,1.7096 -0.9299,0 -1.0522,-0.47272 -0.697,-2.69408 0.5777,-3.61271 -0.5785,-4.16088 -3.0557,-1.44874 -2.9419,3.22096 -4.6831,1.33488 -2.2275,-2.41287 1.7164,-2.61956 0.2879,-3.62743 -2.7911,-1.96927 -2.5987,1.39946 -3.9078,0.93766 -2.5818,-0.91073 1.6482,-2.29757 1.6221,-2.88487 -0.2256,-5.08079 -4.5774,-5.43996 -6.193,-14.06591 -3.8132,-20.35967 2.2628,-5.98449 7.532,-14.40954 11.3337,-18.1219 3.6355,-3.54993 9.6663,-7.13469 14.3887,-8.55276 1.5044,-0.45175 8.89,-1.06188 16.4123,-1.35587 15.5585,-0.60807 17.9457,-1.1885 27.2004,-6.61416 8.3744,-4.90958 14.1156,-4.84706 19.1716,0.20885 3.1623,3.1624 4.6,7.35246 5.0696,14.77528 0.2081,3.29103 0.5666,5.97895 0.7965,5.97316 0.9421,-0.0236 1.8421,-1.12999 2.4949,-3.06679 0.8182,-2.42759 2.6157,-2.71768 2.9337,-0.4735 0.1872,1.32047 0.5735,1.54368 2.3667,1.36766 1.6392,-0.16089 2.2367,-0.61213 2.5425,-1.91993 0.5093,-2.17904 2.8211,-2.28449 3.7483,-0.171 0.9689,2.20828 3.1979,1.9344 4.6221,-0.56786 1.3789,-2.42282 3.4728,-2.48267 3.8115,-0.10899 0.1201,0.84241 0.4279,1.55455 0.6838,1.5825 0.2559,0.0282 1.0946,0.17023 1.8638,0.3162 1.0483,0.199 1.5962,-0.2587 2.1888,-1.82864 1.0827,-2.86851 2.6821,-2.19284 3.8642,1.63256 0.582,1.88347 3.4683,1.51316 4.4159,-0.56658 1.0071,-2.21038 2.3851,-1.8251 2.8397,0.79399 0.4511,2.59884 2.9351,3.081 4.6924,0.91078 1.4408,-1.77935 2.8255,-1.26097 2.8255,1.05778 0,1.1905 0.567,1.80002 2.2058,2.37132 1.9604,0.68337 2.3311,0.60284 3.3318,-0.72368 1.543,-2.04564 3.3524,-1.2597 3.3524,1.45623 0,2.71029 1.6571,3.37401 3.3143,1.3274 1.9153,-2.36527 3.8172,-1.34668 3.3109,1.77319 -0.3283,2.02323 -0.1252,2.56494 1.3155,3.5089 1.6154,1.05844 1.7571,1.04013 2.733,-0.35312 1.0487,-1.49731 4.3709,-2.06861 4.3709,-0.75168 0,0.39482 -0.4843,1.65431 -1.0762,2.79896 -1.0837,1.85723 -1.0121,2.06047 0.5098,3.21256 0.9265,0.70645 1.4091,0.70542 2.5473,-0.006 1.8902,-1.18046 3.257,0.0456 2.217,1.98902 -0.5943,1.11044 -0.3279,1.71334 1.5692,3.55208 1.4295,1.38556 2.4569,1.9364 2.7443,1.47136 0.2526,-0.40877 1.0567,-0.74327 1.7867,-0.74327 1.495,0 1.8116,1.97753 0.5228,3.26631 -0.6167,0.61674 -0.5167,1.12234 0.4283,2.16663 1.1109,1.22748 1.3744,1.26287 2.6663,0.35804 3.1539,-2.20915 5.101,-0.0149 2.4709,2.78476 -1.5048,1.60179 -1.519,1.72042 -0.3574,3.00391 0.9571,1.05752 1.4609,1.17918 2.4153,0.5831 2.8924,-1.80633 4.8213,1.79715 1.974,3.68769 -1.2075,0.80169 -1.334,1.21708 -0.7204,2.36379 0.559,1.04443 1.2448,1.31775 2.7516,1.09659 2.7958,-0.41036 3.4968,1.06326 1.3741,2.88903 -1.543,1.3273 -1.6274,1.6698 -0.9248,3.75642 0.4316,1.28175 1.4352,2.54093 2.2721,2.85051 1.7066,0.63131 1.9517,2.10708 0.5439,3.27543 -0.527,0.43734 -0.7918,1.41731 -0.5908,2.18602 0.2742,1.04854 0.7451,1.2978 1.9027,1.00725 1.6991,-0.42641 3.4769,1.1124 2.7131,2.3483 -0.257,0.41579 -1.1483,1.01495 -1.9809,1.33145 -1.2618,0.47975 -1.4658,0.98463 -1.2264,3.03514 0.2557,2.19012 0.5037,2.45965 2.2639,2.45965 2.6408,0 2.782,2.46302 0.1976,3.44566 -1.2159,0.46226 -1.6489,1.01592 -1.3677,1.74863 0.2263,0.58971 0.4114,1.47269 0.4114,1.96224 0,0.48955 0.6155,1.05105 1.3677,1.24775 1.8561,0.48539 1.8295,3.22835 -0.036,3.7162 -1.1435,0.29907 -1.3653,0.82575 -1.1967,2.84231 0.1792,2.14457 0.4635,2.50472 2.1278,2.69556 1.0566,0.12115 2.1067,0.7042 2.3337,1.2956 0.4915,1.28083 -1.566,2.99945 -2.9534,2.46708 -0.672,-0.25788 -0.9593,0.16582 -0.9593,1.41464 0,1.44572 0.3232,1.78279 1.7096,1.78279 1.2538,0 1.7096,0.36471 1.7096,1.3677 0,0.98664 -0.4558,1.36766 -1.6364,1.36766 -2.8732,0 -3.4174,4.00666 -0.779,5.73544 1.872,1.22656 1.6764,3.1546 -0.3199,3.1546 -1.0187,0 -2.0516,1.24174 -2.0516,2.4663 0,0.16659 0.7693,0.59541 1.7096,0.95289 2.2487,0.85498 2.2577,2.73542 0.013,2.73542 -2.185,0 -3.2392,3.17055 -1.4815,4.45579 1.6129,1.17938 1.3901,2.9338 -0.4051,3.18988 -1.9942,0.28455 -2.3958,2.31958 -0.553,2.80148 0.8678,0.22695 1.4008,0.92976 1.4008,1.847 0,1.21267 -0.3403,1.44085 -1.8805,1.26072 -1.5113,-0.17669 -1.9235,0.0823 -2.0991,1.31878 -0.1768,1.24508 0.109,1.53866 1.4983,1.53866 2.0863,0 2.8869,1.0808 1.7846,2.40902 -0.6169,0.74327 -1.1432,0.80553 -2.169,0.25659 -1.5991,-0.85585 -1.6758,-0.80415 -2.2602,1.52455 -0.3913,1.55883 -0.1745,1.89 1.654,2.52747 1.576,0.5494 2.1043,1.15327 2.1043,2.40558 0,1.91696 -1.0387,2.50616 -3.5663,2.02297 -2.5399,-0.48555 -3.1473,1.83013 -1.1785,4.49302 1.7264,2.33506 1.2061,3.77586 -1.1974,3.31637 -1.3067,-0.24978 -1.8198,0.0498 -2.3145,1.35073 -0.3496,0.91945 -0.4358,2.46754 -0.1917,3.44027 0.3122,1.24375 0.1055,2.016 -0.6966,2.60248 -0.9939,0.72681 -0.019,1.70145 7.5851,7.58686 15.374,11.89836 30.4366,25.55099 31.344,28.40996 0.4939,1.5564 -0.7682,3.31755 -2.3431,3.26928 -0.6121,-0.019 -4.3441,-3.12208 -8.2933,-6.89629 z m -82.43,-2.7309 c 0.2722,-0.27214 -0.8188,-10.92286 -1.1472,-11.19935 -0.1066,-0.0898 -2.5019,0.12463 -5.3228,0.47652 -2.8208,0.35194 -6.4493,0.54007 -8.0633,0.4181 -2.6611,-0.2011 -2.9676,-0.0619 -3.2916,1.49501 -0.1965,0.94422 -0.7989,2.93272 -1.3387,4.41891 -0.5398,1.48613 -0.7511,2.92944 -0.4695,3.20727 1.0811,1.06665 7.6019,1.87839 13.3639,1.66354 3.3074,-0.12334 6.1285,-0.33932 6.2692,-0.48 z m 11.817,-2.24311 c 0.1348,-0.13488 -0.3857,-2.1178 -1.1567,-4.40649 -1.5922,-4.72659 -1.6577,-5.12721 -0.746,-4.5637 0.3607,0.2229 1.4827,2.24782 2.4933,4.49974 1.5727,3.50449 2.0448,4.03522 3.2763,3.68348 2.2647,-0.64679 10.6707,-3.91392 10.6707,-4.14733 0,-0.11571 -1.1134,-2.23608 -2.4744,-4.71198 -1.3609,-2.47584 -2.284,-4.69187 -2.0515,-4.92441 0.2326,-0.23259 0.5122,-0.29465 0.6214,-0.13791 2.618,3.7576 6.1167,8.14855 6.4911,8.14661 0.9873,-0.005 4.661,-2.61207 7.2109,-5.11695 l 2.6171,-2.57094 -2.2384,-2.30941 c -2.5213,-2.6013 -2.1431,-3.01264 0.8261,-0.89842 1.0898,0.77599 2.2981,1.21522 2.6851,0.97601 1.027,-0.63474 6.0141,-7.50797 6.9702,-9.60639 0.73,-1.60225 0.6379,-1.93404 -0.8481,-3.05495 -1.9743,-1.48921 -1.4339,-2.49621 0.7207,-1.34309 0.8249,0.44144 1.742,0.5433 2.0381,0.22639 0.6637,-0.7104 4.1028,-10.26538 4.0988,-11.38758 0,-0.44774 -2.2714,-1.9786 -5.0441,-3.40191 -2.7726,-1.42336 -5.5799,-3.18322 -6.2384,-3.91087 -0.8786,-0.97084 0.072,-0.69772 3.5709,1.02605 8.3617,4.11934 8.278,4.10815 8.7819,1.17184 0.2394,-1.39571 0.8838,-4.34113 1.4319,-6.5454 0.5481,-2.20428 0.9024,-4.07446 0.7873,-4.15596 -0.1151,-0.0815 -2.3634,-0.52986 -4.9962,-0.99633 -5.4101,-0.95858 -10.5996,-3.01966 -10.5996,-4.20965 0,-0.43754 0.473,-0.61398 1.0511,-0.39215 2.617,1.00422 8.4878,2.42538 11.6691,2.82466 l 3.4883,0.43785 0.7528,-5.00801 c 1.7216,-11.45354 1.7435,-12.17958 0.37,-12.28785 -1.7252,-0.13601 -6.0401,-0.29566 -14.9379,-0.58145 -1.3443,-0.0432 -3.637,-0.44656 1.3677,-0.72466 4.8894,-0.27168 10.1979,-0.52519 11.7964,-0.56807 2.5432,-0.0682 2.9064,-0.27198 2.9064,-1.63097 V 637.065 l -9.5739,0.26296 c -7.0152,0.19264 -9.5739,0.0487 -9.5739,-0.53889 0,-0.44098 0.287,-0.62444 0.6378,-0.40769 0.3507,0.2168 3.505,0.0827 7.0094,-0.29794 3.5044,-0.38066 7.6026,-0.78948 9.1071,-0.90852 l 2.7353,-0.21644 -0.2401,-9.19007 c -0.1321,-5.05453 -0.3738,-9.40907 -0.5371,-9.6768 -0.1633,-0.26772 -1.1323,-0.16617 -2.1533,0.22562 -2.9853,1.14563 -15.8576,3.85674 -20.3202,4.27977 -4.9117,0.46559 -3.2399,-0.1371 6.4966,-2.34199 10.8587,-2.45902 15.7284,-4.17565 15.7284,-5.54448 0,-2.44595 -1.5481,-11.51837 -1.9637,-11.50816 -0.2364,0.006 -5.4304,2.57145 -11.5423,5.70153 -6.1119,3.13003 -11.1125,5.45422 -11.1125,5.16485 0,-0.854 3.233,-2.89662 12.3092,-7.77717 4.7015,-2.52806 8.8907,-4.87795 9.3094,-5.22194 0.5525,-0.4539 0.4355,-1.79581 -0.427,-4.89338 -1.0484,-3.7656 -4.4937,-12.70323 -5.175,-13.42475 -0.1385,-0.14679 -1.4141,0.78189 -2.8345,2.06379 -6.1042,5.5089 -22.341,16.8418 -26.0732,18.19853 -2.0315,0.73845 0.9094,-2.08836 5.2062,-5.00426 9.3526,-6.34685 22.0457,-16.26983 22.0457,-17.23446 0,-1.77412 -9.0885,-12.68749 -9.765,-11.72572 -0.1131,0.16063 -1.9059,2.44615 -3.9841,5.07899 -7.8113,9.8957 -12.8006,16.56468 -15.9879,21.37016 -1.8085,2.72685 -3.556,4.9579 -3.8833,4.9579 -1.9235,0 8.2191,-15.51379 17.2311,-26.35581 2.9962,-3.6047 5.4477,-6.6895 5.4477,-6.85511 0,-0.4118 -5.1414,-5.14495 -7.7751,-6.97964 -1.9124,-1.33219 -3.0899,-2.17139 -5.0658,-3.53318 -3.692,-2.54459 -12.2498,-6.69375 -13.2019,-5.71567 -0.2915,0.29942 -2.2867,5.77585 -4.4338,12.16978 -5.5364,16.48744 -7.4058,21.43893 -10.1545,26.89725 -2.1441,4.25751 -3.8189,6.53949 -3.8189,5.20327 0,-0.25465 1.1899,-3.11931 2.6442,-6.36597 1.4544,-3.24667 4.5679,-11.59602 6.9189,-18.55417 2.3511,-6.9581 5.0078,-14.10263 5.9039,-15.87665 0.896,-1.77407 1.6291,-3.52254 1.6291,-3.88551 0,-0.62536 -10.1237,-3.23425 -10.5189,-2.7107 -0.1029,0.13633 -0.9705,2.402 -1.928,5.03479 -0.9574,2.63284 -2.9801,7.86426 -4.4949,11.6254 -1.5148,3.76113 -4.0606,10.22348 -5.6574,14.36076 -2.9964,7.76364 -6.7917,15.62893 -7.2974,15.12323 -0.1583,-0.15828 0.3317,-1.77935 1.0887,-3.6024 2.0703,-4.9856 6.685,-17.30786 7.6439,-20.41081 0.4649,-1.50449 2.8013,-6.97348 5.1919,-12.15341 2.3907,-5.17988 4.3467,-9.68275 4.3467,-10.00638 0,-0.81564 -9.5233,-1.63267 -12.5067,-1.07301 l -2.4434,0.45842 -0.4287,4.54872 c -0.2357,2.5018 -0.8871,7.39744 -1.4475,10.87921 -0.5603,3.48176 -1.4563,10.06284 -1.9909,14.62459 -0.5346,4.56175 -1.1783,8.48311 -1.4303,8.71412 -0.8455,0.77507 0.3648,-12.47125 2.1173,-23.17264 0.9547,-5.82981 1.9127,-11.75362 2.1289,-13.16406 l 0.3931,-2.56442 -5.018,0.006 c -2.7599,0.005 -6.6239,0.19884 -8.5866,0.43461 l -3.5686,0.42867 -1.1087,3.83941 c -2.302,7.97176 -6.3009,14.08765 -13.0183,19.90982 -2.3051,1.99789 -2.9047,3.07156 -3.6278,6.49655 -0.4764,2.25669 -1.9267,6.22252 -3.2228,8.81295 -1.296,2.59042 -2.2705,4.77977 -2.1654,4.86522 0.105,0.0854 1.7885,0.35912 3.7409,0.60818 l 3.55,0.45277 0.2112,-2.87143 c 0.5396,-7.33697 3.1034,-1.22487 3.7879,9.03036 0.4034,6.0428 -0.7245,8.94142 -5.5059,14.14966 -3.8821,4.22884 -8.4993,6.30976 -14.0191,6.31828 -2.855,0.005 -4.6593,0.34307 -5.3135,0.9973 -0.8407,0.84067 -1.3766,0.85457 -3.5413,0.0916 -2.8878,-1.01776 -5.0507,-0.49534 -7.5083,1.81346 -2.1272,1.99835 -1.9638,2.39871 1.3674,3.35124 3.6435,1.04182 4.6159,1.77279 4.6159,3.47007 0,0.86463 -0.7311,1.61928 -2.0515,2.11771 -1.1284,0.42589 -2.0515,1.21086 -2.0515,1.74437 0,1.38755 7.3086,0.47344 9.6041,-1.20118 0.957,-0.69814 3.4188,-1.49952 5.4708,-1.78084 9.5929,-1.31529 22.4891,-10.465 26.0288,-18.46707 0.7076,-1.59974 1.9808,-6.79136 2.8293,-11.53698 1.5906,-8.89629 2.7684,-10.87993 3.6547,-6.15523 0.6055,3.22717 -0.138,11.93708 -1.4566,17.06413 -0.5733,2.2292 -2.1731,5.70707 -3.5553,7.72855 -2.7612,4.03856 -9.6109,9.87919 -14.7691,12.59337 -3.87,2.03631 -4.1917,1.72709 6.0436,5.80724 9.3311,3.71959 20.74,8.42162 27.5248,11.34398 5.1371,2.21264 5.6417,2.31414 5.6417,1.13481 0,-0.71235 1.0002,-2.00851 2.2226,-2.88041 1.8266,-1.30288 3.0938,-1.58522 7.1143,-1.58522 h 4.8919 l -0.3746,-8.97133 c -0.3283,-7.86329 -0.1801,-9.75814 1.1994,-15.34115 1.3773,-5.57428 1.9256,-6.7215 4.3905,-9.18638 3.2476,-3.24763 8.1304,-5.82344 11.032,-5.81975 4.5597,0.006 9.053,5.17178 9.3803,10.78468 0.1241,2.12581 -0.073,2.54781 -1.1928,2.54781 -0.7509,0 -1.7115,-0.75266 -2.1818,-1.70965 -0.4622,-0.94027 -1.4263,-2.94052 -2.1423,-4.44497 -0.7663,-1.60984 -2.0067,-2.98576 -3.0144,-3.34385 -4.6883,-1.66585 -10.6427,2.3725 -12.151,8.24093 -1.8882,7.34707 -1.4886,22.86901 0.7845,30.47026 0.5794,1.93763 0.5612,2.78271 -0.077,3.55116 -1.2056,1.4526 -4.6805,0.80877 -6.8493,-1.26908 -2.1799,-2.08846 -5.6685,-2.71938 -9.6788,-0.61582 -4.1012,2.15131 1.0323,3.19043 3.9183,4.61596 5.6688,2.8001 6.8611,3.83756 7.4305,5.59552 1.7374,5.36396 7.3842,10.53988 11.4987,10.53988 2.4446,0 4.0492,-1.80407 3.5725,-4.0167 -3.0339,-14.08068 -3.1471,-23.95961 -0.392,-34.19135 0.9351,-3.47238 3.348,-5.33908 5.4484,-4.21494 1.6185,0.86621 1.9858,3.12583 0.4097,2.52104 -2.2146,-0.8498 -1.4297,0.85087 2.4303,5.26578 6.6743,7.63378 9.4588,14.70338 10.0111,25.41759 0.5995,11.63214 -2.3055,21.87608 -9.1491,32.26097 -5.4764,8.31054 -8.5292,10.60334 -20.4103,15.32967 -2.6891,1.06968 -4.7486,2.29434 -4.6994,2.79435 0.097,0.99151 1.6788,9.33794 2.0011,10.56189 0.1509,0.5734 1.4381,0.52334 4.8312,-0.18792 2.544,-0.53325 4.7357,-1.07988 4.8706,-1.21472 z m -14.8341,-100.74508 c -0.5456,-0.21484 -3.6254,-2.1139 -6.844,-4.22001 -3.2185,-2.10616 -9.457,-5.52192 -13.8633,-7.59054 -8.0125,-3.7616 -9.8205,-5.49981 -6.7384,-6.47809 1.7299,-0.54904 3.9398,0.0487 11.4052,3.08551 12.7058,5.16824 22.7975,13.5779 18.3444,15.28673 -0.5949,0.22829 -1.1335,0.39077 -1.1968,0.36107 -0.063,-0.0297 -0.5614,-0.22977 -1.1071,-0.44467 z m -0.034,-16.63141 c 0,-2.60212 11.6347,-21.18675 21.1703,-33.81643 2.8397,-3.76119 5.6787,-7.60782 6.3088,-8.54809 0.9248,-1.37997 1.0821,-1.44587 0.816,-0.34194 -0.1814,0.75225 -2.0178,3.82955 -4.081,6.83849 -7.2379,10.55568 -15.175,22.63273 -19.438,29.57631 -2.3669,3.8552 -4.4098,7.00944 -4.5397,7.00944 -0.1301,0 -0.2364,-0.32301 -0.2364,-0.71778 z m -34.1176,-20.8146 c -3.4701,-2.77635 -4.5957,-2.91457 -8.3081,-1.02064 -2.1621,1.10296 -2.7082,1.1842 -2.7082,0.40272 0,-1.15574 3.4829,-4.23068 5.5266,-4.87933 2.6189,-0.83123 6.0334,0.35215 8.909,3.08767 4.7314,4.50092 1.7876,6.57544 -3.4193,2.40958 z m 16.4668,135.73474 c 0.6353,-1.31642 1.3529,-3.20753 1.5948,-4.20248 0.3971,-1.63333 0.1854,-1.88977 -2.1807,-2.64063 -1.4413,-0.4574 -3.3575,-1.29514 -4.258,-1.86167 -1.4971,-0.94176 -1.6977,-0.92058 -2.3413,0.24721 -0.3871,0.70244 -1.9395,2.41414 -3.4498,3.80375 l -2.7458,2.52658 5.0872,2.38322 c 2.7979,1.31078 5.5487,2.32793 6.1129,2.26038 0.5641,-0.0676 1.5454,-1.19999 2.1807,-2.51636 z m -11.8928,-5.44935 c 4.4683,-3.23676 4.6681,-4.16514 1.7428,-8.10158 -1.3777,-1.85402 -2.841,-4.38506 -3.2515,-5.62456 -0.7135,-2.15386 -1.0342,-2.32562 -7.2431,-3.87869 -3.5731,-0.8938 -6.9581,-2.11221 -7.5223,-2.70757 -1.1453,-1.20856 -1.3822,-1.23303 7.5223,0.77615 8.8397,1.9945 9.5525,1.03315 3.8228,-5.15562 -2.0347,-2.19771 -4.2462,-5.23501 -4.9143,-6.74951 -1.1718,-2.65572 -1.2617,-2.71142 -2.5291,-1.5663 -2.2439,2.02743 -4.5868,7.49468 -5.0304,11.73885 -0.556,5.32046 0.5865,9.75626 3.6848,14.30616 2.3743,3.48659 8.5655,8.95789 10.1634,8.98159 0.4137,0.006 2.0133,-0.90237 3.5546,-2.01892 z m 27.4418,-7.15638 c 0.7799,-0.70573 1.3989,-1.62015 1.3757,-2.032 -0.023,-0.41185 -1.7621,-1.60092 -3.864,-2.64233 -3.5992,-1.78325 -3.8957,-1.82659 -5.0913,-0.74455 -0.6983,0.63192 -1.9598,1.49167 -2.8035,1.91059 -1.7669,0.8774 -2.4284,3.69913 -1.0809,4.61089 1.646,1.11367 9.8913,0.3207 11.464,-1.1026 z m -13.3192,-1.51922 c 0.2962,-1.18025 0.1427,-2.01425 -0.4388,-2.38301 -1.4411,-0.91396 -2.2697,-0.69029 -3.9097,1.05541 -1.4706,1.56538 -1.4845,1.67831 -0.2902,2.37266 2.2955,1.33457 4.146,0.91765 4.6387,-1.04506 z m -5.3767,-2.50708 c 1.5506,-1.33381 1.7479,-1.87193 1.2348,-3.36838 -0.3358,-0.97956 -1.9954,-2.87595 -3.6879,-4.21422 l -3.0773,-2.43323 -0.5838,2.39512 c -0.7096,2.91103 -0.249,4.98037 1.6444,7.3874 1.7485,2.22294 2.1333,2.24305 4.4698,0.23331 z m 22.9015,-2.31137 c 0.715,-1.8806 0.063,-6.47923 -0.9071,-6.40055 -0.282,0.0231 -1.8207,0.0462 -3.4192,0.0521 -3.5534,0.0128 -4.3726,0.49124 -4.9791,2.9081 -0.4401,1.75325 -0.2261,1.99061 3.194,3.54395 4.7042,2.13647 5.2634,2.12698 6.1114,-0.10361 z m -14.1099,-3.09188 c 1.6393,-2.3404 1.3363,-5.00555 -0.7562,-6.6515 -1.8784,-1.47757 -4.8201,-2.51185 -5.4248,-1.90721 -0.8757,0.87569 0.6514,3.83699 2.1759,4.21965 2.0052,0.50324 2.1406,1.50809 0.2827,2.09775 -1.5415,0.48929 -1.77,1.7176 -0.547,2.94057 1.272,1.27201 3.0982,0.97294 4.2694,-0.69926 z m -7.4938,-4.80573 c -0.2598,-1.59846 -0.6715,-3.1149 -0.9149,-3.36986 -0.5831,-0.61074 -4.8875,1.23041 -4.8875,2.09057 0,0.89175 4.2036,4.16847 5.3599,4.17806 0.695,0.006 0.8014,-0.6908 0.4425,-2.89877 z m 18.3032,-0.20034 c 1.4104,-0.25562 2.5644,-0.7505 2.5644,-1.09972 0,-1.88049 -5.5029,-10.17543 -6.7283,-10.14204 -0.2486,0.007 -1.4746,1.24364 -2.7243,2.7486 l -2.2722,2.73624 1.7593,2.09083 c 0.9676,1.14993 1.7593,2.71603 1.7593,3.48017 0,1.09435 0.3267,1.31094 1.5387,1.01998 0.8462,-0.20316 2.6926,-0.57849 4.1031,-0.83406 z m -26.9444,-3.61891 c 0.9972,-1.06629 2.1624,-2.06641 2.5896,-2.22248 0.4509,-0.16484 0.9832,-2.93627 1.2693,-6.60939 l 0.4928,-6.32561 h -2.6993 c -3.5113,0 -8.4302,1.50193 -11.0661,3.37883 l -2.0938,1.49096 1.3053,2.55873 c 1.2187,2.38881 7.2744,9.66766 8.0431,9.66766 0.1903,0 1.1619,-0.87241 2.1591,-1.9387 z m 18.8727,-6.11112 c 2.5874,-2.88954 2.6016,-2.93642 1.3259,-4.36265 -1.7866,-1.99763 -6.5168,-3.9191 -10.9222,-4.43686 l -3.7022,-0.43515 v 3.76982 c 0,2.07344 -0.1871,4.70531 -0.4158,5.84873 l -0.4158,2.07883 4.0831,-0.3702 c 2.4138,-0.2189 4.6108,-0.0644 5.3737,0.37799 1.6438,0.9531 1.5755,0.9892 4.6733,-2.47051 z m 40.5421,-21.01367 c -0.3268,-9.38097 -1.7456,-14.49074 -5.7697,-20.77973 -2.1446,-3.35165 -2.5241,-3.66517 -2.9905,-2.47102 -1.4598,3.73703 0.2909,27.37608 2.1752,29.37115 0.3375,0.35733 0.6136,1.45085 0.6136,2.43005 0,1.34027 0.6338,2.14334 2.5644,3.24902 l 2.5645,1.46872 0.5642,-2.53101 c 0.3104,-1.39207 0.4356,-6.2238 0.2783,-10.73718 z m -93.4666,-70.67642 c 4.2685,-2.73762 8.4005,-10.01756 9.8826,-17.41156 0.212,-1.05788 2.1739,-3.84571 4.3596,-6.19524 2.1858,-2.34952 4.7707,-5.63834 5.7442,-7.30855 2.267,-3.889 5.2788,-12.87992 5.2788,-15.75828 v -2.22274 l -3.7312,3.82161 c -4.3552,4.46071 -9.3446,6.67771 -15.0284,6.67771 -2.8753,0 -4.7698,-0.55587 -8.803,-2.58284 l -5.1394,-2.58289 c 1.5976,2.65634 2.2945,5.6015 2.3648,8.69457 -0.025,7.71471 -3.6517,12.25415 -10.7472,14.61091 -6.8807,2.28541 -14.2946,-1.04972 -17.288,-5.69138 -3.6882,-5.71879 -3.7493,-10.90454 0.3654,-17.1166 3.0704,-4.63545 6.3781,-6.34859 11.7121,-6.77674 4.2483,-0.34102 4.561,-0.24665 13.185,3.97757 10.2156,5.00401 14.0694,5.7062 20.2205,3.68456 2.8663,-0.94206 4.6559,-2.22766 8.2734,-5.94325 5.4738,-5.62219 5.7858,-7.28855 2.618,-13.98452 -3.3014,-6.97871 -5.7346,-7.21782 -13.0354,-1.28103 -8.6709,7.05078 -13.7696,8.57933 -28.6181,8.57933 -19.3729,0 -27.0488,3.60881 -35.8378,16.84887 -4.7664,7.18029 -4.8031,7.39857 -1.1473,6.81409 3.9528,-0.63198 7.2954,-2.68613 13.9526,-8.57436 3.004,-2.657 5.7075,-4.83091 6.0077,-4.83091 1.6229,0 -4.3701,6.37352 -10.1018,10.74324 -3.0316,2.31126 -8.2294,4.30141 -11.2342,4.30141 -2.1258,0 -2.7846,0.98217 -2.7846,4.15134 0,1.80448 0.5195,2.2492 5.628,4.81768 3.0954,1.55635 9.1731,3.77042 13.506,4.92015 7.4753,1.98363 15.6994,2.59357 21.4011,2.13586 12.0623,-0.96831 13.5753,-0.56731 13.4053,0.31536 -0.3828,1.98784 -5.3158,3.70175 -14.9612,3.69375 -13.5012,-0.0113 -26.0267,-3.19983 -34.5078,-8.78484 -1.4393,-0.94786 -1.8476,-1.0369 -1.4115,-0.30778 3.9602,6.62103 12.1269,11.76814 25.4976,16.06996 8.7864,2.82686 16.5555,4.30069 23.11,4.38403 4.196,0.0534 5.2197,-0.19243 7.8642,-1.88849 z m -15.1259,-24.61041 c 5.8168,-2.81132 8.5023,-13.73787 0.1146,-19.55054 -4.1013,-2.84214 -9.6371,-3.09404 -12.5011,-0.29333 -3.928,3.84139 -5.9203,10.92905 -2.728,16.04135 3.1071,4.97586 9.2889,6.43829 15.1145,3.80252 z m -9.6609,-2.66719 c -2.8284,-3.47551 -2.8334,-6.73691 -0.6846,-9.23886 1.7068,-1.98732 2.332,-1.34222 0.7599,0.78415 -2.0882,2.52842 -0.049,6.45585 1.4494,7.95817 2.4174,2.42335 0.3278,2.77286 -1.5247,0.49654 z m 3.9984,-1.4285 c -1.402,-1.54922 -1.7987,-5.21227 -0.4598,-6.98044 0.9099,-1.20158 1.7409,-1.31204 1.0113,0.68252 -0.709,1.93813 -0.5721,3.66474 0.2256,4.76634 0.8195,1.13181 1.5103,2.20925 1.5103,2.41256 0,0.78 -1.2039,0.31635 -2.2874,-0.88098 z m 3.1343,-2.96304 c -1.2109,-1.21092 -1.0462,-2.47005 0.4264,-3.2581 1.6649,-0.89103 3.7562,0.57356 3.4101,2.3881 -0.2968,1.55537 -2.6236,2.08298 -3.8365,0.87 z" transform="translate(16.404194,-40.745823) translate(-1652.556,-477.03412)"/>
    <path d="M1719.118 557.69332c1.0795-2.33401 5.2401-1.68819 5.1454.6642-.049 1.22422-2.0137 2.23279-3.5884 2.27401-1.4509.038-2.5709-.74538-1.557-2.93821zM1714.813 565.02968c1.007-2.79882 4.3686-2.13609 4.6755.36357.1522 1.24358-1.4054 2.27616-2.81 2.44451-1.4188.17003-2.681-.54162-1.8655-2.80808zM1712.106 556.29421c.9327-2.55823 5.2516-2.25833 3.9634.99637-.735 1.85695-2.5014 2.86161-3.5522 2.47445-.7911-.29146-1.1765-1.37167-.4112-3.47082z" fill="#9dd245" paint-order="fill markers stroke" transform="translate(16.404194,-40.745823) translate(-1652.556,-477.03412)"/>
</svg>