<?xml version="1.0" ?><svg xmlns="http://www.w3.org/2000/svg" width="140.11067mm" height="87.909348mm" viewBox="0 0 140.11067 87.909348">
    <path fill="#ff8c3a" d="m 407.9234,97.716072 c 4.13068,-11.014604 16.14022,-23.956962 21.21432,-29.074268 5.0741,-5.117042 17.16014,-18.633017 28.55772,-19.27569 11.39759,-0.642408 0.94343,15.099242 0.94343,15.099242 h 8.69479 c 0,0 16.80318,-11.220979 27.99678,-3.717396 11.19362,7.503848 2.14183,15.007696 2.14183,15.007696 l 13.48843,7.434791 c 0,0 12.57051,-9.339527 19.70995,-8.077464 7.13941,1.262062 12.26452,10.165556 11.0151,16.453114 -1.24941,6.287558 -5.58405,13.378393 -14.96732,11.657273 -9.38323,-1.72111 -19.37845,-1.88171 -19.37845,-1.88171 l -6.62948,5.43851 c 0,0 9.25579,11.95546 -1.88682,17.64665 -11.14261,5.69092 -26.87487,-2.8456 -31.05655,-3.07499 -4.18166,-0.22966 -1.47887,11.42762 -7.44541,11.70305 -5.96651,0.27543 -24.22308,-9.63798 -24.22308,-9.63798 0,0 -23.17763,-6.95298 -26.44137,-15.48923 -3.26374,-8.536521 -1.73387,-10.211598 -1.73387,-10.211598 z" transform="translate(-452.17292,-19.050001) translate(47.508637,-28.518088)"/>
    <path fill="#fff" d="m 464.24986,64.947513 c -2.24289,1.978949 -10.52839,21.504443 -11.53108,26.939958 -1.00269,5.435515 0.89682,25.277939 5.80482,28.892809 4.90795,3.6149 18.86706,-4.64416 18.86706,-4.64416 0,0 4.32717,-9.39335 2.40089,-13.2457 -1.92624,-3.852361 -8.65463,-5.145041 -9.63094,-10.738883 -0.97633,-5.593815 -0.97643,-10.765672 0.50127,-13.905611 1.47766,-3.13994 4.88135,-9.604582 4.88135,-9.604582 z m -30.79398,3.166215 -10.68669,6.33243 c 0,0 -0.29004,0.580445 3.21944,3.984253 3.50946,3.403781 9.13,11.689007 9.28833,18.892387 0.1583,7.203372 -6.70242,17.309452 -8.83978,19.578652 l 7.41454,5.85752 c 0,0 8.10111,-11.71517 8.25944,-19.52542 0.15833,-7.810255 -1.10861,-22.243432 -3.11402,-26.333278 -2.00543,-4.089819 -5.54126,-8.786544 -5.54126,-8.786544 z m 63.80386,7.968506 c 0,0 -2.9817,7.335394 -4.30103,11.346077 -1.31937,4.010655 -3.0605,12.216527 -1.60921,15.118979 1.45129,2.90245 4.48552,6.93962 4.48552,6.93962 l 8.44393,-7.67808 c 0,0 -2.26916,-7.968602 -1.37201,-11.398789 0.89717,-3.430187 2.58588,-8.074442 2.58588,-8.074442 z" transform="translate(-452.17292,-19.050001) translate(47.508637,-28.518088)"/>
    <path fill="#030303" d="m 457.94276,47.571829 c -3.68968,0.06416 -8.02589,0.953672 -11.47527,2.641183 -3.66022,1.791227 -10.20297,8.163393 -13.50616,13.154752 -1.18644,1.792551 -2.93434,3.215809 -5.35988,4.363042 -7.01393,3.3184 -13.52001,10.724761 -20.19618,22.991361 -2.28071,4.190202 -2.73292,5.647608 -2.74092,8.827368 -0.005,2.094435 0.27848,3.985615 0.63046,4.203365 0.35187,0.21749 0.48086,0.81081 0.28628,1.31775 -1.1648,3.03529 7.28705,11.20734 15.67243,15.15359 3.20045,1.50627 7.04318,3.31408 8.53953,4.01681 1.49638,0.703 3.47643,1.27848 4.40025,1.27848 0.94515,0 2.38924,0.75923 3.30212,1.73632 2.35643,2.52254 6.69398,4.89905 12.19254,6.68022 6.14395,1.98992 10.12582,2.04971 13.18524,0.19895 2.8806,-1.74254 3.58674,-2.84584 4.01526,-6.27352 0.30964,-2.4773 0.48408,-2.67029 2.34198,-2.59519 1.10416,0.0447 4.2661,0.91609 7.02644,1.93632 5.78715,2.13969 15.85127,2.99459 20.47576,1.74046 6.66433,-1.80789 9.7591,-5.91678 9.7255,-12.91394 -0.0151,-3.15542 -0.35934,-4.60039 -1.44642,-6.07095 -1.54991,-2.09629 -1.36112,-3.67199 0.50643,-4.2292 0.65244,-0.19421 2.03847,-0.78924 3.08043,-1.32291 2.61541,-1.33853 7.31924,-1.21259 13.20746,0.35295 2.73545,0.7276 6.56938,1.32782 8.51989,1.33842 6.00195,0.0265 8.80801,-2.1921 12.26902,-9.700704 4.18741,-9.08446 2.32501,-16.243404 -5.43739,-20.897949 -3.12115,-1.871925 -4.24723,-2.175061 -8.07393,-2.175061 -5.52822,0 -7.8325,0.766067 -13.38006,4.449857 -2.41134,1.601257 -4.90596,2.910934 -5.54385,2.910934 -0.63784,0 -2.93153,-1.417705 -5.09684,-3.150195 l -3.93723,-3.150196 0.99787,-1.929598 c 1.95508,-3.780627 -0.41332,-9.862182 -5.05964,-12.993522 -6.12597,-4.128025 -15.83569,-3.804079 -25.31473,0.84491 -3.85374,1.889917 -5.31151,2.286967 -7.13858,1.944067 l -2.29599,-0.430465 1.95234,-3.078365 c 2.02359,-3.190871 2.50633,-6.553288 1.27175,-8.859924 -0.863,-1.612634 -3.90624,-2.373581 -7.59591,-2.30942 z m -0.15038,7.232117 c 1.58161,0.01845 2.61904,0.245718 2.7435,0.700216 -0.64507,1.170745 -1.68263,2.678649 -3.18172,4.603336 -1.87809,2.411146 -2.11531,2.508392 -6.08025,2.529562 -2.26936,0.01085 -6.91175,0.56446 -10.31616,1.230415 -3.40442,0.665427 -6.18981,1.130629 -6.18981,1.033529 0,-0.460546 4.86803,-4.453229 8.84701,-7.457943 4.74506,-1.734407 10.74124,-2.679193 14.17743,-2.639115 z m 23.24457,6.35155 c 4.3432,-0.09095 8.42562,1.317437 10.53941,2.456698 2.25952,1.217876 5.47771,2.826361 5.85752,5.167126 0.2658,1.637506 0.10713,2.433919 -0.52864,2.656169 -0.49937,0.174625 -3.76874,-0.964276 -7.26519,-2.530078 -3.49642,-1.566332 -8.86275,-3.522568 -11.92537,-4.347538 -6.4222,-1.72958 -6.16892,-2.300211 1.45004,-3.266468 0.62613,-0.07934 1.25178,-0.122916 1.87223,-0.135909 z m -24.97212,5.703011 c 1.51331,0.0048 2.75794,0.07663 3.53984,0.227377 l 1.75028,0.33693 -2.24586,2.448429 c -4.63494,5.053007 -8.59836,14.988337 -9.35033,23.439913 -0.59407,6.675961 1.10731,15.756864 4.02456,21.481374 2.16566,4.24948 2.27333,4.70411 1.11414,4.70411 -0.70575,0 -1.6844,0.0859 -2.17454,0.1912 -1.30368,0.27913 -12.60182,-0.19294 -12.60182,-0.52658 0,-0.1561 0.58297,-1.76194 1.29502,-3.56878 2.11186,-5.35806 2.79515,-12.75709 2.08307,-22.558309 -0.67855,-9.339518 -1.52026,-14.095391 -2.99775,-16.934367 -1.03007,-1.97961 -4.22276,-5.179235 -4.69583,-4.70669 -0.16814,0.168275 0.43854,1.810045 1.34823,3.64784 1.8645,3.767663 2.96744,11.411674 2.93884,20.365165 -0.0358,11.134981 -3.33204,22.694311 -6.32881,22.194511 -2.48582,-0.4146 -2.50592,-1.31621 -0.11782,-5.23999 3.67839,-6.04307 4.71693,-10.0493 4.27674,-16.496668 -0.20569,-3.012278 -0.86524,-6.8715 -1.46606,-8.576737 -1.92151,-5.454116 -8.16236,-11.358268 -10.89701,-10.308932 -0.85601,0.328613 -0.60316,0.878588 1.32808,2.89233 4.48738,4.678887 5.52955,7.610698 5.53455,15.546338 0.003,6.599759 -0.13127,7.305699 -2.16576,11.376049 -1.19308,2.38628 -2.74586,5.07776 -3.45095,5.98051 -1.16938,1.49701 -1.44902,1.56666 -3.1843,0.79117 -3.05131,-1.36314 -13.61313,-7.70353 -13.61313,-8.17211 0,-0.23548 1.808,-0.45504 4.01785,-0.48524 4.74172,-0.0672 5.35057,-0.3514 5.35057,-2.50114 0,-1.96136 -1.78181,-2.553004 -6.66729,-2.21434 -2.6779,0.18521 -3.37111,0.0234 -3.37085,-0.787546 7.7e-4,-1.899706 8.50567,-16.320822 12.30105,-20.858158 3.04718,-3.643308 4.70047,-4.952477 8.61653,-6.823873 2.66536,-1.273703 7.25551,-2.818503 10.1999,-3.432865 4.11372,-0.858242 11.06894,-1.445332 15.60886,-1.430921 z m 10.68772,0.815454 c 1.12628,0.06374 2.66814,0.432735 5.01675,1.042831 l 2.53886,0.659391 -2.10891,2.66237 c -3.02485,3.818727 -4.64158,8.567151 -4.64158,13.628625 0,4.882617 0.74638,7.332557 2.96726,9.738941 3.15883,3.423439 6.40116,8.884701 6.40116,10.782291 0,1.0631 -0.60231,2.53427 -1.33842,3.2706 -2.20461,2.20478 -5.37049,1.52868 -15.99385,-3.41426 l -5.62136,-2.61587 0.41547,-6.186181 c 0.70659,-10.519822 3.94917,-20.980617 8.38347,-27.044861 1.38096,-1.888296 2.10402,-2.630108 3.98115,-2.523877 z m 9.36532,2.795179 c 1.2667,0.06154 3.85576,0.845519 8.60516,2.564184 12.00465,4.344454 11.19968,3.678035 9.21649,7.626408 -4.05384,8.071106 -5.53543,20.406678 -2.95847,24.633118 0.73471,1.20492 1.33583,2.44054 1.33583,2.74454 0,0.3048 -2.13863,1.49764 -4.75268,2.65255 -3.87883,1.71291 -4.66042,1.88544 -4.25038,0.93638 2.66027,-6.15924 1.78831,-11.30136 -2.71302,-15.999026 -2.81731,-2.940576 -3.08341,-3.062701 -5.95881,-2.738851 l -3.01015,0.338997 -0.69143,-3.427181 c -1.14128,-5.658109 1.34707,-16.691787 4.32067,-19.159554 0.15927,-0.132225 0.43456,-0.192079 0.85679,-0.171565 z m 53.81067,8.249109 c 1.50808,-0.03517 2.74479,0.260152 3.41478,0.930175 1.76999,1.770326 1.54069,10.27032 -0.43511,16.129248 -0.87112,2.583654 -1.9856,4.704298 -2.50941,4.774898 -0.51829,0.0699 -2.89986,-0.45838 -5.29219,-1.174601 -5.12405,-1.533259 -18.09442,-2.838486 -19.03811,-1.916678 -1.48838,1.454942 -1.82239,0.266776 -1.60352,-5.703012 0.26138,-7.129719 1.02674,-8.729557 3.22513,-6.740157 2.52125,2.28203 6.00431,1.379165 13.80381,-3.578593 2.65382,-1.686552 5.92117,-2.662664 8.43462,-2.72128 z m -32.15411,0.03927 c 0.43884,0.02507 1.06863,0.334719 2.21589,0.947229 3.70749,1.979346 3.93769,2.512527 2.29236,5.300968 -1.7639,2.989524 -2.48559,10.545022 -1.32343,13.855485 0.75323,2.145509 0.67942,2.331459 -1.89549,4.742869 -3.11372,2.91544 -3.43444,2.98358 -5.13767,1.09657 -1.01466,-1.12422 -1.2649,-2.38722 -1.2268,-6.189288 0.0501,-5.008822 2.59111,-17.061411 4.00441,-18.99419 0.38416,-0.525462 0.63189,-0.784713 1.07073,-0.759643 z m -77.93684,10.734228 c -1.25925,0.17985 -2.46859,1.074256 -2.46859,2.517159 0,0.617273 0.36139,1.483874 0.80306,1.925464 1.91375,1.913729 4.83548,0.152538 4.43487,-2.673739 -0.2005,-1.414328 -1.5101,-1.948734 -2.76934,-1.768884 z m 34.6077,18.448493 c 0.30208,0.009 1.01453,0.5019 2.13682,1.48725 1.32461,1.1631 4.94179,3.37104 8.03776,4.90616 l 5.62911,2.79207 -3.52071,0.82269 c -5.76972,1.34806 -5.1494,1.70987 -10.36991,-6.04717 -1.77974,-2.64418 -2.41652,-3.97564 -1.91307,-3.961 z m 45.0386,4.20181 c 0.89833,0.11315 1.44559,0.92522 1.55959,2.2009 -3.37508,4.96845 -5.07436,7.07073 -13.96504,8.98653 -1.33264,-0.0451 -2.78528,-0.13389 -4.46432,-0.28784 -4.73862,-0.43445 -4.86625,-0.91224 -0.66921,-2.50424 4.50779,-1.71053 12.36691,-5.63315 15.35978,-7.6662 0.8556,-0.58115 1.59095,-0.80325 2.1792,-0.72915 z m -38.069,14.21102 c 1.4145,0.10889 1.03957,2.18309 -0.91518,3.07371 -0.93747,0.42704 -2.51871,0.75296 -3.51349,0.72916 -1.99929,-0.0526 -9.97487,-2.20773 -10.64276,-2.8758 -0.23254,-0.23231 2.56327,-0.4265 6.21306,-0.4315 3.6498,-0.005 7.31353,-0.19064 8.14162,-0.41289 0.27572,-0.0738 0.51468,-0.0982 0.71675,-0.0827 z" transform="translate(-452.17292,-19.050001) translate(47.508637,-28.518088)"/>
</svg>