<?xml version="1.0" ?><svg xmlns="http://www.w3.org/2000/svg" width="199.22708mm" height="231.76556mm" viewBox="0 0 199.22708 231.76556">
    <path d="m 38461.477,3890.8984 c -7.04,-0.291 -25.646,7.3443 -73.922,43.7715 -48.036,39.3695 -8.187,21.2456 -37.284,57.0528 -29.099,35.8071 -18.31,93.6796 -18.31,93.6796 0,0 -10.348,29.0992 1.568,48.0938 11.916,18.9946 24.248,19.0607 25.436,24.4941 1.188,5.4335 12.273,31.8884 33.156,48.9903 20.884,17.1018 34.212,84.2825 -14.15,241.1054 -10.69,34.6645 85.565,67.9597 93.681,103.6778 8.116,35.7181 116.745,-64.1171 126.543,-82.377 9.799,-18.2598 67.92,-118.5762 88.506,-195.5351 10.293,-38.4794 38.525,-100.8521 29.506,-185.2149 -1.127,-10.5454 -37.61,-67.0375 -47.881,-42.9336 -83.994,197.1188 -54.567,45.2439 -49.707,-8.707 0,0 -40.633,1.7631 -59.449,2.9785 -20.685,1.3361 -34.847,3.7339 -37.816,32.7715 -2.969,29.0377 18.16,67.1302 -8.86,54.6601 -27.02,-12.4699 -35.928,-31.8886 -64.828,-67.0722 -28.901,-35.1836 -19.603,-63.4802 -17.816,-77.9375 4.854,-39.2657 19.838,-68.4711 35.58,-86.25 0,0 1.522,-5.0217 -3.953,-5.2481 z m 223.894,65.6856 1.908,5.6933 c 0,0 27.066,10.3811 38.114,24.9512 0.01,-0.3626 0.04,-0.6998 0.05,-1.0703 0.393,-22.9673 -30.45,-15.5212 -40.07,-29.5742 z m -635.303,364.6445 c -17.989,0.3072 -41.628,19.8348 -47.722,34.7363 -7.222,17.6612 -7.85,143.3883 -8.635,168.8204 -0.785,25.432 24.019,51.0058 24.019,51.0058 26.533,-14.6941 25.858,-39.9199 25.858,-39.9199 0,0 25.637,-32.8443 30.504,-54.3203 4.866,-21.4759 21.533,-48.6914 21.533,-48.6914 0,0 -18.394,-100.6314 -36.291,-109.6739 -2.796,-1.4128 -5.934,-2.0139 -9.266,-1.957 z" transform="translate(-85.856619,-77.43571) translate(-8439.7065,400.86026) matrix(0.26458333,0,0,0.26458333,-1524.344,-1328.9457)" fill="#fff"/>
    <path d="m 38600.982,3808.6953 c -3.177,-0.062 -5.958,0.2064 -8.171,0.8574 -17.702,5.2083 -29.276,62.3477 -29.276,62.3477 l -65.42,11.2754 c 0,0 -8.45,-42.0664 -11.344,-54.168 -2.893,-12.1015 -43.185,-20.8662 -71.951,9.9238 -28.766,30.79 -14.808,40.2868 -7.318,44.2696 7.489,3.9828 40.849,-15.9319 41.019,-7.3535 0.131,6.5334 5.623,17.7567 -10.212,29.1796 -3.148,0.7643 -6.403,1.4575 -9.684,2.002 -4.65,0.7716 -8.433,3.8373 -11.613,8.4121 -0.218,0.077 -0.393,0.1554 -0.614,0.2324 0,0.1613 0.05,0.4158 0.07,0.6035 -9.231,14.1004 -13.282,41.1122 -18.983,60.7325 -7.735,26.6186 3.239,80.1366 26.86,117.0078 23.62,36.8711 78.017,61.8816 99.41,50.332 10.04,-5.4203 16.238,-37.7616 8.221,-60.5898 -13.898,-39.5771 0.884,-41.6058 25.017,-44.0625 15.838,-1.0531 29.374,-1.8735 43.35,-2.7266 -1.022,1.7929 -1.615,2.9414 -1.615,2.9414 1.979,22.2836 -0.09,83.2532 -1.014,91.5371 -0.92,8.2839 4.511,23.1947 20.205,16.6504 15.694,-6.5443 19.744,-2.7756 33.459,-20.3789 13.715,-17.6033 32.474,-72.5333 34.701,-83.832 0.551,-2.7956 1.236,-6.7734 1.438,-11.2657 0.29,-0.011 0.497,-0.022 0.789,-0.033 5.617,1.2254 42.382,-18.2285 39.148,-42.4316 -3.234,-24.2032 -40.17,-27.8809 -40.17,-27.8809 0,0 -3.744,-16.8491 -6.127,-22.9765 -2.383,-6.1274 -21.446,-43.8109 -41.361,-51.9297 -19.915,-8.1188 -24.852,-22.0586 -8.512,-22.0586 16.341,0 41.704,-8.5791 37.449,-25.123 -3.724,-14.476 -45.501,-31.0627 -67.746,-31.4942 z m -281.207,320.1777 c 0,0 -187.336,3.8654 -223.08,23.7793 -35.745,19.914 -45.787,80.2676 -45.787,80.2676 0,0 -43.233,58.2108 -51.744,99.877 -5.985,29.3053 -8.705,103.1892 -4.67,163.748 1.235,-43.2372 3.795,-114.9722 9.422,-128.7324 7.222,-17.6611 39.091,-41.8218 56.988,-32.7793 17.897,9.0425 34.721,97.8262 34.721,97.8262 l 15.32,100.3359 c -7.323,11.2043 16.336,56.0545 45.276,26.8067 10.963,-11.0801 46.205,-33.9502 76.759,-31.9161 30.556,2.0341 34.305,-69.1265 86.084,-67.2539 51.778,1.8729 28.133,-31.8011 56.114,-6.8769 13.337,-40.1533 28.646,-89.4038 31.691,-114.8535 18.475,-141.7989 -27.671,-171.3115 -87.094,-210.2286 z m -224.15,303.9864 c 0,0 -11.394,18.6151 -18.09,37.2031 z m -46.336,95.289 c -3.366,4.725 -5.701,7.7227 -5.701,7.7227 0,0 0.03,1.874 -0.416,4.8418 0.03,-0.061 0.416,-0.8418 0.416,-0.8418 z m -47.988,24.5782 c 0.673,3.1688 1.358,6.288 2.119,9.08 4.29,18.5095 11.897,17.855 19.348,10.8457 -1.563,1.086 -3.232,2.139 -5.038,3.1387 0,0 -9.386,-9.6897 -16.429,-23.0644 z" transform="translate(-85.856619,-77.43571) translate(-8439.7065,400.86026) matrix(0.26458333,0,0,0.26458333,-1524.344,-1328.9457)" fill="#cb9e71"/>
    <path d="m 38602.088,3811.5918 c -6.192,0.059 -12.189,1.3919 -17.668,4.5195 -26.973,15.3973 -20.885,55.7871 -20.885,55.7871 l -61.627,3.4903 c 0,0 -6.732,-9.9399 -9.301,-25.5684 -2.567,-15.6286 -16.903,-34.5874 -25.894,-31.998 -8.991,2.5893 -48.295,13.3638 -69.617,49.0136 -21.323,35.6498 26.614,6.1949 47.113,7.4434 20.246,1.2329 5.924,19.9586 3.141,29.6426 -13.295,20.3556 -16.711,34.6891 -28.75,83.6914 -12.877,52.4167 42.783,134.0745 80.113,151.2949 37.33,17.2204 30.864,-5.3669 30.766,-20.3809 -0.1,-15.0138 -8.294,-52.8251 -20.975,-74.1914 -25.11,-42.3076 -32.18,-105.7374 9.051,-134.5742 10.274,-7.1858 22.09,-13.7015 33.832,-3.2383 11.747,10.4673 19.352,29.1038 22.664,9.2891 2.66,-15.9166 6.679,-23.5398 12.705,-25.1582 18.451,1.7823 35.368,8.8272 51.305,19.4609 10.738,7.4906 39.714,21.6856 39.714,21.6856 0,0 -9.609,-27.235 -18.24,-33.8008 -8.632,-6.5659 -37.866,-18.6338 -40.127,-23.6738 -2.26,-5.04 25.69,-9.6635 36.891,-11.4668 11.2,-1.8033 22.04,-15.4443 8.322,-24.7383 -10.931,-7.4061 -38.24,-26.7628 -62.533,-26.5293 z" transform="translate(-85.856619,-77.43571) translate(-8439.7065,400.86026) matrix(0.26458333,0,0,0.26458333,-1524.344,-1328.9457)" fill="#867365"/>
    <path d="m 8693.4991,-260.82396 c -1.9093,7.61248 -1.7756,18.54488 -3.1234,24.37937 -1.3478,5.83448 5.4758,5.56051 9.9658,-1.33403 4.4902,-6.89457 7.3059,-23.81134 7.3059,-23.81134 z" fill="#6b5846" transform="translate(-85.856619,-77.43571) translate(-8439.7065,400.86026)"/>
    <path d="m 8651.4255,-92.63733 c -0.4387,-0.67934 -0.7978,-6.54958 -0.7978,-13.04494 1.3938,-9.23021 -1.576,-15.15132 -5.3866,-23.23 -6.8649,-14.55404 -11.1889,-29.67813 -8.4848,-29.67813 0.4247,0 2.9508,4.57043 5.6133,10.15647 2.6626,5.58608 5.4899,11.00682 6.2832,12.04601 1.4104,1.84765 1.4433,1.83597 1.4725,-0.52802 0.026,-1.32961 0.5789,-3.16826 1.2498,-4.08574 1.1423,-1.56189 1.2925,-1.5283 2.3603,0.52797 0.6272,1.20792 1.7488,3.89691 2.4928,5.97541 l 1.3524,3.77912 v -6.6135 c 0,-3.6374 -0.3438,-8.73925 -0.7769,-11.33744 -1.2263,-7.36036 0.1982,-8.07509 3.1192,-1.56543 5.5296,12.32126 5.6681,28.12596 0.2277,26.03051 -0.7226,-0.27826 -0.9535,3.77149 -0.7724,13.5506 0.2871,15.52167 -0.4394,18.46698 -4.6784,18.96188 -1.368,0.15961 -2.8461,-0.26541 -3.2851,-0.94477 z m -95.5428,-4.77809 c -0.6069,-0.73901 -0.9719,-10.19706 -0.9752,-25.27302 0,-28.92685 -0.1258,-30.72327 -1.4874,-22.20256 -0.8618,5.39534 -1.4475,6.78532 -3.1792,7.54613 -1.7451,0.76678 -2.1251,1.69071 -2.1369,5.19631 -0.026,5.49087 -1.0062,7.01214 -4.1602,6.40921 -2.0297,-0.38803 -2.391,-0.17595 -1.9687,1.1547 0.7536,2.37444 -0.4172,4.73056 -2.3506,4.73056 -0.9419,0 -1.9285,-0.93293 -2.248,-2.12577 -0.8891,-3.31706 -0.6937,-13.76359 0.2686,-14.35816 0.4751,-0.29372 1.5046,1.27546 2.2874,3.48725 l 1.4232,4.02117 0.1633,-4.72394 c 0.088,-2.59811 0.091,-6.53079 0,-8.73927 -0.1232,-3.12402 0.1768,-4.01536 1.3595,-4.01536 0.8347,0 1.7627,0.63772 2.0619,1.41717 1.091,2.84316 2.0607,1.28764 2.7158,-4.35647 0.4286,-3.69185 1.3115,-6.41502 2.4489,-7.55246 1.7419,-1.742 1.7001,-1.94714 -2.0193,-9.88618 -4.8683,-10.39224 -8.4514,-22.78273 -8.5497,-29.5653 -0.075,-5.2342 -0.099,-5.27756 -1.3221,-2.49246 -2.9567,6.73075 -5.4568,26.22395 -5.9193,46.15079 -0.4521,19.47857 -0.4287,19.78441 2.1203,27.62022 2.8032,8.61787 2.6396,11.09206 -0.7025,10.6175 -2.7065,-0.38435 -5.9676,-6.73919 -7.431,-14.48104 -1.5431,-8.16353 -0.458,-37.01882 1.9007,-50.53929 2.1598,-12.38217 4.5477,-19.8977 8.6072,-27.09053 1.553,-2.75203 2.8239,-5.65243 2.8239,-6.44534 0,-2.79215 4.0605,-10.03316 8.2221,-14.66165 5.2004,-5.78424 14.9764,-10.80133 24.8454,-12.75075 3.8971,-0.7698 14.9946,-1.67858 24.6605,-2.01947 l 17.5747,-0.61975 1.0486,-5.63783 c 0.5765,-3.10077 2.2683,-8.24443 3.7592,-11.43026 2.7263,-5.82492 8.692,-12.44225 10.2697,-12.56796 3.8862,-0.30965 0.4911,3.14843 -1.1685,6.26237 -4.9136,9.21889 -6.9769,15.84092 -7.5634,25.8146 -0.421,7.16265 0.3089,11.42874 -2.557,10.02056 -0.6754,-0.33185 -1.5905,-0.85031 -1.8624,-1.88954 -0.4732,-1.80937 -1.2814,-1.88888 -19.0434,-1.87316 -26.1814,0.0241 -33.8759,2.58769 -43.511,11.4688 -5.1838,4.77852 -6.6129,7.32045 -7.4849,13.31591 -1.5131,10.40274 -0.4247,24.88624 8.027,41.44146 5.1329,10.0539 8.5588,21.72008 8.4621,28.81596 -0.035,2.59819 -0.026,12.42209 0.043,21.83081 0.072,11.26036 -0.2624,17.79895 -0.9751,19.13194 -1.2014,2.24476 -4.9304,2.73049 -6.48,0.8441 z m 112.1309,-3.71643 c -0.7429,-1.38813 -0.9055,-4.64763 -0.4968,-9.96548 0.3857,-5.01561 0.2357,-8.59846 -0.4119,-9.80739 -0.8128,-1.51872 -0.2517,-4.14207 2.7641,-12.94545 2.0806,-6.07246 4.0668,-12.61282 4.4131,-14.53425 0.3462,-1.9214 1.1893,-4.25925 1.8739,-5.19516 1.1529,-1.57678 1.2935,-1.50591 1.9135,0.96453 0.368,1.46634 0.3771,5.93005 0.026,9.91913 -0.3573,3.98908 -0.8377,14.26788 -1.068,22.84183 -0.4776,17.78031 -1.2317,20.78529 -5.2173,20.78529 -1.7949,0 -3.0531,-0.68469 -3.7906,-2.06305 z m -96.6714,-0.12613 c -1.4625,-1.06947 -1.654,-2.39092 -1.3615,-9.40107 0.2142,-5.15175 0,-7.82589 -0.5574,-7.25874 -0.4936,0.49395 -1.7083,0.89808 -2.6993,0.89808 -1.3554,0 -1.6264,-0.40951 -1.0943,-1.65343 0.3892,-0.90933 2.258,-6.60351 4.1533,-12.65374 3.8046,-12.14581 5.2285,-14.68744 7.2768,-12.98768 1.6331,1.35546 1.6363,4.11941 0,9.52062 -1.1355,3.77338 -1.1088,4.36554 0.2357,5.21985 2.1843,1.38728 1.6823,25.40055 -0.5834,27.90399 -1.7916,1.97981 -3.1002,2.08008 -5.3812,0.41212 z m 12.0391,-30.16979 c 0.8015,-9.41335 1.6454,-13.12708 2.8902,-12.71651 1.4486,0.47772 1.8468,11.09396 0.5911,15.7577 -0.6583,2.44428 -1.57,3.80853 -2.545,3.80853 -1.3099,0 -1.4391,-0.94439 -0.9363,-6.84972 z m 8.0844,0.53818 c -0.6175,-9.41036 1.5453,-25.81119 3.404,-25.81119 0.6767,0 1.4887,0.67245 1.8042,1.49439 0.7668,1.99868 0.5568,20.08729 -0.2681,23.07002 -0.8029,2.90317 -4.7657,3.90336 -4.9401,1.24678 z m 89.5853,-5.6231 c -0.3642,-0.36445 -0.6625,-1.23918 -0.6625,-1.94387 0,-1.74534 6.4665,-17.59935 7.4883,-17.59935 0.4496,0 0.8174,-0.96952 0.8174,-2.15448 0,-1.18497 1.4689,-5.63753 3.2643,-9.89475 2.935,-6.95885 3.8849,-10.64325 6.0282,-23.3803 1.2432,-7.38641 5.7731,-1.92253 5.916,7.85821 0.1366,9.35907 -4.7169,23.52307 -9.6302,28.10164 -1.2582,1.1723 -2.9723,4.49665 -3.8092,7.38718 -2.3897,8.25402 -7.0399,13.99801 -9.4123,11.62572 z m -80.5088,-12.66676 c -0.7172,-2.26019 1.1892,-17.80048 1.698,-21.48543 0.4174,-3.02283 2.5957,-2.97168 3.1521,-0.0705 0.7864,4.10083 0.492,21.08099 -0.7759,22.34871 -1.6989,1.69884 -3.3877,1.37022 -4.0744,-0.79276 z m 13.6997,0.49551 c -2.6382,-3.17887 -1.8176,-21.86434 0.8258,-18.79953 1.361,1.57796 4.101,15.5603 3.5104,17.91344 -0.658,2.62144 -2.5715,3.01243 -4.3362,0.88609 z m 14.8469,-1.81952 c -1.8353,-1.83539 -3.0593,-9.23974 -1.8766,-11.35303 0.6858,-1.22557 1.3939,-0.32157 3.4127,4.35733 2.1564,4.99783 2.349,6.10259 1.2537,7.19778 -1.0951,1.09528 -1.5234,1.06416 -2.7898,-0.20219 z m 28.2781,-22.3533 c -1.119,-2.05005 -5.6251,-11.37561 -8.2822,-18.98939 -2.4135,-6.91573 -1.5222,-15.66098 1.0705,-13.98361 0.4364,0.28235 0.9449,0.49082 0.9449,1.09064 0,0.59998 2.551,7.01498 5.6688,14.25565 5.2192,12.12065 4.848,16.58977 4.8397,18.66605 -0.01,1.29851 -3.3272,0.63613 -4.2417,-1.03934 z m 49.8169,-9.82683 c -0.2992,-0.78003 -1.0414,-5.54111 -0.081,-9.30792 1.8476,-7.24915 2.4027,-24.07002 1.0441,-31.64917 -0.9798,-5.46608 1.7873,-4.0309 4.3157,1.84622 4.2055,9.77587 3.9691,26.39061 -0.5064,35.56903 -2.4711,5.06792 -3.8067,6.0591 -4.7727,3.54184 z m -65.3991,-20.81775 c -1.5598,-1.34137 -3.7445,-3.83616 -4.8233,-5.58159 -1.4243,-2.30475 -2.4606,-3.04282 -3.7855,-2.69624 -2.743,0.71732 -6.7186,-3.47046 -8.4623,-12.97101 -1.8037,-9.82802 -1.8321,-14.76489 -0.1071,-18.53269 1.2911,-2.82005 4.4899,-4.44497 3.868,0.68805 -0.4985,4.11348 -0.4045,10.19698 1.1247,15.035 1.2768,4.03951 1.8393,13.3053 2.6045,4.46453 0.6723,-7.76807 3.4535,-1.7498 4.7764,1.47705 1.3276,3.27759 3.9849,8.54527 5.9048,11.70605 1.9202,3.16069 3.491,6.19756 3.491,6.74843 0,2.11209 -1.0656,2.6944 -3.791,0.35061 z m 75.2043,-18.15694 c -0.8129,-0.90749 -1.9449,-4.20092 -2.5159,-7.31873 -0.5707,-3.11781 -2.1522,-8.51061 -3.5143,-11.98397 -1.4924,-3.80598 -2.2102,-6.99684 -1.8063,-8.03066 0.5977,-1.53077 0.9148,-1.41065 2.9441,1.11544 6.4668,8.05038 11.0845,23.95541 7.7569,26.71729 -1.1123,0.92299 -1.6789,0.82414 -2.8645,-0.49937 z m -26.6132,-14.78629 c -0.8163,-2.808 -1.4842,-5.84999 -1.4842,-6.75988 0,-1.56763 0.096,-1.56626 1.8557,0.0241 2.2522,2.0382 5.2025,9.412 4.3302,10.82316 -1.4577,2.35861 -3.2909,0.76458 -4.7017,-4.08815 z m -28.602,2.58528 c -0.8224,-2.14333 1.2727,-11.72049 2.9256,-13.37356 2.5643,-2.56403 3.6827,-0.31327 3.0269,6.08997 -0.3383,3.30054 -0.8616,6.64403 -1.1635,7.43001 -0.737,1.92111 -4.0343,1.82028 -4.789,-0.14649 z m 34.4441,-4.82407 c -1.7342,-1.97844 -4.4918,-7.30167 -4.4918,-8.67009 0,-0.54548 0.8123,-0.99174 1.8053,-0.99174 1.7033,0 5.7529,6.48869 5.7529,9.21804 0,1.88776 -1.5983,2.11905 -3.0664,0.44379 z m -39.3885,-1.99041 c -1.7785,-3.32331 2.0434,-19.00889 4.6319,-19.00889 1.7812,0 1.9861,2.07294 0.9513,9.63026 -1.4449,10.55326 -3.2931,13.65773 -5.5832,9.37863 z m 41.8569,-4.60083 c -0.8725,-1.429 -2.5948,-4.2013 -3.8273,-6.16068 -1.9639,-3.12199 -2.0534,-3.63453 -0.7236,-4.14471 3.6143,-1.38698 10.7484,7.61282 8.8485,11.16266 -1.29,2.41033 -2.443,2.18038 -4.2976,-0.85727 z m 15.9137,-4.22597 c -2.0224,-2.74209 -4.2727,-5.94231 -5,-7.11147 -0.7791,-1.25243 -2.2596,-2.12577 -3.6035,-2.12577 -2.1499,0 -2.1912,0.0994 -0.7174,1.72775 2.0104,2.22164 2.0003,4.77747 -0.026,5.55365 -1.108,0.42523 -2.5533,-0.50911 -4.796,-3.10021 l -3.2103,-3.70884 h -11.0291 c -9.1737,0 -11.0288,-0.23836 -11.0288,-1.4172 0,-0.84364 1.0733,-1.40198 2.598,-1.71612 4.3458,-0.89533 8.7617,-1.87304 16.9441,-2.10047 11.5607,-0.0728 24.9028,-1.57803 25.5122,-7.78477 0.042,-0.43177 -3.0258,0.76854 -5.2341,0.2954 -3.5486,-0.76022 -3.9466,-3.36353 -1.8454,-4.25115 5.9788,-2.52549 -2.0946,-2.39385 -7.8635,-2.39385 -8.8694,0 -11.2655,-1.51026 -6.4221,-4.04789 2.1616,-1.13268 2.2662,-1.41099 0.9446,-2.50784 -2.0719,-1.7195 -1.8539,-3.76198 0.494,-4.63048 1.8603,-0.68816 1.7693,-0.894 -1.497,-3.3853 -2.4797,-1.89133 -3.1865,-2.94409 -2.4626,-3.66807 1.3346,-1.33454 17.435,6.97436 17.8871,9.2311 0.1767,0.87613 -0.4119,2.12753 -1.3056,2.78103 -1.4352,1.04945 -1.1414,1.32445 2.5153,2.35528 6.8185,1.92244 9.3363,4.8264 9.3363,10.7686 0,4.16479 -2.7289,7.59468 -7.5891,9.53951 -4.154,1.66213 -4.1594,1.47924 0.2143,7.56172 2.6521,3.68771 3.4381,7.52659 1.7539,8.56742 -0.4928,0.30456 -2.551,-1.68977 -4.5735,-4.43203 z m -65.0377,1.48331 c -1.3608,-5.42164 6.0154,-26.96638 9.719,-28.38754 2.5139,-0.96474 2.5185,0.63083 0.026,8.92111 -1.3685,4.55044 -2.9775,10.39923 -3.5759,12.99742 -1.8834,8.18118 -4.9352,11.38173 -6.1682,6.46901 z m -5.3906,-5.68169 c -1.9874,-1.98739 1.1201,-15.21062 5.7353,-24.40706 4.5823,-9.1306 12.4335,-18.03913 13.8615,-15.72843 0.2678,0.43136 -2.004,5.63475 -5.0459,11.56314 -3.0418,5.92838 -6.7023,14.39265 -8.134,18.80953 -3.1522,9.72433 -4.4621,11.71754 -6.4169,9.76282 z m -30.2656,-9.56029 c -1.1285,-1.8263 3.6332,-8.81721 10.6708,-15.6659 6.7808,-6.59867 9.8572,-8.62485 15.8945,-10.46877 3.8024,-1.1613 2.7578,2.47607 -2.1417,5.81528 -2.5536,1.74043 -8.5278,7.53404 -13.0051,12.10967 -9.8389,10.05449 -10.7615,9.27273 -11.4185,8.20972 z m 23.967,-2.7486 c 0,-5.97984 9.8946,-22.62561 15.7166,-26.44035 3.4428,-2.25585 3.4971,-1.10654 0.1634,3.42823 -1.6461,2.23813 -5.4072,8.77823 -8.3585,14.53337 -5.6027,10.9267 -7.5205,13.08867 -7.5205,8.47875 z m 36.3119,-13.88985 c -0.9184,-2.47395 -0.5912,-3.80779 0.8739,-4.7137 1.386,-0.85652 3.2508,0.49186 3.5793,2.25193 0.3188,1.70851 0.5763,3.91075 -1.7688,4.24628 -0.7995,0.11438 -1.9953,0.0721 -2.6844,-1.78451 z m 9.6425,-1.4381 c -0.9506,-2.47671 0.7562,-4.3285 2.7151,-4.3285 1.4534,0 1.8765,0.63637 1.8765,2.82139 0,1.54556 -0.7634,3.18515 -1.7878,3.49714 -1.0245,0.31199 -2.3101,-0.70364 -2.8038,-1.99003 z m -56.2265,-5.50329 c 1.4435,-2.99119 5.3295,-5.14995 11.9331,-9.25551 8.2663,-5.13945 7.642,-7.27029 -1.0336,-3.52759 -9.8063,4.23056 -9.1801,-6.82966 0.8884,-15.69221 3.9631,-3.48854 11.3071,-6.72418 15.2621,-6.72418 2.7931,0 6.6126,5.25024 7.8534,10.79499 l 1.2282,5.48809 4.785,-0.57499 c 2.6319,-0.31636 5.9544,-0.57879 7.3831,-0.58326 2.4106,-0.008 2.5983,-0.28807 2.5983,-3.88077 0,-10.90287 7.7709,-15.31214 19.3681,-10.98941 4.5538,1.69741 12.6518,7.38099 13.264,9.30913 1.4151,4.45882 -2.5981,7.59071 -9.974,7.78414 -4.785,0.12558 -4.7836,0.94281 0,2.37704 4.8448,1.45153 8.8114,4.8518 7.6901,6.59189 -0.6695,1.03919 -2.4029,0.71224 -9.2109,-1.73769 -10.9352,-3.93497 -13.0474,-4.98996 -13.335,-6.66073 -0.3348,-1.94345 5.6548,-4.67822 10.4203,-4.75781 2.187,-0.0372 4.8139,-0.39372 5.8376,-0.79381 1.6674,-0.65176 1.4708,-0.98442 -1.8894,-3.19452 -2.063,-1.35688 -5.8272,-2.92729 -8.3647,-3.48995 -3.9261,-0.8705 -4.8718,-0.78959 -6.3435,0.54223 -2.0498,1.85509 -4.6904,8.60202 -4.3789,11.18862 0.2597,2.15557 -2.4055,3.13867 -8.8864,3.27799 -6.8482,0.14702 -20.0483,4.40182 -32.7017,10.54043 -2.9051,0.65923 -16.0757,11.59794 -12.3936,3.96788 z m 29.5442,-17.30596 c 0.9749,-0.90699 -0.8492,-11.18614 -2.2298,-12.56668 -1.5603,-1.56016 -8.8735,2.01037 -13.2485,6.46804 -4.2891,4.37038 -4.6506,6.24193 -0.8083,4.18564 3.4626,-1.85319 13.0723,-1.97282 13.7635,-0.17142 0.3289,0.85718 -0.1901,2.04504 -1.2427,2.84853 -1.7056,1.30104 -1.6746,1.3405 0.5553,0.70206 1.2988,-0.37196 2.7437,-1.03174 3.2105,-1.46617 z" transform="translate(-85.856619,-77.43571) translate(-8439.7065,400.86026)"/>
</svg>