<?xml version="1.0" ?><svg xmlns="http://www.w3.org/2000/svg" width="215.85457mm" height="144.56834mm" viewBox="0 0 215.85457 144.56834">
    <path fill="#ae5f53" d="m 1505.5379,-1002.8614 c 0.024,0.302 2.4167,10.24596 4.7842,12.4996 2.3672,2.25364 10.1105,7.8994 10.1105,7.8994 0,0 -13.9329,10.94298 -20.8129,8.1085 -6.8802,-2.83448 -8.9024,-10.59447 -6.6582,-16.6352 2.2439,-6.04073 12.5764,-11.8723 12.5764,-11.8723 z" transform="translate(-128.58746,152.92912) translate(-1196.5163,934.38793)"/>
    <path fill="#dd8042" d="m 1384.801,-1079.1522 c -12.4431,0.083 -25.576,4.4886 -33.6947,8.3846 -12.0841,5.7986 -16.6467,21.1408 -19.1538,26.3528 -2.507,5.212 -7.3707,15.2299 -1.078,44.71934 6.2927,29.48913 30.586,37.06971 44.3245,31.20363 13.7387,-5.86634 3.284,-41.60547 1.1279,-51.73587 -2.1561,-10.1306 2.7832,-14.4171 11.4827,-14.846 8.6992,-0.4286 15.4183,10.8749 20.683,20.8701 5.2646,9.9951 9.3511,37.88275 12.7857,40.59023 3.4345,2.70748 4.0616,-3.61421 6.6585,0.74719 2.5966,4.36139 12.2452,18.38589 29.1177,19.17567 16.8722,0.78952 21.8109,-7.42341 25.3709,-15.20745 3.5599,-7.78404 -2.6324,-15.74853 -10.3791,-24.95392 -7.7468,-9.20542 -1.1285,-11.93562 3.008,-14.71082 4.1368,-2.7752 8.1981,-9.2284 13.5382,-6.8818 5.3398,2.3466 18.4521,2.2791 18.4521,2.2791 0,0 0.727,-17.1482 -1.8804,-25.0674 -2.6072,-7.9195 -12.2592,-13.4472 -12.2592,-13.4472 0,0 6.9694,-15.929 2.6572,-14.4399 -4.3119,1.4891 -7.2202,13.2892 -7.2202,13.2892 l -11.3316,2.6628 c 0,0 -6.1174,-15.1622 -8.3738,-12.6127 -2.2564,2.5495 4.8887,15.117 4.8887,15.117 l -0.5265,11.3263 c 0,0 -9.2009,2.6394 -11.9084,3.8803 -2.7077,1.2409 -10.3791,4.7612 -18.2263,12.6582 -7.8471,7.8968 -14.5153,24.70603 -14.5153,24.70603 0,0 -1.002,-3.33137 -3.5105,-7.62633 -2.5086,-4.2953 0.3511,-23.6233 0,-36.0553 -0.3511,-12.4317 -7.4708,-28.9698 -22.9645,-36.844 -5.0838,-2.584 -10.9959,-3.5743 -17.0728,-3.5338 z" transform="translate(-128.58746,152.92912) translate(-1196.5163,934.38793)"/>
    <path fill="#f2caa3" d="m 1505.3915,-1022.661 c -2.7596,0.036 -8.6826,1.6076 -8.1179,5.2999 0.6027,3.9385 6.6663,3.8674 9.2651,1.8805 2.5985,-1.987 -0.6403,-7.1675 -0.6403,-7.1675 -0.153,-0.011 -0.3229,-0.015 -0.5069,-0.013 z" transform="translate(-128.58746,152.92912) translate(-1196.5163,934.38793)"/>
    <path fill="#f8dbc1" d="m 1477.0599,-1024.1782 c -28.8874,18.1438 -28.5979,41.13125 -22.5576,50.11905 7.3253,10.90022 2.4419,16.48724 5.0581,18.18529 2.6162,1.69801 16.2787,2.46485 19.6506,-7.83284 3.3721,-10.29766 5.6393,-11.7766 0.8138,-19.8833 -4.8254,-8.10668 -13.4527,-12.13512 -8.8598,-20.187 1.9318,-3.3868 5.3061,-5.9521 8.2119,-8.1496 4.0028,-3.0271 7.3922,-5.0761 7.3922,-5.0761" transform="translate(-128.58746,152.92912) translate(-1196.5163,934.38793)"/>
    <path fill="#786358" d="m 1505.4886,-1003.8837 c 0.1974,0.8364 1.5044,9.94394 4.7101,12.94106 3.206,2.99712 8.0145,9.27021 11.2943,8.59642 3.2798,-0.67379 10.8259,-10.31568 10.8752,-16.44933 0.049,-6.13365 -4.2662,-12.82495 -12.0341,-11.26825 -7.7679,1.5566 -14.8455,6.1801 -14.8455,6.1801 z" transform="translate(-128.58746,152.92912) translate(-1196.5163,934.38793)"/>
    <path fill="#030303" d="m 1456.3923,-944.68217 c -2.7316,-1.06125 -7.3734,-2.33574 -10.3151,-2.83263 -4.5817,-0.77364 -5.383,-1.14247 -5.5892,-2.57466 -0.2405,-1.67085 -0.014,-1.7989 4.8251,-2.72203 1.2982,-0.24739 1.1833,-0.43154 -0.764,-1.22344 -9.0421,-3.67797 -12.8977,-7.18899 -16.6124,-15.12702 -2.5504,-6.63443 -3.7831,-14.02927 -2.3364,-21.19101 0.52,-2.37252 0.3532,-3.62823 -0.7888,-5.93646 -1.0535,-2.12883 -1.6268,-5.68348 -2.1027,-13.03708 -0.8623,-13.3212 -2.0755,-26.0048 -2.9403,-30.7393 -2.3974,-13.1254 -10.7756,-27.0147 -22.0192,-36.5027 -2.4812,-2.0934 -3.0135,-3.1935 -1.8833,-3.8923 1.1951,-0.7384 9.8003,4.114 13.3293,7.5171 14.16,13.6536 20.5203,33.3391 17.1026,52.9349 -0.543,3.9971 -1.0346,15.3877 1.0491,21.58473 0.3283,0 1.3489,-1.85263 2.268,-4.11663 6.3061,-15.5374 21.8782,-30.3528 33.1325,-31.5217 3.1946,-0.3326 4.6348,0.4813 -0.041,2.4622 -5.6296,2.3847 -15.0363,7.9754 -19.5886,13.7753 -4.308,5.4888 -9.8417,16.0851 -11.8697,22.72849 -1.9332,6.3336 -2.1276,15.59931 -0.4292,20.45362 2.8644,8.18753 8.8811,13.66414 17.8799,16.27505 2.2825,0.66225 4.4315,1.20385 4.7754,1.20385 1.2471,0 0.612,-3.72137 -2.2214,-5.89227 -2.1394,-1.6391 -0.5882,-2.51222 0.9713,-2.51222 2.0409,0 4.9318,3.56261 4.9318,6.07801 v 2.32648 h 4.5928 c 8.0255,0 14.3301,-4.29525 17.6408,-12.01896 2.9833,-6.9596 2.1824,-9.26889 -6.3482,-18.30785 -2.4554,-2.60164 -4.9711,-5.94307 -5.5904,-7.42526 -2.3088,-5.52584 -0.943,-11.66654 3.2475,-14.60184 0.8454,-0.5921 1.7459,-2.1204 2.001,-3.3959 0.5692,-2.8464 2.0303,-3.0705 2.0303,-0.312 0,1.9119 0.1447,1.9849 3.0339,1.523 2.7883,-0.4458 3.1263,-0.3067 4.1756,1.7224 1.4547,2.8131 7.0469,6.5323 11.512,7.6565 2.8428,0.716 3.8588,0.6644 5.7022,-0.2886 1.2337,-0.6379 2.8072,-1.16 3.4967,-1.16 0.6895,0 2.6686,-1.2115 4.3981,-2.6916 6.9128,-5.9168 19.4646,-6.5185 23.2502,-1.1136 0.8304,1.1859 1.9395,1.5129 5.1252,1.5129 4.2878,0 6.1674,1.1599 5.3464,3.2993 -0.2757,0.7184 -1.5848,1.2944 -3.2605,1.4343 l -2.7998,0.2331 -0.4722,4.39425 c -0.7636,4.47886 -3.0686,15.58343 -11.8552,16.45867 -4.2253,2.68155 -10.0793,8.54842 -21.8048,7.88326 -7.6104,-1.14115 -11.6282,-6.2992 -12.2524,-16.27029 -0.2146,-3.42926 -0.3368,-3.60098 -2.8983,-4.07696 -1.4708,-0.27305 -3.9074,-1.18666 -5.4145,-2.03015 -2.7229,-1.52374 -6.8108,-6.84638 -6.8108,-8.86748 0,-1.6656 -1.883,-0.6123 -2.1506,1.2028 -0.4073,2.76274 2.1504,6.93284 8.3696,13.64585 6.53,7.04823 8.0146,10.34415 7.1291,15.82579 -0.6934,4.29233 -3.0053,9.43901 -5.8188,12.954 -1.2838,1.60337 -2.2136,3.02868 -2.0664,3.16679 0.1473,0.13812 1.5571,0.78555 3.133,1.43854 1.8514,0.7673 2.8653,1.68805 2.8653,2.60218 0,3.5007 -3.8477,4.14258 -11.202,1.86822 -3.3663,-1.0414 -5.2119,-1.21364 -7.5179,-0.70326 -1.6809,0.37201 -5.1647,0.49318 -7.7416,0.27067 -2.5769,-0.22304 -4.8944,-0.19685 -5.1501,0.0587 -0.5719,0.57203 6.915,3.22262 9.1998,3.25702 2.8119,0.0399 4.074,0.87842 4.074,2.69901 0,3.2176 -2.8256,3.39937 -9.933,0.63818 z m 60.3415,-38.30611 c -0.012,-0.29501 -1.3068,-1.32821 -2.879,-2.29659 -3.4764,-2.14153 -6.099,-5.82956 -7.8739,-11.07254 -0.7331,-2.16509 -1.6175,-4.03039 -1.9654,-4.14519 -1.0518,-0.3456 -5.4441,2.654 -6.3412,4.33013 -0.7589,1.41764 -0.6225,1.56898 1.4169,1.56898 1.2412,0 2.8005,0.20876 3.4652,0.46381 1.61,0.61781 1.5376,3.02446 -0.1285,4.26879 -0.7354,0.54875 -1.3371,1.68222 -1.3371,2.51831 0,1.08029 -0.6436,1.63406 -2.2207,1.91055 -2.0092,0.35243 -2.0993,0.49001 -0.9457,1.44595 0.9751,0.80804 1.0711,1.30228 0.408,2.10132 -0.4769,0.57494 -1.3407,1.04484 -1.9196,1.04484 -1.5368,0 -1.2901,1.04563 0.6666,2.82549 4.7139,4.06188 15.4827,1.18877 19.6544,-4.96385 z m 8.116,-4.86781 c 1.4357,-1.63565 1.4347,-1.64994 -0.073,-1.08161 -0.8405,0.3175 -2.6456,0.76464 -4.0115,0.99377 -3.2495,0.54557 -3.1996,1.74546 0.073,1.74546 1.6658,0 3.0628,-0.57759 4.0115,-1.65762 z m -9.2416,-3.6912 c 0,-0.6305 -0.7736,-1.25624 -1.7191,-1.39038 -1.3232,-0.18812 -1.7192,0.13255 -1.7192,1.39038 0,1.25783 0.396,1.57824 1.7192,1.39039 0.9455,-0.13441 1.7191,-0.76015 1.7191,-1.39039 z m 5.7306,1.20862 c 0,-1.19698 -1.0951,-2.73659 -1.9468,-2.73659 -1.28,0 -2.115,1.2835 -1.4915,2.29235 0.4498,0.72787 3.4383,1.1139 3.4383,0.44424 z m 4.5845,-1.97247 c 0,-2.55138 -0.819,-2.89216 -2.6197,-1.09167 -1.6516,1.65126 -1.5051,2.4548 0.5184,2.8448 0.9456,0.18203 1.8052,0.37729 1.9103,0.43471 0.105,0.0571 0.191,-0.9271 0.191,-2.18784 z m 3.5329,-2.01877 c 1.5539,-3.71951 0.8601,-6.38629 -1.6612,-6.38629 -2.3516,0 -3.3817,-2.1492 -1.6405,-3.4223 0.9468,-0.6925 1.0312,-1.1221 0.3535,-1.8 -1.3766,-1.3764 -2.334,-1.0541 -1.8917,0.6371 0.2197,0.8403 0.088,1.7198 -0.2929,1.9553 -1.0488,0.6482 -0.8285,4.15473 0.2628,4.18119 0.53,0.0132 0.36,0.37016 -0.3821,0.80222 -1.8163,1.0578 -1.6928,2.99535 0.191,2.99535 0.9416,0 1.5327,-0.51329 1.5399,-1.33747 0.01,-1.14274 0.1194,-1.17025 0.7523,-0.19103 0.4074,0.63077 0.746,2.0918 0.7525,3.24776 0.016,2.84745 0.6281,2.64054 2.0164,-0.68183 z m -37.1523,-2.74955 c 0,-0.31909 -0.6441,-0.57997 -1.4315,-0.57997 -2.3747,0 -9.1785,-5.48777 -10.1845,-8.21447 -0.997,-2.702 -1.869,-3.0245 -3.9877,-1.4751 -1.3223,0.9671 -1.3151,1.1314 0.1802,4.0624 1.9699,3.86161 2.8128,4.54053 8.2873,6.67916 3.3923,1.32503 4.7824,1.54649 5.7991,0.92551 0.7353,-0.44926 1.3371,-1.07844 1.3371,-1.39753 z m 17.2593,-0.38523 c -0.8218,-0.82154 -1.2581,0.32887 -0.6812,1.79625 0.5411,1.37742 0.582,1.37954 0.8496,0.0519 0.1547,-0.76809 0.079,-1.59888 -0.1684,-1.84653 z m 6.4271,1.33297 c 0,-1.12051 -0.5094,-1.52771 -1.9102,-1.52771 -1.4008,0 -1.9102,0.4072 -1.9102,1.52771 0,1.12077 0.5094,1.52823 1.9102,1.52823 1.4008,0 1.9102,-0.40746 1.9102,-1.52823 z m 3.8204,-0.0635 c 0,-1.86188 -1.7855,-1.59915 -2.1573,0.31776 -0.1462,0.75433 0.2436,1.27397 0.9551,1.27397 0.7088,0 1.2022,-0.65326 1.2022,-1.59173 z m -9.2936,-4.81988 c 0.2478,-1.287 -0.9525,-2.7155 -2.3071,-2.7459 -0.7986,-0.019 -1.5526,2.9255 -0.9847,3.84441 0.7698,1.24566 2.9826,0.50668 3.2918,-1.09851 z m 5.4732,0.2989 c 0,-1.0189 -0.5094,-1.5277 -1.5282,-1.5277 -1.0188,0 -1.5282,0.5088 -1.5282,1.5277 0,1.01895 0.5094,1.52827 1.5282,1.52827 1.0188,0 1.5282,-0.50932 1.5282,-1.52827 z m 4.2984,0.4075 c 0.7919,-2.0638 -0.071,-2.9972 -1.4743,-1.5941 -1.2952,1.2949 -1.1377,2.71487 0.3012,2.71487 0.4087,0 0.9366,-0.50429 1.1731,-1.12077 z m -8.1188,-4.9922 c 0,-0.4199 -0.3235,-0.7638 -0.719,-0.7638 -0.3954,0 -0.9315,0.3439 -1.1912,0.7638 -0.2598,0.4207 0.064,0.7647 0.719,0.7647 0.6551,0 1.1912,-0.344 1.1912,-0.7647 z m 5.2947,-0.6635 c 0.918,-1.7151 0.3652,-2.4567 -1.358,-1.8227 -1.305,0.4807 -2.3764,1.6771 -2.3968,2.6778 -0.025,1.2009 3.0263,0.5067 3.7548,-0.8551 z m 4.5093,-0.7488 c 0.196,-1.378 -0.063,-1.719 -1.1461,-1.5132 -0.7773,0.1487 -1.5116,1.0578 -1.6522,2.0466 -0.1959,1.3777 0.063,1.7193 1.1461,1.5124 0.7773,-0.1479 1.5117,-1.0573 1.6522,-2.0458 z m -179.8373,33.83094 c -5.9939,-6.08303 -10.0941,-13.93269 -13.7407,-26.30567 -4.3522,-14.76697 -4.3767,-20.03217 -0.1478,-31.70897 2.0047,-5.5356 2.7007,-3.8092 1.2032,2.9845 -1.8255,8.2812 -1.2718,14.2158 2.3591,25.2862 5.9391,18.1073 11.8033,26.56127 21.6846,31.25974 10.0557,5.08741 20.7499,5.55413 25.0293,-6.25105 1.4736,-4.4651 0.4013,-18.80129 -2.3564,-31.50309 -3.83,-17.6425 -3.2468,-24.0237 2.5166,-27.5376 3.2922,-2.0077 11.1595,-2.018 15.5588,-0.018 9.3286,4.2351 16.1679,18.2443 21.6603,44.36741 3.1023,14.75449 3.672,16.20256 6.6783,16.97699 2.6824,0.69136 3.2045,1.6846 1.2746,2.42491 -2.1633,0.83026 -4.1132,0.49212 -5.4771,-0.94986 -5.0759,-5.36469 -6.6707,-8.78205 -8.9782,-19.23547 -6.9449,-31.46348 -11.8475,-39.71318 -23.6002,-39.71318 -3.6028,0 -4.3952,0.277 -5.761,2.0132 -2.1545,2.7395 -2.0164,5.2589 1.032,18.8228 3.2289,14.36577 4.5283,26.08205 3.55,32.00581 -5.6197,24.18318 -28.2386,20.80709 -42.4854,7.08183 z m 155.2915,-38.68444 c -4.1208,-0.2239 -7.4404,-1.0949 -9.912,-1.9664 -11.8977,-5.5914 -16.8778,-18.1237 -16.4225,-26.9798 0.2135,-3.7465 0.1423,-6.812 -0.1584,-6.812 -1.3752,0 -3.4851,-4.5135 -3.8583,-8.6278 -0.4989,-5.5025 0.5311,-7.7131 3.594,-7.7131 1.7966,0 2.5983,0.6217 4.187,3.2477 1.0807,1.7862 1.1859,1.4986 1.8296,3.6698 1.1696,3.9452 1.172,3.9473 3.6129,3.2472 1.3433,-0.3849 3.5622,-0.7006 4.9307,-0.7006 1.8962,0 2.4883,-0.3304 2.4883,-1.3893 0,-2.9993 0.9202,-6.0127 2.9185,-8.2492 3.8123,-4.2667 8.5138,-2.6223 8.5138,2.9781 0,2.726 -0.5977,4.122 -2.7583,6.2826 -1.2362,1.2359 -1.227,1.3528 0.1659,2.0955 10.3019,6.6051 12.9541,18.0578 13.1839,25.7895 0.1494,5.253 1.0175,9.7262 0.9672,10.2766 -0.5293,5.7984 -9.5959,5.024 -13.2823,4.8512 z m 7.7604,-13.2181 c -1.134,-12.0025 -4.7607,-19.3497 -12.0416,-24.3956 -2.7594,-1.9122 -3.4527,-2.0654 -7.1079,-1.5703 -5.219,0.7072 -7.942,2.137 -9.3857,4.9292 -3.6578,10.8423 2.4624,22.7511 12.1244,27.6815 2.8571,1.4579 9.2626,1.9977 12.8608,1.7006 1.2176,-0.1005 0.072,-0.9423 1.5754,-2.2135 1.5153,-1.2818 1.7383,-0.3253 2.0393,-0.737 0.4767,-0.6524 0.183,-2.7735 -0.065,-5.3949 z m -14.388,-7.9764 c -1.1796,-2.2037 -0.019,-4.5008 2.2158,-4.182 1.3511,0.1921 1.9818,0.7383 1.9618,2.6078 -0.017,1.5512 -0.4705,2.5608 -1.8216,2.7529 -1.0668,0.1519 -1.8169,-0.1709 -2.356,-1.1787 z m 7.1385,-1.1767 c -0.5423,-2.0733 0.8509,-3.6954 2.4413,-3.1453 1.883,0.6513 2.0862,5.0946 -0.6892,4.9839 -0.7211,0.1373 -1.5192,-0.9475 -1.7521,-1.8386 z m -23.2164,-16.6342 c -0.01,-1.2833 -2.3134,-5.4523 -2.9055,-5.4523 -0.5314,0 -0.1203,1.5665 0.344,3.1599 0.9109,3.1261 2.5779,4.3855 2.5615,2.2924 z m 18.0354,-7.0845 c 0.9096,-3.9201 0.2011,-3.6542 -1.5706,0.59 -0.9287,2.2238 -0.9765,2.8649 -0.2136,2.8649 0.5404,0 1.3434,-1.5547 1.7842,-3.4549 z m -165.7907,19.7771 c 1.4635,-4.7445 8.6484,-13.553 11.4796,-13.266 1.5413,0.1564 1.2597,1.3576 -0.4892,2.2942 -0.842,0.4503 -3.4493,3.5568 -5.7942,6.9035 -2.3449,3.3462 -4.4299,6.0841 -4.6333,6.0841 -0.2035,0 -0.8546,-1.0705 -0.5629,-2.0158 z m 8.7008,-15.9496 c -0.2553,-1.4322 0.9671,-2.3662 2.3349,-3.293 1.3678,-0.9266 3.0299,-1.7595 3.5051,-0.6634 0.1116,0.2575 -0.6047,1.0301 -1.7846,1.8471 -3.131,2.1691 -3.9606,2.6413 -4.0554,2.1093 z m 7.6407,-9.3626 c 0,-1.2258 7.9371,-5.7126 10.7791,-6.0939 1.6359,-0.2193 2.8058,-0.1307 2.9743,0.046 1.2126,1.2718 -12.7016,6.632 -13.4771,6.632 -0.1519,0 -0.2763,-0.2633 -0.2763,-0.5852 z m 31.1758,-11.0829 c -4.2596,-2.1981 -7.8878,-4.4267 -8.0627,-4.9511 -0.4644,-1.393 2.6983,-1.1925 7.5582,0.4794 6.7462,2.3212 10.5889,4.5495 10.5889,6.1405 0,2.7135 -2.3472,2.3251 -10.0844,-1.6688 z m -6.3432,2.8612 c -0.4203,-0.1547 -3.257,-1.0205 -6.3037,-1.9243 -5.6665,-1.6806 -7.1919,-3.022 -3.4359,-3.022 3.0935,0 12.5383,2.8532 13.8775,4.1923 1.032,1.0321 0.913,1.1493 -1.1089,1.0956 -1.2457,-0.034 -2.6088,-0.1868 -3.029,-0.3416 z m 21.4782,-3.9213 c -1.307,-1.5375 -4.0437,-4.6154 -6.0817,-6.8401 -2.0379,-2.2243 -3.5851,-4.3891 -3.4383,-4.8109 0.7068,-2.0283 11.1295,5.7492 13.2819,9.9111 2.6078,5.0432 0.051,6.2253 -3.7619,1.7399 z" transform="translate(-128.58746,152.92912) translate(-1196.5163,934.38793)"/>
</svg>