<?xml version="1.0" ?><svg xmlns="http://www.w3.org/2000/svg" width="244.55307mm" height="248.22437mm" viewBox="0 0 244.55307 248.22437">
    <path fill="#fff" d="m 3652.6409,-100.47496 14.6343,20.787889 c 0,0 16.5722,-7.397031 35.2158,-0.481118 18.6437,6.915941 31.5629,29.62825 36.3073,44.482473 4.7445,14.854223 7.4174,28.9466702 7.0165,36.12320509 -0.401,7.17653491 -5.1232,15.95675991 -5.1232,15.95675991 0,0 13.4983,7.356933 27.3084,4.670741 13.8102,-2.686192 22.6053,-7.500653 32.2724,-4.353405 9.6671,3.147247 19.3341,5.933669 19.3341,5.933669 0,0 3.7644,-9.902825 15.5031,-11.486451 11.7386,-1.5836555 24.5909,3.488036 26.8406,20.667598 2.2497,17.179562 -6.2492,43.670682 -6.6524,54.243274 -0.4032,10.572564 4.6776,12.388527 4.6776,12.388527 0,0 -10.0903,3.908998 -17.5299,-1.583655 -7.4397,-5.492649 -11.605,-26.320611 -12.4514,-33.958201 -0.8464,-7.63759 -4.2099,-14.673797 -4.2099,-14.673797 0,0 -5.7913,14.954454 -17.1958,21.850332 -11.4045,6.895877 -26.7037,12.00227 -51.8436,12.438147 -25.1399,0.43585 -54.4386,-5.973767 -63.1925,-29.307523 -8.7538,-23.333728 -3.7675,-63.929474 -3.7675,-63.929474 0,0 -19.3342,18.5627563 -31.8524,19.725454 -12.5182,1.16267 -22.809,-2.3454021 -26.3729,-11.2258575 -3.5639,-8.8804555 -0.735,-13.1302395 6.7046,-21.0685495 7.4397,-7.938282 16.7008,-22.038246 16.7008,-22.038246 0,0 -12.8077,2.405535 -16.3939,1.343096 -3.5862,-1.062467 4.1653,-4.309945 4.1876,-9.882762 0.022,-5.572845 0.6014,-13.751686 4.7667,-16.036955 4.1653,-2.28527 11.0926,-3.006919 11.0926,-3.006919 0,0 -7.7744,-21.551137 -5.977,-27.578252 z" transform="translate(17.727129,-24.341673) translate(-3645.2276,129.93442)"/>
    <path fill="#62f5f7" d="m 3667.9747,-51.804226 c -7.0168,-1.108895 -17.5191,-45.593227 -17.2929,-48.109599 0.2265,-2.516375 1.2224,-3.881175 3.1237,-0.554435 1.9013,3.326712 22.2724,39.238317 22.7251,42.053219 0.4527,2.814928 -6.0662,6.482889 -8.5559,6.610815 z" transform="translate(17.727129,-24.341673) translate(-3645.2276,129.93442)"/>
    <path fill="#ff8e5c" d="m 3663.5837,-53.936757 c -2.9879,4.22238 -11.8152,11.217037 -17.6551,11.643545 -5.8396,0.426509 -7.0168,-2.473695 -6.4733,-3.667918 0.5432,-1.194224 8.2389,-7.932976 11.8152,-10.406698 3.5761,-2.473722 9.5518,-5.62983 9.5518,-5.62983 z" transform="translate(17.727129,-24.341673) translate(-3645.2276,129.93442)"/>
    <path fill="#ffd77f" d="m 3656.3857,-74.195664 4.6628,12.325958 -17.7001,10.918481 c 0,0 -2.3088,-12.965694 1.9013,-16.292433 4.21,-3.326738 11.136,-6.952006 11.136,-6.952006 z" transform="translate(17.727129,-24.341673) translate(-3645.2276,129.93442)"/>
    <path fill="#9fff7f" d="m 3679.609,-53.894106 c -0.5432,-0.0853 -10.7741,-25.206351 -10.7741,-25.206351 0,0 8.4201,-4.606237 12.4489,-5.28865 4.0291,-0.682387 9.5972,1.791335 9.5972,1.791335 0,0 -7.7411,5.928386 -8.5106,9.724284 -0.7696,3.795871 -1.3581,14.031938 -0.8601,15.567368 0.4979,1.535404 0.6789,6.269593 0.6789,6.269593 z" transform="translate(17.727129,-24.341673) translate(-3645.2276,129.93442)"/>
    <path fill="#7fffe2" d="m 3689.7682,-72.988089 7.4504,-9.0979 c -4.2553,-0.426482 -6.8355,0.298556 -6.8355,0.298556 0,0 -7.4695,5.203349 -8.0582,8.530087 -0.5884,3.326712 -1.5987,17.303371 -1.4175,20.203601 l 2.1654,0.74756 c 0.4662,-9.237974 3.4416,-15.144829 6.6954,-20.681904 z" transform="translate(17.727129,-24.341673) translate(-3645.2276,129.93442)"/>
    <path fill="#6553ff" d="m 3701.565,-68.09694 2.0192,10.788868 25.4441,3.495855 -14.3352,-19.914553 z" transform="translate(17.727129,-24.341673) translate(-3645.2276,129.93442)"/>
    <path fill="#bc3fff" d="m 3703.5387,-57.050985 c 0.3013,-4.00645 22.8622,-0.844182 25.8366,4.6639 9.262,14.242826 12.4211,28.23446 16.0549,44.6833019 0.6792,2.942881 0.3622,11.3023649 -1.5391,16.6336396 -1.9013,5.3312745 -6.4736,18.1263925 -6.5188,20.3015585 -0.045,2.175166 0.4527,9.340426 -1.0864,9.340426 -1.5391,0 -6.4283,-0.08527 -7.6504,-5.672508 -1.2224,-5.587206 -3.4407,-11.174385 -1.0414,-17.657233 2.3992,-6.4828469 8.8275,-23.6282964 9.0088,-29.727313 0.181,-6.098989 -5.7947,-22.988534 -8.4654,-27.466818 -2.6709,-4.478258 -8.6013,-8.913919 -11.6795,-9.29775 -3.0784,-0.383857 -14.7576,-1.108921 -14.7576,-1.108921 z" transform="translate(17.727129,-24.341673) translate(-3645.2276,129.93442)"/>
    <path fill="#ffa0e0" d="m 3702.0171,-52.785184 c 0,0 12.5849,-0.170604 16.478,2.047213 3.893,2.217817 7.4242,6.09899 9.7329,8.913919 2.3088,2.814928 6.2924,13.26425 7.9222,18.04109 1.6296,4.77684 -0.634,17.9984399 -2.354,22.6046769 -1.7203,4.6062371 -6.4283,19.4911661 -6.7453,22.8179041 -0.3167,3.326739 0.2717,10.19347 2.1278,13.605484 1.856,3.412014 1.9013,6.184344 -1.9918,3.156135 -3.8933,-3.028209 -7.5599,-14.714352 -6.9715,-18.083741 0.5884,-3.36939 5.5681,-19.32061605 7.243,-25.3769549 1.675,-6.0563391 1.2223,-25.1637001 -3.033,-30.4950011 -4.2553,-5.331302 -9.5972,-8.99922 -15.8895,-10.53465 -6.2923,-1.535404 -9.3708,-0.34118 -9.3708,-0.34118 z" transform="translate(17.727129,-24.341673) translate(-3645.2276,129.93442)"/>
    <path fill="#ff4d4d" d="m 3699.3464,-46.47294 c 0,0 5.5679,-1.364827 10.4119,0.597085 4.8437,1.961912 12.9921,8.913945 14.9838,12.965721 1.9921,4.051776 3.0332,15.865924 3.6669,20.856019 0.6339,4.9900679 -5.7491,20.9413206 -6.4736,24.865144 -0.7241,3.923824 -2.354,8.146177 -1.2221,11.899424 1.1317,3.753247 4.6175,12.325958 4.6175,12.325958 0,0 -8.8275,-4.307707 -9.4159,-10.534623 -0.5887,-6.226942 -2.2636,-50.753909 -3.6217,-55.701353 -1.3581,-4.947417 -9.0537,-9.55368 -10.6836,-11.686196 -1.6295,-2.132515 -4.9342,-2.942854 -2.2632,-5.587179 z" transform="translate(17.727129,-24.341673) translate(-3645.2276,129.93442)"/>
    <path fill="#52baff" d="m 3682.5673,-52.262315 c -0.3379,-0.863838 -0.2413,-10.457074 1.9301,-14.458076 2.1717,-4.000977 14.8633,-14.412622 14.8633,-14.412622 l 15.0082,6.774366 -11.7748,5.001233 -4.681,-2.818844 c 0,0 -6.1769,7.001695 -6.5148,9.956958 -0.3379,2.955264 -2.8472,12.730401 -2.8472,12.730401 z" transform="translate(17.727129,-24.341673) translate(-3645.2276,129.93442)"/>
    <path fill="#62f5f7" d="m 3824.4713,16.768984 c 5.3099,-5.100822 13.9517,-6.327007 21.7082,-4.267041 7.7568,2.059967 14.16,10.39786 15.7216,16.626813 1.5618,6.228927 -2.1341,35.019271 -3.4878,39.629662 -1.3536,4.610391 -5.7263,17.117298 -4.5291,21.678635 1.1975,4.561337 -6.6635,-0.539512 -7.3922,-7.258896 -0.7289,-6.719385 1.6137,-23.150036 2.1344,-29.673233 0.5204,-6.523222 0.2082,-23.59144 -4.3209,-29.280855 -4.5291,-5.689388 -11.6089,-5.051795 -16.0337,-4.659418 -4.4252,0.392377 -3.8005,-2.795667 -3.8005,-2.795667 z" transform="translate(17.727129,-24.341673) translate(-3645.2276,129.93442)"/>
    <path fill="#e481ff" d="m 3820.6711,22.556507 c 0.4164,-0.882836 5.6224,-3.678503 14.1078,-3.04091 8.4855,0.63762 10.9842,8.092705 12.7021,12.261665 1.718,4.16896 0.7811,26.092811 0.3125,31.046525 -0.4686,4.953688 -2.4987,16.57776 -0.4686,21.139124 2.0302,4.561337 10.4116,15.20444 10.4116,15.20444 0,0 -11.2966,1.128079 -13.2749,-1.667563 -1.978,-2.795667 -2.8631,-11.280696 -3.2274,-16.724895 -0.3646,-5.444225 1.4576,-38.207367 -0.4164,-44.730563 -1.8743,-6.523223 -5.9868,-11.624046 -10.0473,-11.722153 -4.0606,-0.09811 -12.7024,2.059966 -10.0994,-1.76567 z" transform="translate(17.727129,-24.341673) translate(-3645.2276,129.93442)"/>
    <path fill="#ffea81" d="m 3821.6603,24.910743 c 0.6247,-0.147135 6.6115,-2.354236 11.0363,0.637592 4.4249,2.991856 8.3812,11.820234 9.1102,18.441538 0.7286,6.621304 -0.6247,40.953928 0.052,45.122914 0.6765,4.168987 0.7808,7.700301 0.7808,7.700301 0,0 -10.9323,-12.555934 -12.6503,-21.286232 -1.7176,-8.730297 -1.3533,-28.348939 -2.4987,-36.294482 -1.1451,-7.94557 -5.8304,-14.321631 -5.8304,-14.321631 z" transform="translate(17.727129,-24.341673) translate(-3645.2276,129.93442)"/>
    <path fill="#fcd2ff" d="m 3799.9987,41.333177 c 3.801,-4.704768 9.6985,-4.303857 13.9467,-0.301293 4.2484,4.002537 4.7667,12.605803 -1.5684,17.73192 -6.3352,5.12609 -15.5584,-0.944801 -15.9683,-6.667738 -0.4098,-5.722964 3.59,-10.762889 3.59,-10.762889 z" transform="translate(17.727129,-24.341673) translate(-3645.2276,129.93442)"/>
    <path fill="#fff8d2" d="m 3778.296,34.038594 c 1.1412,-5.975918 7.8491,-10.105381 12.7309,-9.157405 4.8818,0.948002 11.4285,6.158393 9.677,11.775999 -1.7516,5.617634 -4.7255,12.243278 -12.514,12.067727 -7.7886,-0.175551 -10.6952,-10.490346 -9.8939,-14.686321 z" transform="translate(17.727129,-24.341673) translate(-3645.2276,129.93442)"/>
    <path fill="#d2fff5" d="m 3764.4006,54.872951 c -4.907,-5.82469 -4.2673,-11.348242 0.2047,-14.753932 4.4718,-3.40569 12.8208,-2.713076 14.3115,2.974777 1.4907,5.687854 2.0615,10.863753 -3.753,13.290185 -3.188,1.330355 -9.3935,0.114845 -10.7632,-1.51103 z" transform="translate(17.727129,-24.341673) translate(-3645.2276,129.93442)"/>
    <path fill="#030303" d="m 3693.434,141.87162 c -1.756,-2.01521 0.2166,-27.91469 2.9094,-38.19843 2.1568,-8.236742 8.119,-23.568014 10.8746,-27.963156 1.2975,-2.069464 -2.4146,-2.918104 -4.1272,-4.547028 -8.1647,-7.765966 -13.6818,-16.810091 -15.6359,-26.60952 -2.1682,-11.196413 -1.5327,-25.221381 -0.1163,-38.1480788 l 1.1697,-10.6740099 -6.8869,4.81844503 c -3.7878,2.65024787 -10.1612,6.80635697 -14.2559,8.51838747 -6.5597,2.7427072 -9.5137,4.6698372 -16.5273,4.1674122 -12.3416,-1.324361 -24.0216,-10.9391533 -23.3065,-22.2864066 0.4736,-6.8898594 3.8761,-9.8169494 11.5892,-17.5414604 8.91,-8.923096 13.9295,-17.39726 8.9881,-15.174102 -4.4075,1.982939 -17.8914,-0.485385 -17.702,-3.24047 0.04,-0.581405 1.7074,-1.611884 3.7054,-2.289931 4.8899,-1.659302 5.4312,-2.625042 6.8136,-12.155344 1.1332,-7.811856 1.395,-8.380771 5.2847,-11.482608 2.2508,-1.794883 5.5017,-3.445961 7.2241,-3.668972 2.4859,-0.321857 2.9699,-0.770083 2.3467,-2.172351 -1.8529,-4.169362 -6.1573,-21.370626 -6.2527,-24.987297 -0.084,-3.19658 0.2428,-3.92207 1.7212,-3.82043 2.3614,0.16231 5.4936,4.1042 12.1909,15.342152 4.1393,6.945866 3.7724,7.248394 5.1077,6.779116 4.6718,-1.641555 14.5489,-2.871676 19.8172,-2.509552 24.3803,1.675832 40.6287,15.302534 53.1314,46.159972 7.3911,18.241803 6.8644,23.609468 6.7177,34.3936836 -0.1067,7.8528868 -0.4933,9.676225 -3.178,14.9916409 l -1.7963,3.8850885 3.1925,1.729776 c 5.4633,2.960208 14.0823,3.601294 25.3447,0.667846 20.8708,-5.436105 28.8964,-5.297076 45.3123,2.963204 1.2277,0.617773 1.6057,1.020504 1.6792,-0.04838 0.1627,-2.367754 8.5974,-7.812449 13.3066,-9.084166 2.3049,-0.6224923 7.2844,-0.9079532 11.0655,-0.6344171 10.1283,0.7324154 15.159,4.4388851 19.1076,14.0769341 2.9163,7.118098 2.9563,7.537981 1.9927,20.873062 -0.7211,9.975221 -1.7936,16.401566 -4.0176,24.068516 -3.9265,13.53557 -4.4744,20.908497 -1.8413,24.77485 2.4587,3.610196 3.4351,3.682734 8.6453,0.642273 2.2929,-1.337925 4.4517,-2.108036 4.7974,-1.71138 1.2854,1.475173 -3.0751,6.209748 -7.7624,8.428101 -3.935,1.86237 -6.2175,2.18598 -12.1577,1.72359 -10.6131,-0.826 -15.269,-4.2419 -19.4798,-14.291637 -2.2511,-5.372553 -5.765,-23.373176 -5.4519,-27.928031 0.2751,-4.002217 -1.0657,-3.884128 -3.4271,0.301907 -3.0115,5.338615 -8.3552,10.081838 -16.0099,14.210904 -3.8661,2.085289 -7.0709,4.39907 -7.122,5.141659 -0.2658,3.867935 12.3108,30.917038 19.3754,41.671328 4.2445,6.4615 7.7167,12.4783 7.7159,13.37074 0,3.291 -4.4818,2.0904 -7.804,-2.0919 -9.0258,-11.36198 -21.3863,-35.755065 -24.022,-47.406486 -0.8427,-3.725289 -1.3025,-4.249642 -3.3976,-3.874265 -7.0859,1.269456 -7.4098,1.59996 -9.3688,9.558899 -1.0266,4.170774 -2.9558,10.816822 -4.2871,14.769082 -1.3313,3.95231 -3.7944,12.2907 -5.4736,18.52975 -3.499,13.0011 -5.6918,17.98963 -7.8426,17.84179 -2.7821,-0.19122 -2.4897,-5.36343 1.0212,-18.06234 3.1117,-11.25499 10.6572,-33.024847 13.1926,-38.062403 0.7755,-1.541099 0.5753,-1.809746 -1.075,-1.442592 -5.9616,1.326395 -20.7968,1.556753 -31.4124,0.48773 -10.4121,-1.048451 -11.9843,-0.993518 -11.5541,0.40406 0.2738,0.889726 1.1227,5.441813 1.8864,10.115804 1.8792,11.501801 3.1577,15.765621 8.9523,29.855391 5.8108,14.12887 6.3125,17.4085 2.6245,17.155 -2.1501,-0.14779 -3.346,-2.14059 -8.5466,-14.24184 -6.5201,-15.17159 -8.6199,-24.03181 -8.7265,-36.822819 l -0.068,-8.151035 -8.7986,-2.824797 c -6.8351,-2.194449 -9.0052,-2.549537 -9.7245,-1.591059 -0.5092,0.678556 -2.8697,6.062978 -5.2456,11.965338 -4.8984,12.169222 -8.9246,29.172792 -9.7496,41.174162 -0.6004,8.73535 -2.4278,12.73409 -4.6525,10.18088 z m 161.4606,-45.229268 c 0.031,-0.455319 -1.8739,-3.002086 -4.2337,-5.659568 -5.9729,-6.72619 -6.6449,-10.857403 -4.5555,-28.001954 2.489,-20.423677 0.3308,-35.987313 -5.6154,-40.495261 -2.9502,-2.236468 -11.4575,-2.844775 -15.085,-1.078659 -2.5987,1.265415 -2.5109,1.312945 2.0255,1.095105 6.7123,-0.322366 10.7054,2.815133 13.7087,10.771443 2.2165,5.872039 2.2849,7.291855 1.4088,29.215996 -0.9921,24.826788 -0.2425,30.565902 4.3341,33.178878 2.6354,1.504533 7.9317,2.148389 8.0125,0.973907 z m -14.3685,-7.245795 c -0.5264,-1.624855 -0.6758,-12.493505 -0.3319,-24.152668 0.7143,-24.216192 -0.2767,-31.482276 -4.9812,-36.5241 -2.2015,-2.359305 -4.0077,-3.246517 -7.0332,-3.454466 -2.239,-0.153893 -4.0832,-0.103791 -4.0979,0.111279 9.4619,9.73681 5.7431,20.886202 6.8228,29.221252 2.4993,19.552827 4.3374,27.698267 7.7042,34.141736 2.2602,4.325826 3.2115,4.651837 1.9172,0.656967 z M 3856.54,65.026671 c 6.9219,-23.911629 4.5629,-43.130391 -5.9938,-48.828136 -5.1176,-2.762206 -11.1003,-3.283789 -17.6618,-1.539969 -6.9788,1.854761 -7.2276,3.038031 -0.5911,2.810838 9.887,-0.338416 14.3728,4.324921 17.0647,17.740311 1.1037,5.499742 1.0807,10.498952 -0.1174,25.582572 -1.3657,17.193974 -1.3315,19.154108 0.4139,23.660897 l 1.9029,4.9139 1.3734,-8.308318 c 0.7553,-4.569493 2.3794,-11.783866 3.6092,-16.032095 z m -87.6587,13.86678 c 3.7481,-0.346639 10.6064,-1.600723 15.2405,-2.786762 l 8.4258,-2.156611 0.021,-5.320559 c 0.017,-4.28536 0.3609,-5.364584 1.7746,-5.546367 1.2088,-0.155673 2.0545,0.954126 2.7241,3.574788 0.5341,2.09029 1.4429,3.833065 2.0196,3.872683 2.0408,0.1403 13.0367,-6.772702 15.6303,-9.826557 4.0964,-4.823446 6.6583,-11.235126 7.1039,-17.778741 0.7019,-10.326184 -3.3902,-15.303382 -16.8323,-20.467957 -8.7829,-3.374525 -15.7442,-3.34785 -30.472,0.116733 -7.4415,1.750518 -12.6638,2.333562 -17.7631,1.983051 -7.5197,-0.516892 -14.3301,-3.078693 -14.1752,-5.332229 0.06,-0.866329 -0.2848,-0.981226 -1.0204,-0.340281 -1.9774,1.722966 -3.5087,13.635857 -2.143,16.671373 1.4709,3.269264 0.3831,4.155798 -5.8579,4.774023 -5.581,0.552837 -9.8073,-0.937482 -13.6565,-4.815675 -4.8272,-4.863714 -6.6907,-12.470249 -6.9342,-28.3043416 -0.4375,-28.4527794 -1.9271,-38.9042594 -6.1135,-42.8940984 -1.1443,-1.090499 -1.3167,-0.544642 -1.0538,3.338835 0.3842,5.675449 -1.6682,10.10128 -8.598,18.541054 l -5.0006,6.0903026 -0.2968,17.310085 c -0.5889,34.3531894 2.5689,46.2924454 14.8393,56.1068224 2.252,1.801269 4.2361,3.096355 4.4091,2.877978 0.173,-0.218292 1.7327,-2.308271 3.4661,-4.644235 3.0326,-4.08699 5.5237,-5.201961 6.6875,-2.993326 0.3039,0.576968 -0.8441,3.391366 -2.551,6.254339 -1.707,2.862973 -2.7401,5.612011 -2.2957,6.108982 2.5898,2.895893 39.2599,6.803955 52.4218,5.586691 z m 29.8556,-20.962752 c 0.048,-0.700428 1.1543,-2.572765 2.4582,-4.160998 1.9795,-2.41113 2.1002,-2.906151 0.7314,-3.00025 -1.8349,-0.126114 -2.0897,-1.771541 -0.4113,-2.655842 0.7133,-0.375886 0.7866,-1.256232 0.2113,-2.535239 -1.1402,-2.534278 -0.055,-3.437427 2.3323,-1.940778 1.6019,1.004341 1.9079,0.794979 2.0594,-1.40888 0.098,-1.423744 0.6684,-2.847007 1.2677,-3.162789 0.6408,-0.337653 0.9941,0.81863 0.8575,2.805807 l -0.2323,3.380177 2.7778,-2.272016 c 3.4376,-2.811629 4.5911,-1.85965 1.9569,1.614964 -1.8929,2.496978 -1.8846,2.587431 0.2534,2.7344 2.6185,0.179974 2.8247,1.791294 0.3271,2.557845 -1.587,0.487024 -1.581,0.76737 0.062,2.920478 1.9311,2.530802 1.9432,2.530689 -3.1944,0.02317 -1.0103,-0.493099 -1.633,0.17972 -2.0561,2.221887 l -0.607,2.929294 -0.8922,-2.592601 c -0.8639,-2.510457 -0.9435,-2.532554 -2.5125,-0.697913 -2.5591,2.992337 -5.4932,4.756108 -5.389,3.239368 z m -31.5847,-7.18829 c 0.3739,-0.805858 -0.3557,-1.337388 -1.9903,-1.449741 -3.6106,-0.248189 -3.1093,-1.922043 0.7244,-2.418477 2.7351,-0.354128 3.222,-0.889332 3.4853,-3.830494 0.2903,-3.238181 0.358,-3.289186 1.2874,-0.96526 l 0.9813,2.45346 2.6013,-2.127732 c 2.9303,-2.396718 3.3563,-1.241113 0.7374,1.999978 -1.5655,1.937218 -1.5586,2.195353 0.073,2.753248 1.529,0.522685 1.438,0.705175 -0.6034,1.209295 -1.3222,0.326661 -2.4615,1.430045 -2.5318,2.452047 -0.091,1.3273 -0.8746,1.763658 -2.7415,1.527168 -1.6236,-0.205717 -2.3901,-0.81312 -2.0234,-1.603492 z m 16.7357,-5.991514 c 0.022,-0.316092 0.8526,-1.913226 1.8464,-3.5493 1.7706,-2.914798 1.7539,-2.978265 -0.8334,-3.156091 -1.4522,-0.09983 -2.608,-0.651966 -2.5685,-1.2269 0.04,-0.574934 0.7775,-0.996852 1.64,-0.937567 1.9101,0.131286 2.095,-1.061705 0.4718,-3.044135 -0.9957,-1.216133 -0.7122,-1.324869 1.5941,-0.6115 2.6669,0.824904 2.785,0.710149 2.3918,-2.325876 -0.5076,-3.920438 1.6781,-4.266484 2.3751,-0.376027 0.5641,3.148349 1.093,3.321711 3.0494,0.999028 1.9605,-2.327656 3.1025,-0.812978 1.4155,1.877622 -1.231,1.963497 -1.1218,2.093992 1.3773,1.646218 1.666,-0.298431 2.6841,-0.0464 2.636,0.652587 -0.043,0.626279 -1.2874,1.355445 -2.7654,1.620136 -2.2701,0.406743 -2.4983,0.743747 -1.4704,2.171136 1.044,1.449741 0.9033,1.565965 -0.9913,0.81815 -1.8992,-0.74971 -2.1457,-0.542693 -1.7627,1.479948 0.3462,1.828142 0.09,2.186565 -1.1494,1.610472 -0.9152,-0.425252 -2.4329,0.06618 -3.5619,1.153486 -1.8769,1.807683 -3.7787,2.424722 -3.6944,1.198613 z m -56.4242,-12.375528 c -2.6543,-5.785881 -2.5667,-11.924477 2.5715,-25.8870795 6.8981,-18.7451885 6.4924,-31.1715245 -1.4763,-45.2062135 -4.5734,-8.054676 -8.6512,-11.045629 -16.4787,-12.086592 -3.6522,-0.485752 -6.6118,-1.298815 -6.5769,-1.806779 0.1038,-1.509139 12.4783,-0.196166 15.5103,1.645653 6.56,3.984754 12.9767,15.236269 15.6222,27.392686 1.6969,7.797615 0.2887,18.9934906 -3.6028,28.6439444 -1.4734,3.6536562 -3.2221,10.6653346 -3.886,15.5815806 -1.1998,8.884468 0.5197,10.180232 1.7887,12.726971 3.5499,5.116989 3.0385,3.22052 3.4271,-1.958891 0.5044,-6.719069 2.12,-11.678944 6.3236,-19.417104 5.826,-10.7248175 3.7928,-25.580058 -7.1978,-52.590754 -6.214,-15.27145 -12.6084,-25.542871 -16.0514,-25.783571 -1.1718,-0.08053 -4.3022,0.765251 -6.9566,1.882567 -4.3873,1.846792 -4.9167,2.455042 -5.8226,6.689539 -1.3226,6.183101 -4.9456,13.504147 -6.3809,12.894286 -1.2418,-0.527603 -1.1216,-2.594043 0.6271,-10.781983 0.7339,-3.436693 0.7651,-6.721018 0.089,-9.368186 -0.9755,-3.817693 -1.1421,-3.957004 -2.6256,-2.195636 -2.0134,2.390389 -3.8982,7.908894 -4.5903,13.439917 -0.4823,3.853835 -0.8996,4.395482 -3.9319,5.102748 -3.9569,0.92293 -8.3318,-1.168745 -9.6348,-3.114525 -0.6542,-0.976874 0.6686,-3.439772 1.5471,-3.230805 0.4983,0.103593 2.4154,0.577675 4.2602,1.054357 l 3.354,0.86664 0.5198,-3.032633 c 0.417,-6.066764 3.4627,-12.988131 7.5074,-17.061077 3.0302,-3.213286 2.899,-3.948612 5.507,-0.455319 2.1682,2.90423 2.1716,2.904908 6.4514,1.409954 l 4.2822,-1.495745 -4.5663,-2.010292 c -8.5388,-3.759086 -8.4224,-3.765077 -13.3453,0.68319 -5.664,5.11795 -7.8551,8.733317 -9.3255,15.38759 -0.8813,3.988145 -1.2913,4.670431 -1.8104,3.012797 -0.5955,-1.901585 -0.6941,-1.930521 -0.8746,-0.256921 -0.4212,3.903738 -2.0778,0.326774 -2.3828,-5.144484 -0.3711,-6.659529 1.3662,-11.667952 5.3452,-15.410394 1.5159,-1.425722 2.7706,-2.80318 2.7883,-3.060948 0.1078,-1.568085 -15.1733,-0.13852 -16.3711,1.531548 -0.2891,0.402957 1.2961,4.963238 3.5226,10.13403 2.2264,5.17068 3.9704,10.531845 3.8755,11.913767 -0.3775,5.490897 -8.3546,9.641751 -13.1768,6.856345 -2.1122,-1.220089 -4.8031,1.966436 -11.1414,13.193961 -3.9491,6.995204 -6.3516,9.852356 -12.2199,14.531349 -5.6257,4.485765 -7.5005,6.663739 -8.1578,9.477176 -1.1742,5.0264232 -0.367,8.4985226 2.7824,11.96708978 6.4391,7.09159182 17.6256,8.94282052 27.5561,4.56008342 13.1012,-5.7819249 28.9658,-18.6274662 34.1052,-27.6147362 2.6623,-4.655482 3.8595,-13.869945 2.0691,-15.924631 -0.5958,-0.683896 -0.7353,-1.728561 -0.31,-2.321609 0.5136,-0.716054 2.3792,-0.120774 5.5546,1.772559 3.8293,2.28315 5.256,3.9999 7.1658,8.622094 3.4076,8.24731 3.9319,12.267075 3.9875,30.5643762 0.073,23.9303078 1.5952,31.1536938 7.4391,35.2924528 4.7805,3.38563 5.7397,3.671317 3.5916,-1.01084 z m -6.9265,-6.163463 c -1.9552,-4.515633 -0.5725,-15.221179 3.3545,-25.97055269 2.2518,-6.16425371 2.7838,-9.21307871 2.6887,-15.41013931 -0.2674,-17.41998 -6.7264,-27.085778 -19.9488,-29.853211 -5.1996,-1.088352 -5.2209,-1.10898 -2.1892,-2.126489 5.8695,-1.969883 16.3299,3.69983 20.784,11.265277 2.7279,4.633357 4.4232,12.585965 4.5403,21.298512 0.082,6.1380591 -0.575,9.3512883 -3.9639,19.3648556 -4.3579,12.8771054 -4.994,16.6022254 -3.6121,21.1546514 1.2747,4.199626 0.1282,4.391808 -1.6535,0.277096 z m -75.6223,-30.3730703 c -0.651,-1.2354335 1.6356,-5.1150677 2.9612,-5.0239644 1.4449,0.099298 2.0745,1.8697376 1.276,3.5879284 -0.8898,1.9145828 -3.516,2.804677 -4.2372,1.436036 z m -7.0823,-1.1628673 c -0.357,-0.4096542 -0.5667,-1.7238423 -0.4661,-2.9204213 0.18,-2.1375651 0.8752,-2.7526831 2.2458,-0.6552997 0.7675,1.1740292 0.7017,3.1296424 0.6697,3.5947385 -0.5098,1.1521294 -2.0063,0.4597553 -2.4494,-0.018933 z m 22.9176,-20.0165374 c -1.5675,-1.799037 -1.1591,-5.798174 0.6489,-6.353017 3.233,-0.992246 4.866,4.520495 1.9591,6.613752 -1.0683,0.769235 -1.7717,0.698986 -2.608,-0.260735 z m 7.1903,0.252794 c -1.6949,-2.35354 -0.023,-7.122364 2.2828,-6.511712 1.257,0.332906 1.6977,1.497073 1.5239,4.025784 -0.2717,3.952285 -1.9578,5.053409 -3.8067,2.485928 z m -15.7107,-22.461944 c 1.1271,-0.517882 3.8847,-2.625268 6.128,-4.683118 4.1681,-3.182852 4.0945,-3.697258 2.4528,-8.31722 -2.35,-6.613215 -6.7731,-6.235916 -12.091,1.031299 -4.0555,5.542157 -3.6901,5.754401 2.177,1.264934 2.8297,-2.165343 5.7566,-3.89495 6.5042,-3.843549 2.2432,0.154204 2.6606,2.245624 0.5716,2.864217 -5.1255,1.517814 -15.4336,10.940199 -14.3073,13.077821 0.4797,0.910355 5.2332,0.136542 8.5647,-1.394384 z m 21.5667,-8.69418 c 1.244,-1.651474 1.2771,-2.352495 0.191,-4.049435 -1.2563,-1.963187 -1.4368,-1.929956 -4.1558,0.764601 -1.5634,1.549378 -2.8999,3.435223 -2.9701,4.190866 -0.1968,2.117813 5.1869,1.41439 6.9348,-0.906032 z m -17.586,-11.253465 c 0.8233,0.0178 2.6704,0.179974 6e-4,-1.104035 -3.6481,-1.754615 -7.0548,-0.779436 -9.1127,2.608398 -3.3101,5.449189 -2.2719,6.512532 2.2833,2.33879 2.6071,-2.388778 4.3928,-3.482385 5.9011,-3.705764 z m 14.4656,1.790022 c 0.038,-0.687175 -0.286,-1.906642 -0.7209,-2.709759 -1.1157,-2.06028 -6.1898,5.101504 -5.4029,7.625778 0.5044,1.618074 0.9217,1.503884 3.3155,-0.907699 1.5062,-1.517305 2.7699,-3.321032 2.8083,-4.00832 z m 15.2568,-4.406954 c 1.0382,-1.661675 3.436,-4.30305 5.3282,-5.869637 3.6335,-3.008219 4.4164,-4.483138 2.2192,-4.180637 -3.1853,0.43859 -5.0963,1.693691 -7.7992,5.122358 -2.8312,3.591432 -3.7232,6.764846 -3.6712,13.060895 0.024,2.852715 0.1216,2.759492 1.0307,-0.979503 0.5525,-2.272694 1.854,-5.491773 2.8923,-7.153476 z m -20.4376,1.010755 c 1.7204,-2.344498 2.1135,-3.72139 1.4705,-5.150616 -1.2039,-2.675878 -2.3082,-2.529869 -3.961,0.523364 -1.1553,2.134175 -1.2731,7.729795 -0.1645,7.806007 0.1688,0.01159 1.3635,-1.418855 2.655,-3.178755 z m 43.2603,3.187797 c 1.9615,-1.018385 4.3897,-1.796804 5.396,-1.729776 2.1834,0.14208 2.4692,-1.223763 0.6232,-2.983041 -0.9854,-0.939121 -2.2797,-1.025647 -4.9663,-0.33203 -4.7446,1.224922 -6.6249,2.820615 -5.9426,5.043434 0.6867,2.237627 0.5828,2.237571 4.8898,0 z m -45.5519,-13.576515 c 0.08,-1.655854 -1.985,-5.449952 -3.0042,-5.520003 -1.4321,-0.09845 -1.9954,3.636447 -1.0484,6.950585 0.9511,3.327928 1.187,3.50988 2.5117,1.937161 0.8042,-0.954692 1.4976,-2.470246 1.5409,-3.367743 z m -4.6728,-7.935993 c 0.099,-1.439512 -3.708,-8.702234 -4.2939,-8.191671 -0.8119,0.707521 2.4448,10.247062 3.3376,9.776626 0.4836,-0.25483 0.9139,-0.968058 0.9563,-1.584955 z" transform="translate(17.727129,-24.341673) translate(-3645.2276,129.93442)"/>
</svg>