<?xml version="1.0" ?><svg xmlns="http://www.w3.org/2000/svg" width="271.93341mm" height="196.6306mm" viewBox="0 0 271.93341 196.6306">
    <path d="m 3258.7616,-1806.1997 c 7.0741,-8.0581 3.908,-8.8596 28.692,-10.9966 21.9104,-1.5118 42.9668,-1.8952 63.4875,-9.7274 0,0 -4.4214,-15.5157 8.6879,-23.5294 13.1093,-8.0137 28.0985,-0.7123 30.7698,0.7123 2.6713,1.4247 12.6641,17.096 12.6641,17.096 0,0 16.028,-5.8322 24.8335,-6.4111 8.8055,-0.5787 20.5791,2.0034 20.5791,2.0034 0,0 4.7985,-15.8938 11.2295,-19.9451 6.431,-4.0513 19.3424,-7.6332 28.8405,-0.7326 9.498,6.9006 10.0917,17.3834 9.498,22.8148 -0.5936,5.4316 -4.2544,24.2636 1.4841,33.6129 5.7384,9.3493 13.5545,26.4451 2.8692,36.2842 -10.6853,9.839 -20.3813,11.6644 -26.1197,10.4177 -5.7384,-1.2465 -10.2282,0.4384 -10.2282,0.4384 l 2.1153,11.404 -13.3072,-18.2977 c 0,0 -2.2756,20.9245 -4.5511,27.2018 -2.2756,6.2775 -1.1522,30.5268 -2.9187,35.1266 -1.7666,4.5998 7.1583,11.5017 2.0282,13.267 -5.1301,1.7655 -12.6641,-10.6402 -14.2965,-22.7944 -1.6325,-12.1539 4.4522,-26.089 2.8692,-34.1027 -1.5831,-8.0137 -10.8338,-21.3251 -10.8338,-21.3251 l -7.4204,24.13 c 0,0 -4.9963,11.798 -13.7029,19.767 -8.7065,7.9692 -40.5646,17.096 -57.9777,18.565 -17.4131,1.4692 -64.8045,-0.8903 -79.299,-23.9964 -14.4944,-23.106 -25.8228,-54.5822 -9.9927,-80.9826 z" fill="#c0c0c8" transform="translate(244.1955,178.8577) translate(-3483.689,1684.9975)"/>
    <path d="m 3455.3996,-1784.5339 c -0.9049,-0.022 -1.6634,0.1452 -2.1105,0.4925 -3.4393,5.0411 -2.8892,14.969 0.5499,19.9073 3.4393,4.9383 14.72,20.0618 14.72,20.0618 0,0 -4.3682,-29.9898 -5.5377,-34.9281 -0.8769,-3.7037 -4.9069,-5.4684 -7.6217,-5.5335 z m -35.4289,6.4781 c -1.2132,0.019 -2.4395,0.4942 -3.4809,1.3188 0,0 -3.2672,7.7675 -2.992,16.1009 0.2752,8.3333 7.8072,19.8561 7.8072,19.8561 0,0 4.5735,-19.033 4.4359,-28.2923 -0.096,-6.5105 -2.8967,-9.028 -5.7702,-8.9835 z" fill="#fff" paint-order="fill markers stroke" transform="translate(244.1955,178.8577) translate(-3483.689,1684.9975)"/>
    <path d="m 3365.2733,-1668.6711 c -0.835,-1.2851 -0.9128,-2.4829 -0.6976,-10.7347 0.4043,-15.5019 0.3323,-22.0178 -0.2422,-21.9273 -0.2916,0.046 -3.9163,0.704 -8.0549,1.4631 -4.1386,0.7591 -10.1023,1.5864 -13.2527,1.8391 -9.1269,0.7324 -27.7954,-0.3029 -33.078,-1.8343 -0.742,-0.2154 -0.8838,0.8858 -1.164,9.0416 -0.3731,10.8561 -0.7658,12.2015 -3.562,12.2015 -1.6434,0 -1.9109,-0.2037 -2.438,-1.8555 -0.7195,-5.0321 0.2433,-10.05 0.4072,-15.085 l 0.1802,-5.8084 -5.301,-1.9484 c -2.9155,-1.0718 -5.7576,-2.1365 -6.3156,-2.3659 -0.9855,-0.4056 -1.0045,-0.128 -0.6635,9.6785 0.4,11.4996 -0.064,24.2139 -0.9227,25.2944 -1.1678,1.4698 -2.8714,1.5092 -4.2818,0.099 -2.1207,-1.4404 -1.3369,-12.5119 -1.338,-16.8637 0,-8.5413 -0.1539,-17.1191 -0.3374,-19.0612 l -0.3336,-3.5316 -4.5661,-3.0522 c -4.9489,-3.3084 -13.7888,-11.8909 -18.1542,-17.6263 -3.0708,-4.0347 -8.7944,-15.4702 -10.5848,-21.1484 -0.6644,-2.1072 -1.2909,-3.7484 -1.3923,-3.647 -0.3445,0.3447 -1.7268,21.2375 -1.731,26.1643 0,4.83 0.015,4.9036 1.2739,4.9036 2.9855,0 8.4597,9.7575 7.5369,13.4342 -0.6927,2.7601 -4.5742,1.9087 -4.5742,-1.0031 0,-1.5099 -2.106,-8.3814 -2.4602,-8.0274 -0.146,0.1463 0.2089,1.8989 0.7886,3.8946 1.6208,5.5804 1.8423,7.7039 0.9312,8.93 -1.3652,1.8373 -2.602,0.4355 -3.4352,-3.8939 -0.4015,-2.0859 -0.9192,-3.7925 -1.1506,-3.7925 -0.2313,0 -0.5836,1.6102 -0.783,3.5782 -0.4491,4.4347 -1.3276,5.9637 -3.4262,5.9637 -1.7971,0 -2.657,-1.2007 -2.657,-3.7097 0,-1.986 2.4296,-13.9547 3.0965,-15.2548 0.2581,-0.503 0.6145,-4.3733 0.7921,-8.6011 0.4039,-9.6147 1.6509,-21.4929 2.8231,-26.8891 0.6606,-3.0419 0.8586,-6.1359 0.7553,-11.8086 -0.2429,-13.349 1.5871,-20.8505 7.46,-30.5784 4.0244,-6.6662 6.4583,-9.565 9.8698,-11.7541 5.5831,-3.5825 10.9402,-4.6361 28.7438,-5.6521 20.5074,-0.4085 36.7453,-3.7901 48.09,-6.0748 2.5343,-1.7634 5.2794,-0.8374 4.0711,1.6936 -1.047,2.1931 -5.3897,3.2136 -9.7527,4.6366 -6.1466,2.0042 -24.4603,4.4817 -39.4928,5.3427 -15.0554,0.8623 -21.5566,1.787 -25.4029,3.6139 -4.1956,1.9926 -6.1331,3.9953 -9.6543,9.978 -5.8951,10.0166 -7.0862,14.456 -7.0862,26.4091 0,8.2347 0.6499,12.5775 2.9543,19.7411 2.123,6.5998 7.25,16.5473 10.7638,20.8836 5.3716,6.6296 15.3457,15.7485 16.4672,15.0556 0.2251,-0.1392 0.5426,-1.5455 0.7056,-3.1248 0.4875,-4.7236 2.4211,-7.3964 3.9851,-5.5086 0.6143,0.7414 1.7012,7.8158 1.7012,11.0726 v 2.1161 l 4.3817,2.0534 c 9.8366,4.6096 20.7718,6.8527 35.3762,7.2568 10.8757,0.3011 15.616,-0.121 28.4246,-2.5287 l 5.8951,-1.108 0.3101,-2.6184 c 0.372,-3.1406 0.6445,-3.6539 1.9403,-3.6539 1.0556,0 3.1878,2.3316 3.1878,3.4862 0,1.3229 0.9562,1.2515 7.2194,-0.54 17.8888,-5.116 26.3987,-10.0664 31.4782,-18.3113 2.4662,-4.0029 4.389,-6.3693 5.1757,-6.3693 1.4658,0 2.5082,1.6147 2.4543,3.801 -0.092,3.7446 -2.0862,7.1607 -7.0653,12.1055 -4.7555,4.7223 -8.9908,7.5218 -15.0488,9.9465 l -3.6169,1.4475 0.2997,2.1204 c 0.3467,2.4524 -2.6022,23.1677 -3.5843,25.1804 -0.4477,0.917 -1.1564,1.375 -2.3021,1.4872 -2.1514,0.2111 -3.3476,-1.4261 -3.3476,-4.5813 0,-2.4786 2.2747,-16.5957 3.1739,-19.6972 0.2952,-1.0186 0.5368,-1.9401 0.5368,-2.0481 0,-0.3207 -2.5857,0.2363 -8.3491,1.7986 l -5.4336,1.4732 v 7.4796 c 0,9.7133 -0.9261,24.0186 -1.6769,25.9027 -0.5654,1.4194 -1.8813,2.4979 -3.047,2.4979 -0.6777,-0.3712 -1.1466,-0.9234 -1.4924,-1.4462 z m 79.012,-15.0239 c -4.8023,-2.377 -9.079,-8.6516 -11.4291,-16.7679 -1.538,-5.3123 -1.5142,-13.9584 0.071,-25.5328 1.2844,-9.3806 1.3848,-15.5808 0.3466,-21.4035 -0.836,-4.6892 -3.3442,-12.5942 -3.996,-12.5942 -0.2403,0 -0.5937,1.2523 -0.7855,2.7829 -0.6458,5.1538 -4.0798,21.3302 -4.6827,22.0588 -0.9531,1.152 -2.6333,1.5582 -4.1932,1.0145 -2.8191,-0.9824 -6.0593,-10.2765 -7.527,-21.589 -0.4693,-3.6168 -0.9102,-6.6222 -0.9798,-6.6786 -0.07,-0.057 -1.3381,-0.2138 -2.8188,-0.3495 l -2.692,-0.2463 -1.4427,2.7551 c -4.9814,9.5144 -15.3104,12.7217 -25.1505,7.8097 -3.2957,-1.6452 -8.2267,-6.6874 -10.6043,-10.8429 -2.607,-4.5561 -3.2724,-8.0672 -3.2724,-17.2651 0,-4.4749 -0.2694,-9.2554 -0.5986,-10.6233 -0.7089,-2.9462 -3.281,-8.4204 -8.3921,-17.861 -3.8797,-7.166 -7.9726,-18.275 -7.9726,-21.6395 0,-11.3321 8.7216,-21.8916 20.0276,-24.2477 6.8898,-1.4356 17.674,-0.504 24.3784,3.4253 4.2832,2.5098 10.4654,9.8499 10.1246,13.376 0.064,3.4973 -2.6599,2.4942 -3.4204,1.1528 -5.0298,-8.5823 -13.612,-13.9769 -23.5768,-14.2102 -9.0879,0 -16.7786,4.3375 -20.4147,11.5136 -1.3564,2.6773 -1.5521,3.6338 -1.5482,7.5702 0.01,5.5084 1.4953,9.5816 7.1743,19.6138 5.0961,9.0028 8.7575,16.6894 9.4689,19.879 0.325,1.4578 0.6484,7.0636 0.7184,12.4576 0.1161,8.9369 0.2347,10.0396 1.3369,12.4304 2.1666,4.699 5.2006,8.0709 8.9015,9.8925 2.9913,1.4727 3.7614,1.6312 7.0261,1.4468 4.2746,-0.2413 6.5694,-1.5449 10.1081,-5.7418 l 2.1721,-2.5759 -3.6779,-2.4451 c -6.666,-4.4315 -12.4165,-11.6575 -15.3111,-19.2402 -1.1945,-3.129 -1.3676,-4.3987 -1.3904,-10.2002 -0.042,-10.7797 2.2849,-17.6625 8.9958,-26.6044 7.6524,-10.196 14.7458,-14.7238 26.8268,-17.1244 10.5181,-2.0902 23.2224,-0.7604 30.0842,1.3701 1.3932,0.4326 1.7496,0.026 2.0017,-1.1116 2.4382,-8.7825 7.8506,-16.7063 15.1406,-20.4644 6.7005,-3.3745 12.2924,-4.1347 18.9207,-2.5723 13.8202,3.2578 21.792,16.6267 19.7432,33.1105 -1.9251,15.4892 -1.3527,20.1004 3.9329,31.6791 4.8914,10.7153 5.5313,12.9331 5.5178,19.1259 -0.024,11.0752 -5.0634,18.9124 -15.4916,24.0927 -4.1567,2.0648 -5.6997,2.5331 -10.0999,3.0663 -2.8565,0.3458 -6.281,0.4797 -7.6099,0.2976 -3.0034,-0.4119 -6.4314,-2.286 -6.8467,-3.7436 -0.9287,-3.2604 -1.7823,-2.9154 7.2244,-2.9194 9.147,0 13.2434,-1.1506 18.9358,-5.3012 4.3427,-3.1668 8.0679,-10.7574 8.0679,-16.4391 0,-4.1547 -1.0334,-7.7171 -4.7466,-16.3621 -1.7645,-4.1076 -3.597,-9.091 -4.0721,-11.0733 -0.9992,-4.1682 -1.1969,-13.3006 -0.5199,-24.0133 0.7775,-8.9932 -1.1647,-16.2055 -7.0973,-21.9586 -4.0186,-3.8333 -8.5363,-5.3176 -15.1281,-4.9718 -11.3012,0.5435 -18.8235,10.6323 -22.2451,17.8607 -1.5524,3.3139 -1.5641,3.4002 -0.5365,3.9759 2.9121,2.1495 5.3396,4.7178 8.1198,7.0686 3.3578,2.8292 8.8316,10.0415 10.7719,14.1936 4.6235,9.8936 5.218,23.2968 1.3753,31.011 -1.4902,2.9914 -1.9921,3.5357 -3.8089,4.131 -1.1508,0.3767 -2.1737,0.7665 -2.273,0.8659 -0.099,0.099 0.3013,1.6106 0.8901,3.3584 1.6397,4.8675 3.5909,15.3966 4.5567,24.5885 0.7872,7.492 0.7923,8.4466 0.054,9.8751 -0.9627,1.8618 -2.0061,2.3643 -3.9471,1.9015 -2.1836,-0.5207 -2.5248,-0.9414 -7.3344,-9.04 -2.4773,-4.1719 -4.5445,-7.5843 -4.5938,-7.5837 -0.049,0 -0.1065,2.8032 -0.1271,6.2282 -0.029,4.7742 -0.4411,8.2701 -1.7662,14.9749 -1.9233,9.7311 -3.2219,21.5101 -3.2143,29.1555 0,4.9803 1.1529,11.6401 2.8865,16.746 0.6918,2.0381 0.7226,2.7279 0.1769,3.9603 -1.2257,2.7694 -4.9213,3.4126 -8.7415,1.5216 z m 1.3353,-10.4327 c -2.9931,-11.7192 -1.5643,-27.3532 4.6534,-50.9212 1.6229,-6.1513 1.8463,-7.7465 1.7447,-12.4574 -0.1114,-5.1596 -0.2134,-5.5936 -2.2677,-9.6435 -1.886,-3.7182 -2.1461,-4.6657 -2.1107,-7.6864 0.046,-3.9254 1.5963,-8.1611 3.7159,-10.1521 1.0006,-0.9403 1.9313,-1.2449 3.8004,-1.2441 2.5119,0 4.2329,0.8843 7.6258,3.9132 l 1.4398,1.2854 0.5875,-1.5397 c 1.8868,-4.9442 2.7502,-10.6129 2.4548,-16.1176 -0.6056,-11.2839 -3.656,-18.4957 -12.2553,-28.9734 -5.1669,-7.3536 -7.9257,-7.9582 -14.814,-8.6636 -7.4882,-0.7424 -17.5982,0.098 -25.0843,2.085 -8.1272,1.697 -14.2249,6.4489 -18.9557,12.328 -6.994,8.845 -9.5347,16.0673 -9.1955,26.1395 0.1835,5.4517 0.3246,6.0957 2.1676,9.893 2.3729,4.889 8.5109,11.6967 12.5064,13.8716 2.3613,1.2848 8.129,3.5361 9.0608,3.5361 0.1876,0 0.6266,-1.3824 0.9756,-3.0723 0.7922,-3.8354 2.7833,-6.9615 5.6132,-8.8133 2.661,-1.7415 4.3076,-1.551 7.3381,0.8491 2.7104,2.1465 3.6336,4.3831 3.9967,9.6811 0.2803,4.0894 0.3649,4.3098 2.5551,6.6513 4.139,4.4249 6.5726,11.0313 7.6944,20.8881 0.5323,4.6754 0.4664,6.5926 -0.5175,15.0693 -1.9782,17.0445 -1.4517,23.4053 2.5966,31.3712 1.4456,2.8442 4.9918,7.421 5.75,7.421 0.2086,0 -0.2756,-2.5644 -1.0761,-5.6983 z m -13.9259,-105.9265 c -1.2021,-1.202 -1.0789,-5.3838 0.2213,-7.516 2.0117,-3.2994 3.7166,-1.5381 3.7166,3.8399 0,2.8768 -0.8636,4.5093 -2.3855,4.5093 -0.3957,0 -1.0943,-0.375 -1.5524,-0.8332 z m 9.3652,-2.9633 c -0.8944,-0.8946 -0.8289,-4.2506 0.1077,-5.5116 0.6095,-0.8205 0.9582,-0.9112 1.7229,-0.4469 1.2543,0.7615 2.1534,4.2299 1.4058,5.4229 -0.7003,1.1176 -2.377,1.3949 -3.2364,0.5356 z m 24.989,48.8553 c -1.7131,-12.8212 -2.4317,-17.4136 -3.235,-20.674 -2.4915,-10.1124 -9.2039,-11.2165 -10.0708,-1.6563 -0.2676,2.9511 -0.1709,3.2321 3.5867,10.4288 3.7828,7.2443 10.0414,17.9305 10.3214,17.6231 0.078,-0.086 -0.1932,-2.6601 -0.6023,-5.7216 z m -44.5148,-0.4911 c 0.8496,-5.0189 1.136,-15.4189 0.5108,-18.5454 -0.1844,-0.9211 -0.8215,-1.9355 -1.4159,-2.2535 -1.4211,-0.7604 -2.3138,0.422 -2.8204,3.7357 -0.643,4.2047 1.4754,23.5463 2.4642,22.4999 0.2285,-0.2419 0.796,-2.6882 1.2613,-5.4367 z" fill="#030303" transform="translate(244.1955,178.8577) translate(-3483.689,1684.9975)"/>
</svg>