<?xml version="1.0" ?><svg xmlns="http://www.w3.org/2000/svg" width="105.00059mm" height="111.38965mm" viewBox="0 0 105.00059 111.38965">
    <path fill="#2c9043" d="m 6661.5671,-4410.9949 c -2.3453,-3.5959 -2.0325,-12.1954 2.0328,-15.4789 4.0651,-3.2835 20.0131,-6.8797 26.8928,-0.1564 6.8797,6.7231 -0.6255,20.4825 -2.0326,22.2023 -1.4073,1.7198 -1.5636,17.8244 1.0944,20.4824 2.658,2.658 -14.6971,4.3778 -15.3226,3.7523 -0.6255,-0.6254 4.2214,-19.5442 3.1271,-20.3258 -1.0946,-0.7818 -3.2835,-5.7851 -7.6615,-7.8179 -4.3778,-2.0325 -8.1304,-2.658 -8.1304,-2.658 z" transform="translate(-1091.1414,-5040.0481) translate(-5552.4685,9473.4708)"/>
    <path fill="#f2c349" d="m 6662.3489,-4408.1805 c -3.1271,2.8144 -9.3813,3.4398 -13.29,4.6908 -3.9089,1.2507 -0.7818,6.8794 1.5634,9.0683 2.3453,2.1892 9.3814,3.5962 14.0719,0.6255 4.6908,-2.9708 9.225,-10.0066 6.2542,-12.1955 -2.9707,-2.1891 -8.5995,-2.1891 -8.5995,-2.1891 z" transform="translate(-1091.1414,-5040.0481) translate(-5552.4685,9473.4708)"/>
    <path fill="#fff" d="m 6674.0755,-4381.1311 c 3.1272,0.3125 15.9481,-1.8764 15.9481,-1.8764 0,0 3.2834,3.9089 1.8761,6.4106 -1.407,2.5016 -12.039,4.8469 -15.6353,3.1271 -3.5962,-1.7201 -2.1889,-7.6613 -2.1889,-7.6613 z" transform="translate(-1091.1414,-5040.0481) translate(-5552.4685,9473.4708)"/>
    <path fill="#c0a88c" d="m 6699.2484,-4379.8804 c 5.1599,0.3127 16.1045,-1.0943 23.1406,-4.8469 7.0358,-3.7526 14.5407,-10.1629 18.606,-8.1304 4.0651,2.0325 5.7851,23.922 0.6255,31.7397 -5.1596,7.8179 -17.8245,15.7919 -34.2416,14.8537 -16.4171,-0.9382 -15.6774,-1.3874 -10.7885,-4.6906 5.7853,-3.9088 4.8694,-9.8734 4.378,-14.5409 -0.9382,-8.9123 -1.72,-14.3846 -1.72,-14.3846 z" transform="translate(-1091.1414,-5040.0481) translate(-5552.4685,9473.4708)"/>
    <path fill="#95744d" d="m 6675.0138,-4369.7172 c 0.4688,3.9086 8.9119,15.948 18.4496,19.0751 9.5375,3.1271 6.254,4.5343 10.0066,-7.5052 1.4453,-4.637 1.7198,-20.1695 -1.7198,-21.4204 -3.4398,-1.251 -4.8469,0 -10.1629,3.4399 -5.3163,3.4398 -18.2936,1.8761 -16.5735,6.4106 z" transform="translate(-1091.1414,-5040.0481) translate(-5552.4685,9473.4708)"/>
    <path fill="#030303" d="m 6710.1343,-4324.3569 c -0.6871,-1.732 1.3256,-5.3914 5.3143,-9.6645 1.0223,-1.0958 1.1836,-2.5658 0.6764,-6.1592 -0.6644,-4.7042 -0.6783,-4.7193 -4.2915,-4.5537 -1.993,0.092 -3.7022,0.2086 -3.7986,0.2601 -0.095,0.051 0.093,2.372 0.419,5.1566 0.7218,6.1762 -0.6583,9.3358 -4.8554,11.1143 -3.5639,1.5103 -11.009,0.6496 -15.7717,-1.8232 -5.4724,-2.8417 -4.2836,-4.3614 5.0752,-6.4896 8.3759,-1.9043 8.5166,-1.9874 8.9552,-5.2707 0.4364,-3.2678 0.3467,-3.3621 -4.3688,-4.6096 -11.8157,-3.1259 -22.2714,-12.4913 -25.431,-22.7796 -2.3008,-7.4899 -0.8413,-19.755 3.2285,-27.1494 0.7131,-1.2933 0.3737,-1.6944 -1.6579,-1.9658 -1.6166,-0.2159 -2.6253,0.1979 -2.7493,1.128 -0.2865,2.144 -8.3043,7.9599 -11.4696,8.3196 -4.1493,0.4713 -10.2405,-2.5563 -13.3633,-6.6423 -5.0237,-6.5711 -1.963,-11.735 6.2993,-10.6315 5.7992,0.7745 7.5709,-0.7163 6.0144,-5.0561 -3.3021,-9.205 3.8462,-18.9824 15.1931,-21.5048 14.311,-3.1814 25.6875,3.8914 22.3058,20.1285 -0.7748,3.721 -1.3889,5.669 -3.8829,8.3364 -2.701,2.8898 -3.2264,4.1293 -3.2029,7.5665 0.055,8.1309 4.271,13.1237 11.8905,14.0814 11.5685,0.4147 18.5983,-3.4415 29.205,-9.7747 2.5791,-1.5391 5.8554,-2.931 7.281,-3.0931 6.1727,-0.7012 10.5227,4.9244 11.3806,14.7169 0.6084,6.9457 -2.2779,16.5496 -6.6787,22.2054 -2.9786,3.8305 -11.3046,9.4412 -17.0924,11.5178 l -3.0253,1.0856 2.4637,3.6978 c 4.5942,6.8952 3.6872,12.4128 -2.8653,17.4209 -4.569,3.4921 -9.9031,3.6978 -11.1974,0.432 z m 10.4615,-26.3523 c 16.8902,-4.1528 19.0026,-14.503 21.3939,-20.1298 3.1705,-10.5582 1.038,-19.1799 -2.9019,-19.7061 -0.8671,-0.1159 -4.39,2.0337 -7.8283,4.7767 -9.3047,6.2158 -20.4874,9.4459 -30.2814,8.1499 -5.6564,-0.7554 -7.0377,2.2273 -7.8396,3.9301 -1.1764,2.4983 -6.8395,4.9897 -10.3015,4.5321 -1.481,-0.1978 -4.8055,-1.1105 -4.1473,2.015 8.9344,17.7044 27.3846,19.8104 41.9061,16.4321 z m -11.5991,-9.0874 c -4.0659,-1.786 -3.6801,-3.1327 0.9352,-3.2669 5.3587,-0.1558 10.9994,-1.8735 13.8908,-4.2303 5.4401,-4.4343 6.8342,0.036 1.5193,4.874 -3.1565,2.8738 -8.4945,4.8555 -11.5519,4.2886 -0.9532,-0.1766 -3.1099,-0.9262 -4.7934,-1.6654 z m -22.5839,-16.9873 c 1.2576,-0.4544 2.4628,-0.9397 2.6772,-1.0784 0.2145,-0.1387 -0.7038,-2.9371 -2.0407,-6.2186 -1.638,-4.0198 -2.2817,-7.3753 -1.9737,-10.284 0.486,-4.5752 -0.059,-5.0621 -4.4996,-4.0197 -2.5618,0.6013 -2.674,0.8775 -3.8091,9.3771 -0.6433,4.8167 -0.9955,9.4903 -0.7824,10.386 0.4643,1.9505 6.9512,3.0937 10.4283,1.8376 z m -22.2864,-19.6179 c 7.1125,-5.8265 4.2256,-6.6159 1.805,-8.359 -1.523,-1.0974 -3.5881,-0.017 -6.3083,1.7138 -1.8968,1.2077 -6.2076,1.696 -7.8487,1.4769 -3.4125,-0.4558 -4.2712,2.5132 0.187,5.5076 3.6933,2.4807 9.1018,2.1703 12.165,-0.3393 z m 15.8172,-7.0684 c 8.032,-1.9818 10.2588,-6.621 11.3389,-10.298 1.8906,-6.4362 -1.9459,-10.6894 -4.632,-13.011 -6.7418,-5.8282 -21.8029,-2.4038 -24.6932,8.5 -0.8374,3.1582 1.2616,7.4313 4.4194,6.6797 2.3848,-0.5677 6.7605,2.2168 7.7867,4.9552 1.095,2.9204 1.8019,4.1557 5.7802,3.1741 z m -12.32,-12.2309 c -1.4721,-0.8352 -1.1167,-3.7085 0.6208,-5.038 1.8836,-1.4399 2.7112,-1.1337 3.641,1.3474 0.6024,1.6075 0.4625,2.4879 -0.5428,3.4161 -1.4229,1.3131 -1.8377,1.3436 -3.7222,0.2741 z m 7.7168,0.2226 c -1.4896,-2.3768 0.4657,-5.6249 2.9642,-4.922 2.7786,0.7818 2.8221,4.6755 0.064,5.7095 -1.5418,0.578 -2.2948,0.3823 -3.028,-0.7875 z" transform="translate(-1091.1414,-5040.0481) translate(-5552.4685,9473.4708)"/>
</svg>