<?xml version="1.0" ?><svg xmlns="http://www.w3.org/2000/svg" width="71.183113mm" height="137.32271mm" viewBox="0 0 71.183113 137.32271">
    <path d="m 3120.9361,-1613.6239 c -1.03,-3.5463 3.9852,-15.5957 7.0303,-17.8525 3.0448,-2.2567 15.4932,-7.4553 20.3292,-2.9418 4.8361,4.5135 7.1197,9.1882 4.3884,14.2658 -2.7315,5.0777 -6.8958,11.6867 -6.6273,13.6614 0.2686,1.9746 5.8659,36.7929 6.0003,41.3064 0.1344,4.5135 -2.5525,25.5092 -4.0299,29.7809 -1.4777,4.2717 -16.7473,18.6584 -21.1355,22.8092 -4.3883,4.1508 -22.4787,6.8911 -25.5238,5.9642 -3.0448,-0.9269 0.8062,-4.0299 5.5079,-5.5612 4.7016,-1.5314 17.7323,-7.4956 19.2995,-17.248 1.5671,-9.7523 -2.8657,-46.5049 -1.388,-53.7587 1.4774,-7.2538 2.6865,-15.5957 2.3283,-18.7793 -0.3583,-3.1836 -6.1794,-11.6464 -6.1794,-11.6464 z" fill="#ceb786" paint-order="fill markers stroke" transform="translate(-135.99574,-68.262532) translate(-2957.1715,1706.2005)"/>
    <path d="m 3121.4472,-1614.0011 c 0.08,-4.8171 0.5887,-8.189 4.041,-11.2238 3.4525,-3.0347 16.752,-2.9122 19.3748,1.0619 2.6225,3.9741 -0.3363,12.448 -8.1078,14.0637 -6.7362,1.4005 -15.1207,-2.7217 -15.308,-3.9018 z" fill="#eae0cb" paint-order="fill markers stroke" transform="translate(-135.99574,-68.262532) translate(-2957.1715,1706.2005)"/>
    <path d="m 3100.3789,-1503.5328 c -5.8893,-0.8797 -7.2906,-3.5231 -7.2083,-5.4853 0.067,-1.6018 4.2831,-4.068 8.5716,-4.7326 9.1021,-1.4105 21.5903,-7.4393 21.8746,-18.1186 -0.041,-2.3016 -1.7414,-40.688 -1.4097,-49.0819 0.1947,-4.6385 1.1514,-11.3528 2.1507,-14.9195 1.4597,-5.2078 1.6118,-6.9111 0.7726,-8.6507 -0.5748,-1.1916 -1.6358,-1.9983 -2.2777,-2.2184 -6.1452,-2.1072 -6.1598,-7.1721 -5.1217,-11.627 0.7734,-3.319 2.8931,-7.4172 2.9086,-9.6065 0.015,-2.1897 -0.4009,-5.0268 0.1759,-6.0045 1.3109,-2.2198 4.5652,-3.1746 6.0989,-1.789 0.8399,0.7588 2.1884,0.5634 4.9131,-0.7127 4.0393,-1.8913 16.7678,-2.6489 20.5857,2.186 1.5128,1.9158 2.6949,2.5731 3.9924,2.2204 4.5872,-1.2464 8.2815,8.0333 1.2993,11.8989 -1.21,0.6698 -1.831,5.7412 -6.8507,9.1372 -1.6029,1.0839 -2.9095,2.8079 -2.9432,3.8827 -0.1047,3.3312 3.1361,10.0434 7.2567,15.0324 5.0812,6.1519 6.9989,12.5273 6.6841,22.2221 -0.1612,4.9153 0.2529,8.7233 1.197,11.0504 1.7612,4.341 1.7303,8.3166 -0.064,8.2413 -0.718,-0.03 -1.5964,0.6182 -1.9524,1.4407 -0.058,0.1338 -1.6824,3.7598 -5.6288,-1.2675 -0.4047,5.8161 -3.9679,15.7236 -5.28,18.0169 -2.0056,3.5059 -2.3628,5.182 -2.2439,10.5298 l 0.1415,6.3601 4.3647,-0.3825 c 5.4523,-0.4777 9.4643,1.1258 9.3547,3.7392 -0.1157,2.7558 -4.2243,3.8408 -11.3347,2.9929 -7.683,-0.9161 -8.5694,-2.0821 -7.4413,-9.7877 0.7457,-5.093 0.6737,-5.5719 -0.6831,-4.5457 -0.8341,0.6307 -2.0673,3.5362 -2.7402,6.4563 -0.6728,2.9202 -1.5551,6.3034 -1.9602,7.5188 -0.7172,2.1495 -0.6164,2.0213 3.2884,2.23 2.9748,0.159 5.9018,0.58 7.1688,1.591 1.709,1.3631 1.8658,3.7606 -0.489,4.5855 -2.8181,0.9871 -13.5752,0.5353 -16.4859,-1.1832 -1.547,-0.9133 -1.7217,-1.6966 -1.1044,-4.9495 0.4035,-2.1255 1.0705,-4.9065 1.4826,-6.18 0.6156,-1.9032 -0.1096,-1.5097 -4.0699,2.2102 -6.4933,6.0988 -17.2352,9.1573 -26.9923,7.7 z m 27.2333,-13.5023 c 1.8682,-1.3166 5.5667,-4.0035 5.5667,-4.0035 0,0 0.5633,-4.1428 0.8449,-6.2141 0.8531,-6.2739 2.4513,-5.51 4.883,-3.7552 2.8729,2.0731 1.1422,3.3272 2.5933,1.5501 4.0317,-4.9373 5.6695,-9.3 6.4518,-17.1863 l 0.8018,-8.0785 -5.8124,-4.2494 c -12.6894,-9.2769 -14.8107,-13.1668 -13.6358,-25.0049 0.7537,-7.5973 2.6111,-13.0191 4.433,-13.2835 4.1056,-0.596 1.5531,5.0455 1.316,9.5507 -0.6179,11.7447 -0.086,14.4325 5.8231,18.7831 5.6999,4.1963 7.004,4.0787 8.66,4.8998 0.3978,-4.3567 -0.3374,-11.3996 -0.4969,-15.2171 -0.1711,-4.0921 -1.3147,-10.1128 -2.7859,-14.6676 -3.475,-10.7596 -3.3265,-14.2934 0.7977,-19.0083 3.2353,-3.6972 3.7534,-5.472 3.671,-12.5745 -0.033,-2.888 -0.5463,-3.7869 -2.9407,-5.1554 -4.154,-2.3739 -11.7558,-1.8962 -16.6326,1.0447 -3.3563,2.0239 -8.4852,10.741 -8.5883,13.1978 0.9373,0.01 1.6437,0.094 2.7228,0.285 4.2758,0.7538 6.2275,1.6558 6.5712,4.5939 0.2372,2.0272 2.552,2.3132 8.4746,-1.0818 2.8647,-1.6419 3.8349,-0.2973 1.5134,2.0976 -2.4627,2.5409 -7.2155,4.2669 -11.279,4.0964 l -3.2665,-0.1371 1.4485,2.7884 c 1.2835,2.4711 1.2813,3.678 -0.019,10.6089 -2.067,11.0132 -2.1473,17.1163 -0.5278,40.2045 1.5174,21.6327 2.1906,25.3766 -2.6951,31.7535 -2.9457,3.8448 -6.139,7.1276 -15.8993,10.405 -4.5459,1.5265 -9.202,2.3902 -2.2661,2.5777 7.6277,-0.141 14.2472,-4.5735 20.2731,-8.8199 z m 0.26,-101.5844 c -2.4745,-1.5526 -0.4162,-7.599 3.8475,-5.1009 1.5529,0.9099 1.0521,2.6181 0.2085,3.8736 -1.3278,1.9768 -2.4263,2.2498 -4.056,1.2273 z m 10.0063,-0.2883 c -0.078,-2.3146 1.0252,-4.0558 3.0772,-3.9697 2.4619,0.1033 2.9933,2.1568 1.3895,4.3937 -1.4716,2.0524 -4.3908,1.8275 -4.4667,-0.424 z m 18.6323,45.3221 c -0.2677,-0.76 -0.4991,-0.5473 -0.5898,0.5425 -0.081,0.986 0.116,1.5488 0.4406,1.2506 0.3243,-0.2983 0.3914,-1.1052 0.1503,-1.7931 z" transform="translate(-135.99574,-68.262532) translate(-2957.1715,1706.2005)"/>
</svg>