<?xml version="1.0" ?><svg xmlns="http://www.w3.org/2000/svg" width="163.85042mm" height="168.04199mm" viewBox="0 0 163.85042 168.04199">
    <path d="m 6523.8561,-1360.8702 c -6.7592,0.8196 -14.1133,10.1109 -8.1831,-5.3158 5.9303,-15.4267 5.1924,-16.5059 8.5347,-20.8617 3.3424,-4.3558 10.6378,-12.0976 10.6378,-12.0976 0,0 -2.2479,-20.9594 -1.4833,-26.4705 0.7647,-5.5111 3.5247,-6.1821 5.1598,-2.2321 1.6353,3.95 10.2746,28.2896 10.2746,28.2896 l 4.5364,-2.2479 c 0,0 7.6332,-19.1616 11.2612,-24.8409 3.6279,-5.6792 10.0904,-9.8156 11.6567,-7.7991 1.5662,2.0165 -3.0641,24.961 -3.6356,27.6081 -0.5712,2.6471 -2.2852,16.9818 -2.2852,16.9818 0,0 14.9301,24.1606 22.1572,25.6737 7.2273,1.5133 16.9803,4.7156 25.5927,3.7621 8.6122,-0.9536 30.7865,-4.6961 39.5191,0.5172 8.733,5.2133 13.8923,22.0777 8.8122,29.9727 -5.0804,7.8949 -23.4587,16.1339 -32.153,17.678 -8.6943,1.544 -36.9599,-1.8853 -46.1513,-5.0426 -9.1913,-3.1573 -23.7424,-22.2777 -25.7504,-24.5939 -2.0083,-2.3163 -10.8058,-14.006 -10.8058,-14.006 0,0 -5.5827,12.8527 -8.5575,8.5502 -3.5924,-5.1958 -11.5363,-13.1419 -19.1372,-13.5253 z" fill="#a7a8ac" paint-order="markers stroke fill" transform="translate(231.68365,52.559112) translate(-6742.0599,1384.7264)"/>
    <path d="m 6520.7416,-1342.1895 c -5.6341,-3.9282 -9.1631,-9.9459 -7.7081,-13.9577 1.4549,-4.0118 6.2531,-5.3212 10.6799,-4.569 4.4267,0.7522 10.6799,0.3343 13.0635,3.4546 2.3836,3.1203 7.0893,10.1688 5.5724,12.704 -1.5169,2.5353 -10.8969,10.7539 -21.6077,2.3681 z" fill="#fff" paint-order="markers stroke fill" transform="translate(231.68365,52.559112) translate(-6742.0599,1384.7264)"/>
    <path d="m 6644.6922,-1280.0451 c 0.7214,-6.3134 1.9892,-30.9411 1.6116,-31.304 -0.097,-0.093 -2.1099,0.4384 -4.4729,1.1818 -3.8043,1.1964 -4.2311,1.5506 -3.724,3.0909 0.3149,0.9572 1.0509,6.6827 1.6358,12.7234 1.1474,11.8581 0.6567,15.4743 -2.1071,15.5284 -2.9432,0.058 -3.4744,-1.577 -3.6717,-11.299 -0.1012,-5.1759 -0.4485,-11.2397 -0.7607,-13.4753 l -0.5695,-4.0645 -10.3009,0.1114 c -8.2282,0.09 -11.8666,-0.2715 -18.0819,-1.7948 -4.2794,-1.0491 -7.8864,-1.8091 -8.0156,-1.6891 -0.1293,0.1204 -0.3906,8.3265 -0.023,18.4621 0.77,21.2328 -0.2345,22.3856 -2.791,23.0807 -5.0391,1.3697 -3.8423,-2.6166 -4.5281,-19.002 -0.3083,-7.3633 0.012,-15.323 0.08,-18.6419 l 0.1235,-6.034 -3.2863,-1.3248 -3.2863,-1.325 0.5843,16.4627 c 0.5105,14.4125 0.4615,18.7487 -0.6872,19.944 -1.5086,1.5691 -1.9523,1.6439 -3.6565,0.6155 -1.6152,-0.9747 -2.4118,-12.3991 -2.189,-28.585 l 0.1685,-12.2299 -3.3463,-3.195 c -4.5679,-4.3617 -14.0606,-17.5775 -17.1812,-23.9195 -2.7523,-7.6593 -4.1908,-3.5164 -8.733,1.1969 -3.3939,3.522 -7.4409,7.1083 -8.9933,7.9694 -4.2756,2.3716 -11.4928,2.2663 -17.2096,-0.251 -14.6752,-6.4622 -14.5312,-24.529 0.39,-48.8404 1.9357,-3.1544 4.9079,-6.7648 6.6046,-8.0237 2.7853,-2.0659 3.0608,-2.6058 2.8322,-5.5501 -0.139,-1.7939 -0.7046,-4.5366 -1.2569,-6.0947 -0.5518,-1.5583 -1.0569,-5.917 -1.122,-9.6859 -0.1844,-10.7592 1.9345,-19.6107 4.9964,-20.855 2.0576,-0.8362 4.471,0.856 4.5161,3.1665 0.022,1.142 1.5501,4.9796 3.3951,8.5283 1.8449,3.5486 4.064,9.3437 4.9312,12.8778 0.9472,3.8599 1.9866,6.4176 2.6029,6.4056 0.5642,-0.011 1.2733,0 1.5752,0.013 0.3024,0.017 1.1198,-1.9238 1.8166,-4.3149 2.6905,-9.2339 7.058,-15.8879 14.7743,-22.5104 8.1142,-6.964 12.3779,-5.9937 12.5509,2.8561 0.093,4.7702 -3.0352,22.4992 -5.1591,29.2361 -0.8313,2.6373 -1.5049,5.1447 -1.4965,5.5722 0.01,0.4277 1.3098,1.1769 2.892,1.6649 3.705,1.1428 5.367,3.8013 3.3411,5.3443 -1.3209,1.0061 -1.2632,1.1436 0.7845,1.8769 1.2157,0.4351 3.1246,1.0016 4.2423,1.259 2.9297,0.6747 4.1705,3.2297 2.5005,5.1489 -1.5172,1.744 -1.1123,2.1383 4.1422,4.0349 2.2671,0.8182 3.303,1.6818 3.3458,2.7884 0.099,2.5891 1.1973,3.6165 3.809,3.5655 3.4361,-0.067 5.3151,1.0937 6.3679,3.934 0.8233,2.2206 1.2276,2.4345 4.4107,2.3323 1.9274,-0.064 6.4314,-0.5012 10.0086,-0.9765 22.1734,-2.9452 26.1243,-3.1773 30.6684,-1.8008 6.9642,2.1099 13.7324,5.8617 16.8107,9.319 5.2349,5.8794 7.818,16.2561 5.7047,22.9158 -0.6959,2.1928 0,12.7141 1.8082,27.2417 0.6309,5.075 -0.6058,10.5666 -4.044,17.9588 -1.5061,3.2381 -2.5676,4.5334 -3.7338,4.5562 -1.3222,0.026 -1.7271,-0.6581 -2.1462,-3.6262 -0.2839,-2.0119 -0.9736,-4.4502 -1.5323,-5.4184 -1.258,-2.1798 -1.4572,-9.1196 -0.3498,-12.2205 0.4532,-1.2708 1.5322,-3.0968 2.3973,-4.0575 1.2138,-1.3479 1.6563,-3.3786 1.9369,-8.8905 l 0.3642,-7.1438 -3.9411,2.971 c -2.1678,1.6341 -5.091,4.0245 -6.496,5.3117 l -2.5549,2.3406 -0.6227,13.4615 c -1.1091,23.9813 -2.5247,31.0238 -6.2502,31.0966 -3.9946,-0.7738 -2.8665,-5.8252 -2.4033,-10.0009 z m -3.9174,-37.2931 6.0728,-2.0813 0.4345,-6.8313 c 0.6193,-9.7389 3.8264,-12.5292 5.0557,-4.3984 1.0755,7.1158 1.3011,7.248 5.6201,3.2939 4.3501,-3.9828 7.6941,-10.2003 7.6053,-14.1408 -0.097,-3.81 -3.6485,-10.6065 -6.6263,-12.6403 -1.3936,-0.9518 -4.6785,-2.635 -7.2997,-3.7399 -4.6178,-1.9468 -5.0814,-1.9834 -14.9383,-1.1736 -5.5949,0.4595 -16.4051,0.9874 -24.0228,1.1731 -7.561,0.9858 -13.3338,0.5731 -20.0188,-2.4718 -6.6935,-3.0487 -10.6219,-6.5961 -19.7968,-17.8756 -2.8717,-3.5306 -6.4127,-7.4191 -7.8689,-8.6416 -3.9475,-3.0988 -2.6046,-2.306 -0.2004,-6.9245 3.1076,-5.9687 4.3611,-10.2007 7.152,-24.1471 3.4586,-17.2818 3.0574,-17.9928 -4.3246,-7.6648 -6.6962,9.3678 -9.2286,15.3411 -10.0078,23.6034 -0.6934,7.355 -1.4919,9.0732 -3.942,8.4834 -0.8841,-0.2137 -3.619,0.4758 -6.0779,1.5302 -4.2673,1.8299 -4.543,1.8536 -6.0728,0.5228 -1.5351,-1.3358 -1.7075,-1.3024 -4.0984,0.7907 -2.7972,2.4485 -3.2804,2.5872 -4.5993,1.319 -1.3274,-1.2767 -2.2431,-0.4369 -6.6359,6.0857 -3.7351,5.5458 -8.634,17.0667 -8.5712,20.1572 0.025,1.2654 0.841,1.4398 6.3437,1.357 5.2389,-0.079 7.0414,0.2658 10.5844,2.0227 4.1166,2.0419 8.5313,6.4293 8.5722,8.5195 0.039,2.0205 1.7097,0.2545 8.5827,-9.075 3.8537,-5.2309 7.3603,-9.5179 7.7924,-9.5263 1.6745,-0.033 1.2579,3.7114 -0.9152,8.2262 -2.7882,4.4306 -1.9469,5.1955 0.8248,9.2227 1.7034,2.4753 5.1822,7.5775 7.7303,11.3383 2.5479,3.761 6.2714,8.6137 8.2744,10.7836 3.8513,4.1729 12.8677,10.2684 14.0554,9.5019 0.3869,-0.2497 0.6748,-1.9908 0.6397,-3.8688 -0.081,-4.132 2.6663,-9.4982 4.1341,-8.0867 0.5191,0.4991 1.118,3.3792 1.3309,6.3999 0.2139,3.0208 0.5628,6.2626 0.7777,7.2043 0.3992,1.7517 0.9022,1.8995 13.9125,4.0886 2.2489,0.3783 8.6697,0.4757 14.2687,0.2166 7.9789,-0.3686 11.4926,-0.9211 16.2523,-2.5526 z m -21.1291,-6.77 c -1.1885,-1.8229 -1.4176,-4.0589 -0.418,-4.0785 0.9957,-0.019 4.2868,3.5364 4.3087,4.6552 0.031,1.5701 -2.7607,1.1564 -3.8907,-0.5767 z m 5.6511,-1.0998 c -1.0183,-0.9792 -1.4093,-3.0698 -0.5774,-3.086 1.3083,-0.026 3.6493,1.7669 3.6696,2.8098 0.028,1.4425 -1.7171,1.5985 -3.0923,0.2753 z m 5.22,-3.0399 c -1.709,-1.816 -1.8326,-3.3841 -0.2702,-3.4146 1.506,-0.029 3.9297,2.3012 3.5752,3.438 -0.4748,1.5231 -1.8593,1.5135 -3.3059,-0.023 z m -53.0074,-13.4542 c -0.9959,-2.4732 -0.026,-4.3087 1.398,-2.6445 1.3515,1.58 1.6305,4.0701 0.5025,4.4896 -0.5539,0.2049 -1.4089,-0.6246 -1.9005,-1.8451 z m 78.2955,-0.6115 c -0.5789,-0.6705 -0.8446,-1.7937 -0.5908,-2.4961 0.6234,-1.7244 3.9761,-0.1008 3.6514,1.7746 -0.3164,1.8222 -1.8069,2.1734 -3.0606,0.7215 z m -83.8206,0.2154 c -1.3538,-1.3017 -1.4324,-6.5742 -0.092,-6.1563 1.3981,0.4357 2.8268,5.3077 1.8532,6.32 -0.4866,0.5061 -1.1266,0.4465 -1.7613,-0.1642 z m 71.518,-1.6623 c -0.5802,-0.6721 -0.8393,-1.4458 -0.5759,-1.7199 0.8179,-0.8505 3.011,0.3522 3.0367,1.6658 0.031,1.596 -1.1077,1.6209 -2.4609,0.048 z m -59.1743,0.3881 c -0.8874,-2.1839 0.014,-3.1974 1.539,-1.7304 1.4083,1.3541 1.2699,2.8715 -0.2647,2.9015 -0.4355,0.01 -1.0092,-0.5184 -1.2743,-1.1711 z m 70.6135,-5.5771 c -1.1618,-0.7805 -1.6178,-1.5785 -1.1691,-2.0454 1.0501,-1.092 5.1023,0.5204 5.132,2.042 0.032,1.6106 -1.5678,1.6121 -3.9628,0 z m -11.1798,-0.9809 c -0.8697,-1.3476 0.8505,-2.6167 2.7748,-2.0469 2.4057,0.712 2.243,2.8349 -0.2209,2.8831 -1.0939,0.021 -2.2431,-0.355 -2.5539,-0.8362 z m -1.1942,-3.8811 c -2.7327,-0.7065 -3.0898,-2.3187 -0.6599,-2.9792 2.3676,-0.6438 5.4458,0.7079 5.479,2.4061 0.024,1.2523 -1.4928,1.4328 -4.8191,0.5731 z m -96.8258,-15.868 c -0.9179,-0.8825 -0.7044,-4.7545 0.3209,-5.8207 2.4318,-2.5288 5.3351,0.4999 4.0148,4.1884 -0.7103,1.9837 -3.0531,2.8658 -4.3357,1.6323 z m -10.6083,-0.6076 c -0.9027,-0.868 -0.6966,-3.9314 0.3367,-5.006 2.344,-2.4376 5.5937,0.6874 3.9876,3.8346 -0.8169,1.6008 -3.2051,2.2478 -4.3243,1.1714 z m 36.6222,-2.4785 c -1.4901,-1.5829 -1.8548,-3.3636 -0.694,-3.3863 0.6881,-0.014 3.4222,3.4735 3.44,4.3872 0.018,0.9255 -1.4298,0.3979 -2.746,-1.0009 z m -6.6143,-1.2909 c -1.5865,-1.5257 -1.7086,-2.7615 -0.2763,-2.7895 1.3627,-0.027 3.0471,1.5935 3.0737,2.9559 0.028,1.4328 -1.2116,1.359 -2.7979,-0.1671 z m 0.3679,-6.3187 c -2.1071,-2.1566 -2.2859,-2.9595 -0.6664,-2.9912 1.5009,-0.029 3.7684,2.1512 3.7977,3.652 0.033,1.6856 -1.0654,1.454 -3.1313,-0.6608 z m -6.7188,-11.187 c -1.447,-1.3915 -1.2967,-4.597 0.5143,-10.9691 2.5409,-8.9383 5.9482,-15.893 7.8048,-15.9293 2.1537,-0.042 2.0665,1.1005 -0.9288,12.1715 -1.4133,5.2236 -2.8046,10.5987 -3.0915,11.9449 -0.7268,3.4082 -2.4729,4.5379 -4.2988,2.782 z m -25.78,46.5173 c 0.8232,-3.013 2.4465,-3.5252 3.2895,-1.0385 0.6228,1.8367 1.9146,1.7313 3.1131,-0.2549 1.2869,-2.1313 -2.0674,-7.2206 -6.4917,-9.8499 -4.3414,-2.5801 -11.3805,-3.5095 -14.2781,-1.8852 -1.3261,0.7434 -1.7132,1.7297 -1.6642,4.2399 0.1143,5.8464 3.1222,9.2212 9.9953,11.2153 3.6629,1.0623 5.2574,0.4211 6.0361,-2.4279 z m -11.6715,-2.5841 c -2.0782,-1.9983 -0.7353,-6.9977 1.6482,-6.1363 1.7572,0.6353 2.6589,4.307 1.4348,5.842 -1.189,1.4911 -1.7798,1.5476 -3.083,0.2943 z m 6.4576,-0.2441 c -0.8766,-1.0151 -0.8809,-1.6656 -0.023,-3.5476 0.5774,-1.2673 1.5945,-2.3149 2.2608,-2.3279 1.7962,-0.035 1.9743,3.0846 0.2988,5.2381 -1.3009,1.6722 -1.5816,1.7428 -2.5363,0.6374 z m 14.4156,-57.4867 c 0.6639,-0.6904 -1.0778,-8.271 -3.5312,-15.3696 -2.039,-4.9308 -1.9506,-8.8872 -2.8599,-1.6019 -0.6791,5.4414 -0.1655,11.8638 1.2207,15.2595 0.6346,1.5549 1.4859,2.2124 2.8291,2.1861 1.0567,-0.021 2.1104,-0.233 2.3413,-0.4741 z" transform="translate(231.68365,52.559112) translate(-6742.0599,1384.7264)"/>
</svg>