<?xml version="1.0" ?><svg xmlns="http://www.w3.org/2000/svg" width="192.78009mm" height="333.17847mm" viewBox="0 0 192.78009 333.17847">
    <path d="m 5743.685,-1294.036 c 8.5462,-5.9366 22.844,-10.2355 33.3074,-9.5044 10.4635,0.7311 14.4929,7.0479 14.4929,7.0479 0,0 15.7926,3.7725 20.4394,13.1892 4.6468,9.4167 6.9539,21.8164 0.1299,15.9382 -6.8239,-5.8781 -22.0316,-8.3346 -24.1763,-7.1941 -2.1447,1.1405 -5.6216,9.2413 -14.0054,10.2648 -8.3837,1.0236 -23.7864,-7.6035 -23.7864,-7.6035 0,0 -8.2213,4.5913 -7.8313,11.5515 0.3899,6.9602 4.2893,25.238 23.2015,35.0056 18.9121,9.7676 35.4521,25.2964 30.1879,43.9251 -5.2642,18.6288 -23.9489,30.9114 -23.9489,30.9114 0,0 -7.5388,22.255 -28.8556,25.1502 -21.3168,2.8952 -50.4649,-1.7839 -60.6684,-7.0186 -10.2034,-5.2348 -18.9446,-10.8205 -18.9446,-10.8205 0,0 -14.9803,-3.6848 -19.692,-7.7205 -4.7118,-4.0357 1.4297,-6.5508 7.9613,-9.212 6.5315,-2.6612 20.6668,-21.2022 42.4711,-25.8228 21.8042,-4.6207 50.2699,4.9423 57.7437,7.896 7.4739,2.9536 12.2832,-0.6434 15.1103,-6.3461 2.827,-5.7026 2.0147,-13.3647 -7.7989,-21.1145 -9.8135,-7.7497 -39.319,-29.9463 -33.3074,-55.4767 6.0116,-25.5304 17.9698,-33.0462 17.9698,-33.0462 z" fill="#ffb5c2" transform="translate(-112.51671,-81.330235) translate(-5519.3436,1388.2993)"/>
    <path d="m 5784.9769,-1276.5616 c 0.8159,-12.2056 6.977,-17.8202 8.6497,-18.0643 1.673,-0.2441 10.6085,1.5868 15.7086,8.605 5.1004,7.0182 -7.6705,12.7549 -13.9949,11.5343 -6.324,-1.2206 -10.3634,-2.075 -10.3634,-2.075 z" fill="#fff" paint-order="fill markers stroke" transform="translate(-112.51671,-81.330235) translate(-5519.3436,1388.2993)"/>
    <path d="m 5730.9887,-976.49181 c -5.0778,-1.65954 -10.7904,-4.07431 -12.6947,-5.36618 -1.9043,-1.29185 -4.5734,-2.65275 -5.9312,-3.02422 -1.4922,-0.40822 -2.9226,-2.41697 -3.616,-5.07786 -1.3586,-5.21391 0.9001,-46.46653 2.9334,-53.57583 0.8179,-2.8595 0.9106,-5.6312 0.2336,-6.982 -0.6174,-1.2321 -0.736,-8.8096 -0.2635,-16.8389 0.4725,-8.0294 0.7856,-14.7188 0.6959,-14.8653 -0.09,-0.1465 -5.2798,0.2944 -11.5336,0.9798 -6.2537,0.6854 -15.2251,1.6021 -19.9364,2.0371 -4.7591,0.4394 -9.2006,1.5555 -9.9938,2.5112 -0.7853,0.9462 -3.6551,1.7204 -6.3774,1.7204 -3.9874,0 -5.2185,-0.5901 -6.3325,-3.0351 -0.8095,-1.7767 -0.9298,-3.7706 -0.2902,-4.8089 0.601,-0.9755 8.5191,-8.6859 17.5958,-17.1341 9.0767,-8.4482 18.2008,-18.6315 20.1554,-20.704 l 3.5536,-3.7681 -6.0926,-1.6479 c -9.0167,-2.4389 -21.9771,-6.8749 -22.8073,-9.0384 -0.3989,-1.0395 -2.3932,-2.4714 -4.4319,-3.1821 -2.0386,-0.7107 -3.7066,-1.8132 -3.7066,-2.4501 0,-0.6368 -3.2374,-1.492 -7.1942,-1.9004 -4.2184,-0.4353 -10.5499,-2.3944 -15.3068,-4.7363 -7.2369,-3.5627 -8.0704,-4.3581 -7.722,-7.3692 0.3559,-3.0763 0.846,-3.3564 5.5289,-3.1606 4.1679,0.1742 5.3677,-0.3053 6.3529,-2.539 0.9487,-2.1508 2.2371,-2.7237 5.8848,-2.6165 4.0908,0.1203 6.8106,0.3194 13.8868,-6.585 8.9416,-8.7245 20.6809,-15.982 33.713,-19.2836 9.8528,-2.4961 23.8512,-2.4401 32.509,0.1301 8.2935,2.4621 17.3531,6.2089 23.3856,9.8378 2.9156,1.7539 7.2695,-0.1257 9.9368,-5.2838 3.429,-6.631 0.2541,-17.5843 -12.4152,-27.5408 -16.3437,-12.844 -21.4335,-19.5105 -25.6913,-35.8555 -4.1458,-15.9156 0.5964,-30.8593 10.1899,-41.5296 7.5035,-8.3457 16.1133,-12.9573 25.9877,-16.086 10.6345,-3.3696 24.0327,-1.401 28.5319,2.8258 3.0389,2.1181 3.6027,4.2214 8.2959,5.3047 6.2334,0 11.7114,3.0218 17.8451,9.8439 6.4117,7.1314 8.7729,13.3127 8.7729,22.9664 0,16.9495 -10.7544,24.7648 -13.8993,10.1007 -1.6187,-7.5477 -5.2142,-13.0286 -10.2576,-15.6367 -5.3837,-2.784 -8.2164,-2.3317 -12.8966,2.0592 -4.9604,4.6538 -13.0729,8.6863 -17.5336,8.7155 -5.8478,0.038 -13.0972,-2.7112 -16.7321,-6.3462 -3.9892,-3.8938 -4.7269,-4.8765 -7.2579,0.018 -2.4686,4.7737 -2.2126,11.7079 0.1476,16.7428 3.5615,7.598 11.7416,17.8943 22.8888,23.8715 16.3997,8.7937 23.0829,14.0488 27.7028,23.4332 5.6615,10.5856 3.9781,20.0725 -1.3886,31.3704 -3.2141,6.5768 -13.671,16.3677 -17.8295,17.6876 -1.3885,0.4407 -3.1665,2.796 -3.9866,5.281 -0.8142,2.467 -3.8122,7.0065 -7.7843,10.9978 -5.9783,6.0071 -16.8301,11.8011 -28.7254,13.8462 -4.5222,0.7776 -7.918,1.2012 -8.1126,1.3517 -0.3545,0.2743 -4.6229,26.2887 -4.6229,28.2878 0,0.5845 4.3531,1.0627 9.6736,1.0627 8.3042,0 10.4928,0.4943 15.4595,3.4911 9.3124,5.6188 13.3581,10.4681 15.9487,19.1166 2.2741,7.5917 2.171,11.6679 -0.2949,11.6679 -0.6518,0 -1.9075,-1.8566 -2.7904,-4.1257 l -1.6054,-4.1258 -0.7404,5.0779 c -0.581,3.9847 -1.287,5.0778 -3.2794,5.0778 -1.826,0 -2.6517,-0.9802 -2.9406,-3.491 -0.5798,-5.0394 -3.3963,-4.2898 -4.7696,1.2695 -0.7072,2.8625 -1.9352,4.7605 -3.0802,4.7605 -1.5012,0 -2.0784,-2.5522 -2.7273,-12.06 -0.4528,-6.6329 -1.4287,-13.6055 -2.1688,-15.4946 -1.3013,-3.3218 -1.6064,-3.4156 -9.2748,-2.8506 -4.3611,0.3213 -8.4012,1.0561 -8.9781,1.633 -0.5769,0.5769 -1.2669,7.5722 -1.5334,15.5452 -0.2664,7.973 -1.0921,16.7815 -1.8349,19.5743 -0.7427,2.7928 -1.364,15.5682 -1.3807,28.3897 l -0.03,23.3118 4.1258,-0.69696 c 20.2558,-3.42182 25.0257,-3.82824 28.1614,-2.39949 4.1304,1.88193 4.317,5.34722 0.288,5.34722 -3.897,0 -6.6736,5.40801 -3.941,7.67583 2.086,1.73124 2.465,5.01883 0.5785,5.01883 -0.69,0 -1.1184,1.28533 -0.9521,2.85629 0.426,4.02331 -3.8801,4.14044 -15.2771,0.41557 z m -48.0473,-110.55219 c 4.5405,-1.053 13.1718,-2.4129 19.1806,-3.0219 6.0088,-0.6091 11.1855,-1.3678 11.5037,-1.686 0.6901,-0.6901 8.2985,-28.9306 7.9132,-29.3159 -5.7114,0.06 -9.5211,-1.0684 -14.9413,-2.0799 l -3.9747,5.2094 c -2.1861,2.8652 -9.8254,12.6403 -16.8558,19.7969 -7.0304,7.1566 -12.3998,13.012 -11.9319,13.012 0.4678,0 4.5656,-0.8615 9.1062,-1.9146 z m 56.185,-43.2525 c 4.5442,-1.3438 8.09,-2.8306 11.5527,-4.3202 6.9568,-2.9927 18.9007,-13.986 15.1954,-13.986 -3.628,0 -2.4589,-1.7193 3.8638,-5.6821 20.182,-12.6491 28.5378,-29.0095 22.0598,-43.1923 -3.2743,-7.1687 -9.1866,-12.5176 -22.5947,-20.4419 -6.4022,-3.7837 -14.2036,-9.3707 -17.3366,-12.4156 -16.3478,-15.8882 -18.1946,-34.2522 -4.3822,-43.5741 6.1247,-4.2777 6.0549,-2.6266 9.6153,0.3636 4.9154,5.1659 12.7575,6.7724 19.3664,3.9673 3.9113,-1.6601 4.1071,-1.962 1.8386,-2.8345 -3.6762,-1.4138 -8.2516,-5.8217 -8.2516,-7.9494 0,-1.8242 1.5938,-1.7471 8.5689,0.4148 2.5606,0.7936 2.8563,0.4552 2.8563,-3.2687 0,-2.5181 1.3004,-5.8588 3.3019,-8.483 1.816,-2.3809 2.911,-4.7199 2.4332,-5.1977 -0.4778,-0.4777 -5.4965,-2.8473 -11.5838,-2.8473 -10.2425,0 -14.2333,0.4304 -23.2003,4.8622 -9.7338,4.8107 -14.4414,10.9144 -19.5202,18.9882 -3.3527,5.3299 -4.4328,24.4276 -0.3725,33.35 4.3825,9.6304 7.5713,15.4097 19.4244,24.761 15.062,11.883 22.3545,23.406 19.9195,31.4753 -1.3541,4.4872 -6.6236,9.2766 -12.2491,11.1332 -4.9811,1.6439 -5.8591,1.4934 -19.2967,-3.3085 -12.5216,-4.4746 -15.3413,-5.0257 -25.5033,-4.9847 -13.3073,0.054 -20.4426,2.0839 -35.9795,10.237 -11.9529,6.2724 -20.8792,12.8499 -19.8026,14.5919 1.2091,1.9565 -2.9869,2.758 -7.0406,1.3448 -4.0786,-1.4218 -5.0482,-0.2529 -1.9341,2.3316 1.0396,0.8628 1.5963,2.0444 1.237,2.6257 -0.6918,1.1194 7.2403,3.7142 11.3905,3.7261 1.3518,0 6.0859,-0.9028 10.5202,-2.0148 4.4343,-1.1121 8.9599,-1.6776 10.057,-1.2566 1.8032,0.692 1.7959,1.0689 -0.076,3.9262 -2.5166,3.8408 -2.2753,3.8558 7.0913,0.4406 4.1031,-1.4961 7.8249,-2.3554 8.2707,-1.9096 0.4458,0.4458 0.1587,2.2411 -0.6379,3.9896 -1.761,3.8649 -0.9548,3.9267 7.5405,0.5782 4.9181,-1.9385 6.8365,-2.2158 7.5331,-1.0887 0.6781,1.0972 3.2746,0.4172 9.4594,-2.477 4.6885,-2.194 9.3593,-3.9892 10.3794,-3.9892 3.6405,0 0.9421,4.4882 -5.1518,8.5689 -6.5291,4.3721 -13.9266,5.4608 -18.3472,2.7002 -1.7596,-1.0989 -3.196,-0.9534 -6.2671,0.6347 -5.0208,2.5964 -10.0055,2.6429 -11.4249,0.1066 -0.9703,-1.7339 -1.3768,-0.5239 -6.7277,0.4638 -12.9927,2.3984 -2.1908,4.026 3.9638,5.8562 10.0713,2.995 25.556,5.052 35.4678,5.5772 1.7455,0.093 8.7194,0 13.2636,-1.3464 z m -8.9868,-9.8432 c -2.1673,-1.5848 -1.9182,-2.0013 3.5438,-5.9238 6.4612,-4.6401 10.9806,-12.3812 10.9806,-18.8083 0,-4.629 1.7914,-5.2722 3.8695,-1.3892 2.1943,4.1001 1.7005,13.4075 -0.9523,17.9497 -3.8561,6.6025 -13.4441,11.0946 -17.4416,8.1716 z m 35.3207,-149.0409 c -0.01,-3.51 0.8333,-4.8091 3.0707,-4.7899 3.6143,0.031 3.1199,8.6324 -0.5883,8.6234 -0.4383,-9e-4 -2.4767,-0.5106 -2.4824,-3.8335 z m 8.925,1.7393 c -1.2771,-3.3279 0.028,-6.5153 2.6675,-6.5153 1.9528,0 2.5215,0.8551 2.5215,3.791 0,4.1534 -3.8625,6.1813 -5.189,2.7243 z m 29.724,6.1944 c 3.5981,-3.7941 2.8166,-5.2832 -4.4628,-8.5032 -6.6116,-2.9246 -8.7642,-1.9084 -10.0087,4.725 -1.0803,5.7586 -0.021,6.9406 6.1972,6.9149 3.9811,-0.016 6.0638,-0.8059 8.2743,-3.1367 z" transform="translate(-112.51671,-81.330235) translate(-5519.3436,1388.2993)"/>
</svg>