<?xml version="1.0" ?><svg xmlns="http://www.w3.org/2000/svg" width="404.34949mm" height="191.87311mm" viewBox="0 0 404.34949 191.87311">
    <path d="m 3305.1217,-2217.7229 c 3.9331,-7.049 20.4047,-19.6341 38.658,-22.2056 18.2534,-2.5715 64.7102,4.9614 72.1392,4.2051 7.429,-0.7563 37.2126,-4.6892 43.9357,-7.6237 6.723,-2.9345 22.4888,-5.506 24.842,-5.5363 2.3529,-0.03 9.9501,0.6656 9.9501,0.6656 0,0 -7.1937,-13.4626 -2.9583,-17.3652 4.2358,-3.9026 12.2698,-0.7563 13.2784,0.5748 1.0083,1.3311 14.8244,-2.874 16.2026,-2.9345 1.3782,-0.061 19.6315,1.3311 19.6315,1.3311 0,0 2.9919,-4.8404 7.7653,-3.7513 4.7733,1.0891 4.8741,10.8305 5.0424,12.2826 0.168,1.4522 0.168,25.0192 -5.6475,31.705 -5.8156,6.6859 -20.2031,14.7634 -21.3458,14.4307 -1.143,-0.3328 -0.9414,12.0406 -5.2104,19.6341 -4.2694,7.5935 -27.4977,27.3788 -43.7341,29.2242 -16.2364,1.8455 -50.9278,-4.9614 -59.8022,-8.864 -8.8744,-3.9027 -33.7164,-12.192 -39.3639,-10.165 -5.6475,2.0269 -21.8165,14.1281 -29.4809,12.3432 -7.6645,-1.785 -33.0441,-9.4087 -38.7924,-21.9334 -5.7484,-12.5246 -5.1097,-26.0174 -5.1097,-26.0174 z" fill="#efe59b" paint-order="fill markers stroke" transform="translate(132.95867,194.09754) translate(-3284.4915,2080.2927)"/>
    <path d="m 3509.679,-2223.2357 c 0,0 0.6316,-5.9899 3.1578,-10.5369 2.5263,-4.5471 4.0807,-8.2635 14.5746,-9.138 10.4936,-0.8744 22.8333,5.203 22.7849,9.6626 -0.049,4.4596 -16.0322,22.9978 -22.0562,22.0359 -6.0243,-0.9619 -18.4611,-12.0236 -18.4611,-12.0236 z" fill="#fff" paint-order="fill markers stroke" transform="translate(132.95867,194.09754) translate(-3284.4915,2080.2927)"/>
    <path d="m 3511.5413,-2214.5992 c -0.7627,5.6975 -9.3655,15.7968 -15.0983,23.623 -5.7324,7.8262 -42.9247,14.6979 -49.6777,13.1239 -6.7529,-1.5739 -29.632,-8.4879 -41.8185,-9.3663 -17.1082,-1.2332 -28.0259,7.7093 -23.7185,7.7924 18.4613,0.3934 37.4081,15.2152 55.3834,15.9585 17.9753,0.7432 44.9384,3.9349 54.8005,-0.2624 9.8621,-4.1973 27.06,-23.435 29.9265,-27.9383 2.8662,-4.5034 5.7811,-19.6312 5.7811,-19.6312 z" fill="#fff" paint-order="fill markers stroke" transform="translate(132.95867,194.09754) translate(-3284.4915,2080.2927)"/>
    <path d="m 3355.67,-2085.812 c -8.3864,-6.0891 -18.1311,-19.6396 -18.1388,-25.2233 0,-1.7761 2.1882,-8.801 4.8681,-15.6105 3.759,-9.5525 5.3742,-12.3808 7.0686,-12.3808 3.1985,0 2.8908,7.106 -0.8162,18.8398 -3.1993,7.5728 -3.3162,9.1678 1.5493,15.0823 2.5087,3.0501 5.705,7.1965 7.1027,9.2146 1.9493,2.815 3.6836,3.8228 7.449,4.3278 2.6994,0.3621 5.7628,1.5285 6.8078,2.5919 1.7497,1.7811 1.6802,2.1132 -0.882,4.2139 -3.9972,3.2772 -9.5816,2.8841 -15.0085,-1.0557 z m 121.2396,1.3119 c -6.0443,-3.011 -6.6435,-6.0484 -5.7027,-28.9027 0.6939,-16.8537 0.5063,-21.7302 -1.0984,-28.5693 -1.0647,-4.5359 -1.6177,-9.9702 -1.2293,-12.0761 l 0.7059,-3.8289 h -12.5482 c -15.2704,0 -22.2175,-1.6748 -41.7589,-10.0675 -25.3079,-10.8692 -36.7524,-12.3206 -47.497,-6.0242 -4.5799,2.6845 -5.191,3.6406 -7.636,11.951 -2.2338,7.5929 -3.5893,9.965 -8.503,14.8782 -6.5864,6.5864 -17.2814,12.1512 -27.3894,14.2501 -8.0531,1.6726 -11.2312,4.587 -12.7765,11.7171 -0.61,2.8156 -2.7414,9.218 -4.7358,14.2277 -2.6854,5.9569 -4.6038,7.9467 -0.5578,12.7553 3.5794,4.254 3.7037,5.0195 1.2174,7.5058 -2.2429,2.2429 -2.0162,2.2359 -6.8686,0.207 -4.6136,-1.9275 -7.7739,-5.9779 -7.7739,-9.963 0,-1.5589 2.0679,-7.6747 4.5953,-13.5902 2.5274,-5.9157 5.4875,-13.4844 6.5786,-16.8194 2.5422,-7.7725 5.314,-10.1646 14.745,-12.7265 16.7555,-4.5512 29.3747,-13.8714 32.358,-23.899 0.6903,-2.3196 0.3633,-2.6509 -2.6186,-2.6509 -4.5994,0 -19.4006,-5.1313 -26.0628,-9.0357 -9.4367,-5.5301 -16.4391,-12.9937 -18.4062,-19.6175 -0.9705,-3.2671 -1.7643,-7.1695 -1.7643,-8.672 0,-1.5022 -0.3173,-2.7315 -0.703,-2.7315 -0.3867,0 -4.1378,3.1477 -8.3363,6.9945 -17.3416,15.891 -56.1797,38.7702 -73.0297,43.0219 -10.5812,2.67 -30.0144,3.5887 -40.0483,1.8933 -9.6923,-1.6374 -20.9177,-6.6112 -25.0528,-11.0999 -3.911,-4.2457 -4.6663,-13.8378 -1.5435,-19.6032 4.6995,-8.6767 20.1625,-15.4147 22.0106,-9.5911 1.0791,3.3991 -0.3839,5.7732 -4.4263,7.1822 -9.9226,3.4592 -13.3508,12.548 -6.809,18.0523 6.1886,5.2074 16.4753,7.0796 35.5868,6.4769 14.8459,-0.4687 18.0269,-0.9395 25.7725,-3.8176 26.3358,-9.7851 52.8815,-27.9415 70.3689,-48.1304 13.3973,-15.4668 14.645,-16.5525 24.6969,-21.4852 13.8857,-6.814 21.9275,-7.9645 49.4826,-7.0793 13.0843,0.4205 26.8686,1.2688 30.6319,1.8853 10.2139,1.6727 36.4684,1.3742 43.4868,-0.4949 3.3073,-0.8804 10.3148,-3.2599 15.5723,-5.2876 10.5706,-4.0764 22.6634,-5.0305 26.6658,-2.1037 1.9377,1.417 1.5082,1.6604 -4.1044,2.325 -3.4475,0.4084 -6.578,1.2434 -6.9564,1.8559 -0.3787,0.6125 -2.539,1.289 -4.8013,1.5038 -3.4999,0.334 -4.0583,0.7857 -3.7448,3.0414 0.2739,1.9803 -0.2203,2.6507 -1.9637,2.6507 -1.2824,0 -2.6079,-0.6626 -2.9451,-1.4728 -0.4379,-1.051 -1.138,-0.8423 -2.4122,0.7561 -2.1044,2.6398 -4.0876,2.3828 -5.1799,1.7092 -2.3482,-1.4482 -2.9236,-0.1533 -4.3083,1.7122 -1.1444,1.5422 -2.4148,1.9035 -4.6881,1.3328 -2.1948,-0.5507 -3.8212,-0.1469 -5.4928,1.3667 -1.9519,1.7666 -2.7794,1.8962 -4.6494,0.7286 -3.1836,-1.9884 -4.2934,-1.7807 -5.0036,0.936 -0.3391,1.2958 -1.5108,2.3562 -2.6039,2.3562 -1.0934,0 -2.2653,-1.0604 -2.6044,-2.3562 -0.7149,-2.7343 -6.2319,-3.3672 -6.2319,-0.7152 0,2.7915 -3.9198,3.4417 -5.9125,0.9808 -2.5301,-3.1245 -8.0695,-4.3983 -8.9662,-2.0619 -0.8857,2.3076 -5.1497,2.3504 -5.1497,0.05 0,-1.8195 -1.6721,-2.3705 -10.7526,-3.543 -4.2776,-0.5524 -5.6008,-0.3139 -6.1481,1.1141 -0.895,2.332 -6.524,2.3704 -7.4144,0.05 -0.7616,-1.9851 -8.6729,-2.5224 -8.6729,-0.5891 0,1.8577 -3.5337,1.3723 -4.2864,-0.5891 -0.3729,-0.9722 -1.3598,-1.7673 -2.1934,-1.7673 -0.8333,0 -1.8201,0.7951 -2.1932,1.7673 -0.3731,0.9718 -1.5068,1.767 -2.5193,1.767 -1.0126,0 -2.1465,-0.7952 -2.5195,-1.767 -0.9832,-2.5621 -4.6741,-2.1671 -7.4346,0.7958 -2.1681,2.327 -2.6697,2.4123 -5.453,0.9224 -2.686,-1.4373 -3.5009,-1.3899 -6.5893,0.3824 -1.9387,1.1125 -4.6891,2.0228 -6.1122,2.0228 -3.6218,0 -7.5932,3.0611 -8.0388,6.1957 -0.2437,1.7278 -1.3268,2.7751 -3.1295,3.0304 -2.2238,0.3139 -2.6236,0.9119 -2.075,3.0978 0.4496,1.7916 -0.1969,3.8217 -1.9108,6.0009 -1.8091,2.3 -2.4816,4.5519 -2.2306,7.468 0.9204,10.6812 7.3268,18.3748 20.7524,24.9219 8.0257,3.9136 22.4187,7.962 23.7112,6.6692 0.4733,-0.4732 1.7945,-6.6432 2.9359,-13.7112 1.4033,-8.6898 2.5855,-14.7451 3.6192,-18.3586 0.9648,-3.3729 5.5278,-3.3642 5.2934,0.989 -0.2451,4.5516 -0.6916,11.3393 -1.0382,17.9448 -0.2871,5.4706 -0.3824,9.9466 -0.2104,9.9466 0.1704,0 2.0639,-1.0255 4.207,-2.2792 5.0902,-2.9777 16.46,-4.1559 23.9246,-2.479 3.2398,0.7276 14.0639,3.9778 24.0525,7.2223 16.2774,5.2869 19.8334,6.0179 34.2618,7.0421 8.8547,0.6286 18.1772,0.715 20.7166,0.1938 l 3.4688,-0.6745 3.2856,-9.6572 c 6.9442,-20.4105 10.6678,-17.5276 8.5685,-4.5377 -1.0596,6.557 -2.8734,12.5771 -2.3748,12.5771 2.0829,0 13.8703,-5.2396 17.591,-8.0772 4.6632,-3.557 15.8318,-17.0604 18.7033,-22.6132 1.256,-2.4285 2.8539,-3.8132 4.4015,-3.8132 2.2022,0 2.3525,0.4686 1.6051,5.0072 -0.4536,2.7537 -1.4899,6.5977 -2.3033,8.5413 -2.4337,5.8165 -11.9713,17.4935 -16.8255,21.2931 -2.9722,2.3264 -5.0541,9.6333 -5.4696,16.5848 -1.7691,9.2532 -0.6016,13.5063 4.2601,20.8526 13.518,20.4256 21.108,32.6606 22.1954,35.7806 0.8626,2.4749 0.7732,4.7262 -0.3206,8.0664 -1.3182,4.0236 -1.9824,4.6334 -5.0472,4.6334 -3.392,0 -3.5316,-0.207 -3.5863,-5.332 -0.047,-4.3656 -0.9352,-6.5016 -4.9013,-11.7816 -2.6639,-3.5469 -7.6073,-11.4855 -10.9846,-17.6414 -3.3773,-6.1559 -6.8679,-12.5179 -7.7566,-14.1376 -2.278,-4.1524 -2.0191,-11.5094 0.7107,-20.218 3.4772,-11.0932 3.3373,-11.7608 -2.0465,-9.7644 -2.4299,0.9011 -6.6085,2.1875 -9.2855,2.8584 -7.1437,1.791 -8.3131,5.3564 -5.6627,17.2689 1.7075,7.6747 1.9189,12.5308 1.2818,29.4263 -0.8379,22.211 -0.9983,21.6637 6.3326,21.6637 4.2596,0 7.4776,4.0482 5.7634,7.251 -1.4864,2.7774 -10.5878,2.8627 -16.034,0.1503 z m -40.7136,-91.8614 c -2.9863,-0.7802 -2.5294,-2.3494 0.9378,-3.2194 3.8883,-0.9761 5.8099,0.1669 3.9822,2.3695 -0.7588,0.9141 -1.7122,1.6006 -2.1187,1.5254 -0.4067,-0.076 -1.6674,-0.3789 -2.8013,-0.6755 z m 29.1589,-1.544 c 0.4003,-0.6482 1.2273,-1.1782 1.8368,-1.1782 0.6098,0 1.1087,0.53 1.1087,1.1782 0,0.648 -0.8265,1.178 -1.8368,1.178 -1.0102,0 -1.5092,-0.53 -1.1087,-1.178 z m -17.0828,-4.0442 c 0,-2.128 4.5499,-3.6585 6.1421,-2.0662 1.7597,1.7596 0.033,3.754 -3.2663,3.754 -1.7109,0 -2.8758,-0.6835 -2.8758,-1.6878 z m -103.2505,-2.4356 c -1.0523,-2.7417 0.4308,-5.3016 3.0714,-5.3016 2.6921,0 3.2741,3.3603 0.9796,5.655 -1.8972,1.8972 -3.2321,1.7809 -4.051,-0.3534 z m 75.7849,1.0062 c -1.5363,-1.5362 -0.8029,-2.7736 1.6444,-2.7736 1.3711,0 2.2485,0.6176 1.9881,1.3995 -0.5738,1.7215 -2.5409,2.4659 -3.6325,1.3741 z m 14.4091,-0.4771 c -1.2641,-0.7809 -1.3265,-1.3443 -0.2673,-2.4035 1.4808,-1.4806 5.0766,-0.6853 5.0766,1.1223 0,1.6492 -2.9448,2.4337 -4.8093,1.2812 z m 27.7197,-0.043 c -1.1448,-1.8524 1.3298,-3.876 3.6512,-2.9853 1.607,0.6165 1.7056,1.0891 0.5244,2.5127 -1.7243,2.0773 -3.0885,2.2316 -4.1756,0.4726 z m -55.9398,-1.7145 c -1.109,-1.3368 -1.1606,-2.1648 -0.1937,-3.1313 1.5612,-1.5609 4.9483,0.715 4.9483,3.3254 0,2.1794 -2.8821,2.0618 -4.7543,-0.1938 z m 66.0175,-2.1624 c 0,-2.4507 2.7668,-4.2921 4.6761,-3.1118 1.3673,0.8449 1.3862,1.3411 0.1105,2.878 -1.8999,2.289 -4.787,2.4299 -4.787,0.2338 z m -23.1153,-1.2657 c -0.9056,-2.3602 0.4386,-4.1799 3.087,-4.1799 3.2431,0 4.2308,2.4672 1.7218,4.302 -2.7855,2.0369 -3.9918,2.0062 -4.8088,-0.1234 z m 47.856,-1.8238 c 0,-1.7743 0.6155,-2.4105 2.0619,-2.132 1.1339,0.217 2.0619,1.1779 2.0619,2.132 0,0.9542 -0.928,1.9136 -2.0619,2.132 -1.4464,0.2771 -2.0619,-0.3576 -2.0619,-2.132 z m -74.2228,-0.5107 c 0,-1.2764 1.1208,-1.8454 3.6329,-1.8454 4.5074,0 4.103,2.7749 -0.4836,3.3179 -2.2319,0.2638 -3.1493,-0.1636 -3.1493,-1.4725 z m -89.5387,-1.8454 c 0,-1.3091 0.7855,-2.3564 1.7674,-2.3564 0.9814,0 1.7673,1.0473 1.7673,2.3564 0,1.3088 -0.7859,2.3561 -1.7673,2.3561 -0.9819,0 -1.7674,-1.0473 -1.7674,-2.3561 z m 37.048,1.0753 c -0.4471,-0.6969 -0.3306,-1.7425 0.2338,-2.3073 1.3933,-1.3933 4.6528,0.7713 3.4441,2.2783 -1.3325,1.6614 -2.8906,1.2562 -3.6779,0.029 z m 41.8874,-1.0753 c 0,-2.0462 0.6019,-2.4436 3.2401,-2.14 1.9286,0.2204 3.2398,1.0877 3.2398,2.14 0,1.052 -1.3112,1.9179 -3.2398,2.1397 -2.6382,0.3039 -3.2401,-0.093 -3.2401,-2.1397 z m 50.7284,0.6709 c -1.1141,-1.3425 -0.9407,-1.9299 0.8533,-2.8901 2.9294,-1.5679 5.5859,0.6455 3.6187,3.0157 -1.6588,1.9987 -2.7341,1.9687 -4.472,-0.1263 z m -27.5338,-0.2538 c -1.5362,-1.5366 -0.8028,-2.7735 1.6447,-2.7735 1.371,0 2.2487,0.6175 1.9881,1.399 -0.574,1.7215 -2.541,2.4659 -3.6328,1.3745 z m 54.563,-1.5953 c 0,-1.7746 0.6151,-2.4105 2.0616,-2.1321 1.1341,0.2172 2.0618,1.1777 2.0618,2.1321 0,0.9541 -0.9277,1.9136 -2.0618,2.1321 -1.4465,0.2771 -2.0616,-0.3578 -2.0616,-2.1321 z m -92.2151,-0.1569 c -2.9579,-1.6555 -2.4947,-3.379 0.9091,-3.379 1.7789,0 2.9452,0.6722 2.9452,1.6978 0,2.3791 -1.4649,3.0183 -3.8543,1.6812 z m -11.4616,-1.6117 c 0,-1.08 0.5702,-1.7738 1.2668,-1.5413 0.6966,0.2304 1.2663,0.9258 1.2663,1.5413 0,0.6154 -0.5697,1.3091 -1.2663,1.5415 -0.6966,0.2304 -1.2668,-0.4615 -1.2668,-1.5415 z m 19.5217,-0.4556 c -0.8015,-1.2974 2.2006,-3.9377 3.2658,-2.8724 0.4265,0.4265 0.7755,1.4821 0.7755,2.3461 0,1.7553 -3.0373,2.1508 -4.0413,0.5263 z m 37.6182,-0.1335 c -1.0561,-1.7089 0.3993,-3.5344 2.8186,-3.5344 2.9277,0 3.873,1.2707 2.3287,3.1316 -1.548,1.8648 -4.1191,2.0662 -5.1473,0.4028 z m 64.945,0.237 c -0.9314,-1.5071 1.2294,-4.1531 2.6664,-3.2651 1.8916,1.1689 1.6114,4.2049 -0.3877,4.2049 -0.9338,0 -1.9591,-0.4228 -2.2787,-0.9398 z m -158.6653,-2.0755 c -1.0954,-1.3198 -1.0824,-2.0903 0.057,-3.4645 2.697,-3.2498 6.6602,-1.6087 5.2144,2.1591 -0.9985,2.6014 -3.6515,3.2587 -5.2725,1.3054 z m 122.5849,0.6835 c -1.5463,-0.9778 -1.5105,-1.3741 0.2871,-3.1712 2.3858,-2.3865 5.2271,-0.6392 4.0306,2.4783 -0.8112,2.1147 -1.814,2.2756 -4.3167,0.6929 z m -133.2326,-1.9152 c -1.9323,-2.3284 -0.04,-5.7671 3.1763,-5.7671 3.1389,0 3.6311,4.7829 0.6559,6.3752 -1.7606,0.9422 -2.6646,0.7988 -3.8322,-0.6081 z m 37.1325,0.5808 c -0.8847,-1.4314 1.7249,-3.5902 3.6159,-2.9913 0.6481,0.2037 1.3497,1.257 1.5591,2.3371 0.4376,2.2559 -3.8498,2.7982 -5.175,0.6542 z m 44.851,0.1307 c -1.2407,-2.0075 0.571,-3.5347 4.1929,-3.5347 2.1765,0 3.4649,0.6105 3.4649,1.6414 0,2.7107 -6.2044,4.2449 -7.6578,1.8933 z m 79.5245,-1.2764 c 0,-2.8711 2.7529,-2.4654 3.3263,0.4902 0.2271,1.1625 -0.3758,1.9641 -1.4727,1.9641 -1.0931,0 -1.8536,-1.0073 -1.8536,-2.4543 z m -41.2352,-0.9935 c 0,-1.6862 0.7568,-2.4427 2.4426,-2.4427 3.0194,0 2.6771,3.8994 -0.3943,4.4908 -1.4138,0.2739 -2.0483,-0.3623 -2.0483,-2.0481 z m 24.7412,0.6989 c 0,-2.4453 1.3942,-3.2508 3.1313,-1.8091 2.2839,1.8952 1.9433,3.3801 -0.7752,3.3801 -1.2957,0 -2.3561,-0.707 -2.3561,-1.571 z m -157.8709,-1.9637 c 0,-1.3088 0.7852,-2.3561 1.7671,-2.3561 0.9818,0 1.7673,1.0473 1.7673,2.3561 0,1.3091 -0.7855,2.3564 -1.7673,2.3564 -0.9819,0 -1.7671,-1.0473 -1.7671,-2.3564 z m 124.2707,1.1408 c -0.4574,-0.7404 -0.2771,-1.9003 0.4001,-2.5778 1.583,-1.5833 5.2747,-0.2037 4.6305,1.7323 -0.6556,1.9696 -3.9896,2.5297 -5.0306,0.8455 z m -134.1629,-1.8361 c -0.8844,-2.305 0.066,-4.0172 2.2343,-4.0172 2.4244,0 3.3431,2.2245 1.7241,4.1752 -1.8427,2.2208 -3.0641,2.172 -3.9584,-0.157 z m 69.9772,0.1062 c 0,-0.9719 0.7955,-1.767 1.7673,-1.767 0.972,0 1.7673,0.7951 1.7673,1.767 0,0.9721 -0.7953,1.7673 -1.7673,1.7673 -0.9718,0 -1.7673,-0.7952 -1.7673,-1.7673 z m 106.6219,0.5891 c -0.9609,-1.5546 0.4479,-3.7608 1.8487,-2.8948 1.4307,0.8843 1.4214,4.073 0,4.073 -0.6095,0 -1.436,-0.5301 -1.8363,-1.1782 z m -124.9466,-1.2808 c -0.4351,-0.7043 -0.2571,-1.8144 0.3944,-2.4666 1.7399,-1.74 5.4709,-0.6703 5.9271,1.6992 0.2905,1.5072 -0.388,2.0482 -2.5674,2.0482 -1.6291,0 -3.3186,-0.5762 -3.7541,-1.2808 z m 37.7005,0 c -1.028,-1.6634 1.2426,-3.934 2.9065,-2.9061 0.7043,0.4355 1.2807,1.5556 1.2807,2.4894 0,1.9833 -3.032,2.2852 -4.1872,0.4167 z m 31.2845,-0.3603 c 0,-2.2897 3.1025,-3.2441 4.6161,-1.4204 1.5034,1.8114 0.5002,3.0615 -2.4564,3.0615 -1.1878,0 -2.1597,-0.7384 -2.1597,-1.6411 z m -24.315,-1.3041 c -0.9335,-2.4322 0.3306,-5.3017 2.338,-5.3017 0.9131,0 2.32,0.7952 3.1266,1.7673 1.1701,1.4096 1.1701,2.1243 0,3.5344 -0.8066,0.9718 -2.2135,1.7673 -3.1266,1.7673 -0.9126,0 -1.965,-0.7955 -2.338,-1.7673 z m 93.4006,0.9498 c -1.4083,-1.408 -0.7608,-3.8954 1.0136,-3.8954 0.972,0 1.7673,0.7641 1.7673,1.6979 0,1.9684 -1.6815,3.2968 -2.7809,2.1975 z m -173.4552,-1.9737 c -0.8839,-2.3043 0.3207,-4.2778 2.6116,-4.2778 1.1569,0 1.6478,0.8957 1.4033,2.5585 -0.4572,3.1068 -3.0554,4.2195 -4.0149,1.7193 z m 48.3443,0.3339 c -1.2139,-1.9647 1.5164,-4.2172 3.1419,-2.5919 1.3595,1.3592 0.5086,3.8726 -1.3111,3.8726 -0.5715,0 -1.3954,-0.5764 -1.8308,-1.2807 z m 14.8017,-0.4726 c -1.1815,-1.4237 -1.083,-1.8962 0.5241,-2.5127 2.3213,-0.8907 4.7963,1.1328 3.6515,2.9853 -1.0873,1.7589 -2.4516,1.6046 -4.1756,-0.4726 z m 69.4988,-0.6032 c 0,-1.5705 0.7855,-2.356 2.3564,-2.356 1.5707,0 2.3562,0.7855 2.3562,2.356 0,1.571 -0.7855,2.3565 -2.3562,2.3565 -1.5709,0 -2.3564,-0.7855 -2.3564,-2.3565 z m 10.6032,0.503 c 0,-1.0974 0.8018,-1.6981 1.9641,-1.4728 2.9559,0.5732 3.3617,3.3263 0.4905,3.3263 -1.4469,0 -2.4546,-0.7607 -2.4546,-1.8535 z m -48.8318,-0.9016 c -2.5221,-1.8442 -1.5453,-4.3138 1.7063,-4.3138 3.0377,0 4.1654,2.2305 2.1476,4.2479 -1.4083,1.4083 -2.004,1.4187 -3.8539,0.068 z m -82.6721,-1.3118 c -0.8293,-2.1608 0.3774,-4.1802 2.4977,-4.1802 2.4246,0 3.3433,2.2245 1.7242,4.1751 -1.8124,2.1842 -3.385,2.1858 -4.2219,0 z m 105.0782,0.6659 c -1.071,-1.7326 2.7539,-4.2484 4.224,-2.7779 0.6936,0.6936 0.905,1.8375 0.4699,2.5417 -0.9545,1.5443 -3.7969,1.6873 -4.6939,0.2372 z m 50.0844,-15.0422 c -3.4943,-3.4568 -6.5992,-8.098 -7.9386,-11.3437 -2.3931,-5.7992 2.4445,-10.6711 -1.5485,-18.9186 -3.4943,-6.8495 -3.5163,-13.6834 -0.053,-16.488 4.0003,-3.2395 11.2321,-2.9685 13.8628,0.5187 l 2.0666,2.7394 5.6589,-2.1503 c 6.4598,-2.4546 21.9734,-2.9466 25.9411,-0.823 1.952,1.0443 2.7512,0.9599 3.7517,-0.3967 1.9711,-2.6727 6.4378,-4.6668 8.7852,-3.9217 4.4013,1.397 5.467,6.058 5.0753,22.2025 -0.4904,20.2096 -2.2944,25.1772 -12.668,34.8811 -8.3482,7.8097 -10.9288,8.9942 -18.86,8.0479 -11.0116,-1.3138 -15.1346,-5.2964 -24.0735,-14.3476 z m 36.3743,3.7517 c 5.6547,-4.3458 5.7589,-6.493 0.6747,-13.9072 -1.579,-2.303 -2.8337,-5.2188 -2.7879,-6.4799 0.07,-1.9136 0.5676,-2.1417 1.2375,-0.5476 0.4401,1.0506 2.1699,3.5156 4.2758,5.2766 2.106,1.761 3.829,3.9497 3.829,4.8641 0,2.8406 2.0017,1.8285 3.4901,-1.765 1.6998,-4.1041 0.6098,-6.6773 -4.7322,-11.1719 -2.5805,-2.1716 -3.0798,-3.0726 -1.7032,-3.0726 1.0717,0 3.4808,1.5323 5.3538,3.4055 3.1923,3.1922 3.4511,3.2604 4.1397,1.0913 0.4805,-1.5145 0.2842,-4.3809 -1.4343,-3.9213 -2.4859,0.6648 -2.3702,-4.7467 0.187,-3.4289 2.2509,1.16 1.8577,-3.7819 -0.3139,-2.5714 -1.4455,0.8057 -2.5435,-1.5249 -2.3562,-2.67 0.2372,-1.4604 -1.5346,-3.3173 -3.025,-1.565 -1.8645,2.1921 -4.3339,-0.7764 -2.5942,-1.99 2.2325,-1.5574 -3.722,-6.1303 -7.0644,-4.3509 -1.3831,0.7363 -3.3567,0.2415 -3.5238,-0.537 -0.4185,-1.95 -2.6915,-2.9932 -2.9186,-0.5454 -0.2326,2.5076 -3.6456,1.4806 -2.9158,-0.5413 0.7415,-2.0543 -4.1527,-1.4661 -4.1527,0.5413 0,2.0007 -1.8451,2.3695 -2.9456,0.5891 -0.9929,-1.6069 -3.0157,-1.4944 -2.6509,0.147 0.1636,0.7287 -0.3681,1.5682 -1.178,1.8651 -0.8101,0.2973 -1.4727,-0.033 -1.4727,-0.7364 0,-0.7019 -0.9992,-1.276 -2.2208,-1.276 -2.9941,0 -7.6857,6.7963 -5.1798,8.283 2.0516,1.2172 -1.0761,4.3112 -1.8385,2.0274 -0.7246,-2.1705 -2.5425,-0.1263 -2.5425,1.0763 0,0.9576 -0.7951,2.5361 -1.7669,3.5084 -2.2408,2.2408 -2.3013,8.2107 -0.093,9.0586 0.9536,0.3656 1.4284,1.5896 1.1019,2.8386 -0.4025,1.5387 1.2551,3.9064 5.5396,7.9143 l 6.1139,5.7191 1.4597,-3.4245 c 0.8028,-1.8834 2.667,-4.4848 4.1431,-5.7805 1.4762,-1.2961 3.6577,-4.477 4.8478,-7.0689 2.1618,-4.7082 2.1641,-4.7092 2.1898,-1.1465 0.033,2.3633 -1.5806,5.7041 -4.7373,9.9053 -2.6198,3.4869 -4.6079,7.1217 -4.4179,8.0781 0.5099,2.5702 7.9436,6.4092 12.7774,6.137 3.9545,-0.2227 6.8379,-2.0358 9.2053,-3.8279 z m -14.8613,0.033 c -1.4577,-0.7034 -2.6505,-1.6429 -2.6505,-2.0883 0,-0.5365 5.9915,-0.6253 11.6103,-0.2435 2.4289,0.1605 3.0589,-0.076 1.349,2.0028 -3.1,2.057 -7.7736,1.4926 -10.3088,0.329 z m 4.6234,-7.18 c -1.409,-1.4994 -2.5615,-3.2947 -2.5615,-3.9893 0,-1.3784 6.7588,-2.7389 9.1306,-1.8378 2.1603,0.8205 1.7947,4.3631 -0.6816,6.6043 -2.7476,2.486 -2.8324,2.475 -5.8875,-0.7772 z m -22.5581,-8.8987 c -0.04,-3.6618 8.1807,-11.937 11.8611,-11.937 2.6008,0 2.5414,0.1702 -1.1289,3.2396 -2.1306,1.7821 -5.4099,5.0957 -7.2873,7.3636 -2.6127,3.2896 -3.3966,4.4127 -3.4449,1.3338 z m -5.1049,-7.9779 c -1.0997,-1.0994 0.2304,-2.7809 2.1971,-2.7809 0.9338,0 1.6979,0.7951 1.6979,1.7669 0,1.7748 -2.487,2.422 -3.895,1.014 z m 32.5659,-2.2713 c -0.9818,-2.5588 1.5111,-4.9654 3.2952,-3.181 1.5081,1.5081 0.5738,5.0274 -1.3345,5.0274 -0.6886,0 -1.5709,-0.8308 -1.9607,-1.8464 z m -10.7952,-1.2865 c 0.2304,-1.1928 1.2055,-2.1686 2.1687,-2.1686 2.5253,0 2.9245,4.2111 0.3463,4.7073 -1.5747,0.3039 -2.8183,-0.9647 -2.515,-2.5387 z m -2.5598,-10.3174 c 0,-1.0259 0.8391,-1.8655 1.8655,-1.8655 2.0802,0 1.7178,2.5365 -0.4666,3.2645 -0.7695,0.2573 -1.3989,-0.3731 -1.3989,-1.399 z m 14.1375,-0.6873 c 0,-0.6478 0.5304,-1.1782 1.1782,-1.1782 0.6478,0 1.1782,0.5304 1.1782,1.1782 0,0.648 -0.5304,1.1783 -1.1782,1.1783 -0.6478,0 -1.1782,-0.5303 -1.1782,-1.1783 z m -30.6317,-4.9178 c 0,-1.3924 -5.6078,-1.2056 -6.4862,0.2171 -0.404,0.6538 -0.3852,2.2896 0.04,3.6351 0.776,2.4453 0.778,2.445 3.6105,-0.2171 0.7126,-1.1038 2.7198,-2.289 2.8357,-3.6351 z m 48.5644,-0.5007 c -0.717,-3.4495 -1.5296,-4.5955 -3.2587,-4.5955 -3.669,0 -3.5661,4.6006 0.1669,7.5385 1.754,1.3796 3.3816,2.3159 3.6172,2.0808 0.1251,-1.896 -0.2202,-3.5293 -0.5254,-5.0238 z m -51.4703,54.2206 c -0.3205,-0.517 -0.1263,-1.6754 0.4299,-2.5749 0.8326,-1.3471 1.3354,-1.3655 2.8547,-0.1033 1.0143,0.8416 1.5536,2.0004 1.1983,2.5749 -0.8036,1.3001 -3.702,1.3678 -4.4829,0.1033 z m -172.7448,-2.5945 c 0,-1.7744 0.6153,-2.4106 2.0616,-2.1321 1.1341,0.2172 2.0619,1.1779 2.0619,2.1321 0,0.9544 -0.9278,1.9136 -2.0619,2.132 -1.4463,0.2772 -2.0616,-0.3574 -2.0616,-2.132 z m 47.6918,-0.037 c -0.4579,-0.7404 -0.3307,-1.8474 0.2805,-2.4599 1.431,-1.431 5.2826,0 4.7005,1.759 -0.6168,1.8525 -3.9785,2.3257 -4.9824,0.7009 z m 30.0655,-0.4818 c 0,-0.9338 0.5534,-2.0399 1.2296,-2.4579 1.5216,-0.9403 4.8762,1.6761 3.9895,3.1107 -1.055,1.7073 -5.2191,1.1863 -5.2191,-0.6528 z m 15.3284,-0.053 c -1.7291,-2.0833 -0.7721,-5.3168 1.5734,-5.3168 0.9129,0 2.32,0.7955 3.1265,1.7673 1.1702,1.4101 1.1702,2.1248 0,3.5344 -1.8438,2.2218 -2.8657,2.2252 -4.6999,0 z m 39.676,0.9914 c -1.6184,-1.6187 -0.7788,-4.1184 1.2517,-3.7273 1.1341,0.2171 2.0618,1.1408 2.0618,2.0499 0,1.8601 -2.0785,2.9125 -3.3135,1.6774 z m 14.0811,-0.056 c -1.4079,-1.408 -0.7608,-3.895 1.014,-3.895 0.9718,0 1.7673,0.764 1.7673,1.6975 0,1.9684 -1.6819,3.2972 -2.7813,2.1975 z m 8.6717,-0.9498 c 0,-0.9718 0.7955,-1.767 1.7673,-1.767 0.9718,0 1.7673,0.7952 1.7673,1.767 0,0.9722 -0.7955,1.7673 -1.7673,1.7673 -0.9718,0 -1.7673,-0.7951 -1.7673,-1.7673 z m 10.2429,1.0139 c -0.9414,-0.9411 0.1234,-2.7809 1.6081,-2.7809 0.6098,0 1.1087,0.7952 1.1087,1.767 0,1.8222 -1.3904,2.3408 -2.7168,1.0139 z m -136.3039,-2.0659 c 0,-2.2896 3.1024,-3.2441 4.6164,-1.4203 1.503,1.8114 0.5002,3.0614 -2.4564,3.0614 -1.188,0 -2.16,-0.7384 -2.16,-1.6411 z m 82.47,-0.715 c 0,-1.9396 0.6105,-2.4335 2.6507,-2.1437 1.4581,0.2071 2.6509,1.1716 2.6509,2.1437 0,0.9719 -1.1928,1.9367 -2.6509,2.1437 -2.0402,0.2905 -2.6507,-0.2037 -2.6507,-2.1437 z m -51.2544,0 c -0.8893,-1.4386 2.343,-2.8623 4.0723,-1.7938 0.679,0.4196 1.2344,1.2618 1.2344,1.8716 0,1.4858 -4.3799,1.4216 -5.3067,-0.076 z m -22.5397,-1.751 c -0.4081,-1.0637 -0.177,-2.4984 0.5136,-3.189 1.7951,-1.795 5.1962,-0.1536 4.7272,2.2804 -0.5222,2.7121 -4.2974,3.3662 -5.2408,0.9086 z m 30.9883,0.9738 c -1.602,-1.6019 -0.7007,-2.7491 2.1597,-2.7491 1.8328,0 2.9456,0.6676 2.9456,1.7673 0,1.767 -3.6235,2.4641 -5.1053,0.9818 z m -58.8827,-1.1534 c -1.6134,-1.6137 -0.7565,-5.0755 1.5639,-6.3175 1.8999,-1.0166 2.5254,-0.8753 3.1329,0.708 1.216,3.1686 -2.5908,7.715 -4.6968,5.6095 z m 128.361,-0.057 c -1.3269,-1.3268 -0.8081,-2.7171 1.0136,-2.7171 0.9721,0 1.7673,0.4989 1.7673,1.1087 0,1.4855 -1.8398,2.5495 -2.7809,1.6084 z m -147.4323,-1.5392 c -0.4701,-0.7608 -0.3238,-1.9136 0.324,-2.5614 0.7855,-0.7855 1.4631,-0.7172 2.0332,0.207 0.4702,0.7608 0.3239,1.9136 -0.324,2.5615 -0.7855,0.7855 -1.463,0.717 -2.0332,-0.2071 z m 28.4606,-0.5313 c -0.9592,-2.4998 3.1449,-7.0941 5.522,-6.1817 2.2763,0.8733 2.5721,4.4424 0.5371,6.4776 -1.9394,1.9393 -5.2636,1.7769 -6.0591,-0.2973 z m 64.2024,0.6669 c -2.3087,-1.4631 -1.1562,-5.3778 1.7035,-5.7885 3.4355,-0.4932 5.9666,2.7043 4.0085,5.0638 -1.6497,1.9881 -3.3736,2.2064 -5.712,0.7247 z m 18.0543,-0.1804 c -1.2157,-1.967 2.1726,-4.9002 4.5896,-3.973 1.1188,0.4293 1.8701,1.6417 1.6695,2.6943 -0.4333,2.2746 -5.0595,3.2197 -6.2591,1.2787 z m 23.2658,-0.1636 c -1.6054,-1.6053 0.1669,-4.5052 2.756,-4.5052 2.3595,0 3.2482,2.2497 1.6499,4.1753 -1.7242,2.0778 -2.5932,2.1427 -4.4059,0.3306 z m 34.7122,0.6248 c -1.5362,-1.5365 -0.8029,-2.7735 1.6444,-2.7735 1.3713,0 2.2485,0.6175 1.9881,1.3989 -0.5737,1.7217 -2.5412,2.466 -3.6325,1.3746 z m -161.4196,-1.1926 c -1.0428,-1.0429 1.4581,-3.9374 3.4024,-3.9374 2.3428,0 3.3954,2.4788 1.549,3.6482 -1.9477,1.2338 -3.8933,1.3473 -4.9514,0.2907 z m 32.5876,-1.0709 c -1.072,-2.794 1.4408,-4.7647 3.6927,-2.8958 1.3957,1.1582 1.5132,1.9039 0.4949,3.1312 -1.7643,2.1257 -3.3146,2.0385 -4.1876,-0.2337 z m 19.633,-0.3842 c 0,-2.7164 3.2572,-4.1791 5.3811,-2.4164 2.2489,1.8665 0.7164,4.6467 -2.5619,4.6467 -1.9806,0 -2.8192,-0.6632 -2.8192,-2.2303 z m 65.437,1.1336 c -0.8045,-1.3021 1.0541,-2.7081 2.1417,-1.62 1.1205,1.12 0.9114,2.7167 -0.355,2.7167 -0.6098,0 -1.4136,-0.4932 -1.7867,-1.0967 z m 53.1627,0.3105 c -1.3556,-1.3558 -0.858,-2.7492 0.9818,-2.7492 0.9718,0 1.7669,0.7953 1.7669,1.7674 0,1.8398 -1.3932,2.3374 -2.7487,0.9818 z m -17.6475,-1.1538 c -1.6187,-1.6183 -0.7792,-4.1184 1.2516,-3.7273 1.1338,0.2171 2.0618,1.1408 2.0618,2.0498 0,1.8602 -2.0785,2.9125 -3.3134,1.6775 z m -18.0346,-3.3061 c -0.6866,-1.7892 0.2872,-4.193 1.6835,-4.162 0.4478,0 1.5752,0.4997 2.5057,1.0884 1.4015,0.8871 1.4277,1.3884 0.1503,2.9273 -1.923,2.3169 -3.4863,2.3693 -4.3395,0.1468 z m -91.5165,-0.2105 c -1.8554,-1.8551 -0.754,-4.1214 1.8245,-3.7551 1.4581,0.2071 2.6509,1.1646 2.6509,2.1273 0,1.872 -3.1028,3.0004 -4.4754,1.6278 z m 17.4131,-0.4685 c -0.4582,-0.7414 -0.3006,-1.8819 0.3527,-2.5341 1.6739,-1.6739 5.5598,-0.69 5.5598,1.4073 0,2.118 -4.7413,3.0216 -5.9125,1.1268 z m 11.7982,0.033 c -0.8943,-1.4473 2.3478,-2.8597 4.0913,-1.7819 0.6897,0.4261 0.9488,1.2683 0.5762,1.8715 -0.8995,1.4551 -3.7468,1.4003 -4.6675,-0.09 z m 21.8007,-1.1699 c 0,-1.5709 0.7854,-2.3564 2.3564,-2.3564 1.5707,0 2.3561,0.7855 2.3561,2.3564 0,1.5707 -0.7854,2.3562 -2.3561,2.3562 -1.571,0 -2.3564,-0.7855 -2.3564,-2.3562 z m 14.5854,0.6453 c -0.361,-0.9407 -0.3273,-2.2429 0.073,-2.8937 1.1384,-1.8419 4.1902,-0.1134 4.1902,2.3745 0,2.6128 -3.3068,3.0155 -4.2647,0.5192 z m 36.714,0.6142 c -0.3727,-0.6032 -0.1406,-1.4297 0.5197,-1.8368 1.406,-0.869 3.5537,0.2337 3.5537,1.825 0,1.4335 -3.189,1.4428 -4.0734,0 z m -147.318,-1.2595 c -1.0876,-1.7603 0.4259,-3.5346 3.015,-3.5346 2.7426,0 3.0588,2.9863 0.4232,3.9976 -2.444,0.9377 -2.5838,0.9191 -3.4382,-0.463 z m 119.7532,-0.3822 c -1.0654,-1.2839 -1.008,-1.9695 0.2538,-3.016 2.1361,-1.7728 5.6836,-0.3711 5.2151,2.0601 -0.4802,2.4937 -3.722,3.0604 -5.4686,0.9559 z m 45.1232,0.2805 c -1.0279,-1.6636 1.2427,-3.9342 2.906,-2.9062 0.7047,0.4355 1.2809,1.5556 1.2809,2.4893 0,1.9835 -3.0321,2.2854 -4.1869,0.4169 z m -154.726,-1.5005 c -1.0966,-1.3212 -0.9738,-2.1034 0.5721,-3.6492 2.2612,-2.2612 4.455,-0.8954 3.8203,2.3788 -0.5342,2.7558 -2.6514,3.3683 -4.3924,1.2704 z m 72.2966,0.3877 c -0.4577,-0.7404 -0.2772,-1.9005 0.3998,-2.5779 1.5833,-1.5833 5.275,-0.2037 4.6307,1.7323 -0.656,1.9694 -3.9898,2.5298 -5.0305,0.8456 z m -27.5668,-1.6137 c -1.5035,-1.8114 -0.5003,-3.0614 2.4563,-3.0614 2.5455,0 2.9108,2.9939 0.4786,3.9274 -0.9244,0.3547 -2.2452,-0.033 -2.9349,-0.866 z m 103.5798,-0.1163 c 0,-0.9718 0.7955,-1.767 1.7673,-1.767 0.9718,0 1.7673,0.7952 1.7673,1.767 0,0.9721 -0.7955,1.7673 -1.7673,1.7673 -0.9718,0 -1.7673,-0.7952 -1.7673,-1.7673 z m -138.4634,-0.6406 c -1.0643,-1.7221 1.6464,-4.6611 4.2994,-4.6611 2.326,0 2.6784,0.9484 1.4972,4.0273 -0.8046,2.0962 -4.634,2.5151 -5.7966,0.6338 z m 14.9625,-0.7249 c 0.2304,-1.193 1.2056,-2.1688 2.1688,-2.1688 2.5254,0 2.1603,3.4231 -0.4179,3.9197 -1.5746,0.3039 -2.0541,-0.177 -1.7509,-1.7509 z m 94.2719,-0.1063 c 0.2171,-1.1341 1.1775,-2.0618 2.1321,-2.0618 0.9541,0 1.9136,0.9277 2.1316,2.0618 0.2805,1.4464 -0.3574,2.0616 -2.1316,2.0616 -1.7748,0 -2.411,-0.6152 -2.1321,-2.0616 z m 24.1561,0.1307 c -0.9414,-0.9411 0.1234,-2.7809 1.608,-2.7809 0.6099,0 1.1087,0.7952 1.1087,1.7673 0,1.8219 -1.3902,2.3405 -2.7167,1.0136 z m -109.8656,-1.7158 c -1.245,-2.0145 2.6831,-5.4026 4.3412,-3.7444 0.7387,0.7384 1.0242,2.1737 0.6345,3.1893 -0.8152,2.1246 -3.7998,2.4579 -4.9757,0.5551 z m 21.2533,0.076 c -0.4574,-0.7404 -0.2771,-1.9007 0.4001,-2.5779 1.583,-1.5833 5.2745,-0.2037 4.6303,1.7322 -0.6554,1.9695 -3.9894,2.5297 -5.0304,0.8457 z m 71.8665,0 c -0.4576,-0.7404 -0.2773,-1.9007 0.4001,-2.5779 1.5833,-1.5833 5.2748,-0.2037 4.6306,1.7322 -0.6558,1.9695 -3.9898,2.5297 -5.0307,0.8457 z m 6.76,-0.1437 c 0.6115,-1.8344 3.2471,-2.1556 3.3397,-0.4071 0.033,0.6479 -0.8222,1.3612 -1.903,1.5853 -1.2286,0.2539 -1.767,-0.1869 -1.4367,-1.1782 z m 17.6409,-3.4408 c 0.2337,-0.6966 0.9257,-1.2663 1.5415,-1.2663 0.6155,0 1.3091,0.5697 1.5412,1.2663 0.2339,0.6966 -0.4612,1.2664 -1.5412,1.2664 -1.08,0 -1.7736,-0.5698 -1.5415,-1.2664 z m -7.1128,-1.6054 c 0.2238,-1.081 0.9375,-1.9373 1.5853,-1.9028 1.7487,0.093 1.4274,2.7281 -0.4071,3.3396 -0.9907,0.3305 -1.4327,-0.207 -1.1782,-1.4368 z m -5.8516,-3.0924 c 0.2838,-0.8506 1.2112,-1.7783 2.0619,-2.0618 0.8832,-0.294 1.3251,0.1468 1.0305,1.0309 -0.2838,0.8505 -1.2112,1.7782 -2.0614,2.0619 -0.8837,0.2938 -1.3255,-0.147 -1.031,-1.031 z m 8.026,-2.8717 c 0,-0.9718 0.7953,-1.7673 1.7673,-1.7673 0.972,0 1.7671,0.7955 1.7671,1.7673 0,0.9718 -0.7951,1.7673 -1.7671,1.7673 -0.972,0 -1.7673,-0.7955 -1.7673,-1.7673 z" transform="translate(132.95867,194.09754) translate(-3284.4915,2080.2927)"/>
</svg>