<?xml version="1.0" ?><svg xmlns="http://www.w3.org/2000/svg" width="208.65044mm" height="401.63617mm" viewBox="0 0 208.65044 401.63617">
    <path d="m 2985.0462,-1153.6197 c -3.0623,-7.9391 0.669,-8.1398 6.0634,-14.2538 5.3945,-6.114 13.0802,-25.7154 13.0802,-25.7154 0,0 -15.2702,-10.0744 -11.4375,-14.5824 3.833,-4.5079 20.1577,8.9977 20.1577,8.9977 l 24.8728,3.5639 c 0,0 14.3172,-10.7315 17.9067,-7.2274 3.5895,3.5042 -14.7837,19.5101 -14.7837,19.5101 l 5.7594,36.1366 24.8764,102.6627 7.2803,22.5397 46.2168,18.3603 c 0,0 25.6423,17.50808 28.4408,22.23504 2.7986,4.72693 4.0762,18.94429 -0.6083,24.91229 -4.6846,5.96801 -14.581,17.31998 -37.152,16.58995 -22.571,-0.73002 -52.1135,-3.82779 -61.6043,-13.48246 -9.4908,-9.65466 -17.5417,-16.11543 -19.813,-36.39204 -2.2713,-20.27658 -6.6269,-113.33188 -6.6269,-113.33188 l -4.3329,-55.5025 c 0,0 -31.8352,17.6976 -38.2959,4.9796 z" fill="#f0cd8d" transform="translate(306.93964,288.91131) translate(-3288.1595,933.86148)"/>
    <path d="m 3024.9483,-1147.4074 2.8355,23.1712 5.7206,-19.158 z m 19.0862,0.9844 -2.9362,4.2406 0.2025,9.541 6.5309,-1.8175 z m -5.164,25.9731 -2.9869,10.9797 6.8347,5.3004 3.0376,-9.7678 -2.9869,-4.1652 z m 16.1499,18.325 -7.5938,9.1627 1.1642,6.8906 7.3918,5.6792 5.2648,-1.5901 z m -23.4905,11.5099 1.2154,24.5344 7.4925,-11.4345 z m 23.4399,16.1292 -2.2273,15.4471 c 0,0 6.3279,3.7107 8.2011,6.2095 1.873,2.4989 7.0879,-1.1359 7.0879,-1.1359 l -5.7712,-18.7037 z m -13.6183,13.933 -8.1509,2.3472 -0.5065,13.1759 12.6065,-5.3004 z m 21.2385,15.5169 c -3.1943,-0.01 -6.4589,0.78 -7.2657,1.1421 -1.519,0.6816 -6.7333,4.0888 -6.5309,7.7235 0.2027,3.6347 4.2525,12.4189 4.2525,12.4189 0,0 9.2647,-2.0446 12.5553,-5.6792 3.2909,-3.6347 4.1009,-8.557 3.5439,-12.8732 -0.9729,-2.0942 -3.7367,-2.7239 -6.5551,-2.7321 z m -29.3388,8.8656 0.4558,15.9778 7.1887,-3.1806 -0.4052,-3.0288 -2.683,-9.3896 z m 41.9044,16.953 c -0.2418,0 -0.4604,0.057 -0.6439,0.1607 -1.4682,0.833 -14.7829,4.2403 -15.5928,8.5566 0.051,2.726 1.721,5.5278 3.2902,8.9354 1.5696,3.40746 8.8597,7.95112 13.1124,4.61931 4.2526,-3.33181 4.6576,-6.96651 4.5057,-13.78161 -0.1329,-5.9632 -2.9786,-8.5059 -4.6716,-8.4904 z m 14.6451,1.2965 c -0.3037,1.5902 -2.3794,12.9485 -1.4681,15.6745 0.9112,2.72603 4.6575,1.8933 6.1257,0.2274 1.4681,-1.6658 7.9484,-10.9797 7.9484,-10.9797 z m -46.424,5.3005 -7.8471,6.3608 c -0.6078,8.10235 2.6324,12.49437 2.6324,12.49437 0,0 11.8466,8.48092 15.5929,4.99763 3.7461,-3.48328 -0.6583,-9.38969 -2.1772,-14.4632 -1.5187,-5.0734 -8.201,-9.3896 -8.201,-9.3896 z m 74.167,6.7396 c 0,0 -1.5187,11.81262 0.1013,15.82594 1.6201,4.01333 3.5943,1.28717 7.3913,-0.5302 3.797,-1.81735 8.6573,-7.64759 8.6573,-7.64759 z m -17.3886,5.90355 c -1.6374,0.0285 -7.6863,5.59065 -8.633,9.39219 0,0 7.4417,5.60391 11.593,7.57267 4.1513,1.96878 6.3791,-4.8463 5.8726,-7.95094 -0.5061,-3.10465 -7.2395,-8.85989 -8.7582,-9.01134 -0.024,-0.002 -0.048,-0.003 -0.074,-0.003 z m 38.6519,5.98465 c -0.9113,3.78616 -3.2401,9.69294 -2.7337,13.10049 0.5061,3.40754 5.2648,5.3759 5.2648,5.3759 l 8.9607,-5.22449 z m -60.4474,5.60379 c 0,0 -9.1133,5.6793 -7.9489,7.64811 0,0 9.2141,4.01333 12.7579,4.69481 3.5438,0.68152 5.4675,-4.39223 3.4426,-7.72408 -2.0251,-3.33184 -8.2516,-4.61884 -8.2516,-4.61884 z m -15.781,6.21823 c -2.3342,-0.002 -6.2514,4.2126 -7.9127,6.57892 -2.1262,3.02892 -0.05,3.18051 1.4687,5.07359 0,0 4.7078,-0.0757 7.0367,-0.98443 2.3288,-0.90868 2.3793,-5.90633 0.9111,-9.54102 -0.3212,-0.79509 -0.8502,-1.12642 -1.5038,-1.12706 z m -24.6192,1.65674 4.3543,12.41888 c 0,0 3.6444,-3.10471 3.6954,-7.64811 0.05,-4.54337 -3.7971,-4.01353 -8.0497,-4.77077 z m 80.6179,2.44016 c -0.7956,-0.005 -1.4273,0.0775 -1.7927,0.28577 0,0 -2.7846,1.89357 -1.5188,5.83117 1.2655,3.93758 8.9605,3.63469 11.5931,2.42311 2.6326,-1.21158 3.1895,-6.43682 3.1895,-6.43682 0,0 -7.638,-2.07726 -11.4711,-2.10323 z m -18.387,2.67064 c -0.1072,0.002 -0.2124,0.0151 -0.3153,0.0388 -2.6324,0.60573 -6.9355,5.9061 -6.9355,5.9061 0,0 8.2014,4.54367 10.9859,2.34766 2.6758,-2.11024 -1.1001,-8.3461 -3.7351,-8.29252 z" fill="#ca8642" paint-order="fill markers stroke" transform="translate(306.93964,288.91131) translate(-3288.1595,933.86148)"/>
    <path d="m 3017.2567,-1222.7449 c -3.6883,0.3007 -4.843,2.9862 -2.1573,6.0358 2.318,2.6331 1.6251,9.8598 -1.1674,12.1781 -1.426,1.1828 -2.3559,1.0956 -4.1062,-0.3865 -3.8706,-3.2782 -12.1047,-7.5927 -14.4904,-7.5927 -6.6178,0 -7.09,7.3847 -0.8711,13.6043 l 4.5437,4.5431 -3.3204,8.8957 c -1.8262,4.8926 -4.9521,10.9535 -6.9456,13.4692 -7.2846,9.1934 -9.472,13.8331 -5.7104,20.202 4.4374,7.5109 16.9137,8.3247 30.2427,2.9408 l 8.0115,-3.2357 0.049,3.4417 c 0.027,1.893 0.302,5.5001 0.6097,8.0158 1.1262,9.2114 4.4802,62.6747 5.2456,83.6387 1.0909,29.8506 4.2349,65.76719 6.5785,75.14429 2.91,11.6446 7.7453,20.60521 15.606,28.9179 l 7.0228,7.42595 -3.9588,18.42048 c -3.5354,16.44894 -3.8836,20.02788 -3.2475,33.44851 0.7312,15.44183 2.6856,23.99452 11.2011,49.00726 2.2034,6.46893 4.3138,13.37866 4.6912,15.3553 0.3763,1.97655 1.5447,3.59411 2.5954,3.59411 4.6752,0 4.137,-14.30602 -1.1449,-30.39759 -8.245,-25.12123 -9.3685,-43.58418 -4.0708,-66.93932 1.7907,-7.89335 3.2556,-15.39166 3.2556,-16.66262 0,-2.45329 1.0876,-2.88106 3.3322,-1.31047 1.4143,0.98946 6.2221,22.96174 11.7922,53.8876 1.7476,9.70341 4.6469,25.6655 6.4416,35.47144 1.7956,9.8059 3.2649,19.60851 3.2649,21.78313 0,2.17465 0.3566,4.88393 0.7928,6.02089 0.8644,2.25325 5.125,2.81432 6.3482,0.8357 2.7179,-4.39896 -10.4843,-91.50609 -17.1237,-112.97159 -0.6587,-2.13023 -0.2524,-2.35844 2.9762,-1.67137 12.2988,2.61728 29.5917,3.62932 38.4738,2.25131 5.1712,-0.80212 9.6779,-1.1822 10.017,-0.84376 0.3381,0.33847 -0.6549,9.91263 -2.2065,21.276 -6.4239,47.04827 -8.0163,60.57135 -8.7445,74.24206 -0.7253,13.61936 -0.6126,14.53528 2.1455,17.42428 v 0 c 1.6006,1.6772 3.3703,2.55977 3.9339,1.96072 0.5626,-0.59896 2.5691,-12.55721 4.4578,-26.57324 1.8898,-14.01604 4.5996,-34.01086 6.0228,-44.43311 1.4241,-10.42215 3.158,-25.66859 3.853,-33.88159 0.8017,-9.46307 1.8749,-15.31405 2.9295,-15.97319 1.2918,-0.80706 1.8854,2.2471 2.6489,13.62605 2.6278,39.17314 7.7203,85.38064 10.302,93.47149 2.3014,7.21542 4.3608,4.20507 4.8107,-7.03331 0.689,-17.24492 -4.9271,-85.11761 -8.1273,-98.20495 -1.5887,-6.49933 -1.5265,-6.96473 1.2943,-9.61503 l 2.965,-2.78521 3.4218,6.75331 c 1.8828,3.71425 5.0869,11.27544 7.1217,16.80267 3.4089,9.26057 3.6226,10.90823 2.7317,20.98666 -1.0458,11.83364 0.7733,25.0704 3.5736,25.98958 1.1438,0.37568 1.6691,-1.35574 1.7672,-5.7801 l 0.1343,-6.31648 1.6534,7.55972 c 0.9096,4.15767 1.9858,7.8918 2.3925,8.29835 1.9613,1.96107 3.5375,-1.70606 3.6159,-8.42091 0.075,-6.31683 0.3019,-6.99381 1.5065,-4.4964 2.2279,4.61931 3.6327,3.46601 3.6327,-2.98244 0,-6.88099 -2.1839,-12.73392 -6.8112,-18.25437 -2.267,-2.7059 -3.5768,-6.28214 -4.2257,-11.54277 -1.2899,-10.45624 -4.682,-19.73726 -11.0362,-30.19723 -2.9542,-4.86249 -5.3713,-10.32973 -5.3713,-12.14947 0,-9.97969 -8.1569,-22.07777 -20.7066,-30.71243 -8.7459,-6.01671 -42.6212,-22.99751 -49.1685,-24.64611 -4.4596,-1.123 -5.4887,-1.9026 -4.9967,-3.784 0.4646,-1.7785 -0.5512,-2.7924 -4.0738,-4.0663 -5.4457,-1.9691 -6.1299,-3.7858 -1.4262,-3.7858 4.5665,0 4.4035,-3.2356 -1.1413,-3.2345 -5.0769,-0.44 -4.7413,-3.2939 -0.4461,-3.1934 3.254,-0.095 3.4882,-0.3904 2.2071,-2.7827 -0.787,-1.472 -3.0131,-3.3301 -4.9469,-4.1292 -2.3243,-0.8099 -4.195,-3.7625 0.407,-2.3192 5.1327,2.2852 5.381,-1.7224 -0.3068,-3.385 -5.4398,-3.2425 -6.7511,-6.1314 -2.2718,-5.0073 2.4542,0.6161 3.2326,0.2955 3.2326,-1.3316 0,-1.1786 -0.9167,-2.4944 -2.036,-2.924 -1.1654,-0.4474 -1.7102,-1.6269 -1.275,-2.7615 0.8654,-2.2553 -2.7424,-6.8305 -5.3869,-6.8305 -0.9664,0 -1.7578,-0.6566 -1.7578,-1.4592 0,-0.8512 1.3594,-1.1989 3.2668,-0.8344 2.0632,0.3944 3.2681,0.028 3.2681,-0.9943 0,-2.0521 -2.5388,-4.1358 -5.7733,-4.7391 -1.3781,-0.2571 -2.7815,-1.2961 -3.1187,-2.3092 -0.448,-1.3453 0.051,-1.5837 1.8524,-0.8836 6.8209,2.6522 7.3925,-0.5902 0.9079,-5.1535 -4.5674,-3.2139 -4.6814,-3.4349 -1.3833,-2.6875 5.3173,1.205 4.6901,-2.5971 -0.98,-5.9425 -4.7429,-2.7986 -6.5925,-6.2262 -2.0466,-3.7932 1.3908,0.744 3.1368,1.3528 3.8797,1.3528 2.5768,0 -0.083,-3.6964 -4.2151,-5.8604 -2.9012,-1.5191 -3.2665,-1.9849 -1.2122,-1.5463 4.0177,0.8576 3.8156,-2.131 -0.4088,-6.0483 l -3.3502,-3.1063 3.0229,0.1127 c 4.345,0.1618 3.8002,-3.3093 -0.8966,-5.7179 -2.1563,-1.1057 -3.9975,-2.0105 -4.0857,-2.0105 -0.09,0 -0.6091,-1.4699 -1.1531,-3.2668 -0.9595,-3.1668 -0.9109,-3.1975 1.5737,-0.9807 1.4095,1.2578 2.9582,2.2874 3.4404,2.2874 1.3958,0 1.0153,-6.2946 -0.4343,-7.1907 -0.7214,-0.4458 -0.9674,-2.1813 -0.5469,-3.8568 0.9575,-3.8152 -2.3799,-10.4612 -6.6631,-13.2676 -1.7819,-1.1675 -3.2401,-3.0396 -3.2401,-4.1604 0,-1.5707 0.7485,-1.3348 3.2675,1.0311 3.109,2.921 3.2668,2.9439 3.2668,0.4636 0,-1.4335 -2.0582,-5.0115 -4.5742,-7.9505 -2.515,-2.9391 -4.5673,-6.1323 -4.5673,-7.0962 0,-0.9638 1.5401,-0.057 3.2208,2.168 1.4479,1.9171 3.1754,6.4226 3.2618,0.6178 0.051,-3.5752 -2.9895,-8.745 -6.7483,-11.473 -1.2938,-0.9392 -2.3521,-2.6189 -2.3521,-3.7323 0,-1.3605 1.2433,-0.6935 3.7907,2.0342 6.8855,7.3704 9.4567,3.3929 3.1505,-4.8741 -3.3766,-4.4281 -3.4161,-4.6598 -1.0118,-6.0041 4.7782,-2.6711 11.0593,-9.6466 11.0593,-12.2826 0,-3.6015 -3.4207,-6.7583 -7.3227,-6.7583 -4.4459,0 -11.1373,3.0103 -14.112,6.3488 -3.0885,3.4667 -6.8032,1.4966 -4.6743,-2.4797 0.7037,-1.3147 1.2793,-3.9075 1.2793,-5.7614 0,-1.854 0.6997,-4.491 1.5544,-5.8604 2.8914,-4.6286 -3.8803,-9.0011 -7.8273,-5.0545 -0.8626,0.8625 -1.5687,4.6848 -1.5687,8.4944 0,6.0551 -0.3284,6.9262 -2.6141,6.9262 -2.1171,0 -2.6464,-0.9301 -2.7895,-4.9008 -0.4911,-13.6618 -0.1478,-12.7101 -4.7329,-13.1519 -0.6262,-0.06 -1.2043,-0.066 -1.7311,-0.023 z m -21.2486,16.3154 c 0.819,0.1469 2.4056,0.9156 4.7397,2.3241 3.9703,2.3965 4.584,3.2621 3.1542,4.4491 -1.3802,1.1448 -2.6065,0.6072 -5.4958,-2.4094 -2.9955,-3.1266 -3.7632,-4.6088 -2.3981,-4.3638 z m 55.185,7.0264 c 1.477,0.027 0.8292,1.2035 -2.1574,3.9202 -4.3018,3.9136 -6.8404,4.9042 -6.8404,2.6701 0,-1.8156 6.5787,-6.6344 8.9978,-6.5903 z m -25.2385,2.6235 c 3.2255,0.01 4.2908,0.873 7.0725,3.8504 9.4603,10.1274 0.6801,23.5377 -22.813,34.843 -10.2014,4.9094 -20.0074,5.917 -22.9605,2.359 -1.2372,-1.4905 -0.6284,-3.4605 0.5725,-4.5972 3.7567,-3.044 7.3323,-6.5189 10.2647,-9.6001 1.7674,-1.8572 4.9811,-6.9664 6.5747,-11.8657 3.5491,-10.9088 7.0562,-13.9181 17.1996,-14.7592 1.6988,-0.1409 3.0142,-0.233 4.0895,-0.2302 z m 0.023,9.0998 c -3.0228,0 -4.0214,2.5463 -2.0453,6.6132 1.3217,2.7203 3.1724,3.6393 4.6575,0.5775 1.8401,-3.7937 -0.1,-7.1907 -2.6122,-7.1907 z m -9.2659,0.6533 c -2.7308,0 -4.1738,4.2476 -2.7212,8.0327 0.4147,1.0789 1.7843,1.7634 3.0447,1.5207 1.6604,-0.3198 2.2905,-1.6941 2.2905,-4.9972 0,-3.6849 -0.4998,-4.5562 -2.614,-4.5562 z m 22.3923,19.3458 c 1.1812,1.183 4.0755,21.2061 3.1542,21.8199 -1.8662,1.2429 -3.9868,6.3752 -3.9868,9.6505 0,3.5671 3.0426,6.0145 6.3937,5.1441 1.7466,-0.4535 2.9524,3.4536 7.1347,23.126 2.7689,13.0193 4.6783,24.028 4.2431,24.4632 -1.1948,1.1942 -7.3237,-5.0367 -7.2747,-7.3967 0.024,-1.1326 0.9054,-3.2007 1.9601,-4.596 3.8705,-5.117 0.7683,-6.6857 -3.3826,-1.7105 -5.2134,6.2496 -1.2016,15.904 7.7334,18.6096 l 3.0857,0.9346 -2.9825,1.4997 c -3.5804,1.8008 -7.064,11.3098 -5.8771,16.0422 1.1125,4.4323 6.9011,9.6337 10.7207,9.6337 4.0745,0 3.8796,-1.3551 -0.8437,-5.8809 -3.1698,-3.0367 -3.9208,-4.8355 -3.9208,-9.3922 0,-3.1 0.5744,-5.6364 1.2762,-5.6364 2.4033,0 4.838,5.888 8.4645,20.4758 l 3.6296,14.5949 -4.5325,4.5319 c -4.1215,4.1209 -9.6089,7.1086 -10.8253,5.8927 -0.2656,-0.2658 -1.0526,-3.017 -1.7485,-6.1136 -1.088,-4.8422 -0.9147,-5.98 1.2358,-8.1303 1.3751,-1.3752 3.7252,-2.5009 5.2219,-2.5009 3.3883,0 2.6407,-3.1289 -0.8643,-3.6165 -1.381,-0.1921 -4.4226,0.8287 -6.7583,2.2681 -4.7154,2.9055 -5.4186,6.8791 -2.8536,16.1151 1.9122,6.8855 6.0112,8.6333 12.931,5.5131 2.86,-1.29 6.2041,-3.4544 7.4303,-4.8094 1.7162,-1.896 2.4729,-2.0799 3.2855,-0.7989 2.2073,3.4766 0.9674,5.8997 -4.2127,8.2355 -5.0114,2.2601 -10.8317,5.358 -10.1638,10.8234 0.269,2.2012 2.5069,2.334 3.2936,-0.6733 0.3801,-1.4531 4.4766,-2.3296 8.6138,-3.4099 7.0923,-1.852 7.5963,-1.8264 8.8117,0.4443 2.4249,4.5324 1.5044,10.0617 -2.1555,12.94033 -4.7301,3.721 -6.1415,3.45157 -11.4911,-2.19223 -4.8615,-5.1286 -6.0346,-4.1466 -2.7149,2.27248 2.2446,4.33997 6.7428,7.85532 10.0537,7.85532 1.2526,0 4.4265,-1.88687 7.0532,-4.19335 4.6782,-4.10726 4.7625,-4.34925 4.0901,-11.76185 -0.6214,-6.8541 -0.4468,-7.5678 1.8487,-7.5678 2.2857,0 2.4507,0.6414 1.6695,6.5256 -0.9409,7.0943 0.5976,10.46313 4.7789,10.46313 2.1553,0 2.2084,0.32391 0.5656,3.48897 -2.1396,4.12476 -1.0261,6.90817 4.25,10.6243 5.9838,4.21431 9.031,4.62887 12.0244,1.63591 4.2215,-4.22167 3.633,-11.71717 -1.257,-16.00804 -2.1651,-1.90007 -4.4767,-3.64817 -5.1354,-3.88477 -0.6596,-0.2366 -0.3954,-1.5218 0.5886,-2.8561 1.7035,-2.312 2.0558,-2.3239 7.4907,-0.2483 l 5.7023,2.1779 -0.068,7.04142 c -0.037,3.87638 0.6467,7.757 1.522,8.63373 2.4886,2.49271 9.2161,1.87177 13.4238,-1.23891 4.688,-3.46609 7.2001,-3.69981 5.8504,-0.54447 -2.1151,4.95606 -2.1414,9.58113 -0.068,12.74434 2.4337,3.71435 6.2256,4.1526 11.6124,1.34281 3.1708,-1.6542 3.7476,-1.65697 4.3738,-0.0249 0.397,1.03383 -0.2224,2.82426 -1.377,3.97868 -1.9279,1.92745 -1.9163,2.40875 0.14,5.89023 2.2053,3.73238 2.1806,3.85249 -1.5401,7.73582 -4.7203,4.92815 -5.4809,4.92222 -6.5728,-0.051 -0.691,-3.14333 -1.48,-3.90971 -3.6981,-3.5935 -2.2905,0.3263 -2.9431,1.5042 -3.4733,6.27229 -0.5489,4.9299 -1.2819,6.17382 -4.5742,7.76382 v 0 c -5.1075,2.46645 -31.0649,3.06852 -42.412,0.98378 l -8.434,-1.55002 -2.2781,-6.37061 c -0.6829,-1.90967 -1.1726,-3.39193 -1.8241,-4.2519 -0.6237,-0.82325 -3.0627,-2.17494 -4.4046,-1.20897 -0.7812,0.48292 -1.4213,2.60714 -1.4213,4.721 0,2.11396 -0.6064,3.84366 -1.3484,3.84366 -3.01,0 -10.0775,-3.8924 -15.2781,-8.41409 -5.2967,-4.60491 -5.4881,-5.03163 -4.7285,-10.57266 0.9272,-6.76582 -1.6935,-11.94378 -6.3824,-12.60932 -1.9927,-0.28275 -3.1204,-1.46276 -3.4193,-3.57917 l -0.4455,-3.15668 4.1398,3.48337 c 5.2046,4.37908 9.6513,4.42534 13.9316,0.14435 2.8365,-2.83633 3.2056,-4.06706 2.4479,-8.16766 -1.235,-6.67604 -8.1843,-18.45414 -11.8843,-20.13974 -2.3808,-1.0849 -3.7826,-0.9232 -6.3016,0.7274 -3.2051,2.0995 -3.2444,2.0769 -3.6483,-2.1014 -0.345,-3.5766 0.1945,-4.5247 3.5133,-6.1845 2.565,-1.2824 4.0558,-3.1149 4.3097,-5.2991 0.4332,-3.7195 -4.0705,-10.3835 -7.0178,-10.3835 -1.1027,0 -1.8655,-1.2939 -1.8655,-3.1629 0,-2.4216 0.8802,-3.3571 3.7559,-3.9887 2.0662,-0.4538 5.0881,-2.2415 6.7141,-3.973 2.672,-2.8434 2.7963,-3.5378 1.2918,-7.1702 -2.0044,-4.8393 -5.6604,-7.0379 -9.923,-5.968 -4.5851,1.1508 -4.1443,-3.03 0.7741,-7.3463 5.3613,-4.7043 5.2349,-10.0286 -0.4244,-17.9059 -4.0715,-5.6676 -4.4368,-7.075 -5.8218,-22.3731 -1.3134,-14.5127 -1.22,-17.2674 0.8363,-24.8191 2.7973,-10.2745 2.4522,-12.3529 -2.377,-14.3535 -2.0485,-0.8486 -4.007,-2.6215 -4.352,-3.9394 -1.1252,-4.3008 4.5177,-7.3363 6.0781,-3.27 0.4137,1.0782 1.6651,1.9601 2.7815,1.9601 2.5444,0 5.2155,-5.6252 4.0776,-8.5889 -0.789,-2.0561 -1.0627,-2.0381 -3.6856,0.2433 -2.7454,2.3879 -2.7392,2.3294 0.1699,-1.8581 1.6504,-2.3756 3.2462,-4.0726 3.5487,-3.7752 z m -38.5634,2.438 c -0.6255,0.067 -1.2346,0.3267 -1.7323,0.8245 -0.7666,0.766 -1.0225,2.3579 -0.5694,3.5375 1.0456,2.7264 5.2338,2.0002 5.813,-1.0081 0.3898,-2.0255 -1.6347,-3.5555 -3.5113,-3.3539 z m -6.0863,1.0572 c -0.2637,0.013 -0.5701,0.084 -0.9252,0.2259 -2.0748,0.8288 -1.7628,2.1371 -2.0485,3.4528 0.028,2.5187 4.209,3.6437 4.5263,-0.3117 0.06,-0.7481 0.2935,-3.4609 -1.5526,-3.367 z m 34.1654,20.0807 c 0.1562,0.026 0.3275,0.094 0.5071,0.2047 0.7185,0.4442 1.3068,1.0669 1.3068,1.3839 0,0.317 -0.5883,0.5762 -1.3068,0.5762 -0.7184,0 -1.3061,-0.6226 -1.3061,-1.3839 0,-0.5709 0.3305,-0.8598 0.799,-0.7809 z m 14.883,0.8581 c 0.7185,0 1.3067,1.7638 1.3067,3.9201 0,2.1563 -0.5882,3.9208 -1.3067,3.9208 -0.7194,0 -1.3074,-1.7645 -1.3074,-3.9208 0,-2.1563 0.588,-3.9201 1.3074,-3.9201 z m 10.4544,2.6134 c 0.7194,0 0.9859,0.6639 1.3074,1.3067 1.2742,2.5485 0.8227,3.3329 -1.3074,1.3074 -0.5206,-0.4951 -1.3067,-0.5885 -1.3067,-1.3074 0,-0.7187 0.5883,-1.3067 1.3067,-1.3067 z m -12.6354,18.4137 c -1.8619,-0.08 -3.7617,1.2742 -5.0738,4.4142 -2.6582,6.3636 -2.3593,10.6147 0.9663,13.7132 5.7731,5.3781 10.2093,2.157 10.2093,-7.4135 0,-6.466 -2.9986,-10.5811 -6.1018,-10.7139 z m -0.2906,5.1099 c 0.6401,0 1.1642,2.0584 1.1642,4.5742 0,4.3639 -1.5818,5.9935 -3.2294,3.3271 -1.0331,-1.6706 0.596,-7.9013 2.0652,-7.9013 z m -6.309,34.4702 c 0.1837,-0.1837 0.5218,0.729 1.1898,2.5625 0.9585,2.6315 0.9278,4.1305 -0.1033,5.1622 -1.0674,1.0673 -1.4287,0.081 -1.3503,-3.708 0.051,-2.5524 0.08,-3.8329 0.2638,-4.0167 z m 37.024,16.9464 c 0.1561,0.026 0.3275,0.093 0.5071,0.2041 0.7185,0.4442 1.3067,1.0669 1.3067,1.3839 0,0.317 -0.5883,0.5762 -1.3067,0.5762 -0.7184,0 -1.3067,-0.6226 -1.3067,-1.3839 0,-0.5709 0.3311,-0.8591 0.7996,-0.7803 z m -33.4958,7.8541 c 0.7008,0.073 1.4362,0.3889 2.1505,0.9819 2.5346,2.1033 2.227,4.7672 -0.733,6.3513 -4.0598,2.1729 -5.3135,1.6001 -5.3135,-2.428 0,-3.1695 1.7936,-5.1259 3.896,-4.9052 z m -1.8879,24.9112 c 0.1467,-0.07 0.3136,-0.015 0.4971,0.1755 1.2311,1.2768 1.8425,3.9222 1.57,6.7956 -0.3725,3.9342 -2.7678,1.1641 -2.7678,-3.2015 0,-2.2211 0.2606,-3.5599 0.7007,-3.7696 z m 54.8402,19.497 4.3925,1.8045 c 4.3234,1.7763 4.3548,1.847 1.975,4.4765 -3.0483,3.3681 -6.6816,5.3509 -7.4539,4.067 -0.3264,-0.5409 -0.2147,-3.0911 0.247,-5.6662 z m -48.1106,3.8088 c 0.364,-0.028 0.6926,0.01 0.9614,0.1083 2.7032,1.0372 8.8399,13.52852 8.3469,16.9899 -0.5029,3.52724 -4.3771,4.1224 -9.2847,1.42621 -6.1905,-3.4011 -8.1673,-12.69611 -3.5822,-16.84561 1.0578,-0.9575 2.4666,-1.5943 3.5586,-1.6788 z m 76.909,10.32253 c 1.0748,-0.008 2.8902,0.78584 5.6053,2.23324 3.4138,1.81993 3.9745,2.61453 2.6141,3.70552 -3.1404,2.51762 -7.5881,3.32101 -8.1565,1.47286 -1.5879,-5.1562 -1.8542,-7.39804 -0.063,-7.41162 z m -19.3315,2.03352 c 0.809,0.15174 1.6033,0.91579 3.0049,2.40811 2.5611,2.72626 2.7751,3.64919 1.494,6.46084 -1.7936,3.93564 -2.456,3.98368 -7.1049,0.51583 -4.4106,-3.29113 -4.5411,-5.46294 -0.4853,-8.12038 1.4589,-0.95569 2.2824,-1.41615 3.0913,-1.2644 z m -21.4956,7.8441 c -1.8422,-0.21228 -3.4447,0.62979 -6.907,3.13801 -2.9767,2.15639 -5.1869,4.62402 -4.9114,5.4839 0.2764,0.85985 3.4022,3.16691 6.9474,5.12673 7.4824,4.13686 10.5434,4.45982 13.8563,1.46167 4.8232,-4.36459 1.435,-11.47921 -6.9854,-14.66896 -0.7452,-0.2823 -1.3859,-0.47059 -1.9999,-0.54135 z m 60.4697,0.30365 3.8767,4.05769 c 3.7696,3.94497 3.8069,4.10997 1.3409,5.92136 -1.3957,1.02476 -3.0258,1.86301 -3.6227,1.86301 -2.0358,0 -3.8087,-5.85647 -2.6894,-8.88326 z m -61.6333,2.26749 c 0.2726,-0.0441 0.5376,-0.0223 0.8095,0.0603 0.3626,0.11017 0.7377,0.32914 1.1599,0.64528 3.1913,2.389 5.342,5.27095 5.342,7.15839 0,2.29237 -5.0087,2.07844 -9.6007,-0.41006 l -3.7204,-2.01612 2.9532,-3.14234 c 1.3518,-1.4394 2.2386,-2.16315 3.0565,-2.29549 z m -15.9035,4.56358 c -0.5149,-0.0902 -0.9626,0.003 -1.2819,0.32172 -0.3303,0.3298 0.2977,1.88132 1.3945,3.44787 2.7081,3.86628 1.402,6.46893 -3.2488,6.46893 -3.7216,0 -3.7843,-0.0999 -1.8201,-2.90467 4.2254,-6.03217 1.3731,-6.91216 -3.0434,-0.93896 -2.3553,3.18583 -2.6389,4.38008 -1.3932,5.88087 0.8665,1.04374 3.8088,1.88295 6.6002,1.88295 6.5317,0 9.9643,-4.33446 7.5796,-9.569 -1.0938,-2.40047 -3.2422,-4.319 -4.7869,-4.58971 z m 62.1977,2.02294 c -2.6641,-0.17609 -5.7108,0.0156 -8.271,0.63221 -3.7882,0.9121 -4.2367,7.92165 -0.7317,11.42703 3.1776,3.17694 6.3558,3.37899 12.5346,0.79709 3.7089,-1.54961 4.5319,-2.58905 4.5319,-5.72097 0,-2.10507 -0.9398,-4.60768 -2.0896,-5.56167 -1.0286,-0.8537 -3.31,-1.39761 -5.9742,-1.57369 z m -83.3748,2.98805 c 0.6959,0 1.2656,0.88196 1.2656,1.96011 0,1.07818 -0.2317,1.96068 -0.5139,1.96068 -0.2823,0 -0.8514,-0.8825 -1.2651,-1.96068 -0.4136,-1.07815 -0.1835,-1.96011 0.5134,-1.96011 z m 58.8002,1.24452 c -2.2937,0.0306 -4.6716,1.21699 -6.5075,3.55055 -3.2266,4.10201 -2.948,5.73403 1.3509,7.92748 8.5537,4.36408 15.8534,-0.93137 11.1595,-8.09487 -1.4996,-2.28896 -3.7091,-3.41388 -6.0029,-3.38316 z m 20.0191,0.0821 c 2.2691,0.0111 5.0075,0.59946 6.0856,1.30734 1.7417,1.14382 1.7417,1.42978 0,2.57363 -3.4844,2.28714 -8.7788,1.57197 -9.5267,-1.28683 -0.5772,-2.20861 -0.044,-2.61071 3.4411,-2.59414 z m -20.5218,2.18596 c 0.4995,-0.11132 0.9819,0.13546 1.5612,0.71495 0.838,0.83755 1.5227,2.28696 1.5227,3.22142 0,0.94093 -1.4581,1.69874 -3.2675,1.69874 -3.653,0 -3.9764,-0.9164 -1.4809,-4.20144 0.6483,-0.8531 1.165,-1.32236 1.6645,-1.43367 z m -18.2357,3.61666 c -0.7192,-0.0182 -1.5146,0.24207 -2.5158,0.77781 -2.7683,1.48191 -3.1353,4.12556 -1.5861,5.71849 1.0637,1.1036 3.7152,2.42016 6.1509,-0.0492 2.374,-2.37766 2.3765,-3.59048 0.01,-5.55485 -0.6539,-0.45916 -1.3933,-0.86568 -2.0583,-0.89229 z" fill="#030303" transform="translate(306.93964,288.91131) translate(-3288.1595,933.86148)"/>
</svg>