<?xml version="1.0" ?><svg xmlns="http://www.w3.org/2000/svg" width="255.05049mm" height="304.07858mm" viewBox="0 0 255.05049 304.07859">
    <path fill="#618345" d="m -524.5625,-525.61133 c 0,0 -10.49522,52.48166 0.26367,57.20508 11.02131,-6.29789 14.95703,-24.66602 14.95703,-24.66602 z m 65.60352,78.98633 c -0.78723,6.82272 17.05688,41.19909 23.61718,41.98633 6.5603,0.78723 2.625,-31.22852 2.625,-31.22852 z" transform="translate(-353.48356,-459.84574) matrix(0.56514861,0,0,0.56514861,749.8405,927.0867)"/>
    <path fill="#a5d67f" d="m -623.50942,-777.53255 c -1.68061,-0.0847 -3.21426,0.0223 -4.35547,0.3789 -4.56483,1.42652 -31.09947,23.96476 -31.38477,27.95899 -0.2853,3.99422 -1.99626,27.10392 5.99219,33.95117 l 25.39258,-9.98437 c 0,0 1.71151,-6.84799 0.57031,-17.68946 -1.14121,-10.84147 4.84953,-12.55372 8.84375,-18.25976 3.99423,-5.70604 8.84448,-9.1294 7.41797,-11.98242 -1.06988,-2.13976 -7.43474,-4.11895 -12.47656,-4.37305 z m -38.5918,74.8418 c -3.70892,0 -4.56641,10.84179 -4.56641,10.84179 0,0 9.70081,12.83924 14.26563,21.6836 4.56483,8.84436 33.0957,61.91015 33.0957,61.91015 l 7.13281,-35.66211 c 0,0 -22.25347,-35.37803 -23.10937,-37.08984 -0.85591,-1.71181 -23.10943,-21.68359 -26.81836,-21.68359 z m -28.80273,6.58984 c -1.79651,0.009 -3.08088,0.3287 -3.4375,1.11328 -1.42651,3.13832 19.4003,43.36615 23.39453,53.06641 3.99422,9.70026 41.65429,60.48437 41.65429,60.48437 0,0 1.14239,5.1352 16.83399,4.2793 0,0 -23.1093,-58.20013 -27.10352,-67.90039 -3.99423,-9.70026 -27.96056,-44.79391 -32.52539,-46.79102 -3.42362,-1.49783 -13.42687,-4.2787 -18.8164,-4.25195 z" transform="translate(-353.48356,-459.84574) matrix(0.56514861,0,0,0.56514861,749.8405,927.0867)"/>
    <path fill="#89b269" d="m -526.46978,-584.60916 c -1.28657,2.14428 -4.71742,20.15622 -3.8597,39.02586 0.85771,18.86965 33.02188,69.90347 51.89153,82.76914 18.86964,12.86567 105.49848,57.46665 130.3721,63.89948 24.87363,6.43284 83.19799,21.87164 83.19799,21.87164 0,0 -57.0378,-58.32436 -69.04575,-70.33232 -12.00796,-12.00796 -110.2159,-87.05769 -130.37211,-101.63878 -20.15621,-14.58109 -62.18406,-35.59502 -62.18406,-35.59502 z" transform="translate(-353.48356,-459.84574) matrix(0.56514861,0,0,0.56514861,749.8405,927.0867)"/>
    <path fill="#c3d788" d="m -598.76528,-753.47396 -13.97852,21.11328 23.96485,29.95703 15.40625,-18.54492 c 0,0 -5.13556,-13.12448 -7.41797,-17.97461 -2.28242,-4.85014 -17.97461,-14.55078 -17.97461,-14.55078 z m 78.77539,171.52735 c -8.26929,-0.21204 -7.70313,8.83593 -7.70313,8.83593 6.64659,8.86211 96.7452,77.54231 112.25391,92.3125 15.5087,14.7702 119.63765,92.31458 129.23828,98.22266 8.73807,5.37727 22.98438,5.24816 23.24609,5.18164 l 0.002,-0.002 -0.002,-0.002 c -0.0183,-0.005 -0.13231,-0.008 -0.35156,-0.008 -2.95404,0 -118.16249,-112.25393 -135.88672,-124.80859 -17.72423,-12.55467 -111.93082,-77.62362 -116.68359,-79.02149 -1.56933,-0.46156 -2.93196,-0.68064 -4.11328,-0.71093 z" transform="translate(-353.48356,-459.84574) matrix(0.56514861,0,0,0.56514861,749.8405,927.0867)"/>
    <path fill="#d7785f" d="m -621.50942,-776.49739 c -7.61129,-0.14925 -28.65374,19.85101 -32.38477,23.58203 -3.73102,3.73103 -5.22461,13.13281 -5.22461,13.13281 5.8204,-2.98482 25.38114,-22.14311 28.17603,-24.48047 3.59779,-3.00882 7.63332,-4.42082 2.01512,3.78067 -13.21545,19.29203 -5.41724,33.83261 -0.79076,33.83261 4.62647,0 -0.59639,-10.89434 1.34375,-17.46094 1.94013,-6.56661 10.14847,-17.31275 15.22266,-20.89453 5.0742,-3.58179 -0.74612,-11.34295 -8.35742,-11.49218 z m 82.54826,175.10833 c -2.62282,5.24564 -5.90239,22.62304 -3.60742,36.7207 2.29497,14.09767 10.83259,16.46979 10.83259,16.46979 0,0 3.9356,-19.67087 1.64063,-27.86718 -2.29497,-8.19632 -8.8658,-25.32331 -8.8658,-25.32331 z" transform="translate(-353.48356,-459.84574) matrix(0.56514861,0,0,0.56514861,749.8405,927.0867)"/>
    <path fill="#d9e977" d="m -641.45864,-777.48958 c -3.0174,-0.0251 -6.76974,3.22591 -9.23047,5.47265 -6.56194,5.99134 -9.4166,17.97193 -8.27539,19.39844 1.14121,1.42651 27.10547,-22.82422 27.10547,-22.82422 0,0 -4.57061,-2.00508 -9.59961,-2.04687 z m 36.13867,11.10351 c -4.85348,0.19504 -11.74072,3.42612 -19.4082,12.3418 -12.26798,14.26509 10e-4,22.82334 1.14257,24.53516 10.84149,-8.84436 27.67348,-30.52726 24.53516,-34.52149 -1.17687,-1.49783 -3.35744,-2.47249 -6.26953,-2.35547 z m 33.37305,44.00977 -16.54688,20.25781 c 0,0 25.10719,91.58125 29.38672,108.41406 4.27952,16.83281 16.80745,32.47749 16.80745,32.47749 -0.11802,-13.22788 -0.19913,-26.99877 2.60725,-33.79296 0,0 -7.14732,-35.77382 -10.57095,-48.3271 -3.42362,-12.55328 -21.68359,-79.0293 -21.68359,-79.0293 z m -88.39649,20.71484 c -0.25298,0.004 -0.47723,0.0548 -0.66992,0.15625 -4.1107,2.16353 -6.92383,11.6836 -6.92383,11.6836 0,0 -22.50018,-9.73597 -26.39453,-6.70704 -3.89435,3.02894 17.0918,42.18946 17.0918,42.18946 -4.1107,-14.06293 -7.35662,-22.71688 0.64844,-24.66406 8.00505,-1.94717 21.63476,8.65429 21.63476,8.65429 0,0 -5.84161,-15.14471 -1.94726,-19.03906 3.89435,-3.89435 18.60742,6.70703 18.60742,6.70703 0,0 -16.90292,-19.06646 -22.04688,-18.98047 z m 70.83203,8.19531 c -3.05229,0.14881 -7.06883,5.4077 -10.67968,10.4629 -4.27953,5.99133 -17.97476,77.60098 -17.68946,78.74218 l 9.98633,27.67383 c 0,0 6.56104,-5.70534 9.41406,-12.83789 2.85302,-7.13255 15.40762,-63.90745 16.54883,-73.03711 1.14121,-9.12966 -2.85387,-28.24492 -5.99219,-30.52734 -0.49036,-0.35663 -1.02265,-0.50412 -1.58789,-0.47657 z" transform="translate(-353.48356,-459.84574) matrix(0.56514861,0,0,0.56514861,749.8405,927.0867)"/>
    <path d="m -338.89315,-293.8303 c -15.3386,-5.8398 -19.8157,-8.3234 -21.0946,-11.7016 -0.4697,-1.2406 -3.0889,-5.7236 -5.8206,-9.9622 -10.3774,-16.1025 -16.1227,-35.39248 -22.6712,-76.11978 l -2.9735,-18.4928 -8.5597,-3.8405 c -4.7078,-2.1123 -9.2538,-3.8339 -10.1021,-3.8259 -0.8483,0.01 -5.5588,3.9081 -10.4679,8.6667 -11.0767,10.7373 -13.5314,11.028 -21.7465,2.5754 -6.5891,-6.7797 -15.911,-24.2032 -17.278,-32.2941 -0.7949,-4.7049 -1.9321,-5.9847 -10.4708,-11.7832 -5.2686,-3.5778 -14.7302,-11.4469 -21.02599,-17.48704 l -11.4468,-10.9821 -6.5129,13.6449 c -3.582,7.50464 -10.6422,19.86804 -15.6892,27.47424 -11.18,16.8491 -12.1638,19.181 -14.1345,33.5039 -2.0663,15.0184 -7.8619,46.2222 -9.5962,51.6667 -0.7592,2.3834 -1.9527,4.3334 -2.6521,4.3334 -2.3885,0 -2.8837,-4.1932 -1.4682,-12.4325 0.778,-4.5288 3.2851,-19.2587 5.5713,-32.7331 2.2862,-13.4743 5.2691,-26.6743 6.6286,-29.3333 1.3594,-2.659 7.6337,-11.6223 13.9426,-19.9186 6.309,-8.2962 11.4709,-15.8416 11.4709,-16.7675 0,-2.1027 6.2501,-20.67944 7.9917,-23.75324 0.7703,-1.3597 0.7973,-2.5742 0.067,-3.0255 -0.6709,-0.4146 -2.8551,2.8899 -4.8537,7.3433 -3.8451,8.568 -8.45,13.287 -12.9657,13.287 -1.5039,0 -4.1297,1.3109 -5.8352,2.91314 -1.7055,1.6023 -10.5234,8.3523 -19.5954,15 -26.2593,19.2423 -29.7763,22.3119 -30.6529,26.7536 -0.4342,2.2 -1.3993,16 -2.1447,30.6666 -1.5263,30.0357 -3.5594,41.7403 -9.264,53.33338 -4.7269,9.6066 -16.603,23.3334 -20.1873,23.3334 -4.0673,0 -3.0204,-3.2435 3.5153,-10.8911 12.4265,-14.5406 16.0103,-26.04148 19.892,-63.83698 1.1639,-11.3329 2.7803,-24.2053 3.5919,-28.6053 1.2693,-6.8811 1.7007,-9.5021 2.3297,-14.1553 0.3905,-2.8889 19.3414,-18.7911 34.176,-28.6781 l 17.5548,-11.69994 0.7836,-15.4001 c 0.4309,-8.47 1.4758,-19.8344 2.3219,-25.2544 1.3955,-8.9386 1.2603,-10.8592 -1.4548,-20.6666 -2.6009,-9.3953 -3.9124,-11.7734 -10.0072,-18.1457 -9.1742,-9.5917 -17.0854,-22.1157 -20.5536,-32.5376 -1.5336,-4.6084 -5.1218,-19.4227 -7.9737,-32.9206 -6.5843,-31.1623 -9.5295,-41.8131 -10.9453,-39.582 -0.5957,0.9388 -1.0923,3.7347 -1.1035,6.213 -0.028,6.2008 -6.0958,32.8363 -10.9713,48.1606 -4.7061,14.7921 -8.0879,21.9927 -12.5861,26.799 -2.8565,3.0522 -4.1214,3.417 -10.6003,3.0576 -4.0463,-0.2245 -9.2707,-1.4091 -11.6098,-2.6325 -2.3391,-1.2233 -7.4303,-2.8993 -11.3137,-3.7242 -7.6948,-1.6346 -8.8728,-4.1666 -1.9384,-4.1666 2.3839,0 4.3339,-0.3765 4.3334,-0.8367 0,-2.3238 -4.6909,-4.0827 -12.1543,-4.5597 -9.3887,-0.6 -11.8566,-2.0451 -9.1211,-5.3412 1.3614,-1.6404 3.0873,-1.98 6.9353,-1.3647 l 5.1228,0.8192 -2.8685,-3.8798 c -2.2725,-3.0738 -4.57,-4.2131 -11.0584,-5.4838 -8.2785,-1.6213 -11.5234,-3.2272 -11.5234,-5.7031 0,-0.8459 2.739,-1.0739 7.2759,-0.6057 l 7.276,0.751 -4.2075,-6.3583 c -3.5965,-5.4351 -4.8744,-6.3834 -8.8007,-6.531 -4.4685,-0.168 -9.5437,-3.332 -9.5437,-5.9499 0,-0.7666 2.1816,-0.9483 5.3334,-0.4443 2.9333,0.4691 5.3333,0.5063 5.3333,0.083 0,-3.9353 -9.7889,-11.0814 -18.0041,-13.1433 -3.0416,-0.7634 -3.5241,-0.5492 -2.8312,1.2565 0.4594,1.1973 0.8353,2.7426 0.8353,3.4341 0,0.6915 1.5361,1.8413 3.4136,2.5551 1.8996,0.7223 3.0225,1.9306 2.5318,2.7246 -0.485,0.7847 -1.8017,1.0737 -2.9261,0.6422 -1.6982,-0.6516 -1.9202,0.1405 -1.3115,4.6793 0.4031,3.0051 1.7425,6.5793 2.9765,7.9429 1.234,1.3635 1.8504,3.1153 1.3699,3.8928 -0.4805,0.7775 1.2112,6.0653 3.7595,11.7507 7.5112,16.7582 10.4466,26.9549 11.1814,38.8402 0.5641,9.1255 0.3532,11.0582 -1.1523,10.5599 -1.1564,-0.3828 -2.145,-3.5503 -2.6541,-8.5032 -1.5192,-14.7811 -6.643,-28.6417 -13.4562,-36.4016 -5.2675,-5.9994 -12.0822,-20.7752 -14.9542,-32.424 -4.8537,-19.6873 -3.8258,-64.7199 1.5713,-68.8339 2.9755,-2.2681 13.4551,-1.0282 21.5534,2.5503 6.3747,2.8169 8.0356,2.0723 8.0766,-3.6208 0.011,-1.5602 0.9759,-3.6297 2.1437,-4.5989 5.8696,-4.8713 31.9189,18.5035 44.5019,39.9328 l 7.2919,12.4183 1.516,-5.1244 c 7.4685,-25.2451 8.995,-28.9817 14.1037,-34.524 l 5.251,-5.6967 -4.2865,-7.1185 c -5.2108,-8.6535 -12.9178,-18.4395 -15.2168,-19.3217 -0.9285,-0.3563 -4.5974,1.4218 -8.1531,3.9514 -11.4025,8.1122 -17.7867,10.7449 -26.2749,10.8353 -7.3058,0.078 -8.0565,-0.2117 -11.6258,-4.4841 -7.1002,-8.4991 -8.3065,-12.6472 -7.5583,-25.9922 0.8908,-15.8885 4.77871,-25.1072 12.3471,-32.6494 4.30364,-4.28875 10.45059,-8.00239 14.9805,-8.3773 l 5,-0.4138 -21,-21.2281 c -11.55,-11.6755 -21,-21.4653 -21,-21.7552 0,-1.8474 18.5252,14.6294 31.6864,28.1827 13.2025,13.5959 16.3013,16.1309 19.9705,16.3378 2.3887,0.1347 4.3431,-0.2547 4.3431,-0.8651 0,-2.8173 -10.0325,-27.0131 -14.8413,-35.7933 -2.9484,-5.3834 -5.069,-10.0796 -4.7125,-10.4361 1.832,-1.832 19.2011,28.4517 23.723,41.3619 1.39,3.9684 2.9374,5.5932 6.7982,7.1379 7.1495,2.8607 12.4967,9.503 13.6062,16.9016 0.5071,3.3814 0.5896,6.6858 0.1834,7.3431 -0.4062,0.6572 0.6987,1.5557 2.4555,1.9966 8.3226,2.0889 23.8021,26.7332 31.4049,49.9988 2.2221,6.7998 6.754,25.6654 10.0709,41.9236 5.4212,26.5726 11.613,52.253 17.5713,72.8773 1.8958,6.5622 2.2339,6.9923 3.2778,4.1701 1.0001,-2.7035 1.7719,-3.0266 5.48,-2.2941 11.6406,2.2996 40.20399,19.195 80.98259,47.9018 44.31,31.1928 63.6973,46.4023 101.5521,79.66884 13.4463,11.8165 34.8697,29.914 47.6075,40.2166 12.7378,10.3027 26.6277,22.1257 30.8666,26.2734 7.6782,7.5131 14.3195,18.6965 12.6792,21.3506 -1.4686,2.3763 -8.5441,1.559 -21.8909,-2.5286 -22.452,-6.8763 -73.8244,-21.5132 -74.1286,-21.1205 -0.5865,0.757 15.4908,43.2989 19.8321,52.47748 3.1553,6.671 6.2697,10.9141 10.6384,14.494 3.3973,2.7839 6.1769,5.5893 6.1769,6.2343 0,2.593 -5.0289,0.8874 -11.3333,-3.8438 -8.3363,-6.2562 -10.5306,-10.7416 -21.924,-44.81458 l -8.8603,-26.4976 -14.5535,-5.1872 c -8.0044,-2.8529 -14.9429,-5.0289 -15.4189,-4.8356 -1.0319,0.419 8.808,44.5029 13.8406,62.00788 1.9485,6.7778 5.944,17.0991 8.8788,22.9361 2.9348,5.8371 5.0216,11.4322 4.6374,12.4336 -0.4962,1.2931 4.0495,3.7565 15.6839,8.4995 10.7192,4.3699 16.5317,7.4499 16.8138,8.9098 0.6132,3.1736 -1.3672,2.8073 -17.0004,-3.1448 z m 57.1566,-95.11448 c -1.0564,-0.9682 -8.8207,-7.6756 -17.254,-14.9054 -17.6669,-15.1457 -25.2862,-22.0133 -42.0763,-37.9252 -34.2766,-32.48364 -64.0699,-57.12334 -114.0429,-94.31584 -34.9986,-26.0478 -68.01529,-47.3398 -70.12949,-45.2256 -1.334,1.334 -2.6953,17.7966 -2.0765,25.1119 0.4853,5.7365 1.4146,8.3091 3.8167,10.5658 3.3161,3.1153 4.2733,8.5964 1.6538,9.4696 -2.2777,0.7592 8.2749,23.5447 16.925,36.545 15.80229,23.7494 32.76899,37.93924 67.26299,56.25434 6.9667,3.6991 15.236,7.7413 18.3763,8.9827 l 5.7097,2.2571 7.858,-7.4953 c 5.3136,-5.0683 8.9528,-7.4953 11.239,-7.4953 3.6994,0 4.5644,2.0957 7.404,17.9383 0.7826,4.366 1.8707,8.3449 2.418,8.8419 1.7456,1.5853 22.8967,8.8462 48.3284,16.5904 13.5666,4.1312 31.5666,9.7364 40,12.456 8.4333,2.7196 15.5976,4.7569 15.9206,4.5273 0.323,-0.2296 -0.277,-1.2096 -1.3333,-2.1777 z m -152.4207,-30.3438 c -0.4857,-5.2255 -1.1877,-9.9938 -1.5599,-10.5961 -1.089,-1.762 -18.36,-10.5941 -19.1574,-9.7968 -2.2578,2.2578 16.3974,29.8938 20.1792,29.8938 0.9555,0 1.1318,-3.1125 0.5381,-9.5009 z m 12.5,-3.8836 c 0,-1.0284 -5.5631,-2.8301 -6.34,-2.0533 -0.251,0.2511 -0.055,2.0551 0.4352,4.0089 0.8492,3.3836 1.0108,3.4447 3.3982,1.2841 1.3787,-1.2477 2.5066,-2.7055 2.5066,-3.2397 z m 28,-6.6155 c 0,-2.9333 -0.4171,-5.3333 -0.927,-5.3333 -0.5099,0 -2.621,1.6229 -4.6914,3.6065 l -3.7644,3.6065 3.0248,1.6796 c 5.1435,2.8561 6.358,2.1762 6.358,-3.5593 z m -121.29799,-56.75374 2.7455,-6.7644 -5.8798,-11.0046 -5.8799,-11.0046 -0.6206,18.298 c -0.3413,10.0638 -0.3305,19.8152 0.024,21.6698 l 0.6446,3.3718 3.1104,-3.9007 c 1.7107,-2.1455 4.3458,-6.9448 5.8558,-10.6653 z m -20.6888,-91.7674 c -7.0692,-16.0132 -14.8788,-43.5001 -24.5557,-86.4265 -5.0597,-22.4445 -10.3871,-40.5663 -13.8921,-47.2559 -1.6502,-3.1495 -1.7309,-3.0961 -7.3296,4.8428 -5.4569,7.738 -5.5472,8.0273 -2.5039,8.0273 3.9378,0 5.3106,1.274 3.5972,3.3385 -2.1421,2.5811 0.8581,15.5651 8.6266,37.333 3.9266,11.0027 9.9755,31.7027 13.4422,46 6.7958,28.028 10.6557,38.1015 18.7502,48.9352 l 5.1853,6.94 0.8436,-7.4611 c 0.6875,-6.0803 0.2871,-8.7216 -2.1638,-14.2733 z m -80.1014,-5.1456 c -2.0913,-6.7133 -3.2462,-9 -4.5454,-9 -0.7515,0 -1.3664,-1.5272 -1.3664,-3.3938 0,-4.1973 -28.0471,-60.2565 -37.0305,-74.0147 -7.7154,-11.8163 -14.29,-17.6424 -24.0195,-21.2852 -8.1129,-3.0376 -9.6166,-3.2164 -9.6166,-1.1439 0,2.0872 19.7982,41.3013 30.3529,60.1198 11.1135,19.815 33.058,49.2716 37.6471,50.5346 1.8333,0.5046 4.7237,0.9772 6.4231,1.0503 2.6115,0.1123 2.9452,-0.3315 2.1553,-2.8671 z m 13.9605,-12.36 c 11.187,-33.7369 18.2333,-75.1121 15.2944,-89.8067 -1.0856,-5.4279 -2.4144,-5.2551 -6.4107,0.8334 -4.4893,6.8397 -9.2435,23.9376 -15.6638,56.3333 l -5.417,27.3333 3.114,9 c 1.7127,4.95 3.51,9 3.994,9 0.484,0 2.7741,-5.712 5.0891,-12.6933 z m -15.2676,-30.9495 2.1306,-12.2799 -5.5422,-11.0386 c -6.1929,-12.3347 -11.0842,-19.9302 -19.0308,-29.5524 -6.5165,-7.8907 -20.5633,-19.797 -22.5677,-19.1289 -0.797,0.2657 -1.8657,2.0404 -2.3748,3.9439 -0.7621,2.8499 -0.097,4.2468 3.7679,7.9131 7.2967,6.9217 15.5702,20.5424 27.2261,44.8222 5.8871,12.2633 11.2642,23.73 11.949,25.4817 0.6849,1.7517 1.4851,2.945 1.7783,2.6518 0.2932,-0.2932 1.4918,-6.059 2.6636,-12.8129 z m -59.551,-19.6777 c 0.2129,-0.1883 -2.4752,-6.7671 -5.9735,-14.6196 -6.1526,-13.8107 -6.3962,-14.1392 -7.4555,-10.051 -0.9223,3.5593 -0.5057,4.9681 2.6401,8.9267 5.9239,7.4546 6.3639,8.2136 5.3495,9.228 -0.527,0.5269 -2.3444,-0.3443 -4.0388,-1.9361 -1.6944,-1.5918 -3.4543,-2.8941 -3.9109,-2.8941 -1.6586,0 0.8347,10.044 2.8901,11.6425 1.7372,1.351 8.8643,1.1498 10.499,-0.2964 z m 98.8951,-72.7117 c 0.1085,-1.4807 -12.152,-22.0123 -14.8766,-24.9124 -3.8635,-4.1125 -5.5081,-3.8531 -8.1031,1.278 -1.2054,2.3833 -3.2103,5.9089 -4.4554,7.8346 -2.24,3.4642 -2.2059,3.5615 3.2277,9.2163 3.0204,3.1434 7.1642,8.9259 9.2085,12.8502 l 3.7168,7.135 5.6154,-6.3514 c 3.0885,-3.4933 5.6385,-6.6659 5.6667,-7.0503 z m -60.9118,-8.3012 c 6.1573,-2.8736 8.8118,-4.8041 8.3304,-6.0586 -2.4102,-6.2809 -2.2199,-12.382 0.5656,-18.1361 2.7305,-5.6406 9.749,-13.1436 13.4481,-14.3767 1.0098,-0.3366 1.2981,-1.622 0.7506,-3.3469 -0.6369,-2.0067 -2.2931,-2.9728 -5.8436,-3.4087 -4.7001,-0.5771 -5.656,0.038 -18.6007,11.9733 -10.9512,10.0972 -13.9331,13.6482 -15.1002,17.9823 -1.3032,4.8397 -0.6789,17.2488 1.0108,20.0924 0.8595,1.4464 4.8165,0.2364 15.439,-4.721 z m 21.1682,-13.9999 c 6.1255,-6.4527 13.1282,-16.8935 13.1282,-19.5736 0,-6.8206 -15.7325,3.1087 -19.6128,12.3784 -1.7962,4.291 -1.2898,12.1952 0.7814,12.1952 0.5263,0 3.0927,-2.25 5.7032,-5 z m -19.8665,-33.2265 c 0.2628,-2.102 -4.4803,-1.9874 -7.8012,0.1886 -4.0305,2.6408 -8.5256,9.7007 -8.5325,13.4006 0,2.1669 1.5847,1.2066 8.0952,-4.8931 4.455,-4.1741 8.1624,-8.0873 8.2385,-8.6961 z" transform="translate(-353.48356,-459.84574) matrix(0.56514861,0,0,0.56514861,749.8405,927.0867)"/>
</svg>