<?xml version="1.0" ?><svg xmlns="http://www.w3.org/2000/svg" width="229.7598mm" height="121.27534mm" viewBox="0 0 229.7598 121.27534">
    <path fill="#b6ce72" d="m 1342.7814,676.08859 c 1.0591,-5.83694 4.9429,-7.17851 9.2501,-7.60216 4.3074,-0.42366 37.5652,-1.9535 37.5652,-1.9535 l 18.2412,-1.92998 c 0,0 -16.4052,-19.67622 -17.3469,-20.33521 -0.9414,-0.65903 -13.0394,-3.0597 -8.6145,-8.61423 4.4248,-5.55455 14.546,3.71869 14.546,3.71869 l 6.143,4.58955 11.2978,10.09703 c 0,0 -8.2849,-22.35936 -6.2138,-24.05396 2.0714,-1.69461 4.3781,0.16475 6.7786,3.22445 2.4009,3.05969 19.7007,27.56082 19.7007,27.56082 l 53.3349,1.34157 48.7453,-3.15383 c 0,0 7.5554,-8.23767 15.205,-6.84903 7.6497,1.38864 8.1439,17.48737 6.7316,23.25373 -1.4121,5.76632 -7.8849,20.35876 -12.4746,19.84094 -4.5897,-0.51779 -11.6038,-7.39034 -11.6038,-7.39034 l -44.132,10.63834 c 0,0 -45.7089,7.76692 -62.7499,7.50803 -17.0408,-0.2589 -34.717,-3.83641 -40.2249,-4.68368 -5.5075,-0.84731 -24.3371,-6.91965 -29.2565,-9.13204 -4.9192,-2.2124 -16.6878,-8.4024 -14.9225,-16.07519 z" transform="translate(-186.00212,56.885428) translate(-1155.3727,-678.60371)"/>
    <path fill="#847e55" d="m 1410.1415,630.03085 c -3.9931,0.15762 -3.1525,3.46737 -2.2066,6.61975 0.9456,3.1524 4.8865,8.51163 4.8865,8.51163 l 8.5116,-2.31149 c 0,0 -7.1981,-12.9775 -11.1915,-12.81989 z m -25.061,4.44882 c -2.3471,0.0735 -4.4808,2.54213 -3.8897,7.31997 0.3481,2.81354 4.3966,0.49549 8.272,3.00592 3.4423,2.22982 7.911,6.03126 7.911,6.03126 l 9.1948,-0.42065 c 0,0 -10.0355,-10.56017 -11.822,-12.66176 -1.7864,-2.10158 -6.6728,-2.99498 -9.1948,-3.25768 -0.1577,-0.0164 -0.3148,-0.022 -0.4713,-0.0171 z m 90.5071,26.47177 c -14.2555,-0.16593 -49.736,2.12701 -49.736,2.12701 l 23.1185,19.22983 c 0,0 19.9134,-0.84087 25.2202,-2.62723 5.3067,-1.78636 14.659,-7.61838 15.7623,-10.24537 1.1036,-2.627 -1.6812,-7.14526 -9.7203,-8.24859 -1.0049,-0.13792 -2.6082,-0.21194 -4.6447,-0.23565 z m -66.5494,4.59662 -21.7513,1.37363 c 0.9385,15.3206 24.2734,13.1613 35.4647,13.70504 z" transform="translate(-186.00212,56.885428) translate(-1155.3727,-678.60371)"/>
    <path d="m 1457.4967,740.23126 c -1.2772,-2.3568 -1.4724,-4.63 -1.2577,-14.6356 0.1606,-7.5335 0.7072,-13.1297 1.4989,-15.3736 0.6846,-1.9407 1.0799,-3.6932 0.8783,-3.8947 -0.202,-0.202 -4.5226,0.051 -9.6026,0.5631 -12.941,1.3026 -36.097,1.1286 -46.286,-0.3478 -12.9546,-1.8769 -12.1722,-2.091 -13.2956,3.6385 -1.2767,6.5108 -2.4557,9.4245 -4.0634,10.0415 -1.7698,0.6792 -3.6784,-1.0273 -3.666,-3.2781 0,-1.818 1.8341,-9.1044 2.9682,-11.8568 0.4384,-1.064 -0.1265,-1.8182 -2.1487,-2.8635 -3.3372,-1.7256 -2.3481,-3.5248 1.1967,-2.177 3.6759,1.3974 27.2676,3.4822 39.091,3.4545 5.9547,-0.024 16.4289,-0.5822 23.276,-1.2624 6.8471,-0.6803 13.0892,-1.2483 13.8712,-1.2624 1.1816,-0.024 7.5931,-7.6566 7.5931,-9.0424 0,-0.2361 -3.7061,-0.4274 -8.2356,-0.4274 -6.8776,0 -8.5883,0.2772 -10.3734,1.6815 -2.0351,1.6009 -3.6078,1.6788 -32.7613,1.6255 -18.7149,-0.034 -29.2882,-0.3351 -27.1895,-0.7734 1.8891,-0.3945 8.2638,-0.7905 14.1666,-0.8798 5.9026,-0.09 15.1753,-0.4016 20.6057,-0.6934 l 9.8738,-0.5311 -3.9434,-2.5982 -3.9437,-2.5983 -12.3693,1.0319 c -11.9741,0.999 -29.7693,1.5055 -29.0401,0.8262 0.1971,-0.1825 7.8917,-0.971 17.0998,-1.7506 9.2084,-0.7797 17.8526,-1.6369 19.2099,-1.9049 l 2.4676,-0.4872 -2.5791,-2.5793 -2.5793,-2.579 -15.3426,0.9873 c -8.4386,0.543 -16.3089,1.1707 -17.4895,1.3948 -1.5364,0.2916 -1.7806,0.1874 -0.8584,-0.366 0.7082,-0.4254 6.1173,-1.2125 12.0201,-1.7492 5.9026,-0.5369 12.812,-1.1945 15.3543,-1.4612 l 4.6222,-0.485 -1.8304,-1.8305 c -1.7299,-1.7299 -2.5941,-1.8229 -15.7837,-1.697 -9.752,0.092 -12.9193,-0.092 -10.5189,-0.6199 1.8888,-0.414 6.7184,-0.8209 10.7321,-0.9039 4.0138,-0.083 8.3425,-0.3953 9.6195,-0.6934 2.2892,-0.5349 2.3001,-0.5705 0.7873,-2.5637 -1.4749,-1.9434 -1.7538,-1.9872 -7.2302,-1.1344 -5.2321,0.8143 -14.708,0.2264 -16.7577,-1.0409 -0.9547,-0.5899 -4.4739,15.5799 -7.9206,36.3932 -4.2995,25.9634 -4.072,25.5416 -15.5625,28.835 -10.2293,2.9317 -15.505,3.4773 -16.937,1.7518 -0.6269,-0.7555 -0.9238,-1.9358 -0.6603,-2.6231 0.3795,-0.9884 10.1792,-4.5161 21.8209,-7.8547 0.5904,-0.1704 1.0733,-1.479 1.0733,-2.9106 0,-2.187 -0.3347,-2.6026 -2.0957,-2.6026 -3.3311,0 -3.4112,-1.5654 -0.1777,-3.4733 4.0899,-2.413 4.6906,-4.2539 1.3877,-4.2539 -3.4956,0 -3.2802,-1.9745 0.4563,-4.179 3.9688,-2.3418 4.2543,-5.4723 0.4294,-4.7072 -3.6531,0.7304 -3.3241,-1.0409 0.8586,-4.6209 3.6596,-3.1328 4.7794,-6.7827 1.7893,-5.8338 -2.598,0.8246 -3.1892,-1.3385 -0.8528,-3.1208 3.8582,-2.9431 4.2148,-3.3617 4.2148,-4.9466 0,-0.9151 -0.8073,-1.7942 -1.9137,-2.0835 -1.8908,-0.4943 -1.882,-0.5342 0.7345,-3.3197 3.4292,-3.6511 4.3981,-6.1443 2.1047,-5.4163 -3.0731,0.9752 -2.9363,-1.4143 0.2478,-4.3314 3.4946,-3.2013 3.9566,-5.1019 1.4026,-5.7699 -2.4053,-0.6289 -2.1403,-1.9629 0.8262,-4.1559 3.3757,-2.4958 4.9917,-9.4656 3.4618,-14.9304 -1.2251,-4.3757 -0.467,-8.6851 1.7353,-9.8636 4.3781,-2.3432 11.4409,-0.2835 16.3317,4.7624 1.5842,1.6345 3.1481,2.9719 3.475,2.9719 0.8063,0 1.9538,-5.8841 1.7131,-8.7842 -0.1582,-1.9158 0.35,-2.6048 2.7827,-3.7648 4.584,-2.186 6.7691,-1.1297 11.3068,5.4655 2.1933,3.1875 6.2723,8.8864 9.065,12.6643 2.7925,3.7777 5.6829,8.1254 6.423,9.6618 l 1.3458,2.7933 21.2081,-0.2166 c 15.4726,-0.1582 22.2036,0.083 24.889,0.8973 2.8483,0.8627 5.9555,0.9233 13.7372,0.2684 5.5309,-0.4656 17.0107,-1.3181 25.5106,-1.8947 14.9983,-1.0173 15.5364,-1.119 18.2306,-3.4493 1.5269,-1.3206 4.3671,-2.87758 6.3117,-3.4603 1.3296,-0.39844 2.8084,-0.24052 3.7239,-1.21019 1.4982,-1.58691 2.5628,-5.48175 6.9664,-14.49761 3.9351,-8.05669 6.8634,-12.478 7.211,-13.1973 0.3946,-0.81654 1.7309,-0.35846 1.3611,0.92535 -1.2009,4.16938 -6.0975,13.67479 -9.1443,20.28095 -3.786,8.20885 -3.6035,7.37191 -2.2327,7.8219 0.9511,0.31221 2.0414,0.81353 2.2285,0.52697 0.9878,-1.513 3.8222,-6.03737 5.7812,-8.79997 4.2487,-5.99134 7.5184,-11.17983 9.3491,-13.31247 1.0645,-1.24005 1.457,-0.84286 1.7576,-0.54953 0.648,0.63234 -1.8835,5.1437 -9.9124,17.6647 l -4.566,7.1204 1.5243,3.1824 c 3.4895,7.2847 2.1767,20.4986 -3.1591,31.801 -2.6927,5.7037 -6.1501,8.7204 -10.0015,8.7265 -2.699,0 -6.9586,-2.6915 -9.3378,-5.9095 -1.663,-2.2492 -2.223,-2.4904 -4.2803,-1.843 -1.3018,0.4098 -3.4321,0.9781 -4.7339,1.2631 l -2.3668,0.5181 3.3695,4.2628 c 4.0325,5.1014 5.6085,7.84013 5.8766,16.3117 0.179,5.6576 0.1688,6.1724 4.3798,7.0273 4.5396,0.92161 6.5375,2.1787 5.2498,3.7302 -1.4366,1.7311 -4.9108,2.2413 -8.5644,1.2575 -2.8713,-0.7732 -3.6409,-1.5113 -5.1746,-4.9614 -0.9911,-2.2291 -2.2754,-6.7983 -2.8541,-10.1537 -0.7043,-4.0826 -2.0351,-7.7245 -4.0228,-11.0091 -2.7438,-4.5341 -3.1619,-4.8702 -5.4835,-4.4078 -1.3821,0.2753 -2.6328,0.6204 -2.7793,0.7667 -0.1461,0.146 1.0672,2.7504 2.6968,5.7865 3.8877,7.2433 5.1471,10.53749 2.637,22.6086 -1.8438,8.86685 -1.3532,10.96449 3.3238,11.576 5.1876,0.67828 6.2333,1.9677 4.2639,3.9371 -1.1886,1.1886 -2.5515,1.42 -6.6242,1.1256 -4.3333,-0.3135 -5.4543,-0.7509 -7.2375,-2.8242 -1.9127,-2.2235 -2.0582,-2.9407 -1.5542,-7.6629 0.3057,-2.8655 0.9774,-7.4315 1.4926,-10.1466 0.5153,-2.7151 0.7433,-6.5787 0.5067,-8.5858 -0.5519,-4.684 -5.0619,-13.989 -6.7069,-13.8374 -0.6834,0.063 -7.157,1.415 -14.3855,3.005 -13.0262,2.8647 -13.1384,2.9095 -12.6609,5.0369 0.2651,1.1806 0.8068,5.33243 1.5201,9.1738 1.0333,5.56457 1.7312,7.47051 4.668,7.9413 4.1432,1.0434 5.1902,2.1629 3.7008,3.9576 -1.4905,1.7959 -4.6943,1.5425 -8.6155,-0.6815 -3.7602,-2.1324 -4.3686,-3.5683 -6.0024,-14.1635 -0.5277,-3.4218 -1.2714,-6.4144 -1.6528,-6.65 -0.3814,-0.2361 -1.9399,-0.1801 -3.4637,0.1266 -2.3024,0.4604 -3.1043,1.2935 -4.7485,4.933 -1.7402,3.8514 -2.0183,6.0381 -2.3082,18.1514 -0.1801,7.5751 -0.6179,14.2397 -0.9708,14.8104 -1.1349,1.8365 -3.0318,1.1113 -4.5835,-1.7525 z m 24.2198,-42.7404 c 5.8328,-0.8886 15.68,-3.1807 16.8981,-3.9335 0.3305,-0.2044 -0.053,-1.5332 -0.8506,-2.9533 -1.0511,-1.8699 -1.9251,-2.4701 -3.1688,-2.1761 -0.9443,0.2239 -5.8556,0.8818 -10.9139,1.4639 l -9.1967,1.0582 -1.5055,3.4983 c -0.8282,1.9239 -1.6615,3.8286 -1.8519,4.2326 -0.1898,0.404 0.762,0.5074 2.1167,0.2312 1.3544,-0.2775 5.1673,-0.9166 8.4726,-1.4201 z m 23.1251,-8.1303 c -0.4602,-2.4532 -0.3023,-3.0049 0.8606,-3.0049 0.7834,0 2.3851,1.0365 3.5591,2.3033 l 2.1347,2.3033 9.9825,-2.2984 c 5.4903,-1.2639 10.1079,-2.4236 10.261,-2.5767 0.1533,-0.1533 -0.185,-2.4836 -0.7494,-5.1785 -0.8131,-3.877 -1.3035,-4.7816 -2.3483,-4.3326 -5.2739,2.2656 -8.2485,2.8402 -14.8707,2.8733 -8.0991,0.041 -11.7454,-0.9995 -16.6686,-4.7546 -1.5601,-1.1901 -2.8366,-1.9993 -2.8366,-1.7985 0,0.9601 2.9218,8.4794 5.3134,13.674 1.9249,4.181 3.1218,5.7956 4.2971,5.7956 1.3967,0 1.5486,-0.4286 1.0652,-3.0053 z m 44.6673,0.3147 c 2.5386,-3.0169 5.4976,-8.4984 6.529,-12.0955 l 0.6844,-2.3856 h -5.0741 c -5.5373,0 -11.9778,-2.0952 -11.9778,-3.8969 0,-0.8713 0.6462,-0.9494 2.7847,-0.3361 3.1457,0.9022 9.5554,1.03438 12.4553,0.2575 1.7043,-0.45659 1.7112,-1.72558 1.7865,-3.81628 -0.4213,0.25945 -1.0858,0.22712 -1.7587,0.0553 -1.6694,-0.42626 -2.3727,-1.99524 -2.0604,-3.61844 0.1756,-0.91264 1.0773,-2.70615 3.4859,-2.42344 -0.013,-0.63251 -0.3247,-1.20299 -0.8113,-2.25493 -1.643,-3.55199 -5.1131,-6.028 -6.8301,-4.603 -0.6834,0.5673 -2.2442,1.1412 -3.4681,1.2755 -3.6032,0.3957 -6.3502,3.7663 -8.2994,10.1838 -2.9726,9.7859 -0.9265,19.9247 4.9539,24.5503 3.1415,2.471 4.9489,2.2588 7.6002,-0.8922 z m -5.3737,-23.2385 c -2.254,-2.2541 -0.1753,-6.4446 2.6581,-5.3574 1.8555,0.7121 2.4783,2.7733 1.4296,4.7327 -1.0098,1.8871 -2.5847,2.1278 -4.0877,0.6247 z m -99.7102,23.323 c 1.0767,-0.5763 1.6608,-1.7966 1.6608,-3.471 0,-4.6775 -11.0437,-14.4855 -31.3381,-27.8318 -4.4046,-2.8964 -11.1293,-8.5169 -15.6393,-13.0707 -8.3999,-8.4819 -11.2688,-10.28 -14.0379,-8.7978 -1.7803,0.9528 -2.0736,2.2823 -0.9086,4.1201 0.5798,0.9146 0.8356,0.8593 1.271,-0.275 0.7707,-2.0091 4.2332,-1.3143 4.8103,0.9654 0.2553,1.0096 2.3963,3.3759 4.7572,5.2582 5.789,4.6154 11.3114,10.0631 15.4449,15.236 10.7843,13.496 18.7745,21.0703 27.9133,26.4604 4.4998,2.654 3.9661,2.5303 6.0664,1.4062 z m 17.1837,-0.31759 c 4.6129,0.0559 8.2146,-0.21097 8.5606,-0.69628 1.1798,-1.65515 2.5513,-1.12813 3.3077,-0.72893 1.2201,0.6425 20.586,-1.2933 21.4526,-2.1444 0.185,-0.1801 -0.2991,-2.5858 -1.0732,-5.345 -0.7742,-2.7589 -1.4075,-6.0309 -1.4075,-7.2706 0,-3.3494 -1.4651,-3.6453 -3.8743,-0.7822 -2.994,3.5584 -9.5593,7.5914 -15.7746,9.6902 -4.2131,1.4228 -6.8788,1.7207 -13.275,1.4832 l -8.0034,-0.2972 c 0.4103,1.56185 1.0305,2.95085 0.2009,5.53378 0.1159,1.01053 5.2193,0.50087 9.8862,0.55743 z m 6.405,-10.40031 c 5.7293,-1.459 14.1701,-5.4496 18.0198,-8.5193 2.4489,-1.9526 2.4868,-2.0889 1.0307,-3.6979 -3.2023,-3.5384 -7.4458,-4.0688 -32.6072,-4.0748 -13.1039,0 -23.8256,0.068 -23.8256,0.1606 0,0.09 3.6718,3.1186 8.1597,6.7281 4.4878,3.6098 8.6413,7.2414 9.2298,8.0704 0.5885,0.8289 1.6493,1.7309 2.3578,2.0044 2.5579,0.9876 12.628,0.6046 17.635,-0.6705 z m 55.8723,-5.6533 6.1093,-1.8108 1.4371,-5.1698 c 0.7907,-2.8433 1.2675,-5.3399 1.0596,-5.5475 -0.2068,-0.2068 -3.4104,0.054 -7.117,0.5798 -3.7069,0.5264 -13.528,1.1893 -21.8247,1.4731 l -15.0855,0.5157 6.929,4.7225 c 3.8107,2.5975 8.0878,5.2294 9.5043,5.8488 3.8655,1.69 12.1184,1.424 18.9879,-0.6118 z m -132.423,-8.3848 c 2.1013,-0.461 2.691,-1.251 3.9288,-5.2645 l 1.4566,-4.7222 -2.572,-3.649 c -1.4147,-2.0068 -2.885,-3.6489 -3.2676,-3.6489 -1.7148,0 -5.8821,11.8911 -5.8821,16.7847 0,1.3054 1.9594,1.46 6.3363,0.4999 z m 12.5781,-2.6407 c -0.4346,-0.8124 -1.3444,-1.9367 -2.0214,-2.4987 -1.0093,-0.8377 -1.3128,-0.5941 -1.6852,1.3534 -0.5892,3.0824 -0.2434,3.5285 2.3515,3.0325 1.7209,-0.3291 1.9891,-0.7024 1.3551,-1.8872 z m 26.0354,-3.2135 c 0.3244,-0.3244 -0.7296,-1.9665 -2.342,-3.6489 -3.5871,-3.7429 -14.1613,-17.7533 -16.1665,-21.42 -0.8046,-1.4708 -1.8134,-2.6743 -2.242,-2.6743 -1.0053,0 -0.219,4.2146 1.2028,6.4393 1.6542,2.59 4.7614,10.8658 4.9369,13.1491 0.2942,3.8283 12.2591,10.5063 14.6108,8.1548 z m -19.6528,-13.3621 c -1.1541,-2.4792 -2.1023,-4.9904 -2.1069,-5.5808 -0.024,-2.1614 -1.699,-0.9942 -2.4747,1.7172 -0.7318,2.5574 -0.5427,3.0233 2.2649,5.5806 1.6846,1.5348 3.3673,2.7906 3.7392,2.7906 0.3719,0 -0.2682,-2.0285 -1.4225,-4.5076 z m -55.4815,46.728 c -4.8531,-2.4742 -10.7423,-7.6897 -12.2352,-10.8356 -1.5569,-3.2807 -1.7876,-8.3902 -0.4885,-10.8176 1.3863,-2.5902 9.5379,-4.5445 19.0578,-4.5689 4.5906,-0.024 8.6216,0.2539 8.958,0.5902 1.3991,1.3992 -1.7253,2.543 -8.8606,3.2435 -11.0157,1.0813 -13.6785,1.6048 -15.4476,3.0363 -1.4118,1.1424 -0.1971,1.222 11.297,0.7409 8.8694,-0.3714 12.6059,-0.2626 12.0031,0.3492 -0.4936,0.5006 -6.0128,0.9932 -12.6529,1.1288 -12.0137,0.2456 -13.2788,0.6294 -12.1101,3.675 0.5673,1.4785 -0.041,1.3994 10.6134,1.3777 4.4861,0 8.9292,0.3259 9.8737,0.745 1.1334,0.5028 -1.6014,0.7822 -8.047,0.8219 -11.4099,0.071 -11.4476,0.2636 -1.2845,6.5979 3.4796,2.1687 6.3263,4.2895 6.3263,4.713 0,1.2884 -3.7492,0.8615 -7.0029,-0.7973 z" transform="translate(-186.00212,56.885428) translate(-1155.3727,-678.60371)"/>
</svg>