<?xml version="1.0" ?><svg xmlns="http://www.w3.org/2000/svg" width="114.1859mm" height="159.79324mm" viewBox="0 0 114.1859 159.79324">
    <path d="m 6112.785,-1515.6419 c 0.9118,-2.9344 7.2396,-16.2884 10.4725,-18.5265 3.2329,-2.2381 7.6541,-4.2026 14.7831,-2.9593 7.1292,1.2434 13.4567,7.6842 13.4567,7.6842 0,0 5.0842,26.5836 7.7647,28.5482 2.6802,1.9645 18.6238,4.7994 25.2002,2.6359 6.5765,-2.1635 14.8384,-8.256 19.7845,-7.8084 4.9461,0.4476 10.1685,5.8439 11.2461,8.3804 1.0777,2.5365 0.7462,6.8138 -2.5696,6.3661 -3.316,-0.4476 -9.1739,-3.8793 -8.8699,0.4228 0.304,4.3021 0.9948,8.3804 -6.5212,14.1746 -7.5157,5.7942 -19.812,14.4482 -26.5266,13.8513 -6.7146,-0.5968 -17.2699,1.3926 -25.2833,-5.819 -8.0132,-7.2117 -10.9699,-18.6757 -10.6106,-22.5302 0.3593,-3.8545 1.7407,-14.2989 1.7407,-14.2989 0,0 -14.2578,6.9381 -20.2541,3.6058 -5.996,-3.3323 -3.8132,-13.727 -3.8132,-13.727 z" fill="#cfa466" paint-order="fill markers stroke" transform="translate(-128.05825,-85.989656) translate(-5977.3135,1647.4176)"/>
    <path d="m 6109.4887,-1559.4143 c 0,0 -2.6524,10.3703 -2.6804,12.6581 -0.028,2.2879 6.2725,13.155 15.1975,14.7216 l 3.5647,-3.6308 c 0,0 -1.1882,-10.9914 -2.8185,-14.5226 -1.6304,-3.5313 -13.2633,-9.2263 -13.2633,-9.2263 z m 56.7831,2.636 c 0,0 -12.2404,4.2028 -15.4181,5.6451 -3.1776,1.4423 -4.9186,12.7073 -4.9186,12.7073 l 5.0844,5.5707 c 0,0 10.2511,-4.6254 12.8763,-7.1122 2.6249,-2.4868 2.376,-16.8109 2.376,-16.8109 z m -23.013,45.2758 c 0,0 -4.9741,7.3129 -6.133,9.4692 -1.1591,2.1563 -1.6146,11.9064 -0.4428,17.5901 1.1721,5.6837 6.7972,8.3674 7.292,8.2734 0.4948,-0.094 -0.8856,-7.9569 0.9245,-13.0312 1.81,-5.0744 -0.3776,-13.1607 -1.6407,-22.3015 z m 17.8506,13.7847 c -1.2372,-0.012 -4.4405,2.1209 -5.9769,3.5155 -1.5367,1.3946 -1.589,2.2622 2.8515,3.8442 0,0 6.8365,-2.8481 7.7091,-4.6059 0.8723,-1.7579 -3.3468,-2.7418 -4.5837,-2.7538 z m 31.9515,2.0112 c -0.2044,0.01 -0.4324,0.061 -0.6868,0.1685 -1.6277,0.6915 -3.1899,3.6445 -2.8515,4.2188 3.5287,0.8203 5.1955,-0.68 5.1175,-2.0158 -0.066,-1.1273 -0.4752,-2.4125 -1.5792,-2.3715 z m -13.5258,1.0945 -5.5738,0.3163 c -0.026,0.5039 0.1824,6.0353 0.1824,6.0353 0,0 6.0555,-0.082 6.1206,-0.9963 0.065,-0.9141 -0.7292,-5.3553 -0.7292,-5.3553 z m 0.2868,12.1652 c -1.4595,-0.023 -2.1324,1.1278 -2.9564,2.5652 -1.3544,3.129 5.4558,2.6018 7.4481,1.5823 1.9923,-1.0196 -0.5339,-2.8714 -3.0602,-3.8323 -0.5526,-0.2102 -1.0228,-0.3087 -1.4315,-0.3152 z" fill="#e4ddc0" paint-order="fill markers stroke" transform="translate(-128.05825,-85.989656) translate(-5977.3135,1647.4176)"/>
    <path d="m 6158.2797,-1403.2146 c -0.9227,-0.9228 -1.6805,-2.0037 -1.684,-2.402 -0.036,-4.148 -3.7047,-23.5594 -5.4422,-28.7954 -2.559,-7.7119 -2.718,-14.3689 -0.5348,-22.3949 l 1.5299,-5.6248 -3.1114,-1.6091 -3.1115,-1.6092 v 5.2962 c 0,2.913 -0.5473,6.6486 -1.216,8.3017 -0.6844,1.6917 -1.2678,9.5387 -1.3344,17.9524 -0.1145,14.4855 -0.2177,15.1282 -3.3217,20.8191 -2.1036,3.8565 -3.9807,5.9828 -5.4692,6.1952 -3.6024,0.514 -3.7742,-2.3672 -0.7051,-11.8234 2.1474,-6.6162 2.8842,-11.1573 2.9846,-18.3936 0.096,-6.8845 0.7656,-11.2857 2.3632,-15.523 2.7086,-7.1843 4.1501,-15.9505 2.7773,-16.8915 -2.8124,-1.9273 -7.1076,-9.263 -8.4631,-14.4539 -1.1257,-4.3107 -1.2597,-7.075 -0.5056,-10.431 0.5642,-2.5112 0.8942,-4.6978 0.7331,-4.8585 -0.161,-0.1604 -2.4924,0.4567 -5.1811,1.3727 -3.9199,1.3356 -5.7564,1.4319 -9.27,0.4857 -3.8081,-1.0254 -10.7485,-5.8275 -13.1453,-9.0954 -1.5433,-2.1042 -0.7745,-5.8288 1.6996,-8.233 2.2439,-2.1805 9.2274,-14.1004 9.2274,-15.7502 0,-0.3562 -1.4892,-1.5273 -3.3091,-2.6023 -3.7651,-2.2244 -8.4116,-11.1222 -8.4185,-16.1218 -0.012,-4.8486 2.0535,-11.2521 3.8411,-11.9382 0.8742,-0.3352 2.6458,0.3496 3.9372,1.5223 1.2913,1.1727 3.7712,2.7949 5.5109,3.6049 3.7697,1.7551 7.6302,7.1693 9.1582,12.844 l 1.1064,4.1096 h 7.9662 c 7.8124,0 7.9661,-0.051 7.9661,-2.7035 0,-3.5929 2.4147,-9.1355 4.9701,-11.4085 1.1341,-1.0087 5.77,-3.1411 10.3022,-4.7391 9.3441,-3.2939 11.7577,-2.7016 9.4681,2.324 -0.6887,1.5114 -1.2523,5.1265 -1.2523,8.0329 0,4.5644 -0.5219,5.8627 -3.8285,9.5229 -2.1056,2.3305 -5.4814,4.8352 -7.5015,5.5658 -2.6371,0.9535 -3.4859,1.7916 -3.0095,2.9718 0.3648,0.9041 1.7512,6.8479 3.0807,13.2081 1.6634,7.957 3.1104,12.2571 4.6394,13.7859 3.2727,3.2728 11.6845,3.5985 21.5663,0.8354 4.404,-1.2315 9.689,-2.6708 11.7441,-3.1981 2.0552,-0.5274 5.4559,-1.402 7.557,-1.9437 5.6016,-1.4442 10.439,0.5096 13.9824,5.6471 1.6199,2.3489 2.9613,5.5807 2.9809,7.182 0.044,3.6468 -4.1273,6.6901 -7.8796,5.7483 -2.26,-0.5672 -2.6851,-0.2058 -3.3184,2.8184 -0.8123,3.8792 -5.8173,12.2856 -9.0639,15.224 -2.7046,2.4473 -2.6788,5.9725 0.1099,15.0014 1.2815,4.1486 1.9752,8.5201 1.6278,10.2572 -0.5579,2.7885 5.4042,25.6513 9.0297,34.6276 1.7198,4.2578 0.7079,6.8302 -2.6872,6.8302 -1.8694,0 -3.1553,-0.9288 -4.2695,-3.0829 -1.8528,-3.5836 -5.9338,-25.2065 -5.9338,-31.4414 0,-2.5687 -1.0177,-5.9931 -2.5658,-8.6348 -1.411,-2.4078 -3.3669,-7.1344 -4.3464,-10.5033 -0.9793,-3.369 -1.915,-6.1255 -2.0793,-6.1255 -2.0819,0 -7.0232,2.7005 -7.0232,3.8381 0,0.8216 1.3498,3.732 3.7614,5.6574 4.776,3.8131 2.9221,8.4008 2.1055,13.6155 -0.8166,5.2143 -2.0821,14.7133 -2.603,21.1441 -1.0239,12.6372 -2.465,15.5392 -6.6144,13.3184 -2.645,-1.4154 -2.5366,-3.3332 1.2066,-21.3662 1.7568,-8.4636 3.198,-16.2858 3.2029,-17.3827 0.011,-1.0969 -1.4327,-3.6358 -3.1944,-5.6423 -1.7615,-2.0062 -3.2028,-4.8322 -3.2028,-6.2797 0,-2.5494 -0.2515,-2.6369 -8.0073,-2.7921 -4.404,-0.088 -8.6078,-0.2088 -9.3418,-0.2664 -0.8612,-0.07 -1.6798,2.4614 -2.3077,7.132 -0.8985,6.6825 -0.7117,8.0302 2.4283,17.5358 4.2379,12.8287 6.5597,29.2283 4.4908,31.7211 -1.7607,2.1216 -2.6909,2.124 -4.8021,0 z m 21.3192,-65.5979 c 8.8216,-3.0352 10.4763,-4.3952 11.9213,-9.7979 0.7012,-2.6214 2.1819,-5.8863 3.2905,-7.2555 2.7016,-3.3362 4.85,-1.971 3.9183,2.4896 -0.6679,3.1973 -0.6081,3.2763 1.1797,1.554 2.5179,-2.4257 3.4479,-12.7029 1.3099,-14.4773 -2.3746,-1.9707 -7.2969,-1.8972 -13.1213,0.1968 -2.936,1.0549 -5.9594,2.0982 -6.7187,2.3185 -1.0023,0.2904 -1.0892,0.9448 -0.3169,2.3878 1.5099,2.8214 -0.5176,4.4499 -5.5406,4.4499 -4.0465,0 -4.1256,-0.073 -3.4383,-3.2028 0.6017,-2.7398 0.3894,-3.2031 -1.4681,-3.2031 -1.1944,0 -3.3726,1.2011 -4.8407,2.6693 -3.1144,3.1141 -9.1345,3.6216 -11.7648,0.9911 -2.2836,-2.2834 -2.1248,-3.1537 1.0272,-5.633 1.5959,-1.2554 2.2493,-2.4093 1.5938,-2.8142 -2.4867,-1.5371 -4.4344,-7.5526 -5.957,-18.3989 -0.8839,-6.297 -2.3093,-12.5204 -3.1673,-13.8298 -2.5804,-3.9384 -14.9115,-6.1334 -19.7894,-3.5231 -3.243,1.7355 -5.2819,5.58 -6.6468,8.2466 2.7583,-0.094 3.2449,4.0886 2.4297,5.6011 -1.3231,2.4723 -3.6943,1.7213 -5.1654,-0.6322 -0.3298,0.4483 -0.4612,0.4389 -1.2414,1.7022 -0.7104,1.1496 -0.4136,1.7945 1.0801,2.3472 2.6705,0.9878 3.8001,5.6087 2.2193,9.0782 -1.5966,3.5042 -1.1189,3.8807 3.8568,3.04 4.5905,-0.7753 9.8441,-3.6653 16.2732,-8.9508 5.8034,-4.7714 6.7621,-2.4009 2.335,5.7734 -3.9295,7.2548 -5.285,16.4567 -3.3073,22.4493 1.2673,3.8403 10.9528,15.3725 12.9105,15.3725 0.4908,0 1.1939,-1.2011 1.5623,-2.6689 0.9235,-3.6795 2.2583,-3.3409 3.1569,0.8007 0.4139,1.9084 1.2928,3.8226 1.9531,4.2542 2.4032,1.5704 14.269,0.7972 20.4606,-1.3328 z m -4.2296,-8.0617 c -2.2292,-2.2293 -1.7496,-3.7678 1.7977,-5.7676 4.2462,-2.3945 8.7951,-0.4667 8.7951,3.727 0,2.9591 -0.3023,3.1994 -4.4062,3.499 -3.0267,0.2209 -4.9637,-0.236 -6.1866,-1.4584 z m 7.1829,-2.2153 c 1.1368,-1.1367 -0.2881,-2.468 -1.9563,-1.8279 -0.8587,0.3296 -1.2954,1.0293 -0.9706,1.5549 0.6921,1.1198 1.9617,1.2381 2.9269,0.2723 z m -19.1419,-3.0112 c -0.3664,-0.9548 -0.4354,-1.9672 -0.1535,-2.2493 0.9042,-0.9039 4.1259,0.826 3.733,2.0045 -0.6413,1.9238 -2.8765,2.0769 -3.5796,0.245 z m 24.524,-8.6237 c -0.949,-2.4731 2.7873,-5.9877 5.9703,-5.6157 3.0532,0.3567 4.1624,3.2908 2.1576,5.7069 -1.717,2.0684 -7.3232,2.0058 -8.1279,-0.09 z m 6.0351,-2.6294 c 0,-0.587 -0.4521,-1.0673 -1.0047,-1.0673 -0.5525,0 -1.3015,0.4803 -1.6645,1.0673 -0.3628,0.5872 0.089,1.0678 1.0047,1.0678 0.9155,0 1.6645,-0.4806 1.6645,-1.0678 z m -63.6723,-26.1568 c -0.8457,-2.2042 0.3008,-4.8045 2.1189,-4.8045 2.1853,0 4.0446,2.6536 3.2713,4.6688 -0.8369,2.1814 -4.5691,2.275 -5.3902,0.1362 z m 48.7254,27.5557 c 0,-2.1345 -3.6235,-1.3014 -4.0536,0.9322 -0.2546,1.3216 0.2176,1.626 1.856,1.1975 1.2087,-0.316 2.1976,-1.2745 2.1976,-2.1297 z m -18.0797,-0.3687 c 2.4257,-1.2982 2.6616,-2.7079 0.5861,-3.5045 -1.8309,-0.7025 -6.2578,2.2525 -5.4156,3.615 0.7987,1.2924 2.2713,1.2587 4.8295,-0.1087 z m 53.3118,-3.0835 c 0,-3.3503 -9.4986,-10.1569 -11.4503,-8.2051 -1.1578,1.1578 6.7297,9.153 9.048,9.1716 1.3212,0 2.4023,-0.4242 2.4023,-0.9665 z m -93.0982,-40.8655 c 1.6089,-1.6091 1.649,-6.9543 0.085,-11.4388 -0.9951,-2.8545 -7.6841,-8.6331 -9.9934,-8.6331 -0.3053,0 -0.5445,2.0419 -0.5317,4.5375 0.028,5.0335 3.2834,13.1778 6.1373,15.3453 2.3115,1.7553 2.718,1.7731 4.3021,0.1876 z m 37.4901,-3.6737 c 3.4683,-3.94 4.3613,-5.7849 4.3613,-9.0101 v -4.0554 l -4.9168,1.6754 c -5.3022,1.8065 -7.8949,5.702 -7.8949,11.8619 0,6.1599 2.7483,6.0062 8.4504,-0.4718 z" transform="translate(-128.05825,-85.989656) translate(-5977.3135,1647.4176)"/>
</svg>