<?xml version="1.0" ?><svg xmlns="http://www.w3.org/2000/svg" width="134.15504mm" height="97.772629mm" viewBox="0 0 134.15504 97.772629">
    <path fill="#b49a76" d="m -1567.958,692.4193 c -11.4395,5.55175 -28.5939,5.88407 -48.852,5.99308 -20.2581,0.10901 -58.1018,-6.31322 -55.2343,-23.91384 2.8673,-17.60034 15.0254,-43.14957 39.0427,-51.82764 24.017,-8.67833 35.0372,-10.07983 51.7475,-3.61156 16.71,6.46827 31.0245,20.75207 31.0245,20.75207 0,0 5.57,10.78044 2.7548,21.29102 -2.8149,10.51083 -4.9111,25.33385 -20.4832,31.31687 z" transform="translate(-270.13968,186.00209) translate(1948.1175,-794.36462)"/>
    <path fill="#e7d5b9" d="m -1564.1472,693.02484 c -6.7816,0.96876 -44.2084,10.20237 -44.1716,4.05672 0.3623,-60.41782 50.2302,-60.5811 51.8616,-38.72055 0.4106,5.50133 0.091,25.88434 -0.7872,29.39613 -0.8779,3.51179 -6.9028,5.2677 -6.9028,5.2677 z" transform="translate(-270.13968,186.00209) translate(1948.1175,-794.36462)"/>
    <path fill="#030303" d="m -1648.4491,704.47716 c -0.7165,-1.33932 -0.5379,-2.48523 0.7837,-5.02364 2.1627,-4.1529 6.0439,-8.2894 7.3694,-7.8531 2.4847,0.81677 1.2185,8.08143 -2.1571,12.37271 -2.1048,2.67599 -4.7162,2.8956 -5.996,0.50403 z m 16.0525,-0.40402 c -0.2928,-0.76359 -0.1098,-3.06652 0.407,-5.11942 0.517,-2.05264 0.7244,-4.55454 0.4611,-5.56049 -1.007,-3.85154 4.6152,-10.54417 6.9213,-8.23833 0.6786,0.67839 0.5289,1.81981 -0.5305,4.04231 -1.4296,2.99693 -1.9238,5.65705 -1.0517,5.65705 0.2339,0 1.796,-1.47426 3.4713,-3.2758 2.3818,-2.56249 3.0509,-2.92391 3.0694,-1.66079 0.032,2.18731 -2.4979,7.37155 -4.2402,8.68786 -0.7781,0.58816 -2.018,2.24499 -2.7546,3.68273 -1.5017,2.9292 -4.9085,3.98621 -5.7531,1.78488 z m 20.2581,-0.10901 c -0.7538,-0.75406 -1.371,-2.1037 -1.371,-2.99958 0,-2.72441 1.6303,-6.11029 2.9427,-6.11029 0.6813,0 1.4822,-0.63367 1.779,-1.40864 0.4382,-1.14088 0.7882,-1.20385 1.841,-0.32993 1.4721,1.22131 1.7491,3.48641 0.4265,3.48641 -0.4802,0 -0.8737,1.55866 -0.8737,3.46393 0,4.18306 -2.4479,6.19389 -4.7445,3.8981 z m 19.1212,-2.49317 c -1.0951,-1.67137 -1.2068,-2.7813 -0.5273,-5.24192 0.7718,-2.79453 0.6866,-3.12182 -0.8149,-3.12182 -1.2846,0 -1.677,0.61939 -1.677,2.64874 0,2.98424 -1.9338,4.25106 -3.9425,2.58419 -0.7147,-0.59293 -1.2994,-2.01877 -1.2994,-3.16706 0,-1.14962 -0.4474,-2.80591 -0.9943,-3.68115 -0.6784,-1.08665 -0.7302,-2.38443 -0.1638,-4.08358 1.0324,-3.09748 2.8628,-3.82561 3.4994,-1.39171 0.263,1.00568 0.8268,1.61369 1.2528,1.35017 1.3756,-0.84984 0.8234,-3.55468 -1.075,-5.26336 -3.2856,-2.95724 -7.0112,-9.07706 -6.7265,-11.04953 0.249,-1.72455 0.6498,-1.51341 4.0693,2.14128 6.4162,6.85747 16.8087,11.38687 31.4857,13.72261 l 5.5748,0.88768 2.5532,-2.73394 c 2.3172,-2.47994 2.4574,-2.96572 1.5158,-5.23902 -1.379,-3.32898 -0.6064,-11.98985 1.66,-18.6137 0.9863,-2.8829 1.4258,-5.37289 0.9755,-5.5327 -1.7534,-0.62468 -0.6861,-2.64213 1.8688,-3.53219 1.4776,-0.51567 2.4529,-1.31445 2.1677,-1.77614 -0.2855,-0.4617 -0.1051,-2.68632 0.4008,-4.94374 0.5062,-2.25743 0.7911,-4.23281 0.6334,-4.39076 -0.1577,-0.15743 -2.0383,0.87603 -4.1793,2.29684 -4.4633,2.96069 -6.5577,3.35413 -5.6798,1.06654 0.3217,-0.83794 -1.2026,0.34131 -3.3864,2.62096 -2.1839,2.27965 -4.3228,4.14443 -4.7525,4.14443 -1.5227,0 -2.8792,-2.56169 -2.3085,-4.3598 1.0642,-3.35306 11.797,-8.89053 11.797,-6.087 0,0.60563 1.8195,-0.69295 4.0431,-2.88529 5.3361,-5.26123 9.4515,-7.49299 11.4776,-6.22432 2.2302,1.397 2.3326,6.63284 0.263,13.44692 -2.1555,7.09718 -2.1473,6.98262 -0.4947,6.98262 2.3071,0 1.4004,2.5691 -1.092,3.09377 -5.4713,1.1512 -7.1054,3.62929 -2.6741,4.05527 2.2302,0.21378 2.9564,0.72787 3.1715,2.24314 0.2548,1.79229 -0.073,1.96532 -3.7129,1.96532 -3.362,0 -3.9923,0.2667 -3.9923,1.68672 0,1.08453 0.7025,1.78673 1.9659,1.96586 2.7546,0.39105 2.4551,1.97008 -0.4368,2.30267 -2.2887,0.26352 -2.4027,0.49953 -2.4027,4.97204 0,2.58234 0.3934,4.93872 0.8736,5.23558 0.4805,0.29713 0.8737,1.45124 0.8737,2.56619 0,1.1139 0.5898,2.5146 1.3105,3.11283 0.7834,0.65008 1.3105,2.5601 1.3105,4.74847 0,6.82811 -7.7981,11.04212 -12.2312,6.60903 -0.961,-0.9615 -2.5077,-1.74784 -3.4375,-1.74784 -0.9294,0 -4.5661,-0.63791 -8.0814,-1.41896 -3.515,-0.78052 -7.2898,-1.46843 -8.3886,-1.52902 -1.0988,-0.0587 -2.2783,-0.54531 -2.6212,-1.07977 -0.5207,-0.81042 -5.6285,-3.8354 -6.4768,-3.8354 -0.1439,0 -0.2619,1.16284 -0.2619,2.58339 0,2.15133 0.2937,2.50905 1.7558,2.14207 2.3262,-0.5842 6.0076,2.78686 5.1935,4.75615 -0.3273,0.79163 -0.8038,2.22594 -1.0589,3.18717 -1.1607,4.37118 -4.536,5.26997 -6.8027,1.81107 z m -69.7815,-0.38417 c -0.6572,-1.06257 2.145,-3.40889 5.4449,-4.5593 1.5306,-0.5334 2.7826,-1.53564 2.7826,-2.22594 0,-1.18507 5.4041,-4.01267 10.6916,-5.59276 2.3762,-0.71015 2.3836,-0.69903 1.1488,1.68883 -2.1437,4.14549 -7.8338,8.55266 -12.9694,10.04544 -5.529,1.60708 -6.4513,1.69121 -7.0985,0.64373 z m 44.921,-3.45043 c 0,-2.07381 3.0853,-6.09759 3.9867,-5.19907 0.3538,0.35137 0.2755,1.92194 -0.1738,3.48827 -0.92,3.20754 -3.8129,4.50559 -3.8129,1.7108 z m -19.2204,-2.70987 c 0,-1.79281 1.1329,-3.56658 2.2778,-3.56658 1.4936,0 1.5901,1.89892 0.1685,3.32026 -1.2462,1.24539 -2.4463,1.36657 -2.4463,0.24632 z m -38.441,-3.58827 c 0,-1.93675 10.5261,-4.04734 13.9215,-2.79109 1.8796,0.69506 1.9124,0.8329 0.5316,2.21376 -1.1171,1.11681 -3.0411,1.47241 -7.9629,1.47241 -3.8486,0 -6.4902,-0.36433 -6.4902,-0.89508 z m 64.1027,-0.39 c -0.5803,-1.51209 2.3341,-7.88802 3.6057,-7.88802 1.2589,0 1.5865,5.2779 0.4583,7.38558 -1.1139,2.082 -3.352,2.35849 -4.064,0.50244 z m -45.2991,-2.17726 c -0.2863,-0.46328 0.3371,-1.69942 1.3854,-2.74717 l 1.9055,-1.90552 -2.3847,0.59822 c -2.9091,0.72998 -5.7311,-0.059 -5.7311,-1.60338 0,-0.62732 1.8674,-1.96373 4.1497,-2.971 2.2826,-1.00648 3.8553,-1.89151 3.4949,-1.96744 -0.3604,-0.0762 -1.0486,-0.23601 -1.529,-0.35666 -0.4805,-0.11986 -1.2669,-0.26723 -1.7473,-0.32782 -0.4805,-0.0587 -0.8734,-0.47387 -0.8734,-0.92022 0,-0.72999 4.9363,-2.39686 11.649,-3.93356 3.0875,-0.70697 2.4125,0.69188 -1.479,3.06519 -2.0304,1.23773 -2.3198,1.67402 -1.1133,1.67667 1.2001,0 1.5102,0.46487 1.1736,1.75048 -0.6328,2.42041 2.5578,2.37384 3.3264,-0.046 0.6397,-2.0156 6.9866,-6.94108 8.9445,-6.94108 0.6995,0 2.44,-0.98293 3.8677,-2.18361 2.5664,-2.16006 5.956,-2.94164 5.956,-1.37451 0,1.00356 -6.1828,6.17405 -7.4067,6.1939 -0.4911,0.005 -2.4363,1.58088 -4.3228,3.49488 -1.8862,1.91373 -3.8558,3.4798 -4.3765,3.4798 -0.5207,0 -1.4332,0.77919 -2.0277,1.73117 -1.1481,1.83885 -8.8874,6.13171 -11.0533,6.13171 -0.7083,0 -1.5219,-0.37888 -1.8079,-0.8419 z m 17.8901,-0.38311 c 0,-2.58313 7.5036,-11.00614 9.8047,-11.00614 2.8765,0 -3.3978,9.90679 -7.0896,11.19346 -2.1291,0.74242 -2.7151,0.70194 -2.7151,-0.18732 z m 19.8027,-1.10464 c -1.1586,-1.15914 -0.5313,-2.91015 2.1291,-5.93989 2.7133,-3.09034 4.5845,-3.83911 5.5772,-2.23229 0.6368,1.03055 -0.8586,4.09919 -3.3081,6.78894 -1.8037,1.98041 -3.3232,2.45771 -4.3982,1.38324 z m -55.4042,-6.5106 c -4.5493,-1.31392 -3.2886,-2.51883 2.6212,-2.50375 5.743,0.0159 8.2711,0.88662 7.2678,2.50957 -0.7112,1.1512 -5.893,1.14803 -9.889,-0.005 z m 49.58,-1.18666 c 0,-1.65047 3.9817,-4.29366 5.2691,-3.49752 0.6549,0.40401 0.3289,1.29434 -0.9874,2.69557 -2.2124,2.35479 -4.2817,2.74267 -4.2817,0.80195 z m -47.1774,-5.08741 c 0,-0.62494 0.4226,-1.55786 0.939,-2.07433 0.6694,-0.66966 0.068,-1.10278 -2.0965,-1.50839 -3.3991,-0.63844 -5.7036,-2.74823 -4.4119,-4.04045 0.4661,-0.4654 3.4107,-0.57917 6.8077,-0.26194 4.8016,0.44847 6.0695,0.87736 6.4077,2.16879 0.3003,1.14909 1.2366,1.60973 3.2697,1.60973 3.7057,0 5.4144,1.89177 3.4673,3.83937 -1.825,1.82456 -14.383,2.05819 -14.383,0.26722 z m 49.4178,-2.26774 c -0.649,-1.05013 2.6731,-5.07365 3.5052,-4.24444 0.8076,0.80433 -1.0242,5.02681 -2.1806,5.02681 -0.4625,0 -1.0586,-0.35189 -1.3246,-0.78237 z m -29.0618,-2.15238 c -0.3842,-0.65273 -2.2712,-1.55205 -4.1934,-1.99867 -2.1143,-0.49053 -3.4946,-1.31551 -3.4946,-2.08862 0,-1.84017 9.8608,-2.34341 10.5532,-0.53842 0.3569,0.9308 1.415,1.1385 4.0201,0.78872 3.3456,-0.44847 3.4843,-0.37809 2.581,1.30995 -0.8956,1.67323 -5.0888,3.71449 -7.6309,3.71449 -0.6254,0 -1.4512,-0.53393 -1.8354,-1.18745 z m 67.5087,-2.8067 c -1.6097,-1.60973 -1.6973,-2.50402 -0.4683,-4.80008 1.7693,-3.30649 6.0846,-1.71 6.0846,2.25082 0,1.30862 -2.3288,3.92218 -3.4943,3.92218 -0.4122,0 -1.3669,-0.61754 -2.122,-1.37292 z m 9.9155,-0.8943 c -0.9644,-1.16152 -0.9408,-1.77932 0.1408,-3.71316 1.774,-3.17103 4.9329,-3.56817 5.6504,-0.70961 1.124,4.4786 -3.08,7.68985 -5.7912,4.42277 z m -64.5813,-0.72654 c 0,-1.62931 4.1476,-4.86886 6.2336,-4.86886 2.2259,0 2.0468,1.92405 -0.3927,4.2164 -2.2878,2.14894 -5.8409,2.54635 -5.8409,0.65246 z m 39.3525,-3.51287 c -0.5773,-0.69507 -1.2467,-2.51593 -1.488,-4.04522 -0.241,-1.52929 -1.3528,-3.76714 -2.4707,-4.97258 -2.5466,-2.7469 -5.1726,-10.89157 -4.4455,-13.78876 0.7893,-3.14404 3.6227,-5.63404 6.4005,-5.62425 5.5039,0.0212 15.0704,7.72451 15.0704,12.13909 0,2.522 -3.493,2.43231 -6.7037,-0.17225 -2.9935,-2.42781 -6.9966,-4.98581 -7.8031,-4.98581 -0.9369,0 0.3077,9.602 1.4184,10.94053 0.5522,0.66489 1.5449,3.00619 2.2056,5.20276 1.6359,5.43507 0.4051,8.42592 -2.1839,5.30649 z m -74.2987,-0.43022 c 0,-1.10728 1.4872,-1.95421 4.7287,-2.69266 2.518,-0.57309 2.3926,-0.65829 -1.8892,-1.2835 -5.589,-0.81571 -6.486,-3.06519 -1.2226,-3.06519 5.7954,0 10.9455,2.51036 7.775,3.78962 -0.6008,0.24263 -0.2402,0.47202 0.8009,0.51012 1.0409,0.0394 2.0238,-0.32438 2.1842,-0.80539 0.4331,-1.2999 9.5964,-2.99614 12.3941,-2.29394 1.6587,0.41619 2.3387,1.08453 2.146,2.10741 -0.2106,1.11575 -1.616,1.67587 -5.5184,2.19816 -2.8797,0.38602 -6.4434,1.07394 -7.9189,1.52955 -3.4701,1.07077 -13.4798,1.07421 -13.4798,0.005 z m 29.7043,-0.77337 c 0,-1.61317 6.4455,-6.26798 8.6791,-6.26798 2.1045,0 0.7951,3.60309 -1.9082,5.25171 -2.876,1.75366 -6.7709,2.33812 -6.7709,1.01627 z m 49.9663,-4.30213 c -0.9044,-1.80128 -0.099,-5.62848 1.2805,-6.08886 1.0716,-0.35745 2.4361,5.40597 1.6002,6.75931 -0.8101,1.31022 -2.0288,1.02738 -2.8807,-0.67045 z m -53.8978,-1.9259 c -0.9609,-0.39688 -2.7051,-1.7534 -3.8761,-3.01334 -1.6084,-1.73117 -1.8825,-2.53815 -1.1211,-3.29936 0.7612,-0.76147 1.9008,-0.60536 4.6593,0.63897 4.9488,2.23123 6.3715,3.71661 5.0663,5.28982 -1.1295,1.36101 -2.164,1.44462 -4.7284,0.38391 z m -10.5304,-2.39554 c -0.9297,-0.93001 -2.6035,-1.40626 -4.4945,-1.27847 -3.1377,0.21088 -7.4025,-1.88859 -10.269,-5.05539 -2.7448,-3.03318 0.6609,-3.34089 6.1603,-0.55589 2.5805,1.30678 5.0983,2.12461 5.5946,1.81769 1.0409,-0.64294 5.9119,2.17064 8.2714,4.77837 1.5825,1.7489 1.5658,1.77589 -1.0869,1.77589 -1.4819,0 -3.3607,-0.66702 -4.1759,-1.4822 z m 93.0907,0.77523 c 0,-1.96929 6.7959,-7.14481 9.3917,-7.15275 2.4535,-0.005 0.8353,2.81888 -3.0104,5.25754 -4.059,2.57492 -6.3813,3.26364 -6.3813,1.89521 z m -14.4459,-1.964 c -1.146,-1.85394 0.5029,-4.8604 5.2157,-9.50913 2.6503,-2.61434 5.0353,-4.5376 5.2996,-4.27302 0.5403,0.54002 -5.071,10.81538 -7.1956,13.17705 -1.5772,1.7526 -2.5062,1.92166 -3.3197,0.6051 z m -6.5218,-1.29514 c 0,-1.66846 3.1499,-7.94887 4.3622,-8.69844 1.7831,-1.10225 1.85,2.14736 0.1244,6.04864 -1.7037,3.85154 -4.4866,5.4946 -4.4866,2.6498 z m -55.9138,-2.5863 c -0.598,-0.72072 -1.7648,-1.31022 -2.5927,-1.31022 -1.8357,0 -3.7449,-2.05581 -5.6798,-6.11637 -0.8017,-1.68116 -2.3974,-4.82653 -3.5457,-6.9887 -2.4291,-4.57359 -2.5611,-5.24219 -1.0348,-5.24219 1.5537,0 7.6047,7.39881 7.6391,9.34032 0.031,1.77615 1.9402,4.62491 3.1263,4.66381 1.1404,0.0392 6.4558,5.04137 6.4558,6.07774 0,1.35811 -3.1427,1.05251 -4.3682,-0.42439 z m 6.0732,-1.16893 c -1.1144,-0.90276 -1.7097,-2.04761 -1.3594,-2.61461 0.713,-1.15438 7.5173,1.89124 7.5173,3.36418 0,1.44436 -4.0589,0.95011 -6.1579,-0.74957 z m -24.9708,-2.95195 c -2.1865,-2.44475 -5.5647,-7.31785 -5.5647,-8.02667 0,-1.34011 2.3796,-0.25559 5.0916,2.31907 2.4447,2.32093 2.7988,2.4683 1.9399,0.80513 -0.5778,-1.11839 -0.8104,-2.65933 -0.517,-3.42477 0.4305,-1.1213 1.219,-0.72734 4.0709,2.03412 1.9452,1.88357 4.1045,4.50585 4.798,5.82718 1.1657,2.22145 1.1353,2.40216 -0.4019,2.40216 -0.9147,0 -2.1522,-0.5895 -2.7504,-1.31022 -1.3009,-1.56766 -2.7083,-1.72588 -2.4027,-0.27014 0.4003,1.90553 -2.4542,1.6674 -4.2637,-0.35586 z m 30.8374,-3.01414 c -0.3204,-0.32067 -0.5823,-1.15438 -0.5823,-1.8542 0,-1.03108 0.2479,-1.066 1.3105,-0.18415 0.7207,0.59849 1.3107,1.43219 1.3107,1.85447 0,0.90408 -1.2089,1.01362 -2.0389,0.18388 z m -8.7466,-3.63617 c -1.511,-1.66978 -1.9679,-4.51802 -0.7247,-4.51802 1.0679,0 4.5207,3.88011 4.5207,5.08 0,1.56263 -2.163,1.24275 -3.796,-0.56198 z m 76.3093,-2.72097 c 0,-1.4224 3.7777,-3.5441 6.31,-3.5441 2.9274,0 3.1153,1.16549 0.485,3.00832 -2.1225,1.48669 -6.795,1.85473 -6.795,0.53578 z m -69.1787,-3.29803 c -1.2894,-0.79984 -2.8422,-2.46036 -3.4502,-3.68909 -0.6086,-1.23031 -2.0503,-3.53906 -3.2044,-5.13291 -2.4381,-3.36577 -2.0024,-4.48178 0.9861,-2.52307 3.3589,2.20107 5.0877,4.25027 4.6178,5.47582 -0.2514,0.65484 0.8435,1.89679 2.5707,2.91544 1.6544,0.97658 3.0083,2.37834 3.0083,3.1152 0,1.72376 -1.5801,1.66741 -4.5283,-0.16139 z m 62.1897,0.26828 c 0,-1.2573 4.7763,-5.75627 6.1111,-5.75627 0.4043,0 1.3568,0.23865 2.1169,0.52996 2.4763,0.95038 1.4603,3.01413 -2.3309,4.73551 -4.4477,2.01877 -5.8971,2.13942 -5.8971,0.4908 z m -77.7375,-4.42727 c -2.1121,-2.15238 -3.5822,-4.17115 -3.267,-4.48733 1.1591,-1.15835 9.3646,5.18663 9.3646,7.24191 0,2.17831 -2.2563,1.15887 -6.0976,-2.75458 z m 71.622,0.0757 c 0,-1.65708 6.052,-6.6466 8.0615,-6.6466 2.3493,0 1.8627,1.42373 -1.2911,3.77773 -4.6636,3.4798 -6.7704,4.37276 -6.7704,2.86887 z m -47.1538,-1.79705 c -0.6297,-1.17686 -1.9632,-2.25822 -2.9634,-2.40268 -1.2805,-0.18494 -2.2852,-1.52453 -3.3988,-4.52967 -0.8694,-2.34711 -1.3742,-4.47489 -1.1213,-4.72704 0.7469,-0.74692 3.7227,2.36776 4.8406,5.06677 1.4396,3.47636 3.2834,2.42305 3.9885,-2.277 0.3189,-2.1254 0.9076,-4.06691 1.3081,-4.31456 1.1396,-0.70433 1.8998,5.04745 0.9875,7.46971 -0.4506,1.19645 -0.6287,3.45308 -0.3958,5.01465 0.522,3.497 -1.5135,3.93594 -3.2454,0.69982 z m 38.6728,-0.20108 c -0.3987,-1.03875 0.6546,-2.5691 3.6065,-5.24193 4.2342,-3.83354 5.7478,-4.56723 5.7478,-2.78606 0,1.59517 -3.4776,6.76302 -5.5078,8.18489 -2.4,1.6809 -3.153,1.6502 -3.8465,-0.1569 z m -12.1497,-4.15634 c -0.7419,-1.93278 3.0864,-11.85016 4.5744,-11.85016 1.7415,0 1.5407,5.88513 -0.3262,9.5586 -1.7375,3.41868 -3.4592,4.34764 -4.2482,2.29156 z m 8.4201,0.39449 c -1.1065,-0.68421 -1.0202,-1.26709 0.6088,-4.11824 2.1281,-3.72374 3.3719,-3.69808 3.161,0.0654 -0.1778,3.17261 -2.0092,5.1427 -3.7698,4.05421 z m -26.6562,-0.86915 c -0.2908,-0.47043 -0.1691,-1.55125 0.2701,-2.40189 0.4398,-0.85116 1.0787,-3.09271 1.4206,-4.98131 0.7771,-4.29763 2.1966,-2.62996 2.2161,2.60429 0.016,4.34605 -2.3701,7.26573 -3.9068,4.77891 z m 7.7623,-0.37254 c -0.5879,-1.5314 4.767,-8.57858 6.1479,-8.09175 2.005,0.70697 -0.8864,6.84742 -4.0108,8.51985 -1.2317,0.65908 -1.7606,0.55324 -2.1371,-0.4281 z" transform="translate(-270.13968,186.00209) translate(1948.1175,-794.36462)"/>
</svg>