<?xml version="1.0" ?><svg xmlns="http://www.w3.org/2000/svg" width="144.46402mm" height="154.13583mm" viewBox="0 0 144.46402 154.13583">
    <path fill="#bc7934" d="m 1815.9781,381.03078 c 0.3468,4.85415 4.6534,33.49386 8.4695,41.43391 3.8158,7.94002 12.9689,15.37715 23.9451,14.85096 10.9763,-0.52616 28.2099,-15.38168 30.8933,-24.04394 2.6834,-8.66224 4.3705,-34.36724 4.3705,-34.36724 l -38.1719,1.93358 c 0,0 -28.9061,-3.56351 -29.5065,0.19273 z" transform="translate(-199.49572,288.39584) translate(-1578.4959,-598.41675)"/>
    <path fill="#418e4e" d="m 1850.4624,318.76096 c -2.3101,0.035 -4.7432,0.80137 -5.9102,2.49442 -2.0749,3.00987 -6.5283,10.73785 -6.5283,10.73785 0,0 -6.1874,-0.59704 -7.6791,2.40037 -1.4919,2.99741 3.562,7.41058 7.522,10.72906 l 4.2209,-0.014 c -5.0139,0.53678 -9.9194,1.96025 -13.9903,4.69532 -13.2287,8.88752 -9.8085,21.06522 -10.5741,28.47113 l 37.6008,0.89865 c 0,0 26.8154,2.883 27.5069,-1.16685 0.6913,-4.04983 -7.3203,-23.37785 -13.2969,-27.77143 -2.9456,-2.16556 -9.7968,-4.45253 -17.5669,-5.15886 l 10.3575,-0.0346 c 0,0 4.0009,-6.16275 3.098,-9.741 -0.9029,-3.57825 -5.719,-6.00325 -5.719,-6.00325 0,0 -2.2538,-7.63319 -4.5274,-9.38341 -0.9948,-0.7657 -2.7171,-1.18067 -4.5139,-1.15342 z" transform="translate(-199.49572,288.39584) translate(-1578.4959,-598.41675)"/>
    <path d="m 1785.078,462.81223 c -0.5328,-1.72502 3.6607,-7.17616 9.0493,-11.76344 l 4.2718,-3.63683 -0.5694,-4.41545 c -0.5174,-4.01337 -0.7254,-4.34502 -2.2838,-3.64074 -2.1529,0.9729 -4.2148,0.09 -3.4829,-1.494 0.3041,-0.65712 1.658,-1.56809 3.0089,-2.02431 1.6863,-0.56942 2.6724,-1.62848 3.1464,-3.38004 1.0327,-3.81533 0.967,-4.02261 -1.3295,-4.1767 -3.0196,-0.2024 -2.5254,-2.4657 0.6423,-2.94173 1.9146,-0.28791 3.1332,-1.28204 4.6189,-3.76759 1.335,-2.23359 1.7022,-3.50591 1.0845,-3.75892 -1.399,-0.57291 -1.0247,-1.94993 0.5021,-1.84729 0.7326,0.0498 3.2167,-1.27511 5.5203,-2.94242 2.3038,-1.66731 5.0646,-3.23263 6.1352,-3.47844 2.3348,-0.53604 2.3104,-0.31842 0.7576,-6.79944 -0.6848,-2.85627 -1.4669,-8.65217 -1.7388,-12.87907 -0.271,-4.22722 -0.5907,-7.79632 -0.7087,-7.93163 -0.79,-0.90319 -5.5797,0.70664 -6.0203,2.02312 -0.7089,2.11971 -2.4113,1.89632 -2.2644,-0.29714 0.099,-1.4631 -0.3366,-1.73625 -2.6559,-1.66858 -2.1256,0.0691 -2.8667,0.52217 -3.1722,1.97019 -0.5529,2.6189 -2.8619,2.28082 -2.6823,-0.39286 0.1095,-1.63843 -0.2912,-2.14428 -1.7671,-2.22868 -2.9489,-0.16826 -6.3439,2.52274 -6.521,5.17003 -0.1869,2.78273 -2.2992,3.62645 -2.7803,1.11054 -0.2735,-1.43347 -0.6662,-1.64962 -1.9447,-1.07179 -2.0155,0.91067 -5.9701,0.68607 -5.9015,-0.33534 0.028,-0.42195 1.8854,-1.68294 4.1268,-2.80226 2.2413,-1.11903 5.7019,-3.31871 7.6906,-4.888 4.7248,-4.43197 7.1086,-2.71755 13.6184,-2.4649 l 10.0038,0.3884 0.3193,-6.93511 c 0.1759,-3.81442 0.7054,-8.10616 1.1768,-9.53773 0.6877,-2.08698 0.5761,-2.73242 -0.5624,-3.25943 -0.781,-0.36127 -1.8402,-0.28925 -2.3542,0.16117 -1.1803,1.03181 -4.8531,0.82981 -4.7797,-0.2627 0.029,-0.44998 0.8414,-1.17326 1.8024,-1.6077 1.4852,-0.67114 1.608,-1.05135 0.8168,-2.53038 -0.5525,-1.03193 -1.861,-1.80269 -3.2157,-1.89344 -1.2564,-0.084 -3.3285,-0.67316 -4.6045,-1.30849 l -2.3201,-1.15533 3.0003,-0.29057 c 1.6501,-0.16059 2.994,-0.76893 2.9866,-1.35522 -0.012,-0.5859 -0.035,-1.64458 -0.05,-2.35257 -0.015,-0.70832 -1.5267,-2.00049 -3.342,-2.8719 -3.7619,-1.80592 -4.2307,-3.16512 -1.0174,-2.94974 2.8645,0.19223 2.6557,-2.36969 -0.3303,-4.05528 -2.4267,-1.36996 -4.3724,-3.73054 -3.618,-4.38994 0.2772,-0.24205 1.3025,0.0593 2.2786,0.66815 2.3703,1.48074 2.7691,0.94092 2.3538,-3.18461 -0.2844,-2.81147 -0.987,-3.97533 -3.659,-6.05173 -5.0103,-3.89342 -4.8729,-5.135 0.4722,-4.25724 6.2283,1.02275 8.1667,3.47428 8.792,11.11822 1.0714,13.10132 3.4741,19.27985 8.7952,22.61732 l 2.961,1.85729 4.8312,-3.99189 c 2.6569,-2.19531 5.6872,-4.20155 6.7337,-4.45803 2.2731,-0.55719 2.4557,-1.40268 0.6701,-3.09807 -2.3317,-2.21274 -3.4317,-6.70491 -2.152,-8.78474 1.422,-2.31056 2.5859,-2.97149 4.9787,-2.82747 1.0499,0.0617 1.9227,-0.0915 1.9397,-0.34713 0.063,-0.9357 -7.6633,-13.65943 -8.2639,-13.60908 -3.4183,0.28744 -3.5122,-2.064 -0.1728,-4.34584 2.1149,-1.44548 2.5275,-1.47913 3.566,-0.29061 0.9094,1.04044 0.9328,1.5977 0.1038,2.47163 -0.8578,0.90284 -0.2565,2.30261 3.0097,7.00743 2.245,3.2333 4.2873,5.91567 4.5385,5.96038 0.2509,0.0451 1.0007,-1.51107 1.6662,-3.45712 1.7786,-5.20245 4.2633,-7.16636 8.6918,-6.86922 4.7403,0.31799 8.7128,3.34529 10.6215,8.09456 l 1.4597,3.6322 3.5319,-5.15141 c 2.7339,-3.98738 3.4569,-5.72664 3.1984,-7.69561 -0.4232,-3.22649 1.068,-4.08158 3.6787,-2.10921 2.2301,1.68471 2.4864,3.85607 0.5269,4.46071 -1.3274,0.41001 -8.875,11.5157 -8.99,13.22855 -0.035,0.52523 0.4867,0.99232 1.1594,1.03757 2.9038,0.19476 4.8769,9.43989 2.3049,10.8005 -1.6298,0.86215 -1.0088,2.01576 2.0826,3.86757 1.6888,1.01151 4.7087,3.49104 6.7111,5.51014 l 3.6403,3.67098 3.656,-2.01814 c 2.0108,-1.11006 4.1808,-2.94608 4.8225,-4.08033 0.6414,-1.13452 1.7168,-6.81873 2.3898,-12.63224 1.4971,-12.93137 2.7924,-15.09706 10.0911,-16.87057 8.4747,-2.05962 9.7676,0.91287 1.8618,4.28013 -4.8606,2.0704 -7.0337,3.84096 -7.1675,5.84068 -0.088,1.29666 2.9456,1.71012 3.7977,0.5178 0.8974,-1.25564 2.187,-0.86007 2.0861,0.63972 -0.05,0.73999 -1.2637,1.70073 -2.698,2.13496 -1.6104,0.48763 -2.6487,1.39276 -2.7139,2.36679 -0.088,1.31138 0.3292,1.51187 2.4754,1.18914 2.0289,-0.3052 2.5613,-0.0982 2.4898,0.96936 -0.05,0.74649 -1.0738,1.72785 -2.2752,2.18087 -1.2015,0.45286 -2.2317,1.52531 -2.2892,2.38305 -0.074,1.09856 0.5225,1.6019 2.0151,1.70207 1.3189,0.0874 2.0874,0.62256 2.0343,1.41399 -0.048,0.69945 -0.8349,1.22122 -1.7512,1.15992 -1.5853,-0.10593 -3.5719,2.01554 -3.702,3.95402 -0.033,0.49697 0.4893,0.9405 1.1613,0.98566 2.1344,0.1423 2.2358,1.82722 0.1498,2.47171 -1.1048,0.34137 -4.0844,1.82752 -6.621,3.30269 -2.5364,1.47518 -5.0713,2.80195 -5.6333,2.94847 -0.7327,0.19147 -0.6702,1.07368 0.2235,3.12541 0.684,1.57291 1.3434,4.81749 1.4655,7.21022 l 0.2205,4.35016 11.3995,0.19207 c 10.7573,0.18104 11.5352,0.30291 13.8126,2.1666 1.3274,1.08595 4.5336,2.96375 7.1247,4.17258 2.705,1.26204 4.6765,2.71785 4.6292,3.41896 -0.117,1.74741 -6.4608,1.61208 -10.1252,-0.21594 -2.931,-1.46223 -2.9637,-1.45579 -3.1014,0.59848 -0.2658,3.96117 -2.8628,1.8121 -2.7444,-2.27068 0.048,-1.62498 -0.445,-2.31841 -1.8571,-2.61613 -1.6843,-0.35533 -1.8717,-0.13109 -1.5198,1.81442 0.3347,1.84992 0.11,2.19972 -1.3565,2.10167 -0.9666,-0.0635 -2.1149,-0.90847 -2.5516,-1.87466 -0.5198,-1.15022 -1.6614,-1.81486 -3.3073,-1.9252 -2.7596,-0.18519 -3.2673,0.69879 -1.4127,2.46023 1.5218,1.44563 1.4638,2.65323 -0.1216,2.54684 -0.6732,-0.046 -1.823,-1.272 -2.5558,-2.72654 -0.7325,-1.45425 -1.9816,-2.6879 -2.7752,-2.74105 -0.7943,-0.0534 -2.0899,-0.39607 -2.8798,-0.76152 -1.3209,-0.61103 -1.4419,-0.0196 -1.5014,7.3514 -0.06,7.55264 -1.3599,17.49177 -3.0283,23.17517 -0.7187,2.44684 -0.5812,2.61427 4.0606,4.95071 2.969,1.49419 5.9917,2.39405 7.9121,2.35503 3.4479,-0.0736 4.7062,1.13157 2.7019,2.57976 -1.1174,0.80742 -0.9543,1.44505 1.1323,4.43096 1.3406,1.91801 3.1141,3.53301 3.9413,3.58827 2.1883,0.14602 2.8228,1.98122 1.069,3.09133 -2.2012,1.39358 -1.2932,5.02191 1.6174,6.46271 1.288,0.63774 2.5277,1.76091 2.7548,2.49625 0.3367,1.09099 -0.071,1.20571 -2.2222,0.62353 l -2.635,-0.71321 0.2345,3.5283 c 0.177,2.64357 0.9104,4.16602 2.9305,6.07202 1.4828,1.39921 3.3303,3.93773 4.1055,5.64124 1.1762,2.58471 1.2109,3.30647 0.2112,4.35978 -1.7412,1.83307 -2.0976,1.61667 -4.893,-2.97319 l -2.532,-4.15796 -1.62,1.87278 c -2.194,2.53566 -3.5181,1.30778 -3.2367,-3.00253 0.6544,-10.00483 -2.376,-22.35042 -6.5777,-26.80927 -1.1624,-1.23334 -4.1919,-3.75433 -6.7329,-5.60197 l -4.6196,-3.35916 -3.5612,6.13557 c -4.9406,8.51193 -9.9202,12.58244 -18.7409,15.31964 -5.913,1.83479 -7.8977,2.0738 -12.1457,1.46244 -9.7081,-1.39677 -19.8936,-10.03475 -24.1705,-20.49774 -1.0947,-2.67842 -2.2922,-4.89019 -2.6605,-4.91507 -1.6415,-0.10946 -9.148,8.43966 -11.156,12.70694 -2.8431,6.04075 -3.7605,16.80841 -2.0629,24.2068 1.436,6.259 0.4489,7.78306 -3.0948,4.77637 l -2.3442,-1.98914 -4.0225,3.76067 c -2.2124,2.06848 -4.7735,4.75492 -5.6912,5.97 -1.8456,2.44248 -3.8494,2.76526 -4.4803,0.72187 z m 62.5512,-30.06323 c -0.3109,-0.8405 -0.3884,-8.93421 -0.1696,-17.98629 0.2179,-9.05167 0.015,-19.18906 -0.4492,-22.52713 -0.8483,-6.08186 -3.0416,-10.19404 -5.5258,-10.36065 -1.0268,-0.0692 -1.2131,1.26019 -1.153,8.22651 0.04,4.56963 -0.01,15.95141 -0.105,25.29283 l -0.1765,16.98439 2.0802,0.73094 c 1.1439,0.40192 2.9767,0.82904 4.0728,0.94919 1.5993,0.1755 1.8811,-0.0837 1.4268,-1.30981 z m 6.3413,-0.34505 2.0265,-0.39948 0.6212,-17.08368 c 0.3416,-9.39605 0.6381,-20.70988 0.6586,-25.14183 l 0.037,-8.05814 -3.1572,3.0129 c -1.9792,1.88856 -2.9996,3.52488 -2.7342,4.38464 1.592,5.15712 1.9592,18.04627 0.8646,30.31734 -0.6551,7.33379 -1,13.34167 -0.7661,13.35083 0.2342,0.0187 1.3367,-0.16348 2.4508,-0.38261 z m -15.9491,-14.85817 c 0.078,-7.1827 0.4103,-18.17913 0.7363,-24.43638 l 0.5929,-11.37658 -3.3685,-0.22615 -3.3689,-0.22582 0.2711,3.21192 c 0.1485,1.7665 0.1555,12.12704 0.016,23.02314 l -0.2535,19.8112 2.4511,1.79245 c 1.348,0.98571 2.5253,1.72344 2.6159,1.63933 0.09,-0.084 0.2295,-6.03025 0.3084,-13.21314 z m 24.9357,10.55991 c 0.408,-3.32609 1.2631,-20.90271 1.5829,-32.54673 l 0.3796,-13.81429 -2.3722,-0.15901 c -1.3046,-0.0878 -2.6318,0.20322 -2.9491,0.64827 -0.5057,0.70783 -0.8238,14.49914 -0.9348,40.55785 l -0.033,7.82316 2.1069,-0.79454 c 1.1585,-0.43675 2.1576,-1.20839 2.22,-1.71472 z m -32.287,-26.19376 c 0.091,-8.95146 0.2344,-17.30193 0.3184,-18.55652 0.1389,-2.05944 -0.1146,-2.27319 -2.5966,-2.19881 -3.1722,0.0945 -2.8867,-2.07824 -2.9178,22.21485 -0.016,12.57758 0.1401,13.89815 2.0213,17.1692 l 2.0388,3.54339 0.4853,-2.94828 c 0.2671,-1.62164 0.56,-10.27208 0.6506,-19.22383 z m 37.9801,21.15033 2.4363,-3.05619 0.2821,-18.9049 0.2818,-18.90522 -1.972,-0.13131 -1.972,-0.13142 -1.4788,22.04462 c -0.8134,12.12458 -1.1491,22.06668 -0.7462,22.0937 0.4029,0.0281 1.8291,-1.32642 3.1688,-3.00728 z m -45.1103,-27.92464 0.3591,-14.01533 -3.0379,-0.46086 -3.0383,-0.46059 0.8849,8.40712 c 0.8279,7.86732 3.5425,21.35852 4.1848,20.79715 0.1584,-0.13831 0.4494,-6.55893 0.6474,-14.26749 z m 53.0266,13.27182 c 1.5091,-4.13566 4.8717,-28.13373 3.9459,-28.16115 -2.0027,-0.0608 -7.2631,2.18171 -7.1825,3.06007 0.5167,5.65047 0.8452,16.4561 0.6078,19.99128 -0.2767,4.12766 0.1066,9.71753 0.669,9.75521 0.1426,0.0207 1.0236,-2.0809 1.9593,-4.6454 z m -25.9281,-25.96966 c 0.03,-0.43891 -0.7561,-0.85215 -1.7458,-0.91853 -1.4975,-0.10046 -1.638,0.10241 -0.8363,1.21198 0.9731,1.34693 2.4837,1.17547 2.5821,-0.29375 z m -8.5597,-5.70638 c 7.4965,-0.0252 19.0012,-0.13098 25.5661,-0.23409 l 11.936,-0.18756 -0.078,-2.5453 c -0.1103,-4.04216 -1.4383,-7.40236 -5.0032,-12.67085 -7.7099,-11.39268 -19.062,-16.07608 -33.2544,-13.71922 -7.3571,1.22166 -11.5503,3.16446 -15.5827,7.22027 -4.8561,4.88389 -6.0453,7.71299 -6.5779,15.64897 l -0.4648,6.9286 4.9107,-0.19601 c 2.7005,-0.1081 11.0439,-0.21221 18.5403,-0.24427 z m -3.709,-35.27925 c -0.3124,-0.59068 -0.6965,-2.43283 -0.8532,-4.09361 -0.19,-2.01042 -0.7999,-3.15526 -1.8259,-3.42518 -2.5205,-0.66291 -3.5379,0.88536 -2.5347,3.8566 0.7158,2.11888 2.5731,3.68285 5.5243,4.65127 0.1407,0.0474 -0.01,-0.39827 -0.3105,-0.98908 z m 12.1717,0.16045 4.3843,0.28193 0.9712,-5.53506 c 0.6377,-3.63414 0.675,-5.87346 0.1092,-6.52058 -1.3276,-1.51868 -9.4584,-2.36991 -11.9753,-1.25361 -2.6619,1.18028 -3.4071,4.31857 -2.2924,9.65305 0.6782,3.24517 1.0635,3.75489 2.6073,3.44947 0.996,-0.19718 3.7842,-0.23021 6.1957,-0.0769 z m 12.3588,-1.38228 c 0.7331,-2.74709 -0.073,-5.47049 -1.6534,-5.57652 -0.5771,-0.0381 -1.5585,1.60616 -2.1812,3.65534 -0.9572,3.1509 -0.9316,3.79344 0.167,4.16538 2.2222,0.75311 2.9954,0.28023 3.6691,-2.24423 z m -10.5017,-15.77227 3.38,0.39912 -1.9024,-1.81099 c -3.1826,-3.02942 -5.8364,-3.45269 -7.7855,-1.24123 -2.3449,2.66043 -2.2144,3.30617 0.5534,2.74018 1.306,-0.26646 3.8955,-0.30733 5.7545,-0.0872 z" transform="translate(-199.49572,288.39584) translate(-1578.4959,-598.41675)"/>
</svg>