<?xml version="1.0" ?><svg xmlns="http://www.w3.org/2000/svg" width="138.53996mm" height="113.00917mm" viewBox="0 0 138.53996 113.00917">
    <path fill="#e9cbaf" d="m 154.6135,246.43056 c 0.59972,-8.39608 5.99723,-34.38392 9.39565,-43.57962 3.39836,-9.1957 13.39372,-16.59224 15.19285,-15.79261 1.79919,0.79962 -1.39933,24.7884 -1.39933,24.7884 0,0 18.19152,-20.19055 23.38907,-17.79168 5.19756,2.39888 -2.19899,16.39234 -3.79822,21.19009 -1.59923,4.79776 -15.19291,33.38439 -15.19291,33.38439 l 5.39746,2.39888 c 0,0 19.99065,-11.59458 27.1873,-12.99393 7.19664,-1.39934 35.38346,-2.39887 40.78091,8.79589 5.3975,11.19476 8.19619,20.79028 8.19619,20.79028 0,0 5.19757,-6.79683 6.59691,-7.19664 1.39935,-0.39981 2.59879,2.59879 2.59879,2.59879 0,0 5.99719,0.39981 6.59691,3.59832 0.59972,3.1985 -2.59878,2.79869 -2.59878,2.79869 0,0 6.59692,2.99859 4.19804,6.397 -2.39888,3.39841 -4.39795,0.39981 -4.39795,0.39981 0,0 -3.3984,8.39608 -7.19663,9.59552 -3.79822,1.19944 -6.79682,0.39981 -6.39701,-0.79963 0.39981,-1.19944 -6.19708,2.39888 -6.19708,2.39888 l -3.99813,6.39701 c 0,0 -28.98643,1.99906 -32.78466,1.79916 -3.79823,-0.19991 -9.99536,-1.79916 -9.99536,-1.79916 0,0 -27.98691,1.39935 -29.78604,0.99953 -1.79919,-0.39981 -5.99723,0.99953 -13.39378,1.19944 -7.39649,0.19991 -19.79075,-4.39794 -20.99017,-15.59271 -1.19942,-11.19476 2.59881,-24.78841 8.59597,-33.9841 z" transform="translate(-143.13957,-184.94377)"/>
    <path fill="#ffa1aa" d="m 169.53337,207.04354 c -0.0217,-1.2e-4 -0.0434,0.003 -0.067,0.0101 -1.48716,0.44614 -2.97488,4.61024 -5.05689,12.04592 -2.08201,7.43567 -3.56962,20.8198 -1.48761,21.56337 0,0 3.86724,-11.1529 5.05694,-15.46559 1.17112,-4.24531 2.91873,-18.14596 1.55457,-18.15375 z m 16.73656,9.0819 c -1.4871,0 -7.13798,8.03118 -8.62513,11.60031 -1.48716,3.56912 -5.0562,14.12681 -2.82553,15.76266 2.08201,-1.63585 5.80064,-6.39463 7.73392,-12.19445 1.93328,-5.79983 5.2039,-15.16852 3.71674,-15.16852 z m -35.45425,58.86483 c -1.63588,0.14872 -2.52813,3.4199 0,4.16347 2.52813,0.74356 4.77596,0.56043 5.35285,-1.33794 0.66559,-2.19025 -3.2709,-2.82553 -5.35285,-2.82553 z m 25.71226,0.37972 c -1.13166,-0.0307 -2.37797,0.17563 -3.49334,0.68684 -2.23067,1.33842 -2.37871,3.56991 -0.59416,4.01605 1.78455,0.44613 5.50267,0.59475 7.28716,-1.78467 1.22693,-1.63585 -0.70989,-2.85073 -3.19966,-2.91822 z" transform="translate(-143.13957,-184.94377)"/>
    <path fill="#fff" d="m 232.61059,238.58287 c -9.45438,-0.59663 -24.36141,1.09224 -29.35479,4.32325 -5.28712,5.48293 6.30262,11.74729 12.17719,10.37656 5.87457,-1.37073 7.31549,-6.81754 12.79843,-7.01336 5.48293,-0.19582 18.92211,-2.36708 13.43918,-5.30437 -1.37073,-0.73432 -5.90854,-2.1832 -9.06001,-2.38208 z m -67.03839,9.87456 c -5.2023,0.81041 -4.58857,13.89387 -6.23259,18.99035 -1.67012,5.17736 1.45386,5.82736 -2.8391,10.68875 -4.289,4.85691 -7.51536,7.84942 -3.84111,12.69277 -1.5031,1.33609 1.3361,4.17497 8.01657,5.01003 6.68047,0.83506 9.80579,-3.57144 11.85767,-4.17494 5.67841,-1.67012 4.50922,-3.50722 0.16692,-9.85366 -3.30216,-4.82624 -4.84338,-9.0187 -3.50728,-12.35894 2.03438,-3.36681 3.1064,-22.04236 -3.62108,-20.99436 z" transform="translate(-143.13957,-184.94377)"/>
    <path d="m 154.70173,296.59176 c -10.31956,-3.11315 -11.44374,-17.18759 -11.52413,-19.8675 -0.4507,-15.02611 3.13933,-22.86567 8.90995,-29.43808 1.73292,-1.9737 2.40073,-3.49076 2.40073,-5.4536 0,-5.2795 2.3583,-20.80388 4.24698,-27.95696 2.73953,-10.37583 6.90422,-18.51899 12.19206,-23.83903 2.40411,-2.41862 5.22632,-4.61219 6.27164,-4.87453 3.16867,-0.79533 5.70983,0.60594 6.93459,3.82378 1.12074,2.94464 0.83598,5.15238 -1.92533,14.92736 -0.41588,1.47229 0.3488,0.99592 3.7069,-2.3089 4.22652,-4.15949 9.85767,-7.69977 13.66773,-8.59282 1.39161,-0.32622 2.57548,-0.0217 3.81207,0.98087 1.58825,1.2876 1.79347,2.09436 1.79267,7.04718 0,5.47471 -0.14844,5.90242 -6.96335,20.18918 -3.82933,8.02783 -8.56458,17.07273 -10.52279,20.09976 -1.95821,3.02703 -3.45629,5.60028 -3.32917,5.7183 0.12717,0.11802 -0.69692,0.77811 0.96423,1.4668 2.89277,1.19936 3.102,1.18667 4.95568,-0.30083 3.45566,-2.77303 13.27335,-8.40488 17.25393,-9.89758 6.02438,-2.25915 14.90906,-3.85495 21.43555,-3.85009 14.99529,0.0114 25.25596,4.14389 30.35913,12.22781 1.94466,3.08043 4.93441,12.1028 4.93441,14.89065 v 1.80273 l 2.77486,-1.88307 c 3.15734,-2.14263 6.80662,-2.58508 6.09838,-0.73941 -0.31284,0.81523 0.072,1.14362 1.34043,1.14362 2.2906,0 6.17145,2.98008 5.17651,3.97503 -0.46397,0.46396 -1.57916,0.28962 -3.06615,-0.47929 -1.2853,-0.66473 -3.07689,-1.20851 -3.9812,-1.20851 -1.15945,0 -1.51289,-0.3424 -1.19862,-1.16129 0.34714,-0.90477 0.15467,-1.00443 -0.87149,-0.45121 -2.03455,1.0969 -4.56279,4.06052 -5.44063,6.37753 -0.8433,2.22588 -2.43447,2.71814 -3.69645,1.14362 -0.4201,-0.52418 -1.68591,-4.18529 -2.8129,-8.1359 -2.463,-8.63388 -4.06429,-11.92863 -7.36625,-15.15688 -7.15261,-6.99303 -29.288,-9.27294 -43.47275,-4.47765 -6.54245,2.21175 -14.99867,6.62724 -17.06524,8.91081 -1.75424,1.93837 -4.21433,1.91938 -8.09918,-0.0625 -2.81952,-1.43838 -0.92101,-1.47194 -2.12632,-0.38122 -0.72694,0.65786 -1.89508,1.19616 -2.59583,1.19616 -2.25778,0 -1.42174,-3.239 2.66479,-10.32454 2.1664,-3.75632 5.63721,-10.60365 7.71281,-15.21619 2.07566,-4.61259 5.60417,-11.81736 7.84119,-16.01059 2.23697,-4.19329 4.29936,-9.08224 4.58309,-10.86433 0.46436,-2.91679 0.3615,-3.24026 -1.03085,-3.24026 -2.46186,0 -10.18914,6.30852 -14.77012,12.05827 -6.64313,8.33803 -14.73477,25.34293 -17.38984,36.54532 -0.94211,3.97497 -2.32142,5.42816 -2.32142,2.44567 0,-3.13967 2.469,-13.38177 4.66771,-19.36281 2.76211,-7.51377 8.28663,-29.06803 8.8542,-34.54548 0.52584,-5.07467 -0.57106,-5.2457 -4.88906,-0.76239 -8.08192,8.39144 -12.63287,21.39072 -15.94792,45.55396 -1.14687,8.35965 -1.57138,9.83485 -3.45635,12.01132 -3.38292,3.90607 -6.40229,9.48842 -6.33962,19.1973 0.0985,15.25747 4.09134,21.51329 10.82116,22.55489 3.16707,0.49021 3.24049,0.4527 3.25066,-1.66207 0.006,-1.19004 0.21729,-2.9356 0.47014,-3.87908 0.33142,-1.23682 0.13123,-1.71542 -0.7175,-1.71542 -1.35181,0 -3.36417,-2.98986 -3.36417,-4.57342 0,-0.79727 1.5484,-1.48624 3.04699,0.67462 1.85523,2.67516 3.35965,1.64775 4.46678,-0.12763 0.80082,-1.28419 2.55941,-1.19176 2.76263,-0.98854 0.83347,0.83346 -0.68714,4.18505 -2.10259,4.63432 -1.18232,0.37528 -1.52306,1.15413 -1.52306,3.48167 0,1.64904 -0.0858,3.25559 -0.19059,3.57008 -0.10487,0.31449 0.555,0.67793 1.46629,0.80773 2.80917,0.40004 10.40951,-0.49756 14.33525,-7.82748 2.20723,-4.12125 4.91857,-5.44826 5.34268,-5.18614 1.09352,0.67582 1.77803,2.01875 0.45287,4.55963 -1.46697,2.81283 -2.68646,3.26239 -0.387,3.26239 1.07757,0 1.26827,-1.09827 3.21921,-2.44053 2.63901,-1.81566 4.41167,-2.45014 6.92344,-2.47787 3.80909,-0.0423 5.06164,1.41408 1.89909,2.20781 -3.48116,0.87372 -11.19461,7.31466 -10.0733,8.41145 0.14604,0.14283 5.32604,0.069 11.51105,-0.16411 9.81626,-0.37002 11.24555,-0.5853 11.24555,-1.69404 0,-1.69798 3.70222,-5.13751 6.19175,-5.75237 1.76517,-0.43601 2.05536,-0.97785 2.48605,-4.64239 1.28273,-10.91402 7.99912,-19.98671 16.6278,-22.46137 2.6314,-0.75467 5.19075,-0.33279 5.19075,0.85565 0,0.39106 -0.95292,0.71104 -2.11758,0.71104 -3.78696,0 -9.22193,4.57526 -12.22643,10.29252 -1.7097,3.2533 -1.99126,4.70603 -1.92121,9.9113 0.0452,3.35462 0.20671,6.95701 0.35898,8.0053 0.26383,1.8164 0.0886,1.91069 -3.72721,2.00452 -3.7745,0.0928 -6.28844,1.15751 -6.28844,2.66331 0,1.83413 27.45724,0.12134 34.30766,-2.14016 3.43908,-1.13532 4.46667,-1.89748 5.71807,-4.24103 1.5393,-2.88265 3.4316,-3.82974 3.4316,-1.71748 0,1.42294 0.71899,1.41631 2.62357,-0.024 2.03008,-1.53547 3.47572,-1.40327 3.47572,0.31781 0,1.54091 -2.99266,3.89972 -4.94773,3.89972 -0.65409,0 -1.48454,0.77194 -1.84535,1.71542 -1.16528,3.04688 -3.4978,4.36626 -10.42798,5.89831 -5.3229,1.17678 -9.71672,1.50574 -20.28262,1.51866 -7.9504,0.01 -13.67625,-0.28842 -13.94683,-0.72625 -0.2891,-0.4678 -7.19704,-0.58639 -18.66051,-0.32039 -12.63201,0.29311 -16.39788,0.16348 -17.49477,-0.42353 -1.21744,-0.65158 -1.97645,-0.58794 -3.30373,0.27681 -2.22159,1.44747 -12.09675,2.27195 -19.4264,0.0608 z m 111.09831,-9.98745 c 0,-0.66153 7.67725,-7.78115 8.89411,-8.24815 0.55946,-0.21465 1.01719,-1.0301 1.01719,-1.81199 0,-0.78195 0.22575,-1.64744 0.50171,-1.92333 0.81328,-0.81328 2.54797,1.06493 2.54797,2.75879 0,1.5488 -5.40466,7.32902 -8.30332,8.88033 -1.63023,0.87247 -4.65766,1.09633 -4.65766,0.34435 z m 12.96098,-13.57424 c 0,-0.59171 -1.08935,-1.9924 -2.42075,-3.11269 -1.83475,-1.54388 -2.17441,-2.18916 -1.40333,-2.6657 1.18708,-0.73363 2.89924,-0.24256 4.77705,1.37022 1.6695,1.43386 1.81028,5.48402 0.19064,5.48402 -0.62899,0 -1.14361,-0.48409 -1.14361,-1.07585 z m -121.73987,0.55172 c -1.78752,-1.30704 -1.4147,-4.62941 0.5618,-5.0064 2.43665,-0.46476 3.54103,2.38243 1.79782,4.71283 -0.58781,0.78582 -1.32076,1.14174 -2.35962,0.29357 z m 9.71775,-1.00106 c -0.37774,-1.32048 -0.092,-2.37306 0.74792,-3.21299 0.93936,-0.73044 1.98955,-0.8088 2.71997,-0.0523 1.64332,1.70206 0.5964,5.23579 -1.47755,5.23579 -1.19627,-0.0461 -1.70358,-0.96808 -1.99034,-1.97054 z m 4.7946,-25.5494 c -1.17844,-3.07112 4.06005,-17.92478 9.05713,-25.68128 3.07089,-4.76664 5.99602,-7.13809 7.90231,-6.40658 2.67612,1.02691 -1.35129,11.98827 -9.13181,24.85404 -4.73347,7.82724 -6.8495,9.78276 -7.82763,7.23382 z m 10.43879,-17.52634 c 4.02529,-8.513 5.1645,-12.15353 3.64464,-11.64685 -2.22519,0.74169 -10.55396,19.46368 -10.54075,23.69414 0.006,1.43832 2.96562,-3.73471 6.89611,-12.04729 z m -21.95653,16.60647 c -2.62305,-0.94056 1.03852,-21.32005 6.36404,-35.4204 3.04688,-8.06728 5.606,-8.80691 5.63224,-1.62782 0.0143,3.86541 -1.33751,9.95979 -5.51839,24.88177 -3.06037,10.92295 -4.16418,12.99603 -6.47789,12.16645 z m 6.6894,-22.09239 c 1.72377,-6.37187 3.01617,-12.71892 2.87196,-14.10458 -0.23982,-2.3041 -0.4061,-2.07589 -1.94603,2.67033 -1.95501,6.02536 -4.78374,19.59663 -4.69608,22.53005 0.0769,2.57193 0.0566,2.63209 3.77015,-11.0958 z" transform="translate(-143.13957,-184.94377)"/>
</svg>