<?xml version="1.0" ?><svg xmlns="http://www.w3.org/2000/svg" width="252.49498mm" height="201.84747mm" viewBox="0 0 252.49498 201.84747">
    <path fill="#ff6b41" d="m 190.88867,163.48828 c -3.83717,4.36993 -6.75313,7.96876 -7.12695,8.5918 -0.94723,1.57871 -27.46824,27.46944 -30.94141,28.73242 -3.43828,1.25028 -20.38613,-8.57847 -20.72851,-8.77734 -0.003,0.007 -0.11133,0.25195 -0.11133,0.25195 0,0 -13.89256,22.10325 -14.83985,32.20703 -0.94723,10.10377 6.00002,16.41797 6,16.41797 0,0 7.89276,15.1564 12.62891,18.94531 4.73614,3.78892 22.10156,10.73438 22.10156,10.73438 l 12.63086,-10.41992 c -3.15743,-1.26297 -23.05078,-26.52149 -23.05078,-26.52149 l 5.05274,-30.3125 c 0,0 52.41425,-22.73205 57.15039,-29.99414 4.73614,-7.26209 2.84084,-4.73699 -5.05274,-5.05273 -7.89357,-0.31574 -17.99804,3.47265 -17.99804,3.47265 0,0 1.70005,-3.80036 4.28515,-8.27539 z m 106.84766,5.78906 c -0.0639,0.21802 -3.37999,11.70403 5.37695,17.95899 8.8408,6.31486 26.83789,16.73437 26.83789,16.73437 l -7.57812,-24.94531 c 0,0 -24.4133,-8.84945 -24.63672,-9.74805 z M 134.23047,187.3125 c -0.002,-0.0556 -0.36619,0.66924 -1.08399,2.3418 0.72715,-1.45026 1.08633,-2.28622 1.08399,-2.3418 z m 220.66406,5.92188 -22.73242,12.31445 0.94727,5.05078 C 334.37234,211.54684 353,235.85938 353,235.85938 l -6.92578,34.63085 c -2.22381,-2.4489 -4.56764,-4.92701 -7.10938,-7.46875 -18.25809,-18.25809 -52.12695,-20.90429 -52.12695,-20.90429 0,0 -0.26476,-5.29066 -1.05859,-9.78907 -0.79383,-4.49836 -5.02789,-17.4639 -8.73242,-17.72851 -3.70455,-0.26461 -6.61555,4.49836 -8.73243,6.61523 -2.11688,2.11688 -19.05132,1.5868 -22.75586,0.79297 -3.70454,-0.79383 -11.64296,1.3236 -14.28906,-2.91015 -2.14996,-3.43993 -6.3973,-9.15065 -9.19141,-9.32618 -0.64479,-0.0405 -1.21167,0.21244 -1.6582,0.85743 -2.38149,3.43993 -8.20312,30.43164 -8.20312,30.43164 0,0 -44.98358,18.78591 -52.92188,30.69336 -4.89403,7.34105 -11.68673,15.09894 -16.74414,24.79492 l 0.1836,-0.375 c -3.56835,-2.59517 -31.79211,-27.57458 -40.55079,-30.49414 -8.758671,-2.91956 -17.517211,-2.59409 -14.597652,5.1914 2.919559,7.78549 24.979952,30.168 33.089842,40.87305 8.10988,10.70505 12.00195,4.86524 12.00195,4.86524 l 9.32618,-18.95118 c -2.87697,5.75487 -5.13585,12.17085 -5.99414,19.60938 -1.79458,21.98355 8.75477,33.48346 22.80273,42.53125 -0.43755,0.13905 -34.60445,10.99958 -40.08398,13.25586 0,0 -1.29704,7.78498 6.16406,8.10937 7.46109,0.3244 33.08845,3.56942 42.82031,1.62305 9.0239,-1.80478 12.70508,-9.37916 13.19922,-10.48438 4.29673,2.39658 8.54327,4.87481 12.51758,7.67774 5.99579,4.22861 11.30175,7.51804 16.28515,10.14258 -6.64339,1.25599 -30.83824,5.89666 -34.21679,7.58593 -3.89274,1.94637 -18.16709,9.08276 -19.78907,14.92188 0,0 8.43417,7.78533 21.73438,3.89258 13.30021,-3.89274 36.00854,-8.75783 41.84766,-12.32617 5.83912,-3.56835 3.24414,-6.8125 3.24414,-6.8125 l -4.2168,-3.26563 c 12.15476,4.76729 23.20165,5.4041 38.61719,4.91211 24.87334,-0.79383 70.12183,-14.81848 88.64453,-29.10742 10.89102,-8.40165 17.72966,-18.5482 21.16211,-29.51172 l -0.24024,3.7207 c 0,0 28.82051,-1.72086 37.42383,-8.60351 8.60331,-6.88265 7.74215,-16.3467 6.02149,-17.20703 -1.57476,-0.78739 -33.33839,10.28721 -41.03516,12.17578 0.58875,-4.60552 0.65987,-9.29908 0.21875,-14.02539 -0.15682,-1.68026 -0.41774,-3.30724 -0.69336,-4.92774 2.56273,0.3456 12.56431,0.93959 22.58398,-8.70898 11.61448,-11.18431 12.04349,-11.61448 13.33399,-21.07813 1.2905,-9.46364 -4.30078,-12.47461 -4.30078,-12.47461 0,0 -30.97222,29.68216 -33.12305,30.97266 l 0.50977,6.64258 c -3.13938,-12.6177 -10.0293,-23.75944 -20.73829,-35.6875 l 13.24415,12.64258 c 0,0 10.10289,-24.31276 10.73437,-30.94336 0.63149,-6.63061 3.15875,-28.10057 0.63281,-35.99414 -2.52595,-7.89358 -16.41992,-23.68166 -16.41992,-23.68164 z m -255.628905,125.32226 -3.892578,8.75781 c 0,0 24.328853,16.54564 30.167973,18.81641 5.83912,2.27077 14.59765,2.26953 14.59765,2.26953 l -4.86523,-22.38281 z m 261.212895,39.77148 -13.76563,14.625 c 0,0 29.68176,10.75439 34.84375,10.32422 5.16199,-0.43016 25.37939,0.001 24.94922,-8.17187 -0.43016,-8.17315 -46.02734,-16.77734 -46.02734,-16.77735 z m -54.20118,35.70313 -11.18359,3.01172 c 0,0 27.10045,23.22903 42.15625,24.51953 15.05581,1.2905 24.95034,3.44227 30.97266,-0.85938 6.02232,-4.30166 1.28891,-8.60459 -5.59375,-12.90624 -6.88265,-4.30168 -56.35157,-13.76563 -56.35157,-13.76563 z" transform="translate(2941.6375,1653.9104) matrix(0.57850028,0,0,0.57850028,-2959.3304,-1731.0804)"/>
    <path fill="#ff3010" d="m 216.59961,136.7168 c -5.99911,0 -41.04647,6.62976 -47.36133,11.68164 -6.31486,5.05189 -23.99625,17.68322 -27.78516,24.94531 -3.78891,7.26209 -9.47265,18.62891 -9.47265,18.62891 0,0 17.36666,10.10281 20.83984,8.83984 3.47317,-1.26298 29.99418,-27.15371 30.94141,-28.73242 0.94723,-1.57872 17.99901,-22.10304 25.89258,-26.52344 7.89357,-4.4204 12.94443,-8.83984 6.94531,-8.83984 z m 71.35742,0.3164 c 0,0 33.78586,32.83671 35.04883,35.99414 1.26298,3.15743 8.52365,28.41679 14.20703,31.57422 0,0 15.4714,-8.84187 16.73438,-10.73633 1.26297,-1.89446 -11.99687,-21.78474 -15.1543,-28.09961 -3.15743,-6.31486 -18.94557,-20.83869 -25.57617,-24.94335 -6.6306,-4.10466 -25.25977,-3.78907 -25.25977,-3.78907 z m 143.92969,39.76563 -31.40234,92.48437 c 0,0 4.3009,12.90518 9.46289,8.60352 5.16199,-4.30166 28.82138,-34.41235 33.12304,-44.73633 4.30166,-10.32398 8.17276,-30.11299 3.8711,-39.14648 -4.30165,-9.03348 -15.05469,-17.20508 -15.05469,-17.20508 z m -378.599611,4.81055 c -0.151674,-0.0151 -0.288508,0.002 -0.410156,0.0527 -3.892745,1.62198 -3.892921,14.92103 0.324219,34.38477 4.21714,19.46373 20.436813,46.38992 28.871094,51.25585 8.43428,4.86593 11.677379,-11.35406 12.326172,-17.51757 0,0 -13.299546,-31.46734 -15.570313,-34.0625 C 76.628318,213.20859 57.989011,182.078 53.287109,181.60938 Z M 331.0332,272.88672 c -1.13691,-0.0161 -2.22235,0.48932 -2.65234,1.7793 0.79383,2.11688 6.08594,3.17445 6.08594,0.79296 0,-1.41401 -1.77195,-2.54879 -3.4336,-2.57226 z m -23.72265,1.87109 c -2.47865,-0.0298 -5.45592,2.80135 -6.1836,6.25781 3.43993,6.35063 11.11298,0.264 8.9961,-4.23437 -0.66153,-1.40574 -1.68584,-2.00987 -2.8125,-2.02344 z M 39.119141,274.9043 c -2.932151,-0.11421 -4.935522,0.6485 -4.083985,2.77734 1.621977,4.54154 26.275587,28.54813 33.087891,33.41406 6.812303,4.86593 22.05878,17.1921 25.302734,12.32618 3.243954,-4.86593 6.97e-4,-17.51635 -4.865234,-23.35547 -4.865931,-5.83911 -32.764929,-17.84181 -37.630859,-21.41016 -2.737087,-2.0072 -8.040639,-3.60512 -11.810547,-3.75195 z m 143.089839,0.33203 c -0.48684,0.0178 -1.00035,0.32102 -1.34765,1.01562 -0.92614,3.30762 2.24956,2.51488 2.64648,0.79493 0.24807,-1.075 -0.48742,-1.84027 -1.29883,-1.81055 z m 273.99805,8.65234 c -7.58585,0.11573 -27.73443,14.53946 -31.63281,17.65821 -4.30166,3.44132 -17.63672,15.48441 -17.63672,17.20507 0,0 4.7311,8.6044 11.18359,4.30274 6.45249,-4.30166 30.11093,-14.62512 33.98243,-19.78711 3.87149,-5.16199 11.18542,-15.48641 6.02343,-18.92774 -0.48393,-0.32262 -1.13518,-0.46314 -1.91992,-0.45117 z m -128.42187,1.79102 c -1.38921,0.0331 -2.97715,1.28996 -3.63868,4.06836 0,3.96915 5.82133,3.43884 6.08594,-0.79493 0.13231,-2.11687 -1.05806,-3.30651 -2.44726,-3.27343 z M 199.5,286.02734 c -0.87652,0.0165 -1.70465,0.67695 -2.10156,2 -1.05844,3.96915 5.68878,2.38294 4.49804,-0.13086 -0.59537,-1.25689 -1.51996,-1.88567 -2.39648,-1.86914 z m -19.46484,7.86133 c -2.08261,0.0299 -4.93872,1.87534 -5.12891,4.0625 0.52922,1.98458 1.72015,3.70348 4.63086,2.77735 2.91071,-0.92614 3.70586,-3.70394 2.38281,-5.95313 -0.37211,-0.63258 -1.06983,-0.89842 -1.88476,-0.88672 z m -16.86914,5.34766 c -1.46776,-0.0155 -3.14385,1.49257 -3.47461,4.13867 0,0 -0.52884,2.64648 2.64648,2.64648 3.17532,0 3.9686,-1.85202 2.91016,-5.02734 -0.39692,-1.19074 -1.20138,-1.74851 -2.08203,-1.75781 z m 52.93359,5.48047 c -1.72449,-0.0163 -3.50236,1.37079 -3.35352,4.34765 1.32305,6.08603 7.1454,1.85298 6.35157,-1.85156 -0.3473,-1.62074 -1.65678,-2.48343 -2.99805,-2.49609 z m 122.27148,10.59961 c -0.89261,0.0302 -1.85653,0.60745 -2.58007,1.95117 -0.79383,3.17532 4.76273,3.9693 5.02734,1.05859 0.16125,-1.77371 -1.05478,-3.05693 -2.44727,-3.00976 z m -149.09179,0.70703 c -2.79905,-0.032 -4.21013,3.29462 -2.59766,6.27148 1.71996,2.51379 4.76397,2.51438 6.88086,0.66211 3.0754,-2.69096 -0.52977,-6.35164 -3.70508,-6.88086 -0.19846,-0.0331 -0.39152,-0.0506 -0.57812,-0.0527 z m -26.875,10.00976 c -0.88407,0.005 -1.51779,0.8345 -1.125,2.87696 2.24918,3.43993 4.49833,-0.26391 3.04297,-1.85157 -0.59124,-0.64498 -1.31309,-1.02864 -1.91797,-1.02539 z m 115.27929,6.68164 c -1.26173,-0.004 -2.56285,0.43398 -3.54687,1.48828 -1.32305,3.96916 -0.794,9.26111 5.55664,5.02735 4.66374,-3.10917 1.47856,-6.50362 -2.00977,-6.51563 z m -78.87695,3.09571 c -0.80939,0.007 -1.74739,0.48729 -2.4668,1.5664 -0.26461,2.91071 4.23438,2.38251 4.23438,0.26563 0,-1.15767 -0.79073,-1.84041 -1.76758,-1.83203 z m 142.50781,0.0781 c -1.62073,0.0331 -3.67203,0.95922 -4.73047,2.54688 0.26461,4.23376 5.55586,4.23477 6.87891,0.26562 0.66153,-1.98457 -0.5277,-2.84557 -2.14844,-2.8125 z m -36.19336,0.45703 c -1.57187,-0.005 -3.12994,0.68099 -3.46484,2.35547 -0.52922,5.55681 5.29125,3.96829 6.87891,0.79297 0.91786,-1.83573 -1.26002,-3.14093 -3.41407,-3.14844 z m -124.16797,8.41211 c -1.43332,-0.0306 -3.09291,0.94755 -3.00195,2.67578 1.05844,3.04301 2.11606,4.49738 4.36524,3.30664 2.24919,-1.19075 1.45442,-3.83565 0.26367,-5.29101 -0.37211,-0.4548 -0.97543,-0.67752 -1.62696,-0.69141 z M 315.86328,353.25 c -1.29144,0.0171 -2.66797,0.87668 -3.62305,2.65039 0,5.02759 7.93829,2.38141 6.61524,-0.5293 -0.64085,-1.40987 -1.77901,-2.13717 -2.99219,-2.12109 z m -116.44726,2.34375 c -0.93932,0.0229 -1.88535,0.57148 -2.54688,1.89453 -1.85227,3.96915 3.96898,6.35009 5.55664,2.91016 1.09152,-2.36495 -0.94327,-4.85514 -3.00976,-4.80469 z m 101.54296,11.50781 c -1.13208,-0.003 -2.60379,0.64329 -4.33203,2.29297 -1.05844,5.2922 2.38132,7.67524 5.55664,3.9707 2.23265,-2.60475 1.45664,-6.2569 -1.22461,-6.26367 z m 103.82618,5.85156 -8.17188,9.03516 43.44727,24.08789 c 0,0 22.36767,14.62525 21.9375,3.8711 -0.43017,-10.75415 -9.03296,-15.05481 -19.78711,-20.2168 -10.75415,-5.16199 -37.42578,-16.77731 -37.42578,-16.77735 z m -289.94922,0.42579 c 0,0 -25.950841,8.43377 -33.736331,11.67773 -7.785489,3.24395 -19.139565,10.38088 -21.085937,17.51758 l -1.623047,5.1914 c 0,0 9.40732,-5.83966 11.029297,-6.16406 1.621977,-0.32439 27.250759,-4.8656 40.226558,-11.35351 12.97582,-6.4879 11.67774,-7.46094 11.67774,-7.46094 z m 148.28515,5.44531 c -0.74942,0.005 -1.53264,0.19283 -2.21484,0.62695 -2.91071,4.23376 -0.26603,5.02704 3.70313,2.91016 3.03888,-1.62074 0.95983,-3.5523 -1.48829,-3.53711 z m -108.70898,31.21094 c 0,0 -10.70419,12.97641 -12.32617,20.4375 -1.62197,7.4611 0.32406,21.73419 7.78515,22.05859 7.4611,0.3244 11.67774,-27.89845 11.67774,-31.4668 0,-3.56835 -5.51474,-9.40731 -7.13672,-11.02929 z m 218.31055,6.97265 c -3.84966,0.15523 -17.50977,8.59961 -17.50977,8.59961 0.64879,2.59516 1.62111,27.5728 8.75781,26.59961 7.13669,-0.97318 10.38123,-31.79138 9.73242,-34.71094 -0.0811,-0.36494 -0.43051,-0.51045 -0.98046,-0.48828 z" transform="translate(2941.6375,1653.9104) matrix(0.57850028,0,0,0.57850028,-2959.3304,-1731.0804)"/>
    <path d="m 356.1424,480.37002 c -0.49406,-1.28751 0.16114,-5.08185 1.456,-8.43188 5.48539,-14.19156 5.59173,-15.41237 1.74108,-19.98861 -3.501,-4.1607 -4.63012,-8.01257 -5.28202,-18.01909 l -0.34203,-5.25009 -10.44115,-1.75621 c -5.74263,-0.96591 -14.88776,-3.60733 -20.3225,-5.86983 -10.99291,-4.57635 -23.23635,-14.49253 -23.23635,-18.81952 0,-2.1565 -0.60266,-2.53127 -3,-1.86558 -1.65,0.45817 -8.40001,1.79513 -15.00001,2.97101 -12.58971,2.24304 -33.09898,1.8154 -48.37593,-1.0087 -6.85824,-1.26782 -7.47691,-1.15274 -10.7832,2.00564 -8.2012,7.83432 -36.01454,16.77937 -52.3176,16.82585 l -6.14339,0.0175 -0.81429,7.79074 c -0.99396,9.50972 -4.96771,19.16464 -9.68836,23.5396 l -3.52278,3.26479 3.48944,8.71646 c 3.70161,9.24646 4.39653,14.63709 2.07209,16.07367 -3.96278,2.44913 -9.70915,-8.94697 -14.81722,-29.38526 -2.81222,-11.25223 -2.64799,-15.54695 1.08701,-28.42507 4.84581,-16.70819 25.22881,-29.61496 52.32915,-33.13546 l 8.51492,-1.10614 -10.51492,-5.56386 -10.51492,-5.56385 -4,3.22558 c -6.64877,5.36155 -15.17306,7.43105 -30.2944,7.35478 -7.53808,-0.038 -15.46872,-0.56372 -17.62364,-1.16823 -3.25157,-0.91215 -5.00081,-0.37045 -10.28348,3.18452 -8.18446,5.50774 -15.90676,8.02001 -34.004486,11.06259 -20.246458,3.40383 -25.872812,6.07823 -28.584579,13.58724 -1.500272,4.15433 -2.870541,5.88123 -4.666667,5.88123 -7.109476,0 -1.170018,-18.84258 8.770212,-27.82298 7.332461,-6.62444 13.197906,-9.32887 33.557764,-15.47275 11.691356,-3.52804 18.468656,-6.27799 19.790246,-8.03006 1.51056,-2.00259 5.8187,-3.38676 17.34112,-5.57154 8.43218,-1.59883 15.59942,-3.11918 15.9272,-3.37856 0.32778,-0.25937 -1.00748,-2.07503 -2.96725,-4.0348 -2.90115,-2.90115 -4.62218,-3.505 -9.26262,-3.24992 -4.05381,0.22283 -8.09582,-0.83312 -13.99911,-3.65719 -10.22805,-4.89298 -23.230986,-13.61891 -26.551856,-17.81823 -1.41915,-1.79455 -5.70923,-4.11181 -10.01947,-5.41194 -16.20957,-4.88942 -43.603764,-27.43021 -50.498871,-41.55204 -3.908828,-8.00564 -4.925099,-22.84948 -2.320336,-33.89123 2.962582,-12.55858 4.889545,-10.0938 5.312318,6.79498 0,0 0.434616,10.01551 0.710161,12.43818 0.328386,2.88727 5.325943,3.27272 8.334408,3.59953 18.623908,2.0231 43.03111,19.09614 50.53731,35.35126 3.03805,6.57907 3.521406,6.98511 9.333336,7.84035 3.37114,0.49608 10.32935,2.26504 15.46269,3.93104 5.13333,1.66599 9.49243,2.87401 9.68689,2.68449 0.19445,-0.18953 -3.11261,-2.48404 -7.34903,-5.09891 -15.09125,-9.31485 -28.657146,-23.84132 -35.265466,-37.76255 -2.31796,-4.88304 -3.88533,-6.59306 -6.14823,-6.7078 -3.85841,-0.19564 -8.381161,-4.40909 -15.577982,-14.51267 -8.790811,-12.34137 -13.995336,-23.87198 -18.086147,-40.0698 -5.22048,-20.67081 -6.059955,-29.43472 -3.423825,-35.74386 2.33379,-5.58555 18.89249,-23.51968 21.715871,-23.51968 2.791092,0 2.172245,1.68654 -3.552083,9.68047 -2.933333,4.09635 -5.333333,8.71973 -5.333333,10.27418 0,1.55444 2.628931,5.65056 5.84207,9.10247 15.318529,16.4569 32.178719,45.76196 33.695219,58.56639 0.44336,3.74352 0.17328,8.62176 -0.60019,10.84053 -1.34581,3.86061 -1.22416,4.07349 2.828296,4.94932 7.67596,1.65897 16.07485,6.83631 27.84003,17.16147 l 11.60542,10.18496 2.2408,-3.71323 c 1.23245,-2.04227 3.96001,-6.28076 6.06125,-9.41887 2.10124,-3.13811 3.82044,-5.9096 3.82044,-6.15888 0,-0.24927 -2.08308,-0.79126 -4.62906,-1.20442 -9.54967,-1.5497 -19.92849,-11.46846 -24.69225,-23.59772 -1.00806,-2.56667 -3.19928,-6.33433 -4.86938,-8.37258 -1.67009,-2.03826 -3.41363,-5.71596 -3.87451,-8.17269 -1.80767,-9.63569 6.91215,-31.3583 15.51905,-38.66072 2.26461,-1.92138 3.76885,-4.90021 4.36866,-8.65122 1.28426,-8.03132 5.07316,-14.8348 11.49022,-20.63222 12.04919,-10.88572 33.14613,-21.93929 48.92853,-25.63571 11.63206,-2.72436 31.44345,-2.09492 34.63891,1.10054 3.26149,3.26149 1.28394,5.98471 -5.12066,7.0515 -10.63159,1.77084 -25.72514,11.03332 -30.45795,18.69117 -1.61649,2.61554 -2.6995,4.9951 -2.40668,5.28791 0.29281,0.29282 6.18164,-1.23874 13.08628,-3.40346 6.90464,-2.16472 13.9335,-3.93586 15.6197,-3.93586 5.00998,0 3.68938,4.38514 -3.28533,10.90917 -7.71159,7.21329 -19.56233,13.97811 -37.1255,21.19254 -7.25452,2.97995 -15.74003,6.7251 -18.8567,8.32257 -5.54467,2.84195 -5.66666,3.05067 -5.66666,9.69486 0,3.73471 -0.86269,9.65687 -1.91708,13.16034 l -1.91708,6.36996 6.32743,7.60318 c 3.48008,4.18174 7.70897,9.83856 9.39752,12.57069 1.68855,2.73213 3.45389,4.78387 3.92298,4.55943 12.33767,-8.86236 26.35193,-13.21627 40.71806,-17.35311 l 0.38329,-6.8333 c 0.55574,-9.90766 3.60323,-21.04548 6.94395,-24.06878 3.66917,-3.32056 8.33425,-2.21841 10.74735,2.53912 6.43221,12.6814 6.452,12.70042 10.68285,10.27224 3.28312,-1.88425 4.53458,-1.9639 8.47411,-0.53935 3.49969,1.26551 5.42476,1.30568 7.92738,0.16541 2.28828,-1.04261 4.08568,-1.08831 5.84168,-0.14853 3.34713,1.79133 6.36106,0.002 8.43611,-5.00717 1.89704,-4.57985 5.43772,-6.17763 9.21266,-4.15734 3.86086,2.06627 10.02711,15.63502 10.30739,22.68129 l 0.24072,6.05152 9.13534,1.53997 c 5.02444,0.84699 11.83534,2.5937 15.13534,3.88159 6.51831,2.54389 22.62897,12.66848 25.32197,15.91334 0.91917,1.10754 2.35935,2.0137 3.2004,2.0137 1.3353,0 7.65677,-19.75991 7.46465,-23.33333 -0.0394,-0.73334 -2.18417,-3.43334 -4.76609,-6 -5.7997,-5.76543 -12.35908,-15.83368 -14.58961,-22.39417 -1.43961,-4.23419 -2.67557,-5.30481 -8.65931,-7.50088 -8.98336,-3.29694 -20.46701,-13.90473 -26.97201,-24.91482 -5.32686,-9.01603 -6.29536,-14.11009 -2.9283,-15.40215 2.44294,-0.93744 11.05281,2.72914 17.80554,7.58263 2.63419,1.89331 5.68943,3.98674 6.78943,4.65208 3.90508,2.36198 -6.71232,-9.5729 -21.85894,-24.57134 -8.4511,-8.36843 -15.00514,-15.79861 -14.56454,-16.51151 0.93581,-1.51418 16.48029,-0.51322 26.61728,1.71396 15.6327,3.43465 28.10057,15.1639 40.14793,37.76949 9.02942,16.94273 8.80608,16.60099 15.28812,23.3931 7.62205,7.98664 9.70046,11.46953 12.41337,20.80162 1.86478,6.4146 1.96451,8.5922 0.61435,13.4145 -0.8865,3.16625 -1.24226,6.35477 -0.79059,7.08559 2.59326,4.19598 -5.14748,32.81127 -11.23933,41.54857 -2.25447,3.23349 -2.21409,3.52512 1.34811,9.73689 l 3.67219,6.40355 9.55031,-10.40355 c 5.25267,-5.72196 11.73629,-12.05172 14.40804,-14.06613 4.24678,-3.20192 5.48593,-5.57653 9.85251,-18.88055 2.74713,-8.3699 10.16653,-28.21666 16.48756,-44.10393 l 10.02709,-26.32243 c 0.74045,-1.94377 0.79237,-3.38939 -2.22784,-5.46369 -9.16664,-6.2957 -10.18102,-8.50902 -9.34407,-10.69006 2.42296,-6.31415 14.87639,0.0697 24.50311,12.56085 6.75587,8.76604 11.85118,25.81482 10.44878,34.96131 -3.70932,24.19222 -21.79788,54.4965 -38.80154,65.00534 -3.10472,1.91882 -4.91937,4.34214 -5.85587,7.82003 -3.0208,11.21838 -13.30916,20.09832 -29.02936,25.05538 l -7,2.20731 v 6.42317 c 0,3.53275 0.24887,6.42317 0.55304,6.42317 0.30417,0 7.45828,-2.7 15.89802,-6 8.43974,-3.3 16.04683,-6 16.90465,-6 0.85781,0 6.35139,-4.45161 12.20796,-9.89248 15.54907,-14.44539 33.13247,-28.77471 37.76807,-26.10752 3.14615,1.8102 4.25011,0.84621 4.62068,-3.40194 l 0.65117,-7.46485 c 1.15354,-13.22392 2.77622,-18.28652 5.11263,-15.95081 1.05592,1.0556 1.61712,6.33649 1.61712,15.21712 0,20.50034 -5.25861,34.87474 -16.09269,43.9894 -5.5528,4.67154 -21.54116,12.56414 -29.66142,14.64227 -4.72028,1.208 -8.1745,3.28094 -11.95013,7.17147 -4.13769,4.26361 -7.77553,6.29883 -16.46991,9.21426 -6.21669,2.0846 -14.2526,3.78058 -18.1435,3.82918 -6.20027,0.0774 -7.12044,0.46143 -8.19696,3.42057 -0.66695,1.83334 -1.62287,4.34338 -2.12427,5.57787 -0.75057,1.84802 0.70406,2.72571 8.23399,4.96822 5.03009,1.49803 13.92895,3.68195 19.77525,4.85316 5.8463,1.17122 12.23863,3.27317 14.20519,4.67101 1.96655,1.39783 9.78332,4.87326 17.37059,7.72317 27.01089,10.14576 35.05692,15.06516 39.77899,24.32118 4.18364,8.20062 3.16042,22.20078 -1.86108,25.46409 -2.24666,1.46002 -3.53072,-0.10648 -3.53072,-4.30732 0,-4.89857 -5.8818,-8.86603 -22.60518,-15.24791 -16.09917,-6.14368 -24.55047,-10.60091 -30.79207,-16.23983 -4.97274,-4.49257 -5.69866,-4.73691 -11.70575,-3.94004 -9.4502,1.25361 -27.27673,-2.28394 -37.77879,-7.49693 l -8.91611,-4.42576 -16.11129,8.70621 c -14.59053,7.88443 -15.76422,8.78641 -12.43439,9.55579 2.0223,0.46727 11.97396,2.42908 22.11479,4.35958 21.28337,4.05169 26.45638,6.30304 32.89545,14.3165 4.33841,5.39916 4.66614,6.46421 4.65908,15.14102 -0.008,9.94914 -1.84475,16.07237 -6.87217,22.91103 -1.72734,2.34965 -3.15024,6.21853 -3.18744,8.66667 -0.10928,7.19228 -5.70734,23.00903 -8.32185,23.51253 -1.25712,0.2421 -2.68992,-0.61323 -3.18398,-1.90074 z M 153.56748,440.13913 c 5.86592,-11.57584 5.75447,-26.51528 -0.18928,-25.37074 -5.59115,1.07664 -9.77093,31.74547 -4.32651,31.74547 0.70701,0 2.73912,-2.86863 4.51579,-6.37473 z m 214.40877,-1.7354 c 1.24345,-3.23943 2.29345,-7.85528 2.33333,-10.25744 l 0.0725,-4.36758 c -3.19335,1.58604 -6.32661,3.62787 -9.93379,4.06848 -2.55674,0 -2.55571,0.0805 0.12297,9.62725 1.22406,4.36252 2.84054,7.5855 3.66666,7.31067 0.81262,-0.27033 2.49486,-3.14195 3.73831,-6.38138 z m -4.46296,-19.73672 c 3.66468,-2.32242 0.93687,-6.11152 -6.53369,-9.07572 -8.14026,-3.22993 -51.84626,-12.62042 -53.62435,-11.5215 -2.83916,1.7547 24.05927,16.4915 36.22616,19.84717 7.11971,1.96364 21.31485,2.40853 23.93188,0.75005 z m -185.79787,-5.60646 c 8.41136,-1.61509 25.10451,-6.95519 34.19213,-10.93799 l 6.96829,-3.05398 -5.08075,-2.99772 c -5.02566,-2.96521 -5.19823,-2.97455 -15.91355,-0.86192 -14.76142,2.91036 -22.89431,5.57821 -31.13795,10.21425 -8.13903,4.57721 -9.17224,5.84056 -6.95831,8.50819 1.67731,2.02102 3.27306,1.94352 17.93014,-0.87083 z m 278.70232,-7.8111 c -2.84937,-5.51008 -8.11682,-9.10099 -28.35438,-19.32966 l -17.65208,-8.9219 c 0.0295,4.11757 -4.24722,6.20851 -6.50708,7.51597 l 8.23895,4.1544 c 4.53142,2.28491 14.31176,6.3732 21.73408,9.08508 7.42233,2.71188 15.52233,6.36298 18,8.11356 5.98765,4.2305 6.97785,4.09585 4.54051,-0.61745 z M 88.382084,394.35004 c 14.629436,-3.98461 28.772956,-9.97552 29.517126,-12.50285 0.21593,-0.73333 -0.36808,-2.33525 -1.29779,-3.55982 -1.54851,-2.0396 -2.97168,-1.72817 -16.954866,3.71028 -22.97416,8.93529 -27.378701,11.14777 -32.190022,16.16962 l -4.407781,4.60065 5.333334,-2.21156 c 2.933334,-1.21636 11.933329,-4.0092 19.999999,-6.20632 z m 198.666676,-1.65441 c 11.70977,-3.15908 58.77445,-26.94502 65.40039,-33.0526 6.75447,-6.22605 11.56562,-20.2783 13.45702,-32.15497 1.74515,-10.95824 0.32156,-22.39874 -4.57192,-32.5567 -7.1411,-14.82355 -33.55971,-38.89268 -50.9939,-45.1275 -3.27704,-1.17194 -13.45826,-4.01209 -22.62493,-6.31145 -15.27578,-3.83178 -18.39135,-4.17118 -37.33333,-4.06697 -23.39187,0.12869 -44.2104,5.29034 -52.71612,9.58825 -19.4152,9.81041 -39.99737,25.76985 -46.53533,38.6719 -8.45446,16.68408 -11.65084,33.39685 -8.72213,45.60507 3.00935,12.5444 9.54056,17.96248 45.30691,37.58514 4.76667,2.61516 12.47442,7.81802 17.12834,11.56191 10.33135,8.31115 14.79764,10.69365 22.74227,12.13168 10.21048,1.84817 50.35576,0.58312 59.46273,-1.87376 z m -55.81403,-23.10691 c -1.50158,-1.50158 -0.91452,-3.07486 1.14736,-3.07486 1.1,0 2,0.56459 2,1.25464 0,1.6813 -2.08212,2.88546 -3.14736,1.82022 z m 54.73917,-1.26084 c -1.06525,-1.06524 0.13891,-3.14736 1.82021,-3.14736 0.69006,0 1.25465,0.9 1.25465,2 0,2.06188 -1.57329,2.64894 -3.07486,1.14736 z m -78.02291,-7.88445 c 0.60303,-2.89615 2.96936,-3.07336 3.5106,-0.26291 0.28107,1.45947 -0.37289,2.33334 -1.74617,2.33334 -1.28097,0 -2.01595,-0.86245 -1.76443,-2.07043 z m -21.5689,-6.59624 c 0,-1.22222 0.645,-2.00722 1.43333,-1.74445 0.78833,0.26278 1.43333,1.04778 1.43333,1.74445 0,0.69667 -0.645,1.48167 -1.43333,1.74444 -0.78833,0.26278 -1.43333,-0.52222 -1.43333,-1.74444 z M 168.1632,333.75756 c -0.96228,-2.50764 1.39726,-5.24221 3.43604,-3.98217 2.19774,1.35827 1.73791,6.0718 -0.59233,6.0718 -1.12302,0 -2.40269,-0.94033 -2.84371,-2.08963 z m 16.88555,-1.91037 c 0,-0.73334 0.6,-1.33334 1.33334,-1.33334 0.73333,0 1.33333,0.6 1.33333,1.33334 0,0.73333 -0.6,1.33333 -1.33333,1.33333 -0.73334,0 -1.33334,-0.6 -1.33334,-1.33333 z m -34.29628,-2.66667 c 0,-1.46667 0.97036,-2.81482 1.70369,-2.81482 0.73334,0 1.92593,1.34815 1.92593,2.81482 0,1.46667 -0.6,2.66667 -1.33334,2.66667 -0.73333,0 -2.29628,-1.2 -2.29628,-2.66667 z m 166.96296,-1.33333 c -0.53221,-0.86113 -0.36765,-2.16569 0.36568,-2.89902 0.88889,-0.88889 1.65588,-0.81144 2.30098,0.23235 0.53221,0.86113 0.36765,2.16569 -0.36568,2.89902 -0.88889,0.88889 -1.65589,0.81144 -2.30098,-0.23235 z m -155.33334,-14 c 0,-1.22222 0.645,-2.00723 1.43333,-1.74445 0.78833,0.26278 1.43333,1.04778 1.43333,1.74445 0,0.69666 -0.645,1.48166 -1.43333,1.74444 -0.78833,0.26278 -1.43333,-0.52222 -1.43333,-1.74444 z m 13.33333,-3.33334 c 0,-3.03178 3.34384,-3.6331 4.43215,-0.79702 0.83676,2.18058 -0.14654,3.46369 -2.65437,3.46369 -0.97778,0 -1.77778,-1.2 -1.77778,-2.66667 z m 148.10527,0.55556 c 0.064,-1.55326 1.42741,-1.67875 1.85305,-0.61511 0.38516,0.9625 0.0997,1.82682 -0.34334,2.26988 -0.44305,0.44306 -1.5676,-0.24921 -1.50971,-1.65477 z m 29.95168,0.86991 c -0.91076,-1.47364 1.19254,-3.06487 2.42375,-1.83366 1.26772,1.26771 1.03145,3.07486 -0.402,3.07486 -0.69006,0 -1.59984,-0.55854 -2.02175,-1.2412 z m -56.72361,-6.09213 c 0,-1.1 0.6,-2 1.33333,-2 0.73334,0 1.9047,0.85239 1.9047,1.95239 0,1.1 -1.17136,2.04761 -1.9047,2.04761 -0.73333,0 -1.33333,-0.9 -1.33333,-2 z m 14.82914,-2.37086 c -2.03088,-2.03088 -1.89056,-4.96248 0.23753,-4.96248 1.8442,0 4.93333,2.58236 4.93333,4.12402 0,1.73995 -3.67368,2.33564 -5.17086,0.83846 z m 33.76573,-1.07865 c -0.49272,-0.79723 -0.20314,-2.14222 0.6435,-2.98886 1.16357,-1.16357 1.82979,-1.06938 2.72917,0.38585 1.27083,2.05623 0.63001,4.05252 -1.30087,4.05252 -0.64678,0 -1.57909,-0.65228 -2.0718,-1.44951 z M 173.04875,288.59254 c 0,-1.14328 0.6,-2.07869 1.33334,-2.07869 0.73333,0 1.33333,0.56459 1.33333,1.25465 0,0.69005 -0.6,1.62546 -1.33333,2.07869 -0.73334,0.45322 -1.33334,-0.11137 -1.33334,-1.25465 z m 161.33334,-2.82404 c 0,-1.14328 0.6,-1.70787 1.33334,-1.25465 0.73333,0.45323 1.33333,1.38864 1.33333,2.07869 0,0.69006 -0.6,1.25465 -1.33333,1.25465 -0.73334,0 -1.33334,-0.93541 -1.33334,-2.07869 z m -73,-29.47102 c -2.39211,-0.96524 -2.1207,-9.3241 0.33333,-10.2658 3.10078,-1.18988 5.94368,0.4602 6.82198,3.95959 1.49221,5.94544 -1.50436,8.58641 -7.15531,6.30621 z m -30.73333,-3.38363 c -2.24529,-2.24528 -1.99466,-4.29621 0.83832,-6.86002 5.09796,-4.61359 11.20759,-0.87959 8.45296,5.16617 -1.63124,3.58018 -6.51468,4.47046 -9.29128,1.69385 z m -60.99505,124.43076 5.27163,-2.28482 -9.81737,-5.39749 -9.81737,-5.3975 -6.12092,2.30855 c -3.36651,1.2697 -10.77093,3.33597 -16.45426,4.5917 -5.68334,1.25574 -10.33334,2.5091 -10.33334,2.78524 0,1.6707 7.67476,5.01309 13.65222,5.9456 9.7369,1.519 27.30417,0.18587 33.61941,-2.55128 z m 226.39505,1.09914 c 6.53564,-1.81504 6.32475,-3.48653 -0.66666,-5.28394 -14.37258,-3.69502 -20.69796,-5.79029 -26.77171,-8.8681 l -6.55228,-3.32028 -4.50467,4.3661 c -2.47757,2.40136 -4.50468,4.84035 -4.50468,5.41999 0,1.56305 8.90179,5.07311 18,7.09757 9.90017,2.20291 18.46148,2.4045 25,0.58866 z M 134.99427,342.18052 c -2.57276,-8.56775 -3.75331,-9.56746 -18.32717,-15.51965 -7.89213,-3.22327 -14.56031,-5.62496 -14.8182,-5.33709 -0.25788,0.28788 -0.84911,1.76397 -1.31384,3.28021 -0.728716,2.37752 0.94528,3.77308 12.1677,10.14377 11.66784,6.62356 18.94145,10.02219 22.10251,10.3275 0.59942,0.0579 0.68447,-1.24474 0.189,-2.89474 z m 252.60819,-5.10482 c 9.47352,-1.59998 16.2722,-5.04417 18.72539,-9.48625 1.09077,-1.97508 1.66639,-3.9079 1.27915,-4.29513 -0.38723,-0.38724 -6.89873,1.07874 -14.46999,3.25773 -7.57125,2.17899 -15.78844,3.9618 -18.26042,3.9618 -3.54173,0 -4.49449,0.54218 -4.49449,2.55762 0,1.40669 -0.37129,3.52518 -0.82509,4.70776 -0.88386,2.30331 0.57965,2.24625 18.04545,-0.70353 z M 88.199344,311.74787 c -4.68981,-8.61672 -11.21231,-15.35514 -22.004844,-22.7333 -7.608846,-5.20168 -24.908169,-12.51608 -26.302974,-11.12127 -1.651737,1.65174 13.390978,17.64805 24.490559,26.04308 9.990105,7.5559 26.606799,17.29385 27.100519,15.88183 0.23862,-0.68243 -1.23885,-4.31409 -3.28326,-8.07034 z m 342.728556,2.18778 c 5.19981,-2.50794 12.08227,-6.8174 15.29436,-9.57658 7.71077,-6.62354 12.48883,-17.84522 7.59829,-17.84522 -1.36116,0 -38.3458,25.30677 -41.80317,28.60385 -0.2006,0.1913 0.0358,1.39142 0.52521,2.66694 1.18825,3.09653 6.1298,2.062 18.38531,-3.84899 z m -296.75687,-7.24316 c 0.84942,-2.83508 1.54439,-5.48797 1.54439,-5.89532 0,-0.40734 -6.39703,-6.52504 -14.21561,-13.59487 -14.30873,-12.93844 -21.968086,-18.02178 -27.154456,-18.02178 -3.6083,0 -2.68172,3.37919 3.47323,12.66667 7.266996,10.96548 28.103406,29.66161 33.352446,29.92653 0.80059,0.0404 2.15059,-2.24614 3,-5.08123 z m 258.45759,-11.41225 c 2.61329,-2.14515 5.57689,-5.87588 6.58579,-8.29051 1.97661,-4.73068 2.48047,-12.47588 0.81161,-12.47588 -0.5625,0 -7.5477,6.54526 -15.52266,14.54503 -10.52214,10.55486 -14.26673,15.15272 -13.64988,16.7602 0.74478,1.94086 1.85144,1.66699 8.93687,-2.2117 4.44776,-2.43477 10.22498,-6.18198 12.83827,-8.32714 z m -29.16009,-33.26282 c 2.138,-5.9603 4.29537,-13.0869 4.79417,-15.8369 l 0.9069,-5 c -4.85053,1.9828 -8.04247,1.26227 -12.853,0 l -1.59095,9.99926 c -0.87502,5.4996 -2.44,11.61974 -3.47773,13.60032 -1.74484,3.33014 -1.62269,3.9329 1.6237,8.01222 4.33188,5.44332 5.03623,4.72715 10.59691,-10.7749 z m 69.82206,-17.60607 c 6.5769,-12.5362 11.76322,-28.66235 11.75074,-36.53737 -0.011,-6.93884 -2.34254,-14.75668 -5.58866,-19.17608 -1.12353,-1.52962 -2.35218,-6.37579 -5.05754,1.14928 -11.2047,31.16631 -17.63158,45.58548 -24.12212,60.53622 l -7.75769,17.86955 c 4.64929,-0.55004 4.84801,3.27544 5.86678,7.51471 l 9.33333,-9.7294 c 6.3102,-6.57798 11.3551,-13.58309 15.57516,-21.62691 z m -272.76595,19.30191 2.9811,-2.80059 -8.03469,-10.86608 c -4.41908,-5.97634 -8.24058,-11.08476 -8.49223,-11.35204 -0.25165,-0.26728 -3.0783,0.78272 -6.28144,2.33334 -3.20314,1.55061 -7.47174,2.81929 -9.48578,2.81929 h -3.66188 l 4.27357,5.95084 c 4.50553,6.27383 10.80594,11.19872 18.55879,14.50697 6.2545,2.66888 6.69943,2.64292 10.14256,-0.59173 z m -71.978896,-7.37677 c 0.43807,-1.74543 0.38721,-5.35519 -0.11303,-8.0217 -1.18602,-6.322 -12.994496,-28.85697 -23.780733,-45.38247 -4.697389,-7.19682 -9.263224,-14.28514 -10.146298,-15.75181 -2.909474,-4.83224 -0.699153,14.92617 3.132286,28.00001 4.263317,14.5475 9.306959,27.98672 18.744545,40.55516 2.572167,3.42547 5.202898,11.22061 8.89125,6.8314 1.391872,-1.65635 2.8339,-4.48517 3.27198,-6.23059 z m 44.988636,-20.9944 c 7.57012,-3.163 11.51338,-10.35156 14.83607,-27.04615 0.71799,-3.60749 0.39366,-4.35749 -2.24111,-5.18244 -1.69432,-0.5305 -4.77662,-2.38244 -6.84956,-4.11543 -2.07293,-1.73299 -4.26591,-3.15089 -4.8733,-3.15089 -3.31284,0 -13.35773,24.03208 -13.35773,31.95794 0,3.9308 3.89642,9.3754 6.70949,9.3754 0.75689,0 3.35615,-0.8273 5.77614,-1.83843 z m 99.40999,-0.9245 c 10.74222,-1.54098 35.83787,-1.0249 44.43772,0.91385 4.56503,1.02914 5.52775,-0.28865 2.08976,-10.58295 -1.50558,-4.50817 -2.32188,-9.30502 -7.2402,-2.72183 -3.85639,5.16181 -10.36535,4.22202 -11.86448,1.79639 -0.5148,-0.83297 -2.38911,-0.25368 -4.85088,1.49927 -3.42704,2.44026 -4.51748,2.62639 -7.47968,1.27673 -2.85116,-1.29908 -4.22389,-1.17281 -7.72038,0.71018 -5.5754,3.00255 -8.15214,1.82247 -9.85864,-4.51498 -0.76867,-2.85464 -2.55237,-6.23532 -3.96376,-7.51261 -2.44249,-2.21042 -2.62916,-2.20456 -3.8727,0.12159 -0.71858,1.34417 -2.34776,6.04395 -3.62039,10.44395 -1.27263,4.4 -2.6311,8.83981 -3.01883,9.86624 -0.5263,1.39328 0.11089,1.66967 2.51428,1.09061 1.77058,-0.4266 8.27226,-1.50049 14.44818,-2.38644 z m 133.75064,-4.47315 c 3.24751,-4.74268 -1.47064,-20.89137 -8.94668,-30.62158 -1.86704,-2.42998 -2.08345,-2.37025 -5.79053,1.5982 -2.3615,2.52799 -6.21897,4.71877 -9.9732,5.6641 l -6.1222,1.54159 7.35015,9.76556 c 9.6834,12.86556 19.48192,17.89455 23.48246,12.05213 z M 343.68715,197.8618 c 5.685,-2.93982 6.08458,-6.20236 1.57992,-12.89985 -2.1387,-3.17979 -7.27897,-10.99858 -11.42283,-17.37509 -4.14387,-6.3765 -9.99016,-13.69577 -12.99176,-16.26502 -4.88237,-4.17914 -18.68919,-10.14133 -23.48455,-10.14133 -1.00634,0 3.30131,4.85693 9.57254,10.79318 12.69005,12.01218 20.77496,23.88878 20.77496,30.51807 0,5.63914 6.56921,17.35228 9.73288,17.35407 1.31975,7.4e-4 4.12723,-0.89207 6.23884,-1.98403 z m -16.66444,-1.68128 c -0.53792,-1.28334 -1.95211,-4.83894 -3.14266,-7.90135 -1.90922,-4.91105 -3.38383,-6.19459 -12.49796,-10.87857 -5.68333,-2.9208 -10.33333,-4.84611 -10.33333,-4.27847 0,3.22306 12.54567,16.79953 19.92771,21.56505 6.94339,4.48235 7.34017,4.58035 6.04624,1.49334 z m -168.29847,-2.64089 c 1.64515,-2.00248 6.90455,-7.85248 11.68756,-13 4.78301,-5.14751 11.98301,-13.25291 16,-18.01198 9.61287,-11.38872 12.60586,-13.97827 21.01444,-18.18182 3.87428,-1.9368 6.77002,-3.79559 6.43496,-4.13065 -1.1801,-1.1801 -22.57963,4.9692 -33.05794,9.49941 -23.1426,10.00551 -36.67425,20.64227 -41.01315,32.23901 -1.50775,4.02982 -2.74136,7.91326 -2.74136,8.62986 0,2.42432 8.63574,6.58706 13.67549,6.59207 3.83994,0.004 5.70685,-0.84466 8,-3.6359 z m 34.99118,-15.9326 c 14.59191,-7.44671 14.67155,-8.39805 0.4494,-5.36834 -6.47351,1.37904 -8.36553,2.53625 -13.26331,8.11223 l -5.71271,6.50373 4.59664,-2.24226 c 2.52816,-1.23325 8.79665,-4.38566 13.92998,-7.00536 z" transform="translate(2941.6375,1653.9104) matrix(0.57850028,0,0,0.57850028,-2959.3304,-1731.0804)"/>
    <path fill="#fff" d="m 209.35352,277.63281 c -0.36454,0.007 -0.75839,0.15033 -1.15235,0.47266 -1.80679,1.47828 -0.50489,5.04173 1.84766,3.36133 1.91145,-1.36533 0.88432,-3.8665 -0.69531,-3.83399 z m 10.74023,1.10742 c -0.66292,0.0269 -1.37987,0.43497 -1.97852,1.38282 -0.8402,4.03295 2.68911,4.03181 3.5293,2.6875 1.29096,-2.06555 0.0193,-4.13401 -1.55078,-4.07032 z m 66.97656,15.72852 c -1.24198,0.004 -2.63612,0.78886 -3.08398,1.95313 -1.1526,2.99635 4.53683,5.54481 5.20898,1.17578 0.34659,-2.25278 -0.80289,-3.13312 -2.125,-3.12891 z m -79.03515,2.74023 c -0.48574,0.0105 -0.92568,0.17856 -1.17774,0.55664 -0.84019,2.52061 0.67095,4.03399 2.85547,2.18555 1.63839,-1.38633 -0.22051,-2.77369 -1.67773,-2.74219 z m 60.29296,15.67188 c -0.564,0.008 -1.12856,0.11465 -1.64843,0.3457 -3.19275,3.19276 1.84841,5.87982 4.70508,3.69532 2.36568,-1.80906 -0.33916,-4.07761 -3.05665,-4.04102 z m 27.37305,4.41016 c -0.39123,0.0101 -0.78037,0.15495 -1.12695,0.47265 -1.84843,2.68863 0.33509,5.20947 2.35156,4.03321 2.58923,-1.51038 0.6604,-4.55448 -1.22461,-4.50586 z m -88.625,1.75586 c -0.49895,0.0144 -0.98689,0.18636 -1.39648,0.56445 -1.6804,2.85667 0.16858,6.21771 3.36133,4.0332 2.59411,-1.77492 0.19727,-4.66005 -1.96485,-4.59765 z m 26.94336,13.24804 c -1.60382,0.0277 -3.43914,1.04585 -3.30078,2.77539 0.40401,5.0502 3.86459,4.03296 5.37695,0 0.73255,-1.95346 -0.56955,-2.80142 -2.07617,-2.77539 z" transform="translate(2941.6375,1653.9104) matrix(0.57850028,0,0,0.57850028,-2959.3304,-1731.0804)"/>
</svg>