<?xml version="1.0" ?><svg xmlns="http://www.w3.org/2000/svg" width="208.65776mm" height="117.75711mm" viewBox="0 0 208.65776 117.75711">
    <path d="m 517.4082,328.28711 c -0.12906,-0.006 -0.25839,-0.003 -0.38672,0.006 -4.10634,0.28478 -18.04873,14.84389 -15.4746,18.45703 0,0 3.24833,1.49357 10.08203,1.06641 6.83369,-0.42717 14.00455,-5.80144 14.03515,-9.0586 0.0297,-3.15537 -4.25479,-10.28701 -8.25586,-10.4707 z m 226.39453,0.91992 c -4.66777,-0.0408 -8.15462,0.18634 -8.44921,0.79688 -6.77038,4.55452 14.86854,9.55683 20.31054,9.51953 5.44202,-0.0373 15.0419,-5.22681 14.65625,-7.36719 -0.26514,-1.47154 -16.24846,-2.85957 -26.51758,-2.94922 z" fill="#78dcf8" paint-order="fill markers stroke" transform="translate(-62.970783,-67.73334) matrix(0.64692417,0,0,0.64692417,-232.0802,-107.39133)"/>
    <path d="m 526.25439,344.87943 c 0.42902,-4.18269 -2.05318,-8.40099 0.61288,-9.82488 2.66606,-1.4239 6.92563,-3.47075 8.27399,0.10679 1.34835,3.57754 3.55475,7.49326 6.98692,7.19068 3.43217,-0.30258 18.60116,-4.57426 23.62683,-7.56445 5.02568,-2.99018 10.38846,-4.89465 16.30282,-5.39301 5.91436,-0.49836 59.32364,-4.52352 59.32364,-4.52352 0,0 48.87779,-0.0178 48.14233,3.93351 -0.73545,3.95131 -25.67997,7.47545 -37.17163,7.93822 -11.49167,0.46277 -64.38388,1.86887 -67.87734,2.7054 -3.49347,0.83654 -10.94005,7.84922 -19.30597,9.5935 -8.36593,1.74428 -22.37041,2.49181 -28.438,0.69415 -6.0676,-1.79767 -10.47647,-4.85639 -10.47647,-4.85639 z" fill="#a2e287" paint-order="fill markers stroke" transform="translate(-62.970783,-67.73334) matrix(0.64692417,0,0,0.64692417,-232.0802,-107.39133)"/>
    <path d="m 534.30078,336.98861 c 1.58293,-5.11411 5.24346,-9.65359 5.24346,-9.65359 0,0 -60.44823,-29.79396 -64.45502,-33.6439 -4.0068,-3.84994 -7.61786,-5.43016 -2.62173,-8.96405 4.99613,-3.5339 34.77504,-0.20111 41.6509,0.89067 6.87587,1.09177 4.50146,-2.98803 4.64986,-5.17157 0.1484,-2.18355 6.9748,-2.38467 13.9496,-0.34477 6.97479,2.0399 21.61692,14.04943 24.43651,16.46282 2.8196,2.41338 6.67799,9.79723 6.67799,9.79723 0,0 44.32212,-25.65669 54.51224,-28.64472 10.19013,-2.98802 32.35118,-4.1947 36.1601,-1.5802 3.80893,2.61451 3.21532,6.4932 2.42386,10.02709 -0.79145,3.5339 -4.10569,5.48759 -0.69251,7.21146 3.41318,1.72386 8.50822,3.59137 5.24344,7.32639 -3.26478,3.73501 -24.88171,20.19783 -34.62664,22.46757 -9.74492,2.26974 -48.08155,6.26334 -48.08155,6.26334 0,0 -32.00492,14.04943 -35.71492,12.7278 -3.71,-1.32163 -8.75559,-5.17157 -8.75559,-5.17157 z" fill="#edf3ff" paint-order="fill markers stroke" transform="translate(-62.970783,-67.73334) matrix(0.64692417,0,0,0.64692417,-232.0802,-107.39133)"/>
    <path d="m 506.80273,285.88086 -6.83593,1.88086 9.89453,7.9414 3.83789,6.23438 13.55273,3.79688 -4.19726,-6.93165 z m 94.57227,22.53516 -21.82812,4.9121 -6.35743,15.5 22.36914,-8.5 15.35352,-11.87695 z" fill="#ffdaa7" paint-order="fill markers stroke" transform="translate(-62.970783,-67.73334) matrix(0.64692417,0,0,0.64692417,-232.0802,-107.39133)"/>
    <path d="m 646.04688,274.75195 c -9.88381,-0.005 -26.38009,0.89766 -30.15821,3.01367 -5.03747,2.82135 -45.72742,24.17369 -46.71679,25.14844 -12.75062,12.5622 -21.68562,20.33433 -30.88477,28.52539 0,0 -3.71742,5.33069 -2.1582,6.86328 1.55921,1.53259 8.21638,4.4232 9.5957,3.93555 1.37932,-0.48765 6.05664,-3.16992 6.05664,-3.16992 l 11.81445,-16.19727 24.52735,-19.92382 26.32617,-11.14454 19.73047,-6.79296 20.86914,-4.66797 c 0,0 2.39871,-4.52668 -2.03906,-5.29297 -1.10945,-0.19158 -3.66829,-0.29524 -6.96289,-0.29688 z" fill="#bac8fd" paint-order="fill markers stroke" transform="translate(-62.970783,-67.73334) matrix(0.64692417,0,0,0.64692417,-232.0802,-107.39133)"/>
    <path d="m 647.63477,281.5918 -25.78711,7 -5.39649,3.76172 c 0,0 25.30784,1.95019 26.44727,1.63671 1.13942,-0.31348 15.95218,-8.98466 15.65234,-10.48242 -0.29985,-1.49776 -10.91601,-1.91601 -10.91601,-1.91601 z m -162.71094,1.33984 c -4.46788,-0.0153 -10.85231,0.14732 -13.13867,1.12695 -3.65817,1.56742 6.35546,12.47071 6.35546,12.47071 l 32.0254,4.17968 3.47851,-0.62695 -7.67773,-7.49023 -16.3711,-9.57813 c 0,0 -1.99114,-0.0728 -4.67187,-0.082 z" fill="#d9baff" paint-order="fill markers stroke" transform="translate(-62.970783,-67.73334) matrix(0.64692417,0,0,0.64692417,-232.0802,-107.39133)"/>
    <path d="M551.68879 336.50089l11.10769-12.9834 17.92457-15.77704-3.91019 12.66183c0 0-5.32893 9.38583-5.98639 9.76769-.65746.38187-19.13568 6.33092-19.13568 6.33092zM517.84041 292.37819l12.47773 14.19728 20.66502 11.11092 2.7947-3.4293-28.57677-21.55884z" fill="#8696f7" paint-order="fill markers stroke" transform="translate(-62.970783,-67.73334) matrix(0.64692417,0,0,0.64692417,-232.0802,-107.39133)"/>
    <path d="M592.82491 324.1106c3.85747-3.97799 21.9246-16.00338 29.32465-19.43267 7.40005-3.4293 26.92358-11.95681 30.58423-11.93395 3.66065.0229 9.60432.0914 7.20324 6.42421-2.40108 6.33276-19.64163 13.87722-33.4183 19.77561-13.77668 5.89838-33.69382 5.1668-33.69382 5.1668zM551.70671 312.84378c-1.93389-1.48062-32.26069-25.98739-32.83207-27.82539-.57138-1.838-2.15365-6.6883 2.06574-7.07122 4.21938-.38293 20.87714 6.79041 23.99773 8.11786 3.12059 1.32745 17.14124 18.09926 17.84447 19.35013.70324 1.25087-9.05409 8.90924-9.05409 8.90924z" fill="#bac8fd" paint-order="fill markers stroke" transform="translate(-62.970783,-67.73334) matrix(0.64692417,0,0,0.64692417,-232.0802,-107.39133)"/>
    <path d="m 183.13701,476.33648 c -1.1377,-2.2 -2.973,-4 -4.0786,-4 -2.7978,0 -14.3856,-6.01284 -16.5018,-8.56265 -2.9114,-3.50806 0.6277,-6.51698 6.3931,-5.43538 4.5859,0.86032 4.6227,0.83061 2.6505,-2.13974 -1.7692,-2.66452 -2.9599,-2.973 -10.3165,-2.67276 -9.7925,0.39966 -14.8134,-2.04758 -14.8134,-7.22021 0,-3.07422 0.461,-3.30259 6.6667,-3.30259 3.6666,0 6.6666,-0.42939 6.6666,-0.9542 0,-0.52481 -2.7435,-3.73963 -6.0967,-7.14404 l -6.0968,-6.18984 -5.5277,1.90446 c -7.6807,2.64621 -13.997,1.30394 -15.1313,-3.21557 -1.008,-4.01639 2.0603,-7.06748 7.1074,-7.06748 3.8141,0 3.9117,-1.49934 0.3097,-4.7591 -2.6758,-2.42152 -2.909,-2.42526 -6.9408,-0.11137 -9.18,5.26863 -22.4505,3.66399 -23.3829,-2.82742 -0.4607,-3.20796 3.7465,-5.63544 9.7672,-5.63544 5.4696,0 4.7133,-1.90008 -3.4369,-8.63487 -4.3475,-3.59249 -9.16237,-3.88612 -7.88646,-7.46745 0.89908,-2.52363 5.08446,-0.94747 9.64866,0.81826 2.0166,0.78016 2.3333,0.0632 2.3333,-5.28181 0,-10.18767 6.9915,-10.17884 10.4028,0.0131 1.3028,3.89215 1.369,5.99311 0.2651,8.41572 -1.1296,2.47922 -1.0683,3.48404 0.2639,4.32906 3.1683,2.00968 4.3704,1.19405 8.1451,-5.52675 2.059,-3.66592 4.5976,-6.66532 5.6413,-6.66532 3.1764,0 3.8842,6.59419 1.4201,13.23014 l -2.2663,6.1032 3.7307,2.99338 c 2.0518,1.64635 4.2781,2.99635 4.9472,3 2.5523,0.0139 14.3723,-8.53466 18.5512,-13.41677 3.7543,-4.38601 8.8989,-16.45977 8.8989,-20.88448 0,-2.52352 -3.8375,-2.95728 -8.5912,-0.97108 -6.0898,2.5445 -15.384,2.48129 -19.1121,-0.12999 -5.3914,-3.77626 -3.9511,-8.8282 4.7033,-16.4974 10.18,-9.02113 13.1418,-9.73921 17.6915,-4.28931 3.0149,3.61131 4.1275,4.09852 7.719,3.38022 2.308,-0.46161 4.8603,-1.6393 5.6718,-2.6171 1.1773,-1.41847 -1.8487,-3.35003 -14.9701,-9.55577 -9.045,-4.27786 -22.6159,-10.4492 -30.1574,-13.71408 -7.5415,-3.26489 -15.2005,-7.14248 -17.02,-8.61689 -4.3478,-3.52305 -6.3109,-10.32339 -3.9229,-13.58912 2.5067,-3.4282 20.8428,-4.07503 34.6389,-1.22193 13.0406,2.69686 12.3197,2.80521 11.651,-1.7511 -1.2923,-8.8051 10.5535,-7.87124 27.5726,2.17367 8.3563,4.932 18.7923,15.96049 18.7923,19.8592 0,1.17189 3.7418,-0.88465 9.6667,-5.3129 11.2337,-8.39608 29.8712,-18.00882 44.6429,-23.02561 12.8327,-4.35827 30.3485,-4.96568 37.4149,-1.29748 6.3352,3.28866 7.9852,7.66643 5.1389,13.63505 -2.2398,4.69708 -2.2284,4.77414 1.1033,7.39479 6.7774,5.33113 2.9517,11.57331 -13.5752,22.14988 l -8.2752,5.29581 44.9418,0.83915 c 65.407,1.22126 87.2045,2.49489 91.5619,5.34998 1.9501,1.27774 3.3102,3.02943 3.0224,3.89264 -0.8524,2.55722 -7.8241,6.02073 -16.6925,8.29269 -7.8538,2.01206 -9.0052,1.97893 -21.5466,-0.6199 -16.1521,-3.34706 -34.3009,-3.5031 -87.4033,-0.75148 -20.5333,1.06398 -44.3479,1.95058 -52.9213,1.97022 -9.7123,0.0222 -15.9244,0.57999 -16.4804,1.47968 -3.4038,5.50753 -26.7383,15.4571 -33.5138,14.28996 -1.8542,-0.31941 -2.5237,0.94281 -3.3034,6.22836 -1.6455,11.15411 -5.174,18.29105 -13.2027,26.70438 -4.1988,4.4 -8.5462,10.20262 -9.6609,12.89472 -1.8736,4.5248 -1.8447,5.0595 0.3822,7.0749 2.2661,2.05075 2.5562,1.88438 4.888,-2.80285 3.196,-6.42434 6.1681,-8.30457 9.1782,-5.80637 1.9044,1.58048 2.1126,3.32918 1.3356,11.21502 -0.5063,5.13842 -1.5269,10.47545 -2.2679,11.86006 -0.9022,1.68576 -0.9049,2.95994 -0.01,3.85675 0.8968,0.89681 2.5519,-0.49312 5.0097,-4.20711 2.6518,-4.00717 4.442,-5.43613 6.4509,-5.14909 5.1609,0.73744 4.5481,9.10465 -1.2976,17.71889 -2.9464,4.34171 -3.2515,5.62615 -1.9926,8.38907 3.6161,7.93653 -4.592,12.0323 -8.596,4.28934 z m -18.7109,-63.86055 c 1.726,-1.72605 2.3018,-1.65301 4.8015,0.60919 2.8238,2.55558 2.8591,2.54738 6.1146,-1.42245 4.6264,-5.64151 8.5781,-13.56326 10.625,-21.29936 1.8538,-7.00663 1.5699,-7.87119 -3.0421,-9.2616 -2.5758,-0.77655 -3.031,-0.15669 -4.3287,5.89419 -2.6479,12.34679 -9.3283,21.51229 -21.0162,28.83432 -2.0771,1.30121 -4.0289,2.5498 -4.3374,2.77464 -0.3084,0.22484 0.8916,1.95627 2.6667,3.84761 l 3.2275,3.43881 1.6639,-5.72707 c 0.9152,-3.14989 2.5465,-6.60961 3.6252,-7.68828 z m 54.8489,-42.59966 c 6.63322,-3.41402 8.44284,-5.02351 14.29127,-6.11361 5.23915,-0.97653 14.4766,-1.57714 20.90413,-2.01409 12.1,-0.82256 33.6525,-2.07936 47.8945,-2.79287 14.2421,-0.7135 26.0959,-1.49854 26.3419,-1.74453 0.246,-0.24598 -14.1066,-0.81663 -31.8946,-1.2681 -25.7689,-0.65402 -33.9677,-0.43071 -40.3418,1.09878 -4.4,1.0558 -12.8729,1.92901 -18.8287,1.94047 -10.2031,0.0196 -11.6279,0.40158 -24.6666,6.61265 -17.0192,8.10714 -25.5406,9.60936 -30.8381,5.43633 -2.0167,-1.5886 -3.6667,-4.04482 -3.6667,-5.45826 0,-1.58583 -0.919,-2.5699 -2.4,-2.5699 -1.854,0 -2.4,1.06173 -2.4,4.66667 0,2.61943 0.6705,4.66667 1.5285,4.66667 0.8407,0 3.4488,0.95798 5.7959,2.12885 2.4243,1.20944 5.6446,1.78317 7.4564,1.32844 1.7837,-0.44768 3.5984,-0.13824 4.1178,0.70218 1.8253,2.95341 13.40111,0.22821 26.7061,-6.61968 z m -63.38702,2.44577 c 1.57054,-0.95918 3.23778,-2.07 4.39625,-4.14042 0.75796,-1.35462 2.88267,-0.88903 3.15264,0.73742 0.13511,0.81393 -0.76732,2.27562 -1.39038,3.23037 2.02975,-0.57756 2.135,-0.77802 5.76831,-3.55384 3.7425,-2.85924 1.01713,-4.49897 -0.3461,-6.2666 -2.95982,-3.83783 -3.4712,-3.75828 -6.4922,-1.75434 -4.8386,3.20957 -10.5062,8.80098 -10.5062,10.36488 0,3.89718 3.87476,1.42986 5.41768,1.38253 z m 6.58232,-9.3189 c 0,-0.73333 0.6,-1.33333 1.3333,-1.33333 0.7334,0 1.3334,0.6 1.3334,1.33333 0,0.73334 -0.6,1.33334 -1.3334,1.33334 -0.7333,0 -1.3333,-0.6 -1.3333,-1.33334 z m 33.9536,2.31945 c 0.081,-0.1757 2.7367,-3.75475 5.9008,-7.95344 7.6358,-10.13272 23.8293,-24.16151 33.559,-29.07308 15.2389,-7.69257 46.5283,-18.72115 55.4878,-19.5578 11.1661,-1.04271 8.2929,-3.02078 -4.4274,-3.04805 -21.6329,-0.0464 -52.3622,14.55805 -78.4738,37.29552 -26.2252,22.83642 -25.1938,21.78804 -22.5195,22.89091 2.1234,0.87566 10.0038,0.45875 10.4731,-0.55406 z m 212.9808,-2.62308 c 5.5389,-1.0707 5.6239,-1.64206 -2.2677,-2.50105 -12.97784,-1.41261 -23.9426,-1.36013 -22.9104,-0.32801 1.0431,1.04315 12.6521,4.24934 15.8448,4.37604 1.2472,0.0495 5.41677,-0.78989 9.3333,-1.54698 z m -199.6329,-2.95904 c 5.3436,-2.36318 7.7621,-4.29303 8.7726,-7 0.7672,-2.05553 2.6255,-6.13733 4.1294,-9.07066 l 2.7343,-5.33333 -3.1355,2.91257 c -13.7338,12.75699 -22.3112,21.75409 -20.7394,21.75409 0.4736,0 4.1809,-1.4682 8.2386,-3.26267 z m 26.6775,-13.83309 c 5.8782,-3.24727 11.8877,-6.79391 13.3544,-7.88142 2.5193,-1.86801 2.4456,-1.92827 -1.3333,-1.09038 -2.2,0.48779 -7.9345,2.04354 -12.7433,3.45722 -7.7391,2.27513 -9.088,3.18381 -11.7454,7.91205 -3.5991,6.40368 -3.3924,6.36393 12.4676,-2.39747 z m -46.1383,3.26532 2.9722,-3.16378 -6.0706,-3.55764 c -6.0899,-3.56894 -29.3379,-11.71034 -38.0756,-13.33404 -3.3974,-0.63131 -1.584,0.69293 6.6666,4.86855 6.2334,3.15466 15.5334,8.52807 20.6667,11.94093 5.1333,3.41285 9.6788,6.25121 10.1009,6.30747 0.4222,0.0563 2.1051,-1.32141 3.7398,-3.06149 z m 74.2339,-1.55585 c 15.1583,-3.93847 27.3495,-9.65575 35.431,-16.61604 5.6184,-4.83894 5.6721,-4.96372 2.797,-6.50241 -2.3921,-1.28025 -3.8544,-1.09982 -7.9503,0.98094 -2.7604,1.40235 -9.0895,3.76675 -14.0646,5.25422 -7.4908,2.2396 -36.9543,17.98288 -36.9543,19.74586 0,1.4254 9.0392,0.17785 20.7412,-2.86257 z m -72.1742,-8.28608 c -2.9881,-2.01353 -8.0881,-5.83624 -11.3333,-8.49492 -3.2453,-2.65868 -8.0004,-5.83601 -10.5671,-7.06073 -4.423,-2.1105 -4.3186,-1.91005 2,3.83909 6.3551,5.78237 21.1711,15.25024 24,15.33674 0.7333,0.0224 -1.1115,-1.60666 -4.0996,-3.62018 z m 11.2312,-9.86379 c -5.7477,-7.33521 -12.3807,-12.71305 -21.1236,-17.12646 -9.9408,-5.01809 -16.6747,-5.8274 -16.6747,-2.00405 0,1.90995 2.2223,3.80175 7.8311,6.66667 4.3563,2.22515 12.0473,8.14132 17.3333,13.33334 l 9.5023,9.33333 3.4736,-2.66667 3.4736,-2.66666 z m 35.9872,6.85229 c 4.6487,-1.4572 10.198,-2.64946 12.3318,-2.64946 2.1338,0 7.9303,-2.00135 12.8812,-4.44745 4.9509,-2.4461 10.5016,-5.10549 12.3349,-5.90976 2.7766,-1.21808 1.5519,-1.4653 -7.3333,-1.48023 -9.6694,-0.0162 -11.8371,0.50512 -23.185,5.57643 -6.9925,3.12485 -13.3914,6.91862 -14.496,8.59434 -1.0877,1.65 -1.7544,2.99226 -1.4816,2.9828 0.2727,-0.009 4.2994,-1.20946 8.948,-2.66667 z m -69.1188,-6.00159 c 0,-2.82392 -19.0601,-15.3655 -20.7634,-13.66229 -0.3433,0.3433 1.7881,2.2205 4.7363,4.17155 2.9482,1.95105 5.3604,4.35206 5.3604,5.33557 0,0.98351 1.95,2.41375 4.3334,3.1783 5.2955,1.69876 6.3333,1.85884 6.3333,0.97687 z m -13.3333,-3.87214 c 0,-0.30668 -5.2203,-3.33465 -11.6007,-6.72882 -11.2523,-5.98588 -20.675,-8.58308 -25.0494,-6.90444 -6.425,2.46551 8.1019,11.41189 18.9689,11.68195 3.4913,0.0868 8.1478,0.61577 10.3478,1.17558 4.9237,1.25287 7.3334,1.50776 7.3334,0.77573 z m 138.176,-10.21781 c 2.4699,-1.52648 4.4907,-3.32648 4.4907,-4 0,-2.90221 -17.6109,-0.0175 -28.2444,4.62654 -4.3039,1.87966 -4.1054,1.93425 7.4203,2.04011 9.7941,0.0899 12.6195,-0.37133 16.3334,-2.66665 z" transform="translate(-62.970783,-67.73334) matrix(0.64692417,0,0,0.64692417,-232.0802,-107.39133) translate(353.80316,-27.74488)"/>
</svg>