<?xml version="1.0" ?><svg xmlns="http://www.w3.org/2000/svg" width="329.06195mm" height="238.6506mm" viewBox="0 0 329.06195 238.6506">
    <path fill="#886a63" d="m 3165.4633,-1938.7519 c -7.7783,-0.2908 -15.3869,0.049 -18.3917,1.6965 -6.0092,3.2954 -14.2813,13.7368 -39.9329,12.6003 -41.4654,-1.8371 -102.3825,24.9382 -125.0337,60.4811 -8.9173,17.0589 -16.5432,31.7964 -18.6098,56.0229 -1.8012,21.1161 1.9384,36.2505 1.9384,36.2505 l 10.6614,-20.7424 c 0,0 9.6928,29.8531 12.2127,32.7608 2.5201,2.9078 5.6219,3.4892 5.6219,3.4892 0,0 5.4276,5.4282 7.9478,5.2343 2.5199,-0.1939 10.4679,6.203 12.9878,6.9784 2.5202,0.7754 18.4157,5.2341 24.6192,4.2648 6.2031,-0.9692 50.9832,-0.5815 58.3494,-1.7446 7.3663,-1.1631 22.6803,-6.3973 30.0468,-10.0805 6.7709,-3.3854 27.5265,-13.3753 30.4343,-18.4154 2.9078,-5.0401 13.3759,-40.1273 13.3759,-40.1273 l -14.3449,-27.527 17.6403,-4.4586 c 0,0 13.3759,23.2623 18.4159,27.3332 5.0401,4.0709 18.0279,7.9478 18.0279,7.9478 0,0 -1.1629,-57.5735 -1.9384,-64.5521 -0.7752,-6.9786 -13.1821,-26.3637 -13.1821,-26.3637 l 0.9705,-7.5576 c 0,0 4.2203,3.6129 6.5465,-0.8457 2.3262,-4.4585 -4.0591,-8.2999 -4.0591,-8.2999 0,0 7.1635,1.8228 8.1329,-2.2481 0.9692,-4.0708 -8.5669,-7.1531 -7.5899,-6.7851 2.9766,1.1209 8.8703,-0.8533 7.5132,-4.9241 -1.357,-4.0709 -6.2799,-0.3557 -9.1877,-2.1003 -2.9077,-1.7447 -6.3973,-4.4587 -13.7635,-6.2033 -3.6831,-0.8723 -11.6308,-1.7933 -19.4091,-2.0841 z m 28.1326,144.3705 c 0,0 3.6831,14.9267 4.6525,18.416 0.9692,3.4894 26.1696,38.1884 30.2405,40.9024 4.0708,2.7139 8.3359,-6.0095 8.3359,-6.0095 0,0 -14.1514,-21.9051 -17.0589,-26.5575 -2.9078,-4.6524 -5.6219,-20.9357 -5.6219,-20.9357 z" transform="translate(54.768756,-29.104272) translate(-3013.9675,1971.0764)"/>
    <path fill="#fff" d="m 3155.9888,-1837.6101 18.2218,-4.6524 c 0,0 12.9882,23.4559 21.3236,30.0469 8.3357,6.5909 17.6406,7.5601 17.6406,7.5601 l -0.5816,-17.8342 c 0,0 9.6925,2.9077 15.702,2.52 6.0092,-0.3877 33.3422,-7.3663 37.4131,-9.8864 4.0709,-2.52 11.2432,-12.4064 12.9879,-15.7019 1.7447,-3.2955 6.0095,-12.2126 6.0095,-12.2126 0,0 1.357,16.4773 0.3876,19.9667 -0.9692,3.4893 -12.0187,19.1912 -12.0187,19.1912 0,0 -10.8556,17.2527 -15.702,21.1297 -4.8461,3.877 -24.2313,10.2741 -34.893,8.3356 -10.6619,-1.9385 -38.3825,-7.9479 -43.2286,-12.0187 -4.8464,-4.0709 -23.2622,-36.444 -23.2622,-36.444 z" transform="translate(54.768756,-29.104272) translate(-3013.9675,1971.0764)"/>
    <path d="m 3003.8614,-1707.4403 c -0.5355,-1.7083 -1.2295,-4.6037 -1.5424,-6.4343 -0.473,-2.7647 -3.4938,-33.9931 -3.5096,-36.2807 0,-0.3901 -0.6587,-0.7316 -1.458,-0.759 -2.6601,-0.091 -8.3437,-14.1636 -8.3437,-20.6584 0,-3.4352 1.8579,-0.5595 5.3398,8.2656 2.0794,5.2706 3.9647,9.5894 4.1894,9.5971 0.225,0.01 0.1111,-2.2917 -0.2526,-5.1099 -0.7046,-5.4654 0.1999,-11.6786 1.5018,-10.3028 0.4313,0.4562 1.5434,4.1983 2.4718,8.3157 0.9505,4.2163 2.0053,7.0017 2.4146,6.3769 0.4941,-0.7548 1.4163,-0.1524 2.8837,1.8877 2.5504,3.5439 3.9665,3.8726 4.0276,0.9347 0.028,-1.1692 0.6495,-3.3812 1.3899,-4.9156 1.3319,-2.7614 1.3466,-2.7346 1.4252,2.6191 0.061,4.1911 0.3843,5.3065 1.4324,4.9545 0.8667,-0.2914 1.7284,0.5982 2.3983,2.4753 0.5748,1.6112 1.4732,2.9444 1.9959,2.9624 0.5229,0.018 1.679,0.3275 2.5693,0.6876 1.3901,0.5625 1.524,0.1648 0.9474,-2.8204 -0.9369,-4.852 0.3869,-15.903 1.8415,-15.3708 0.7643,0.2782 1.1409,3.4913 1.1409,9.7307 v 9.3133 l 3.4288,0.832 c 1.8859,0.4576 5.7435,0.6605 8.5721,0.4496 6.4884,-0.4811 6.8291,1.1297 0.4899,2.3156 -3.0033,0.5617 -7.2586,0.5026 -12.0009,-0.168 -4.0413,-0.5709 -7.4567,-0.9381 -7.5898,-0.8162 -0.1332,0.1214 0.1833,3.474 0.7035,7.4485 1.1557,8.8366 1.5115,18.533 0.7075,19.2812 -1.1505,1.0707 -3.659,-0.7109 -4.7054,-3.3421 -0.5821,-1.4633 -1.3007,-7.88 -1.5973,-14.2596 -0.2969,-6.3795 -0.9162,-11.612 -1.3766,-11.6278 -0.4605,-0.016 -2.6007,-1.791 -4.756,-3.9447 l -3.9187,-3.9162 v 3.5454 c 0,1.9498 0.416,8.4516 0.912,14.448 2.1895,26.4726 2.2144,27.4918 0.6745,27.439 -0.7945,-0.027 -1.8825,-1.4474 -2.418,-3.1554 z m 114.6725,3.0481 c -0.8551,-0.8541 -1.1878,-6.7262 -1.1878,-20.9516 0,-18.4672 -0.1138,-19.7217 -1.7146,-19.1049 -10.1523,3.9083 -13.2821,6.2262 -37.0864,5.8398 -16.1508,-0.262 -22.0003,-2.7959 -21.5626,-3.4653 0.3485,-0.5323 3.0408,-1.1755 5.9829,-1.4291 5.1291,-0.4425 5.3746,-0.5927 5.9737,-3.6532 0.9402,-4.8055 2.7776,-5.1777 2.1145,-0.4285 l -0.5461,3.9076 7.2545,0.249 c 6.8685,0.2356 7.2548,0.1364 7.2598,-1.8781 0,-4.01 2.0106,-9.1485 3.5407,-9.096 1.1964,0.041 1.4424,1.1337 1.2345,5.4784 l -0.2611,5.4269 3.0608,-0.1958 c 7.3785,-0.4721 8.3524,-1.1066 10.3157,-6.7235 2.3933,-6.8459 4.1123,-6.9453 3.3877,-0.1959 l -0.5426,5.0534 5.5488,-1.4628 5.5489,-1.463 0.5871,-5.777 c 0.3229,-3.1777 0.8444,-6.017 1.1594,-6.31 1.2984,-1.2085 2.6435,1.0292 3.2402,5.3922 l 0.6354,4.6428 4.398,-1.909 c 3.3522,-1.455 4.9637,-2.9661 6.7757,-6.3531 2.4672,-4.6111 4.3542,-5.171 3.5319,-1.048 -0.2611,1.3033 -0.186,2.3794 0.1666,2.3915 2.0062,0.069 5.528,-3.2857 7.0024,-6.6698 1.5826,-3.6325 1.7431,-3.7428 2.314,-1.5895 0.6008,2.2641 0.6818,2.2326 3.8077,-1.4682 4.0755,-4.8257 10.2867,-17.5485 14.387,-29.47 1.7607,-5.1188 3.6933,-9.4484 4.2944,-9.6216 1.7471,-0.5017 2.065,7.5115 -0.1547,15.7243 -7.1382,26.4109 -14.171,31.071 -29.1376,38.2168 l -0.059,14.8388 c -0.036,9.0853 -0.125,18.3605 -0.5007,20.6018 -0.772,4.6196 -2.9217,5.9861 -5.0464,3.2083 -1.1553,-1.51 -1.3075,-4.3227 -0.817,-15.071 0.3318,-7.2681 0.8322,-15.5467 1.1124,-18.3967 0.4999,-5.0902 0.4816,-5.1369 -1.0322,-2.6351 -1.7107,2.8272 -3.4377,3.3064 -3.4377,0.9535 0,-1.1236 -0.584,-1.3975 -2.2045,-1.034 -1.2124,0.272 -2.8656,0.4773 -3.6737,0.4566 -1.2697,-0.044 -1.4235,2.6328 -1.1314,19.5906 0.3996,23.1875 -0.6873,29.2772 -4.5385,25.4284 z m 105.2139,-32.1693 c -4.3712,-3.8655 -7.862,-7.3487 -16.4087,-20.2532 -7.6352,-11.5284 -12.4309,-21.3045 -14.9205,-30.4157 l -1.7815,-6.5197 c -5.3205,-1.7631 -11.806,-5.8945 -16.4695,-10.1633 -2.8567,-3.0238 -10.8935,-16.6058 -17.1416,-28.9689 -4.158,-8.2278 -8.0301,-20.6009 -6.43,-20.546 0.4111,0.014 2.11,3.0504 3.7759,6.7471 1.6661,3.6971 3.5602,6.7398 4.209,6.7621 0.6493,0.022 3.7931,-0.7893 6.9868,-1.8034 5.0175,-1.5932 5.7296,-2.115 5.2384,-3.838 -1.6427,-5.7635 -3.407,-18.1545 -2.681,-18.8301 1.3716,-1.2767 2.7292,1.262 5.526,10.3353 5.7477,18.6464 18.9431,38.6798 28.4373,43.1734 6.3128,2.988 6.5158,2.831 6.3089,-4.8754 -0.1005,-3.773 -0.1222,-13.2393 -0.048,-21.036 0.1389,-14.4147 -1.4584,-28.5075 -4.3294,-38.1726 -2.394,-8.06 -10.9149,-23.4042 -15.6872,-28.2499 -2.4033,-2.4401 -4.3697,-4.7409 -4.3697,-5.1131 0,-1.6754 4.1587,-0.273 7.2367,2.4406 3.2341,2.8511 3.4147,2.8999 4.0189,1.0833 0.348,-1.0459 1.0143,-1.8887 1.4802,-1.8727 1.2505,0.043 3.9892,2.3681 3.9351,7.8657 -0.039,3.7844 0.5024,5.6089 2.4018,8.118 7.2229,9.54 9.1701,17.4715 11.0391,44.9664 1.1957,17.5914 1.6979,21.2095 3.0867,22.2468 2.6157,1.953 9.1924,2.1681 21.5372,-0.08 14.3745,-2.6178 20.3716,-4.5794 24.3795,-7.9744 l 1.8994,-1.7865 c 3.6657,-9.1428 1.9604,-16.8667 2.2166,-26.0074 1.0853,-0.6099 3.4647,3.6066 5.9427,10.5296 l 1.7304,4.8348 1.7078,-3.7229 c 3.1303,-6.823 4.4436,-12.988 5.0481,-23.6975 0.8995,-15.9352 3.2106,-13.9568 5.7183,4.8966 1.7346,13.0385 0.9839,25.7471 -1.9959,33.7943 -1.8445,4.982 -6.9181,12.6026 -8.8148,13.2399 -0.764,0.2568 -2.9859,3.6583 -4.9372,7.5596 -8.8012,17.5949 -27.4792,26.8422 -50.5161,25.0101 l -5.075,-0.4871 0.6145,3.7165 c 1.5943,9.6426 9.6169,23.7716 19.3741,34.1208 4.5235,4.7979 4.8338,5.4303 4.2453,8.654 -0.6835,3.7446 -7.9774,7.1774 -10.8482,7.2273 -1.5977,0.028 -2.5626,-0.1869 -5.6404,-2.9084 z m 9.6171,-4.0474 c 0.3422,-0.8493 -1.1041,-3.404 -3.6415,-6.4332 -6.3486,-7.5779 -8.9765,-11.3174 -11.7936,-16.7819 -2.8909,-5.608 -6.5344,-17.6189 -6.5344,-21.5416 0,-2.0688 -0.551,-2.7362 -2.694,-3.2629 -4.7586,-1.2825 -8.5077,-1.3273 -13.1913,-2.8812 4.2464,16.7867 21.8913,41.4832 28.9327,48.1454 5.3878,5.0974 7.6908,5.8088 8.9221,2.7554 z m 3.9921,-52.364 c 5.5057,-0.9522 13.1054,-4.1326 17.8894,-7.4867 7.8385,-5.4955 16.0591,-19.9742 15.8406,-27.8997 -0.061,-2.1984 -0.2388,-2.0587 -1.4746,1.1513 -3.6369,9.4552 -17.1297,20.9334 -28.3368,24.1059 -11.237,3.1813 -25.3128,2.4981 -37.9333,-1.8406 -5.2343,-1.7996 -13.2635,-8.5685 -16.561,-13.9608 -1.2036,-1.9686 -3.8748,-5.4376 -5.9359,-7.709 -2.0612,-2.2716 -4.7153,-6.0848 -5.898,-8.4745 -1.1824,-2.3895 -2.4493,-4.3546 -2.8148,-4.3671 -0.3657,-0.013 -2.2474,0.5609 -4.182,1.2746 -1.9344,0.7134 -4.6331,1.2589 -5.9975,1.2121 -1.3644,-0.047 -2.4808,0.2868 -2.4808,0.7413 0,0.4545 3.6876,6.856 8.1951,14.2255 9.1443,14.9512 11.9586,17.5821 23.8485,22.2941 18.5246,7.3412 31.3957,9.2317 45.8411,6.7336 z m -5.3884,-14.2189 c 3.5025,-0.4153 8.6344,-1.7713 11.4048,-3.0129 5.445,-2.4407 14.4335,-9.257 16.1045,-12.2125 1.0038,-1.7758 0.9444,-1.7877 -2.0282,-0.4062 -8.5536,3.9746 -32.7655,6.0651 -39.4885,3.5728 l -3.0683,-1.1373 v 6.0356 6.036 l 3.1839,0.4905 c 6.0564,0.9331 7.5507,1.3859 13.8918,0.634 z m 50.5399,-35.1866 c 1.8012,-8.275 1.3977,-11.2058 -0.8626,-6.2617 -0.8914,1.9497 -3.0533,7.2504 -5.4236,9.3823 0.8443,5.8323 0.4902,9.0846 0,13.3016 l 2.4099,-4.8331 c 1.3256,-2.6578 3.072,-7.8731 3.881,-11.5889 z m -251.3304,95.8863 c 0.028,-2.573 0.6834,-5.9324 1.4646,-7.4655 1.3455,-2.64 1.3905,-2.4386 0.8501,3.8106 -0.6787,7.8449 -2.3797,10.5308 -2.3147,3.6549 z m 6.2567,2.3181 c -0.7998,-2.0312 1.0733,-8.7219 2.6973,-9.6349 1.3044,-0.7331 0.4174,7.2975 -1.0858,9.8295 -0.85,1.4316 -0.9772,1.4162 -1.6115,-0.1946 z m 8.8569,-1.9447 c 0.7467,-3.8154 3.8331,-10.0769 5.4015,-10.9584 0.5466,-0.3074 0.9938,-0.2759 0.9938,0.072 0,1.8139 -3.257,12.3004 -4.1262,13.2857 -1.9509,2.2109 -2.9617,1.1426 -2.2691,-2.3971 z m 31.6717,-1.2571 c -0.6701,-1.8546 0.5277,-5.64 1.6648,-5.2617 1.0984,0.3651 0.7843,4.6243 -0.4262,5.777 -0.4308,0.4099 -0.9881,0.1778 -1.2386,-0.5153 z m -91.6397,-10.7711 c -3.9234,-4.0631 -8.4147,-13.4204 -10.5908,-22.0639 l -1.704,-6.7681 -3.6063,10.5996 c -3.3602,9.8764 -6.0777,15.1787 -7.0169,12.1208 -0.2139,-0.7004 -1.1608,-6.3092 -2.1017,-12.464 -1.476,-9.6582 -2.7506,-15.9726 -1.7476,-24.6893 0.6393,-5.5544 1.368,-12.0064 1.6198,-14.3377 0.9318,-8.6342 6.2023,-26.2678 10.0013,-33.4616 4.7774,-9.0467 17.0228,-26.8046 22.8887,-33.1924 11.3599,-12.3705 33.3773,-24.3376 54.7142,-33.4939 21.0057,-9.014 26.5239,-10.3214 41.1346,-9.7452 6.7352,0.2661 16.9908,0.1696 22.7904,-0.2129 9.3656,-0.6178 11.2826,-1.0743 17.1444,-4.0831 18.0597,-9.2692 26.1291,-12.4467 38.0584,-11.9913 7.058,0.2692 12.584,1.1476 19.1843,4.1139 6.4833,2.9138 3.7696,5.5299 -4.5976,3.6582 -9.0427,-2.0228 -22.2469,-2.4695 -29.0921,-0.9712 -3.0259,0.6568 -9.6211,3.1595 -14.6561,5.5618 -5.0351,2.4025 -13.7837,5.5799 -19.4414,7.0612 -9.3298,2.4425 -11.9268,2.6977 -27.921,2.7457 -17.2843,0.051 -17.8287,0.1168 -27.4308,3.3028 -13.5959,4.5104 -29.7532,11.9088 -39.9799,18.3066 -17.0564,10.6701 -27.7352,21.8399 -40.8957,42.7757 -7.0362,11.1934 -8.746,15.1014 -13.6481,31.1947 -3.3491,10.9952 -3.7701,13.6321 -4.3844,27.4746 -0.9148,20.6135 -0.2841,21.9956 4.2197,9.2435 2.425,-6.8663 4.8353,-12.7537 5.8314,-12.7195 0.8329,0.029 1.6021,1.0789 1.7751,2.4245 0.1694,1.3057 1.574,7.1658 3.1239,13.0227 2.8682,10.8381 6.1839,18.4122 10.5414,24.0791 1.7293,2.2489 1.2418,5.7811 0.2487,5.747 -0.7664,-0.026 -2.7743,-1.478 -4.4619,-3.2257 z m 78.4667,-11.3319 c -2.915,-3.5746 -5.6407,-13.3348 -3.3141,-11.8673 1.536,0.969 5.0317,9.4198 4.7213,11.4139 -0.2389,1.5308 -0.4682,1.6046 -1.4072,0.4534 z m 31.6556,1.4813 c -1.0041,-1.0034 -0.774,-4.8846 0.3266,-5.5031 0.5832,-0.3279 0.9798,0.8115 0.9798,2.8139 0,3.4547 -0.1777,3.8182 -1.3064,2.6892 z m -50.1429,-9.844 c -0.6671,-4.3155 0.8553,-16.7682 2.3613,-19.3133 0.4476,-0.7564 0.6034,3.8823 0.346,10.3119 -0.4952,12.3786 -1.6116,16.0901 -2.7073,9.0014 z m -31.629,-6.7481 c 0.275,-4.8439 1.0877,-8.9558 2.1544,-10.8859 2.1053,-3.8096 2.842,-3.3872 1.5571,0.8925 -0.5273,1.756 -1.2444,6.489 -1.5937,10.5182 -0.8634,9.9621 -2.6857,9.5108 -2.1178,-0.5248 z m 104.6421,9.2628 c 0.028,-3.9094 1.2155,-9.1757 2.0766,-9.1462 0.9656,0.033 1.1631,7.6101 0.2556,9.8578 -0.8795,2.1812 -2.3461,1.7338 -2.3337,-0.7117 z m -119.0305,-4.1382 c -1.0745,-2.4728 0.2471,-9.4934 2.3957,-14.1051 0.7076,-1.5192 2.1131,-3.5278 1.3991,0.3436 -1.5913,8.6249 -3.0034,15.582 -3.7948,13.7615 z m 111.2263,2.6397 c 0.028,-1.5327 0.6896,-4.0413 1.4783,-5.5741 1.4252,-2.7697 1.4307,-2.758 0.9262,1.8843 -0.5744,5.2806 -2.4761,8.199 -2.4045,3.6898 z m -41.2358,-7.5934 c -1.5168,-2.7872 -2.4487,-12.2928 -1.2008,-12.25 0.9914,0.034 4.1851,9.7498 4.1851,12.7319 0,2.206 -1.668,1.9365 -2.9843,-0.4819 z m -12.6964,0.4102 c 0,-0.1608 -0.4151,-2.7188 -0.9159,-5.6845 -0.5004,-2.9657 -0.5596,-6.5839 -0.1305,-8.04 0.6793,-2.3087 0.8659,-1.918 1.4571,3.0476 0.373,3.1323 0.877,6.6333 1.12,7.7797 0.2444,1.1463 -6e-4,2.333 -0.5412,2.6368 -0.541,0.3042 -0.9858,0.4213 -0.989,0.2604 z m -20.0317,-3.5864 c -0.8878,-1.9939 0.1111,-7.9513 1.4613,-8.7098 1.0672,-0.6001 1.0672,3.358 0,7.5854 -0.5846,2.3154 -0.8425,2.514 -1.4613,1.1244 z m -10.3292,-3.1835 c 0,-2.1374 3.6657,-8.7016 4.429,-7.939 0.6519,0.6516 -2.7639,10.1234 -3.6401,10.0933 -0.4359,-0.015 -0.7909,-0.9843 -0.7889,-2.1543 z m 58.7773,-4.837 c 0,-1.8198 0.1723,-3.3028 0.3824,-3.2956 0.2111,0.01 0.5629,1.5082 0.7832,3.3356 0.2193,1.8274 0.048,3.3103 -0.3826,3.2956 -0.4308,-0.015 -0.783,-1.5157 -0.783,-3.3356 z m 29.4905,-17.47 c -0.2,-2.3163 -0.6175,-5.6522 1.1335,-1.055 0.8629,2.2661 0.9664,4.448 0.1388,5.2182 -0.858,0.7987 -0.9977,-0.9788 -1.2723,-4.1632 z m -116.2927,-4.3272 c -0.769,-1.96 1.3486,-13.4962 3.12,-16.9979 1.2335,-2.4387 1.3482,-2.4939 0.9164,-0.4413 -0.2721,1.2906 -0.7833,5.8607 -1.1374,10.1557 -0.6238,7.5685 -1.7132,10.306 -2.899,7.2835 z m -10.7528,-5.6681 c 0.8636,-7.338 3.6926,-17.5352 5.8424,-21.0591 1.531,-2.5101 1.6382,-2.552 1.1094,-0.4347 -0.4788,1.9176 -3.2494,15.7239 -5.04,25.1157 -0.2222,1.1624 -0.8923,2.0966 -1.4904,2.0761 -0.7504,-0.026 -0.881,-1.793 -0.4214,-5.698 z m 142.6289,5.7345 c -0.6124,-2.2973 -1.4908,-5.5721 -1.9518,-7.2777 -0.4771,-1.7661 -0.467,-3.0884 0.028,-3.0714 1.3755,0.047 5.0443,12.6621 3.9723,13.6598 -0.587,0.5463 -1.341,-0.6745 -2.044,-3.3106 z m -118.22,-8.9936 c 0.2555,-4.8116 0.9515,-8.7918 1.6412,-9.3975 0.9407,-0.8255 1.0487,0.6661 0.5041,6.9612 -0.9698,11.2087 -2.7179,13.194 -2.1453,2.4363 z m 8.8686,-0.7186 c -0.7768,-1.9799 -0.058,-5.7432 1.088,-5.7039 0.5387,0.019 1.1164,1.6336 1.2838,3.5892 0.3003,3.5131 -1.2727,4.9158 -2.3718,2.1147 z m 114.3253,1.8403 c -1.3052,-4.5807 -1.3905,-7.7235 -0.1749,-6.4536 1.5093,1.5774 3.0617,8.4414 2.1095,9.3276 -0.5224,0.4861 -1.3105,-0.6847 -1.9343,-2.874 z m 67.5582,-0.1589 c 0.028,-1.1688 0.5559,-6.2351 1.3554,-7.7624 1.4994,-2.865 1.5111,-0.3099 1.069,3.8278 -0.2695,2.0705 -0.4925,4.2965 -0.4986,4.9462 0,0.6498 -0.4515,1.1662 -0.9903,1.1477 -0.5389,-0.019 -0.9597,-0.9902 -0.9355,-2.1593 z m -221.4524,-8.2987 c 0,-2.2403 2.8206,-7.9045 3.5655,-7.1599 0.7093,0.7087 -1.4988,7.9919 -2.6124,8.6177 -0.524,0.2948 -0.9531,-0.3612 -0.9531,-1.4578 z m 160.4927,6.8695 c -1.208,-2.0759 -1.7692,-6.1591 -0.842,-6.1273 0.5391,0.019 1.2517,1.0884 1.5841,2.3772 0.6565,2.5469 0.125,5.2382 -0.7421,3.7501 z m 53.1756,-7.8189 c 0.053,-1.4279 0.434,-3.6484 0.845,-4.9342 0.6466,-2.023 0.8456,-2.1106 1.4793,-0.6512 0.9063,2.0871 -0.211,8.2578 -1.4864,8.214 -0.5147,-0.018 -0.8915,-1.2006 -0.8379,-2.6286 z m 5.8532,-6.3609 c 0.039,-1.4591 0.4254,-4.5552 0.857,-6.8804 0.7706,-4.1527 1.0325,-5.293 1.1527,0.9252 0.066,3.4811 -0.564,7.7547 -1.1027,8.0575 -0.5696,0.3203 -0.9492,-0.5599 -0.907,-2.1023 z m -138.0633,-12.9867 c 0.3141,-7.2283 1.0455,-10.0808 2.2707,-8.8565 0.856,0.8551 -0.7436,16.8663 -1.6817,16.8341 -0.5462,-0.019 -0.7912,-3.3324 -0.589,-7.9776 z m 123.4605,3.4704 c -3.1634,-5.048 -5.613,-18.018 -3.1043,-16.4355 0.5391,0.3398 0.9797,1.4748 0.9797,2.5223 0,1.0475 1.1184,5.1577 2.4853,9.1335 1.3666,3.9757 2.2985,7.4022 2.0711,7.6141 -0.2277,0.212 -1.3219,-1.0636 -2.4318,-2.8344 z m -173.2997,-7.3594 c 0.504,-3.8748 4.346,-11.1013 5.3622,-10.0857 0.6204,0.6199 -3.596,11.8689 -4.9277,13.1467 -0.6175,0.5926 -0.77,-0.4811 -0.4345,-3.061 z m 108.2091,4.2178 c -4.8297,-4.8401 -11.292,-30.8425 -10.1034,-40.6536 1.2969,-10.7063 6.6027,-15.5086 14.3613,-12.9994 5.5763,1.8035 18.7403,14.9142 14.8406,14.7804 -0.4189,-0.014 -3.8358,-2.273 -7.5926,-5.0193 -10.2284,-7.4768 -12.9824,-7.713 -16.3812,-1.4046 -1.9839,3.682 -2.2866,13.0906 -0.6721,20.8941 1.7906,8.6562 6.0374,20.9574 7.4292,21.5208 0.7321,0.2961 4.8971,-1.938 9.2562,-4.9645 8.0767,-5.6077 10.6817,-6.5658 10.6817,-3.9286 0,1.76 -8.8596,9.9992 -12.5754,11.6947 -5.3536,2.4431 -6.8732,2.4562 -9.2443,0.08 z m -48.0604,-4.2088 c -0.6865,-3.3358 0.2471,-9.5439 1.4305,-9.5033 0.4682,0.016 0.8514,2.7945 0.8514,6.1742 0,6.3321 -1.2796,8.1991 -2.2819,3.3291 z m -45.1956,-6.1399 c 1.8739,-4.2692 4.3707,-7.9652 4.9739,-7.3624 0.9425,0.9418 -3.7338,10.9501 -5.0946,10.9034 -1.2085,-0.041 -1.191,-0.5525 0.1195,-3.541 z m 53.948,3.8955 c -0.3257,-0.8309 -0.5923,-2.6243 -0.5923,-3.9856 0,-2.9537 1.431,-1.7585 2.3261,1.9428 0.675,2.7911 -0.7716,4.4957 -1.7338,2.0428 z m 110.2753,1.798 c -1.1327,-2.0812 -4.0964,-12.8687 -4.0525,-14.751 0.056,-2.3987 1.7525,1.4956 3.8207,8.7683 1.9928,7.0076 2.085,9.388 0.2305,5.9827 z m -187.2829,-8.0719 c 0,-1.963 3.0117,-7.0541 4.1497,-7.015 0.4338,0.015 -0.1555,1.8026 -1.3113,3.9728 -2.5876,4.8629 -2.8384,5.1316 -2.8384,3.0422 z m 192.1698,0.2764 c -0.4852,-1.2588 -1.2059,-3.7355 -1.6016,-5.5038 -1.1052,-4.9403 1.0125,-2.7573 2.3527,2.425 1.2261,4.741 0.7084,6.8642 -0.7511,3.0788 z m -25.4156,-17.0154 c -1.455,-1.4536 -1.573,-7.0985 -0.1639,-7.8895 1.9509,-1.0969 3.9851,1.7756 3.6804,5.1972 -0.3185,3.5747 -1.6284,4.5777 -3.5152,2.6924 z m 15.6925,-0.4399 c -2.0028,-2.3972 -2.3952,-6.09 -0.7787,-7.3288 2.4111,-1.8484 4.6399,0.5852 4.2761,4.6691 -0.3163,3.5529 -1.8053,4.6852 -3.4974,2.6597 z m -137.3813,-10.2379 c 0,-1.6341 1.9482,-4.5979 2.9987,-4.5618 0.5334,0.018 0.2863,1.2862 -0.5496,2.8171 -1.5685,2.8731 -2.4491,3.5005 -2.4491,1.7447 z m 25.8161,-4.8109 c 1.7514,-2.353 5.4688,-4.8303 6.1802,-4.1193 0.5816,0.5811 -5.5868,6.0457 -6.8251,6.0469 -0.4346,0.012 -0.1444,-0.8672 0.6449,-1.9276 z m -10.1263,-3.806 c 0.028,-1.3518 1.5927,-3.0383 4.8893,-5.2722 5.5894,-3.7874 6.6302,-2.4099 1.4369,1.9019 -4.7602,3.9519 -6.3565,4.8024 -6.3262,3.3703 z m 103.9584,-8.644 c -5.1453,-2.5293 -6.9182,-3.831 -6.1687,-4.5287 1.9062,-1.774 14.8589,4.691 14.8589,7.4164 0,1.2718 -0.7051,1.0375 -8.6902,-2.8877 z m 32.0835,3.025 c -1.6343,-1.8733 -3.7999,-5.613 -3.7999,-6.5616 0,-0.2943 0.593,-0.5146 1.3178,-0.4897 2.2636,0.078 4.7259,3.6258 4.3888,6.324 -0.306,2.4506 -0.3791,2.4784 -1.9067,0.7273 z m -114.5039,-4.6157 c 0,-1.2815 1.9756,-2.4301 4.0566,-2.3587 1.3705,0.047 0.089,1.711 -2.1518,2.7907 -1.4732,0.7102 -1.9048,0.6123 -1.9048,-0.432 z m 55.8732,-3.1032 c -0.05,-1.7977 1.0905,-4.0575 2.0328,-4.0252 1.284,0.044 1.0694,1.3179 -0.5635,3.3451 -0.7909,0.9821 -1.4525,1.2882 -1.4693,0.6801 z m 7.8257,-2.4314 c 0.6817,-0.769 1.441,-1.1966 1.6876,-0.9502 0.6796,0.6788 -0.701,2.425 -1.8849,2.3844 -0.6497,-0.022 -0.5753,-0.5622 0.1973,-1.4342 z m 37.6982,1.789 c 0.3329,-0.5084 0.7998,-0.9177 1.0375,-0.9096 0.2388,0.01 0.432,0.4402 0.432,0.9601 0,0.5201 -0.4667,0.9294 -1.0374,0.9098 -0.5707,-0.02 -0.7651,-0.4516 -0.4321,-0.9603 z m 12.001,-2.5475 c -4.0806,-3.3568 -3.4201,-5.4406 -0.5901,-5.3435 2.3186,0.08 7.9127,4.6754 7.9127,6.5004 0,2.0894 -3.3261,2.1303 -7.3226,-1.1569 z m -21.308,-4.2883 c 0,-0.9424 2.3643,-1.9107 4.4888,-1.8378 0.7643,0.026 1.3894,0.686 1.3894,1.4658 0,0.9454 -0.9799,1.3845 -2.939,1.3173 -1.6165,-0.055 -2.9392,-0.4808 -2.9392,-0.9453 z m -9.7967,-3.1852 c 0,-1.3608 5.6433,-3.8625 7.6581,-3.3949 1.3454,0.3115 1.1982,0.6475 -0.8004,1.8219 -3.3713,1.9812 -6.8577,2.781 -6.8577,1.573 z m 30.8597,-0.9202 c -1.6162,-0.4767 -5.0595,-1.2225 -7.651,-1.6571 -6.1806,-1.0369 -4.5831,-4.3657 1.991,-4.5134 5.4658,-0.1227 12.4267,2.3336 11.7883,4.1602 -0.5256,1.5036 -2.6253,3.0432 -6.1283,2.0103 z m -37.7176,-2.6043 c 0,-1.1075 5.4097,-4.1762 7.2506,-4.1131 1.6704,0.057 0.2,2.1528 -2.5971,3.7027 -3.7726,2.0903 -4.6535,2.1681 -4.6535,0.4104 z" transform="translate(54.768756,-29.104272) translate(-3013.9675,1971.0764)"/>
</svg>