<?xml version="1.0" ?><svg xmlns="http://www.w3.org/2000/svg" width="215.72336mm" height="139.02614mm" viewBox="0 0 215.72336 139.02614">
    <path fill="#a4927c" d="m 1358.3308,370.5083 c 0.4122,-15.6033 -1.1687,-32.92499 18.0097,-48.32207 19.1783,-15.39706 48.9426,-30.45045 84.0687,-7.76727 35.1258,22.68318 37.6692,56.22684 22.5464,87.50213 -15.1228,31.27528 -50.1798,32.85619 -64.2715,31.27528 -14.0917,-1.58094 -44.337,-15.4658 -51.6234,-32.44382 -5.4701,-7.33861 -8.3924,-17.40674 -8.7299,-30.24425 z" transform="translate(2.9103541,-79.110425) translate(-1354.3789,-222.00929)"/>
    <path fill="#333539" d="m 1495.681,344.37232 c -3.1371,8.05406 5.2284,21.39295 7.6589,27.7797 2.4304,6.38671 12.9713,18.45365 12.9713,18.45365 l 4.5222,-10.42779 z m 41.4305,23.5691 c 0,0 -12.8023,7.57357 -14.5547,9.80612 -1.752,2.23253 -5.3409,13.79093 -4.2953,15.59957 1.0457,1.80863 23.287,19.04706 26.6501,20.0644 3.3627,1.01735 6.6695,-0.6781 8.0827,-2.76934 1.4131,-2.09123 -1.8369,-8.73273 -2.4304,-9.80663 -0.5934,-1.07386 -4.4653,-2.40166 -4.4653,-3.07992 0,-0.67823 -0.7631,-13.14124 -1.7524,-19.16059 -0.989,-6.01936 -7.2347,-10.65361 -7.2347,-10.65361 z" transform="translate(2.9103541,-79.110425) translate(-1354.3789,-222.00929)"/>
    <path fill="#4c4e54" d="m 1497.5461,336.68576 c -1.7804,1.29995 -1.8087,6.21718 -1.2999,7.85628 0.5088,1.63906 24.135,35.74878 24.135,35.74878 l 16.9566,-13.98866 c 0,0 -11.5871,-14.69514 -15.798,-20.62974 -4.2108,-5.93458 -20.2631,-10.23009 -23.9937,-8.98666 z" transform="translate(2.9103541,-79.110425) translate(-1354.3789,-222.00929)"/>
    <path d="m 1545.6349,439.29497 c -0.714,-0.7141 -3.4002,-1.534 -5.9688,-1.8222 -2.5686,-0.2879 -5.2498,-0.8308 -5.9581,-1.2064 -2.0893,-1.1071 3.273,-2.7343 7.4926,-2.2736 l 3.629,0.3965 -3.2031,-2.3204 c -2.5138,-1.8209 -3.9412,-2.2502 -6.6339,-1.9947 -3.2238,0.3062 -3.3304,0.2453 -1.7645,-1.0061 0.9166,-0.7328 1.9823,-1.332 2.3683,-1.332 0.386,0 0.219,-0.7727 -0.3707,-1.7173 -0.6515,-1.0431 -2.0022,-1.7172 -3.4416,-1.7172 -2.6199,0 -3.1716,-1.2254 -0.9377,-2.0826 1.0911,-0.4186 1.193,-0.7878 0.4293,-1.5515 -0.5512,-0.5513 -1.0022,-2.084 -1.0022,-3.4061 0,-1.992 -0.368,-2.404 -2.1463,-2.404 -1.3357,0 -2.1464,-0.4865 -2.1464,-1.288 0,-0.7858 0.8005,-1.2877 2.0546,-1.2877 2.1488,0 3.0967,-1.4142 3.0967,-4.62 0,-1.3678 -0.7856,-2.1889 -2.7903,-2.9164 -4.1999,-1.524 -11.0784,-7.98 -15.6838,-14.7203 l -4.1065,-6.0099 -2.4469,1.7423 c -1.3456,0.9584 -2.4469,2.4661 -2.4469,3.3506 0,2.1609 -1.4311,2.9263 -2.362,1.2631 -1.0188,-1.8207 -2.9113,-0.9244 -4.7132,2.2322 -1.4588,2.5552 -3.8266,2.73 -2.8599,0.2118 0.331,-0.8626 0,-1.1751 -1.0147,-0.9855 -0.8248,0.1534 -2.8518,2.8069 -4.5046,5.8975 -8.9397,16.718 -17.0358,25.8641 -27.5331,31.1027 l -6.3806,3.1841 h 5.3662 c 5.639,0 6.9978,1.1471 3.1254,2.6195 -3.1923,1.2137 -24.1521,1.3317 -40.1889,0.2263 -11.3041,-0.7793 -14.2548,-0.735 -17.0648,0.2565 -4.563,1.61 -8.7559,1.5119 -10.5136,-0.2455 -1.3534,-1.3537 -1.3471,-1.5158 0.1022,-2.5759 0.8511,-0.6221 1.9563,-1.1334 2.4564,-1.1361 0.4999,0 -1.7822,-1.6192 -5.0717,-3.5927 -6.5799,-3.9478 -18.5795,-14.992 -23.3512,-21.4923 -2.2529,-3.0692 -3.4584,-4.0291 -4.6032,-3.6657 -1.9589,0.6218 -3.022,-0.9845 -1.7034,-2.5732 0.7808,-0.9409 0.4388,-2.3842 -1.5673,-6.6165 -3.6404,-7.679 -4.2355,-10.6973 -4.8758,-24.7309 -0.4469,-9.7956 -0.2775,-13.822 0.7944,-18.8886 0.7491,-3.5416 1.3624,-6.5023 1.3629,-6.5794 2e-4,-0.078 -1.1016,0.276 -2.4486,0.7844 -1.3469,0.5084 -3.1668,0.6488 -4.0442,0.3122 -1.2953,-0.497 -0.633,-1.1439 3.5224,-3.4406 4.0373,-2.2315 6.0695,-4.1707 9.6282,-9.1872 l 4.5109,-6.3589 -2.579,-0.6686 c -4.3197,-1.1195 -3.2342,-2.9986 1.4992,-2.5958 3.9086,0.3327 4.3104,0.146 9.6588,-4.465 3.2097,-2.7674 5.4665,-5.3708 5.3117,-6.1272 -0.1801,-0.8849 0.241,-1.2016 1.288,-0.9677 0.8562,0.1923 4.0682,-0.8805 7.1377,-2.3819 12.1425,-5.9389 15.653,-6.7693 28.7622,-6.8029 17.4595,-0.046 30.0518,3.3934 44.4854,12.1469 11.4643,6.9528 20.5561,18.2613 25.0485,31.1553 l 1.0556,3.0298 0.6542,-3.0049 c 1.5259,-7.0083 5.1091,-10.3029 11.2052,-10.3029 4.0595,0 13.5291,3.7755 18.4849,7.3699 4.6485,3.3713 10.7889,10.968 14.1681,17.5287 1.3379,2.5973 2.8962,5.0092 3.4633,5.3596 2.1626,1.3376 7.1214,9.9332 8.5345,14.7944 1.3923,4.7894 1.4089,13.0201 0.034,16.7754 -0.3091,0.8442 0.4741,1.7141 2.3099,2.5652 1.8319,0.8496 3.3618,2.5457 4.4944,4.9836 l 1.7173,3.6954 4.2929,-0.4524 c 2.361,-0.2488 4.8252,-0.1193 5.476,0.2866 2.2475,1.4041 -0.024,2.6485 -4.8829,2.6876 l -4.886,0.039 5.3659,2.4834 c 2.9515,1.3658 5.3662,2.9057 5.3662,3.4219 0,2.0163 -2.9828,1.9012 -7.446,-0.2879 -4.2849,-2.1014 -4.8252,-2.1831 -6.531,-0.9886 -2.134,1.4948 -5.5342,1.6761 -8.7195,0.465 -2.4924,-0.9474 -2.5048,-0.9289 -1.3767,2.0381 0.496,1.3047 2.4661,3.0081 4.9368,4.2688 6.1667,3.1464 9.2921,6.8642 8.9353,10.629 -0.2068,2.1743 -3.5985,1.0657 -5.254,-1.7173 -0.9129,-1.5347 -3.3863,-3.8726 -5.4964,-5.1951 -4.1018,-2.5713 -7.9951,-8.9241 -7.0226,-11.4589 0.5987,-1.56 -1.0114,-3.9658 -2.1733,-3.2478 -0.4186,0.2589 -0.7613,2.1796 -0.7613,4.2683 0,3.3206 0.4585,4.2588 3.6489,7.4648 2.0069,2.0166 5.1202,4.8247 6.9185,6.2397 2.8122,2.213 3.2926,3.0952 3.4343,6.3054 0.1289,2.9159 -0.2191,3.9935 -1.5934,4.9264 -1.5146,1.0283 -1.9385,1.0137 -3.0571,-0.1047 z m -98.9961,-11.0634 c 14.7888,-2.9536 20.5108,-7.6668 33.0502,-27.223 2.794,-4.3574 5.08,-8.2325 5.08,-8.6114 0,-1.4632 -4.232,-1.72 -6.1545,-0.3736 -1.9806,1.3875 -5.0069,1.8591 -5.0069,0.7808 0,-0.3237 0.8362,-1.4788 1.8584,-2.5667 1.7418,-1.8543 1.7686,-2.0772 0.4293,-3.5574 -0.7861,-0.8684 -1.4291,-2.4063 -1.4291,-3.4173 0,-1.8236 0.024,-1.8211 3.1568,0.304 3.4976,2.3734 6.2071,3.2615 8.5807,2.8122 1.9757,-0.374 3.5168,-7.1389 3.6341,-15.9533 0.073,-5.3971 -0.1168,-6.2209 -1.4198,-6.1973 -0.8263,0.024 -2.2525,0.5946 -3.169,1.288 -2.1675,1.6393 -3.9999,1.6245 -3.3662,-0.027 0.3812,-0.993 -0.1898,-1.288 -2.4975,-1.288 -1.6455,0 -3.4727,0.5795 -4.0605,1.288 -0.588,0.7082 -1.891,1.275 -2.8957,1.2592 l -1.8265,-0.029 1.8993,-1.5853 1.8995,-1.5854 -4.9045,-1.7966 c -2.6973,-0.9884 -6.9216,-3.1301 -9.387,-4.7597 -2.4654,-1.6297 -5.363,-3.2116 -6.4392,-3.5156 -4.9284,-1.3918 -6.679,-2.441 -6.679,-4.0028 0,-0.9019 0.6085,-1.8735 1.3522,-2.159 1.9456,-0.7464 7.6143,1.1441 10.4146,3.4733 1.3198,1.0978 3.3262,2.4838 4.4584,3.0801 1.9883,1.0473 2.0414,0.9974 1.5495,-1.4619 -0.6383,-3.1917 0.1144,-6.2358 1.5433,-6.2358 1.2986,0 2.1186,2.6944 2.1346,7.0146 l 0.024,3.1507 5.9649,1.3566 c 6.2657,1.4252 14.2625,1.8068 14.9362,0.7128 1.0037,-1.6301 -4.1062,-14.3716 -8.2504,-20.5716 -11.5375,-17.2614 -25.3985,-26.0083 -48.7108,-30.7386 -27.1398,-5.5071 -54.9216,8.3242 -67.3973,33.5538 -4.5147,9.1302 -5.1209,13.5059 -3.9763,28.7042 0.6388,8.4858 1.5583,14.5938 2.6749,17.7706 3.2158,9.1497 8.654,17.4574 16.7548,25.5966 6.3051,6.3346 9.2278,8.5374 15.8815,11.9687 5.6845,2.9315 9.715,4.4032 13.3078,4.8585 7.3,0.9258 29.7753,0.1266 36.9975,-1.3164 z m 12.373,-24.873 c 0,-2.1264 2.7996,-7.3899 3.9308,-7.3899 1.7881,0 2.0103,2.2763 0.514,5.2703 -1.5148,3.0308 -4.4448,4.4283 -4.4448,2.1196 z m -26.8877,-6.2309 c -1.1073,-1.1071 -0.5853,-3.5463 1.1923,-5.5714 l 1.7789,-2.0271 -0.46,3.3603 c -0.4797,3.5044 -1.5085,5.2409 -2.5112,4.2382 z m -54.1852,-4.2241 c -1.627,-1.6272 -2.5786,-5.0369 -1.8993,-6.8067 1.0611,-2.7652 1.8594,-1.5985 4.5516,6.6522 0.6094,1.8674 -0.854,1.9526 -2.6523,0.1558 z m 14.2952,-26.6939 c -4.5032,-2.2196 -7.0599,-5.8651 -7.0599,-10.0665 0,-2.0193 0.5982,-4.3742 1.3464,-5.3003 1.2831,-1.5882 2.0744,-1.11186 1.5624,1.26394 -0.8029,3.7261 0.2422,6.57836 4.9192,9.93846 6.0953,4.379 5.5596,7.2832 -0.7681,4.1644 z m 1.9017,-28.1024 c -0.6208,-2.4737 1.7141,-7.3903 3.5097,-7.3903 1.489,0 1.5163,0.1606 0.4668,2.7499 -0.4395,1.0847 -1.0265,3.0346 -1.3042,4.3333 -0.6221,2.9073 -1.9806,3.0633 -2.6723,0.3071 z m -14.9717,-4.6877 c 0,-2.4829 3.7165,-7.3952 5.8249,-7.6992 1.0463,-0.1508 1.9022,0.1388 1.9022,0.6438 0,0.5052 -0.309,0.9185 -0.6873,0.9185 -0.3779,0 -1.7863,1.7384 -3.1295,3.8636 -2.5959,4.1067 -3.9103,4.8709 -3.9103,2.2733 z m 19.4829,-12.6976 c -2.2612,-2.2612 1.7319,-6.9654 6.5807,-7.7523 3.9711,-0.6444 4.1568,0.8801 0.3378,2.7735 -1.5347,0.7608 -3.5854,2.326 -4.5572,3.4781 -0.9718,1.1522 -2.0344,1.8275 -2.3613,1.5007 z m 20.8702,-5.4594 c 0,-0.4724 0.7956,-0.8587 1.7679,-0.8587 0.9723,0 1.5289,0.3863 1.2371,0.8587 -0.2918,0.4721 -1.0874,0.8584 -1.7676,0.8584 -0.6805,0 -1.2374,-0.3863 -1.2374,-0.8584 z m 130.5601,95.2717 c 2.1139,-1.1312 2.0998,-3.1026 -0.046,-6.6237 -2.1651,-3.5511 -3.3973,-3.5034 -5.8125,0.2263 -1.067,1.6469 -2.3226,2.9943 -2.7906,2.9943 -1.9648,0 -0.6191,1.6296 2.369,2.8689 3.9235,1.6274 4.1968,1.6508 6.2813,0.5352 z m -14.5415,-21.1384 c 1.744,-2.1013 2.4649,-0.2337 2.4649,6.3893 v 6.5838 l 2.3612,-2.3651 c 2.2914,-2.2953 2.3593,-2.636 2.299,-11.5711 -0.051,-7.5366 -0.4028,-9.9626 -1.9402,-13.3757 -1.7292,-3.838 -2.0651,-4.1242 -4.2309,-3.6051 -7.7853,1.866 -15.6605,10.9259 -15.6605,18.0162 0,3.0808 0.5732,4.0281 5.366,8.8674 l 5.3662,5.418 1.5159,-6.6111 c 0.8339,-3.636 1.94,-7.1221 2.4584,-7.7466 z m -36.209,-6.2867 c 2.7854,-1.406 5.2929,-2.9261 5.5721,-3.3778 0.4726,-0.7649 -6.2445,-12.86 -8.5342,-15.3665 -0.8063,-0.883 -1.1402,0.6851 -1.5537,7.2979 -0.2897,4.6321 -0.7842,9.6778 -1.0986,11.2125 -0.3147,1.5348 -0.3198,2.7903 -0.024,2.7903 0.3086,0 2.84,-1.1504 5.6254,-2.5564 z m 18.0539,-0.4054 c 0.9598,-2.9084 0.8496,-3.134 -6.0788,-12.4494 -4.7227,-6.3495 -7.6033,-9.4873 -8.7097,-9.4873 -1.9611,0 -2.0814,-0.3439 2.7827,7.9669 3.5397,6.0481 4.0547,6.5626 6.1428,6.1357 2.9086,-0.5945 3.7468,0.7798 2.4236,3.9741 -0.872,2.1055 -0.8119,2.8721 0.3663,4.6704 0.7754,1.1833 1.5641,2.1514 1.7528,2.1514 0.1898,0 0.7827,-1.3327 1.3203,-2.9618 z m 7.026,-10.3968 c 2.3016,-2.1529 5.3049,-4.3049 6.6741,-4.7821 1.3692,-0.4773 2.6954,-1.4043 2.947,-2.0602 0.5267,-1.3724 -8.5524,-12.9459 -14.0318,-17.8869 -4.475,-4.0352 -12.8167,-8.0606 -18.2457,-8.8049 -3.8166,-0.523 -4.0424,-0.4383 -4.5847,1.7219 -0.4602,1.8341 0.2546,3.4691 3.7083,8.4819 2.3532,3.4153 5.2562,8.1495 6.451,10.5204 2.1266,4.2197 11.3912,16.7243 12.3912,16.7243 0.2782,0 2.389,-1.7615 4.6906,-3.9144 z m -23.3247,-17.4418 c 0,-0.9557 -4.4041,-8.8711 -4.7426,-8.524 -0.1388,0.1436 0.1484,2.2877 0.6413,4.7668 0.6965,3.5092 1.2497,4.5075 2.498,4.5075 0.8817,0 1.6033,-0.3375 1.6033,-0.7503 z m 12.2348,81.2447 c -4.9019,-1.5724 -3.022,-2.3644 5.5806,-2.3507 8.6802,0.024 12.1335,0.925 9.6591,2.5493 -1.6613,1.0906 -11.6258,0.9606 -15.2397,-0.1995 z m -145.817,-0.9584 c -0.6888,-1.7944 1.0601,-3.9811 3.1838,-3.9811 2.1812,0 2.0269,1.028 -0.512,3.4131 -1.8772,1.7635 -2.1877,1.8294 -2.6718,0.568 z m 7.6778,-0.129 c -0.5588,-1.4561 0.8613,-3.498 3.3641,-4.8375 2.7536,-1.4737 3.2829,0.3838 0.9568,3.3561 -2.3919,3.0563 -3.5626,3.4576 -4.3209,1.4814 z m 9.293,-0.6043 c 0.2828,-1.9628 4.4504,-4.939 5.4777,-3.912 0.7725,0.7725 -3.1797,5.7074 -4.619,5.7678 -0.6895,0.029 -1.0256,-0.6978 -0.8587,-1.8558 z m 84.8708,1.0612 c -1.5522,-0.9594 -0.4578,-2.3374 3.4316,-4.3217 3.9678,-2.0244 5.1275,-2.1317 5.1275,-0.4755 0,2.3001 -6.6074,6.0033 -8.5591,4.7972 z m 25.3014,-0.024 c -1.0665,-1.7253 0.6347,-2.5756 5.1513,-2.5756 4.6385,0 6.8262,1.2594 4.6176,2.6584 -1.6321,1.0338 -9.1181,0.9703 -9.7689,-0.083 z m -14.0148,-1.4103 c 0.3317,-1.6864 2.949,-3.5025 3.8083,-2.6429 0.6798,0.6795 -2.0653,4.0532 -3.2975,4.0532 -0.4337,0 -0.6637,-0.6347 -0.5108,-1.4103 z" transform="translate(2.9103541,-79.110425) translate(-1354.3789,-222.00929)"/>
</svg>