<?xml version="1.0" ?><svg xmlns="http://www.w3.org/2000/svg" width="226.16647mm" height="301.89627mm" viewBox="0 0 226.16647 301.89627">
    <path d="m 5652.0483,51.780291 c -0.7839,-2.309574 -4.1804,5.004276 -5.2255,-1.251003 -1.0451,-6.255253 0.5226,-12.799245 8.2302,-15.301304 7.7073,-2.502058 22.0773,-4.330541 28.3477,-2.117143 6.2706,2.213425 15.4151,12.41425 16.9825,19.246877 1.5677,6.832626 -4.6915,13.846468 -4.6915,13.846468 0,0 -2.4932,-12.980381 -6.6737,-15.193753 -4.1804,-2.213346 -6.401,-3.27197 -9.1445,-0.673629 -2.7432,2.59834 -1.9595,8.949822 -1.4369,11.066965 0.5225,2.117143 1.829,5.100426 1.829,5.100426 0,0 -3.0046,2.790824 -5.2255,7.987453 -2.2209,5.196628 1.6984,22.518819 1.6984,22.518819 l 13.9779,22.326413 11.8877,16.74474 c 0,0 10.4508,39.07123 10.9734,43.0168 0.5225,3.94558 -17.6358,37.82013 -17.6358,37.82013 0,0 -29.6543,38.01261 -39.3211,43.88286 -9.6671,5.87029 -36.0553,20.20925 -42.4566,22.03765 -6.4011,1.82843 -22.5999,9.5272 -29.5235,14.82011 -6.9237,5.29291 -10.059,8.56477 -16.0682,12.31796 -6.0092,3.7532 -13.8472,12.99173 -13.0635,7.50634 0.7839,-5.48539 4.9641,-29.15904 3.7885,-36.28038 -1.1758,-7.12134 -8.3608,-13.37662 0,-33.97078 8.3606,-20.59414 29.7847,-55.14221 34.357,-59.37655 4.5722,-4.23434 21.8162,-19.8243 29.7849,-22.51887 7.9687,-2.69454 16.0682,-22.80751 23.3836,-26.07948 7.3158,-3.27199 11.6266,-1.92479 15.6763,2.30955 4.0497,4.23437 10.7122,12.12554 16.0682,12.79919 5.3559,0.67363 5.0948,-5.10034 5.3559,-11.35562 0.2614,-6.25525 -10.9733,-27.71556 -16.3293,-34.54818 -5.3562,-6.83263 -13.1942,-18.669451 -13.1942,-29.543932 0,-10.874454 -2.3514,-27.138127 -2.3514,-27.138127 z" fill="#fff" paint-order="fill markers stroke" transform="translate(-65.3519,5.2916677) translate(-5485.9315,-33.672232)"/>
    <path d="m 5680.531,67.468389 c -0.9567,-1.778714 -4.5559,-8.625099 -3.2573,-12.954423 1.2983,-4.329351 5.3758,-5.386493 8.223,-4.832747 2.8475,0.553747 4.0092,3.037232 5.4671,5.000519 1.4576,1.963314 4.8744,8.071353 4.4873,10.051442 -0.3873,1.980088 -14.9201,2.735209 -14.9201,2.735209 z" fill="#ffb380" paint-order="fill markers stroke" transform="translate(-65.3519,5.2916677) translate(-5485.9315,-33.672232)"/>
    <path d="m 5706.1078,143.49641 c -5.7804,-1.84311 -10.6982,14.42704 -20.8786,22.18079 -10.1804,7.75377 -10.9566,5.21152 -10.9566,5.21152 0,0 1.5528,25.16796 -5.4354,36.86212 -6.9882,11.69416 -16.306,24.59588 -16.306,24.59588 l -4.5725,-0.50842 -6.8157,6.3555 c 0,0 -2.1569,-3.68612 -3.7097,-3.30483 -1.5531,0.38129 -8.0235,11.88482 -9.6629,12.39327 -1.639,0.50842 -3.3647,-0.57198 -3.3647,-0.57198 0,0 -9.2313,16.77858 -11.9057,17.66837 -2.6747,0.88977 -3.0197,-3.11417 -2.4156,-4.95731 0.6038,-1.84314 -2.1569,-1.71596 -3.4513,1.97022 -1.294,3.68617 -2.9331,8.00793 -5.3488,8.19862 -2.4156,0.19066 -4.4,-5.33866 -4.4,-5.33866 0,0 -3.9687,11.88482 -6.1256,12.90172 -2.1569,1.01692 -5.4351,-2.92354 -5.4351,-2.92354 0,0 -1.7256,9.85107 -4.659,10.67731 -2.9332,0.82622 -3.7098,-6.29198 -3.7098,-6.29198 0,0 -0.2587,-3.43201 -1.2078,-2.09735 -0.949,1.33467 -6.1254,8.19865 -6.1254,8.19865 0,0 0.086,-22.68922 0.6901,-26.88387 0.604,-4.19465 6.4706,-28.91771 12.6823,-36.79856 6.2118,-7.88086 22.3451,-27.01097 27.2629,-30.88786 4.9175,-3.87691 15.0979,-24.53235 15.0979,-24.53235 0,0 -7.851,1.33461 -15.5295,7.69017 -7.6784,6.35555 -28.2117,28.34571 -34.7686,40.42121 -6.5566,12.07551 -18.4626,52.56025 -19.6704,58.21667 -1.2079,5.65639 3.2784,14.93549 2.7606,16.71503 -0.5175,1.77956 -3.6234,26.37541 -3.7959,29.10832 -0.1726,2.7329 1.1215,2.66932 4.4862,-0.0636 3.3647,-2.73285 12.5098,-10.99505 12.5098,-10.99505 0,0 -2.6744,2.22443 2.7609,-0.19066 5.4351,-2.41511 13.6314,-10.99505 13.6314,-10.99505 l 47.1921,-21.7995 c 0,0 37.8743,-25.99409 44.0862,-33.23941 6.2116,-7.24533 33.1293,-44.42521 34.5096,-54.46694 1.3806,-10.04173 -7.4194,-42.51849 -7.4194,-42.51849 z" fill="#e6e6e6" paint-order="fill markers stroke" transform="translate(-65.3519,5.2916677) translate(-5485.9315,-33.672232)"/>
    <path d="m 5685.3993,66.176111 c -4.4936,0.588539 -8.2886,1.986307 -10.1859,5.738125 -1.8973,3.751791 -1.4981,19.200521 -0.1,24.276473 1.398,5.075981 24.0667,33.325011 24.0667,33.325011 0,0 47.0353,68.19487 48.4333,70.69611 1.3981,2.50124 10.5855,10.29917 13.7811,11.25548 3.1957,0.95631 4.4937,-2.05983 4.4937,-2.05983 l -12.5825,-18.75912 -35.8508,-52.30482 -24.0668,-47.081675 c 0,0 -9.5869,-17.655725 -7.9891,-25.085754 z" fill="#ead17b" paint-order="fill markers stroke" transform="translate(-65.3519,5.2916677) translate(-5485.9315,-33.672232)"/>
    <path d="m 5684.3119,66.175397 c 4.3939,0.147108 11.8838,-0.514959 11.8838,-0.514959 l 7.2898,-4.708154 3.4951,14.713029 32.5554,70.916827 32.4551,61.35327 -7.4895,-0.29424 -23.6676,-34.42845 -37.0488,-59.5878 c 0,0 -17.476,-36.046934 -17.576,-38.401011 z" fill="#f6eecf" paint-order="fill markers stroke" transform="translate(-65.3519,5.2916677) translate(-5485.9315,-33.672232)"/>
    <path d="m 5765.1627,208.96122 c -1.0822,-2.10153 -45.5556,-80.58567 -51.0645,-91.7455 -5.5087,-11.15981 2.6561,-13.26137 2.6561,-13.26137 0,0 50.2677,95.43854 54.4976,101.01847 4.2301,5.57993 -6.0892,3.9884 -6.0892,3.9884 z" fill="#ffb380" paint-order="fill markers stroke" transform="translate(-65.3519,5.2916677) translate(-5485.9315,-33.672232)"/>
    <path d="m 5595.6678,208.94943 c 17.395,-7.71231 42.36,-30.73048 51.8628,-39.39196 9.5028,-8.66151 10.469,-9.61075 15.6231,-9.49206 5.1541,0.11872 10.7913,1.77983 10.7913,1.77983 0,0 -4.3487,-15.30586 -8.0531,-18.74676 -3.7045,-3.44094 -11.9187,-10.3227 -17.5562,-5.9326 -5.6372,4.3901 -12.7241,14.83133 -14.6568,19.93329 -1.9328,5.10196 -18.6833,30.84909 -24.6428,35.7138 -5.9595,4.86468 -13.3683,16.13646 -13.3683,16.13646 z" fill="#f6eecf" paint-order="fill markers stroke" transform="translate(-65.3519,5.2916677) translate(-5485.9315,-33.672232)"/>
    <path d="m 5657.6472,329.7575 c -10.8217,-1.44347 -30.2824,-7.44304 -32.7072,-10.13207 -1.4018,-1.55429 -1.56,-3.27261 -1.56,-16.94618 0,-12.55251 -0.2347,-15.56946 -1.3386,-17.23321 l -1.3385,-2.01677 -9.9522,3.60262 c -14.0652,5.09155 -21.1848,8.66525 -26.1416,13.1217 -3.4238,3.07842 -4.301,3.54329 -4.301,2.27934 0,-2.33007 3.5284,-6.72028 8.2564,-10.27272 4.1754,-3.13739 13.781,-7.37016 26.7971,-11.80828 3.8698,-1.31944 7.9145,-2.97454 8.988,-3.67802 1.0998,-0.72054 3.7712,-5.0792 6.119,-9.98294 2.2918,-4.78722 4.5511,-8.94152 5.021,-9.23182 1.2311,-0.76098 1.0737,5.04955 -0.2781,10.26121 -0.6226,2.40021 -0.9049,4.36093 -0.6273,4.35723 1.4644,-0.019 16.1766,-11.93751 26.4315,-21.4111 17.1399,-15.83357 20.6645,-19.84465 29.8519,-33.97029 10.5646,-16.24283 17.3356,-25.7965 18.5062,-33.27523 1.0763,-6.87612 -1.1948,-22.56196 -3.6112,-31.771 -0.9054,-3.44993 -1.6525,-7.34228 -1.6605,-8.64963 -0.024,-3.36351 -14.047,-26.2486 -16.4595,-26.85447 -2.2026,-0.55312 -9.0086,-9.36553 -11.6586,-15.09507 -3.251,-7.029294 -4.773,-14.415689 -4.2524,-20.636932 0.5822,-6.95786 2.1707,-10.098044 6.5864,-13.020213 2.8053,-1.856514 4.6172,-2.601074 9.6615,-2.600245 3.7085,6.11e-4 7.1553,1.082221 5.6719,-2.518595 -1.785,-4.332527 -3.9945,-9.3038 -6.6577,-10.955261 -6.976,-4.325855 -10.0855,6.937418 -7.9287,10.967613 0.4974,0.929099 0.7115,1.87837 0.4798,2.113623 -1.6045,1.629331 -3.9801,-4.982255 -4.0539,-8.316841 -0.1066,-4.808532 3.3472,-8.141322 7.9441,-8.141322 6.2746,0 10.7207,8.035697 11.4991,11.127496 1.1612,4.611261 2.463,5.155919 2.463,1.030543 0,-7.080426 -6.7569,-17.692805 -13.9478,-21.907084 -2.9355,-1.720267 -4.8151,-2.178605 -8.8958,-2.169383 -7.4058,0.01659 -17.3357,1.4757 -24.1679,3.550941 -7.1559,2.17358 -9.187,1.239834 -4.3084,-1.980766 4.3481,-2.870558 13.5171,-7.009106 18.1785,-6.370258 2.9248,0.400894 4.1159,0.161922 5.801,-1.163567 4.3828,-3.447482 14.8286,-1.371695 21.343,4.241186 7.3166,6.30436 11.6526,16.514114 19.0294,41.145836 6.7794,22.636444 12.5479,33.121309 24.2552,56.860879 8.7991,17.84209 16.9527,33.65251 28.3086,52.00274 4.6969,7.58989 9.6971,15.68155 11.1112,17.98147 1.4142,2.29999 2.8139,5.735 3.1102,7.63337 0.5098,3.26382 0.3827,3.54816 -2.334,5.22722 -6.3425,3.91988 -15.3018,0.50648 -25.7213,-9.95112 -8.7822,-8.81423 -16.9213,-19.65095 -27.8337,-37.05822 -4.5492,-7.25682 -8.5363,-13.358 -8.8601,-13.55816 -0.3239,-0.20009 -0.05,1.59784 0.6088,3.99548 0.6585,2.39771 2.5223,10.81911 2.7729,16.42896 1.5653,19.49022 -10.264,33.51451 -19.9997,49.10124 -4.6958,7.52607 -12.3985,15.6471 -29.3251,30.91787 -13.6242,12.29135 -14.9237,10.62899 -16.331,15.69359 -0.7833,2.81878 -1.9419,6.2541 -2.5746,7.6341 -0.633,1.37996 -1.756,7.02532 -2.4957,12.54523 -0.7397,5.51992 -1.7742,10.85281 -1.8065,11.918 -0.033,1.10195 -1.7314,1.88178 2.7319,1.88178 h 17.3405 c 20.0606,0 20.563,0.0414 21.7927,1.79742 1.1034,1.57498 1.11,2.08576 0.055,4.12869 -0.6631,1.28227 -1.6788,2.6266 -2.2569,2.98748 -1.5176,0.9471 -6.4227,0.98662 -17.3604,0.14011 -11.6419,-0.90105 -18.1977,-3.14926 -23.2088,-3.77531 -3.1622,-0.39506 -4.1915,-1.38479 -3.5544,-8.11004 0.352,-3.71579 0.7588,-11.64615 1.6756,-17.58608 0.9168,-5.93985 1.5638,-10.903 1.4377,-11.02912 -0.1257,-0.12614 -2.8563,1.33186 -6.0668,3.23991 l -5.8371,3.46934 -0.083,17.71412 -0.07,14.86851 c -0.011,2.48969 0.9282,3.39435 3.8331,3.33133 2.132,-0.0463 8.1749,0.89003 13.4647,1.38405 20.5957,1.92356 24.6632,2.53785 26.7104,4.03374 2.9046,2.12228 2.9724,3.14052 0.3041,4.5578 -1.2883,0.68423 -3.8406,2.02447 -5.6554,3.00956 -3.8716,2.10153 -7.374,1.36684 -10.9189,0.89399 z m 103.9872,-122.71198 c -0.6013,-0.81199 -3.2925,-4.41535 -5.981,-8.00749 -2.6881,-3.59222 -8.4757,-12.43091 -12.8611,-19.64159 -4.3852,-7.2107 -14.9184,-23.53452 -23.4069,-36.2751 -22.0914,-33.15702 -34.6,-58.509388 -34.4988,-69.922321 0.033,-3.88299 0.067,-3.835456 2.7428,4.015799 4.6238,13.567761 21.0847,42.685642 39.4145,69.721732 5.6608,8.34961 14.3312,21.75258 19.2676,29.78442 8.9752,14.60324 16.2212,24.92641 19.6889,28.05004 1.0137,0.91291 -1.9168,-4.55004 -6.512,-12.1399 -11.9932,-19.80932 -24.3211,-42.72108 -33.6833,-62.60118 -12.957,-27.51399 -17.3266,-36.492851 -20.9425,-54.854327 -0.7247,-3.679887 -1.5318,-8.123108 -1.6772,-9.206849 -0.2065,-1.539472 -0.6836,-3.339208 -2.9204,-0.523006 -2.907,2.552332 -2.9829,2.726004 -11.6491,2.359518 -6.146,-0.259906 -13.6034,2.464909 -13.3132,11.310352 0.3597,10.968353 4.6841,21.233452 14.8828,33.382012 7.176,8.54779 16.2565,21.43839 34.4001,48.83415 16.1646,24.40702 25.1907,36.22076 33.1257,43.35481 4.5158,4.06006 5.7171,4.7825 3.9231,2.35893 z m -33.5424,-63.07687 c -1.1503,-1.52517 -3.2034,-4.84303 -4.5623,-7.37298 -1.3587,-2.52993 -3.6607,-6.5333 -5.1153,-8.89638 -3.5922,-5.83538 -9.9641,-19.4753 -15.5143,-33.21148 -2.5296,-6.260196 -5.9264,-14.254855 -7.5487,-17.765825 -1.6221,-3.51097 -2.407,-5.933527 -1.7442,-5.383487 1.9147,1.589046 4.9538,7.249342 9.2173,17.167044 6.0921,14.171378 18.0777,39.901168 19.6742,42.235718 2.7434,4.01141 8.5454,15.13998 8.1167,15.56859 -0.2375,0.23754 -1.3732,-0.81603 -2.5234,-2.3412 z m -174.0557,176.16341 c -0.5445,-0.62501 -0.081,-4.44338 0.4818,-8.1544 0.5621,-3.71094 1.4246,-10.14183 1.9167,-14.29072 1.5074,-5.67527 0.4561,-8.37032 -2.1282,-13.24202 -2.7259,-5.13828 -3.0232,-6.33812 -3.0232,-12.20565 0,-8.06266 2.38,-16.75398 5.6911,-26.84293 4.8512,-14.78343 13.2865,-33.01189 22.6802,-45.24532 9.2661,-12.06748 29.6175,-31.2878 40.4296,-36.35771 4.5555,-2.13614 5.1389,-0.97072 7.926,-5.73641 5.9636,-10.19733 15.4491,-21.79952 22.611,-23.94528 3.7134,-1.11254 10.1289,3.56384 10.7851,4.7897 1.1121,2.07806 0.1721,3.20352 -2.9385,1.58123 -1.3174,-0.68716 -3.0692,-1.2517 -3.8924,-1.25453 -2.6436,-0.009 -8.3156,5.77129 -12.3969,9.85262 -4.4901,4.49021 -6.4982,7.49185 -13.0937,19.57324 -8.5088,15.5862 -13.4632,21.74618 -30.6811,38.14744 -9.2241,8.78683 -12.8513,13.55772 -17.5509,23.08564 -4.9881,10.11267 -8.0577,19.35833 -9.428,28.39762 -1.2757,8.41378 -1.5433,23.49599 -0.4295,24.18441 0.7106,0.43916 4.2085,-13.34269 5.9607,-23.48559 0.4898,-2.83559 1.4609,-7.07601 2.1578,-9.42322 1.2921,-4.351 4.4618,-10.45008 5.0993,-9.81246 0.1944,0.19392 -0.4372,4.06754 -1.4022,8.60831 -1.9126,8.99826 -3.3767,34.8781 -1.8867,33.34633 1.1766,-1.20938 5.0222,-17.21145 6.1078,-25.4136 1.0685,-8.07531 3.4919,-16.51727 5.4328,-18.92482 1.3056,-1.61953 1.3279,-1.60887 0.9002,0.43006 -2.3478,11.19374 -3.9087,36.34909 -2.1461,34.58636 0.4813,-0.48117 2.8433,-10.92278 5.2492,-23.20356 2.4056,-12.28079 4.7405,-22.21815 5.1886,-22.08297 0.9494,0.28653 1.0628,13.10726 0.2515,28.47263 -0.3096,5.86492 -0.2466,10.66347 0.1399,10.66347 0.8698,0 2.4639,-4.40991 5.8953,-16.30883 8.1879,-28.39366 9.704,-33.03584 10.7887,-33.03584 0.5696,0 -0.5557,7.76143 -4.4876,30.94493 -1.0532,6.20988 -2.7256,14.26909 -2.5732,14.44928 0.6584,0.77887 4.8739,-7.10774 8.7447,-14.86741 3.104,-6.22258 4.699,-10.82561 6.2308,-17.98154 3.7818,-17.6678 4.5789,-15.28381 2.0476,6.12409 -0.4798,4.05826 -0.6766,7.57449 -0.4371,7.81391 0.6906,0.69063 2.5964,-3.52808 6.6744,-14.77433 6.2874,-17.34018 5.9458,-17.07348 6.4289,-5.01811 l 0.4188,10.45434 2.2969,-4.35723 c 2.2959,-4.35451 7.1156,-19.88922 10.5943,-34.14564 1.92,-7.86912 2.9413,-10.34244 3.8821,-9.4016 0.5289,0.52896 0.1256,3.20229 -3.6984,24.4867 -0.909,5.05992 -1.8326,11.08164 -2.0524,13.38156 l -0.3995,4.18177 3.7105,-4.08799 c 11.1976,-12.33724 16.5254,-28.68859 16.5168,-50.69288 0,-13.34885 -1.1882,-18.26219 -6.1594,-25.58052 -1.848,-2.72044 -3.3608,-5.22856 -3.362,-5.57356 0,-1.80744 2.5953,-1.1359 7.214,3.76377 3.7558,3.98421 5.584,5.35657 7.3085,5.47812 2.3425,0.16524 2.3741,0.10479 2.6187,-5.0068 0.4469,-9.33775 -6.1884,-21.3397 -16.6591,-35.95786 -10.6608,-14.883609 -15.0537,-26.388031 -15.0537,-40.419749 0,-4.196071 0.5336,-9.686621 1.1861,-12.201187 0.6522,-2.514636 2.2531,-5.473235 2.1057,-5.620695 -0.147,-0.147462 -1.0403,0.214079 -1.9844,0.80352 -0.9438,0.589512 -2.0158,0.767468 -2.3814,0.394564 -1.7943,-1.830017 4.7234,-6.001228 7.02,-6.001228 1.935,0 2.0698,0.594555 1.3841,4.859971 -0.3881,2.414969 -0.7057,8.907141 -0.7055,14.427042 5e-4,15.467358 3.4478,24.797817 15.9296,43.116572 7.4876,10.98933 13.1764,22.40956 15.1533,30.42142 1.1816,4.7875 1.2201,6.17813 0.2796,10.09827 -1.4319,5.96909 -3.8963,8.34485 -7.9707,7.68367 l -3.0192,-0.4899 0.5811,14.38395 c 0.8599,21.29455 -0.8597,29.80668 -8.626,42.69887 -4.5744,7.59365 -13.4981,20.91664 -15.5917,20.91664 -0.7874,0 -1.8206,-0.38902 -2.2959,-0.86454 -0.5953,-0.59511 -1.5953,0.29153 -3.2097,2.84542 -1.2897,2.04044 -3.2521,4.1232 -4.3606,4.62827 -1.7207,0.78402 -2.9924,1.07062 -3.9008,-1.11589 -1.3173,-3.17075 -1.8888,-1.6261 -2.9808,1.67578 -2.2718,6.86927 -7.5684,9.67891 -10.0567,7.61363 -0.8663,-0.71877 -2.4124,3.05989 -4.3744,6.51369 -4.8408,8.52074 -11.5782,14.11769 -12.0476,6.09955 -0.088,-1.50325 -0.5292,-3.62772 -1.4667,-0.64539 -0.4747,1.5102 -1.0479,3.69522 -2.0033,5.66901 -2.8501,5.88761 -6.7792,6.68536 -7.9235,1.60875 -0.57,-2.52893 -0.6486,-2.42356 -1.7446,2.33818 -0.6314,2.74252 -1.9569,5.84746 -2.9455,6.89987 -2.0893,2.22391 -5.2728,2.50655 -6.3595,0.56455 -0.5811,-1.03856 -0.9901,-0.41325 -1.7769,2.71817 -2.2726,9.0413 -7.333,9.43521 -9.2733,0.7216 l -0.5587,-2.50904 -0.9747,3.45704 c -1.3026,4.61994 -3.0596,6.0949 -4.9771,4.17755 -1.8454,-1.84527 -1.5413,-21.74059 -0.096,-30.70221 1.9957,-12.37189 7.481,-31.383 14.6089,-42.18627 1.761,-2.66907 8.4994,-10.33239 14.9739,-17.02961 7.8889,-8.16016 15.193,-16.31536 19.2451,-22.37522 3.3257,-4.97337 4.3964,-6.32096 4.1672,-6.55023 -0.23,-0.22925 -2.4104,1.02583 -4.847,2.789 -25.2175,18.24814 -34.9251,33.73335 -46.5598,58.13579 -8.4996,17.82685 -11.7843,28.0002 -11.7834,39.47459 7e-4,5.86126 0.3485,7.76954 1.9825,10.87254 2.6187,4.97331 1.3097,15.08148 -0.4648,23.4511 -0.7314,3.44995 -1.3302,6.6032 -1.3307,7.0072 -2e-4,0.40398 1.8162,-2.04237 4.037,-5.43629 2.2206,-3.39399 4.721,-6.73247 5.5568,-7.41883 1.4127,-1.16018 1.4736,-1.1014 0.8664,0.83633 -0.849,2.70997 -6.4022,13.24888 -9.3177,16.51137 -1.647,1.84307 -4.3759,6.25129 -5.6695,4.76661 z m 10.0627,-6.0688 c -0.4587,-0.74238 13.9014,-17.71421 15.9727,-18.87759 1.0999,-0.61772 1.2139,-0.35974 0.7165,1.62172 -1.5108,6.01972 -15.0083,19.97548 -16.6892,17.25587 z M 5681.8471,56.713378 c -0.5991,-2.387114 0.88,-4.709979 2.5829,-4.056505 2.7185,1.043275 2.3406,6.158275 -0.4549,6.158275 -1.0118,0 -1.7944,-0.772961 -2.128,-2.10177 z m -38.352,-8.788339 c 0,-2.34572 6.6876,-7.208234 10.6868,-7.208234 2.812,0 1.7326,2.651477 -3.1798,5.614992 -4.7638,2.873806 -7.507,3.455969 -7.507,1.593242 z" transform="translate(-65.3519,5.2916677) translate(-5485.9315,-33.672232)"/>
</svg>