<?xml version="1.0" ?><svg xmlns="http://www.w3.org/2000/svg" width="358.33273mm" height="367.22681mm" viewBox="0 0 358.33273 367.22681">
    <path d="m 6448.1516,-275.64129 c -11.0011,-0.37013 -16.2687,14.26321 -16.2687,14.26321 0,0 0.218,-8.87005 -15.8525,-7.39468 -16.0706,1.47534 -19.0709,14.8831 -19.0709,14.8831 0,0 2.944,-15.4719 -10.6675,-15.98559 -13.612,-0.51367 -20.9886,21.78007 -20.9886,21.78007 0,0 -3.4679,-12.64557 -16.1224,-10.44135 -12.6545,2.20421 -12.5915,13.43652 -12.5915,13.43652 0,0 -0.097,-19.06813 -16.8624,-14.2875 -16.7662,4.78065 -15.4792,31.0317 -15.4792,31.0317 0,0 -7.6751,-3.219 -14.1081,0.0894 -6.4334,3.30835 -7.9979,10.86416 -8.8673,7.95816 -0.8694,-2.906 -7.2702,-11.62441 -14.8968,-10.07433 -7.6269,1.55012 -10.7371,9.31416 -12.0782,20.6029 l 0.1238,0.0268 c -0.3305,4.16883 0.2545,8.13663 1.0192,11.2758 -5.3018,5.1761 -10.5604,11.92713 -14.5799,18.25832 -8.259,-7.34621 -16.0179,-10.28015 -20.0041,-1.33996 -7.7404,17.36079 2.1312,29.30649 8.6056,34.84335 -0.8689,5.15509 -1.6246,10.68887 -2.2149,16.36231 -5.5059,-3.5623 -10.2153,-3.88178 -12.9116,1.73633 -9.075,18.90638 7.3422,29.696671 11.9422,32.268291 0.5543,5.89314 1.6939,12.045789 3.2904,18.20304 -2.667,2.481845 -4.3998,6.150875 -3.7399,11.588962 1.1853,9.76876 6.4259,12.657031 12.5971,13.514916 3.6898,8.245528 7.8107,15.625392 11.8417,21.183732 11.5749,15.960672 43.9642,21.235908 43.9642,21.235908 0,0 5.1419,9.4337193 11.1776,13.6586121 6.0359,4.2248666 11.8517,4.6820931 29.2385,6.3809829 17.3871,1.698916 56.7066,-21.057606 56.7066,-21.057606 l 16.5671,15.295166 c 0,0 3.2288,8.606234 11.1274,19.716114 7.8988,11.109907 18.8775,12.048887 18.8775,12.048887 0,0 -8.8268,-4.221189 19.8847,9.559184 23.7744,11.410738 42.8607,-6.750896 42.9924,-8.695161 0,0 22.3547,3.084539 29.6572,-5.767599 7.3025,-8.852138 -12.8416,-22.555199 -7.0543,-22.6446282 5.7874,-0.089403 14.2576,-10.2153775 14.2576,-10.2153775 l -2.7327,-18.1291443 c 0,0 23.9091,-3.821774 28.4544,-22.487281 4.5455,-18.665507 -10.7998,-26.605838 -10.7998,-26.605838 0,0 12.3698,-9.545108 10.8548,-20.409089 -1.5152,-10.864001 -13.5083,-13.036921 -13.5083,-13.036921 0,0 3.1544,-6.12515 1.1922,-14.91022 -1.9621,-8.78507 -11.3016,-9.56736 -11.3016,-9.56736 0,0 3.8996,-0.24601 5.0426,-14.39603 1.1425,-14.15002 -4.6204,-19.13475 -4.6204,-19.13475 0,0 9.3147,-22.44717 2.884,-26.83454 -6.431,-4.38735 -20.2536,1.62213 -20.2536,1.62213 0,0 6.0608,-9.32132 1.8629,-17.92758 -4.1976,-8.60626 -14.6796,-4.31448 -14.6796,-4.31448 0,0 13.5618,-20.5209 1.9124,-27.6071 -11.6493,-7.08618 -24.8883,4.26953 -24.8883,4.26953 0,0 0.9509,-15.56467 -8.1349,-22.6472 -8.7873,-6.8498 -19.1714,-4.84002 -19.1714,-4.84002 0,0 7.8989,-9.16522 -6.5572,-15.17841 -1.8071,-0.75165 -3.4959,-1.11088 -5.0675,-1.16374 z" fill="#9bd881" transform="translate(111.4223,105.12939) translate(-6320.4006,174.12102)"/>
    <path d="m 6344.28,-51.844929 c -0.06,-7.542345 -2.2056,-9.184349 2.6263,-13.74947 4.832,-4.565094 18.125,-7.470166 24.0395,-8.71519 5.9147,-1.245049 10.206,-4.569883 17.5739,-0.814361 7.3678,3.755496 12.1999,12.344427 13.3627,15.772765 1.1629,3.428339 3.609,15.680161 2.426,21.580528 -1.1829,5.90034 -1.3033,12.55858 -3.8095,12.720955 -2.5061,0.162401 -17.9043,-18.098056 -26.8263,-21.544439 -8.922,-3.446383 -29.3926,-5.250788 -29.3926,-5.250788 z" fill="#c8de6a" transform="translate(111.4223,105.12939) translate(-6320.4006,174.12102)"/>
    <path d="m 6448.0766,-276.03613 c -6.2129,-0.0942 -13.1273,5.19415 -19.8244,23.70553 -8.2426,22.78325 -0.2419,28.00858 5.5644,29.9992 12.4071,-1.39962 20.8574,-16.82734 23.5876,-23.26576 2.7303,-6.43837 2.0392,-26.95075 -5.1496,-29.61008 -1.3477,-0.49861 -2.7439,-0.80714 -4.178,-0.82889 z m -61.3846,5.95366 c -8.9885,-0.0809 -19.494,8.33339 -20.7524,19.22931 -1.3652,11.8193 0.1212,26.15768 11.6814,28.10166 11.9065,-2.13059 15.1892,-11.92821 18.3515,-20.57498 3.1623,-8.64674 2.3524,-24.85229 -7.0348,-26.54877 -0.7334,-0.13253 -1.4843,-0.20037 -2.2457,-0.20722 z m -62.6542,10.68305 c -9.5281,-0.0663 -21.6773,11.04083 -19.6789,26.76427 2.0302,15.97303 6.7673,17.82014 15.6088,17.83975 10.1733,-2.53445 12.6402,-12.47598 14.8233,-22.18161 2.1834,-9.70566 -0.7106,-21.98108 -10.3015,-22.4105 -0.1498,-0.007 -0.3006,-0.0109 -0.4517,-0.0119 z m 180.2882,21.23644 c -8.3934,0.0322 -18.8431,7.93456 -23.6413,12.68502 -10.6424,16.35096 -8.1257,25.79918 -1.1748,30.95469 6.9509,5.15551 23.4897,-1.94146 30.5485,-13.95108 7.0588,-12.00962 9.9113,-18.10398 1.6899,-26.68934 -2.0553,-2.14633 -4.6246,-3.01003 -7.4223,-2.99929 z m -236.1912,7.39489 c -0.7652,-0.0114 -1.5306,0.11081 -2.2884,0.38553 -6.9273,2.51155 -14.9254,9.03708 -11.7816,25.46199 3.1435,16.42491 14.583,17.48578 21.9181,15.40319 6.3309,-3.00598 7.7496,-16.50381 6.0687,-24.8145 -1.497,-7.40172 -7.6869,-16.34313 -13.9168,-16.43621 z m 136.0376,15.94064 c -0.3518,-2.1e-4 -0.7215,0.0241 -1.1088,0.0744 -6.2003,0.80552 -5.1523,1.79445 -7.008,6.39185 -1.8556,4.5974 -2.9255,13.77254 3.6893,15.3443 0,0 9.0599,-5.34408 10.0862,-11.00243 0.9618,-5.30471 -0.3786,-10.80506 -5.6587,-10.80813 z m -65.7664,21.45089 c -2.5146,0.007 -4.8575,0.77142 -6.5206,1.73167 -4.6281,2.672 -10.173,9.11653 -7.706,21.72994 2.467,12.6134 8.754,11.45421 19.1672,9.1948 7.7499,-1.86645 11.4834,-9.80395 7.2699,-22.2798 -2.699,-7.99235 -7.7282,-10.38884 -12.2105,-10.37661 z m 197.6115,4.8333 c -6.6209,-0.0418 -15.7128,3.9075 -22.2816,7.98814 -9.1395,5.6774 -11.9857,21.10105 -5.0216,28.15434 8.8416,10.60939 23.0537,0.51088 31.5304,-8.61909 8.4768,-9.13001 7.5692,-20.18321 2.1114,-25.40932 -1.5348,-1.46984 -3.7475,-2.09772 -6.3386,-2.11407 z m -306.4748,2.71454 c -2.4694,0.042 -4.9041,0.95512 -7.1194,2.83033 -6.7511,5.7149 -3.7767,19.31284 -0.109,28.84165 3.6674,9.52881 14.0152,13.71372 21.9837,9.96114 7.9682,-3.75259 4.8461,-22.12248 -0.7427,-31.71021 -3.7547,-6.44176 -8.9559,-10.00882 -14.0126,-9.92291 z m 150.5283,6.22187 c -7.2514,-0.0226 -9.1472,4.01735 -10.7542,13.49581 -1.6592,9.78421 2.5765,13.79183 10.6322,14.93139 6.0471,-1.35567 8.1209,-8.27132 9.016,-13.43848 0.8948,-5.16718 -0.3273,-14.68136 -8.1751,-14.97375 -0.2453,-0.009 -0.485,-0.0143 -0.7189,-0.015 z m 54.3595,15.8569 c -6.9237,0.0116 -9.2692,5.18276 -13.134,10.82207 0,0 -4.3452,9.80368 0.6686,15.01976 5.0139,5.21605 10.1815,-3.40845 13.1506,-6.66988 2.9689,-3.26142 13.0985,-16.64497 3.1084,-18.74253 -1.405,-0.29496 -2.6607,-0.43133 -3.7936,-0.42942 z m -111.9021,7.92252 c -2.9528,-0.0186 -4.994,1.50114 -5.4965,8.08168 -0.6985,9.15553 5.6322,12.04372 11.0464,12.06333 0,0 3.733,-2.35778 4.9337,-6.79802 1.2006,-4.44024 -1.6693,-11.87958 -6.6363,-12.82973 -1.397,-0.26722 -2.6919,-0.50998 -3.8473,-0.51726 z m 46.5434,11.34658 c -2.8848,-0.017 -4.1537,1.98819 -5.9547,5.51699 -2.0958,4.10622 -2.2051,9.48981 5.1739,11.67061 0,0 4.4751,-2.04341 5.7412,-4.91186 1.2663,-2.86845 0.6331,-11.29707 -3.4055,-12.10262 -0.568,-0.11327 -1.0829,-0.17031 -1.5549,-0.17312 z m -149.411,12.0432 c -1.8609,0.009 -3.6791,0.79621 -5.3253,2.76262 -6.585,7.86566 -3.8116,18.59074 2.4974,26.46918 0,0 11.7015,11.493425 18.8619,6.286955 7.1607,-5.206425 2.1616,-21.100945 -1.637,-25.364335 -2.849,-3.19757 -8.8146,-10.18075 -14.397,-10.15442 z m 96.8814,7.58558 c -0.6959,-0.007 -1.396,0.0812 -2.0863,0.27027 -5.5231,1.51283 -7.0291,8.17314 -6.0031,13.24208 1.0261,5.06894 5.348,11.43442 12.6394,10.47173 0,0 4.4538,-4.75446 4.7377,-12.49537 0.2484,-6.77334 -4.4173,-11.44117 -9.2877,-11.48871 z m 120.7765,0.97049 c -3.4447,0.05 -6.7863,2.94259 -9.5153,7.39386 -3.4927,5.69762 -4.1698,17.4071 2.5541,19.686141 3.1001,1.453885 10.4134,-2.711291 14.6703,-11.198811 4.2572,-8.48749 -0.3712,-13.12423 -4.8027,-15.22645 -0.9694,-0.45988 -1.9418,-0.66874 -2.9064,-0.65474 z m -80.2048,0.55708 c -4.5847,-0.0197 -7.3572,4.49892 -7.2922,11.67008 0.066,7.17116 3.297,10.9241 9.4316,11.57243 4.6279,-0.96269 5.5883,-7.99637 6.4397,-12.16155 0.8515,-4.16518 -3.9946,-11.06138 -8.5791,-11.08096 z m 116.6688,8.40258 c -3.353,-0.074 -7.5565,1.61362 -14.0819,5.33818 -9.9433,5.67545 -7.4004,17.682324 -1.5713,22.397595 6.7892,1.394963 12.9018,-2.986193 20.3025,-9.469702 7.4007,-6.483543 4.4968,-13.930023 0.1307,-16.739553 -1.5007,-0.96576 -3.0237,-1.48778 -4.78,-1.52652 z m 71.9109,13.46997 c -4.7527,-0.031 -9.6967,1.29199 -13.6509,2.701662 -9.0379,3.222122 -16.4823,13.301318 -14.6704,23.851764 4.1476,11.061276 18.9489,8.90016 26.6335,7.033683 7.6846,-1.86645 21.8302,-11.23823 16.5576,-24.057954 -2.966,-7.211113 -8.7595,-9.489335 -14.8698,-9.529155 z m -310.36,21.939754 c -3.9129,-0.0013 -7.3318,2.945606 -9.6205,5.253434 -0.3492,9.548442 -0.9385,10.550472 5.7634,17.23046 6.7022,6.679989 12.7056,6.621436 17.6176,1.277435 4.912,-5.343975 1.987,-8.841581 -5.239,-18.468631 -2.9356,-3.910991 -5.8442,-5.291799 -8.5215,-5.292698 z m 201.3019,31.531401 c -1.6962,6.08e-4 -3.3721,0.09435 -4.9649,0.278553 -10.1952,1.178825 -15.1075,8.310589 -14.0814,14.381533 2.2487,9.902084 13.0559,8.683995 22.7917,9.155509 9.737,0.47154 16.5476,-8.094609 15.8055,-15.147898 -0.6263,-5.951194 -10.3908,-8.671005 -19.5509,-8.667697 z m -179.8333,6.590294 c -1.8585,0.01042 -3.5409,0.760333 -4.6731,2.810695 -3.0194,5.467615 -1.0483,6.267662 3.7325,10.668582 4.781,4.400947 12.0073,3.300624 13.4699,-0.844894 1.4629,-4.145518 0.218,-6.719305 -3.515,-9.116245 -2.3331,-1.498097 -5.9171,-3.535494 -9.0143,-3.518138 z m 259.8155,11.535728 c -7.9928,-0.01641 -15.4789,5.170196 -17.9403,10.357008 -1.048,7.544435 -0.6115,16.4448331 8.5574,22.7908378 9.1691,6.3459782 27.0486,1.7289198 30.4287,-5.6363393 3.3803,-7.3652855 0.6805,-15.3074155 -10.2566,-23.7752995 -3.4182,-2.646203 -7.1559,-3.728746 -10.7892,-3.736207 z m -55.704,34.4676669 c -3.7373,-0.00299 -6.8101,1.1433704 -8.2744,3.1326401 -1.4628,5.540454 3.7981,12.102994 11.439,20.49227 7.6409,8.389276 18.2724,8.015764 23.1408,2.534232 4.8683,-5.481505 -0.6549,-10.039879 -9.6274,-18.881037 -5.1872,-5.1113 -11.5565,-7.2739776 -16.678,-7.2781051 z m -39.7061,1.0903743 c -3.04,-0.027437 -5.7443,0.7843573 -7.2961,2.2195102 -2.1394,4.2437576 0.567,9.4893606 4.6276,16.5819396 4.0605,7.09258 14.4743,13.969021 19.3868,10.915597 4.9128,-3.053424 2.2259,-14.530916 -3.1446,-22.645131 -3.2726,-4.9445864 -8.8313,-7.0291062 -13.5737,-7.0719158 z" fill="#36c993" transform="translate(111.4223,105.12939) translate(-6320.4006,174.12102)"/>
    <path d="m 30107.518,4044.8242 c -18.008,-0.057 -30.157,26.4356 -36.401,49.8692 0,0 48.119,23.7796 54.41,5.3847 6.293,-18.3947 5.71,-50.9035 -14.332,-54.8808 -1.251,-0.2487 -2.477,-0.3693 -3.677,-0.3731 z m -224.377,1.7227 c -18.008,-0.057 -30.157,26.4355 -36.401,49.8691 0,0 48.119,23.7815 54.41,5.3867 6.294,-18.3948 5.709,-50.9035 -14.332,-54.8808 -1.251,-0.2487 -2.477,-0.3712 -3.677,-0.375 z m -228.284,32.2011 c -19.505,-0.3333 -33.478,30.9233 -36.902,46.6153 -3.478,15.941 -4.937,31.7356 14.233,38.0683 16.417,4.1491 38.259,-18.78 39.957,-31.1543 1.699,-12.3742 3.64,-52.1208 -16.354,-53.4902 -0.31,-0.023 -0.624,-0.034 -0.934,-0.039 z m 651.623,94.461 c -16.428,0.09 -32.664,14.493 -45.748,28.2656 0,0 33.942,54.6298 48.274,41.4942 14.332,-13.1354 31.549,-51.2201 15.242,-63.5313 -5.854,-4.4199 -11.825,-6.2609 -17.768,-6.2285 z m -848.359,22.3183 c -3.631,0.036 -7.417,1.1337 -10.818,2.584 -9.895,4.2191 -14.149,22.8758 -12.852,35.9688 1.297,13.0929 -2.575,10.884 21.578,25.6582 22.515,-1.4429 20.605,-28.7022 17.459,-47.8887 -2.064,-12.5912 -8.435,-16.3907 -15.367,-16.3223 z m 501.342,29.2286 c -1.837,-0.012 -3.733,0.3126 -5.5,0.789 -6.653,1.7934 -10.945,13.1322 -11.236,21.459 -0.29,8.3268 -2.565,6.605 11.541,17.959 14.444,1.0375 15.548,-16.2296 15.181,-28.5391 -0.27,-9.0398 -4.907,-11.6363 -9.986,-11.6679 z m -239.395,104.4433 c -3.357,0.03 -6.857,0.9338 -10.002,2.1289 -9.148,3.4766 -13.082,18.8498 -11.882,29.6387 1.199,10.7888 -2.382,8.9683 19.951,21.1426 20.817,-1.189 19.05,-23.651 16.142,-39.461 -1.908,-10.3753 -7.799,-13.5056 -14.209,-13.4492 z m 733.319,14.7344 c -5.759,0.05 -12.634,1.8029 -19.852,3.7695 -12.157,3.3122 -37.585,22.4844 -38.365,46.7071 0,25.6278 50.855,8.3642 65.502,-3.6133 14.647,-11.9776 9.221,-39.0772 2.715,-44.0957 -2.643,-2.0388 -6.06,-2.8021 -10,-2.7676 z m -1135.604,21.8633 c -4.68,0.052 -9.441,2.4077 -13.42,5.2226 -8.781,6.2124 -9.002,25.3471 -4.97,37.8711 4.031,12.5242 -0.22,11.182 26.507,20.5254 21.704,-6.1626 14.083,-32.4037 6.959,-50.4941 -3.896,-9.8933 -9.427,-13.1874 -15.076,-13.125 z m 556.379,2.873 c -2.256,-0.014 -4.582,0.3858 -6.752,0.9707 -8.169,2.202 -13.439,16.1236 -13.795,26.3477 -0.355,10.2239 -3.15,8.1099 14.17,22.0508 17.736,1.2739 19.092,-19.927 18.641,-35.0411 -0.332,-11.0995 -6.027,-14.2893 -12.264,-14.3281 z m 198.389,52.2735 c -8.141,-0.096 -17.716,10.0621 -21.86,18.8886 -4.348,9.26 -6.085,6.2178 4.356,25.8477 15.805,8.1472 25.392,-10.8115 30.922,-24.8848 5.53,-14.0736 -3.853,-18.5735 -12.229,-19.7617 -0.392,-0.056 -0.789,-0.085 -1.189,-0.09 z m -410.899,16.3476 c -3.808,3e-4 -7.675,1.9743 -10.877,4.3145 -6.83,4.9923 -6.742,19.8774 -3.396,29.5449 3.345,9.6676 -0.02,8.7014 21.152,15.4805 17.007,-5.1897 10.648,-25.4599 4.791,-39.4004 -3.111,-7.4059 -7.353,-9.9398 -11.67,-9.9395 z m -24.214,121.6641 c -1.876,0.024 -3.783,0.2985 -5.588,0.7051 -8.254,1.8582 -14.105,15.5477 -14.887,25.748 -0.783,10.2 -3.486,7.9715 13.236,22.625 17.666,2.0149 19.909,-19.1108 20.09,-34.2305 0.142,-11.8124 -6.155,-14.9333 -12.851,-14.8476 z m -353.842,2.5 c -5.433,0.053 -10.582,3.6687 -14.551,7.6523 -7.258,7.2846 -4.349,24.3795 1.488,34.7383 5.837,10.3589 1.615,10.0095 28.309,13.0156 19.435,-9.8124 7.983,-31.6811 -1.674,-46.3847 -4.376,-6.6627 -9.071,-9.0652 -13.572,-9.0215 z m 505.963,8.8984 c -2.862,0.028 -5.845,0.8803 -8.526,2.0078 -7.798,3.2801 -11.152,17.784 -10.129,27.9629 1.023,10.1789 -2.031,8.4613 17.006,19.9473 17.746,-1.1218 16.241,-22.3143 13.762,-37.2305 -1.627,-9.7888 -6.65,-12.7407 -12.113,-12.6875 z m 297.394,0.4141 c -8.141,-0.096 -17.714,10.0602 -21.857,18.8867 -4.348,9.26 -6.087,6.2197 4.353,25.8496 15.805,8.1472 25.392,-10.8115 30.922,-24.8848 5.53,-14.0736 -3.853,-18.5735 -12.228,-19.7617 -0.393,-0.056 -0.789,-0.085 -1.19,-0.09 z m 137.262,34.3594 c -9.716,-0.1223 -22.343,8.1145 -29.404,16.4531 -8.371,9.8817 -9.508,5.6145 -3.12,32.9023 16.734,15.0253 34.711,-4.9855 46.108,-20.3515 11.397,-15.3664 1.354,-23.8743 -8.539,-28.0235 -1.546,-0.6484 -3.246,-0.9578 -5.045,-0.9804 z m 260.65,74.8515 c -12.599,-0.1208 -42.285,11.4075 -49.627,34.5039 -6.973,24.6608 46.662,21.8876 64.016,14.3477 17.353,-7.5401 19.505,-35.0958 14.609,-41.6953 -4.895,-6.5996 -16.399,-7.0357 -28.998,-7.1563 z m -1150.295,66.9531 c -3.922,0.038 -7.638,2.6475 -10.504,5.5235 -5.239,5.259 -3.14,17.6016 1.075,25.0801 4.214,7.4785 1.166,7.2262 20.437,9.3964 14.031,-7.084 5.762,-22.8711 -1.209,-33.4863 -3.159,-4.8101 -6.549,-6.5452 -9.799,-6.5137 z m 760.868,123.1192 c -14.376,-0.026 -30.905,3.1035 -32.211,7.875 -2.091,7.6344 5.286,18.5874 33.316,29.873 26.679,-3.7618 27.54,-26.9963 18.689,-33.9668 -3.319,-2.6139 -11.169,-3.7657 -19.794,-3.7812 z m 284.892,80.3125 c -1.857,0.026 -3.725,0.1909 -5.592,0.5078 -25.115,5.0999 1.924,51.5019 16.576,63.4727 14.653,11.9701 40.133,1.2596 43.756,-6.1153 3.624,-7.3745 -1.261,-17.8008 -6.925,-29.0547 -5.223,-10.3753 -25.897,-29.1222 -47.815,-28.8105 z m -188.203,105.5625 c -3.011,-0.01 -5.941,0.6595 -8.697,2.1914 -20.021,3.0434 8.989,46.9013 20.67,54.0449 11.68,7.1433 41.768,22.89 48.121,16.9824 13.605,-12.6519 -3.496,-23.4436 -16.315,-42.3183 -3.907,-5.7538 -25.376,-30.8653 -43.779,-30.9004 z m -137.875,16.0683 c 0,0 -18.441,9.2938 -19.055,16.043 -0.615,6.7493 21.022,24.1202 32.455,27.4395 11.434,3.3193 14.507,-8.4093 8.852,-18.3672 -5.655,-9.9578 -8.36,-13.9404 -22.252,-25.1153 z" transform="translate(111.4223,105.12939) translate(-6320.4006,174.12102) matrix(0.26458333,0,0,0.26458333,-1524.344,-1328.9457)" fill="#cdb55e"/>
    <path d="m 30097.529,4077.6406 c -12.561,0 -22.742,8.0495 -22.742,17.9766 0,9.9271 10.181,17.975 22.742,17.9766 12.562,1e-4 22.746,-8.0482 22.746,-17.9766 0,-9.9284 -10.184,-17.9768 -22.746,-17.9766 z m -224.377,1.7227 c -12.562,7e-4 -22.745,8.05 -22.744,17.9785 0,9.9278 10.183,17.9759 22.744,17.9766 12.561,-7e-4 22.744,-8.0488 22.744,-17.9766 0,-9.9285 -10.182,-17.9778 -22.744,-17.9785 z m -224.205,35.0762 c -9.113,0.102 -24.123,3.6535 -31.099,14.4355 -7.441,11.5008 -0.567,16.0148 14.34,34.5566 28.491,-4.6781 42.68,-34.1911 40.333,-40.7421 -2.343,-6.5512 -13.02,-7.8626 -21.833,-8.2266 -0.553,-0.023 -1.133,-0.031 -1.741,-0.023 z m 634.617,83.539 c -6.648,0.084 -12.528,2.972 -15.425,8.2832 -4.755,8.716 3.97,33.4786 14.998,39.4942 11.028,6.0156 23.573,-2.7218 28.328,-11.4375 4.754,-8.7159 -3.722,-26.9297 -14.75,-32.9454 -4.308,-2.3499 -8.888,-3.4485 -13.151,-3.3945 z m -325.252,40.6367 c -7.674,0.035 -17.217,4.9421 -14.503,18.4004 1.604,7.9557 14.488,16.1026 23.64,2.002 5.139,-7.9182 0.227,-19.7077 -7.631,-20.3457 -0.491,-0.04 -0.994,-0.059 -1.506,-0.057 z m 466.668,126.1153 c -7.291,0.082 -14.592,2.8756 -19.593,12.2715 -3.285,22.734 42.344,17.6078 48.404,9.5918 6.06,-8.016 0.657,-14.98 -9.271,-17.8711 -4.965,-1.4455 -12.248,-4.0744 -19.54,-3.9922 z m -551.337,17.0195 c -7.678,0.035 -17.218,4.9421 -14.504,18.4004 1.604,7.9557 14.489,16.1026 23.64,2.0019 5.139,-7.9181 0.227,-19.7076 -7.631,-20.3457 -0.491,-0.04 -0.994,-0.059 -1.505,-0.057 z m -548.174,0.4043 c -8.842,0.024 -18.005,23.1518 -14.752,39.2812 -1.147,14.0187 15.182,7.98 26.23,-7.707 11.048,-15.6871 -2.09,-30.8283 -11.058,-31.5566 -0.14,-0.011 -0.28,-0.018 -0.42,-0.018 z m 735.551,56.0039 c -8.416,0.037 -18.874,5.2418 -15.899,19.5156 1.759,8.4379 15.883,17.0782 25.914,2.1231 5.633,-8.398 0.248,-20.9017 -8.365,-21.5781 -0.538,-0.042 -1.089,-0.063 -1.65,-0.061 z m -393.973,22.248 c -7.677,0.035 -17.218,4.9421 -14.504,18.4004 1.604,7.9558 14.489,16.1027 23.641,2.002 5.138,-7.9182 0.226,-19.7076 -7.631,-20.3457 -0.491,-0.04 -0.994,-0.059 -1.506,-0.057 z m -163.643,102.0352 c -6.147,0.09 -12.83,1.0121 -20.064,2.9453 -57.872,15.4662 -37.572,85.875 -37.572,85.875 0,0 28.569,-17.5487 43.849,7.4317 15.281,24.9803 -17.601,33.5468 -17.601,33.5468 0,0 14.53,20.5428 28.148,48.3536 13.618,27.8106 14.666,65.52 22.26,132.9257 7.595,67.4057 47.139,125.8548 52.377,126.3262 0,0 10.868,-44.7794 22.652,-82.0176 11.786,-37.238 49.758,-59.6289 49.758,-59.6289 0,0 -82.1,-123.9705 -96.635,-152.8418 -14.534,-28.8712 4.583,-61.6302 8.904,-83.9023 3.782,-19.4882 -13.04,-59.6413 -56.076,-59.0137 z m -210.439,10.0274 c -8.841,0.024 -18.003,23.1518 -14.75,39.2812 -1.147,14.0187 15.182,7.98 26.23,-7.707 11.048,-15.6871 -2.089,-30.8284 -11.058,-31.5567 -0.14,-0.011 -0.282,-0.018 -0.422,-0.017 z m 787.82,11.2792 c -10.178,0.045 -22.826,6.3388 -19.228,23.6036 2.127,10.2058 19.21,20.6571 31.343,2.5683 6.813,-10.1577 0.301,-25.2811 -10.117,-26.0996 -0.651,-0.051 -1.319,-0.075 -1.998,-0.072 z m -445.525,0.5059 c -7.574,0.035 -16.986,4.8756 -14.309,18.1523 1.583,7.8486 14.296,15.8854 23.324,1.9747 5.07,-7.8116 0.223,-19.4408 -7.529,-20.0704 -0.484,-0.039 -0.981,-0.059 -1.486,-0.057 z m 152.943,9.0762 c -7.677,0.035 -17.218,4.9421 -14.504,18.4004 1.605,7.9557 14.489,16.1026 23.641,2.0019 5.138,-7.9181 0.227,-19.7076 -7.631,-20.3457 -0.491,-0.04 -0.994,-0.059 -1.506,-0.057 z m 414.717,29.5488 c -10.179,0.045 -22.828,6.3387 -19.231,23.6035 2.128,10.2059 19.212,20.6572 31.346,2.5684 6.813,-10.1577 0.299,-25.2811 -10.119,-26.0996 -0.651,-0.051 -1.318,-0.075 -1.996,-0.072 z m 249.146,65.2852 c -33.769,6.2767 1.835,45.8433 16.799,48.1054 14.964,2.2622 21.313,-5.5114 19.156,-15.7558 -2.158,-10.2447 -3.497,-30.8851 -35.955,-32.3496 z m -757.334,154.2675 c -51.429,-0.5943 -99.534,61.6478 -109.869,125.3555 -10.844,66.8408 37.339,85.8433 113.647,88.3379 76.309,2.4946 167.863,-34.1914 167.863,-34.1914 0,0 -13.615,-4.6226 -25.762,-3.2285 -12.147,1.394 -107.265,-5.4 -143.625,-22.9356 -36.361,-17.5357 -58.861,-51.9727 -58.699,-73.1035 0.163,-21.1308 37.477,-73.8873 64.055,-79.6836 -2.541,-0.3404 -5.08,-0.5216 -7.61,-0.5508 z m 701.256,111.127 c -16.255,-0.067 -22.616,36.958 -16.881,47.9687 6.991,13.422 17.013,13.9695 24.018,6.1895 7.005,-7.7811 22.893,-21.026 4.947,-48.1113 -4.487,-4.2376 -8.523,-6.0322 -12.084,-6.0469 z m -190.773,105.9824 c -16.256,-0.056 -22.614,30.6558 -16.879,39.7891 6.991,11.1333 17.012,11.5882 24.018,5.1347 7.004,-6.4543 22.89,-17.4413 4.945,-39.9082 -4.487,-3.515 -8.523,-5.0034 -12.084,-5.0156 z" transform="translate(111.4223,105.12939) translate(-6320.4006,174.12102) matrix(0.26458333,0,0,0.26458333,-1524.344,-1328.9457)" fill="#046be2"/>
    <path d="m 6282.197,-161.51573 c -0.2751,0.001 -0.5701,0.0584 -0.8803,0.17978 -1.8041,0.70615 -3.1878,3.03052 -1.211,5.46595 1.0195,1.01753 3.6082,-0.70041 3.9665,-2.70207 0.2968,-1.65769 -0.5506,-2.94967 -1.8752,-2.94366 z m -6.6873,62.270136 c -3.4684,0.06239 -8.7684,3.859733 -11.1271,7.754407 -2.9029,4.793476 -4.7582,9.859264 -2.0825,13.391882 0,0 7.7748,-5.815535 11.344,-9.336708 3.5689,-3.521146 6.8314,-8.928423 3.9157,-11.211577 -0.5465,-0.428091 -1.2495,-0.612403 -2.0501,-0.598004 z m 68.7225,47.304725 c -10.1909,1.024434 -22.6896,7.551065 -26.4304,20.437587 -3.7411,12.88652 5.5874,18.728757 10.7691,23.121013 15.5446,9.7326 38.5798,8.20167423 43.0733,7.3696478 4.4934,-0.8320001 15.7167,-8.6103267 23.0053,-15.1503188 7.2883,-6.540018 3.3751,-12.28667 -6.7944,-19.252354 -18.4102,-13.552727 -24.5433,-17.657468 -43.6229,-16.525575 z" fill="#efe8b3" transform="translate(111.4223,105.12939) translate(-6320.4006,174.12102)"/>
    <path d="m 6450.872,-279.24933 c -2.9548,0.0465 -6.3185,1.593 -10.8961,4.6519 -9.9927,6.6789 -17.5246,21.47977 -18.3705,36.09856 -0.5564,9.62239 -0.3606,10.34005 4.0153,14.71641 4.2804,4.28006 4.4683,4.91287 2.7054,9.1059 -1.8381,4.92832 -1.6423,4.77473 -5.0959,1.09813 -1.7605,-1.87404 -2.4633,-5.29156 -3.2888,-7.36222 -1.4893,-3.73202 -2.9151,-3.53459 -3.0101,1.11041 -0.054,2.65014 1.5441,7.10165 3.679,10.24744 2.6334,3.88051 3.4933,6.67954 2.8453,9.26042 -1.343,5.3512 -3.3385,5.91002 -5.3491,1.49863 -0.9646,-2.11776 -2.3235,-3.85094 -3.0188,-3.85094 -0.6956,0 -1.2642,-2.00961 -1.2642,-4.46587 0,-2.87359 -1.0388,-5.02089 -2.9134,-6.02446 -4.2685,-2.28542 -4.2976,-2.24142 -4.0722,6.19136 0.1937,7.24487 -0.072,7.84675 -4.0663,9.20721 -6.0738,2.0679 -8.0241,-0.28152 -5.9217,-7.13084 1.8421,-6.00271 0.2313,-6.96757 -3.2753,-1.96062 -3.4409,4.91257 -3.0646,14.25184 0.6681,16.58245 1.6568,1.03481 3.0353,2.90417 3.0605,4.1548 0.041,1.95871 2.2341,2.55516 3.8152,0.48321 1.0092,-1.32136 2.0572,-4.13176 4.6906,-5.49222 2.6336,-1.36107 5.2607,-3.96235 5.838,-5.78001 1.0144,-3.19667 1.1242,-3.16135 3.3377,1.1126 1.2589,2.43073 2.9345,4.83968 3.7238,5.35265 0.8982,0.5837 0.7935,4.02339 -0.281,9.20099 -1.3444,6.47362 -2.5347,8.63923 -5.4906,9.98596 -5.0785,2.31434 -6.9266,2.15101 -6.6448,-0.62788 0.4995,-4.92956 -1.8084,-3.78688 -3.3443,-2.17805 -1.6902,1.7703 -0.052,8.05614 2.1399,10.24887 3.0451,3.0457 6.5733,1.62182 9.8872,-2.46756 3.7463,-4.62287 6.7993,-6.14867 7.9629,-11.29749 1.772,-7.84064 2.0815,-8.24669 7.3684,-9.09143 5.0644,-0.80968 13.6644,-7.44524 11.9155,-9.19427 -0.4029,-0.40338 -3.0559,-0.067 -5.8952,0.74777 -7.9729,2.28647 -8.8235,1.993 -7.5901,-2.62052 0.7853,-2.93589 2.3511,-4.35853 5.5179,-5.01004 8.9109,-1.83327 17.2244,-9.16665 17.2244,-15.19235 0,-3.93859 -0.8903,-3.60656 -8.6415,3.2153 -8.6543,7.61849 -11.2321,7.89847 -9.112,0.99065 1.1456,-3.73205 2.8776,-5.5159 6.6997,-6.89726 13.2469,-4.78965 20.2613,-17.02999 22.4417,-39.15678 1.016,-10.31359 0.9457,-10.61434 -3.5533,-15.11278 -2.9406,-2.94106 -5.4867,-4.39455 -8.4413,-4.34803 z m -3.1395,4.27672 c 1.7716,0 4.7302,1.60623 6.5743,3.56981 3.2113,3.41781 3.2756,4.0078 1.5187,13.93198 -1.6853,9.52291 -1.9343,9.98604 -3.0678,5.72162 -1.7246,-6.48759 -6.2632,-10.25467 -10.941,-9.08111 -5.7928,1.45378 -11.7658,10.40611 -12.577,18.85156 -0.608,6.32854 -0.2453,7.57899 2.8215,9.72756 4.6657,3.26808 5.9113,3.13796 12.8058,-1.33892 l 5.8587,-3.80339 -6.595,6.0632 c -3.6272,3.33459 -7.6946,6.03988 -9.0376,6.01667 -8.0198,-0.15015 -10.6284,-7.8941 -6.9366,-20.59408 4.8442,-16.66327 13.1974,-29.0649 19.576,-29.0649 z m -39.9339,9.29918 c 0,1.95344 1.773,1.46952 4.8607,-1.32551 2.372,-2.14604 3.339,-2.25565 5.8828,-0.66715 2.7503,1.71715 4.1499,1.53665 3.7052,-1.58676 -2.3879,-8.34152 -14.0187,-0.9376 -14.4487,3.57942 z m -18.4205,-5.76451 c -1.8148,0.006 -3.973,0.14685 -6.037,0.42014 -13.3456,1.77014 -22.2507,13.87898 -22.2295,30.26325 0.01,8.25349 3.9314,18.45479 7.1265,18.52239 3.9685,0.0788 4.9507,2.56427 2.9213,7.39127 -2.051,5.48727 -1.8523,5.20912 -5.3102,0.81341 -1.7804,-2.26412 -1.5459,-4.74263 -1.6049,-6.07962 -0.079,-1.8166 -2.144,-2.13741 -3.0274,0.11149 -1.47,3.74261 0.6461,10.15087 4.5043,13.64258 2.7582,2.49664 4.0828,8.19692 1.9047,8.19692 -0.5562,0 -2.2508,-1.12122 -3.7658,-2.49287 -3.8391,-3.47377 -3.6949,0.17973 0.2635,6.67194 1.6539,2.71203 3.0073,6.83551 3.0073,9.16276 0,2.32725 0.4461,4.67662 0.9911,5.2219 v 0 c 1.6251,1.62486 5.0303,-2.11834 5.0662,-5.56866 0.021,-2.1226 1.673,-3.96634 4.8948,-5.46322 2.9967,-1.39298 5.0477,-3.56005 5.3443,-5.64825 0.5237,-3.68726 -1.3099,-4.26101 -5.8523,-1.82986 -2.3786,1.27344 -2.9027,1.06532 -2.8585,-1.13017 0.034,-1.65102 2.5024,-3.85095 6.401,-5.70092 6.1339,-2.91118 11.6256,-9.99334 8.5649,-11.04482 -0.8025,-0.27559 -3.7434,0.91056 -6.535,2.63552 -6.791,4.1979 -8.4595,4.0146 -7.1757,-0.78497 0.7569,-2.83136 2.7111,-4.48741 7.0238,-5.95365 11.3314,-3.85094 17.2718,-14.91502 17.2718,-32.17064 0,-9.83906 -2.7006,-17.1813 -6.9144,-18.79835 -0.6892,-0.26451 -2.1603,-0.3928 -3.9748,-0.38653 z m -3.0861,2.62102 c 4.931,0.13592 7.9565,5.73455 7.9176,16.00832 -0.039,10.24708 -3.7912,19.56676 -9.7713,24.27089 -5.3985,4.24606 -9.0519,4.13208 -13.6107,-0.42738 -3.0517,-3.05075 -3.6967,-5.18027 -3.6967,-12.19769 0,-10.13303 2.9995,-17.10221 10.0102,-23.25801 3.4623,-3.03974 6.5678,-4.4673 9.1509,-4.39613 z m -61.6998,5.89423 c -3.7105,0 -13.6326,6.45589 -17.5223,11.40034 -9.9092,12.5971 -6.3037,36.85511 5.8383,39.28287 3.4978,0.7007 4.518,1.71148 4.518,4.48138 0,4.26212 -3.7076,4.77819 -7.789,1.08416 -2.0392,-1.84552 -2.7543,-1.97316 -2.7543,-0.49403 0,3.00728 4.622,7.50602 7.7115,7.50602 2.4056,0 5.8441,4.02682 5.8441,6.84403 0,0.55962 -2.3722,0.73953 -5.2715,0.401 -3.201,-0.37338 -5.2719,0.0346 -5.2719,1.04023 0,3.06494 3.5812,5.27101 8.5564,5.27101 h 4.9419 l -0.9136,6.66369 c -2.0254,14.77631 2.3214,21.742 13.9697,22.3857 4.78,0.26313 5.9158,0.9316 6.3106,3.71036 0.3387,2.38469 -0.285,3.38947 -2.1032,3.38947 -2.0135,0 -1.6415,0.87307 1.6846,3.95531 4.0939,3.79434 4.1527,4.04035 1.4383,6.02546 -1.5563,1.13766 -3.3785,2.06759 -4.0484,2.06759 -0.6702,0 -1.2184,0.76716 -1.2184,1.70376 0,1.10619 1.8502,1.40319 5.2718,0.84905 5.0017,-0.81241 5.2716,-0.63408 5.2716,3.47937 0,4.85998 2.4331,7.20008 4.9093,4.72477 1.1745,-1.17438 0.8523,-3.93329 -1.1451,-9.81077 -2.6075,-7.67062 -2.626,-8.48739 -0.2937,-13.22192 l 2.4863,-5.04518 0.036,4.79764 c 0.019,2.63792 0.8157,6.70443 1.7713,9.03718 0.9557,2.33167 1.8622,6.41004 2.0143,9.06249 0.1524,2.65247 1.1483,5.87242 2.213,7.15409 3.0001,3.61527 9.9393,2.89973 13.2993,-1.37253 l 2.9141,-3.70363 1.0888,22.86992 c 0.5987,12.578741 1.7555,24.116902 2.5709,25.640796 0.9806,1.832028 0.9665,3.391985 -0.042,4.607984 -1.8772,2.261367 0.3257,6.29113 2.6535,4.851902 2.0601,-1.27299 2.2344,-8.387582 0.2045,-8.387582 -0.9202,0 -0.8651,-1.551464 0.1458,-4.142899 1.0486,-2.687743 1.2581,-10.62985 0.598,-22.630161 1.534,-6.43715 -6.1193,-23.21769 3.1067,-14.66577 6.6302,4.4967 2.8747,10.82201 1.6243,17.82164 -2.9737,16.649123 -3.1118,22.465829 -0.6919,29.157406 v 0.0066 c 0.9951,2.751297 2.6093,5.001763 3.587,5.001763 2.1608,0 8.8296,-8.51453 10.292,-13.139261 0.5821,-1.842135 2.8326,-4.214839 5.0006,-5.272008 4.9361,-2.407489 6.191,-5.688039 2.1762,-5.688039 -2.9075,0 -2.9215,-0.18235 -0.5019,-6.433181 1.3698,-3.53819 4.1767,-8.10583 6.2383,-10.15029 3.3417,-3.31348 3.455,-3.77206 1.0436,-4.23643 -4.2715,-0.82299 -2.3972,-5.52778 2.2333,-5.60586 4.604,-0.0794 8.7903,-3.08062 8.7903,-6.30351 0,-1.5372 -0.8237,-1.8981 -2.6361,-1.15496 -4.527,1.85843 -7.1461,1.58861 -7.3572,-0.75912 -0.1114,-1.24219 -0.2818,-2.84982 -0.3768,-3.5729 -0.096,-0.72311 -1.1525,-0.50157 -2.3487,0.49143 -1.7476,1.4504 -2.5591,1.19036 -4.1278,-1.32188 -4.1582,-6.658 -5.6393,-2.76381 -1.9256,5.06119 1.7883,3.76877 1.9508,5.83644 0.7149,9.08783 -1.546,4.06548 -1.7,4.11742 -4.5429,1.54561 -2.7387,-2.47867 -3.0104,-2.48772 -3.9182,-0.12245 -0.59,1.53763 0.214,3.84747 2.0365,5.85288 1.6563,1.82208 2.6611,4.32914 2.2336,5.57173 -3.5036,10.179501 -3.3864,10.044481 -5.9092,6.777881 -2.1701,-2.809371 -2.2667,-2.538171 -1.4367,4.03852 0.8517,6.748591 -2.1116,20.070256 -3.7703,16.948305 -0.4112,-0.772081 -0.1088,-10.890855 0.6723,-22.483366 1.138,-16.88732 1.9838,-21.79383 4.2534,-24.67861 2.7832,-3.53817 3.9212,-10.71671 1.7034,-10.73991 -0.6212,-0.008 -2.8908,2.12915 -5.0437,4.74805 -4.4847,5.45634 -7.3824,4.74461 -7.3824,-1.81076 0,-2.43662 -0.6779,-4.4302 -1.5063,-4.4302 -0.8287,0 -1.5066,0.81306 -1.5066,1.8071 0,3.19606 -2.7278,-0.83481 -3.2612,-4.8188 -0.6043,-4.51769 -3.3121,-4.45278 -4.0182,0.0904 -0.5017,3.22752 -0.503,3.2276 -2.9441,-0.25736 -2.4302,-3.4689 -2.45,-3.44882 -4.0272,3.98529 -1.0427,4.91445 -2.3556,7.47344 -3.8343,7.47344 -3.1737,0 -3.7793,-7.94199 -0.8522,-11.17605 3.1128,-3.43977 1.1371,-5.35448 -2.308,-2.23657 -2.4881,2.25123 -2.7167,2.07978 -3.4901,-2.63343 -0.4554,-2.77199 -1.0065,-7.02283 -1.2253,-9.44388 -0.4167,-4.60991 -4.1635,-7.45926 -4.1635,-3.16568 0,1.36107 -0.7072,2.03747 -1.5721,1.50275 -0.8644,-0.5343 -2.5594,-0.1529 -3.7656,0.84852 -3.6714,3.04633 -2.7019,-2.18496 1.5719,-8.48268 4.527,-6.67088 4.8276,-13.71052 0.9136,-21.3801 -5.5142,-10.80416 -12.981,-14.16005 -20.8523,-9.37358 -4.5972,2.79482 -4.7842,2.79837 -5.6365,0.11419 -0.591,-1.86306 0.6237,-4.28267 3.6862,-7.34528 5.3216,-5.32204 6.3797,-10.39413 1.6391,-7.85738 -1.6108,0.86225 -3.3446,2.24173 -3.8539,3.0649 -1.4534,2.35239 -3.3412,1.76139 -4.1405,-1.2955 -0.4918,-1.88188 0.8705,-4.07133 4.173,-6.70605 6.2595,-4.99515 12.7749,-17.99947 12.7749,-25.49819 0,-10.32417 -8.265,-22.23741 -15.427,-22.23741 z m 26.2186,0.0873 c -1.597,-0.0936 -3.2178,0.47199 -4.4659,1.72029 -2.8837,2.88266 -2.1037,4.34864 1.7936,3.37085 2.0625,-0.51845 4.0659,-0.15261 4.6887,0.85473 1.1274,1.21367 1.9471,0.87805 2.6615,0.18606 1.094,-1.09458 0.9855,-2.28211 -0.3546,-3.89745 -1.1528,-1.38906 -2.726,-2.14193 -4.3233,-2.23551 z m 31.3603,1.82676 c -1.5076,-0.0196 -3.0607,0.32925 -4.4984,1.09863 -7.4732,4.00002 -11.1961,21.63056 -5.9116,27.99882 2.8898,3.48157 9.8507,2.58561 13.2233,-1.7012 3.9905,-5.07349 6.6382,-17.53957 4.7694,-22.45444 -1.1671,-3.07017 -4.2653,-4.89866 -7.5827,-4.94181 z m 94.66,1.2578 c -0.6625,-0.0227 -1.3862,0.0146 -2.1752,0.10748 -5.5644,0.65656 -6.628,4.2509 -1.2578,4.2509 4.0071,0 4.0746,0.15269 3.1364,6.99905 -0.6011,4.38229 -0.321,7.76674 0.7482,9.05579 3.0888,3.72086 5.8264,-0.63741 5.8264,-9.27696 0,-7.85524 -1.6401,-10.97653 -6.278,-11.13626 z m -34.48,1.85156 c 1.9106,-0.0164 3.0544,2.83091 3.0798,8.0672 0.028,5.67536 -1.7182,7.30083 -4.0307,3.75377 -1.3925,-2.13611 -2.1534,-2.2366 -4.8247,-0.64026 -1.7444,1.03378 -3.1713,1.5168 -3.1713,1.05473 0,-1.90151 4.4913,-9.33661 6.7935,-11.24635 0.7942,-0.65947 1.5163,-0.98356 2.1534,-0.98909 z m -121.0365,0.0992 c 1.0009,0.009 2.0153,0.23 3.0292,0.69193 4.1968,1.9127 8.1621,9.90672 8.111,16.35353 -0.041,5.24518 -4.7167,15.71733 -8.8712,19.87219 -5.4567,5.4574 -12.3248,3.9174 -15.1008,-3.38431 -5.2676,-13.85342 3.1562,-33.61698 12.8318,-33.53334 z m 60.2959,1.09812 c 0.291,0 0.6003,0.0267 0.9318,0.0739 2.7472,0.39111 3.3541,1.344 3.0996,4.86741 -0.4003,5.53953 -1.6925,6.59852 -6.7236,5.51852 -3.9394,-0.84704 -3.9814,-0.97637 -1.91,-5.86992 1.4388,-3.39934 2.5659,-4.59642 4.6022,-4.58991 z m -59.5265,5.87717 c -8.6453,0.17253 -15.4625,16.62628 -10.6299,25.6563 3.8298,7.15555 15.4596,0.28046 17.4471,-10.31357 1.1645,-6.20649 -2.9297,-15.42293 -6.8172,-15.34273 z m -1.664,2.96415 c 2.0857,0 4.5365,5.25044 4.5365,9.71931 0,3.40683 -0.4733,3.77492 -3.7846,2.94349 -2.2791,-0.57147 -4.7762,-0.13409 -6.2751,1.10069 -2.2473,1.85126 -2.3818,1.61211 -1.3845,-2.46753 1.3186,-5.39194 4.9291,-11.29596 6.9077,-11.29596 z m 185.4562,7.37476 c -7.1765,0.26458 -15.9374,3.74975 -22.4006,9.68414 -10.8207,9.93537 -14.9921,22.33444 -10.6897,31.77688 1.5076,3.3101 1.2673,4.16669 -1.8831,6.72415 -3.1617,2.5663 -3.7721,2.64475 -4.9125,0.62373 -0.716,-1.27008 -0.9985,-5.95723 -0.6289,-10.4185 0.7977,-9.61562 -0.9716,-10.58664 -3.5579,-1.9549 -1.4525,4.85384 -1.4528,7.61122 0,13.04518 1.3203,4.93665 1.3817,7.35063 0.2151,8.51783 -1.9618,1.96171 -4.4431,-1.27007 -4.5151,-5.87766 -0.024,-1.65717 -0.667,-3.99449 -1.4258,-5.19298 -2.7826,-4.39917 -3.5306,5.66637 -0.9967,13.41366 1.9238,5.88084 2.0701,8.22693 0.7006,11.23186 -2.0661,4.53435 -4.3029,3.70657 -4.3029,-1.59266 0,-2.36736 -0.7101,-3.56825 -1.8828,-3.18326 -2.3413,0.77039 -3.3152,12.11681 -1.3544,15.78041 1.1068,2.06688 0.1863,4.84008 -3.8917,11.72954 -6.7628,11.42672 -9.7825,18.54742 -8.6453,20.38789 v -0.003 c 0.4895,0.79172 1.2494,1.43868 1.6891,1.43868 1.9087,0 7.0916,-7.58339 12.1116,-17.72296 4.2267,-8.53794 6.2828,-11.13285 9.3445,-11.79618 10.6355,-2.3019 18.5365,-8.51088 16.0182,-12.58528 -0.5337,-0.86331 6.2116,-3.12753 8.5378,-5.17369 6.0793,-4.61253 -2.1791,-3.84466 -8.2039,-3.88207 -7.5481,-0.0498 -7.6219,-0.0905 -6.3392,-3.43183 0.6046,-1.57589 2.8424,-1.95667 8.663,-1.47434 6.5625,0.54465 8.3172,0.13245 10.7146,-2.51664 5.7705,-4.87695 -1.3245,-3.16777 -5.6502,-3.16777 -4.685,0 -8.518,-0.54229 -8.518,-1.2056 0,-2.98487 3.7021,-4.37158 9.8258,-3.68144 11.2517,1.26733 26.6761,-8.92339 32.4988,-21.47258 3.8764,-8.35612 3.8002,-20.89952 -0.1519,-24.85223 -2.3267,-2.32664 -6.0618,-3.32706 -10.3679,-3.16828 z m -3.5676,4.7599 c 2.7506,-0.0584 5.3345,0.68871 7.5774,2.25931 7.0837,4.96239 1.9233,23.20213 -8.5082,30.07257 -8.5352,5.62152 -15.5877,8.06952 -19.2442,6.67866 -3.7928,-1.44153 -4.3135,-2.20528 -5.5991,-8.21809 l -0.966,-4.51861 2.2156,3.95687 c 2.6723,4.77404 7.9648,6.05042 14.2058,3.42667 8.6632,-3.64312 13.6532,-17.01887 8.3333,-22.33818 -3.1152,-3.116 -11.0826,-3.01657 -15.7488,0.19637 -3.5978,2.477 -3.6478,2.46838 -1.4653,-0.25061 1.2428,-1.54882 4.903,-4.73546 8.1341,-7.08279 3.7169,-2.7001 7.5287,-4.10708 11.0654,-4.18217 z m -235.3299,2.92696 c -4.6437,0 -11.9452,8.83861 -14.3256,17.34002 -2.794,9.97929 -0.7321,18.42728 6.1872,25.34523 5.343,5.34403 6.3482,5.75268 12.9842,5.27667 6.8056,-0.48782 7.1927,-0.31316 7.1927,3.24993 0,3.25921 -0.8096,3.8686 -6.0248,4.54186 -5.9045,0.76174 -5.9534,0.8173 -2.4522,2.78741 1.9653,1.10406 5.4626,1.6319 7.7716,1.1715 2.9395,-0.58899 4.4622,-0.15367 5.0774,1.44902 1.1298,2.94412 4.1857,1.12109 3.6483,-2.17506 -0.2246,-1.37735 1.265,-5.8927 3.3094,-10.03401 2.8943,-5.86481 3.8362,-10.47996 4.2566,-20.85713 0.3361,-8.29593 -0.078,-13.94219 -1.0967,-14.96137 -2.7511,-2.75193 -3.6806,-0.0926 -4.7598,13.61573 -1.053,13.37553 -3.2364,21.44932 -5.8013,21.44932 -2.6551,0 -2.5683,-3.42636 0.3019,-11.88662 6.444,-18.99494 -1.3147,-36.3125 -16.2689,-36.3125 z m -1.1322,4.00388 c 0.9086,0.0236 2.0474,0.45456 3.7963,1.1684 9.3154,3.80133 13.1476,19.6504 7.4893,30.97641 -4.4162,8.84058 -14.1894,7.27195 -18.4272,-2.95949 -2.7197,-6.56551 -1.2965,-19.63695 2.7575,-25.33026 1.9949,-2.80135 2.8699,-3.89424 4.3841,-3.85506 z m 226.9072,5.28598 c 2.0693,-0.0718 3.1231,2.28897 3.0239,7.00733 -0.1489,7.11563 -3.6311,12.87418 -3.6311,6.00583 0,-3.83974 -3.4425,-6.57743 -6.1603,-4.89788 -2.7601,1.70595 -1.2729,-2.31656 1.9754,-5.34284 1.9433,-1.8106 3.5504,-2.72936 4.7921,-2.77244 z m -224.4421,1.25421 c -4.7347,0 -8.3312,15.06736 -5.0567,21.18577 0.8848,1.65274 3.1422,2.913 5.2189,2.913 4.4921,0 6.7779,-3.91736 6.7779,-11.61478 0,-6.34905 -3.4108,-12.48399 -6.9401,-12.48399 z m 212.6547,2.13733 c 0.092,0.003 0.045,0.20285 -0.1665,0.61547 -0.5646,1.10175 -1.5734,3.81288 -2.2418,6.02546 -0.9747,3.22858 -1.2406,3.41175 -1.3441,0.92295 -0.071,-1.70574 0.9372,-4.4169 2.2413,-6.02446 0.8152,-1.00536 1.3571,-1.54485 1.5111,-1.53942 z m -128.0925,0.53226 c -0.8829,0.0831 -1.5261,4.33607 -1.4515,13.6467 0.059,7.28353 0.5675,14.4417 1.1306,15.90964 2.037,5.3081 4.6484,1.62541 4.2317,-5.96813 -0.8192,-14.92335 -2.6204,-23.70958 -3.9108,-23.58821 z m -86.0785,2.60863 c 0.7215,-0.0146 1.5573,0.44572 2.3855,1.44333 0.9903,1.19404 1.5756,3.07028 1.3002,4.16822 -0.7515,2.99818 -5.773,1.36702 -5.773,-1.87381 0,-2.37093 0.8848,-3.71366 2.0873,-3.73774 z m 257.1398,8.29871 c -0.9353,0.0198 -1.7859,0.46278 -2.3532,1.38081 -0.4765,0.77144 -0.1503,1.84504 0.7255,2.38588 0.8766,0.54149 1.1819,2.27634 0.6805,3.85662 -0.5008,1.57967 -0.4889,3.55634 0.028,4.39094 3.0106,4.87244 8.1774,-3.60804 5.3813,-8.83253 -1.1091,-2.07304 -2.9033,-3.21482 -4.4622,-3.18172 z m 8.2466,16.63877 c -4.4535,0.10623 -8.9543,1.54745 -13.7497,4.29795 -10.9566,6.28377 -16.4594,14.86019 -16.6282,25.90847 -0.1199,7.88414 -2.2082,13.38215 -5.0819,13.38215 -1.6764,0 -3.9285,-6.09497 -2.0148,-12.75262 1.4039,-4.88363 -2.8736,-2.85602 -4.3704,1.25822 -1.1279,3.09894 -1.0652,6.01311 0.2223,10.3105 1.5512,5.17694 1.4433,6.37833 -0.7969,8.85319 -3.4902,3.85644 -6.653,1.19727 -6.653,-5.59398 0,-6.7207 -2.4088,-6.51936 -3.6896,0.30801 -0.7157,3.81523 -0.2998,6.48308 1.4187,9.10643 2.323,3.54597 2.2267,3.98608 -2.168,9.96217 -2.5292,3.44019 -4.5982,7.13647 -4.5982,8.21602 v -0.004 c 0,3.59288 2.7067,2.03094 7.6951,-4.43952 2.7149,-3.52002 5.0435,-6.58239 5.1745,-6.80474 0.1312,-0.22133 2.2032,0.62103 4.6043,1.87378 5.4681,2.85543 12.5256,2.86924 16.2708,0.0341 3.265,-2.47084 2.4268,-2.97111 -7.2557,-4.32946 -7.0022,-0.98115 -9.8057,-3.1596 -7.2974,-5.6689 1.2887,-1.28736 3.1125,-1.05807 7.2776,0.91881 6.8072,3.23091 14.6492,3.02594 19.0553,-1.5481 6.2579,-5.07635 -1.1832,-2.7156 -5.474,-2.20916 -5.4647,0.64367 -9.4207,-0.38995 -11.4734,-1.48789 -3.0514,-1.6333 -3.0858,-1.87399 -0.6543,-4.56046 2.2831,-2.52238 3.0078,-2.60946 6.5439,-0.78082 13.0289,6.73762 27.9374,0.25083 36.3017,-15.79387 6.6185,-12.69596 5.7391,-23.05344 -2.2408,-26.38806 -3.5806,-1.23042 -7.1948,-2.14487 -10.4179,-2.06799 z m -85.1038,0.15971 c -0.1516,0.004 -0.3162,0.0334 -0.494,0.0894 -3.0038,0.94443 -9.2993,13.89806 -8.1764,16.8238 1.334,3.47715 3.451,1.93328 7.0678,-5.15681 3.1827,-6.23869 3.8751,-11.82047 1.6026,-11.75636 z m -106.2128,1.25521 c 3.1568,0 8.1857,8.93299 8.1857,14.56189 0.01,6.83372 -1.2946,9.35273 -6.1272,11.85149 -5.7166,2.95656 -8.3558,2.77852 -11.942,-0.80823 -5.4985,-5.49817 -3.0035,-20.74071 3.9114,-23.89155 2.0685,-0.94316 4.7561,-1.7136 5.9721,-1.7136 z m -40.3891,0.48678 c -0.448,0.022 -1.0176,0.30458 -1.7079,0.87746 -2.6321,2.18472 -6.0778,14.38532 -4.917,17.41032 1.3949,3.63533 2.0587,2.88021 5.4607,-6.21254 2.7546,-7.36227 3.1046,-12.17004 1.1642,-12.07524 z m 235.6739,2.46626 c 3.3858,0 7.2107,3.73787 7.1747,8.46227 -0.033,4.44373 -4.1495,14.39074 -7.8185,18.89445 -1.0956,1.3444 -4.3521,3.88361 -7.2368,5.64256 -17.2051,10.48782 -27.644,-6.98347 -13.1787,-22.05757 4.9435,-5.15014 17.186,-10.94171 21.0593,-10.94171 z m -306.9754,-1.04206 c -2.3937,0.009 -4.0085,1.17998 -7.4187,4.58991 -4.9376,4.93768 -5.2469,5.83578 -5.2469,15.24868 0,11.61153 3.2364,19.31545 10.7809,25.66408 4.8893,4.11363 10.5826,4.60613 18.1126,1.56424 1.8381,-0.74253 3.1695,0.20505 4.8477,3.45093 2.2387,4.32864 2.1966,4.49575 -1.2914,5.16353 -1.9825,0.37886 -6.1714,-0.19388 -9.3086,-1.27177 -7.4192,-2.55066 -8.1394,-0.38465 -1.7727,3.49713 3.1803,1.93826 7.5933,1.93045 11.984,1.93045 4.8229,0.005 7.2626,0.70707 7.8606,2.26497 v 0 c 0.4767,1.24261 1.4935,2.2593 2.2592,2.2593 2.5273,0 3.084,-4.26318 0.8036,-6.15519 -1.2325,-1.02232 -1.822,-2.9355 -1.3126,-4.25243 2.8956,-7.48964 3.7555,-18.03056 2.1703,-26.59788 -1.9872,-10.74166 -3.6544,-14.11245 -5.879,-11.88868 -1.0485,1.04897 -1.0006,4.43865 0.1498,10.62572 0.9477,5.09588 1.216,12.24603 0.6114,16.2786 -1.0237,6.82588 -1.2176,7.06609 -3.8076,4.72321 -2.335,-2.11373 -2.6278,-4.25218 -2.0299,-14.8177 0.612,-10.81768 0.2635,-13.17795 -2.8075,-19.0381 -3.9634,-7.56229 -8.7704,-11.4483 -15.9578,-12.90103 -0.9332,-0.15226 -1.9082,-0.3361 -2.7474,-0.33797 z m 110.4826,2.55542 c -2.5871,0.1493 -5.3351,2.22194 -6.9295,6.42387 -1.8944,4.99303 -1.8552,6.03962 0.3551,9.41287 1.3679,2.08756 3.4877,3.79563 4.7114,3.79563 3.9733,0 8.2497,-5.76003 8.2497,-11.1125 0,-5.72523 -3.0604,-8.71188 -6.3867,-8.51987 z m -111.8206,2.77347 c 1.5348,-0.10216 3.2708,0.15375 5.1887,0.79788 10.1174,3.39666 16.2245,19.27206 11.8526,30.81051 -1.773,4.679 -2.9176,5.66288 -7.0594,6.06476 -7.1117,0.68953 -14.4129,-7.34201 -16.9402,-18.634 -2.558,-11.43098 0.3074,-18.59648 6.9583,-19.03915 z m 152.9535,1.67587 c -2.8361,-0.01 -5.782,1.14387 -8.3516,3.71345 -7.5972,7.59693 -7.8166,23.54892 -0.3953,28.74658 10.2397,7.17201 20.6933,-2.02067 20.6933,-18.19632 0,-8.59025 -5.7075,-14.24231 -11.9464,-14.26371 z m -42.277,0.12142 c 1.6568,0 3.012,0.59859 3.012,1.33119 0,0.7307 -1.3552,1.68363 -3.012,2.11717 -1.9579,0.51192 -3.0128,0.0466 -3.0128,-1.33014 0,-1.16509 1.3557,-2.11822 3.0128,-2.11822 z m 192.4579,0.18605 c -2.9747,0.11123 -6.1447,1.00645 -8.6728,2.80654 -7.3932,5.26418 -10.5825,17.91727 -5.4091,21.45967 2.7707,1.89706 8.4963,1.26346 13.0892,-1.45005 4.3754,-2.58466 10.3669,-12.64092 10.3669,-17.39995 0,-3.60913 -4.4162,-5.6016 -9.3742,-5.41621 z m 1.8489,2.82567 c 2.5133,0 2.6639,0.53547 1.274,4.52221 -1.7846,5.11823 -3.638,6.79267 -5.0297,4.53977 -0.5207,-0.84137 -2.431,-1.5566 -4.2463,-1.57768 -3.1533,-0.0454 -3.1123,-0.21252 0.926,-3.76568 2.3244,-2.04552 5.5086,-3.71862 7.076,-3.71862 z m -153.589,1.04593 c 1.4367,-0.0755 2.9631,0.68889 4.4995,2.32957 3.4009,3.63067 3.2811,8.2622 -0.4133,15.96957 -4.9845,10.39976 -13.9935,0.55081 -10.1499,-11.09494 1.5245,-4.61991 3.6692,-7.07839 6.0637,-7.2042 z m -146.9999,0.7493 c -2.6461,-0.22199 -4.9405,2.14077 -5.7467,7.18354 -1.21,7.56608 0.8596,12.86192 6.1473,15.72876 5.1885,2.81467 5.4401,2.83351 7.6761,0.59685 2.3908,-2.39038 2.2929,-9.1762 -0.2185,-15.18459 -2.2138,-5.29585 -5.2118,-8.10258 -7.8582,-8.32456 z m 76.7162,2.34042 c -0.4302,0.10155 -0.5585,0.5796 -0.5585,1.39372 0,1.40859 1.4735,4.12951 3.2748,6.04769 3.5991,3.83045 8.7746,4.67217 8.7746,1.42626 0,-1.13321 -2.7112,-3.85289 -6.0248,-6.04562 -3.1941,-2.11381 -4.7488,-2.99128 -5.4661,-2.82205 z m -77.5951,3.34399 c 0.8906,0.10808 1.9428,0.75711 3.0633,2.10735 1.2846,1.54882 1.178,3.07674 -0.4326,6.18051 -2.0732,3.99685 -2.1899,4.02902 -3.7816,1.05574 -2.7393,-5.11924 -1.5209,-9.66782 1.1509,-9.3436 z m 146.3352,3.0825 c -0.408,-0.01 -0.808,0.46392 -1.42,1.41542 -0.7739,1.20351 -1.0721,2.72825 -0.6641,3.38944 0.9414,1.51792 5.0927,1.57591 5.0607,0.0667 -0.013,-0.6213 -0.6906,-2.14561 -1.5063,-3.38844 -0.6453,-0.98084 -1.062,-1.47355 -1.4703,-1.4831 z m 90.0224,0.0259 4.1031,0.0444 -4.9191,4.47466 c -6.3029,5.73265 -8.6027,5.71476 -5.6243,-0.0444 1.7423,-3.36878 3.3809,-4.50845 6.4403,-4.47466 z m -29.4849,3.08044 c -1.0528,0.0185 -1.6243,1.59104 -0.989,4.97697 0.6313,3.36606 0.1338,6.67491 -1.4698,9.77614 -2.7414,5.3003 -8.9678,9.98358 -11.3321,8.52197 -4.1476,-2.56358 0.5916,-18.09517 6.1489,-20.15019 2.023,-0.74888 2.6871,-1.63674 1.6862,-2.25465 -2.9887,-1.8483 -9.5975,2.52235 -12.5407,8.29149 -3.7338,7.31707 -3.688,14.02929 0.1204,17.83715 v 0 c 3.7597,3.75885 6.9821,3.79486 12.9733,0.14157 5.793,-3.53351 11.7901,-15.20814 10.3026,-20.05819 -1.3991,-4.56181 -3.547,-7.10695 -4.9004,-7.08329 z m -139.9358,0.20463 c -2.1661,0.0582 -3.456,1.4497 -3.456,3.92689 0,1.40925 -1.2827,3.36344 -2.8506,4.3429 -4.0645,2.53844 -12.2116,19.57964 -12.2116,25.54263 0,2.76821 -0.6778,5.03122 -1.5062,5.03122 -1.9201,0 -1.9833,-18.13108 -0.082,-23.13295 0.8379,-2.20265 2.8546,-3.95012 4.8948,-4.23902 2.8681,-0.40674 3.4705,-1.40684 3.4705,-5.764 0,-4.61373 -0.4685,-5.27204 -3.751,-5.27204 -2.7921,0 -3.947,0.96253 -4.5188,3.76516 -0.4222,2.07192 -2.0148,5.6044 -3.5393,7.85119 -3.6362,5.359 -4.7233,14.17436 -2.6622,21.5863 1.5446,5.55582 1.3996,6.14772 -2.145,8.75035 -7.1395,5.24391 -10.7506,17.43869 -6.4394,21.7496 1.3917,1.391891 1.0458,2.812781 -1.5354,6.304511 -10.4714,14.162832 -4.9173,27.028064 6.5164,15.093662 2.381,-2.485443 4.8255,-4.518607 5.4322,-4.518607 2.3428,0 6.1597,13.686711 7.0664,28.418922 1.8376,29.84873 10.1952,51.4924399 23.3506,60.4660753 8.6624,5.9093367 15.1945,8.8626947 32.1125,8.9534737 l 12.2314,0.06718 1.0721,10.878925 c 0.5903,5.983684 0.508,11.071542 -0.1818,11.30681 -0.6895,0.234632 -5.6592,2.674646 -11.0437,5.419831 -8.7421,4.457673 -10.0153,5.689891 -11.8861,11.508845 -2.1794,6.778175 -1.0989,13.549498 2.3439,14.692657 1.8619,0.617934 2.672,-1.404488 4.2071,-10.503747 0.5239,-3.106737 1.6455,-5.648246 2.4922,-5.648246 0.8665,0 1.1109,1.349852 0.5598,3.08663 -1.0562,3.326791 3.044,11.107499 5.1628,9.798367 0.6832,-0.421322 1.6894,-4.142317 2.2368,-8.268229 1.7135,-12.916217 8.8569,-14.843972 9.4282,-12.584615 0.8908,3.525388 3.988,14.25657 4.3296,15.499159 0.3895,1.41769 -2.168,4.087548 -6.8675,7.167007 -5.8031,3.80238 -7.4882,5.787998 -7.4882,8.823744 0,3.447397 0.4603,3.800957 3.8441,2.95177 3.5359,-0.88675 3.7081,-0.70961 2.1436,2.213827 -0.9345,1.74903 -1.3316,4.142717 -0.8797,5.321117 l -0.01,-0.003 c 1.415,3.686227 5.2522,2.34489 7.8785,-2.754347 1.3869,-2.69216 4.1153,-6.993067 6.0637,-9.556007 4.2754,-5.625727 4.4222,-10.306021 0.7395,-23.58821 l -2.8033,-10.109464 5.062,-2.986908 c 4.5707,-2.696607 5.0628,-3.654134 5.0628,-9.863984 0,-3.782324 -1.0252,-9.331033 -2.2788,-12.331567 -1.2533,-3.000481 -2.1011,-5.6075517 -1.8831,-5.7955117 0.2181,-0.187087 3.9302,-2.115424 8.2484,-4.2844777 4.3188,-2.169081 10.2296,-6.0312307 13.1347,-8.5819197 2.9054,-2.5508747 5.9304,-4.2374077 6.7226,-3.7480877 0.8059,0.497972 1.0665,4.5080497 0.5921,9.1048684 -0.6403,6.2039497 -0.2363,9.1483654 1.6518,12.0297574 3.5179,5.369798 7.6301,5.154295 6.2802,-0.327633 -3.3301,-13.52314537 -2.8631,-14.8550321 3.2075,-9.1513554 2.1966,2.0640937 3.4862,5.0100967 3.4862,7.9653864 0,11.846798 14.3446,27.921293 24.9168,27.921293 3.5023,0 5.5904,-0.913077 6.6604,-2.912983 2.005,-3.745785 2.0272,-16.200357 0.032,-17.434083 -0.8404,-0.519721 -2.8345,-3.506628 -4.4318,-6.636808 -3.7298,-7.3111787 -9.6613,-11.1381644 -17.9893,-11.6091224 -7.0313,-0.39679597 -14.2333,-4.9179967 -8.3812,-5.2611617 5.0895,-0.2981849 8.9128,0.409919 10.8664,2.01176 2.7816,2.28099973 4.7078,-1.248886 1.8653,-4.0907756 -2.741,-2.7417981 -12.2568,-4.1001423 -19.5635,-3.4720741 -3.8833,0.334089 -5.2716,-0.1414199 -5.2716,-1.8066022 0,-1.552204 2.2,-3.946101 7.2888,-2.012817 6.1441,2.334471 8.2505,-0.95131 1.7486,-4.005951 -5.2229,-1.869281 -5.1213,-2.966243 -3.6251,-7.291546 1.4084,-4.040981 2.4096,-4.764034 6.6006,-4.764034 2.717,0 5.8145,1.05365 6.8831,2.341456 3.0449,3.669533 7.3748,5.50037 15.6401,6.614584 l 7.6382,1.028885 -6.4015,2.024671 c -5.9886,1.89349 -6.4019,2.37744 -6.4019,7.5085843 0,5.1533157 2.0913,9.10073963 4.8204,9.10073963 0.6628,0 1.2052,-1.69476203 1.2052,-3.76668693 0,-4.0258208 1.405,-4.7691678 4.0394,-2.1352668 1.1687,1.1695368 1.1565,2.8834017 -0.044,6.06319073 -1.1763,3.11790367 -1.2036,5.17776467 -0.091,6.94221737 2.367,3.7525067 5.1319,4.0979467 5.1319,0.641297 0,-1.676161 0.7369,-3.5042737 1.6375,-4.0607447 2.7056,-1.671929 4.9935,1.9865177 5.1496,8.2367164 0.3109,12.383823 16.0017,27.239674 28.77,27.239674 5.2406,0 7.0297,-0.808646 10.2484,-4.633833 4.3484,-5.167868 4.5619,-6.480334 1.9491,-12.007003 -1.9793,-4.186317 -14.8973,-16.5468827 -20.167,-19.2965114 -1.8095,-0.944404 -6.6834,-1.71719897 -10.831,-1.71719897 -4.1476,0 -7.9481,-0.657966 -8.445,-1.4619297 -1.1893,-1.92389103 5.5994,-3.56745593 11.2882,-2.73264303 6.1158,0.896673 5.9978,-2.8524197 -0.1709,-5.4461827 -3.3012,-1.3878992 -6.7038,-1.5833462 -11.6068,-0.6676499 -5.417,1.0124019 -7.425,0.8079579 -9.1672,-0.9353553 -1.9704,-1.969717 -1.5881,-2.498751 3.2742,-4.530989 3.0276,-1.265 6.9231,-2.300103 8.6553,-2.300103 4.654,0 1.9809,-2.99974 -2.7657,-3.101128 -3.7933,-0.08213 -3.8637,-0.203544 -1.0988,-1.883066 6.9778,-4.236985 11.6895,-10.161746 10.9908,-13.817759 -0.8451,-4.421372 1.0181,-5.297355 11.2643,-5.297355 7.307,0 7.5322,0.120465 5.1486,2.754339 -1.3714,1.514846 -2.4929,3.507925 -2.4929,4.428675 0,0.919083 -2.5419,1.883013 -5.6484,2.140427 -7.4422,0.615844 -7.7729,4.677039 -0.4669,5.73868 4.2613,0.619178 5.3935,1.576625 6.3783,5.393981 0.6588,2.553017 2.395,5.725371 3.8586,7.049717 2.5117,2.273591 2.6308,2.026496 2.1194,-4.405948 -0.476,-5.981356 -0.2003,-6.747907 2.2566,-6.260068 2.4545,0.486146 2.7353,1.7789 2.2836,10.473769 -0.4082,7.8644752 0.1519,11.2252919 2.7043,16.2284576 2.9448,5.7725207 6.7088,9.0644664 8.4143,7.3587247 0.3757,-0.376106 -0.3913,-4.300909 -1.7042,-8.72246667 -1.5504,-5.22046763 -2.0444,-10.32853933 -1.4092,-14.56552463 1.4754,-9.837578 3.556,-7.831164 3.2891,3.170873 -0.2215,9.1328609 0.063,10.00654093 4.9006,15.0063206 5.7997,5.9944524 13.6334,7.9564704 24.9809,6.2538764 14.7651,-2.2142447 20.4166,-12.9132811 13.7599,-26.049552 -9.5877,-18.920196 -23.3989,-23.603664 -36.2733,-12.30003 -2.8898,2.537355 -5.9965,4.154885 -6.9035,3.594603 -2.5506,-1.576917 2.6784,-6.48253 12.1026,-11.354329 7.7811,-4.023069 8.0033,-4.288208 3.6573,-4.355809 -6.8702,-0.107288 -18.3507,4.256617 -21.4014,8.134376 -2.1076,2.67888 -3.412,3.130206 -6.1341,2.12389 -5.0165,-1.856078 -3.5409,-5.737331 4.1426,-10.898028 5.5161,-3.703955 8.9797,-4.675638 21.0757,-5.906612 16.0943,-1.639437 19.409,-3.103377 12.8378,-5.672005 -5.616,-2.196544 -22.3917,-0.972476 -41.8319,3.0489 -8.1682,1.690105 -15.6242,3.047815 -16.5685,3.024637 -2.8937,-0.07985 6.5445,-7.483792 9.5403,-7.483792 3.8603,0 7.5703,-1.555142 7.5703,-3.173439 0,-1.805861 -6.989,-1.686984 -13.9144,0.235638 -5.8373,1.621049 -8.6786,5.016394 -8.6786,10.369894 0,3.707976 -3.3452,4.081621 -6.1603,0.689371 -1.6939,-2.041736 -1.6317,-2.693035 0.3926,-4.142369 1.3216,-0.945489 5.5322,-3.908822 9.3573,-6.584103 6.6087,-4.622589 8.845,-7.9375 5.3541,-7.9375 -3.0459,0 -17.5223,7.540572 -20.2385,10.540444 -2.0193,2.23221 -4.6398,3.014795 -10.0857,3.014795 -9.0818,0 -18.6155,4.595839 -22.0474,10.628286 -2.6999,4.74427 -6.9186,5.846841 -8.3281,2.174557 -1.0689,-2.78593 -4.8863,-2.967699 -5.9168,-0.281649 -0.4112,1.087808 -0.4046,3.798967 0.021,6.025489 0.9745,5.098176 -2.1344,5.441844 -4.0338,0.445452 -1.4597,-3.838707 -15.4342,-15.269368 -24.1501,-19.752812 -2.8927,-1.487991 -9.8573,-3.034798 -15.4766,-3.436488 -5.6194,-0.402299 -10.578,-1.315429 -11.0193,-2.028799 -1.3449,-2.176885 4.3619,-10.342006 7.2273,-10.342006 3.5735,0 3.4647,-4.536123 -0.2603,-10.849478 -2.0363,-3.451384 -2.5091,-5.690685 -1.5293,-7.241407 0.7805,-1.233753 1.4213,-4.154459 1.4422,-6.489539 0.019,-3.53351 0.5903,-4.16687 3.3983,-3.76669 2.7901,0.39767 3.5566,1.75239 4.4178,7.803647 0.5733,4.027514 0.3955,9.023985 -0.3953,11.103716 -1.5084,3.967321 0.7046,8.688043 3.3163,7.075037 1.7518,-1.082331 1.7219,-18.152612 -0.042,-24.3029 -1.0242,-3.57156 -0.8504,-5.24457 0.676,-6.511243 3.4941,-2.89999 5.6367,-11.42965 3.7542,-14.94586 -2.427,-4.53602 -4.0915,-3.7837 -5.2462,2.36937 -1.2184,6.49666 -3.8629,11.11147 -6.3664,11.11147 -2.8355,0 -6.4907,-6.22969 -6.6026,-11.25461 -0.1008,-4.49926 -0.9663,-5.25042 -2.6525,-1.74202 -1.3375,2.78382 -0.3495,5.734 1.5177,10.92595 1.3128,3.64863 1.8399,6.970073 1.1734,7.381453 -0.6662,0.41225 -1.6544,2.76632 -2.1963,5.2338 -1.2806,5.830142 -3.6886,7.199837 -6.3611,3.618384 -1.9937,-2.670834 -2.1061,-2.559124 -1.6542,1.652085 0.3926,3.663844 1.2687,4.609518 4.6265,4.995572 3.6219,0.416877 4.1418,1.126146 4.1418,5.648219 0,8.687064 -4.001,6.326161 -9.7388,-5.747438 -2.8546,-6.006703 -6.5876,-12.953942 -8.2952,-15.439362 -2.5707,-3.741343 -2.9393,-5.888933 -2.1445,-12.483993 0.775,-6.4348 0.4448,-8.53453 -1.7142,-10.92028 -3.7891,-4.18629 -5.6134,-3.6607 -4.5233,1.30278 1.4285,6.50341 -2.6244,15.21058 -7.1215,15.30138 -0.6348,0.0124 -2.2511,-2.27737 -3.592,-5.09013 -1.9362,-4.06 -2.1027,-6.07433 -0.8073,-9.79009 1.2962,-3.71853 1.2169,-4.67828 -0.3884,-4.67828 -1.111,0 -2.4103,-1.01618 -2.8871,-2.25877 -0.9562,-2.49198 -3.974,-3.10875 -3.974,-0.81338 0,0.79615 0.908,2.29549 2.0179,3.33261 1.5145,1.41409 1.6664,3.27022 0.6094,7.43521 -2.7237,10.73087 4.7805,19.779093 14.4004,17.364823 2.8962,-0.72647 3.8886,0.0476 5.9833,4.66897 1.7172,3.78801 1.9992,5.856519 0.8914,6.542239 -1.1464,0.708501 -1.1144,1.946302 0.1096,4.233836 1.3295,2.48375 1.2742,4.183989 -0.2413,7.34478 -2.9009,6.053588 -6.3522,5.288227 -6.9171,-1.534292 -0.4468,-5.399325 -3.2985,-8.221212 -3.2985,-3.262841 0,1.31146 -0.8467,2.10558 -1.8825,1.765776 -1.0621,-0.349277 -2.2109,-4.178909 -2.6355,-8.786522 -0.5461,-5.920546 -1.3748,-8.167976 -3.0126,-8.167976 -1.5404,0 -2.413,1.87151 -2.7411,5.88233 -0.6863,8.385245 0.6009,12.097084 5.0131,14.458543 2.1227,1.136386 4.6879,3.80238 5.6999,5.925212 1.1687,2.450147 3.306,4.028202 5.855,4.324297 2.9456,0.341471 4.4519,1.718072 5.6554,5.171757 2.4691,7.082711 -0.9437,8.20637 -7.0244,2.312009 -5.494,-5.323734 -8.1251,-4.730909 -4.3778,0.987531 1.3547,2.068353 2.4633,4.123055 2.4633,4.566126 0,5.825728 -17.1429,-18.488157 -21.2257,-30.103048 -3.453,-9.825777 -3.5711,-12.779897 -0.6622,-16.625357 5.2506,-6.942033 1.1451,-21.510963 -6.7697,-24.023843 -3.8713,-1.22762 -3.7525,-3.65977 0.4853,-9.93066 2.6297,-3.89298 4.3632,-5.01111 7.235,-4.67363 4.4371,0.5248 9.6944,-4.45397 8.3646,-7.91993 -1.2393,-3.22961 -7.0562,-2.88978 -10.7204,0.62582 -1.6862,1.61766 -4.612,4.35091 -6.5019,6.07248 -1.8896,1.72159 -3.8383,5.1431 -4.3299,7.60214 -0.4921,2.45964 -1.4875,4.47103 -2.2124,4.47103 -2.8451,0 -0.8893,-7.23839 4.4762,-16.5685 4.4751,-7.78065 6.4674,-9.88782 9.7091,-10.26604 7.116,-0.83143 8.9519,-9.54807 2.4458,-11.61325 -0.9017,-0.2861 -1.7213,-0.41521 -2.4434,-0.39585 z m 105.4211,1.37358 c -0.1688,0.003 -0.3601,0.0426 -0.5752,0.1142 -2.7035,0.89963 -7.1964,12.53164 -7.3041,18.90583 -0.057,3.41862 0.6112,4.89479 2.2149,4.89479 2.89,0 4.9506,-5.34059 6.2164,-16.11014 0.7027,-5.97895 0.6299,-7.82145 -0.552,-7.80468 z m -122.4335,2.82877 c 0.8284,0 1.5065,0.67807 1.5065,1.50738 0,0.82807 -0.6781,1.50535 -1.5065,1.50535 -0.8284,0 -1.5063,-0.67728 -1.5063,-1.50535 0,-0.82931 0.6779,-1.50738 1.5063,-1.50738 z m 187.906,4.74493 c -0.7866,0.12002 -1.3687,1.14845 -1.9714,3.04787 -0.7263,2.28753 -0.2167,3.87569 1.6923,5.271 6.0648,4.43484 9.1768,1.71683 4.8043,-4.19716 -2.1648,-2.92868 -3.514,-4.27604 -4.5252,-4.12171 z m -137.8397,1.39525 c -1.3113,-0.17134 -1.7333,1.44339 -1.1528,4.77954 1.9137,11.0008 -7.0345,17.03089 -10.6331,7.1541 -1.4375,-3.94552 -3.017,-0.94636 -3.0742,1.04489 -0.1402,4.89678 1.6944,6.84228 4.2908,8.65995 v 0 c 3.946,2.76418 4.9376,2.85329 8.786,0.79425 6.4786,-3.467 9.5591,-15.70397 5.0808,-20.1817 -1.4026,-1.40269 -2.5096,-2.14824 -3.2964,-2.25103 z m 97.0613,2.89648 c -2.3828,0 -4.4235,3.63016 -2.898,5.15575 1.5235,1.52368 4.0966,0.0505 4.6194,-2.6448 0.276,-1.42317 -0.4694,-2.51095 -1.7214,-2.51095 z m 32.339,0.0915 c -0.744,-0.0183 -2.1545,0.89001 -3.824,2.73471 -3.8844,4.29294 -4.7932,12.95927 -1.8325,17.47904 v 0.004 c 2.7569,4.20677 4.9524,4.63405 10.6016,2.05931 3.7192,-1.69455 6.5248,-6.65134 4.7625,-8.41346 -0.4866,-0.48678 -2.6326,-0.0882 -4.7694,0.88574 -2.1365,0.97737 -4.512,1.38277 -5.2782,0.90951 -1.8732,-1.15962 -1.769,-9.2148 0.167,-12.83282 0.9958,-1.8624 0.9181,-2.80739 0.1741,-2.82565 z m 83.0829,0.31367 c -1.8968,0.0696 -3.4809,1.33474 -3.4809,3.40288 0,1.31612 0.6779,1.97591 1.5063,1.464 2.472,-1.52707 1.7137,4.53747 -1.5063,12.04991 -1.2406,3.73809 -5.2768,8.2499 -0.035,8.28374 4.1477,0 7.8981,-6.38614 8.7096,-14.83011 0.5099,-5.3058 0.071,-7.6363 -1.7166,-9.11984 -1.089,-0.90353 -2.3395,-1.29236 -3.4774,-1.25058 z m -322.9055,16.16337 c -8.8307,0 -11.9422,3.86561 -11.9422,14.83577 0,7.12702 0.7969,9.99638 4.1717,15.02235 8.8228,13.135851 19.9258,17.376299 25.8342,9.865541 2.5794,-3.27927 3.5015,-3.63534 5.3811,-2.07533 3.3969,2.81847 2.74,5.85607 -1.4973,6.91896 -2.0706,0.52078 -3.7656,1.623479 -3.7656,2.451519 v 0 c 0,2.11037 7.901,0.0077 9.9394,-2.644799 0.9104,-1.18409 2.0804,-1.72794 2.6006,-1.20716 0.5199,0.51953 1.3901,-0.21479 1.9335,-1.63142 0.5438,-1.41682 0.2207,-3.34423 -0.7178,-4.28295 -0.9385,-0.93871 -1.7057,-3.630801 -1.7057,-5.983601 0,-4.8283 -5.3092,-16.20729 -7.5618,-16.20729 -1.9453,0 -1.8688,2.47523 0.1963,6.33399 0.9194,1.71818 2.2278,5.06241 2.9072,7.43209 1.048,3.65435 0.8044,4.3088 -1.6034,4.3088 -2.1195,0 -3.0625,-1.43143 -3.7213,-5.64875 -3.4631,-12.65613 -3.492,-23.39954 -20.4489,-27.48772 z m 110.8967,2.95277 c -0.6056,0.0286 -0.8035,0.86416 -0.2683,2.69545 0.4239,1.44957 1.4639,6.53542 2.3111,11.30268 1.5984,8.99221 3.9122,14.64778 6.7607,16.52352 4.3558,2.868081 1.8211,-13.33603 -3.8815,-24.81347 -1.7695,-3.56214 -3.9124,-5.75586 -4.922,-5.70818 z m -112.4164,1.72342 c 1.9375,-0.0332 4.1521,0.963 6.7262,2.98741 5.4319,4.27329 7.8793,9.56948 9.1136,19.72024 v 0 c 0.9004,7.4041 0.6673,8.757371 -1.7296,10.039701 -3.2263,1.72704 -6.6109,0.2632 -12.994,-5.618271 -8.347,-7.69197 -10.8294,-17.30444 -6.1814,-23.93963 1.5269,-1.70773 3.1633,-3.11854 5.0652,-3.18945 z m 305.3177,4.05918 c -0.9191,0.58934 -3.6385,0.99013 -6.5897,2.4443 -3.9351,1.93718 -11.8993,4.40061 -17.6982,5.47511 -12.4378,2.30317 -15.1757,3.83325 -12.5413,7.0063 2.1331,2.57095 8.2212,1.7304 20.3486,-2.80604 7.9304,-2.96757 15.6853,-7.0811 17.7279,-8.62939 3.297,-2.49917 0.2836,-4.47135 -1.2473,-3.49028 z m 24.3634,1.80764 c -2.9292,-0.10658 -3.6491,2.25623 -1.1999,3.76981 0.8313,0.51421 1.0973,2.58601 0.5906,4.60332 -0.507,2.01864 -0.6797,4.75679 -0.053,5.9335 1.7312,3.24903 3.8238,1.21925 4.6204,-0.10393 3.5306,-5.86375 1.142,-14.01715 -3.9584,-14.2027 z m -102.3406,0.45217 c -1.6639,0.0257 -2.7934,1.8306 -2.7934,4.98367 0,5.08362 -3.6124,11.70807 -8.4672,15.5267 -5.2639,4.139851 -8.0865,1.9041 -8.1495,-6.4611 -0.044,-5.79258 -0.1984,-6.01731 -2.2592,-3.29282 -1.2163,1.60753 -2.2112,5.80565 -2.2112,9.32863 0,4.919741 0.7859,6.965681 3.3888,8.826841 4.2609,3.04697 10.9839,1.92516 15.8896,-2.65202 7.9917,-7.454381 11.8991,-21.206011 7.1464,-25.150931 -0.9213,-0.76422 -1.7878,-1.12059 -2.5443,-1.10897 z m -222.9527,1.30069 c -0.3183,-0.0111 -0.6427,0.003 -0.9721,0.0398 -3.4565,0.39848 -4.1145,1.26185 -4.5029,5.90557 -0.3453,4.12928 0.5202,6.59871 3.5893,10.24692 2.6519,3.15129 5.1417,4.64958 7.2327,4.35115 2.6884,-0.38391 3.1694,-1.44018 3.0681,-6.73034 -0.1545,-8.04571 -3.6386,-13.6463 -8.4151,-13.8131 z m -2.854,2.70579 c 1.7653,-0.19862 5.3649,2.64168 5.8155,4.92786 0.2479,1.25611 -0.6212,2.69658 -1.9309,3.19773 -1.6399,0.63103 -2.8483,-0.31414 -3.8815,-3.03083 -0.8249,-2.17011 -1.1102,-4.33649 -0.6331,-4.81314 0.1627,-0.16288 0.3778,-0.25326 0.63,-0.28162 z m 58.3459,2.61533 c 3.252,-0.0682 6.7879,1.41996 9.7761,4.76456 4.183,4.68111 5.7716,8.16322 4.0436,11.98475 -1.9235,4.254661 -2.3781,6.193981 -2.155,11.537344 0.4664,11.159596 5.7851,23.368767 16.0049,36.739883 l 6.1798,8.085798 -3.797,3.964623 c -4.9019,5.116989 -8.4757,13.754417 -8.4757,20.484015 0,2.925736 -0.6223,5.320612 -1.3827,5.320612 -3.3821,0 -12.1086,-34.544185 -12.1766,-48.199119 -0.027,-5.512541 -6.4061,-20.92198 -9.4996,-22.947444 -1.2676,-0.830157 -0.7591,-1.976544 1.7354,-3.910361 4.2336,-3.28369 4.0645,-9.41461 -0.5165,-11.514031 -2.9551,-1.35429 -6.2397,-0.14218 -7.5689,0.71676 -1.5211,0 -2.2217,-1.61023 -2.2217,-5.10511 0,-7.37177 4.6333,-11.80867 10.0539,-11.92228 z m 256.4024,0.94257 c -3.7269,-0.1447 -11.6909,2.15207 -14.5418,4.41421 -1.0356,0.82235 -1.8828,2.42773 -1.8828,3.56981 0,2.84697 0.952,2.64451 11.2713,-2.39054 6.6643,-3.25202 8.3484,-4.65127 6.4638,-5.37435 -0.3324,-0.12753 -0.7782,-0.19844 -1.3105,-0.21913 z m -66.0384,1.07591 c -2.9139,-0.11179 -6.9041,0.89693 -10.0846,2.83651 -5.8433,3.5627 -10.4159,14.428951 -9.0165,21.426101 0.68,3.399626 0.2305,5.596885 -1.5457,7.560252 -3.4422,3.80365 -4.7657,3.465539 -3.9124,-0.998908 0.4091,-2.1395 0.016,-3.766158 -0.9091,-3.766158 -2.2074,0 -4.7469,5.028485 -4.7469,9.396835 0,3.530151 -9.6687,14.574335 -11.3167,12.925822 -0.4498,-0.449183 -0.1207,-2.650119 0.7307,-4.890135 2.5514,-6.711209 1.6672,-7.917418 -2.2897,-3.123327 -2.0515,2.485417 -4.1473,7.060618 -4.6572,10.167329 -0.5101,3.106526 -1.4663,5.648246 -2.1254,5.648246 -0.6588,0 -3.4086,1.8601 -6.1108,4.133082 -2.7022,2.274226 -6.0394,3.944038 -7.416,3.710887 -3.1951,-0.541919 -6.5807,3.470328 -5.4395,6.446123 0.4812,1.25275 1.8105,2.278407 2.9548,2.278407 2.604,0 14.6495,-8.587767 17.3464,-12.366704 1.2417,-1.739503 3.0477,-2.487877 4.722,-1.956965 3.8314,1.216422 9.9663,-1.941168 11.8634,-6.104016 1.3843,-3.038528 1.2507,-3.397885 -0.9636,-2.591594 -2.2289,0.81243 -2.1866,0.499401 0.3177,-2.351775 2.2739,-2.589345 3.9227,-3.094937 7.7494,-2.377123 7.3324,1.375225 14.1409,-2.86123 14.192,-8.830998 0.019,-2.193131 -0.5141,-2.401279 -2.8903,-1.130167 -4.5056,2.41173 -5.3547,1.85883 -2.3106,-1.505321 1.5261,-1.68693 3.7367,-2.696765 4.9136,-2.244831 3.4829,1.336173 13.3802,-2.006335 18.3702,-6.205301 6.122,-5.1512 9.3544,-11.608251 8.1712,-16.322511 -0.9266,-3.69171 -1.0711,-3.6231 -7.6118,3.65196 -6.8623,7.633261 -16.0819,12.263491 -18.8677,9.477981 -2.3943,-2.39376 1.3644,-13.384161 5.7599,-16.841861 2.1627,-1.7013 5.2361,-3.09335 6.83,-3.09335 1.5944,0 2.4791,-0.6776 1.9674,-1.50585 -0.5654,-0.91501 -1.9259,-1.38557 -3.6742,-1.45264 z m -36.0789,1.45161 c -1.769,0 -3.4218,4.40507 -2.3214,6.18513 0.4738,0.76724 1.4933,1.00592 2.2645,0.52867 1.7918,-1.1081 1.8394,-6.7138 0.057,-6.7138 z m -159.1506,4.51961 c -2.0325,0 -2.3775,1.60763 -2.1706,3.78018 0.2723,2.86094 2.8885,2.5654 2.8885,2.5654 1.701,-0.44074 1.7666,-2.21517 1.7168,-3.12446 -0.1389,-2.53858 -0.6492,-3.22112 -2.4347,-3.22112 z m 7.815,0.0413 c -1.2644,-0.0132 -2.4598,1.04441 -2.4598,2.97037 0,1.65737 0.9036,3.01273 2.0082,3.01273 2.8337,0 3.9441,-1.44947 2.9988,-3.91292 -0.5379,-1.40171 -1.5637,-2.05981 -2.5472,-2.07018 z m 225.4528,3.85508 c -4.1627,0.38989 -15.8218,7.357671 -18.3806,11.455111 -1.6965,2.71666 -1.5507,2.8928 1.6195,1.95956 1.9161,-0.56491 7.12,-3.3932 11.5636,-6.28642 5.7177,-3.721921 7.6103,-5.728131 6.4747,-6.864701 -0.2405,-0.24034 -0.6824,-0.31927 -1.2772,-0.26355 z m 25.0367,2.67788 c -5.2548,2.17289 -17.0854,10.373671 -17.9797,17.38291 -0.3408,2.670307 -4.7286,6.166035 -8.3915,6.166035 -4.7027,0 -4.6062,-1.147736 0.7699,-9.151382 2.4352,-3.626242 4.1188,-6.903532 3.7407,-7.280702 -1.4412,-1.44155 -8.6199,5.39102 -11.7144,11.150234 -3.2139,5.981567 -5.2155,8.22698 -7.3742,8.271324 -1.8103,0.03633 -1.3015,-6.733328 0.6527,-8.687832 0.9803,-0.980545 1.2605,-2.302166 0.6231,-2.936795 -1.7193,-1.712701 -6.6945,5.127016 -7.7288,10.62519 -0.7109,3.778938 -2.1489,5.31958 -6.826,7.312739 -3.2588,1.388534 -5.9256,3.272685 -5.9256,4.188381 0,2.949813 4.4355,3.478212 8.2429,0.983906 4.7934,-3.141133 6.187,-3.058319 9.8319,0.58756 v 0 c 3.4689,3.468714 7.5308,3.974121 7.5308,0.937948 0,-1.1421 -1.0165,-2.919254 -2.2593,-3.950679 -2.9461,-2.445702 -2.8778,-4.51858 0.1501,-4.51858 1.3245,0 4.2711,1.994905 6.5484,4.432802 4.5249,4.844574 11.4864,7.357586 13.8446,4.998667 0.9871,-0.986234 -0.5853,-3.139625 -4.6366,-6.347936 -5.8377,-4.623646 -6.7873,-7.602114 -2.4241,-7.602114 1.1041,0 2.4307,1.686322 2.9483,3.747056 2.4521,9.770427 26.4668,14.026779 39.7547,7.046065 14.741,-8.968131 20.1501,-27.129636 4.9268,-36.336257 -10.1209,-5.7117 -17.7541,-3.72722 -24.3047,-1.01854 z m -162.805,-0.55036 c 0.06,1.18673 -0.2674,28.446727 1.0605,32.759752 0.9885,3.210613 3.3118,2.076424 4.3677,-2.131668 0.5752,-2.29145 -0.966,-21.732423 -2.0452,-29.374574 -1.0792,-7.64212 -3.4996,-3.57394 -3.383,-1.25351 z m 95.984,1.50585 c -1.3973,0 -2.3699,1.2878 -2.3699,3.137801 0,3.67162 3.5195,3.15187 4.2524,-0.62686 0.2881,-1.485261 -0.4799,-2.510941 -1.8825,-2.510941 z m -50.6037,1.50791 c -0.8223,1.242611 -1.1292,5.648171 -0.681,9.789051 0.9774,9.032984 -1.1695,13.597046 -4.4067,9.369983 -1.6147,-2.108252 -2.2211,-2.239142 -2.8442,-0.615976 -0.4355,1.134269 -0.1781,3.018446 0.572,4.186317 2.1889,3.405108 -0.1172,10.808467 -4.8223,15.480691 -2.3931,2.375826 -4.3511,5.256451 -4.3511,6.400641 0,1.144429 0.8837,2.08153 1.9635,2.08153 2.3159,0 10.4653,-8.30199 13.009,-13.250862 0.9782,-1.904683 3.6016,-4.157107 5.8293,-5.00798 3.5386,-1.352206 3.7481,-1.771624 1.6587,-3.31814 -3.2604,-2.412762 -1.9015,-5.535057 2.4098,-5.535057 1.9429,0 4.7258,-1.186153 6.1847,-2.635488 2.5299,-2.514573 2.4595,-2.659406 -1.5338,-3.12592 -3.5692,-0.417935 -4.054,-1.01473 -3.292,-4.049869 1.0996,-4.38187 -1.393,-6.301 -3.438,-2.64687 -1.3308,2.37813 -1.6676,2.20798 -3.1046,-1.57199 -0.8869,-2.33275 -1.6142,-5.04391 -1.6351,-6.024461 -0.069,-1.46825 -1.3105,0.16441 -1.5182,0.4744 z m 129.608,0 c 6.3693,0 9.6398,2.010731 13.544,8.327651 2.8062,3.836938 1.2692,8.599597 -0.7464,11.204499 -2.2301,3.218444 -6.5394,7.031805 -9.5755,8.475451 -8.1791,3.88747 -18.0599,4.31673 -24.3477,1.056269 -6.5567,-3.399022 -6.4744,-7.021195 0.3751,-16.558683 5.4232,-7.552156 13.643,-12.505187 20.7505,-12.505187 z m -272.2795,3.378091 c 0.8956,-0.0161 1.6005,0.63461 2.1074,1.95596 0.6421,1.67278 0,3.12015 -1.8309,4.1465 v 0 c -1.5494,0.86775 -4.3654,3.125284 -6.2574,5.017266 -4.4757,4.475639 -4.5075,1.080003 -0.051,-5.498356 2.5178,-3.71565 4.5403,-5.5947 6.0325,-5.62137 z m 268.41,3.86901 c -8.5458,-0.0754 -17.2561,5.298779 -17.2561,13.144945 0,3.233631 0.953,5.618453 2.6357,6.598549 4.4686,2.602627 11.4859,1.801336 19.5916,-2.238613 9.6872,-4.827032 11.3869,-8.892646 5.7465,-13.744391 -2.9829,-2.56574 -6.8331,-3.72623 -10.7177,-3.76049 z m 1.4697,3.3724 c 2.0027,-0.0384 3.8759,0.5348 5.0721,1.731169 2.7247,2.724468 2.2357,3.918427 -2.636,6.437842 v -0.0056 c -5.6121,2.906739 -7.7494,2.923884 -6.6493,0.05686 0.5078,-1.324346 -0.2177,-2.661762 -1.7647,-3.255619 -2.4726,-0.94779 -2.4644,-1.12641 0.1312,-3.024108 1.7126,-1.251691 3.8441,-1.902004 5.8467,-1.940454 z m -309.4534,7.45588 c -5.3497,0 -7.6923,3.009635 -8.5985,11.046883 -1.7928,15.908258 16.1976,28.713694 25.7927,18.360628 2.9974,-3.234717 3.8179,-3.464693 6.1833,-1.734265 1.5007,1.09564 2.2442,2.774659 1.6544,3.727926 -0.6337,1.025949 -0.1116,1.734794 1.2766,1.734794 1.2915,0 2.3482,-0.67781 2.3482,-1.50585 0,-0.828701 1.089,-1.506881 2.4204,-1.506881 1.4576,0 2.0982,0.840766 1.6097,2.112513 -0.4558,1.161097 -0.4609,2.472213 -0.021,2.911448 h 0.011 c 0.4397,0.44077 2.4357,0.05392 4.436,-0.856271 3.1686,-1.443858 3.5152,-2.351167 2.6932,-7.05485 -1.129,-6.458214 -4.7107,-12.607052 -6.6472,-11.410685 -0.7646,0.47199 -0.9892,2.865411 -0.4984,5.31958 1.1109,5.555615 -1.9529,6.088063 -4.0029,0.695034 -0.7877,-2.070867 -2.4437,-3.765127 -3.6809,-3.765127 -1.3822,0 -1.9148,0.871273 -1.3825,2.258775 0.5091,1.327494 0.024,2.24274 -1.1771,2.24274 -1.1242,-0.009 -3.3993,-3.548247 -5.0562,-7.864633 -3.3483,-8.724424 -10.4142,-14.711759 -17.3601,-14.711759 z m 244.4988,0 c -2.9075,0 -24.4182,13.7523 -28.4107,18.164783 -4.1328,4.566232 0.011,3.647069 11.2535,-2.496476 16.668,-9.109419 23.8509,-15.668307 17.1572,-15.668307 z m -244.5586,4.548055 c 4.8913,0.115014 11.3993,5.45412 13.7996,14.146926 1.1345,4.108583 1.0697,6.186911 -0.2413,7.765944 -5.2801,6.362118 -19.4951,-4.002352 -19.4951,-14.213099 0,-5.411761 2.5898,-7.778485 5.9368,-7.699771 z m 101.9177,1.653645 4.0622,9.326034 c 2.2341,5.12818 4.0621,9.833371 4.0619,10.454666 0,0.621295 -1.2655,1.129639 -2.8123,1.129639 -1.6097,0 -4.508,-2.562278 -6.7768,-5.990855 -3.914,-5.915051 -3.9304,-6.048401 -1.2501,-10.455169 z m -99.1155,1.67431 c -3.3774,0.471938 -4.1844,7.429183 -0.3699,12.875683 2.7993,3.995606 7.738,4.405921 8.5757,0.712126 0.6561,-2.894515 -2.8324,-11.026642 -5.4819,-12.780115 -1.0282,-0.680112 -1.9445,-0.916596 -2.7239,-0.807694 z m 166.1273,1.347206 c -2.3002,0.129143 -6.5502,5.688303 -5.6261,8.097176 0.5297,1.380728 1.8103,2.228744 2.8454,1.885156 2.318,-0.769964 5.1033,-8.203221 3.6266,-9.680019 -0.2281,-0.228204 -0.5172,-0.320781 -0.8459,-0.302313 z m -166.8496,3.133645 c 0.3103,0.0394 0.7561,0.331999 1.2964,0.872305 0.9814,0.980731 1.4322,2.132621 1.0041,2.560055 -1.0051,1.005232 -2.7863,-0.776049 -2.7863,-2.785877 0,-0.472096 0.1751,-0.685853 0.4858,-0.646483 z m 323.8701,13.248296 c -4.3543,0 -4.4308,1.109081 -0.3731,5.427583 2.4059,2.560823 2.9221,4.444259 2.1643,7.895643 -1.2917,5.879782 -7.7534,12.282434 -12.3957,12.282434 -2.049,0 -3.2412,0.661141 -2.7184,1.50585 v 0 c 1.383,2.238983 10.1172,1.733338 13.4348,-0.777214 11.0691,-8.37512 10.9926,-26.334296 -0.1117,-26.334296 z m -20.115,0.147796 c -0.9681,-0.0087 -0.9062,1.196076 0.034,3.667998 1.7026,4.477941 -0.3103,8.580623 -5.5967,11.409627 -1.9029,1.01854 -3.4597,2.415117 -3.4597,3.104198 0,3.029029 8.0775,0.936149 12.1653,-3.151743 5.2572,-5.257827 5.6176,-9.637183 1.0551,-12.832794 -2.0695,-1.449573 -3.4449,-2.190486 -4.1976,-2.197286 z m -163.317,16.239861 c 7.6991,4.708763 8.3405,7.039927 5.5555,7.435691 -1.864,0.264186 -3.3891,1.111408 -3.3891,1.883092 0,1.8415 5.0155,1.813216 6.8623,-0.0336 1.8608,-1.861793 11.2122,3.92975 11.2122,6.943778 0,6.099413 -24.661,24.21276163 -40.8294,27.6442756 l -6.8326,1.4501017 c -11.1136,2.358654 -32.4718,-0.9918437 -35.5769,-3.3492817 -5.9384,-4.5096377 -7.2864,-17.6656736 -2.8184,-27.5021936 3.1708,-6.97984 11.7107,-15.727177 19.6742,-18.442807 14.23,-4.85275 33.0049,-6.809132 46.1422,3.970946 z m 63.7374,-5.091192 c 8.7106,0 9.8962,0.384783 12.7068,4.122737 2.8015,3.000111 1.6045,5.951643 -0.4558,7.908052 -3.732,3.973433 -7.724,5.36702 -4.6048,1.608164 0.9932,-1.197398 1.5848,-3.723005 1.3141,-5.612051 -0.3979,-2.775373 -1.7946,-3.661674 -7.2704,-4.61264 -12.1886,-2.116058 -19.6758,1.970987 -17.3033,9.445414 1.0801,3.404076 0.5739,3.69906 -1.9761,1.147736 -3.1062,-3.106076 -1.9955,-6.889195 3.0877,-10.515627 3.8901,-2.774129 6.8677,-3.491785 14.5018,-3.491785 z m -184.0971,1.226291 c -2.7033,0.05773 -4.1275,1.051904 -3.8288,2.895414 0.1696,1.047062 -0.1894,3.036914 -0.7985,4.421452 -1.325,3.01506 1.274,8.546333 5.7026,12.134136 7.0162,5.68317 16.5838,1.99943 16.3478,-6.294199 -0.1786,-6.28314 -3.8079,-10.220405 -11.2726,-12.230259 -2.4466,-0.658574 -4.5289,-0.961178 -6.1505,-0.926544 z m 85.0707,3.610636 c -0.752,0.05059 -1.9476,0.397087 -3.7904,0.97409 -4.1114,1.286325 -4.894,2.07727 -3.5994,3.637492 2.4701,2.97643 7.866,1.631262 8.3978,-2.09341 0.2662,-1.864466 0.2453,-2.602495 -1.008,-2.518172 z m 28.4183,0.435107 c -1.7544,0 -2.7712,0.677598 -2.2592,1.50585 0.5119,0.829098 1.5285,1.506881 2.2592,1.506881 0.7308,0 1.7473,-0.677783 2.2593,-1.506881 0.512,-0.828252 -0.5048,-1.50585 -2.2593,-1.50585 z m -112.6307,0.479028 c 1.1194,0.08459 2.6313,0.724377 5.1784,1.968368 4.4109,2.154714 5.7825,3.717052 5.7825,6.589765 0,6.043031 -6.8048,5.959449 -11.9428,-0.147796 -3.5779,-4.251748 -3.7975,-5.091456 -1.8423,-7.046595 0.9777,-0.977238 1.7047,-1.448302 2.8242,-1.363742 z m 180.935,1.2201 c 0.3146,-0.0053 0.6623,0.01958 1.0409,0.07906 1.6896,0.264187 3.0713,1.158902 3.0922,1.986968 0.024,1.833272 -3.6433,2.771855 -5.108,1.307915 -1.8021,-1.803135 -1.2264,-3.336819 0.9749,-3.37394 z m -82.8688,0.07699 c -0.8945,0.0048 -2.0288,0.157824 -3.4023,0.459396 -4.6579,1.02362 -6.2399,4.378669 -2.744,5.820833 3.0803,1.272381 5.9746,0.392721 7.6931,-2.335768 1.6605,-2.639087 1.1366,-3.958669 -1.5468,-3.944461 z m -22.7721,2.895414 c -1.0187,-0.121258 -1.7833,1.222084 -2.1019,3.989441 -0.3974,3.45432 -1.351,4.271327 -5.7483,4.921144 -4.8705,0.720751 -5.0425,0.917125 -2.2593,2.590535 4.8337,2.905046 9.5094,2.224696 12.1221,-1.76268 1.868,-2.850145 2.0313,-4.356127 0.7351,-6.778414 -1.0094,-1.885447 -1.9556,-2.865702 -2.7477,-2.960026 z m -70.6274,0.401029 c -0.9184,-0.05993 -1.8243,0.183568 -2.4794,0.838703 -0.9848,0.985176 -0.8223,2.29915 0.4781,3.865907 2.3016,2.773706 5.0906,2.26134 5.7335,-1.052116 0.3736,-1.920002 -1.7113,-3.520705 -3.7322,-3.652494 z m 107.8246,1.389566 c -0.4527,0.03709 -1.0242,0.177323 -1.7436,0.397906 -5.611,1.720295 -7.4459,3.777113 -5.4824,6.142779 3.2223,3.882204 8.8712,1.670261 8.8712,-3.475223 0,-2.359845 -0.2874,-3.176746 -1.6452,-3.065462 z m -23.8498,4.08088 c -6.3683,0 -7.4541,1.091327 -4.2627,4.282943 2.6453,2.645727 9.2943,1.539081 9.8986,-1.646397 0.4096,-2.161275 -0.6062,-2.636546 -5.6359,-2.636546 z m -70.1754,0.166423 c -0.7091,0.138615 -0.729,1.126993 -0.181,3.310387 0.5342,2.128308 0.2908,4.290854 -0.5406,4.80486 -0.8315,0.513397 -1.5115,1.571281 -1.5115,2.35077 0,2.119233 2.4008,1.710663 4.45,-0.759143 2.2799,-2.746216 1.4925,-8.662167 -1.274,-9.575112 -0.3939,-0.129936 -0.7067,-0.177985 -0.9429,-0.131762 z m 242.5033,2.717138 c 10.0502,0.0657 19.9543,10.228422 18.08,21.321686 -0.7768,4.59959593 -1.9484,6.4548546 -4.7469,7.5194326 -2.0433,0.77716 -7.308,1.412848 -11.6985,1.412848 -10.8569,0 -15.9205,-3.89157097 -15.9205,-12.2343864 0,-6.9247272 3.2731,-14.1050432 7.4477,-16.3395812 2.1918,-1.172951 4.5191,-1.695159 6.8382,-1.679999 z m -138.1869,0.129196 c -4.6725,0 -6.0512,1.447377 -3.8761,4.067969 2.263,2.727431 6.3558,1.878806 6.9964,-1.449017 0.3664,-1.901507 -0.4879,-2.618952 -3.1203,-2.618952 z m 28.1499,0.500724 c -0.096,0.0026 -0.1657,0.02222 -0.2072,0.06408 -1.7756,1.775646 -0.032,3.917765 6.0118,9.027372 2.2691,1.918229 5.8738,3.373649 7.945,3.350445 3.6814,-0.03188 4.3645,-1.077806 1.4194,-3.277076 -6.4222,-4.797187 -13.7305,-9.185301 -15.169,-9.164823 z m 108.0301,4.017857 c -8.3248,0 -10.4915,10.078879 -3.8608,17.9596249 2.9774,3.53795673 5.1377,4.63383373 9.1363,4.63383373 12.3992,0 14.5775,-6.91890733 5.2152,-16.56643563 -4.3307,-4.462092 -7.0535,-6.027023 -10.4907,-6.027023 z m -152.5762,0.659395 c -0.7525,-0.03678 -1.7865,0.08517 -3.1694,0.3488 -6.4389,1.225312 -6.9496,1.846368 -3.5552,4.328424 3.2744,2.394823 8.45,0.500169 8.45,-3.093349 0,-1.020683 -0.4715,-1.522598 -1.7254,-1.583875 z m -23.1087,1.276402 c -0.4202,-0.06929 -0.8977,0 -1.4192,0.01561 -4.9469,0.139594 -7.3372,2.751508 -4.3728,4.576471 4.6688,2.874248 8.7532,1.656054 10.2436,-2.260441 0.3585,-2.084255 -2.9588,-2.085366 -4.4516,-2.33164 z m 178.1069,2.697004 c 0.7543,-0.12954 2.7149,1.144085 5.2848,3.714486 2.1058,2.105316 3.6626,4.9863372 3.46,6.4016732 h 0.01 c -0.2413,1.6808178 -2.0182,2.7362408 -5.1295,3.0447717 -5.2895,0.524166 -5.5967,0.0721 -2.8924,-4.2576217 1.4803,-2.3836322 1.4782,-3.6050012 -0.021,-6.0042692 -1.1541,-1.848432 -1.2978,-2.798313 -0.7109,-2.89904 z m -143.1097,1.408695 c -2.5815,-0.145574 -7.1472,1.952545 -7.1498,3.776001 0,3.0141862 7.3559,2.9343352 8.5167,-0.092 0.4908,-1.277249 0.5008,-2.715921 0.024,-3.1936 -0.3038,-0.303715 -0.7938,-0.456803 -1.3896,-0.490405 z m -7.1498,3.776001 v -0.0026 0.0032 -0.0026 z m -9.5324,-0.314193 c -0.8686,-0.01217 -2.0601,0.131736 -3.6478,0.418571 -6.8104,1.231635 -7.0112,1.379802 -5.8817,4.3222072 1.7896,4.6644187 11.53,1.8615548 11.53,-3.3171082 0,-0.949537 -0.5524,-1.403403 -2.0005,-1.42367 z m 104.9695,19.4324023 c 1.7049,0.02654 3.6023,0.411851 5.5147,1.204066 4.5021,1.8649417 13.5196,10.9002247 13.5196,13.5459257 0,0.773774 1.0168,1.016158 2.2593,0.539511 2.8088,-1.077674 3.1705,5.472854 0.4522,8.191236 -6.6022,6.601804 -28.3165,-7.94258 -28.3165,-18.966815 0,-2.8953607 2.8197,-4.5723437 6.5707,-4.5139237 z m -39.5026,0.275934 c 3.1245,0.111892 6.7133,2.286212 10.3225,6.3965137 4.4352,5.052378 5.1855,7.237095 4.5847,13.34389 v 0 c -0.7758,7.88625 -5.4724,7.488131 -14.736,-1.246426 -6.6233,-6.24578 -6.2548,-8.543369 0.4289,-2.674779 2.9281,2.570745 6.2769,4.674659 7.4419,4.674659 3.8314,0 3.847,-2.637685 0.032,-5.13768 -3.1821,-2.085233 -3.4774,-2.885572 -1.9605,-5.314394 1.4038,-2.247847 1.3496,-3.38529 -0.2538,-5.316987 -3.0829,-3.7140877 -9.5181,-2.3701367 -10.5918,2.212764 -0.8032,3.429634 -0.9816,3.505623 -2.0008,0.854233 -0.7577,-1.972468 -0.2063,-3.824922 1.7074,-5.7386797 1.4446,-1.44489 3.1522,-2.120239 5.0271,-2.053114 z m 39.4973,0.981869 c -2.0545,-0.0045 -3.9482,0.712364 -4.5006,2.1523057 -1.42,3.700568 5.1454,12.368027 11.9039,15.712757 v 0.0053 c 7.4345,3.680513 10.1306,3.961183 10.1306,1.056772 0,-1.152207 -2.7242,-3.185398 -6.0539,-4.517549 -5.3451,-2.139288 -5.9423,-2.865463 -5.1036,-6.207892 0.5451,-2.171382 0.1572,-4.740301 -0.9091,-6.025991 -1.1972,-1.4453127 -3.4128,-2.1711177 -5.4673,-2.1755627 z m -104.4194,2.9734667 c 1.548,-0.04747 2.9821,0.306255 3.0276,1.099159 0.036,0.621294 0.6456,4.133558 1.3539,7.805208 0.708,3.670987 0.9456,7.568194 0.5262,8.660447 v 0 c -0.4191,1.092464 -1.9513,1.986439 -3.4049,1.986439 -2.0048,0 -3.0541,-2.043007 -4.3416,-8.454761 -0.9331,-4.650078 -1.3263,-9.055152 -0.872,-9.791144 0.5006,-0.809995 2.1627,-1.258411 3.7108,-1.305851 z m 168.6372,5.995485 c -2.6763,0 -2.7146,0.322738 -0.6329,5.305609 1.6261,3.891915 1.797,6.089968 0.6411,8.250159 -2.1693,4.053257 -6.99,6.371245 -10.9771,5.276664 -3.2448,-0.890137 -3.6311,0.98507 -0.7839,3.261016 1.6081,1.285664 4.9173,0.498978 6.8937,0.498978 4.6178,0 12.3986,-7.751392 12.3986,-12.3512 0,-4.76959 -4.028,-10.241226 -7.5395,-10.241226 z m -31.7664,4.597748 c -0.2892,0.0079 -0.5324,0.09443 -0.7118,0.27387 -0.3288,0.329036 0.2064,2.729812 1.1896,5.334556 2.3313,6.176089 -0.7083,13.989235 -8.4365,16.698515 -6.4736,2.269411 -6.5228,4.720616 0.039,4.719743 3.5173,0.0034 5.9102,-1.328446 9.281,-5.167127 5.3623,-6.108276 6.9197,-10.283057 5.6788,-15.226453 -0.7226,-2.879699 -5.0165,-6.687926 -7.0403,-6.633184 z m -46.8257,16.502353 c -0.7446,0.02275 -1.2115,0.378513 -1.1809,1.115166 0.079,1.869599 3.523,5.756116 6.73,7.594891 3.9047,2.240227 4.0113,2.232607 7.9489,-0.525039 1.8412,-1.290109 3.348,-3.662177 3.348,-5.272035 0,-3.559915 -0.5707,-3.609419 -5.3634,-0.468709 -3.4689,2.272559 -3.9555,2.272559 -6.4674,0 -1.7624,-1.594829 -3.7743,-2.482374 -5.0152,-2.444274 z" transform="translate(111.4223,105.12939) translate(-6320.4006,174.12102)"/>
</svg>