<?xml version="1.0" ?><svg xmlns="http://www.w3.org/2000/svg" width="309.23874mm" height="225.5041mm" viewBox="0 0 309.23874 225.5041">
    <path d="m 5631.4854,-1792.1083 c -3.0323,3.7787 -16.6174,15.2436 -24.0972,21.5553 -7.4799,6.3117 -17.4476,23.5397 -17.4476,23.5397 0,0 -14.5087,-9.4188 -19.7181,-15.1428 -5.2095,-5.724 -1.6329,-13.0854 -1.4775,-16.5282 0.1555,-3.4428 3.3749,-4.1705 5.7852,-3.5687 2.4103,0.6017 3.0789,-0.014 2.0836,-2.7291 -0.9952,-2.715 -3.1259,-4.9542 -3.1259,-4.9542 0,0 9.1441,-9.2365 12.1765,-11.6716 3.0324,-2.4352 4.7116,-9.0406 2.2857,-7.4172 -2.4259,1.6235 -10.6522,8.8725 -17.199,11.0557 -6.5468,2.1832 -20.1998,3.919 -28.4572,6.2001 -8.2573,2.2812 -9.8594,4.9119 -11.3522,11.4055 -7.207,0.367 -12.2623,11.697 -12.2623,11.697 l 19.0949,-2.0888 10.0304,15.4926 c 0,0 4.4714,25.5793 17.1607,38.9305 12.6893,13.3511 22.9526,13.9108 22.9526,13.9108 0,0 14.4559,11.4906 21.407,12.3863 6.9511,0.8956 13.5586,-1.5628 22.4224,-3.2422 8.8638,-1.6794 13.8623,-7.0349 25.1364,-11.2474 11.2742,-4.2125 13.0004,-5.8358 25.954,-1.7353 12.9537,4.1006 13.871,13.3932 23.6368,27.1782 9.7658,13.785 18.8474,11.8818 25.2543,11.9517 6.4068,0.07 22.2218,-5.388 24.259,-8.355 2.0371,-2.9669 -10.3569,-0.1122 -18.5054,1.7911 -8.1485,1.9033 -12.8602,-0.8113 -12.8602,-0.8113 0,0 7.7597,-0.84 9.9679,-0.9379 2.2082,-0.098 7.3783,-6.4068 3.0241,-5.931 -11.7575,1.4024 -18.6031,-4.4391 -25.1995,-14.8657 -5.9558,-9.1807 -11.4138,-11.0138 -11.4138,-11.0138 0,0 20.9778,6.6194 30.0127,9.4604 9.0349,2.841 21.1579,2.1788 38.1858,0.4155 17.0278,-1.7634 33.0919,-18.3617 39.0322,-25.863 5.9403,-7.5014 14.6249,-19.556 16.491,-30.1362 1.8661,-10.5802 -3.1879,-18.9354 -8.615,-22.9939 -5.4272,-4.0586 -11.5541,-5.094 -15.0063,-4.6881 -3.4522,0.4058 -5.3492,3.4007 0.2646,6.6755 5.6137,3.2749 7.924,-1.4412 7.924,-1.4412 0,0 6.3359,4.2824 9.1039,10.6081 2.768,6.3258 -0.093,12.2593 -2.6748,19.7327 -2.5814,7.4733 -13.7338,16.8743 -23.2818,24.5995 -9.548,7.7252 -11.5387,2.5949 -5.5051,-0.9038 6.0336,-3.4988 18.443,-20.3764 22.2685,-26.9121 3.8254,-6.5356 -3.1101,-3.247 -7.9463,3.1347 -4.8363,6.3817 -8.8481,6.0177 -8.8481,6.0177 0,0 7.1843,-14.6382 7.4487,-16.7235 0.2643,-2.0852 -3.7167,-8.7471 -6.0338,-3.8349 -2.317,4.9122 -5.9558,10.8041 -10.9476,16.0662 -4.9916,5.2621 -19.4848,14.9188 -14.5242,10.8882 4.9606,-4.0305 9.7036,-11.1401 11.4453,-16.1923 1.7416,-5.0521 -5.9248,2.2255 -12.9692,9.4749 -7.0444,7.2494 -25.2229,12.7772 -38.1765,17.3395 -12.9536,4.5624 -27.3417,1.933 -38.5692,-2.2655 -11.2276,-4.1985 -24.8807,-5.1081 -36.1705,-2.5611 -11.2896,2.5471 -17.401,-3.2607 -17.401,-3.2607 5.7171,-7.6789 10.4666,-10.7841 15.7086,-17.3448 0,0 -0.06,-6.4394 6.9848,-8.9305 7.0444,-2.4911 2.789,-8.1098 2.789,-8.1098 7.6162,-7.4444 49.4192,-26.676 24.5037,-23.9644 -3.5654,-11.7665 3.6572,-20.5456 -4.1089,-31.3616 -13.0594,4.3066 -32.9174,9.0472 -50.9001,28.2202 z m 119.8666,104.5709 c -4.1542,0.065 -6.3416,1.3888 -7.4327,3.2877 0,0 6.2239,2.4763 9.8821,2.6525 3.6582,0.1762 12.376,-3.886 12.376,-3.886 0,0 -7.5122,-1.6506 -12.9222,-2.003 -0.6762,-0.044 -1.3098,-0.061 -1.9032,-0.051 z m -20.113,0.9116 c -0.3656,2e-4 -0.7435,0.02 -1.1286,0.067 -3.0812,0.3709 -4.1936,2.0405 -4.9046,2.8473 0,0 2.6482,1.8455 5.8942,1.3539 3.246,-0.4915 4.6782,-3.283 4.6782,-3.283 0,0 -1.98,-0.9867 -4.5392,-0.9849 z" fill="#e56a60" transform="translate(330.8058,93.874969) translate(-5847.5143,1796.2228)"/>
    <path d="m 5669.2186,-1819.8637 c -14.0496,6.5356 -23.8803,14.3924 -37.5482,28.5834 -1.8534,5.1114 -26.7596,20.9657 -31.625,28.3296 -4.8655,7.3639 -3.6277,4.7735 -8.109,17.2403 l -0.8403,2.3378 -1.4185,-7.6822 c 0,0 -11.5261,0.3465 -14.1904,-6.6709 -2.6646,-7.0174 -7.7614,-4.1582 -7.6455,-9.4429 0.04,-1.8236 -0.094,-4.6815 -0.2847,-7.6393 1.4258,0.9276 2.2541,-8.7343 2.2541,-8.7343 0,0 1.6218,2.4255 5.7919,1.9058 4.1704,-0.5198 -2.3745,-8.1437 -2.3745,-8.1437 0,0 0.5207,0.4332 4.9805,-3.8985 4.4601,-4.3317 11.005,-15.8543 11.005,-15.8543 0,0 -7.2401,5.1982 -10.1936,7.7106 -2.9538,2.5123 -12.8587,3.9849 -15.581,5.4576 -2.722,1.4728 -21.7203,0.4332 -25.7168,4.9382 -3.9965,4.505 -6.0815,8.6638 -7.6455,10.743 -1.5639,2.0793 -9.9623,6.5839 -11.7001,9.4428 0,0 -0.3474,2.4257 1.3901,3.6386 1.7378,1.2128 17.5499,-3.3786 17.5499,-3.3786 4.835,6.6879 13.4409,-3.0042 21.2291,6.2637 4.6183,5.9826 9.9763,19.635 14.7573,26.2531 3.3814,4.6814 12.1048,10.7758 15.584,9.1705 8.7108,-4.0187 15.2833,-22.0282 17.1236,-25.7741 3.099,-6.4086 12.8887,-6.0521 19.6354,-8.5767 7.761,-2.9039 3.7663,-5.8077 -0.091,-6.8172 -4.3143,-1.1293 -4.7364,-4.3791 3.962,-4.0948 6.4072,0.2094 14.4866,-7.3102 16.7489,-10.9198 3.4753,-5.545 -6.4293,-1.646 -4.6338,-5.458 11.6591,-19.3169 21.7696,-9.6631 27.2882,-15.6616 5.2126,-9.875 13.0417,-14.3295 10.6448,-6.5397 -3.1709,18.9641 7.725,19.111 -3.8752,28.0056 -4.7496,4.0718 -15.9862,5.3716 -17.9555,11.2628 -1.9693,5.8911 3.3594,2.2525 2.7802,5.3713 -0.5792,3.1188 -7.4719,5.9778 -11.7579,7.8837 -4.2863,1.9059 0.3472,5.8911 -2.3172,8.8367 -2.6643,2.9455 -26.1221,14.0343 -32.8988,17.2398 -4.6448,2.197 -3.3036,5.492 -1.9998,7.3484 -0.9861,-0.1439 -1.6955,-0.2563 -1.6955,-0.2563 4.6895,6.7443 13.7589,8.517 23.1892,9.4035 4.4684,0.4201 10.6894,0.026 16.6033,-0.5489 3.9383,-0.8911 4.1032,0.069 0.8214,1.2922 -4.048,1.4346 -8.7605,2.5068 -15.0723,4.4543 -7.3188,2.2582 -11.1066,-1.0715 -9.1809,2.0097 1.9256,3.0813 10.4214,3.7785 17.7343,2.1436 3.7735,-0.8436 8.7295,-3.301 4.2435,0.5322 -4.9723,4.2488 -6.7591,6.0585 -11.1402,8.9122 1.3883,4.2199 26.4215,-6.7653 29.4669,-8.9757 3.0451,-2.2104 15.5846,0.067 20.1973,3.7512 4.6126,3.6841 19.4804,23.9127 19.4804,23.9127 0,0 0.8955,-13.3295 -3.314,-18.4872 -4.2095,-5.1577 -17.1968,-14.7365 -12.9873,-13.2628 4.2096,1.4736 22.3022,5.292 29.0644,6.6317 6.762,1.3396 22.3912,1.3394 32.1091,-0.2682 9.7179,-1.6075 13.6586,-7.6358 13.6586,-7.6358 0,0 -8.1948,2.3442 -14.6435,3.8179 -17.4966,1.2999 -40.1749,-1.4809 -54.7529,-5.4149 -11.848,-3.1972 7.8503,-2.2164 14.9422,-0.7849 17.962,3.6255 24.8335,1.4793 36.8356,-0.2616 10.7517,-1.5596 17.2814,-4.9224 20.3662,-9.6916 3.0847,-4.769 2.4889,-9.1114 -3.4473,-3.4892 -5.9364,5.6221 -17.8866,9.1504 -14.5944,5.1955 3.292,-3.9549 0.5441,-6.0099 0.5441,-6.0099 0,0 -31.1849,10.8563 -42.0465,9.1503 -4.4574,-0.7001 -8.3371,-1.5293 -11.3797,-2.2655 -11.1642,-5.7866 -30.7206,-6.3 -36.2221,-4.7273 -5.7972,1.6572 -10.3317,1.6957 -15.4078,1.002 -5.0757,-0.6937 -7.6011,-3.5843 -7.6011,-3.5843 0,0 -14.0684,4.7017 -18.8092,4.2778 -0.7738,-0.069 -1.5119,-0.1451 -2.2283,-0.2228 2.8662,-0.5963 6.9244,-1.3132 10.1829,-1.3637 5.6181,-0.087 3.4752,-4.332 3.4752,-4.332 0,0 9.6725,-0.5197 13.3796,-1.6459 3.7064,-1.1263 -1.2744,-6.411 -1.2744,-6.411 l 11.4686,0.087 c 0,0 8.8036,1.3862 8.8036,-2.4257 0,-3.8119 -6.1971,-6.0642 -6.1971,-6.0642 l 2.2588,0.1731 c 0,0 4.1124,-3.5521 8.2248,-5.1981 4.1124,-1.646 4.1703,-7.537 4.1703,-7.537 0,0 16.9131,-8.7504 16.3339,-10.9162 -0.5792,-2.1658 -12.4535,-3.6385 -12.4535,-3.6385 0,0 17.2029,-6.0643 19.6355,-9.5297 2.4326,-3.4654 -7.4719,-3.9852 -7.4719,-3.9852 0,0 11.2364,-11.8688 12.6266,-18.1064 1.3901,-6.2377 -7.5292,-2.4257 -7.5292,-2.4257 4.4567,-36.5904 -9.6253,-28.1588 -22.6899,-9.9574 z" fill="#ff9355" paint-order="fill markers stroke" transform="translate(330.8058,93.874969) translate(-5847.5143,1796.2228)"/>
    <path d="m 5687.1176,-1887.7829 v 5e-4 c -3.3583,0.031 -3.6443,11.5227 -4.7697,18.5493 -1.1808,7.3721 -8.2582,33.0744 -9.3834,35.588 -2.6345,5.885 -8.7288,11.3776 -11.8349,14.6797 0,0 -0.7816,6.559 1.7854,6.597 2.5672,0.039 19.7666,-14.5906 21.1785,-18.4686 1.4118,-3.878 5.9295,-5.5675 4.3124,-2.035 -1.6172,3.532 -4.5178,11.442 -3.0546,12.1331 1.4634,0.6912 5.4165,-1.8044 4.4923,0.8066 -0.9241,2.6109 -4.1074,5.5292 -6.9826,12.3254 -2.8752,6.7961 5.5966,0.5371 9.5757,-1.9586 3.9788,-2.4958 11.1924,-18.0463 10.8841,-20.1197 -0.3079,-2.0734 -5.5449,-5.7975 -5.5449,-5.7975 0,0 1.3862,1.1135 7.3417,-4.3388 5.9555,-5.4522 -3.6962,-5.222 -1.3602,-8.524 2.336,-3.3021 2.1816,-13.7078 -0.6423,-14.7061 -2.8239,-0.9983 -13.2457,16.6259 -13.2457,16.6259 0,0 1.6173,-13.5924 1.7456,-17.816 0.1284,-4.2236 -0.1284,-22.2698 -3.9791,-23.4601 -0.1804,-0.056 -0.3531,-0.082 -0.5183,-0.081 z m -23.6042,14.9309 c -0.4719,-0.011 -0.9202,0.164 -1.325,0.5493 -2.1585,2.0547 -4.2846,35.1244 -5.4948,38.7444 -1.2102,3.6201 -11.4763,21.1651 -11.4763,21.1651 0,0 -1.0501,-3.6031 -0.2651,-7.4678 0.7847,-3.8646 -2.9434,-10.5177 -2.9434,-10.5177 0,0 -6.5738,11.5452 -8.2745,18.2961 -1.3775,5.4678 0.8931,6.8916 3.7693,8.1452 -2.1683,4.5309 -6.834,13.0812 -8.8046,15.3273 -2.1895,2.4946 -11.6768,13.411 -11.6768,13.411 7.9235,-5.068 21.8415,-16.2178 27.2107,-23.6249 2.4259,-3.3466 4.4288,-6.0321 5.9278,-8.015 1.1254,-0.8828 2.0859,-1.9629 2.7063,-3.2871 2.911,-6.2128 10.1391,-10.9086 11.6763,-17.5618 1.5372,-6.653 6.3452,-29.9391 4.7754,-36.3476 -1.2754,-5.2069 -3.7605,-8.7667 -5.8053,-8.8165 z m 70.1471,25.4356 c 0,0 -7.2452,5.9529 -10.7797,9.7245 -3.5344,3.7715 -10.6034,6.7347 -9.0485,13.1904 0,0 4.2265,3.0126 10.218,0.5287 5.9914,-2.4841 4.8896,-4.4492 7.1365,-10.9017 2.2469,-6.4526 2.4737,-12.5419 2.4737,-12.5419 z m -144.5684,34.6263 c -0.063,0 -0.1371,0.038 -0.2233,0.1349 -1.1028,1.237 -9.8063,12.6647 -18.4309,14.903 -8.6249,2.2384 -22.369,2.9453 -28.3946,6.244 -6.0254,3.2987 -8.9796,5.3608 -10.0035,9.0718 -1.024,3.7111 2.0091,3.4753 2.0091,3.4753 3.7412,-5.1837 8.4279,-7.4808 14.7289,-8.3644 6.301,-0.8836 16.7372,0.9423 22.2901,-2.0619 5.553,-3.0042 12.8778,-9.0716 15.4771,-13.0183 2.3962,-3.6383 3.2866,-10.3301 2.5471,-10.3844 z m 135.262,4.8597 c 0,0 -4.416,1.4658 -10.9078,2.9213 -6.492,1.4555 -7.3067,3.6956 -6.2973,7.1949 2.3513,3.4271 6.3201,0.2477 12.2271,-2.1575 5.9071,-2.4051 4.978,-7.9588 4.978,-7.9587 z m 14.9712,12.9155 c -0.4225,0.028 -5.1315,1.8085 -15.2714,4.331 -10.1399,2.5226 -11.2324,2.3832 -17.137,6.473 -6.1005,3.4129 5.7293,4.4515 12.0153,4.4607 6.2859,0.01 10.2842,-3.1714 15.0554,-6.4172 4.7711,-3.2459 5.7602,-8.8753 5.3377,-8.8475 z m 63.1894,13.8741 c -0.5085,0 -0.9818,0.031 -1.4133,0.082 -3.4522,0.4058 -5.3492,3.4008 0.2646,6.6756 5.6135,3.2749 7.924,-1.4413 7.924,-1.4413 0,0 6.3359,4.2825 9.1039,10.6082 2.768,6.3256 -0.093,12.2592 -2.6748,19.7326 -2.5814,7.4733 -13.7338,16.8743 -23.2818,24.5995 -9.548,7.7252 -11.5387,2.5949 -5.5051,-0.9038 6.0336,-3.4988 18.4429,-20.3763 22.2684,-26.912 3.8254,-6.5356 -3.1101,-3.247 -7.9463,3.1347 -4.8363,6.3815 -8.848,6.0177 -8.848,6.0177 0,0 7.1842,-14.6383 7.4486,-16.7236 0.2643,-2.0852 -3.7166,-8.7471 -6.0337,-3.8349 -2.317,4.9122 -5.9559,10.8041 -10.9477,16.0662 -4.9916,5.2621 -19.4847,14.9189 -14.5241,10.8883 4.9606,-4.0305 9.7036,-11.1401 11.4453,-16.1923 1.7416,-5.0521 -5.9249,2.2256 -12.9693,9.4748 -3.5169,3.6193 -9.8096,6.8094 -16.8413,9.6646 0.085,0.065 2.6801,2.1066 -0.5586,5.9975 -3.2922,3.9549 8.658,0.4266 14.5944,-5.1955 5.9362,-5.6222 6.532,-1.2798 3.4473,3.4892 -3.0848,4.7692 -9.6145,8.1318 -20.3662,9.6914 -12.0019,1.7409 -18.8741,3.8875 -36.8359,0.262 -7.0919,-1.4315 -26.7898,-2.4123 -14.9418,0.7849 14.578,3.934 37.2562,6.7146 54.7528,5.4147 6.4487,-1.4737 14.6435,-3.8179 14.6435,-3.8179 0,0 -3.9407,6.0283 -13.6586,7.6358 -9.7179,1.6076 -25.3471,1.6078 -32.1091,0.2682 -6.7622,-1.3397 -24.8548,-5.1581 -29.0644,-6.6317 -4.2095,-1.4737 8.7778,8.1051 12.9873,13.2628 4.2095,5.1577 3.314,18.4872 3.314,18.4872 0,0 -14.868,-20.2286 -19.4804,-23.9127 -2.8009,-2.2371 -8.5185,-3.9477 -13.2644,-4.4576 -0.03,0.061 -0.051,0.1181 -0.082,0.1798 12.9537,4.1006 23.3469,15.88 33.1127,29.6648 9.7658,13.785 18.8474,11.8819 25.2543,11.9518 6.4068,0.07 22.2217,-5.3881 24.2589,-8.3551 2.0371,-2.9669 -10.3568,-0.1122 -18.5053,1.7911 -8.1485,1.9033 -12.8602,-0.8113 -12.8602,-0.8113 0,0 7.7597,-0.84 9.9679,-0.9379 2.2082,-0.098 7.3783,-6.4067 3.0241,-5.9309 -11.7575,1.4024 -18.6031,-4.4392 -25.1995,-14.8658 -5.9558,-9.1807 -11.4138,-11.0138 -11.4138,-11.0138 0,0 20.9778,6.6194 30.0127,9.4604 9.0347,2.841 21.158,2.1788 38.1857,0.4155 17.0278,-1.7634 33.092,-18.3617 39.0323,-25.863 5.9403,-7.5014 14.6249,-19.556 16.491,-30.1362 1.8661,-10.58 -3.1879,-18.9354 -8.615,-22.9939 -4.7488,-3.5513 -10.0334,-4.788 -13.593,-4.7697 z m -274.1739,1.3808 v 5e-4 c -0.1595,-1e-4 -0.3057,0.01 -0.4362,0.032 -2.087,0.3534 -7.9551,9.6015 -7.9551,9.6015 0,0 1.1423,1.0015 2.4417,0.3535 1.2996,-0.6479 16.4226,-0.4711 15.0441,-4.1233 -1.2921,-3.4238 -6.7033,-5.8638 -9.0945,-5.8642 z m 185.7158,8.5736 c 0,0 -3.4623,1.4372 -11.4588,3.5517 -7.9966,2.1144 -9.5118,3.8675 -10.0888,6.9743 2.2876,4.4515 9.9548,0.6305 16.1686,-2.4392 6.2136,-3.0697 5.379,-8.0868 5.379,-8.0868 z m -24.9282,16.7726 c -2.4744,0.014 -4.9472,0.4881 -7.4358,1.6526 -5.6883,2.6616 -9.9026,7.0856 -11.098,12.1026 -1.1747,4.4608 6.0283,5.6108 11.5208,4.6463 5.4923,-0.9644 7.5845,-6.3805 11.6034,-7.6047 4.0189,-1.2241 14.1789,-1.0668 20.8359,-3.543 6.6569,-2.4761 5.163,-9.3018 1.3503,-6.3898 -3.8128,2.912 -11.4591,2.671 -17.1886,0.8718 -3.2228,-1.012 -6.4068,-1.7539 -9.588,-1.7358 z m -26.4325,25.9121 c -3.8337,0.1834 -6.6346,0.6608 -6.9815,1.4614 1.4651,-0.2296 2.9834,-0.5554 4.6069,-1.0195 0.6176,-0.1766 1.4345,-0.3224 2.3746,-0.4419 z m 88.6561,40.9645 c -4.1542,0.065 -6.3416,1.3887 -7.4327,3.2876 0,0 6.2239,2.4764 9.8821,2.6526 3.6582,0.1762 12.376,-3.8861 12.376,-3.8861 0,0 -7.5122,-1.6506 -12.9222,-2.003 -0.6762,-0.044 -1.3098,-0.061 -1.9032,-0.051 z m -20.113,0.9115 c -0.3656,2e-4 -0.7435,0.02 -1.1286,0.067 -3.0812,0.3709 -4.1937,2.0406 -4.9047,2.8474 0,0 2.6483,1.8455 5.8943,1.3539 3.246,-0.4915 4.6782,-3.283 4.6782,-3.283 0,0 -1.98,-0.9868 -4.5392,-0.985 z" fill="#ffd87c" transform="translate(330.8058,93.874969) translate(-5847.5143,1796.2228)"/>
    <path d="m 5625.1269,-1665.6541 c -1.0061,-0.5859 -2.4846,-2.335 -3.2865,-3.8871 -1.5385,-2.9783 -4.2976,-18.8378 -3.4282,-19.7071 0.2803,-0.2801 -1.1669,-2.0454 -3.2157,-3.9229 -5.5463,-5.083 -3.4718,-6.5483 3.1775,-2.2444 3.5959,2.3273 5.3832,4.175 5.2601,5.4374 -0.1023,1.0517 0.7071,5.6805 1.7988,10.2862 1.4602,6.1585 2.7006,8.9966 4.6882,10.7272 1.4866,1.2942 2.4129,2.8226 2.0586,3.3963 -0.8263,1.3368 -4.6914,1.2898 -7.0528,-0.086 z m 91.9385,-0.1867 c -7.2239,-2.3774 -11.1136,-6.5712 -16.1206,-17.3811 -5.3193,-11.4833 -6.8221,-13.3547 -15.4639,-19.2535 -5.098,-3.4801 -7.3687,-4.3566 -12.1895,-4.7053 -5.3497,-0.387 -6.5157,-0.064 -12.0225,3.3245 -6.4926,3.9958 -18.0507,9.0255 -20.7402,9.0255 -2.7697,0 -2.8083,2.6053 -0.1296,8.6627 1.8943,4.2836 3.7052,6.5416 6.8254,8.5114 2.336,1.4746 4.7268,2.6811 5.3132,2.6811 1.7021,0 1.2303,2.8482 -0.5874,3.5457 -8.5096,3.2655 -17.1271,-3.6002 -20.2902,-16.1655 -1.0195,-4.0509 -1.7511,-4.9802 -4.7829,-6.0765 -4.5094,-1.6305 -4.7848,-4.2941 -0.4441,-4.2941 2.6472,0 3.1351,-0.4063 3.1351,-2.6124 0,-1.9159 0.557,-2.6125 2.09,-2.6125 1.1495,0 2.097,0.3527 2.1058,0.7837 0.01,0.4311 0.3898,1.3721 0.8462,2.091 0.9184,1.4462 11.5061,-1.7646 26.632,-8.0764 9.9284,-4.1429 13.0589,-3.885 25.445,2.0966 10.1823,4.9173 14.2282,9.2477 18.6444,19.9546 4.0209,9.749 8.1306,13.9423 15.1381,15.4451 2.9383,0.6301 6.9237,1.1457 8.8567,1.1457 6.0965,0 19.494,-2.9999 23.2231,-5.2001 4.2286,-2.495 5.5552,-2.6479 5.5552,-0.6403 0,2.4107 -5.9817,6.7154 -11.8059,8.4962 -7.2366,2.2126 -24.1197,2.9368 -29.2334,1.2539 z m 3.7666,-8.1333 c -4.1703,-1.2805 -7.8642,-5.6482 -12.4076,-14.6705 -1.9604,-3.8926 -5.1042,-8.564 -6.986,-10.3808 -3.2451,-3.1325 -3.2867,-3.2652 -0.8097,-2.5658 3.9228,1.1074 6.0083,3.3051 12.1748,12.8288 6.4263,9.9252 9.2804,11.6968 18.8437,11.6968 5.3808,0 5.8394,0.1656 4.4118,1.5933 -1.9854,1.9854 -10.8118,2.8539 -15.227,1.4982 z m 25.8872,-6.3151 c -1.3762,-0.5506 -3.3748,-0.7242 -4.4413,-0.3858 -4.1092,1.3042 -1.3217,-4.9801 3.2597,-7.3493 2.2748,-1.1762 5.917,-1.5099 14.3745,-1.3172 9.3251,0.2126 11.8232,-0.065 14.1286,-1.5705 3.5056,-2.2891 3.9191,-2.2822 3.9191,0.064 0,5.5127 -11.6903,11.7004 -21.9451,11.6158 -3.7359,-0.031 -7.9188,-0.5065 -9.2955,-1.0572 z m 12.9529,-4.0914 c 0.8459,-1.3684 -10.9452,-1.3684 -13.0626,0 -1.0986,0.7099 0.5245,1.0178 5.4247,1.029 3.8454,0.01 7.2827,-0.4543 7.6379,-1.029 z m -35.5918,2.6118 c -1.9888,-1.5374 -1.979,-1.6102 0.4999,-3.7072 2.0388,-1.7251 3.7071,-2.0789 8.6186,-1.8281 3.3494,0.171 6.0913,0.4594 6.0928,0.6409 0.017,1.7129 -2.6666,4.3701 -5.3561,5.3077 -4.5129,1.5732 -7.4448,1.4502 -9.8552,-0.4133 z m 8.9441,-2.6118 c 1.2407,-0.8019 1.023,-1.013 -1.0449,-1.013 -1.437,0 -3.3181,0.4558 -4.1801,1.013 -1.2409,0.8018 -1.023,1.013 1.0449,1.013 1.4368,0 3.3178,-0.4558 4.1801,-1.013 z m -128.7308,-5.2519 c -5.3428,-0.901 -13.1563,-5.7023 -15.7692,-9.6893 -1.1929,-1.8211 -2.9753,-2.7008 -6.4322,-3.1746 -12.2206,-1.675 -23.2936,-11.7561 -29.3881,-26.7558 -2.9131,-7.1695 -7.1816,-27.7045 -6.2583,-30.1102 1.3804,-3.5973 4.6203,2.2252 7.4144,13.326 5.4055,21.4748 12.6522,31.7199 27.4647,38.8303 3.831,1.839 8.1409,4.3873 9.5776,5.6629 3.4304,3.0458 10.5013,7.7575 11.641,7.7575 0.4944,0 0.8988,-1.1757 0.8988,-2.6127 0,-3.4229 0.4992,-3.3068 4.2766,0.9951 1.7423,1.9842 4.0861,3.8991 5.2084,4.2553 1.1224,0.3563 1.7712,1.0842 1.4417,1.6175 -0.6824,1.1038 -3.0701,1.0796 -10.0754,-0.102 z m 128.2081,-4.7002 c -8.5497,-1.8848 -14.632,-4.0293 -28.7378,-10.1328 -15.9421,-6.8982 -22.5963,-9.1755 -26.8112,-9.1755 -1.9217,0 -3.4941,-0.5268 -3.4941,-1.1706 0,-2.7907 12.2869,-0.105 30.3053,6.6242 21.9203,8.1863 31.0498,10.2215 45.8522,10.2215 21.383,0 33.9813,-5.3756 49.8985,-21.2916 11.4528,-11.452 19.0151,-22.1014 21.8505,-30.7698 3.1547,-9.6448 0.4851,-19.567 -6.6287,-24.6356 l -3.8587,-2.7494 -0.5675,2.3547 c -0.9034,3.7494 -5.5862,4.8219 -10.2203,2.3407 -7.8742,-4.2161 -4.1477,-11.8868 5.1676,-10.6374 6.6011,0.8854 13.4658,5.7165 17.4427,12.2751 3.3093,5.4579 3.4476,6.105 3.1349,14.6512 -0.2805,7.664 -0.817,9.9059 -3.7578,15.6957 -4.4207,8.7047 -19.2317,26.4532 -27.6365,33.1179 -13.3936,10.6205 -26.4413,14.9409 -44.6021,14.7687 -6.0869,-0.058 -13.8884,-0.7269 -17.337,-1.487 z m 73.0638,-82.6812 c 0.9101,-2.3719 0.1472,-2.8356 -3.259,-1.9808 -2.8071,0.7046 -2.8421,0.7912 -0.8939,2.2155 2.6102,1.9089 3.3464,1.8673 4.1529,-0.2347 z m -207.6095,71.986 c -1.0055,-0.2235 -1.8282,-1.132 -1.8282,-2.0191 0,-1.1624 0.6559,-1.4368 2.3512,-0.9826 1.2932,0.3466 2.704,0.6365 3.1351,0.6444 1.2937,0.023 0.8832,1.847 -0.523,2.3221 -0.7178,0.2428 -2.1286,0.2586 -3.1351,0.035 z m -17.456,-5.6017 c -2.3668,-1.4394 -3.1221,-2.4446 -2.3893,-3.1777 1.2021,-1.2018 4.2621,0.056 6.3971,2.6288 2.0706,2.4948 -0.2784,2.8166 -4.0078,0.5489 z m 135.2818,-0.044 c -8.6215,-1.1313 -16.1456,-2.537 -16.7203,-3.1239 -1.1039,-1.1271 6.3477,-0.5735 17.1734,1.2761 10.295,1.7589 32.7055,1.1707 44.3181,-1.1631 15.9006,-3.1956 24.357,-7.6015 34.6882,-18.0732 4.6734,-4.7372 9.8084,-10.8498 11.4101,-13.5834 4.1062,-7.0062 4.4889,-5.3264 0.5602,2.4566 -4.4465,8.809 -18.2837,22.7213 -26.3362,26.4799 -7.3708,3.4402 -15.3939,5.4984 -26.9233,6.9067 -12.0678,1.4741 -19.7888,1.2362 -38.1702,-1.1757 z m -129.6042,-4.0374 c -2.9077,-3.213 -0.6339,-4.4864 3.4238,-1.9174 1.8635,1.1801 3.1263,2.5702 2.8058,3.0889 -1.0097,1.634 -4.2401,1.0265 -6.2296,-1.1715 z m 7.8701,-3.6206 c -1.0455,-1.2601 -0.9681,-1.6788 0.4081,-2.2069 1.911,-0.7333 5.0929,1.409 4.2112,2.8355 -0.8763,1.4179 -3.1812,1.1042 -4.6193,-0.6286 z m 105.0138,-0.997 c -3.4485,-0.8091 -9.3268,-2.7661 -13.0628,-4.3489 -7.5006,-3.1777 -15.5876,-3.7732 -28.609,-2.1068 -5.933,0.7593 -7.1038,0.6681 -6.7145,-0.5225 0.83,-2.5358 11.2036,-5.2209 20.171,-5.2211 6.862,-10e-5 10.2932,0.6661 19.1507,3.7182 14.2368,4.9058 22.931,5.0355 40.5645,0.6054 20.6134,-5.1786 36.7009,-14.8032 39.8515,-23.8419 1.0019,-2.8732 0.9008,-3.4784 -0.7252,-4.3487 -1.3167,-0.7046 -2.4751,-0.5825 -3.8229,0.403 -1.6801,1.2284 -1.742,1.6449 -0.473,3.1741 1.2513,1.5079 1.2508,1.8902 0,2.6659 -1.959,1.2107 -4.1478,-0.7119 -4.1478,-3.6434 0,-5.5908 9.8821,-8.1699 13.0102,-3.3956 4.2305,6.4562 -6.9072,20.2239 -22.4313,27.7283 -16.4544,7.9543 -40.2362,12.0717 -52.757,9.134 z m -133.7027,-2.9054 c -1.8079,-2.5819 -2.1264,-5.6052 -0.6843,-6.4968 0.9257,-0.572 5.3281,5.9013 5.3281,7.8341 0,1.8554 -3.0159,0.987 -4.6438,-1.3373 z m 5.7644,-2.5209 c -2.3622,-3.0026 -2.6489,-4.1399 -1.2609,-4.9978 1.0149,-0.6272 3.4312,1.8501 5.2677,5.4 1.7854,3.4524 -1.2117,3.1516 -4.0068,-0.4022 z m 41.3965,-0.3323 c -3.2199,-1.0395 -5.942,-2.9839 -5.942,-4.2447 0,-0.4424 5.0554,-0.5632 11.2341,-0.2682 9.2843,0.4431 11.007,0.2966 9.9275,-0.8441 -2.6403,-2.79 -1.4769,-4.097 3.6574,-4.1089 9.8741,-0.022 16.1049,-2.0159 10.7114,-3.4264 -1.1495,-0.3005 -2.0899,-1.3358 -2.0899,-2.3005 0,-1.5604 1.3248,-1.7153 12.0107,-1.4041 8.1597,0.2377 12.0127,0.7359 12.0174,1.5539 0.01,1.6768 -5.7145,3.4986 -10.9935,3.4986 -2.6511,0 -4.9386,0.6265 -5.7184,1.5661 -0.7147,0.8613 -5.1223,3.4824 -9.7942,5.8246 -9.0421,4.5332 -18.8173,6.1559 -25.0205,4.1537 z m 161.2671,-1.8781 c 0.01,-2.6635 3.3011,-7.2326 7.3747,-10.238 3.2103,-2.3685 8.5992,-9.2274 9.5938,-12.2113 0.6417,-1.9258 3.8121,-0.047 4.4922,2.6622 0.3465,1.3799 -0.086,4.2216 -0.9607,6.3148 -1.9592,4.689 -4.2506,5.1625 -3.2652,0.6746 0.6266,-2.8525 -0.02,-2.4443 -7.2317,4.5855 -4.3562,4.2443 -7.92,8.2398 -7.92,8.879 0,0.6391 -0.4701,1.162 -1.0453,1.162 -0.5743,0 -1.0415,-0.8229 -1.0378,-1.8288 z m -196.2603,-0.4703 c -1.6906,-1.6903 -1.5941,-5.016 0.1459,-5.016 1.152,0 3.8249,4.0511 3.8249,5.7968 0,0.9712 -2.7623,0.4282 -3.9708,-0.7808 z m 96.1647,-7.6878 c -3.5886,-2.5133 -2.787,-3.336 2.7331,-2.8057 4.4666,0.4292 5.4714,0.1248 8.6215,-2.6126 5.6028,-4.8689 8.2946,-5.8709 15.5829,-5.8002 6.8163,0.066 10.9915,-1.2719 13.5364,-4.3384 1.0839,-1.3059 0.4201,-1.2169 -3.2111,0.4307 -5.8746,2.6655 -7.4421,2.6141 -14.9987,-0.4922 -7.1571,-2.9421 -10.9509,-2.4841 -17.7733,2.1458 -2.1577,1.4644 -4.1887,2.3972 -4.5133,2.0728 -1.1552,-1.1555 6.521,-7.8768 10.9107,-9.5533 4.8443,-1.8501 7.7084,-1.6116 15.1163,1.2581 4.6392,1.7973 4.9988,1.7949 9.9274,-0.068 7.302,-1.6763 12.6791,-15.1116 11.7037,-3.3561 -0.8797,10.6101 -7.3338,16.3864 -18.3084,16.3864 -7.2517,0 -9.4307,0.7969 -14.7045,5.3783 -3.9735,3.4514 -10.7352,4.078 -14.6227,1.355 z m -115.147,-3.5296 c -1.306,-2.4397 -1.4259,-6.3388 -0.1954,-6.3388 0.4875,0 1.6255,1.8811 2.5282,4.1801 1.3616,3.4665 1.3951,4.1801 0.1954,4.1801 -0.7955,0 -1.9335,-0.9096 -2.5282,-2.0214 z m 31.3909,0.5471 c -0.6733,-0.8109 -1.493,-3.1361 -1.8228,-5.1672 -0.4486,-2.7621 -1.292,-3.9418 -3.346,-4.68 -4.411,-1.5852 -11.3724,-7.153 -14.7181,-11.7719 -2.8005,-3.8658 -3.0889,-5.0193 -3.0076,-12.0338 0.047,-4.267 0.4867,-8.0032 0.972,-8.3029 0.485,-0.2996 1.5674,1.0981 2.4067,3.1059 1.1344,2.7143 2.4158,3.8835 4.996,4.5582 3.3591,0.8786 3.3966,0.9466 1.1864,2.1392 -1.6066,0.8669 -3.0974,0.9219 -5.0341,0.1855 -2.5534,-0.9708 -2.6983,-0.8767 -2.0079,1.3061 1.3958,4.4143 3.7034,6.8808 11.442,12.2305 l 7.7374,5.3491 2.6476,-5.2238 c 3.8178,-7.5346 7.6696,-11.5029 20.7807,-21.4104 6.4091,-4.8431 13.9542,-10.97 16.7667,-13.6152 2.8125,-2.6451 5.3419,-4.5812 5.621,-4.3023 0.2786,0.2789 -0.9629,2.7979 -2.7596,5.5977 -3.1887,4.9689 -9.5998,11.3983 -25.3368,25.4088 -9.0536,8.0606 -13.4661,15.7056 -13.4661,23.3325 0,4.8978 -0.9115,5.8799 -3.0575,3.294 z m -26.6658,-1.8933 c -1.9822,-2.8295 -2.0982,-4.9926 -0.2688,-4.9926 2.0934,0 3.8672,2.2524 3.8672,4.9116 0,3.042 -1.5011,3.0757 -3.5984,0.081 z m 4.8522,-3.1115 c -1.5111,-1.5109 -1.6301,-2.9261 -0.246,-2.9261 0.5548,0 1.5118,0.9406 2.1271,2.0901 1.2313,2.3018 0.091,2.8085 -1.8811,0.836 z m 67.7165,-4.4723 c 0,-0.8505 1.9989,-2.5494 4.4417,-3.7755 2.4425,-1.226 5.5088,-3.2077 6.814,-4.4037 2.1605,-1.9801 2.5201,-2.0271 4.0205,-0.5265 1.3366,1.3363 1.4152,2.0832 0.4167,3.9488 -2.3879,4.4618 -15.6929,8.4948 -15.6929,4.7569 z m 19.5942,0.8575 c -2.1747,-0.6058 -2.4024,-2.2917 -0.4123,-3.0553 0.7788,-0.299 4.4232,-0.3964 8.0987,-0.2165 6.1087,0.2991 6.4451,0.4324 3.9204,1.5531 -3.4647,1.5377 -9.2055,2.3876 -11.6068,1.7187 z m -31.0893,-2.8467 c 0,-0.7951 2.0716,-3.0288 4.6037,-4.9639 6.154,-4.7031 7.2697,-6.5728 5.5943,-9.3762 -1.125,-1.8823 -1.0308,-2.3731 0.653,-3.3962 9.07,-5.5107 15.9063,-13.505 9.9257,-11.6069 -1.5995,0.5077 -2.0841,0.3099 -1.7469,-0.7133 0.6224,-1.8881 4.7417,-2.4135 6.6307,-0.8458 0.8305,0.6893 1.5099,2.1832 1.5099,3.3198 0,2.4072 -5.3495,7.8572 -10.2646,10.4579 -2.7818,1.4719 -3.2314,2.1541 -2.4187,3.6722 1.4658,2.7394 -0.9659,7.667 -5.7163,11.5827 -4.1583,3.4277 -8.7708,4.4109 -8.7708,1.8697 z m 173.0626,-0.2051 c -0.9607,-2.5034 0.4498,-6.8474 3.4469,-10.6164 2.3139,-2.91 2.7921,-3.1297 3.4111,-1.5675 1.599,4.0359 0.8978,9.261 -1.5521,11.5623 -2.8663,2.6928 -4.4404,2.8772 -5.3059,0.6216 z m -255.3849,-5.2621 c -0.5695,-1.0835 -1.3596,-3.9266 -1.7562,-6.3182 -0.3957,-2.3916 -1.5552,-5.104 -2.5752,-6.0277 -1.6828,-1.5227 -2.4315,-1.5327 -8.0229,-0.1073 -8.1188,2.0698 -12.9546,1.7382 -12.9578,-0.8886 0,-4.0968 7.8894,-13.1859 11.4508,-13.1859 0.5977,0 1.0879,-0.6895 1.0879,-1.5322 0,-2.9906 3.4162,-8.6336 6.2345,-10.2987 2.8546,-1.6863 18.6349,-4.8894 24.0877,-4.8894 2.1944,0 4.3889,-1.6145 9.2325,-6.7925 3.4948,-3.736 6.8408,-6.7926 7.4348,-6.7926 2.4373,0 0.3878,5.0205 -3.9449,9.6663 -3.6333,3.8958 -2.4408,2.45 4.6211,-0.7056 7.1346,-3.188 17.9997,-24.2531 16.4818,-11.0508 -0.8308,7.2154 -3.4454,11.5933 -10.0384,16.8044 -6.6566,5.2617 -5.4072,5.2006 3.6469,-0.1783 3.957,-2.3509 7.4793,-3.9891 7.8279,-3.6405 1.142,1.1415 -3.4789,6.215 -8.4315,9.2587 -5.1908,3.1903 -15.542,5.0648 -16.7929,3.041 -0.3753,-0.6066 2.029,-3.203 5.3429,-5.7699 3.3136,-2.5668 7.4364,-6.2232 9.1608,-8.1254 l 3.1347,-3.4583 -4.1326,3.5048 c -5.5309,4.6915 -14.6186,8.7737 -18.0639,8.115 -2.4739,-0.4729 -12.9253,2.208 -23.8203,6.1098 -2.6379,0.9449 -4.9252,2.7102 -6.1107,4.717 -1.0417,1.7637 -1.7307,3.3142 -1.5317,3.4454 0.1998,0.1312 1.6671,0.7989 3.2613,1.4836 1.9281,0.8285 3.1045,2.28 3.5161,4.3382 0.3401,1.7013 1.5055,3.8955 2.5887,4.8761 1.4876,1.3464 1.9665,3.2147 1.954,7.6298 -0.017,6.8818 -1.2761,9.8322 -2.8854,6.7718 z m -11.2305,-16.9705 5.2014,-0.6747 -2.991,-2.3512 c -1.645,-1.2932 -3.2798,-2.3357 -3.6336,-2.3165 -0.8949,0.049 -4.5111,3.2517 -6.3898,5.6615 -1.4494,1.8578 -1.4093,1.9474 0.5217,1.1828 1.1498,-0.455 4.4307,-1.1309 7.2913,-1.5019 z m 167.7526,12.6492 c 0,-0.431 2.0559,-1.6274 4.564,-2.6585 2.5077,-1.0313 5.68,-3.1051 7.0499,-4.6087 2.2231,-2.4408 2.2657,-2.6444 0.4001,-1.9003 -1.1495,0.4585 -3.9711,1.2771 -6.2703,1.8191 -2.2988,0.5421 -5.5018,1.3879 -7.1175,1.8797 -2.4611,0.7489 -2.8827,0.6081 -2.5992,-0.8681 0.2123,-1.1058 2.7491,-2.5889 6.8109,-3.9823 3.56,-1.2211 7.9945,-3.5005 9.854,-5.0653 3.1876,-2.6821 3.4598,-2.7381 4.7482,-0.9764 3.3677,4.606 0.3873,11.7345 -6.25,14.9476 -4.413,2.1361 -11.1979,2.993 -11.1901,1.4132 z m -29.0189,-1.5196 c 0.2307,-0.6922 4.0318,-3.0811 8.4472,-5.3088 4.7664,-2.405 8.0277,-4.7027 8.0277,-5.6561 0,-1.0911 -0.6696,-1.4305 -2.0899,-1.0591 -2.7736,0.7253 -2.7033,-1.0123 0.076,-1.8946 1.4698,-0.4666 2.6352,-0.069 3.6241,1.2358 2.0226,2.6692 1.8747,4.1855 -0.6554,6.7157 -4.6164,4.6165 -18.5727,9.3943 -17.4305,5.9671 z m -20.1004,-0.7464 c 0,-0.5279 1.5931,-1.9443 3.5398,-3.1476 5.1235,-3.1665 6.6503,-5.2117 4.7616,-6.3789 -2.5519,-1.5772 0.3565,-3.5724 3.0815,-2.1139 4.2916,2.2969 1.9147,7.9751 -4.7829,11.4246 -2.7546,1.4187 -6.6,1.5444 -6.6,0.2158 z m 20.4243,-12.5498 c -0.3116,-0.5044 0.726,-1.3693 2.3059,-1.922 1.5799,-0.5527 6.7424,-2.7756 11.4719,-4.9397 8.029,-3.6738 10.0445,-5.754 5.5747,-5.754 -1.0452,0 -2.4658,-0.681 -3.1567,-1.5135 -1.0232,-1.233 -0.2762,-2.6907 4.0308,-7.8658 5.7045,-6.8548 7.9019,-10.3422 7.0515,-11.1922 -0.2952,-0.2954 -2.2701,0.035 -4.3887,0.7341 -6.2189,2.0524 -6.4111,-0.3776 -0.5739,-7.2541 8.8426,-10.4166 10.8013,-14.9256 5.2334,-12.0463 -3.4338,1.7758 -4.6935,1.4812 -3.7851,-0.8856 0.7198,-1.876 7.62,-5.1489 9.9325,-4.711 2.3953,0.4535 2.8874,6.1011 0.8716,9.9992 -0.8584,1.6601 -2.9167,4.4699 -4.574,6.2439 l -3.013,3.2256 2.8609,0.5723 c 7.27,1.4539 3.914,9.8818 -7.4205,18.6355 l -3.6579,2.8247 3.311,0.049 c 1.8211,0.027 4.0545,0.3345 4.9638,0.6834 2.406,0.9233 2.0224,4.9243 -0.7191,7.5 -4.5594,4.283 -24.7653,10.1304 -26.3191,7.6165 z m -128.914,-7.1294 c 0.1967,-1.7109 0.9647,-2.8739 1.8983,-2.8739 0.9333,0 1.7016,1.163 1.8982,2.8739 0.2688,2.3401 -0.083,2.8738 -1.8982,2.8738 -1.8153,0 -2.1673,-0.5337 -1.8983,-2.8738 z m 6.5059,0.2541 c -0.8009,-3.1893 0.7541,-5.2676 3.2301,-4.3176 2.2939,0.8804 1.6968,6.2734 -0.7462,6.7365 -1.2071,0.2288 -2.0175,-0.5609 -2.4839,-2.4189 z m 174.0895,0.7847 c 0,-0.4344 1.3787,-1.4002 3.0639,-2.146 1.6852,-0.746 5.0943,-3.237 7.5762,-5.5357 2.9065,-2.6918 3.4929,-3.561 1.648,-2.4421 -1.5757,0.9555 -6.3625,2.1295 -10.6374,2.6089 -4.2747,0.4794 -9.7221,1.8663 -12.1046,3.0818 -6.1202,3.1222 -7.4903,2.0825 -3.0822,-2.3388 3.8187,-3.8303 9.3927,-6.0073 15.4064,-6.0175 4.9435,-0.01 11.5105,-3.7202 13.9768,-7.8995 1.1684,-1.9808 2.4934,-3.6015 2.9447,-3.6015 1.1257,0 2.0772,3.915 2.0941,8.6184 0.02,4.8301 -4.863,10.6939 -11.7731,14.1451 -4.5939,2.2942 -9.1128,3.0514 -9.1128,1.5269 z m -152.8332,-1.3838 c -1.9163,-1.1161 -2.4435,-3.5929 -0.9598,-4.5097 1.3501,-0.835 8.5366,2.7751 8.5366,4.2887 0,1.6104 -4.9433,1.7547 -7.5768,0.221 z m 93.5288,-5.9523 c 3.8797,-4.0403 7.0538,-7.8619 7.0538,-8.4926 0,-0.6306 0.7056,-1.1466 1.5677,-1.1466 2.289,0 1.9234,3.7835 -0.7101,7.3453 -2.5999,3.5164 -8.5054,7.7619 -12.3527,8.8803 -2.0324,0.5909 -1.0465,-0.8714 4.4413,-6.5864 z m -10.7114,-5.4469 c 0,-0.568 1.646,-5.0089 3.6576,-9.8685 2.0116,-4.8596 3.6376,-9.4501 3.6131,-10.2011 -0.025,-0.751 -1.8527,0.6936 -4.0631,3.2101 -2.3328,2.6564 -4.5155,4.2679 -5.2043,3.8423 -1.7746,-1.0968 2.7119,-8.46 7.9896,-13.1125 3.9365,-3.4697 4.6071,-4.7546 6.0673,-11.6208 2.8012,-13.1725 3.6434,-23.665 2.5294,-31.5182 -1.9241,-13.5676 -4.0968,-11.4929 -4.1294,3.9432 -0.015,5.7475 -0.4779,13.2332 -1.0349,16.6347 -1.1209,6.8437 -4.9658,15.4217 -7.2218,16.1114 -1.5956,0.4878 -1.4861,-0.3398 1.3596,-10.2784 0.9052,-3.1611 1.9031,-11.6257 2.2178,-18.8102 0.7051,-16.108 1.1071,-18.6961 3.2764,-21.0929 4.7496,-5.2485 9.6268,0.088 11.8739,12.9913 1.8828,10.8134 -1.8116,30.5518 -7.2671,38.8248 -1.4306,2.1696 -1.7481,3.6881 -1.1179,5.3455 1.6865,4.436 -3.4292,18.2694 -9.1726,24.8033 -1.7743,2.0187 -3.3736,2.396 -3.3736,0.796 z m 53.8565,-3.5124 c -1.8725,-1.3692 -1.8706,-1.5282 0.062,-5.4809 2.0415,-4.1755 3.57,-5.0159 11.3127,-6.2192 2.6443,-0.4108 5.1262,-1.7377 6.9973,-3.7407 2.8941,-3.1779 2.7782,-3.751 3.5866,0.558 0.8986,4.7909 -1.9922,10.7676 -6.7372,13.9279 -4.0824,2.7191 -12.1187,3.2233 -15.2206,0.9549 z m 12.6432,-4.9472 c 4.7741,-2.9505 4.42,-4.0117 -0.925,-2.7741 -6.9943,1.6193 -9.144,2.686 -9.144,4.5371 0,2.2283 5.0383,1.346 10.069,-1.763 z m -84.7281,-4.3253 c -2.6112,-3.7279 -1.9208,-8.4921 2.4562,-16.9505 2.4552,-4.7449 3.865,-8.725 3.5359,-9.9839 -0.8047,-3.0771 1.2159,-2.5508 4.3057,1.1218 3.0062,3.5725 3.6692,10.2465 1.4928,15.0233 -1.9792,4.3435 -2.9674,3.0721 -2.9674,-3.8173 0,-7.3739 -0.7889,-7.0571 -4.0051,1.6082 -2.69,7.2471 -2.8195,9.8842 -0.638,12.9984 1.5187,2.1682 1.4876,2.3226 -0.4635,2.3226 -1.1492,0 -2.822,-1.0451 -3.7166,-2.3226 z m 34.9484,0.3883 c 0,-0.7146 1.9168,-4.7913 4.2592,-9.0595 2.3426,-4.2682 3.961,-8.2432 3.5962,-8.8334 -1.1432,-1.8491 0.5144,-3.4111 2.1655,-2.0409 2.0714,1.7189 1.8373,4.7146 -0.7764,9.9479 -2.3837,4.7731 -9.2445,12.184 -9.2445,9.9859 z m -1.045,-15.3946 c 0,-0.3347 1.3892,-3.7733 3.0869,-7.6412 2.1972,-5.0062 3.9879,-12.4344 6.2145,-25.778 1.7202,-10.3099 4.2112,-22.5073 5.5348,-27.1055 2.3152,-8.0412 2.5338,-8.3723 5.7336,-8.6823 3.8386,-0.3719 5.0965,1.2618 6.1778,8.0237 0.7007,4.3813 -1.0438,22.3435 -2.6771,27.5678 -0.4941,1.5805 -0.5479,2.8737 -0.1197,2.8737 1.1693,0 9.5479,-11.5255 11.205,-15.4139 1.7373,-4.0752 3.21,-4.3212 4.5633,-0.7622 1.419,3.7334 1.5366,17.1393 0.1618,18.5141 -0.8266,0.8265 -0.6782,1.4818 0.5364,2.37 2.3466,1.7158 1.0646,7.8308 -2.3056,10.9967 -1.9002,1.7854 -3.88,2.4713 -7.2685,2.5184 -2.5608,0.035 -4.7876,-0.3986 -4.9482,-0.9648 -0.1606,-0.5662 2.0591,-2.16 4.933,-3.5418 3.0221,-1.966 7.2824,-1.8061 2.3512,-3.4989 -3.5474,-1.2179 -3.5994,-2.5579 -0.2735,-7.0657 2.4153,-3.2736 4.516,-9.9692 3.4598,-11.0257 -0.6444,-0.6442 -11.4457,12.5406 -13.4805,16.455 -2.2699,4.3664 -3.461,2.0696 -1.8632,-3.5932 1.4384,-5.0986 1.5405,-30.3251 0.1381,-34.1063 -0.7698,-2.0752 -1.2791,-0.9885 -3.1832,6.7926 -1.2465,5.0947 -3.2495,15.0624 -4.4506,22.1504 -2.5353,14.9608 -4.0227,19.634 -8.4398,26.5174 -2.7968,4.3583 -5.0863,6.3387 -5.0863,4.3997 z m 44.2693,-8.3799 c 0.4411,-7.9906 8.944,-9.2404 16.9673,-16.0918 2.3561,-2.0116 4.5254,-4.3629 4.8209,-5.225 1.0508,-3.0646 2.061,-0.06 2.2248,6.6167 0.1367,5.5743 -0.2561,7.3477 -2.2162,10.0067 -2.3196,3.1466 -1.9076,4.4914 0.6059,1.9778 2.1876,-2.1875 1.4071,0.7775 -1.0151,3.8569 -2.5877,3.2897 -9.4821,6.7817 -13.5265,6.7793 -7.6346,0 -7.9136,-3.3143 -7.8611,-7.9206 z m 12.5926,3.1315 c 0.9059,-0.3476 1.4044,-1.0247 1.1079,-1.5047 -0.2968,-0.4799 0.8476,-2.8994 2.5429,-5.3767 1.6952,-2.4773 3.4054,-6.1077 3.8001,-8.0676 2.5122,-7.1673 -3.9786,0.4208 -6.4086,2.4824 -8.2055,6.9612 -10.3009,9.6212 -9.4548,11.167 1.8381,3.3585 5.7942,2.3045 8.4125,1.2996 z" fill="#030303" transform="translate(330.8058,93.874969) translate(-5847.5143,1796.2228)"/>
</svg>