<?xml version="1.0" ?><svg xmlns="http://www.w3.org/2000/svg" width="321.16418mm" height="124.34462mm" viewBox="0 0 321.16418 124.34462">
    <path d="m 199.79978,653.8401 c -10.62895,4.80664 -22.10398,2.76026 -31.83395,-0.52348 -9.72998,-3.28374 -12.26823,-6.23434 -13.696,-12.897 -1.42777,-6.66266 -1.37489,-15.03858 -1.37489,-15.03858 0,0 -16.1285,-26.22233 -17.97931,-31.64762 -1.85081,-5.4253 -1.90369,-16.22832 -1.90369,-16.22832 0,0 -8.40797,-4.28311 -7.87917,-12.23073 0.52881,-7.94761 3.22571,-32.21871 15.70546,-41.49884 12.47976,-9.28014 41.08802,-7.51929 46.90484,-4.09278 5.81683,3.4265 24.58935,31.45726 31.93971,37.92955 7.35036,6.47229 30.72345,16.79941 49.12581,17.60845 18.40235,0.80903 55.78876,1.42773 69.00883,6.94821 13.22007,5.52049 53.62063,35.64524 64.40821,39.83318 10.78758,4.18794 19.98877,8.80425 27.02185,7.85242 7.03308,-0.95183 21.5223,-12.61147 29.24282,-15.32412 7.72051,-2.71265 38.65555,-8.89941 40.98227,-5.37772 2.32672,3.52169 1.00465,6.80543 -1.42781,10.80302 -2.43246,3.99759 -23.63746,20.46388 -23.63746,20.46388 0,0 31.04068,11.75483 32.25696,13.99157 1.21628,2.23675 -0.42306,7.18615 -6.61005,10.32712 -6.18699,3.14097 -40.87648,0.99938 -53.35622,-2.09398 -12.47975,-3.09337 -24.37782,-7.56686 -24.37782,-7.56686 0,0 -56.21177,4.37831 -63.72078,4.37831 -7.50901,0 -117.76448,0.76145 -126.70126,-0.61867 -8.93678,-1.38013 -32.09835,-4.99701 -32.09835,-4.99701 z" fill="#BEC3D1" paint-order="markers stroke fill" transform="translate(268.81091,3.0240058) matrix(0.78055044,0,0,0.78055044,-346.66318,-403.33222)"/>
    <path d="m 464.4612,670.33596 c -17.7136,-3.25031 -29.3602,-6.39898 -35.7761,-9.67214 -5.6809,-2.89818 -6.8928,-2.85401 -24.2239,0.88287 -9.386,2.02379 -19.2789,2.28972 -82.3957,2.21487 -71.0411,-0.0843 -89.864,-0.95099 -107.3272,-4.94214 -7.3297,-1.67517 -8.7649,-1.67154 -11.3599,0.0287 -5.5796,3.65589 -16.6848,3.94879 -28.2977,0.74633 -15.1523,-4.17845 -20.0148,-7.68297 -22.5622,-16.26109 -1.1315,-3.81015 -2.0573,-9.14524 -2.0573,-11.85568 0,-2.80587 -0.8822,-5.66023 -2.0486,-6.62825 -5.4347,-4.51042 -18.8143,-35.18248 -17.5148,-40.15182 0.3487,-1.33341 -1.0407,-3.81942 -3.3743,-6.03734 -2.1818,-2.07378 -4.8405,-5.44307 -5.9082,-7.48732 -1.9327,-3.70083 -1.9838,-3.71295 -11.8809,-2.8161 -6.56563,0.59496 -9.66032,1.77282 -9.978398,-0.43292 -0.295216,-2.04721 3.577308,-2.66975 9.477608,-3.59035 1.53198,-0.23903 10.27837,-1.74377 11.3179,-2.15204 1.08402,-0.42575 0.63987,-1.30153 0.23198,-1.46795 -0.99376,-0.40544 -4.19942,-1.62655 -8.65559,-2.54047 -7.63106,-1.56507 -11.33533,-2.69156 -10.92878,-4.44102 0.39321,-1.69206 4.07203,-1.34421 11.25258,-0.21776 11.7116,1.83726 11.9768,1.67108 13.086,-8.20006 1.5326,-13.63959 10.226,-24.89259 22.8915,-29.63136 9.2396,-3.45697 26.586,-3.80549 35.6522,-0.71631 7.6866,2.61908 20.096,13.74399 29.0257,26.02126 9.9965,13.74396 16.2052,19.17608 27.0779,23.69096 12.5505,5.21168 20.8957,6.50878 48.2762,7.50368 12.4667,0.453 27.4287,1.7598 33.249,2.90401 20.8529,4.09949 41.9412,14.30532 67.3188,32.57929 15.6786,11.28992 30.0777,17.78035 39.5882,17.84455 6.1803,0.0417 7.3898,-0.47676 12.8475,-5.50751 7.8952,-7.27757 12.0292,-9.29788 25.2968,-12.36274 23.0464,-5.32379 35.0541,-5.12032 36.4944,0.6184 1.7996,7.17005 -7.5592,21.85542 -17.0588,26.76786 -3.8455,1.98858 -5.0121,4.53006 -2.0795,4.53006 3.0803,0 26.1046,12.12064 26.8843,14.15258 1.0863,2.8306 -2.478,9.16264 -6.8539,12.17618 -9.5136,6.55178 -21.1342,7.85501 -39.6868,4.4508 z m 33.7599,-9.45204 c 3.1679,-1.43766 5.4201,-3.16352 5.0051,-3.83527 -1.2146,-1.96517 -22.97,-10.66063 -37.4044,-14.95017 -14.1395,-4.20194 -16.2562,-5.34772 -14.6574,-7.93458 0.7126,-1.1529 3.5544,-1.38672 9.7839,-0.805 8.2335,0.76886 17.5129,-0.94282 17.5129,-3.23041 0,-0.49071 -2.85,-1.65863 -6.3333,-2.59537 -3.4833,-0.93676 -6.9033,-2.21474 -7.6,-2.83996 -2.1667,-1.94443 9.7316,-1.25684 14.7845,0.85438 4.7026,1.96487 7.1488,1.71284 7.1488,-0.7365 0,-0.69006 -0.7853,-1.25464 -1.7452,-1.25464 -0.9597,0 -2.9097,-0.85962 -4.3333,-1.91024 -4.2177,-3.11302 -0.9808,-4.86091 6.0687,-3.27694 5.4188,1.21759 6.2136,1.06996 8.3333,-1.54781 4.0288,-4.97539 3.0081,-5.70021 -6.6568,-4.72711 -15.6569,1.57642 -31.5481,5.9416 -38.3744,10.54118 -18.5575,12.50402 -23.9605,13.85592 -36.4345,9.11617 l -6.5043,-2.47141 0.132,12.49542 c 0.1053,9.90395 0.5057,12.3522 1.9324,11.80475 0.9899,-0.37987 3.2508,-0.69068 5.0241,-0.69068 2.5296,0 3.2243,-0.70127 3.2243,-3.25464 0,-4.90027 1.7191,-5.05585 7.6523,-0.69259 6.933,5.09866 13.6133,7.48647 31.681,11.32426 18.69,3.96996 33.8774,4.1944 41.7599,0.61716 z m -153.9481,-6.82899 27.8118,0.49855 -0.9824,-5.81426 c -0.5402,-3.19785 -1.812,-8.16578 -2.826,-11.03986 -1.014,-2.87408 -1.5772,-5.49208 -1.2514,-5.81779 2.1717,-2.1718 8.2341,8.52347 9.5713,16.8858 0.8645,5.40675 0.924,5.45569 6.6203,5.45569 h 5.748 l 0.9189,-6.1279 c 1.3568,-9.04832 -0.1849,-18.52308 -4.5225,-27.79223 -3.5884,-7.66836 -4.8148,-8.88392 -18.0556,-17.89685 -28.7618,-19.57783 -35.5583,-21.54464 -78.8442,-22.81655 -29.1798,-0.85743 -34.4962,-1.35203 -42.6666,-3.96945 -14.0756,-4.50918 -21.5384,-9.12074 -30.0856,-18.59096 l -7.7511,-8.588 -0.9391,3.89097 c -1.3733,5.69041 -6.5294,15.52735 -10.7972,20.59925 -4.7446,5.63864 -18.06491,15.11732 -24.82361,16.93724 -8.9256,2.40341 -8.36099,-0.23985 1.20391,-4.9486 16.4062,-8.07677 27.0256,-22.79494 29.3332,-39.09669 0.78184,-5.52324 -1.07535,-8.79567 -7.3757,-14.62867 -10.0044,-9.26234 -18.8467,-12.42764 -31.1302,-11.14375 -8.8129,0.92113 -18.6638,4.80708 -23.4167,9.23732 -5.0531,4.71014 -9.4648,14.8172 -11.1228,25.48232 -1.3548,8.71437 -1.2703,10.31997 0.7017,13.32969 2.7173,4.14701 11.3893,8.78198 16.4834,8.80994 4.9372,0.0271 7.6344,1.87488 6.6149,4.5317 -1.3341,3.47652 -7.5203,5.21224 -12.8273,3.59908 -2.5294,-0.76886 -4.7646,-1.23224 -4.967,-1.02978 -0.2025,0.20248 2.767,6.62643 6.5988,14.27546 9.1146,18.1943 18.7018,27.99713 38.967,39.84333 8.0667,4.71545 15.0235,8.74328 15.4596,8.95075 3.1364,1.49192 28.0422,6.16969 37.8654,7.11184 6.6046,0.63345 27.9084,0.74946 47.3417,0.2578 19.4333,-0.49166 47.8487,-0.66958 63.1451,-0.39539 z m -111.9803,-6.54608 c -9.3096,-3.53949 -14.028,-23.42591 -9.0424,-38.11079 2.6348,-7.76046 10.964,-20.50833 13.3997,-20.50833 2.9264,0 2.1047,4.82832 -2.4488,14.38893 -3.2157,6.75203 -4.394,11.28655 -4.8068,18.49983 -0.6302,11.01369 1.4475,19.11124 4.9036,19.11124 4.3684,0 5.3403,-2.51849 3.1364,-8.12879 -2.545,-6.47913 -1.3521,-7.98498 3.0498,-3.84968 2.4369,2.28938 3.7448,2.74404 4.815,1.67383 1.0702,-1.07021 0.3027,-2.92112 -2.8258,-6.81407 -5.3459,-6.6522 -4.3083,-9.43946 2.1052,-5.65541 l 4.5493,2.68419 0.013,-4.28838 c 0.013,-2.3586 -1.3058,-8.04504 -2.9184,-12.63654 -2.2318,-6.35466 -2.561,-8.71919 -1.3784,-9.90183 2.2743,-2.27419 6.0786,1.65429 9.6566,9.97165 3.4245,7.96039 3.6216,15.92872 0.6174,24.973 -3.8349,11.54622 -15.7757,21.2716 -22.8258,18.59115 z m -68.4981,-44.27892 c 0.15779,-0.50664 3.9666,-2.07573 8,-3.76019 15.2139,-6.35384 22.0899,-13.31385 31.3174,-31.70046 5.6056,-11.16936 9.5063,-13.07006 8.2954,-4.04204 -1.3923,10.38042 -17.1908,29.14792 -29.6128,35.17802 -5.8556,2.8425 -19.26487,8.38612 -18,4.32467 z m -28,-38.73256 c -7.4412,-3.7646 -1.0352,-10.86409 7,-7.7578 4.7931,1.85296 4.9301,6.40244 0.2465,8.18316 -4.0987,1.55832 -3.2241,1.60965 -7.2465,-0.42536 z m 18.2683,-13.78377 c -1.5448,-1.5448 -1.0569,-5.39618 0.8881,-7.01039 2.2893,-1.9 5.291,1.21169 4.605,4.77382 -0.4774,2.47915 -3.8695,3.86024 -5.4931,2.23657 z m -15.0817,-2.39199 c -1.2131,-3.16119 0.5033,-6.35378 3.1427,-5.8455 1.476,0.28426 2.3373,1.66504 2.3373,3.74695 0,3.80084 -4.2083,5.41241 -5.48,2.09855 z m 260.683,101.70249 c 0.805,-2.30944 1.4637,-8.50285 1.4637,-13.76316 v -9.5642 l -5.4837,-3.59028 c -4.3203,-2.8286 -5.2723,-3.091 -4.4871,-1.23684 4.1179,9.72386 4.8631,13.65218 4.3033,22.68678 -0.4441,7.17146 -0.1678,9.66666 1.0707,9.66666 0.9181,0 2.328,-1.88953 3.1331,-4.19896 z m -211.8696,2.31948 c 0,-0.30038 -4.65,-3.07681 -10.3334,-6.16984 -5.6833,-3.09302 -13.1833,-7.64626 -16.6666,-10.11829 -3.4834,-2.47204 -6.3334,-4.27189 -6.3334,-3.99967 0,1.63268 5.5857,12.71308 6.9845,13.85512 3.9146,3.19615 26.3489,8.67314 26.3489,6.43268 z" transform="translate(268.81091,3.0240058) matrix(0.78055044,0,0,0.78055044,-346.66318,-403.33222)" fill="#None"/>
</svg>