<?xml version="1.0" ?><svg xmlns="http://www.w3.org/2000/svg" width="230.18463mm" height="123.0651mm" viewBox="0 0 230.18463 123.0651">
    <path d="m 4619.5367,977.66711 c 8.6005,4.79361 9.7523,8.09818 23.8864,10.02025 14.134,1.92206 40.7462,-4.27604 47.7773,-3.49856 7.031,0.77745 14.254,4.79433 16.2457,6.93234 1.9917,2.13802 3.6715,3.56336 3.6715,3.56336 0,0 20.5411,1.27418 29.4438,6.8676 8.9028,5.5933 21.3216,13.6109 27.0808,23.1995 5.7592,9.5887 6.6231,24.1229 4.7753,31.6599 -1.8477,7.5371 -10.7265,16.9098 -21.6449,13.476 -10.9185,-3.4338 -6.2152,-6.5004 -3.8155,-15.1605 2.3996,-8.66 2.8796,-20.4083 -10.4145,-26.0449 -13.2942,-5.6366 -28.2921,-8.2281 -28.2921,-8.2281 0,0 -6.783,5.9165 -11.7343,12.0938 -4.9514,6.1774 -26.0333,9.5022 -38.4636,11.8778 -12.4302,2.3755 -24.6205,-0.7343 -30.4997,-2.0517 -5.8792,-1.3173 -21.573,-14.8149 -21.573,-14.8149 0,0 -13.5101,4.7079 -22.8207,3.9089 -9.3108,-0.7991 -25.6045,-0.907 -27.2362,-12.4178 -1.6318,-11.5107 3.4686,-23.61008 3.4686,-23.61008 0,0 -8.6867,-17.19054 -7.055,-24.83554 1.6318,-7.64503 6.5991,-2.39718 8.6628,0.0648 2.0637,2.46197 7.031,5.78776 7.031,5.78776 0,0 13.3422,-6.50042 19.9892,-6.26287 6.6471,0.23757 12.0223,0.69109 12.0223,0.69109 0,0 10.2706,-13.32481 13.1502,-15.76517 2.8796,-2.44036 5.2552,-1.64132 5.9752,3.39058 0.7198,5.0319 0.3694,19.15647 0.3694,19.15647 z" fill="#d97b4a" transform="translate(171.72367,50.20628) translate(-4717.5597,-999.63882)"/>
    <path d="m 4615.2818,953.51601 c 0,0 -9.8943,9.5517 -10.6743,11.6024 -0.7803,2.05074 -3.7161,7.07605 -3.7161,7.07605 0,0 10.0179,4.82172 12.0298,6.87245 2.0116,2.05071 4.4545,3.49178 4.4545,3.49178 0,0 2.854,-12.24902 2.9156,-15.98094 0.062,-3.73195 -5.0095,-13.06174 -5.0095,-13.06174 z m -59.7675,13.3072 c -0.216,-0.005 -0.419,0.0168 -0.6066,0.0687 -4.0031,1.1085 -0.431,18.30852 0.185,20.91345 0.6159,2.60498 3.6948,11.3435 3.6948,11.3435 2.9766,-3.54719 2.6276,-9.12664 5.3785,-12.02717 2.7509,-2.90054 5.625,-8.77518 5.625,-8.77518 0,0 -9.8841,-11.41319 -14.2767,-11.52333 z m 41.5159,21.84776 c -4.184,0.83526 -3.8012,4.13128 -2.479,7.57319 0.9087,2.36552 2.3795,2.9231 2.3725,4.24574 0.6634,3.719 0.3274,3.7505 -1.518,4.3216 -1.6759,0.5188 -2.4763,-0.6952 -3.5179,-3.6539 -1.1734,-3.8585 2.5799,-5.66926 -1.8675,-8.88943 -1.1382,-0.80091 -2.3046,-1.13701 -3.4102,-1.09916 -1.4214,0.0487 -2.808,0.65723 -3.7765,1.80661 -3.6609,4.34479 -0.038,5.51225 -0.324,10.44898 0,2.6835 2.2045,4.8588 4.9237,4.8586 1.2012,0.016 1.7458,0.054 0.7194,1.9601 -2.3289,3.4846 -2.851,8.0389 -3.3962,10.9523 -0.06,0.3169 -0.018,0.5631 0.1116,0.7478 -1.1104,5.415 2.944,9.4689 9.3106,8.6868 6.466,-0.7944 23.1563,-8.4982 22.8073,-12.3595 -0.2825,-3.1256 -3.7016,-5.6972 -7.5111,-7.3269 -9.9089,-7.2837 -3.5178,-2.4095 -3.5249,-10.4532 -0.1036,-3.12877 -1.9784,-2.46874 -1.9997,-7.23509 -0.019,-4.19339 -3.2999,-5.30654 -6.9201,-4.58384 z m 16.54,2.6107 c -0.8849,0.005 -1.6422,0.17236 -2.1885,0.55139 -2.6892,1.86593 -0.041,5.67185 0.5339,8.79434 1.6197,9.3433 9.9265,10.714 12.6462,4.9185 1.3084,-2.7881 3.3042,-7.00619 0.307,-9.66658 -2.3884,-2.12 -7.8269,-4.61558 -11.2986,-4.59765 z m 113.7538,5.2095 c 0,0 1.0906,11.51743 0.4305,14.79703 -0.6599,3.2795 -6.3991,11.5171 -6.3991,11.5171 l 8.092,2.3498 c 0,0 5.4232,-7.9275 5.8534,-10.1999 0.4305,-2.2725 1.664,-15.18413 1.664,-15.18413 z m -155.1952,2.42827 c -3.0364,0.002 -5.3452,4.10216 -7.1003,7.95246 -10.9087,17.8069 15.2,22.2724 13.2819,6.1149 -0.5747,-4.2862 -1.4165,-12.6737 -5.0297,-13.8746 -0.3952,-0.13135 -0.779,-0.19304 -1.1519,-0.19276 z m 176.1417,7.69466 c 0,0 -0.1438,11.4398 -2.669,14.5386 -2.5249,3.0988 -6.2834,9.4253 -6.2834,9.4253 l 5.1935,4.054 c 1.5208,-0.9037 10.7023,-8.6765 12.424,-10.5616 1.7216,-1.8851 3.989,-6.6622 3.989,-6.6622 z m 18.9374,22.2338 c 0,0 -7.9193,7.6692 -9.6123,8.5472 -1.6928,0.878 -7.9479,2.789 -7.9479,2.789 l 1.5493,5.4229 c 2.0371,0.026 11.0758,-1.4201 13.6007,-2.298 2.5249,-0.878 6.0259,-3.5896 6.4275,-5.6038 0.4019,-2.0142 -4.0173,-8.8573 -4.0173,-8.8573 z m -18.3534,21.2684 c -1.3581,0.094 -2.22,6.104 -2.22,6.104 0,0 6.0261,4.984 12.6256,6.3526 6.5991,1.3686 10.1575,-1.4462 11.3915,-2.8923 1.2338,-1.4461 3.1272,-6.0422 -2.1523,-6.5071 -5.2798,-0.4648 -6.2836,1.1618 -9.8129,0.1034 -3.5296,-1.0587 -8.264,-2.8409 -9.6986,-3.1508 -0.045,-0.01 -0.09,-0.013 -0.1333,-0.01 z" fill="#fff" paint-order="fill markers stroke" transform="translate(171.72367,50.20628) translate(-4717.5597,-999.63882)"/>
    <path d="m 4616.2362,949.43254 v 5.2e-4 c -2.906,0.001 -5.1321,2.34326 -11.1781,11.75897 -2.5625,3.9906 -5.032,7.25537 -5.4891,7.25537 -0.4564,0 -2.3068,0.18548 -4.3713,-0.38189 -7.339,-2.01679 -15.0982,-1.05498 -21.7558,4.13257 -3.6276,2.82678 -6.9721,1.99766 -6.9721,0.49247 0,-0.41844 -1.8591,-2.67592 -4.1311,-5.01674 -4.9463,-5.09651 -8.166,-6.18569 -10.9207,-3.69332 -4.3278,3.91676 -1.5252,24.94675 3.9894,29.93771 1.7871,1.61751 1.8109,1.9827 0.3757,5.8906 -1.703,4.6389 -3.1157,14.8324 -1.9658,21.2333 0.6289,3.5054 1.3617,4.4116 -0.1065,4.9134 -2.6278,0.8986 -7.587,4.5525 -7.861,5.9702 -0.095,0.493 0.1807,1.6797 4.792,-1.711 3.2469,-2.3875 6.1893,-3.0473 7.1076,-2.4236 1.9281,1.3092 0.822,0.6614 1.928,1.3089 1.0276,0.6016 -0.3523,2.4075 -4.4659,5.3315 -4.5011,3.1994 -8.8172,6.0563 -5.6591,6.4921 0.4623,0.064 3.9185,-2.1028 7.9784,-5.4121 7.4645,-6.084 8.939,-6.8976 8.939,-4.9325 0,2.4247 2.4973,0.039 3.1135,-2.974 0.5194,-2.5378 0.3618,-3.1189 -0.7251,-2.6773 -0.7633,0.3101 -2.063,0.8373 -2.8887,1.1715 -2.7741,1.1227 -1.6845,-3.2051 1.1302,-4.4876 4.1214,-1.8778 2.1121,-2.3716 -2.7538,-0.677 -5.3479,1.8624 -5.8884,1.8905 -5.8509,0.3039 0.032,-1.2874 2.2619,-2.1889 4.7041,-6.7681 3.7309,-6.9954 0.4761,-5.8643 -2.1528,-2.5698 -3.0584,3.8327 -3.1348,3.4579 -0.9979,-6.8777 1.4035,-6.78458 1.4174,-8.04234 0.1204,-10.86544 -3.7619,-8.1879 -6.3725,-21.01685 -4.7955,-23.56807 0.4301,-0.69578 2.5078,0.73275 5.5319,3.80287 6.3123,6.40889 8.1664,6.79679 15.3149,3.20497 9.8671,-4.95771 14.2568,-5.40347 25.7813,-2.61844 5.4822,1.32501 10.3412,2.03659 10.7968,1.5813 0.4571,-0.45535 0.6879,-3.02598 0.5168,-5.71232 -0.3986,-6.26297 -2.6612,-7.00168 -5.8152,-1.89859 -1.2264,1.9838 -2.4653,3.37129 -2.7528,3.08353 -0.5937,-0.5932 7.2102,-12.89419 9.2578,-14.59342 0.1484,-0.12317 0.2926,-0.18956 0.4331,-0.20309 0.047,-0.005 0.094,-0.003 0.1395,0.004 2.7556,0.42018 3.8401,21.21032 0.9354,24.7096 -0.7731,0.93175 -0.3025,3.06937 3.4266,6.6399 l 4.2376,4.0575 c -6.0845,-1.72911 -5.4419,0.70046 -1.5307,3.30307 2.1152,1.43405 4.3154,2.97261 5.428,4.56823 l 1.9327,2.7716 -3.4303,0.8889 c -4.902,1.2703 -5.1344,3.2714 -0.3968,3.4148 2.1099,0.064 3.1132,0.3094 2.2298,0.5457 -0.8835,0.2365 -2.2173,1.5704 -2.9626,2.9641 -1.67,3.1196 -4.9377,5.133 -4.9377,3.0417 0,-0.7751 -1.0235,-3.4935 -2.0846,-6.1206 -2.4881,-6.16 -5.5591,-13.45856 -5.9216,-5.3366 -0.07,1.5757 0.9348,4.6999 2.0779,6.9396 l 2.0763,4.0721 c -2.6546,-2.9322 -6.222,-5.6348 -8.5736,-6.6094 -1.541,-0.5982 -2.8101,-1.1485 -3.2504,-0.087 -0.2341,0.5643 0.9852,1.7781 2.4546,2.6985 2.4755,1.5507 4.3371,3.328 5.7733,5.1227 1.0135,1.2664 1.8889,3.8163 -0.585,5.7201 -1.3623,1.048 -5.4033,3.0163 -8.9814,4.3744 -9.8407,3.7352 -13.2457,4.1138 -14.7618,1.6402 -2.5592,-4.1762 -1.9709,-8.6203 0.2806,-12.8431 0.8259,-1.5491 2.5491,-4.9846 0.973,-5.1408 -1.9296,-0.1912 -3.4713,3.6507 -4.4752,5.7278 -1.6979,3.5744 -2.2104,8.2523 -0.5224,12.439 0.5659,1.4039 0.1818,1.7519 -1.9348,1.7519 -3.4767,0 -2.6771,-1.5285 -2.5952,-8.9116 0.058,-5.2009 -3.009,-10.7777 -3.7775,1.6526 -0.3732,6.0366 -0.4668,6.2305 -2.7973,5.6456 -2.0753,-0.5209 -2.4138,-0.2509 -2.4138,1.9327 0,3.3025 2.7293,6.158 4.4887,4.6974 0.8789,-0.729 2.1073,-0.7401 3.962,-0.035 5.7254,2.1767 18.4727,1.0047 26.8273,-2.4671 1.2895,-0.5357 1.7518,-0.2519 1.7518,1.0759 0,0.992 1.1528,3.0073 2.5632,4.4788 1.7038,1.7785 3.2132,5.3203 4.502,10.5632 2.4071,9.796 4.7534,15.2213 7.135,16.4957 1.4899,0.7977 2.0103,0.508 2.7931,-1.5509 0.7228,-1.9001 0.3656,-4.5882 -1.432,-10.7941 -1.3165,-4.5452 -2.3164,-8.3123 -2.2226,-8.3716 0.095,-0.059 2.1477,0.7704 4.5615,1.8438 l 4.3884,1.9518 -0.6274,7.659 c -0.7626,9.3004 0.1823,13.545 3.1125,13.9754 3.0564,0.4488 5.2106,-3.4472 6.6533,-12.0303 l 1.2258,-7.2962 10.4443,-0.5979 c 5.7449,-0.3287 12.0767,-0.931 14.071,-1.3384 l 3.6261,-0.7405 0.6718,4.841 c 0.8872,6.3992 2.502,10.3456 4.2313,10.3456 2.2833,0 3.5595,-4.9534 2.7032,-10.4872 -1.0876,-7.0273 -1.1438,-6.8035 1.9043,-7.6186 l 2.7517,-0.7359 v 10.3565 c 0,5.696 0.44,11.5118 0.9767,12.9237 1.0733,2.8234 4.0757,3.4195 5.9356,1.1788 1.7691,-2.1318 4.0642,-14.3562 4.0793,-21.7682 l 0.015,-6.6435 6.4394,-4.0375 c 3.795,-2.3794 7.561,-5.732 9.1695,-8.1628 1.9643,-2.9687 3.1753,-3.9322 4.3191,-3.437 3.425,1.4834 14.7829,5.6031 18.1012,6.566 5.4335,1.5764 11.6876,5.5576 14.4766,9.2149 3.4714,4.5506 3.3346,9.7749 -0.4656,17.8072 -1.6506,3.4896 -2.9942,7.0204 -2.9791,7.846 0.027,1.8785 2.841,5.3926 5.4808,6.8446 1.101,0.6053 4.6094,1.1148 7.7964,1.1312 10.587,0.056 17.1764,-5.2261 20.683,-16.5784 2.8177,-9.1237 1.511,-18.6977 -4.1176,-30.1681 -5.1798,-10.5547 -15.9045,-21.0852 -27.1151,-26.62481 -7.5201,-3.71562 -22.2163,-7.59955 -28.9063,-7.63932 -2.7861,-0.0167 -4.0307,-0.62223 -5.318,-2.58641 -0.9247,-1.41058 -3.7662,-3.88732 -6.3159,-5.50406 -4.3391,-2.75184 -5.2775,-2.93953 -14.6973,-2.93212 -10.981,0.008 -18.3509,0.94773 -31.95,4.07314 -7.6506,1.75811 -9.8403,1.89114 -15.8269,0.96222 -3.8212,-0.59287 -8.003,-1.76924 -9.2925,-2.61432 -3.6936,-2.42024 -4.1674,0.1768 -0.6345,3.47731 5.8155,5.4324 15.806,6.38431 31.7701,3.02721 5.4274,-1.14123 15.376,-2.33192 22.1087,-2.64635 11.8562,-0.55361 12.3616,-0.49292 16.0295,1.93476 5.2188,3.45379 9.0681,9.38107 10.4883,16.15305 1.0763,5.131 0.9986,6.0735 -0.7674,9.3715 -1.0801,2.0169 -4.0502,5.941 -6.6006,8.7199 l -4.637,5.0524 -3.653,-1.742 c -8.104,-3.8644 -15.6585,-1.2113 -20.3181,7.135 -2.6344,4.7177 -3.0191,4.9838 -9.4434,6.5345 -3.683,0.8889 -9.3454,1.8928 -12.5826,2.2313 l -5.887,0.615 -1.2863,-4.2923 c -0.7071,-2.3609 -2.6175,-5.6246 -4.2462,-7.2527 -2.5813,-2.5813 -3.4816,-2.891 -7.0265,-2.4154 -4.4943,0.6029 -9.8479,4.8968 -9.8479,7.8987 0,0.9979 -0.2472,1.8144 -0.5504,1.8144 -1.4644,0 -7.3404,-3.6203 -10.5657,-6.5097 l -3.6096,-3.2349 2.7269,-1.6113 c 1.5004,-0.8862 4.9692,-3.6267 7.7096,-6.0901 3.5863,-3.2249 5.2865,-4.1746 6.0694,-3.3915 1.8742,1.8745 4.5092,0.09 3.977,-2.6934 -0.2619,-1.3692 -0.15,-2.4892 0.2486,-2.4892 0.3985,0 4.0232,1.3605 8.0553,3.0231 4.0321,1.6627 7.808,2.864 8.3912,2.6696 1.2722,-0.4242 -2.1267,-2.4173 -8.942,-5.2426 -3.5697,-1.4801 -5.0034,-2.6307 -5.0034,-4.0147 0,-1.7825 0.6484,-1.9153 7.9996,-1.6397 4.3999,0.1649 9.6938,0.6803 11.7646,1.1456 2.0709,0.4651 3.9909,0.4815 4.2664,0.036 0.8482,-1.3719 -7.6266,-3.9851 -15.4176,-4.7542 -5.0093,-0.4945 -7.644,-1.2153 -8.1551,-2.2314 -0.4151,-0.8257 -1.5829,-3.52795 -2.5947,-6.00486 -1.0118,-2.47691 -3.8012,-6.62053 -6.1986,-9.20823 l -4.3584,-4.70514 1.2129,-4.80229 c 2.4724,-9.79919 2.3669,-15.77348 -0.3855,-21.78523 -2.0379,-4.45175 -2.9987,-5.53373 -4.915,-5.53455 z m -56.7712,29.02304 c -2.7959,0 -3.2772,1.57498 -1.5193,4.97437 1.8096,3.49861 6.5206,4.40355 6.5206,1.25264 0,-2.66539 -2.8607,-6.22701 -5.0013,-6.22701 z m 155.7745,18.09605 c 0.8249,0.009 2.2115,0.39664 4.3785,1.04593 6.3341,1.89786 7.8797,9.53434 3.6194,17.88624 -2.278,4.4664 -3.9843,5.387 -7.9969,4.314 -1.3556,-0.3624 -1.6745,-1.0667 -1.2046,-2.6541 1.3511,-4.5589 1.736,-13.3276 0.7437,-16.9215 -0.7304,-2.64505 -0.9151,-3.68504 0.4599,-3.67057 z m -114.314,0.78046 c -2.2121,0.4069 -3.4654,2.30175 -1.9771,5.08231 1.2887,2.4089 3.9071,2.3642 5.3795,-0.2729 1.4065,-2.51907 -0.9451,-5.26141 -3.4024,-4.80941 z m -12.715,2.31659 c -2.3884,0 -4.4383,3.11872 -2.9889,5.82702 1.2805,2.3916 4.6889,2.0278 5.5138,-0.1219 1.011,-2.6352 -0.4623,-5.70512 -2.5249,-5.70512 z m 141.8777,1.05052 c 0.2462,0.016 0.5494,0.087 0.9183,0.1855 1.1498,0.3086 2.4899,0.5664 2.9786,0.5746 1.6175,0.025 -0.069,12.4795 -2.2769,16.8063 -1.336,2.6188 -2.8436,4.2235 -3.9687,4.2235 -3.0714,0 -3.1544,-1.0573 -0.4935,-6.3077 2.0881,-4.1144 2.4822,-6.0759 2.1182,-10.4613 -0.3158,-3.8107 -0.3406,-4.9224 0.4966,-5.0173 0.07,-0.01 0.1453,-0.01 0.2274,0 z m 7.9551,2.7755 c 0.244,0 2.0451,0.945 4.0033,2.1002 3.235,1.909 3.56,2.5081 3.56,6.5747 0,3.3505 -0.7659,5.5887 -3.0499,8.9085 -2.9754,4.3237 -5.0742,5.28 -7.798,3.5533 -1.0861,-0.6887 -0.9445,-1.6265 0.7503,-4.9485 1.4374,-2.8182 2.0914,-5.9877 2.0914,-10.1436 0,-3.3245 0.1998,-6.0446 0.4429,-6.0446 z m 12.3646,8.1261 c 0.7652,0.1328 2.1148,1.2259 4.1315,3.3068 l 3.3213,3.4256 -2.0397,2.8288 c -1.1222,1.5556 -3.7673,4.4882 -5.8772,6.5174 -3.3896,3.2596 -4.0489,3.5339 -5.6529,2.3456 -1.712,-1.2684 -1.6122,-1.6113 1.7519,-6.0182 3.3415,-4.3777 4.0539,-6.4992 3.6194,-10.7745 -0.1005,-0.9865 0.042,-1.5327 0.4532,-1.6294 0.086,-0.02 0.1832,-0.021 0.2925,0 z m -150.1769,0.8346 c -1.6101,0.019 -3.0149,0.3967 -4.2468,1.0754 -1.9554,2.1984 -1.846,2.6976 0.94,4.5232 1.8284,1.1979 2.9214,1.3354 4.3858,0.5514 4.746,-3.3252 3.8347,-4.9362 2.0479,-5.7857 -1.1207,-0.2581 -2.1608,-0.3758 -3.1269,-0.3643 z m 159.9908,9.1059 c 0.6367,-0.065 1.7162,1.1258 2.9486,3.4143 l 1.8676,3.4664 -2.4603,2.6355 c -1.3525,1.4494 -4.1305,3.4919 -6.1728,4.5393 -4.4952,2.3054 -5.6775,2.3729 -6.4461,0.3684 -0.3851,-1.002 1.191,-3.2428 4.5341,-6.4487 2.8184,-2.7021 5.1242,-5.6137 5.1242,-6.4704 0,-0.9758 0.2228,-1.4661 0.6047,-1.5048 z m 6.2792,10.5735 c 0.3625,0.023 0.6381,0.477 1.0764,1.2961 1.7527,3.2745 1.2102,4.6326 -2.7063,6.7861 -4.6934,2.5806 -10.8552,3.7692 -11.7807,2.2722 -0.8054,-1.3036 -1.06,-1.1016 4.3382,-3.4504 2.3741,-1.033 5.3929,-3.1578 6.7087,-4.7217 1.1442,-1.3599 1.7537,-2.0496 2.2024,-2.1652 0.056,-0.014 0.1095,-0.02 0.1613,-0.017 z m 3.6778,10.3901 c 0.2462,0 0.447,1.753 0.447,3.8959 0,2.6294 -0.5148,4.0936 -1.5829,4.5036 -2.5295,0.9705 -11.7186,0.5726 -14.179,-0.6139 -3.3814,-1.6309 -2.7186,-2.7818 1.6025,-2.7818 2.1887,0 5.8869,-1.0811 8.5597,-2.5021 2.588,-1.3761 4.9066,-2.5017 5.1527,-2.5017 z m -18.7813,10.6908 c 0.1476,-0.01 0.3113,0.01 0.494,0.037 0.7308,0.1269 1.7642,0.5706 3.2763,1.3617 3.0391,1.5898 5.146,1.952 9.1421,1.572 4.9914,-0.4748 5.1615,-0.4095 4.393,1.6795 -0.665,1.8087 -1.7037,2.2187 -6.1929,2.4453 -3.6501,0.1841 -6.5082,-0.3015 -8.8372,-1.5012 -3.7214,-1.9166 -4.4724,-3.0789 -3.2422,-5.0183 0.2263,-0.357 0.5239,-0.5535 0.9669,-0.5757 z m -3.6184,6.134 2.3875,2.2433 c 1.3132,1.2336 4.5405,2.8045 7.1706,3.4907 l 4.7826,1.2475 -2.8179,1.1069 c -4.4104,1.7329 -8.3427,1.3106 -11.2722,-1.2097 -2.3749,-2.0426 -2.5483,-2.5844 -1.4712,-4.5967 z" fill="#030303" transform="translate(171.72367,50.20628) translate(-4717.5597,-999.63882)"/>
</svg>