<?xml version="1.0" ?><svg xmlns="http://www.w3.org/2000/svg" width="256.94849mm" height="148.50862mm" viewBox="0 0 256.94849 148.50862">
    <path d="m -1204.6529,154.41114 c 5.0516,-7.59889 15.5517,-8.15068 24.1394,-8.28076 8.5878,-0.12978 11.4744,3.47469 13.7837,8.89759 2.3093,5.4232 5.8454,21.6922 10.3197,25.75136 4.4743,4.05946 12.8455,10.1969 12.8455,10.1969 10.3266,21.67494 150.00358,29.92198 158.72271,20.67899 5.52067,1.299 30.67652,9.65094 28.90845,13.80751 -1.76807,4.15656 -4.94339,6.49471 -15.66002,6.00766 -10.71662,-0.48705 -23.50478,-3.30736 -23.50478,-3.30736 l -1.82542,6.52219 c 0,0 7.14443,7.30636 8.76815,13.76871 1.62376,6.46204 0.39691,22.3417 -8.69596,27.37496 -9.09293,5.03356 -27.45913,3.99411 -27.45913,3.99411 0,0 -6.964,0.74691 -7.2165,-10.03415 -0.2526,-10.78105 -2.8145,-23.08861 -2.8145,-23.08861 0,0 -17.7528,4.7737 -23.6704,5.13098 -5.9176,0.35727 -27.3148,-6.00767 -27.3148,-6.00767 0,0 -4.7268,7.63127 -4.6907,11.30078 0.036,3.66952 -4.5104,19.77637 -26.5571,17.27577 -22.0466,-2.50059 -25.2219,-4.09152 -22.227,-17.43822 2.9949,-13.34639 8.6959,-24.84199 8.6959,-24.84199 0,0 -15.1187,-3.83197 -26.8095,-7.56622 -11.6909,-3.73456 -31.9334,-14.45088 -39.0057,-24.32258 -7.0722,-9.872 -14.2527,-25.23193 -8.732,-45.81995 z" fill="#aaa374" transform="translate(-335.90286,-203.86857) translate(1545.7318,68.639101)"/>
    <path d="m -1062.0885,137.49657 c -0.2819,0.007 -0.5452,0.0254 -0.7891,0.0563 -7.8042,0.98833 -22.2976,2.41999 -31.334,7.19129 -9.0363,4.77132 -24.2924,18.53971 -29.5734,23.03839 -2.967,2.52749 -6.0451,5.28062 -8.8806,6.82749 1.2113,-0.3485 2.3704,-0.62287 3.0097,-0.61495 h 5e-4 c 0.028,3e-5 0.055,0.002 0.081,0.003 1.6527,0.0914 3.227,3.0167 4.1713,6.99337 0.9444,3.97668 -5.7452,2.19397 -8.4997,2.74247 -2.7544,0.54851 -5.0363,-3.47389 -3.1476,-7.67912 0,0 0.3365,-0.12034 0.6056,-0.21652 -0.7911,0.0332 -1.5432,-0.11289 -2.2438,-0.48989 -6.1612,1.87446 -2.9931,10.39493 -2.465,14.79134 0.5281,4.39642 5.9266,21.06185 9.5059,23.92464 3.5793,2.86277 5.8678,6.84994 8.8016,6.44095 2.9339,-0.40897 9.7992,-2.96463 15.7256,-0.13591 5.9265,2.82868 19.0703,10.25819 22.0627,12.84831 2.9926,2.59014 0.9394,5.79359 8.5675,5.96398 7.628,0.17042 37.6706,-2.62413 37.6706,-2.62413 0,0 14.0241,-6.61185 20.7134,-7.08897 6.6892,-0.47713 13.9067,0.10227 14.9629,-0.6134 1.0562,-0.7157 16.07761,-12.30313 17.25117,-15.02958 1.17356,-2.72647 2.93377,-5.48693 -0.93896,-9.50846 -3.87273,-4.02154 -15.66711,-18.77842 -17.95551,-23.89053 -2.2884,-5.11212 -17.1337,-28.55988 -19.7156,-30.43432 -2.5011,-1.81584 -28.8466,-12.715 -37.5858,-12.49588 z m -0.4558,3.85093 c 2.1938,0.007 4.5161,0.0715 6.6311,0.24288 6.7681,0.54851 15.1888,2.33108 12.513,6.07922 -2.6757,3.74814 -8.5785,5.25652 -14.5593,3.83955 -5.9811,-1.41699 -12.0408,-5.25644 -13.6147,-9.91877 0,0 4.2036,-0.25908 9.0299,-0.24288 z m -27.4453,8.65322 c 2.9906,0.86847 9.2079,-0.86843 9.3653,5.34799 0.1574,6.21644 -0.8656,12.29588 -7.9484,11.29027 -7.0829,-1.00557 -6.4536,-4.02261 -6.8471,-8.5478 -0.3934,-4.52518 5.4302,-8.09046 5.4302,-8.09046 z m 65.6926,7.14685 c 3.7039,0.0337 7.2932,6.77078 6.1588,10.67997 -1.1804,4.06808 -7.7123,3.74775 -9.2863,-0.22893 -1.5739,-3.97667 -1.4952,-8.73039 2.6758,-10.42158 0.1507,-0.0215 0.3011,-0.0305 0.4517,-0.0295 z m -84.1561,0.83457 c 0.1239,-8e-4 0.2452,0.005 0.3633,0.0176 3.7775,0.41137 5.7448,5.85086 5.7448,9.27902 0,3.42818 -2.2036,8.95895 -7.3189,10.51306 -5.1154,1.55414 -6.847,-3.51938 -8.5783,-7.22178 0,0 -1.4954,-2.97149 -1.0232,-4.5713 0.4575,-1.54981 6.9712,-7.98957 10.8123,-8.01657 z m 42.3013,0.14263 c 5.3841,0.0506 7.4843,5.59998 6.9334,10.79934 -0.6296,5.94217 -4.2497,7.54202 -8.4207,7.26778 -4.171,-0.27427 -6.2172,-2.01083 -5.6663,-6.94738 0.5509,-4.93657 0.7871,-8.59343 4.6431,-10.78746 0.9051,-0.23428 1.7413,-0.33928 2.5105,-0.33228 z m 26.2744,3.7915 c 0.3397,0.003 0.6876,0.0219 1.0417,0.0605 3.7775,0.41138 3.3055,4.93663 2.912,11.10733 -0.3935,6.17072 -8.1062,5.66784 -10.7032,0.82269 -2.5971,-4.84514 -1.9673,-8.63898 0.9446,-10.51305 0,0 2.5207,-1.50203 5.8049,-1.47743 z m 30.5536,16.7442 c 0,0 5.6659,6.03361 5.7449,10.10171 0.079,4.0681 -5.5876,1.37124 -8.4207,-2.01125 -2.8332,-3.38246 1.2593,-6.49063 2.6758,-8.09046 z m -79.5641,1.64538 c 0,0 3.463,0.45707 6.1387,2.83393 2.6756,2.37688 3.3051,8.86764 -0.3938,13.62139 -3.6987,4.75374 -9.9158,0.91423 -13.3785,-1.82831 -3.4628,-2.74256 -5.9023,-7.35952 -0.8656,-10.74198 5.0367,-3.38246 2.9116,-3.7022 8.4992,-3.88503 z m -37.0665,5.11958 c 0,0 3.3052,1.09682 6.0596,4.89066 2.7544,3.79384 1.4954,6.67362 -4.407,10.28464 -5.9021,3.611 -4.1711,4.02249 -7.2403,-2.651 -3.0693,-6.67349 0.3937,-10.46738 5.5877,-12.5243 z m 98.1088,0.86196 c 2.0271,-0.0491 6.8647,3.02333 7.8977,7.82278 1.1017,5.11939 -1.889,6.35332 -8.0274,7.22178 -6.1385,0.86847 -7.1616,-2.05673 -8.4207,-6.81043 -1.2592,-4.75369 3.4626,-6.12505 8.1845,-8.18193 0.1082,-0.0314 0.2307,-0.0492 0.3659,-0.0522 z m -31.2715,5.16971 v 5.2e-4 c 0.8134,0.004 4.1878,0.14449 6.1159,2.10426 2.2035,2.23975 3.1476,5.98772 2.5967,9.3245 -0.5509,3.33677 -6.2959,5.66826 -10.5456,3.47421 -4.2497,-2.19405 -9.0502,-3.51963 -6.8466,-9.5989 2.2036,-6.07928 2.597,-4.79973 8.4992,-5.30252 0,0 0.064,-0.003 0.1804,-0.002 z m 62.14866,4.11551 c 0,0 5.03682,2.92562 5.90248,5.21106 0.86566,2.28543 -6.29596,6.58199 -11.09644,8.41034 -4.8006,1.82831 -5.9812,-2.78849 -7.2404,-4.2969 z m -115.13506,3.65663 c 0,0 4.643,3.70263 7.6336,5.11958 2.9905,1.41698 -1.9673,4.38799 -4.7217,6.99337 -2.7545,2.60541 -4.2498,1.27991 -9.1291,-2.33112 -4.8793,-3.61104 1.9675,-6.85647 6.2172,-9.78183 z m 94.6738,8.82168 c 0,0 1.2591,7.63383 -0.7871,11.33626 -2.0461,3.70247 -8.4209,3.93077 -14.0869,2.46807 -5.6663,-1.46269 -2.2822,-5.48487 -2.7544,-7.7246 z m -75.2357,1.87431 c 0,0 14.4806,5.98798 15.8972,6.44508 1.4166,0.45712 1.7315,5.57633 -1.4165,7.81606 -3.1479,2.23972 -9.2864,-1.09691 -16.2119,-4.57078 -6.9254,-3.47388 -1.8889,-5.89655 1.7312,-9.69036 z m 46.5108,7.49618 c 0,0 1.4951,8.91344 -2.3611,10.37611 -3.8563,1.4627 -12.9849,2.55958 -15.8967,-1.18856 -2.9118,-3.74809 -1.4166,-6.21638 2.6758,-6.17068 z" fill="#6a542c" paint-order="fill markers stroke" transform="translate(-335.90286,-203.86857) translate(1545.7318,68.639101)"/>
    <path d="m -1062.5443,141.3475 c -4.8263,-0.0162 -9.0299,0.24288 -9.0299,0.24288 1.5739,4.66233 7.6336,8.50177 13.6147,9.91877 5.9809,1.41697 11.8836,-0.0914 14.5593,-3.83955 2.6758,-3.74814 -5.7449,-5.53071 -12.513,-6.07922 -2.115,-0.17141 -4.4373,-0.23551 -6.6311,-0.24288 z m -27.4453,8.65322 c 0,0 -5.8236,3.56527 -5.4302,8.09046 0.3935,4.52519 -0.2358,7.54223 6.8471,8.5478 7.0828,1.00561 8.1058,-5.07383 7.9484,-11.29027 -0.1574,-6.21643 -6.3747,-4.47952 -9.3653,-5.34799 z m 65.6926,7.14685 c -0.1506,-0.001 -0.301,0.008 -0.4517,0.0295 -4.171,1.6912 -4.2497,6.4449 -2.6758,10.42158 1.574,3.97668 8.1059,4.29702 9.2863,0.22893 1.1344,-3.90919 -2.4549,-10.64631 -6.1588,-10.67997 z m -84.1561,0.83457 c -3.8411,0.027 -10.3548,6.46676 -10.8123,8.01657 -0.4722,1.59981 1.0232,4.5713 1.0232,4.5713 1.7313,3.70241 3.4629,8.77592 8.5783,7.22178 5.1153,-1.55411 7.3189,-7.08488 7.3189,-10.51306 0,-3.42817 -1.9673,-8.86765 -5.7448,-9.27902 -0.1181,-0.0128 -0.2394,-0.0184 -0.3633,-0.0176 z m 42.3013,0.14263 c -0.7692,-0.007 -1.6054,0.098 -2.5105,0.33228 -3.8561,2.19403 -4.0922,5.85089 -4.6431,10.78746 -0.5509,4.93656 1.4953,6.67311 5.6663,6.94738 4.171,0.27424 7.7911,-1.32561 8.4207,-7.26778 0.5509,-5.19937 -1.5493,-10.74872 -6.9334,-10.79934 z m 26.2744,3.7915 c -3.2842,-0.0246 -5.8049,1.47743 -5.8049,1.47743 -2.9119,1.87407 -3.5417,5.6679 -0.9446,10.51305 2.597,4.84515 10.3097,5.34803 10.7032,-0.82269 0.3935,-6.17071 0.8655,-10.69595 -2.912,-11.10733 -0.3541,-0.0386 -0.702,-0.0579 -1.0417,-0.0605 z m -89.778,12.07885 c -1.7527,-0.0221 -7.3954,2.05982 -7.3954,2.05982 -1.8887,4.20523 0.3932,8.22763 3.1476,7.67912 2.7545,-0.5485 9.4441,1.23421 8.4997,-2.74247 -0.9443,-3.97668 -2.5186,-6.90196 -4.1713,-6.99337 -0.026,-0.001 -0.053,-0.003 -0.081,-0.003 z m 120.3316,4.66535 c -1.4165,1.59983 -5.509,4.708 -2.6758,8.09046 2.8331,3.38249 8.4994,6.07936 8.4207,2.01125 -0.079,-4.0681 -5.7449,-10.10171 -5.7449,-10.10171 z m -79.5641,1.64538 c -5.5876,0.18283 -3.4625,0.50257 -8.4992,3.88503 -5.0367,3.38246 -2.5972,7.99942 0.8656,10.74198 3.4627,2.74254 9.6798,6.58205 13.3785,1.82831 3.6989,-4.75376 3.0695,-11.24451 0.3938,-13.62139 -2.6757,-2.37686 -6.1387,-2.83393 -6.1387,-2.83393 z m -37.0665,5.11958 c -5.194,2.05692 -8.657,5.8508 -5.5877,12.5243 3.0692,6.6735 1.3381,6.262 7.2403,2.651 5.9024,-3.61103 7.1614,-6.49079 4.407,-10.28464 -2.7544,-3.79384 -6.0596,-4.89066 -6.0596,-4.89066 z m 98.1088,0.86196 c -0.1352,0.003 -0.2577,0.0208 -0.3659,0.0522 -4.7219,2.05689 -9.4437,3.42824 -8.1845,8.18193 1.2591,4.75371 2.2822,7.6789 8.4207,6.81043 6.1384,-0.86846 9.1291,-2.10239 8.0274,-7.22178 -1.033,-4.79946 -5.8706,-7.87184 -7.8977,-7.82278 z m -31.2715,5.16971 c -0.1162,-6.2e-4 -0.1804,0.002 -0.1804,0.002 -5.9023,0.50279 -6.2956,-0.77677 -8.4992,5.30252 -2.2036,6.07928 2.5969,7.40485 6.8466,9.5989 4.2497,2.19406 9.9947,-0.13744 10.5456,-3.47421 0.5509,-3.33678 -0.3932,-7.08474 -2.5967,-9.32449 -1.9281,-1.95978 -5.3025,-2.09989 -6.1159,-2.10427 z m 62.14866,4.11551 -12.43436,9.3245 c 1.2592,1.50841 2.4398,6.12522 7.2404,4.2969 4.80052,-1.82835 11.9621,-6.1249 11.09644,-8.41034 -0.86566,-2.28544 -5.90248,-5.21106 -5.90248,-5.21106 z m -115.13506,3.65663 c -4.2497,2.92536 -11.0965,6.17079 -6.2172,9.78183 4.8793,3.61103 6.3746,4.93653 9.1291,2.33112 2.7544,-2.60539 7.7122,-5.57639 4.7217,-6.99337 -2.9906,-1.41695 -7.6336,-5.11958 -7.6336,-5.11958 z m 94.6738,8.82168 -17.6284,6.07973 c 0.4722,2.23973 -2.9119,6.26191 2.7544,7.7246 5.6661,1.4627 12.0408,1.2344 14.0869,-2.46807 2.0462,-3.70244 0.7871,-11.33626 0.7871,-11.33626 z m -75.2357,1.87431 c -3.6201,3.79382 -8.6566,6.21648 -1.7312,9.69036 6.9255,3.47387 13.064,6.8105 16.2119,4.57078 3.148,-2.23973 2.8331,-7.35894 1.4165,-7.81606 -1.4166,-0.4571 -15.8972,-6.44508 -15.8972,-6.44508 z m 46.5108,7.49618 -15.582,3.01687 c -4.0924,-0.0457 -5.5876,2.42258 -2.6758,6.17068 2.9118,3.74814 12.0404,2.65126 15.8967,1.18856 3.8562,-1.46267 2.3611,-10.37611 2.3611,-10.37611 z" fill="#ada45a" paint-order="fill markers stroke" transform="translate(-335.90286,-203.86857) translate(1545.7318,68.639101)"/>
    <path d="m -1081.4538,236.89411 -3.4189,9.72116 c 0,0 9.083,6.461 15.1043,5.86828 6.0213,-0.59275 30.4126,-3.6158 32.5558,-4.38637 2.1432,-0.7706 2.2452,-6.66851 1.888,-9.18771 -0.3572,-2.51923 0.8675,-3.94184 -8.3175,-2.72669 -9.1851,1.21515 -29.3921,4.09004 -37.8117,0.71133 z" fill="#c4bf8a" paint-order="fill markers stroke" transform="translate(-335.90286,-203.86857) translate(1545.7318,68.639101)"/>
    <path d="m -1026.6744,282.06068 c -6.2934,-2.73755 -7.7509,-6.2605 -8.5694,-20.71291 -0.5861,-10.34805 -1.077,-12.84773 -2.4218,-12.33137 -9.6398,3.69944 -30.2399,7.04131 -33.4057,5.41954 -8.9047,-4.56178 -12.5786,-5.9359 -13.4743,-5.0412 -0.5776,0.57805 -1.8944,4.29123 -2.9261,8.25268 -2.3339,8.96049 -6.2759,14.24506 -13.0162,17.45074 -10.0768,4.79202 -22.6688,4.52391 -33.2531,-0.70783 -6.9066,-3.41393 -9.0085,-6.20156 -8.3619,-11.09222 2.1311,-16.11662 3.4874,-21.92458 6.0797,-26.03045 1.5904,-2.51984 2.8918,-4.79538 2.8918,-5.0583 0,-0.26108 -2.8801,-0.8544 -6.4002,-1.31641 -11.4606,-1.50481 -34.3131,-8.13266 -38.9796,-11.30444 -2.4972,-1.69781 -8.2574,-6.72496 -12.8003,-11.17131 -6.9157,-6.76923 -9.0278,-9.86986 -12.9781,-19.05663 -7.4159,-17.24493 -7.3861,-29.58821 0.092,-38.47604 4.5174,-5.36915 10.5442,-7.5763 21.0833,-7.72256 8.1419,-0.11207 9.7006,0.25253 14.2337,3.32812 5.9488,4.03687 8.0776,8.11282 10.1435,19.42184 1.2005,6.57106 2.5286,9.53092 6.5361,14.56387 l 5.0294,6.3173 0.7319,-4.50285 c 0.812,-4.99631 4.1116,-9.37304 7.0965,-9.41396 4.7032,-0.0641 12.5951,-5.30594 24.4976,-16.2693 8.8518,-8.15374 15.5621,-13.17417 21.7539,-16.27541 8.4806,-4.24817 9.7057,-4.51231 23.194,-4.99325 16.2449,-0.57897 24.6934,1.05227 37.769,7.29231 11.709,5.5884 18.4311,13.13447 26.5197,29.76837 6.54427,13.45785 10.94427,19.09877 22.94167,29.41355 1.81488,1.56069 3.13993,3.98434 3.13993,5.74352 0,2.56014 0.82481,3.25667 5.18102,4.37795 17.06016,4.39048 22.07827,7.44714 21.40791,13.03798 -0.20838,1.73781 -1.92612,4.30925 -3.81963,5.71727 -4.39554,3.26857 -20.28995,4.12084 -29.72721,1.59428 -8.99238,-2.40715 -9.7934,-0.65011 -2.96661,6.50907 5.00926,5.25281 5.70011,6.64556 6.02828,12.15121 0.58027,9.73672 -2.74306,19.2261 -8.75731,25.00566 -2.80993,2.69969 -7.34777,5.57985 -10.08385,6.40005 -6.578,1.97019 -19.5692,1.8169 -24.41,-0.28887 z m 22.3255,-6.84649 c 4.222,-1.56069 11.09708,-8.22244 12.42894,-12.04341 l 1.23369,-3.53913 -7.61603,-0.81562 c -4.1888,-0.44827 -11.0052,-0.62446 -15.1472,-0.39117 -4.66,0.26231 -7.3769,-0.0376 -7.1264,-0.79546 0.5752,-1.7317 14.6482,-3.02307 23.78523,-2.1815 7.6195,0.70203 7.7218,0.67119 7.31448,-2.21111 -0.39389,-2.78672 -0.83568,-2.922 -9.5561,-2.922 -5.02871,0 -12.89071,0.43178 -17.47121,0.95823 -4.9777,0.57316 -8.0512,0.51117 -7.64,-0.15452 1.2784,-2.0682 11.5013,-3.8509 22.2985,-3.88876 8.42929,-0.0305 10.23874,-0.32613 8.41961,-1.38206 -4.5765,-2.65725 -28.85861,1.19762 -33.67041,5.34472 -1.4249,1.22786 -1.7277,4.07992 -1.4207,13.37815 l 0.3902,11.81776 4.4896,0.47178 c 5.3925,0.56797 15.6759,-0.31025 19.2878,-1.6459 z m -96.109,-6.2608 c 6.3613,-2.98276 8.248,-5.79055 9.2485,-13.7626 0.4208,-3.35164 1.8579,-7.58118 3.1935,-9.39808 1.3358,-1.81689 2.4287,-3.80876 2.4287,-4.42803 0,-2.55556 -10.1464,-10.99267 -18.203,-15.13642 -8.4928,-4.3694 -8.6893,-4.40726 -12.2735,-2.36746 -4.5646,2.59679 -4.6448,3.90068 -0.2399,3.90068 4.3723,0 14.9133,5.23999 19.8858,9.88452 5.8654,5.47939 3.4119,5.51084 -5.8385,0.0733 -4.5772,-2.69023 -11.3393,-5.77468 -15.0271,-6.85474 l -6.7049,-1.96408 -2.7429,3.15652 c -1.5087,1.73536 -2.74,3.53668 -2.7363,4.00205 0,0.46506 3.451,0.86753 7.6608,0.8941 8.2851,0.0547 12.4952,1.36068 22.7425,7.06756 8.9698,4.99662 6.1951,5.43451 -4.2782,0.67668 -8.5913,-3.90434 -20.4389,-5.82627 -26.513,-4.301 -3.3546,0.84219 -4.9218,5.73192 -6.3802,19.9092 l -0.777,7.55309 6.5121,1.83674 c 12.6942,3.58127 21.2754,3.36935 30.0426,-0.74202 z m -19.8732,-19.11313 c -5.8123,-1.2651 -1.4237,-2.91405 5.2956,-1.98942 8.2372,1.13289 10.7977,3.0704 3.8475,2.911 -3.0172,-0.0641 -7.1316,-0.48338 -9.1431,-0.92158 z m 64.2913,-2.8313 c 0.2709,-0.81317 0.2527,-2.73297 -0.04,-4.26741 -0.4847,-2.53632 -1.195,-2.78886 -7.836,-2.78886 -6.1583,0 -7.1869,0.302 -6.5628,1.92835 0.4071,1.06083 0.74,2.98063 0.74,4.26742 0,2.0166 0.9066,2.33784 6.6034,2.33784 4.0894,0 6.7909,-0.56248 7.0959,-1.47734 z m 10.43,-0.30169 c 0.1993,-0.19971 0.4747,-1.93752 0.6121,-3.86342 0.2235,-3.13239 -0.135,-3.50096 -3.4074,-3.50096 -3.368,0 -3.688,0.37406 -4.0448,4.72423 -0.3797,4.63049 -0.3184,4.70774 3.0452,3.86342 1.888,-0.47361 3.5957,-1.02448 3.7949,-1.22327 z m 30.1199,-3.88236 c 3.3524,-0.89348 9.0604,-1.63032 12.6845,-1.63856 6.38485,-0.009 6.52443,-0.0821 4.5031,-2.31952 -1.14748,-1.26816 -4.493,-3.58249 -7.4346,-5.14227 -4.9693,-2.63679 -5.8405,-2.73481 -12.2925,-1.38145 -9.274,1.94545 -12.6991,4.30711 -12.6991,8.75713 0,1.94148 0.3278,4.38345 0.7284,5.42747 0.6555,1.7088 1.1127,1.69995 4.5716,-0.0913 2.1137,-1.09349 6.5861,-2.71923 9.9386,-3.61272 z m -57.9232,3.52814 c -0.1073,-5.87178 -5.1395,-8.90431 -6.4513,-3.88755 -0.4717,1.80285 0.091,2.81329 1.9911,3.57944 3.3961,1.36893 4.4809,1.44374 4.4602,0.30811 z m 36.9977,-2.95528 c 0.3811,-1.45718 0.4128,-3.10307 0.07,-3.657 -1.0335,-1.67215 -4.136,-1.13075 -4.136,0.72126 0,0.9509 -0.333,2.59679 -0.7401,3.65761 -0.5219,1.36038 -0.026,1.92835 1.6866,1.92835 1.4656,0 2.7007,-1.04922 3.1193,-2.65022 z m 1.2148,-11.29529 c 6.8534,-5.22716 12.5535,-6.95672 21.924,-6.65319 l 8.6277,0.27941 7.6853,-7.00223 c 8.63395,-7.86791 10.48025,-11.92921 6.87052,-15.11565 -8.14048,-7.18391 -7.14809,-6.88129 -11.60612,-3.53454 -4.4781,3.36202 -16.0514,9.3993 -18.0171,9.3993 -2.7473,0 -0.9883,-2.02729 4.2335,-4.88027 3.0212,-1.64987 5.3487,-3.28477 5.1724,-3.63135 -5.9119,-11.63362 -8.7105,-16.09738 -10.4064,-16.59756 -1.1482,-0.33895 -3.6299,-1.40436 -5.5148,-2.36869 -3.3039,-1.68894 -3.5762,-1.59001 -7.5621,2.76107 -5.5442,6.05194 -6.5981,4.44086 -1.4808,-2.26394 l 4.0827,-5.34869 -1.6552,-6.53258 c -0.9104,-3.59348 -1.3456,-6.84374 -0.9671,-7.22117 1.5056,-1.50634 3.4597,2.36319 3.9978,7.91464 1.0027,10.34562 9.9594,13.10516 13.6461,4.20543 1.347,-3.2524 1.1888,-4.37338 -1.3286,-9.41396 -8.409,-16.83727 -35.1929,-27.51726 -59.9568,-23.90759 -5.3474,0.77928 -12.0529,2.54457 -14.9009,3.92327 -5.5213,2.67282 -31.3785,25.74433 -32.0055,28.55701 -0.5372,2.4099 7.5262,17.87275 10.9172,20.93551 1.5765,1.42482 5.9799,4.62958 9.7854,7.12284 l 6.919,4.53308 -3.1584,3.54462 c -4.1295,4.63507 -5.7623,4.523 -3.3066,-0.22566 1.0724,-2.0737 1.7723,-3.92418 1.5552,-4.11168 -0.2171,-0.18749 -2.3147,-1.30022 -4.6615,-2.47219 -2.3466,-1.17137 -5.1945,-2.94337 -6.3285,-3.9361 -2.1671,-1.89812 -2.7585,-1.42451 -11.8257,9.47137 -4.5049,5.41251 -2.675,0.91241 2.3177,-5.69986 l 4.8879,-6.47456 -3.5758,-5.8275 c -1.9665,-3.20507 -4.3018,-8.16595 -5.1892,-11.0229 -1.181,-3.80388 -2.1048,-5.0015 -3.4456,-4.46865 -1.0076,0.40094 -3.5999,1.0254 -5.7607,1.38817 -4.3473,0.73042 -5.7523,3.26949 -4.5219,8.17206 0.9485,3.77883 1.3173,3.8228 6.0125,0.71332 6.3539,-4.20756 7.5984,-2.58274 1.872,2.4438 l -5.4425,4.77828 1.4587,6.95428 c 2.3242,11.08062 10.1902,17.64587 18.0387,15.0558 5.0259,-1.65811 9.9946,-0.73592 18.2074,3.38309 7.8278,3.9251 14.2722,9.01699 16.3667,12.93018 2.0961,3.91717 4.6886,4.27993 26.6399,3.72754 16.3426,-0.4101 17.6498,-0.62355 21.3995,-3.48356 z m -5.0876,-5.39602 c -0.7767,-2.59221 -1.412,-5.60917 -1.412,-6.70572 0,-2.41631 0.6275,-2.41387 -8.6772,-0.0305 -4.5387,1.16312 -9.7378,1.67612 -12.7709,1.26022 -5.0438,-0.69134 -5.1267,-0.64187 -5.9005,3.48264 -1.232,6.56647 -3.4776,6.78511 -2.9588,0.28765 l 0.4398,-5.50932 -5.7954,-2.08469 c -3.1875,-1.14541 -6.1492,-2.65603 -6.5813,-3.35531 -0.8627,-1.39519 0.711,-1.12036 12.3767,2.16654 8.7858,2.47617 19.4178,1.8401 30.9626,-1.85324 8.6398,-2.76381 11.6081,-2.33967 4.4772,0.64004 -3.5168,1.46939 -4.2543,2.26486 -3.2364,3.49119 1.802,2.17141 3.1998,12.92346 1.6801,12.92346 -0.6556,0 -1.8273,-2.12011 -2.6039,-4.71324 z m 29.2568,-11.13558 c -2.8214,-4.59323 -3.3522,-7.31461 -1.4272,-7.31461 1.4479,0 5.138,8.42734 4.4992,10.27599 -0.2482,0.71791 -1.6306,-0.61438 -3.072,-2.96138 z m -68.6112,-2.99528 c -0.3813,-0.38109 0.5938,-5.13647 2.1669,-10.56853 1.5731,-5.43084 2.8602,-10.87755 2.8602,-12.10266 0,-1.22632 0.6349,-2.6206 1.4109,-3.10032 1.0263,-0.63454 1.2085,0.5924 0.6683,4.49948 -1.8931,13.69725 -5.0954,23.28283 -7.1063,21.27203 z m 36.2442,-3.80876 c -0.407,-1.06083 -0.74,-3.46065 -0.74,-5.33435 0,-8.05327 -1.3499,-10.6983 -7.4925,-14.67837 -6.0404,-3.91411 -6.6923,-3.98526 -15.0605,-1.64284 -2.2739,0.63607 -2.3029,0.5414 -0.4305,-1.4126 1.1043,-1.15212 4.4749,-2.37295 7.4902,-2.71282 5.1158,-0.57713 5.8562,-0.2733 11.066,4.5285 3.719,3.42797 5.776,6.42783 6.1607,8.98218 1.6638,11.05313 1.852,14.19865 0.8496,14.19865 -0.6066,0 -1.4361,-0.86814 -1.843,-1.92835 z m -70.1211,-19.71102 c 0.8933,-1.1732 4.1951,-4.60179 7.3373,-7.61905 6.1755,-5.9301 8.0068,-11.08947 5.9015,-16.62749 -1.5533,-4.08512 -0.2973,-5.45832 2.0733,-2.26639 1.6679,2.24532 1.7215,6.4257 0.1683,13.13844 -0.6653,2.87558 -13.2018,15.50773 -15.3898,15.50773 -1.4393,0 -1.4538,-0.34292 -0.091,-2.13324 z m 33.3414,-10.15232 c -3.4017,-3.56509 -3.9151,-3.71227 -10.2854,-2.94307 -4.5825,0.55209 -6.3192,0.41102 -5.4859,-0.44552 1.4296,-1.46939 11.6478,-3.93335 12.9569,-3.12414 0.4935,0.30444 2.6567,-2.74672 4.8071,-6.78145 5.2242,-9.80146 7.015,-9.42281 2.1446,0.45346 l -3.8408,7.78914 2.633,3.34736 c 4.9217,6.25653 2.6667,7.56866 -2.9295,1.70422 z m 27.2563,-6.13714 c -0.5654,-7.31247 -0.4702,-7.76684 1.3879,-6.61838 1.5625,0.96646 1.6982,9.11562 0.1913,11.49468 -0.7167,1.13167 -1.2395,-0.48277 -1.5792,-4.8763 z m -9.4399,-14.01727 c -2.3665,-1.99125 -4.6823,-2.94581 -6.1889,-2.55159 -2.8568,0.74691 -3.2615,-0.99212 -0.4792,-2.05996 3.6986,-1.41901 6.1717,-0.71607 9.4248,2.67984 5.5652,5.80826 3.5385,7.22941 -2.7567,1.93171 z m 14.436,-0.65011 c 3.6501,-3.31805 4.7735,-3.68814 9.5538,-3.14888 8.8229,0.99395 9.4289,3.31744 0.8775,3.36294 -4.4359,0.0244 -8.1728,0.73439 -9.62,1.8288 -4.374,3.30797 -4.9905,1.75644 -0.8113,-2.04286 z m -30.9566,-8.07037 c -4.8416,-2.58671 -5.5671,-3.33942 -3.527,-3.6628 2.7314,-0.4327 11.4511,4.08603 11.4511,5.93407 0,1.65108 -1.2518,1.29259 -7.9241,-2.27127 z m 81.95189,78.13442 c 0.30249,-0.90906 -0.43703,-1.18938 -2.03232,-0.77287 -1.37927,0.36124 -2.50777,1.18053 -2.50777,1.82239 0,1.61841 3.95643,0.70325 4.54009,-1.04952 z m -129.98899,-1.7033 c 4.6614,-3.31927 4.4706,-5.31816 -0.6581,-6.89138 -4.6214,-1.41901 -5.5539,-1.03212 -5.5539,2.3012 0,1.22908 -0.6097,2.23493 -1.3548,2.23493 -0.8775,0 -1.0839,-1.44405 -0.586,-4.09824 0.5564,-2.96505 0.2348,-4.54041 -1.1638,-5.70139 -2.8628,-2.3754 -4.9555,-7.02604 -6.6998,-14.88693 -1.7339,-7.81387 -4.1713,-9.1715 -5.4733,-3.0475 -0.4634,2.17905 -2.7014,8.01663 -4.9733,12.97233 -2.2719,4.95539 -4.1307,9.42708 -4.1307,9.93765 0,0.51087 1.609,1.48955 3.5754,2.17508 l 3.5756,1.24618 3.1503,-12.40344 c 2.9278,-11.52767 3.1065,-11.88707 2.5281,-5.08914 -0.3423,4.02282 -1.4064,9.50893 -2.3646,12.1903 -0.9582,2.68198 -1.3289,5.30502 -0.8237,5.82902 0.6816,0.70661 12.708,4.71233 16.9905,5.65955 0.2318,0.055 2.0147,-1.04127 3.9621,-2.42822 z m 162.41553,1.31946 c 9.31514,-0.0305 7.1778,-3.25697 -4.85352,-7.33476 -5.47005,-1.85415 -10.56083,-3.75227 -11.31288,-4.21703 -0.75219,-0.46445 -3.23822,0.7973 -5.52473,2.80535 -2.28639,2.00683 -5.14566,4.20268 -6.35373,4.87844 -3.32482,1.86087 -1.51101,2.67557 7.69432,3.45424 4.6063,0.38964 8.63551,0.94478 8.95363,1.23243 0.31819,0.28796 1.68968,0.22597 3.04777,-0.13863 1.35803,-0.36582 5.11516,-0.67149 8.34914,-0.68004 z m -192.67323,-15.01244 c 3.8473,-8.12656 6.9784,-17.27943 6.9784,-20.40083 0,-4.15656 -1.992,-2.60136 -3.5671,2.78581 -0.8332,2.84901 -3.6629,9.20051 -6.2883,14.11345 -2.6255,4.91142 -4.7736,9.16326 -4.7736,9.44725 0,0.28337 1.0331,0.51575 2.2955,0.51575 1.5744,0 3.2566,-2.02973 5.3551,-6.46143 z m -2.8041,-10.04483 c 3.5101,-7.76593 6.1238,-14.3782 5.8081,-14.69456 -0.3156,-0.31574 -4.6249,3.60967 -9.5762,8.7214 -4.9513,5.11326 -10.0995,9.85673 -11.4405,10.54013 -1.341,0.68492 1.1863,-2.52044 5.6162,-7.12223 12.4672,-12.95186 12.5124,-13.0563 8.4313,-19.49116 -1.9682,-3.1046 -4.0642,-8.87561 -4.9364,-13.59342 -3.165,-17.1176 -8.8855,-21.26653 -23.7401,-17.21806 -13.2156,3.60203 -17.0727,15.53491 -11.3882,35.23035 3.0276,10.48975 4.456,12.36252 16.611,21.77221 9.6717,7.48866 16.0333,11.33498 17.3756,10.5047 0.4713,-0.2907 3.729,-6.88282 7.2392,-14.64936 z M -1195,183.27687 c -3.9012,-1.69628 -5.8011,-5.24487 -2.0337,-3.7993 1.0606,0.40705 7.918,0.73959 15.2386,0.73959 13.7219,0 16.9289,1.31946 8.7387,3.59348 -6.3929,1.77537 -17.2369,1.51123 -21.9436,-0.53377 z m -2.5561,-15.55109 c -1.9471,-1.94759 -1.7576,-5.20396 0.4072,-7.0007 2.6005,-2.15798 5.5015,-0.60064 5.5015,2.95436 0,3.61059 -3.7654,6.18966 -5.9087,4.04634 z m 13.9675,-1.61567 c -0.9405,-2.45082 1.2586,-6.61685 3.4934,-6.61685 2.4501,0 3.4229,2.11248 2.5587,5.55573 -0.8498,3.38553 -4.8883,4.09305 -6.0521,1.06112 z m 180.8285,31.27075 2.97705,-2.28868 -3.88405,-4.42314 c -2.136,-2.43342 -4.9955,-6.60281 -6.3543,-9.26617 -1.3587,-2.66305 -2.7143,-4.84271 -3.0122,-4.84271 -0.2981,0 -1.1531,1.14174 -1.9001,2.53816 -1.1242,2.10088 -0.5888,4.09427 3.1106,11.5814 2.4577,4.97402 4.8324,9.03073 5.2772,9.01577 0.4447,-0.0153 2.1482,-1.05685 3.7858,-2.31463 z" fill="#030303" transform="translate(-335.90286,-203.86857) translate(1545.7318,68.639101)"/>
</svg>