<?xml version="1.0" ?><!-- Created with Inkscape (http://www.inkscape.org/) --><svg xmlns:inkscape="http://www.inkscape.org/namespaces/inkscape" xmlns:sodipodi="http://sodipodi.sourceforge.net/DTD/sodipodi-0.dtd" xmlns="http://www.w3.org/2000/svg" xmlns:svg="http://www.w3.org/2000/svg" width="156.4155mm" height="126.89423mm" viewBox="0 0 156.4155 126.89423" version="1.1" id="svg1" inkscape:version="1.3.1 (6036e22fae, 2023-11-19, custom)" sodipodi:docname="animals_insect_butterfly_4_color.svg">
  <sodipodi:namedview id="namedview1" pagecolor="#ffffff" bordercolor="#666666" borderopacity="1.0" inkscape:showpageshadow="2" inkscape:pageopacity="0.0" inkscape:pagecheckerboard="0" inkscape:deskcolor="#d1d1d1" inkscape:document-units="mm" inkscape:zoom="0.73584456" inkscape:cx="-335.66872" inkscape:cy="169.87283" inkscape:window-width="1868" inkscape:window-height="1016" inkscape:window-x="52" inkscape:window-y="265" inkscape:window-maximized="1" inkscape:current-layer="layer1"/>
  <defs id="defs1"/>
  <g inkscape:label="Capa 1" inkscape:groupmode="layer" id="layer1" transform="translate(-193.93958,-103.7165)">
    <g id="g51" transform="matrix(0.77958657,0,0,0.77958657,852.01187,-525.0094)">
      <path style="fill:#abd0ec;fill-opacity:1;stroke:none;stroke-width:1.213;stroke-linecap:round;stroke-linejoin:round;paint-order:fill markers stroke" d="m -744.88401,898.53464 c 1.33753,-0.63627 8.58111,-7.49959 9.36011,-10.22409 0.77902,-2.7245 21.49159,-40.6508 32.91994,-52.58847 11.42835,-11.93768 33.3782,-28.27806 47.01188,-22.20392 13.63368,6.07413 -2.23805,51.93148 -4.34483,56.17641 -2.10679,4.24493 -27.85195,43.606 -27.85195,43.606 0,0 9.36182,14.98757 11.86972,20.46787 2.50788,5.48032 1.37799,21.4547 -6.52908,25.89555 -7.90709,4.44085 -16.06582,7.87845 -29.37824,0.57081 -13.31242,-7.30764 -29.10865,-23.67991 -31.14871,-23.90611 -2.04005,-0.22621 -30.57774,18.78194 -45.4495,21.18147 -14.87176,2.39954 -29.09956,2.37424 -32.67523,-8.93013 -3.57567,-11.30437 7.17881,-23.85168 9.86994,-25.83975 2.69113,-1.98808 5.92242,-7.32497 5.92242,-7.32497 0,0 -15.53011,-4.19726 -18.61683,-20.36646 -3.08672,-16.1692 -6.14631,-27.23802 -8.60166,-35.46047 -2.45536,-8.22244 -11.87853,-33.62126 0.78675,-41.17401 12.66526,-7.55276 32.62832,9.69059 32.62832,9.69059 0,0 29.90215,34.27721 36.38786,43.62828 6.48572,9.35106 4.45936,21.4899 7.29701,23.83929 2.83765,2.34938 10.54208,2.96211 10.54208,2.96211 z" id="path47" sodipodi:nodetypes="csssscssssssscssscssc"/>
      <path id="path49" style="fill:#67a4d4;fill-opacity:1;stroke:none;stroke-width:1.213;stroke-linecap:round;stroke-linejoin:round;paint-order:fill markers stroke" d="m -657.67383,812.35352 c -1.14548,-0.0558 -2.47418,0.0768 -4.04492,0.41992 -8.37724,1.8298 -19.26072,5.44842 -27.35156,10.77148 -8.09084,5.32309 -6.66016,11.35352 -6.66016,11.35352 5.87125,-2.24567 21.05109,-6.90435 22.55469,-4.90821 1.5036,1.99615 -4.2963,12.81027 -1.50391,13.6836 2.7924,0.87333 6.30115,4.24132 4.86914,6.15429 -1.43201,1.91299 -8.30468,11.85157 -8.30468,11.85157 0,0 1.71704,9.56516 -0.35938,13.64062 -2.07641,4.07548 -12.3865,18.09023 -17.82812,22.33203 -5.44164,4.24183 -16.39656,13.68308 -23.3418,17.13477 -6.94523,3.45168 -18.18673,5.98715 -4.43945,5.07227 13.74726,-0.9149 33.72383,-6.23833 36.37304,-7.94336 2.64923,-1.70505 26.34961,-36.72071 26.34961,-36.72071 0,0 16.3958,-46.53586 12.95899,-53.31445 -2.79243,-5.50762 -4.30772,-9.28568 -9.27149,-9.52734 z m -168.95703,5.30664 c -2.83692,0.0911 -5.24778,1.06024 -7.2168,2.93164 -6.30084,5.98846 -0.35661,35.05867 3.72461,42.87695 4.08124,7.81828 7.44594,23.12241 7.30274,33.26953 -0.14321,10.14712 17.32617,19.66992 17.32617,19.66992 0,0 -6.22769,6.56969 -8.66211,8.60742 -2.43442,2.03775 -5.37089,11.10363 -7.66211,20.62696 -2.29121,9.52333 6.51641,14.76367 17.11328,14.76367 10.59686,0 29.85742,-9.52344 29.85742,-9.52344 0,0 -7.44779,-2.74361 -13.39062,-1.78711 -5.94284,0.95649 -8.30561,-1.62298 -9.66602,-3.61914 -1.36041,-1.99615 -3.43589,-1.99543 -8.51953,-2.32812 -5.08362,-0.33268 -2.65013,-10.56253 -1.36133,-12.26758 1.28881,-1.70504 10.16889,-11.89484 11.5293,-12.72656 1.36041,-0.83171 37.375,1.20703 37.375,1.20703 0,0 -20.54935,-4.78235 -26.49219,-6.69531 -5.94284,-1.91297 -13.38965,-5.82278 -18.33007,-10.48047 -4.94043,-4.65769 -7.37409,-16.96683 -9.37891,-21.375 -2.00481,-4.40819 6.58594,-7.07032 6.58594,-7.07032 0,0 -3.93814,-6.529 -7.16016,-11.10351 -3.22203,-4.57451 4.43945,-9.48242 4.43945,-9.48242 0,0 -8.23433,-16.5931 -8.01953,-19.62891 0.21481,-3.03582 8.2345,-4.61461 15.39453,-3.94922 -10.23886,-8.06259 -18.54783,-12.11637 -24.78906,-11.91601 z m 136.70898,97.36914 c -1.2548,-0.0423 -2.41077,0.18363 -3.1289,0.76758 -1.91504,1.55717 6.89228,12.45887 7.49414,14.81054 0.60187,2.35168 -6.12724,16.23936 -9.46484,19.57617 -3.33763,3.33683 -9.57434,7.46818 -17.07032,7.15039 0,0 5.96378,7.21353 19.69727,8.23047 13.73349,1.01694 19.04093,-13.88764 19.20508,-17.70117 0.16415,-3.81351 -9.52063,-28.95172 -11.2168,-30.79492 -1.0601,-1.15201 -3.42426,-1.96862 -5.51563,-2.03906 z"/>
      <path id="path48" style="fill:#000000" d="m -827.96015,811.18152 c -5.53168,0.41415 -10.04007,3.1697 -13.14339,8.23944 -3.34542,5.4653 -4.0548,20.77481 -1.43539,30.98018 2.30488,8.98017 7.32585,20.60614 12.26472,28.40291 2.50075,3.94772 2.89614,6.30331 2.43094,14.45938 -0.50809,8.90732 -0.23973,10.128 3.13059,14.22859 2.02769,2.46714 5.96008,5.87093 8.73881,7.5628 l 5.05397,3.07527 c 0,0 -2.63245,1.64233 -3.9484,2.46283 -3.52758,2.19943 -20.94,21.20243 -7.81772,38.27598 1.15064,1.4971 3.82911,3.64356 5.95352,4.77048 12.87598,6.8303 41.30941,0.20976 59.56178,-13.8703 4.41379,-3.40477 7.28582,-4.85025 7.55375,-3.80015 0.78959,3.09625 6.78865,2.39727 8.6467,-1.00734 1.72879,-3.16798 1.734,-3.1649 11.16165,7.02954 11.69282,12.64371 18.06135,16.32502 29.649,17.16116 16.62618,1.19248 28.63908,-7.84645 29.68469,-22.33717 0.69566,-9.64082 -2.4048,-18.93182 -8.77346,-26.29105 -4.9086,-5.67199 -5.61624,-7.13928 -3.99914,-8.2955 1.0804,-0.77235 4.39273,-5.48986 7.35921,-10.48489 2.96648,-4.99506 7.01238,-10.91361 8.99077,-13.15283 6.04464,-6.8415 15.26271,-23.59434 18.40656,-33.45102 4.30197,-13.48756 7.12265,-25.32178 2.95811,-36.52304 -4.67537,-12.57519 -15.93578,-14.0718 -27.21626,-10.34293 -17.27237,5.70959 -30.05883,16.54846 -44.68972,35.28472 -6.28813,8.05259 -15.99884,26.98554 -20.76531,44.36463 -1.79411,6.54155 0.88626,8.92633 3.12977,4.10521 16.55311,-35.57144 28.10802,-48.53309 41.53539,-55.25322 9.70254,-4.8559 17.23525,-6.67562 18.40147,-4.4441 0.37131,0.71067 -0.39378,4.09542 -1.70019,7.52068 -2.76964,7.26198 -2.32025,8.90993 2.21463,8.11345 5.15758,-0.90596 3.94178,4.4896 -2.08697,9.26128 -5.15097,4.07695 -6.23076,6.72439 -3.85841,9.46574 2.26537,2.61771 -0.56897,10.19825 -6.18886,16.55235 -5.87968,6.64787 -6.32529,11.48576 -0.77382,8.39028 1.71424,-0.95579 5.05987,-4.09906 7.43638,-6.9855 3.50365,-4.25547 4.4679,-6.7329 5.09191,-13.0993 0.62535,-6.38073 1.48436,-8.58878 4.59304,-11.78482 4.75356,-4.88716 5.6609,-11.92072 1.92774,-14.95838 -2.36861,-1.92737 -2.38829,-2.32803 -0.26154,-5.77571 2.99247,-4.8509 2.9944,-5.96364 0.0131,-10.37354 -1.50083,-2.21977 -3.82169,-3.79688 -5.79645,-3.93937 -3.56224,-0.25704 -10.61603,2.32141 -14.60156,5.3378 -1.36573,1.03368 -2.72798,1.596 -3.02791,1.24941 -1.86261,-2.15232 20.61403,-15.07137 28.51963,-14.65282 9.88363,0.52327 8.58243,23.40694 3.2633,37.82741 -1.58497,4.29706 -6.5756,13.81433 -11.08916,21.1501 -4.51346,7.33578 -8.28886,14.47525 -8.38911,15.86453 -0.1999,2.77029 -6.98675,11.79551 -11.52063,15.31955 -2.93531,2.28145 -19.55911,8.5757 -27.88734,8.82245 -0.84074,0.0254 4.4018,-2.63013 6.42988,-4.11162 2.02819,-1.48156 4.47704,-3.46417 6.01105,-5.5238 2.5366,-3.40587 2.57557,-3.67866 0.42927,-3.02794 -1.29788,0.39351 -7.00269,3.71235 -12.67814,7.37558 -8.97509,5.79298 -11.10216,6.60441 -16.33425,6.22687 l -6.01619,-0.43581 -0.34104,-7.60805 c -0.20205,-4.4915 -1.11322,-10.91684 -0.13492,-12.78434 1.61796,-3.08857 0.52403,-6.60315 -0.31961,-8.10189 -0.96193,-1.70887 -0.70484,-2.32602 1.17305,-7.24977 1.26033,-3.30455 2.82435,-6.82695 3.85781,-10.23569 0.6948,-2.29165 -2.99314,-4.19917 -5.84133,3.69931 -1.29965,3.60411 -3.25223,10.52099 -4.46626,7.03371 l -2.10797,-6.05534 c -3.69235,-10.60628 -8.21854,-8.51652 -4.07,1.92952 1.62669,4.09509 3.04514,6.58651 1.54234,9.84808 -1.61921,3.51425 -1.14966,6.65448 0.37261,8.60169 1.61409,2.06472 1.81787,4.71783 0.95233,12.39875 l -1.10036,9.77319 -9.39028,0.45791 c -23.79755,1.16098 -41.58897,-2.84155 -51.4829,-11.58298 -5.57674,-4.92724 -7.41659,-10.22981 -7.65311,-22.05107 -0.14537,-7.26549 -1.47599,-12.56981 -6.2926,-25.10656 -4.74341,-12.3465 -6.14728,-17.89665 -6.29419,-24.86418 -0.15862,-7.52753 0.22661,-9.36756 2.3963,-11.44289 3.12914,-2.99326 8.32956,-2.79166 15.29048,0.5935 5.44706,2.64909 6.73657,5.01962 2.56702,4.71876 -1.34949,-0.0974 -3.61008,0.92829 -5.02354,2.28027 -3.45221,3.30219 -2.91212,11.8153 1.14184,18.00883 2.7606,4.21762 2.83462,4.82459 0.80847,6.57802 -2.97286,2.57271 -2.01463,7.55954 2.63166,13.69044 4.06399,5.36269 4.37369,6.51468 1.69485,6.32138 -1.00768,-0.0727 -2.66167,0.72996 -3.67424,1.78522 -6.42333,6.69405 4.06095,28.95007 12.86695,27.3136 2.41446,-0.44879 2.3552,-0.83983 -0.85332,-5.59157 -4.35131,-6.44407 -7.24205,-13.209 -7.01111,-16.40938 0.0982,-1.36125 1.23325,-4.30449 3.32738,-5.40056 4.80613,-2.51554 1.86824,-5.91172 0.0252,-9.60985 -3.94846,-7.92267 -3.76477,-8.88032 -0.18176,-9.54617 2.58276,-0.48006 2.43613,-1.02712 -2.1266,-7.99527 -7.33454,-11.2014 -7.5819,-16.79156 -0.79703,-17.98334 5.54659,-0.97424 8.75889,0.85823 18.69106,10.66607 14.44699,14.26625 34.18299,43.0731 32.41872,47.31923 -0.31001,0.74622 -8.3898,-6.70713 -17.95613,-16.56339 -6.83156,-7.03859 -11.89306,-13.01064 -15.42331,-16.26982 -2.70232,-2.49484 -2.67387,-0.0973 -0.79753,2.07692 7.83654,9.08062 32.6884,37.65764 35.90022,38.61275 1.44677,0.43023 2.01742,-0.79094 2.31825,-4.96 1.25411,-17.38 -30.06515,-61.22725 -53.88823,-75.44247 -7.20319,-4.29811 -13.75948,-6.22517 -19.29116,-5.81102 z m 23.88328,31.0825 c -1.43597,-0.0192 -1.93442,0.57781 -2.04111,2.05641 -0.10026,1.38959 0.21289,2.98132 0.69402,3.53718 1.78165,2.05876 6.35748,0.63715 6.55028,-2.0348 0.13804,-1.91292 -0.82672,-2.85045 -3.43513,-3.34296 -0.70755,-0.13357 -1.2894,-0.20942 -1.76806,-0.21583 z m 116.19798,-1.01526 c -1.16698,0.14701 -2.54837,1.00442 -3.78792,2.52776 -1.63264,2.0064 -1.88769,3.25146 -0.93565,4.58303 2.41004,3.37099 8.44769,-1.12256 7.22302,-5.37583 -0.37993,-1.3193 -1.33248,-1.88196 -2.49945,-1.73496 z m 3.86096,12.3044 c -2.14869,-0.0591 -3.88545,1.31494 -4.04792,3.56643 -0.259,3.58937 4.48326,3.94673 6.65941,0.50203 1.28051,-2.027 1.20136,-2.77493 -0.36874,-3.51104 -0.76497,-0.35868 -1.52652,-0.53772 -2.24275,-0.55742 z m -117.89226,10.27306 c -1.15948,0.0283 -1.65102,0.65867 -1.75188,2.0564 -0.10043,1.39179 0.2062,2.97979 0.68205,3.52977 1.63682,1.8914 5.04128,0.50112 5.23162,-2.13682 0.12461,-1.72691 -0.83456,-2.86441 -2.77062,-3.28334 -0.54525,-0.11799 -1.00468,-0.17546 -1.39117,-0.16601 z m 97.5157,-2.22313 c -0.0942,-0.0231 -0.2086,-0.018 -0.34342,0.0156 -3.59636,0.89378 -28.94655,34.88737 -29.2604,39.23676 -0.2758,3.82216 1.80679,3.06066 7.77762,-2.84232 8.5644,-8.46715 24.7458,-35.69165 21.8262,-36.40996 z m 15.80294,7.89677 c -2.06749,-0.19417 -4.99797,2.99783 -4.31329,5.25604 0.73282,2.4172 0.96669,2.5092 4.01092,1.5862 2.46938,-0.74872 3.20464,-5.03483 1.12165,-6.53964 -0.24711,-0.17852 -0.52392,-0.27485 -0.81928,-0.3026 z m -108.74535,4.63487 c -0.15689,0.0575 -0.24974,0.17017 -0.26208,0.34107 -0.11149,1.54508 19.47259,18.53788 29.56052,25.64946 4.11738,2.90256 8.72142,5.3398 10.22968,5.41555 2.73277,0.13784 2.73304,0.13195 0.22314,-2.01455 -4.85479,-4.15176 -34.19658,-26.72477 -37.04579,-28.49994 -1.18734,-0.7398 -2.23481,-1.0641 -2.70547,-0.89159 z m 95.20406,6.63536 c -0.2409,-0.27836 -6.18911,5.11192 -13.21635,11.98036 -7.02734,6.86834 -13.90474,12.99093 -15.28376,13.60577 -1.37902,0.61475 -2.59217,2.29476 -2.69586,3.73182 -0.22774,3.15619 0.27449,3.24965 4.5668,0.85998 5.09172,-2.8348 27.91182,-28.69578 26.62917,-30.17793 z m -98.52154,3.33972 c -0.76989,0.002 -1.49605,0.21006 -2.04445,0.68465 -1.05883,0.91627 -1.03223,1.96817 0.0902,3.53804 1.96363,2.74654 5.65421,2.49392 6.44194,-0.4404 0.52497,-1.95546 -2.17799,-3.78872 -4.48768,-3.78229 z m 104.06108,1.84533 c -2.7333,-0.19722 -5.03947,2.96648 -3.8381,5.2654 1.23191,2.35747 5.14398,0.92295 5.80644,-2.12888 0.47637,-2.1946 -0.0253,-2.99631 -1.96834,-3.13652 z m -95.77901,12.03923 c -0.28558,0.16055 0.29299,0.84769 1.61843,2.03441 3.66258,3.2793 11.81818,8.12481 19.22873,11.42571 3.56163,1.58655 8.08457,3.02383 10.05098,3.19179 7.07125,0.6056 5.05322,-2.05643 -4.20118,-5.54101 -5.18874,-1.95371 -13.07586,-5.28884 -17.5258,-7.4106 -5.81853,-2.7744 -8.69523,-3.96788 -9.17116,-3.7003 z m -11.01374,21.76315 c 0.53971,0.0621 1.01386,0.30294 1.3991,0.74811 0.36314,0.41963 -1.18189,2.47051 -3.43213,4.55596 -2.25032,2.08546 -4.95044,6.05311 -6.00068,8.81699 -1.62117,4.26658 -1.59984,5.57909 0.13961,8.70337 1.73419,3.11519 2.83348,3.66276 7.16148,3.56299 3.80166,-0.0876 5.44546,0.51114 6.41071,2.33765 2.2317,4.22235 13.23486,3.46218 13.55227,-0.93659 0.0423,-0.58508 -2.67278,-1.26177 -6.03274,-1.50422 -5.04438,-0.364 -6.19916,-0.9268 -6.62634,-3.22539 -0.33681,-1.81264 -1.50574,-2.77796 -3.35119,-2.76735 -1.55875,0.01 -3.57725,-0.10428 -4.48565,-0.25105 -3.01114,-0.48707 -1.18237,-7.75549 3.29085,-13.07754 l 4.39627,-5.22952 9.59718,0.69201 c 8.87173,0.64016 9.37354,0.82548 6.63193,2.46501 -1.63103,0.97554 -4.56547,2.25308 -6.5192,2.8389 -1.95372,0.58571 -3.59641,1.67976 -3.65054,2.42932 -0.19875,2.75443 4.79846,1.57831 13.26546,-3.12151 6.5041,-3.61026 10.78209,-4.96432 17.03664,-5.39269 4.59386,-0.31489 8.54698,-0.34945 8.7837,-0.0759 0.3738,2.4227 0.68088,4.88093 0.61496,7.34766 -0.20273,7.58544 -0.16269,7.67641 -7.30574,12.10611 -10.03734,6.22383 -27.11573,13.21114 -36.55303,14.95546 -13.43263,2.48289 -18.88644,0.66299 -22.00064,-7.34152 -1.61771,-4.15831 -1.5906,-5.84907 0.1836,-11.74726 2.69503,-8.95954 9.71613,-17.32365 13.49415,-16.88903 z m 113.91041,-3.13066 c 2.27554,0.22978 7.36117,7.23272 9.13782,13.12673 1.03018,3.4172 1.64439,9.63536 1.3657,13.81724 -0.43867,6.58219 -1.05548,8.10091 -4.59567,11.30221 -6.23789,5.64075 -12.26529,6.58016 -17.76718,4.88223 -2.08498,-0.64343 9.84969,-6.59686 12.82788,-10.61532 1.47735,-1.99339 5.12107,-8.582 5.52858,-14.36857 0.32123,-4.52401 -3.31811,-13.17391 -6.43404,-15.29345 -0.98121,-0.66745 -1.36217,-1.79873 -0.847,-2.51191 0.1926,-0.26661 0.45884,-0.37198 0.78391,-0.33916 z m -6.17021,3.33521 c 0.59069,-0.0109 1.03449,0.0393 1.28334,0.15599 0.9955,0.46675 2.56366,3.09341 3.4842,5.83687 2.09605,6.24655 0.3168,14.41686 -3.93345,18.06302 -1.68061,1.44159 -3.75546,3.7832 -4.61204,5.20554 -1.28534,2.13413 -4.46565,4.29912 -10.53015,4.73036 -7.17757,0.51038 -9.79298,-2.84778 -16.14099,-9.23224 -4.15308,-4.17792 -10.3063,-7.15655 -13.70824,-10.11549 -1.82179,-1.58456 -1.39236,-2.49757 -1.4903,-7.15095 -0.078,-3.70316 0.18204,-4.60905 6.25295,-4.17098 3.55715,0.25667 8.31244,1.73617 11.2021,3.48316 5.09675,3.08131 14.36702,4.69498 14.52334,2.52871 0.047,-0.6521 -1.41612,-1.57898 -3.17964,-2.25917 -10.38022,-4.00366 -7.06022,-5.04204 -3.54796,-4.78861 1.28,0.092 8.44362,0.44461 12.49819,-0.77063 3.04099,-0.91134 6.12656,-1.4833 7.89865,-1.51558 z m -41.13835,4.52229 c -2.12151,-0.0775 -2.48495,1.37576 0.42854,4.41384 1.1966,1.24784 5.54161,4.35948 9.65697,6.9162 12.55872,7.80229 12.58324,2.83111 0.0324,-6.56344 -4.11756,-3.08202 -7.99637,-4.68911 -10.11786,-4.7666 z m -60.86813,5.45453 c -0.60724,-0.005 -1.27909,0.20392 -1.95259,0.68545 -1.66952,1.19353 -1.86379,2.02606 -0.81413,3.49431 1.81838,2.54328 3.57518,2.57007 4.74544,0.0742 1.0783,-2.29986 -0.15702,-4.2397 -1.97872,-4.25398 z m 35.81347,-0.51797 c -1.90582,0.14142 -5.47298,1.49832 -10.51066,4.02706 -8.26346,4.14792 -9.38629,5.17655 -7.73597,7.08357 0.45245,0.52283 1.11874,0.97341 1.4799,0.99943 1.32924,0.0959 18.25382,-10.079 18.3643,-11.04034 0.0919,-0.80096 -0.45408,-1.15456 -1.59757,-1.06972 z m 64.84638,-1.82699 c -0.64152,0.0224 -1.2816,0.24043 -1.82472,0.71043 -0.83562,0.72315 -1.21334,2.3241 -0.83935,3.55772 0.86454,2.85121 5.18061,2.42155 5.99107,-0.59713 0.54572,-2.03254 -1.40245,-3.73838 -3.327,-3.67102 z m -89.04778,9.86542 c -1.80489,-0.24741 -3.30701,1.49613 -2.57006,3.92689 0.79981,2.63811 2.54221,2.86293 4.70676,0.60707 1.24968,-1.30233 1.17842,-2.153 -0.30246,-3.57385 -0.5974,-0.57324 -1.2326,-0.87765 -1.83424,-0.96011 z m 83.99602,1.64567 c -1.50106,0.21533 -1.862,1.56754 -0.61967,3.0031 1.4197,1.64063 3.03307,1.19335 3.18292,-0.88335 0.0792,-1.09715 -0.7535,-2.06075 -1.85064,-2.13991 -0.25959,-0.0188 -0.49818,-0.0106 -0.71261,0.0201 z m -8.98168,4.62813 c -1.09715,-0.0792 -2.05879,0.75343 -2.13797,1.85057 -0.0792,1.09715 0.75349,2.06075 1.85064,2.13992 1.09715,0.0792 2.05872,-0.75539 2.1379,-1.85254 0.0792,-1.09713 -0.75343,-2.05878 -1.85057,-2.13795 z" sodipodi:nodetypes="ssssssccsssscsscsssssssssssssssssssssssssssssssssssssscccssssssscssccssssssssssssssssssssssssssssssssscssssssssssssssscsssssssssssssssscssssssssssssssssssssssssssssssscssscccccsssscsccssssssssscssssssssscccssssscsssssssssssssssssssssssssssssssssssssssssssss"/>
    </g>
  </g>
</svg>