<?xml version="1.0" ?><svg xmlns="http://www.w3.org/2000/svg" width="298.54648mm" height="101.46086mm" viewBox="0 0 298.54648 101.46086">
    <path fill="#8b6442" d="m 1410.948,-16.739489 c 1.3276,-6.236361 6.7307,-14.788197 12.6584,-17.288907 5.928,-2.500709 23.7734,-7.934378 30.4112,-5.402791 6.6379,2.531586 19.8829,10.589471 36.0921,11.083422 16.2089,0.493977 56.1292,-4.538319 67.0896,-0.648335 10.9604,3.89001 20.624,12.225734 21.5503,18.091599 0.9263,5.8658658 6.9157,11.9170188 19.1421,10.00286427 12.2261,-1.91412807 59.7106,-18.46206927 63.292,3.55039083 3.5814,22.0124859 -41.217,26.1494579 -45.2924,25.7172349 -4.0754,-0.432197 -23.8659,0.246989 -34.0852,-4.970542 -10.2193,-5.21753 -18.3393,-9.786752 -18.3393,-9.786752 0,0 -16.3942,8.366601 -35.4436,11.021669 -19.0495,2.655093 -50.5103,4.445714 -61.4707,2.871205 -10.9603,-1.574535 -42.3285,-14.448578 -42.3285,-14.448578 0,0 6.4217,-11.0834224 5.1559,-17.2889069 -1.2658,-6.2054841 -13.9242,-13.4915271 -18.4319,-12.5035731 z" transform="translate(400.84373,283.63333) translate(-1766.2365,-241.08625)"/>
    <path fill="#4d4d4d" d="m 1415.5639,-15.218137 c -2.8596,0.02443 -5.3784,0.60711 -6.2833,0.917774 -2.0685,0.710087 -8.768,12.3491169 -8.768,12.3491169 0,0 -9.1391,3.6118928 -18.4939,5.5877727 -9.3551,1.9758534 -13.9861,5.6191003 -14.1403,10.6205404 0.093,6.822936 9.9416,7.748876 22.6617,9.786483 12.7201,2.037634 28.8677,-6.421533 33.9003,-11.515576 5.0323,-5.0940449 4.8779,-16.949336 1.142,-23.309172 -2.1013,-3.577423 -6.3419,-4.468346 -10.0185,-4.436939 z m 34.5431,51.57308 c -3.8989,-0.05065 -7.9449,1.605035 -11.2794,3.156396 -4.4458,2.068482 -8.4904,4.44556 -8.1819,8.613428 0,0 6.2677,5.433566 10.837,7.903394 4.5694,2.469853 10.1884,-1.97584 12.7512,-6.359819 2.5625,-4.383951 4.6308,-10.774766 -0.309,-12.627136 -1.235,-0.4631 -2.5183,-0.669378 -3.8179,-0.686263 z m 76.8449,0.928109 c -3.5776,-0.114999 -7.1211,2.767566 -9.3643,4.142382 -2.8712,1.759768 -6.6689,6.977117 -4.8782,9.323462 0,0 4.94,4.507372 9.386,5.865792 4.4458,1.358395 9.0767,0.277977 11.5776,-5.371765 2.5008,-5.649768 0.7411,-10.311486 -3.7357,-13.059151 -0.9793,-0.601058 -1.9837,-0.868521 -2.9854,-0.90072 z" transform="translate(400.84373,283.63333) translate(-1766.2365,-241.08625)"/>
    <path d="m 1436.4765,55.666258 c -5.518,-3.444371 -8.4467,-7.664996 -7.3409,-10.57949 1.3456,-3.546764 15.9427,-10.506895 21.4931,-10.24799 2.3703,0.106194 9.1515,-2.473379 12.6914,-4.835711 1.5926,-1.062447 1.2618,-1.244936 -3.8178,-2.104837 -7.0259,-1.189573 -23.3626,-6.367708 -28.6549,-9.082658 -3.7552,-1.926183 -4.2532,-1.988059 -7.3016,-0.908246 -1.7994,0.637662 -5.2928,2.477173 -7.7633,4.088251 -7.4974,4.889212 -12.5302,6.112054 -23.0562,5.601578 -16.6187,-0.80718 -27.7653,-6.915637 -27.3207,-14.974492 0.3505,-6.3543501 5.3284,-9.7161866 18.1226,-12.23997854 8.0554,-1.58885036 11.0499,-2.54661266 14.583,-4.66408286 3.2699,-1.9597615 10.2611,-12.5699716 10.4419,-15.8472926 0.3358,-6.08648 4.224,-10.861276 12.8891,-15.828398 14.0737,-8.067637 30.2345,-8.764915 43.7304,-1.887191 13.3327,6.794491 28.922,8.297791 55.2787,5.330149 24.7107,-2.782191 37.4892,-1.352247 48.7233,5.452001 6.4644,3.915589 10.4236,8.8146 10.9588,13.560244 0.2647,2.344194 1.3882,4.8192257 3.118,6.8677437 2.3699,2.8062307 3.2346,3.2316704 6.9856,3.437585 5.8386,0.3221145 21.1465,-2.6107129 28.4556,-5.4488921 8.65,-3.3588166 14.2301,-4.5028266 20.3234,-4.1666596 10.9865,0.60612 19.0148,4.6941032 23.4145,11.92284546 1.538,2.52728414 1.7729,3.93353434 1.2716,7.61780494 -0.7596,5.5851176 -3.6226,9.1663356 -11.4388,14.3089976 -7.8442,5.160984 -14.7177,7.651304 -26.9685,9.77051 -9.5163,1.64638 -11.7393,1.721564 -22.4713,0.760659 -10.5285,-0.94292 -12.904,-1.460211 -20.4719,-4.458805 -5.2693,-2.08774 -10.6392,-4.989136 -13.9663,-7.545598 -4.7963,-3.686038 -5.5759,-4.020775 -6.9203,-2.972794 -0.8332,0.649804 -3.6436,2.23046 -6.2453,3.513085 -2.6018,1.282415 -5.7035,3.616287 -6.8933,5.186517 -1.1894,1.570144 -3.8369,3.965935 -5.8837,5.32413 -9.526,6.321104 -8.6611,5.108848 -7.5173,10.535105 1.3892,6.590305 0.2804,11.200813 -3.513,14.608235 -2.0399,1.832454 -3.8295,2.645857 -5.6049,2.547909 -6.6511,-0.366938 -15.6699,-6.546615 -15.4473,-10.584168 0.2074,-3.759567 5.9783,-8.85943 13.6889,-12.097121 6.3477,-2.665442 15.1664,-8.044422 14.4674,-8.824633 -0.1597,-0.178276 -3.8551,0.24359 -8.2102,0.93962 -11.9896,1.915829 -27.5585,2.867651 -43.178,2.639859 l -14.062,-0.205143 -3.581,2.720699 c -1.9694,1.496494 -5.3519,3.287034 -7.5164,3.979305 -3.5736,1.14279 -3.8998,1.477645 -3.5476,3.643996 0.6421,3.946917 -3.2391,11.474384 -7.8932,15.31056 -5.0367,4.151536 -7.1801,4.12667 -14.0516,-0.163208 z m 14.6186,-5.898538 c 3.1009,-4.550368 4.6701,-9.022325 1.9517,-5.561229 -3.5275,4.490888 -7.2163,10.689435 -6.2036,10.424605 0.628,-0.164721 2.5411,-2.352825 4.2519,-4.863376 z m -9.6648,0.889477 c 2.887,-1.295865 12.3686,-10.797768 11.6147,-11.639271 -0.2852,-0.318312 -1.1436,-0.607423 -1.9079,-0.642118 -1.1038,-0.0609 -1.1558,0.10324 -0.2506,0.749017 0.8429,0.601487 -0.2496,1.80948 -4.2151,4.655904 -5.0563,3.630292 -9.4662,7.879483 -8.248,7.946693 0.3055,0.01686 1.6585,-0.464814 3.0069,-1.070225 z m 89.3085,0.535591 c 1.5446,-2.838679 2.4019,-7.413913 1.1846,-6.32472 -1.1187,1.001346 -4.2009,9.148353 -3.4761,9.188339 0.3915,0.0216 1.4226,-1.266991 2.2915,-2.863619 z M 1441.5942,42.6147 c 3.9792,-1.972034 6.2334,-3.37223 5.0094,-3.112092 -2.7595,0.586642 -9.7172,3.62463 -12.1674,5.31311 -3.5307,2.432573 0,1.348513 7.158,-2.201018 z m 85.8101,1.902167 c 1.0778,-1.545686 1.8011,-2.987337 1.6071,-3.203648 -0.3428,-0.38303 -6.2228,6.273874 -7.7974,8.827573 -1.4576,2.364267 4.2117,-2.786253 6.1903,-5.623925 z m -5.7655,-1.938998 c 3.8119,-3.102593 4.092,-3.498869 1.6269,-2.301068 -3.1994,1.554686 -8.4154,6.018262 -7.0553,6.037493 0.4535,4.4e-4 2.8959,-1.674851 5.4284,-3.736425 z m -117.49,-22.736291 c 5.4381,-1.091228 17.6095,-8.403796 17.7685,-10.6752642 0.08,-1.0225849 1.2095,-3.7785145 2.5287,-6.1232861 1.3194,-2.34496555 2.4412,-4.9672606 2.4929,-5.8277034 0.1773,-2.7780297 -2.4625,-6.0945389 -6.8401,-8.6240703 -4.0748,-2.354522 -4.4147,-2.413105 -7.2447,-1.250898 -2.1026,0.863617 -3.7977,2.656319 -5.8095,6.1443153 -1.5622,2.7086916 -3.6258,5.55887475 -4.5855,6.33348482 -2.7889,2.25099448 -9.3515,4.40765088 -17.9127,5.88667918 -8.4592,1.4614137 -13.6825,3.6405566 -13.7993,5.7570737 -0.3486,6.319641 19.2125,11.226868 33.4017,8.379669 z m -19.9814,-4.514995 c -0.6593,-1.210845 0.3942,-2.615543 1.899,-2.532524 1.7888,0.09869 2.5029,1.974238 1.0588,2.78049 -1.6399,0.915763 -2.3567,0.855535 -2.9578,-0.248171 z m -4.1154,-4.574129 c -0.7709,-1.4154449 0.4149,-2.663036 2.4262,-2.5520766 1.2059,0.066527 1.6464,0.5757736 1.3887,1.6049645 -0.433,1.7277891 -3.0375,2.3745861 -3.8149,0.9471121 z m 33.1127,-8.8419465 c -2.3588,-2.07441441 -2.1742,-3.8477457 0.2925,-2.81826448 1.8867,0.78716694 4.4133,3.19829898 4.3602,4.16075138 -0.073,1.3217897 -2.3815,0.6558309 -4.6533,-1.3425199 z m 78.2814,21.9505905 c 25.9898,-0.163617 51.3506,-2.729829 54.4575,-5.510475 1.9192,-1.717571 1.9642,-7.568204 0.091,-11.7991073 -1.7907,-4.0444896 -1.5742,-4.8048092 1.0814,-3.7982843 2.3815,0.9027287 5.8006,7.7159226 5.6096,11.1783216 -0.084,1.524223 0.031,2.781637 0.2553,2.794009 0.2238,0.01234 3.112,-1.020693 6.1816,-2.746894 4.0508,-2.278025 7.4053,-3.274739 12.5042,1.094517 3.2412,2.777409 10.2234,5.125725 14.4921,6.668098 6.9138,2.49794 9.2461,2.894478 21.3496,3.630319 20.7197,1.260132 34.0905,-1.563508 44.6036,-9.418616 7.2967,-5.451787 8.9417,-9.5624077 5.9927,-14.97736083 -2.4877,-4.56788857 -8.8577,-7.36768637 -18.0276,-7.92396367 -6.8888,-0.416918 -8.1235,-0.2039575 -16.3461,2.8297799 -15.8779,5.8580413 -33.0603,7.9170312 -39.5897,4.74380554 -3.8469,-1.86949574 -6.7866,-6.18595764 -8.429,-12.37686194 -3.5577,-13.410579 -25.2302,-19.828089 -53.7761,-15.924198 -30.6441,4.190849 -47.2823,2.49319 -62.0013,-6.326055 -3.7208,-2.229317 -5.2523,-2.598468 -12.1527,-2.927556 -15.8492,-0.757251 -31.2304,6.973559 -34.4399,17.307968 -0.665,2.140648 -0.5387,2.240074 3.128,2.460796 5.0113,0.30105 10.0464,3.009181 13.2985,7.151193 3.819,4.8633248 3.9957,8.3131381 0.7473,14.5962929 -1.4707,2.844802 -2.4789,5.7781961 -2.2406,6.5184561 0.2384,0.740362 1.7307,1.973717 3.316,2.741078 5.086,2.461102 22.4397,7.180496 29.8732,8.124181 7.0453,0.894106 7.2086,0.870453 7.3151,-1.059759 0.069,-1.257171 -1.6994,-3.949447 -4.8688,-7.41057 -5.5132,-6.0209875 -6.1778,-7.8140393 -2.4883,-6.7118715 6.4906,1.9390671 12.1489,8.3028875 13.8155,15.5383335 0.197,0.857165 0.6673,1.573666 1.0444,1.592215 0.3767,0.02078 7.2185,-0.0074 15.2037,-0.05779 z m 125.4777,-6.462746 c 0.2345,-0.591704 1.3468,-1.024705 2.4721,-0.962624 1.1254,0.06209 2.1833,0.614819 2.3509,1.228711 0.2013,0.735959 -0.6401,1.063384 -2.4718,0.962329 -1.8317,-0.101055 -2.632,-0.519052 -2.3512,-1.228416 z m 0.3142,-5.695496 c -0.5945,-0.237181 -0.8381,-0.779696 -0.5411,-1.205555 0.6909,-0.9908504 3.7043,-0.8421129 4.278,0.211443 0.5056,0.928251 -2.1385,1.631951 -3.7369,0.994316 z m -3.5179,-3.8947454 c 0.055,-1.0017549 3.7415,-2.4683525 5.9044,-2.3490255 0.692,0.03818 1.238,0.4371274 1.2132,0.8868095 -0.041,0.7446041 -0.7441,1.0046096 -5.6121,2.0764972 -0.857,0.1895628 -1.5347,-0.084667 -1.5055,-0.6142812 z m 33.3823,0.7647962 c -1.8687,-0.8282589 -1.9517,-1.0471493 -0.642,-1.6918646 1.5956,-0.7851988 4.2546,-0.016453 4.1868,1.210909 -0.071,1.2864685 -1.3396,1.4584346 -3.5448,0.4809556 z m -15.509,-5.8675588 c 0.05,-0.900385 3.2879,-1.71107843 3.9378,-0.985693 0.2419,0.2697436 0.2111,0.8185221 -0.068,1.219344 -0.6687,0.9592054 -3.9244,0.7625914 -3.8692,-0.238041 z m 12.7694,-0.2771821 c 0.3246,-0.4654976 1.5536,-0.7934553 2.7308,-0.7285091 1.1772,0.064946 2.1189,0.5126606 2.0924,0.9946013 -0.027,0.4820429 -1.2558,0.8098875 -2.7311,0.7284927 -1.5649,-0.086336 -2.4364,-0.500684 -2.0921,-0.9945849 z m -16.6272,-1.82146615 c -0.6609,-1.21338978 0.405,-2.32086425 2.5212,-2.61953355 2.2325,-0.3154964 2.2344,1.19852128 0,2.50837586 -1.4311,0.84014294 -2.111,0.86990834 -2.5244,0.11118523 z M 1431.54,-13.348578 c -2.0831,-2.325123 -1.1291,-5.286353 1.7892,-5.37503 1.8622,-0.05658 2.9603,1.897084 2.8347,3.564868 -0.2163,2.86766 -2.7886,3.858972 -4.6239,1.810162 z m 10.9604,0.297391 c -1.0812,-2.317667 0.6057,-5.532276 2.6322,-5.016012 2.191,0.558409 3.3145,3.262498 2.0791,5.003053 -1.5255,2.148766 -3.7122,2.15469 -4.7113,0.01296 z m 198.1108,11.7368756 c 0.066,-1.1957154 4.3859,-2.8379713 5.1682,-1.9646957 0.7149,0.7980883 -2.3742,3.0167479 -4.07,2.9231901 -0.631,-0.0348143 -1.1254,-0.46603896 -1.0982,-0.9584944 z m -81.7511,-8.8869556 c 0.3246,-0.465498 1.1587,-0.815236 1.8538,-0.776891 0.6949,0.03834 1.242,0.464278 1.2154,0.946219 -0.027,0.4820433 -0.8609,0.8317705 -1.854,0.7769821 -0.9931,-0.054788 -1.5401,-0.4807213 -1.2152,-0.9463101 z m -15.7362,-1.747322 c 0.3247,-0.4656 0.9617,-0.82611 1.4153,-0.801084 0.4539,0.02504 0.8036,0.439988 0.777,0.922031 -0.027,0.48194 -0.6636,0.842553 -1.4156,0.801068 -0.7519,-0.04148 -1.1015,-0.456529 -0.7767,-0.922015 z m 12.4701,-2.82859 c 0.3248,-0.465486 1.9481,-0.771686 3.6079,-0.680116 1.6595,0.09155 2.9958,0.561031 2.9692,1.042972 -0.027,0.482043 -1.6501,0.788129 -3.6081,0.680111 -2.1493,-0.118578 -3.3253,-0.531807 -2.969,-1.042967 z m -15.3214,-3.512056 c 2.4278,-1.804605 3.3919,-1.949957 4.1158,-0.62117 0.2721,0.499443 -0.5631,1.244572 -1.8559,1.65604 -3.6705,1.167854 -4.6313,0.728099 -2.2599,-1.03487 z m 11.564,-0.125785 c 0.024,-0.435084 1.3104,-1.155319 2.8583,-1.60074 3.4003,-0.978173 3.4412,-0.977866 3.3864,0.01491 -0.024,0.435084 -1.3104,1.15532 -2.8583,1.60074 -3.4004,0.978174 -3.4412,0.978172 -3.3864,-0.01491 z m -17.4379,-2.786007 c 0.067,-1.209395 4.5254,-3.654149 5.2301,-2.867891 0.3208,0.358165 -0.4391,1.350127 -1.6884,2.204293 -2.5386,1.735929 -3.612,1.937203 -3.5417,0.663598 z" transform="translate(400.84373,283.63333) translate(-1766.2365,-241.08625)"/>
</svg>