<?xml version="1.0" ?><svg xmlns="http://www.w3.org/2000/svg" width="115.52386mm" height="78.844788mm" viewBox="0 0 115.52386 78.844788">
    <path d="m 6820.4234,-1092.8977 c -6.1695,0.016 -13.124,-1.7905 -5.1475,-5.5195 7.9765,-3.7289 13.7446,0.9363 13.7446,0.9363 l 26.5214,0.9528 c 0,0 4.7094,-5.5359 8.9989,-5.3552 4.2891,0.1807 7.1004,5.4209 2.9749,7.2279 -4.1251,1.8069 0.7849,14.2915 0.7849,14.2915 0,0 18.0522,0.3449 24.3314,2.2997 6.2789,1.9548 11.0793,7.6386 9.7835,18.234 -1.2961,10.5953 -6.5345,18.661 -22.1591,19.4824 -15.6243,0.8213 -31.5593,-7.2279 -34.9907,-9.1335 -3.4318,-1.9055 -30.2635,-1.8562 -35.7209,-12.6487 -5.4578,-10.7925 3.8514,-27.6137 10.8786,-30.7677 z" fill="#ffd3d3" transform="translate(-300.90332,87.244408) translate(-6504.372,1016.6197)"/>
    <path d="m 6810.8666,-1077.5528 c 0,0 -3.2951,10.1854 -2.7559,13.2023 0.5392,3.017 3.5549,0.06 4.0142,-0.5974 0.4596,-0.6571 4.194,-3.1958 3.9543,-6.7205 -0.2394,-3.5247 -4.0143,-5.5558 -5.2126,-5.8844 z m 55.099,1.5829 c 0,0 -2.4769,0.8063 -3.5352,1.3141 -1.0586,0.5078 -3.8144,1.9416 -5.1723,5.4663 -1.3581,3.5247 0.8786,2.3004 2.0769,5.4069 z" fill="#ffafaf" paint-order="fill markers stroke" transform="translate(-300.90332,87.244408) translate(-6504.372,1016.6197)"/>
    <path d="m 6867.0089,-1026.5597 c -0.5261,-0.9825 -0.9558,-3.8281 -0.9558,-6.3233 0,-4.2122 -0.1564,-4.5368 -2.1853,-4.5368 -1.8779,0 -2.224,0.4714 -2.4626,3.3584 -0.2216,2.6687 -0.6459,3.3584 -2.0687,3.3584 -1.462,0 -1.8417,-0.6877 -2.0637,-3.7364 -0.3113,-4.2854 -0.8262,-4.8209 -6.7564,-7.0399 -2.3884,-0.8934 -5.1417,-2.7056 -6.1185,-4.027 -1.6238,-2.1962 -2.4565,-2.4508 -9.7017,-2.9651 -14.7793,-1.049 -26.121,-6.8187 -28.6867,-14.5937 -2.3363,-7.0767 1.1418,-19.3774 7.0562,-24.9595 3.8448,-3.6297 3.5639,-4.4333 -0.7777,-2.2183 -4.0227,2.0521 -5.65,1.7308 -5.343,-1.2363 0.6991,-6.7557 10.3783,-11.2486 16.2231,-11.2977 1.2885,-0.011 3.3033,0.7258 4.4784,1.6369 1.7234,1.3371 4.3818,1.7612 13.7779,2.199 l 11.6426,0.5425 3.9415,-2.647 c 5.654,-3.7975 11.5351,-3.7543 14.7862,0.1088 1.2748,1.5154 2.3182,3.7407 2.3182,4.9448 0,1.9961 -0.6141,2.5229 -5.1077,4.3801 -0.1,0.042 0.4112,2.0974 1.1364,4.5691 l 1.3164,4.4938 h 8.7433 c 10.1694,0 15.0711,1.8075 21.0119,7.7475 3.8554,3.8562 6.2351,4.0075 9.8631,0.627 1.9427,-1.8096 7.2488,-2.3712 9.4149,-0.9965 0.803,0.509 0.054,1.2262 -2.4623,2.3613 -1.9883,0.8965 -3.6153,1.7525 -3.6153,1.9021 0,0.1496 1.0079,1.7567 2.2389,3.5713 1.2313,1.8145 2.2385,4.2688 2.2385,5.4538 0,2.433 -3.6585,6.5512 -5.8202,6.5512 -2.7874,0 -5.8217,-4.1527 -5.8217,-7.9666 0,-6.9742 -1.5531,-4.3988 -1.9919,3.3038 -0.3103,5.4547 -1.0098,8.9335 -2.3044,11.4704 -1.5695,3.0772 -1.778,4.6803 -1.3497,10.347 0.5278,6.9805 -0.4435,10.6082 -2.8424,10.6082 -2.0752,0 -4.0494,-3.7358 -4.0494,-7.6624 0,-4.5645 -0.3845,-4.9608 -3.6914,-3.8078 -2.6335,0.9179 -2.6415,0.9434 -2.0391,6.2745 0.5967,5.27 0.5732,5.3482 -1.5332,5.0504 -1.9109,-0.2701 -2.1701,-0.8168 -2.4145,-5.1062 l -0.274,-4.8036 -2.7483,0.5496 c -1.5115,0.3024 -4.2906,0.5497 -6.1757,0.5497 h -3.4282 l -0.2668,5.5973 c -0.2368,4.9728 -0.4837,5.6284 -2.2211,5.8757 -1.2328,0.1756 -2.3059,-0.3807 -2.9101,-1.5085 z m 0.6737,-19.6621 c 0.3838,-2.608 3.4402,-2.486 4.4879,0.2699 0.7791,2.0495 -0.328,2.2631 4.6584,2.2631 8.7697,0 16.6688,-2.4188 15.7937,-4.8361 -0.6549,-1.8107 1.2321,-4.1196 3.367,-4.1196 2.371,0 2.8004,-0.7574 3.6527,-6.4421 1.8301,-12.2018 -7.9693,-20.3756 -23.224,-19.372 l -4.4118,0.2903 -1.0094,4.9256 c -0.5557,2.7092 -1.7512,6.3263 -2.657,8.0383 -2.324,4.3916 -10.1817,11.8093 -14.6403,13.8201 -2.0723,0.9342 -3.7667,2.0287 -3.7667,2.4323 0,0.4036 2.7201,1.5305 6.0447,2.5043 10.6502,3.1192 11.2769,3.1313 11.7048,0.2259 z m -36.1101,-11.4935 c -6.3353,-3.2556 -7.6119,-4.608 -7.6119,-8.067 0,-4.0698 3.9687,-6.5568 10.4703,-6.5615 5.0874,-0.039 10.3736,-1.3661 13.0614,2.4752 3.6479,5.2133 1.9441,9.1227 -1.6397,11.8917 -2.1524,1.6628 -2.3812,1.7391 -0.7976,1.7442 2.5929,0.01 9.2035,-4.3996 13.1016,-8.7361 3.6001,-4.004 5.1971,-8.4059 5.2043,-14.3478 0.011,-9.9224 -6.0624,-14.5243 -19.1755,-14.5243 -10.2227,0 -15.9676,1.3544 -22.9112,5.401 -7.3686,4.2939 -11.4246,10.7193 -6.7676,10.7193 1.6284,0 4.0809,3.9453 4.0809,6.5646 0,2.5273 -3.1552,6.869 -4.9904,6.869 -1.9774,0 -1.5187,1.4725 1.1017,3.5334 3.2776,2.5783 11.9148,4.9491 19.1137,5.2465 1.7302,0.071 1.2212,-0.4302 -2.24,-2.2082 z m 24.0306,-9.7761 c -0.6864,-1.7875 2.2381,-5.7721 4.9799,-6.7865 1.9025,-0.7038 1.8359,-0.4856 -0.7571,2.468 -1.5654,1.7823 -2.6306,3.8009 -2.3677,4.486 0.2632,0.6852 0.075,1.2458 -0.4171,1.2458 -0.4931,0 -1.1401,-0.636 -1.438,-1.4133 z m -22.3637,-9.7834 c -0.895,-2.3314 0.475,-5.8192 2.2848,-5.8192 2.1545,0 2.947,2.0942 1.8671,4.9335 -0.9384,2.4685 -3.3471,2.9823 -4.1519,0.8857 z m 10.0329,-0.2674 c -0.8403,-2.6476 0.3638,-4.7874 2.5202,-4.4797 2.7714,0.3954 2.7392,5.5253 -0.042,5.9208 -1.2787,0.1822 -2.1237,-0.3081 -2.4829,-1.4411 z m -0.7038,15.4434 c 2.2924,-1.6054 2.6161,-5.0322 0.6317,-6.6793 -1.9286,-1.6006 -11.6936,-0.6094 -13.9292,1.4137 -1.329,1.2031 -1.4887,1.8388 -0.6994,2.7893 0.8424,1.0162 1.194,0.8874 2.0115,-0.7369 0.5445,-1.0824 1.4934,-2.1342 2.1096,-2.3373 1.4188,-0.4678 1.4757,2.648 0.074,4.0495 -0.7965,0.7966 -0.7429,1.1419 0.2248,1.4514 0.6973,0.2235 1.8732,0.6078 2.6118,0.8543 2.5756,0.8588 4.9886,0.5799 6.9657,-0.8047 z m -4.279,-2.6359 c 0,-1.6192 0.4819,-2.239 1.7385,-2.239 2.2863,0 3.1664,1.5417 1.812,3.1738 -1.7001,2.0486 -3.5505,1.5614 -3.5505,-0.9348 z m 74.4171,0.1735 c -1.1694,-1.1696 -1.3327,0.1265 -0.3342,2.6638 0.6227,1.5822 0.6564,1.5815 0.9797,-0.022 0.1835,-0.9144 -0.1068,-2.1032 -0.6455,-2.642 z m -99.2384,-3.2224 c 1.8805,-3.1825 1.9638,-5.7809 0.2325,-7.2177 -1.9026,-1.579 -2.8678,-0.5554 -3.43,3.6382 -0.845,6.2985 0.6216,7.9402 3.1975,3.5795 z m 9.8798,-28.4422 c 1.8501,-0.9569 2.3232,-1.5893 1.5477,-2.0685 -1.6614,-1.027 -9.8902,1.1545 -9.8902,2.6218 0,1.2174 5.6413,0.8432 8.3425,-0.5533 z m 41.5856,-0.8662 c 1.1079,-0.297 2.0148,-0.8491 2.0148,-1.2268 0,-1.2431 -3.7294,-1.6915 -6.141,-0.7381 -2.2258,0.8799 -2.2605,0.979 -0.576,1.6695 2.2845,0.9362 2.3066,0.9375 4.7022,0.2954 z" fill="#030303" transform="translate(-300.90332,87.244408) translate(-6504.372,1016.6197)"/>
</svg>