<?xml version="1.0" ?><svg xmlns="http://www.w3.org/2000/svg" width="293.76651mm" height="332.65659mm" viewBox="0 0 293.76651 332.65659">
    <path d="m 5641.9436,-14.794907 c -13.7294,0.0023 -27.1384,0.922369 -33.5132,3.364653 -14.5708,5.5823544 -44.5903,32.546584 -49.9153,38.128939 -5.3253,5.582384 -17.6722,51.452337 -20.3641,58.71993 -2.6919,7.267623 -8.3679,42.552515 -12.7568,46.186325 -4.3889,3.63378 -9.3632,8.90027 -10.5922,15.43059 l 1.4237,7.72924 22.1336,12.02459 c 3.473,-2.47467 10.7111,-7.93823 14.5381,-13.06535 5.1496,-6.89896 0.8191,-16.32591 3.2184,-21.38164 2.3992,-5.05573 12.4644,-26.17412 12.4644,-26.17412 0,0 32.5356,22.48741 43.9466,25.33127 11.4109,2.84385 42.6011,-10.26914 42.6011,-10.26914 l 19.8959,-11.37553 c 0,0 4.272,4.58168 10.358,5.21363 6.0859,0.63198 9.2454,-7.26777 9.2454,-7.26777 0,0 8.485,-1.31617 12.6985,-2.47478 4.2132,-1.15861 2.6918,-10.111531 2.6918,-10.111531 l 6.7298,-4.581632 c 0,0 10.7087,7.47785 15.273,9.584423 4.5643,2.10656 2.6919,-8.899867 6.7882,-8.478548 4.0962,0.4213 8.8361,9.005468 12.5228,9.374108 3.6867,0.36867 7.4316,-5.792921 10.065,-9.321398 2.6337,-3.528456 2.5745,-18.643306 2.5745,-18.643306 l 1.6387,-13.692704 c 0,0 4.3887,1.053592 6.3784,-0.842326 1.9897,-1.895898 1.2872,-14.640548 -1.1705,-21.276221 -2.4577,-6.635633 -31.3655,-28.1751542 -38.9728,-26.542566 -7.6073,1.632579 -13.9273,8.478552 -13.9273,8.478552 0,0 -27.7956,-27.7007713 -35.6955,-30.807938 -4.4437,-1.747776 -22.6261,-3.262644 -40.2782,-3.25975 z" fill="#333" paint-order="fill markers stroke" transform="translate(52.497702,108.43846) translate(-5535.3491,-85.75204)"/>
    <path d="m 5518.4152,156.77791 17.4131,9.48997 c 0,0 -11.3528,73.08371 -12.6053,78.5377 -1.2523,5.45401 -2.1818,37.26905 -2.1818,37.26905 0,0 10.5855,16.14387 9.2925,19.81623 -1.2928,3.67236 -21.4937,4.58139 -25.9781,2.39977 -4.4847,-2.18162 -14.7064,-5.49037 -13.3731,-6.94478 1.3332,-1.45439 14.6253,-15.38028 14.6253,-15.38028 l 4.2019,-62.10295 z" fill="#ffd1d1" paint-order="fill markers stroke" transform="translate(52.497702,108.43846) translate(-5535.3491,-85.75204)"/>
    <path d="M5528.0879 126.54183c1.8989 1.12712 13.4943 1.12712 9.8983 5.30855-3.5957 4.18142 3.111 1.818 4.9694.7272 1.8587-1.09079 5.8584 1.67257 8.3227 5.34493 2.4646 3.67237 4.3231 11.96248-.2825 17.99823-4.6059 6.03575-11.6764 8.29008-16.2013 7.59926-4.5249-.69086-15.0698-6.10852-17.1706-8.10832-2.1008-1.9998-5.3734-7.38111-3.2322-12.79874 2.1413-5.41764 11.4742-12.79872 11.4742-12.79872zM5701.3141 63.751066c-3.0705-5.454015 12.4208-5.500373 22.559 2.501822 3.2259 2.546188 6.895.809295 5.9929-6.71697-.4476-3.733542 3.7129-6.848816 8.1894-7.132242 4.6754-.296025 5.3329 4.872249 10.9082-2.61792 5.5756-7.490169-4.8482-34.978366 2.5453-32.796771 7.3935 2.181596 20.8878 22.397799 21.2514 27.124607.3635 4.726808 2.9088 12.653301-1.899 14.798543-4.8077 2.145241-6.545 1.163505-6.1814 4.290483.3638 3.126952-.6464 9.562703-1.8989 11.017091-1.2523 1.454415.889 15.307574-5.5753 19.670792-6.4643 4.36319-16.5243-.327237-18.7466-1.308973-2.2219-.98171-.6463 8.762792-5.5753 6.981137-4.9289-1.781652-15.3527-7.308374-15.3527-7.308374l-7.1913.98171c0 0 1.7777 10.726209-3.4745 11.853389-5.2523 1.12715-13.4134-1.41806-13.4134-1.41806 0 0-3.8383 14.39862-8.4844 12.72603-4.6463-1.67256-8.0399-7.63561-8.0399-7.63561-3.2934-12.194302 5.8797-10.523742 12.6008-13.492548 7.8785-3.599657-4.4433-21.961074 17.4645-23.992293 6.7387-.6248-5.6788-7.525843-5.6788-7.525843z" fill="#fff" paint-order="fill markers stroke" transform="translate(52.497702,108.43846) translate(-5535.3491,-85.75204)"/>
    <path d="m 5500.1529,307.82002 c -14.8758,-5.33981 -21.1783,-13.47815 -14.8638,-19.19312 4.4256,-4.00471 7.4642,-2.75601 4.5407,1.86602 -0.8563,1.35433 -0.7641,2.42802 0.2608,3.06272 0.9297,0.57441 3.2499,-1.54153 5.6301,-5.13482 2.2267,-3.3615 4.9492,-6.45771 6.0506,-6.8806 1.5667,-0.60123 1.8303,-2.86109 1.2123,-10.39342 -1.5898,-19.36312 6.5628,-99.96753 10.9373,-108.14086 1.0752,-2.00919 0.885,-3.52057 -0.7345,-5.83224 -4.636,-6.61939 -1.2802,-19.74772 6.5224,-25.51634 3.0919,-2.28593 4.0384,-4.14918 4.0742,-8.01848 0.041,-2.7721 1.2126,-8.2242 2.6383,-12.11606 1.4261,-3.89131 3.9992,-10.89603 5.7185,-15.5656 1.719,-4.66977 4.9225,-15.17695 7.1181,-23.34898 7.5681,-28.16541 8.4658,-30.97693 12.8433,-40.24244 8.2039,-17.36299 22.39,-31.39557 42.8446,-42.37966 33.9952,-18.25558 78.5837,-16.5888 99.4038,3.71575 8.7193,8.50372 21.6887,19.95899 24.2099,21.38435 1.4666,0.82858 3.3004,0.11285 5.8924,-2.30371 4.7486,-4.42482 9.1127,-6.68284 12.9153,-6.68284 5.9147,0 17.8675,7.58616 27.1377,17.22314 11.0133,11.44842 13.6889,16.60896 11.3138,21.82204 -0.8872,1.94704 -1.6133,6.07329 -1.6133,9.16931 0,4.62296 -0.6005,5.85667 -3.3609,6.90651 -2.7133,1.03132 -3.2187,2.02158 -2.623,5.13871 0.5186,2.71217 -0.041,4.42204 -1.8389,5.74586 -2.0533,1.50139 -2.5118,3.54111 -2.2561,10.03767 0.2847,7.18491 -0.2087,8.86926 -4.1241,14.1726 -6.7564,9.14954 -14.6606,10.07543 -18.3437,2.14869 -2.3663,-5.09338 -4.2452,-5.98671 -4.2452,-2.01882 0,3.69634 -4.894,7.72841 -8.1332,6.70043 -1.4719,-0.46693 -4.0085,-2.65114 -5.637,-4.85365 -2.3418,-3.16798 -3.8171,-3.87836 -7.0622,-3.40201 -3.3389,0.48987 -4.4815,1.69842 -6.1395,6.49472 -1.8903,5.46762 -2.4729,5.94379 -8.0759,6.6005 -4.8693,0.57035 -6.5564,1.56245 -8.7096,5.11912 -3.611,5.96506 -9.2616,7.29127 -14.5156,3.40681 l -4.0164,-2.96949 -6.3543,3.72352 c -7.9024,4.63147 -8.0141,4.82275 -6.2149,10.68312 1.6441,5.35717 3.3045,32.4787 5.5266,90.27671 1.2713,33.05864 1.1858,39.73816 -0.5793,45.28256 -1.1387,3.57719 -3.1515,11.11229 -4.4736,16.74531 -2.5323,10.79115 -4.7285,14.00371 -8.5673,12.53044 -1.9503,-0.74811 -2.2084,-2.44246 -1.5901,-10.41765 0.4065,-5.23787 1.1815,-10.79744 1.7217,-12.35433 0.5403,-1.55633 -1.7702,0.35314 -5.134,4.24556 -11.9414,13.81281 -14.8593,16.27322 -19.2984,16.27322 -4.9527,0 -6.8039,-3.19205 -3.6695,-6.32693 4.389,-3.90022 17.1045,-13.00743 15.8729,-18.44093 -0.2729,-0.27268 -4.6277,2.30648 -9.6795,5.73012 -9.9067,6.71356 -15.5525,8.05457 -15.5525,3.69356 0,-3.03813 10.5885,-12.34546 21.0883,-18.53639 4.0218,-2.37142 10.0017,-6.33894 13.2889,-8.81673 l 5.9769,-4.50549 -0.4032,-25.57238 c -0.2207,-14.06513 -1.0234,-31.80645 -1.7811,-39.42535 -0.7576,-7.61853 -1.3778,-20.47215 -1.3778,-28.56278 0,-8.09118 -0.6483,-16.41565 -1.4405,-18.49921 -1.5503,-4.07779 -1.5038,-4.07816 -12.7105,0.17203 -3.5021,1.32769 -11.5371,2.71883 -17.8553,3.09141 l -11.4873,0.67708 1.1946,5.13927 c 0.6567,2.8263 1.2054,15.32732 1.219,27.77988 0,12.45294 0.7606,35.55772 1.6598,51.34476 1.85,32.48573 1.5178,34.63903 -7.4956,48.58486 -5.8501,9.05111 -9.7153,11.80915 -14.772,10.54011 -5.1147,-1.28403 -4.2499,-5.46504 2.9621,-14.3195 6.4944,-7.97354 7.6449,-10.5379 4.728,-10.5379 -1.6796,0 -11.3355,9.81439 -17.7515,18.04229 -1.9722,2.5294 -4.4853,4.5989 -5.5847,4.5989 -3.2036,0 -3.835,-3.96439 -1.2579,-7.8975 2.3112,-3.52742 2.2979,-3.58681 -0.4731,-2.10392 -1.5688,0.83932 -3.2435,2.15979 -3.7221,2.93398 -1.2903,2.08783 -6.3631,1.70545 -6.3631,-0.47986 0,-4.62018 9.8527,-12.85806 24.764,-20.70525 l 10.0592,-5.29346 c 6.3289,-2.41996 5.4607,-4.19879 5.238,-10.50117 -0.1478,-4.18175 -0.7074,-28.34913 -1.2434,-53.70525 l -0.9747,-46.10246 -11.492,-5.54809 c -8.703,-4.20173 -12.5227,-6.98622 -15.7376,-11.47561 -2.3346,-3.25993 -4.6907,-5.96638 -5.2355,-6.01411 -0.5443,-0.048 -4.1785,6.09753 -8.0754,13.65539 -6.6022,12.8035 -6.996,14.14209 -5.7714,19.60621 2.8641,12.77981 -7.2648,29.03858 -16.002,25.6856 -1.9651,-0.75366 -6.4549,16.81597 -9.504,37.19193 -0.8736,5.83706 -2.5382,16.38235 -3.6998,23.43407 -1.1617,7.05135 -2.5701,21.37916 -3.1302,31.83918 l -0.6829,12.75907 c -0.3176,5.93419 0.5341,7.16134 4.4023,11.17724 2.6056,2.70514 5.0909,6.68524 5.5227,8.84447 0.4319,2.15923 1.0662,3.92573 1.4092,3.92573 2.1701,0 6.0978,-3.28268 6.0978,-5.09673 0,-1.52748 1.1443,-2.03435 3.8792,-1.71875 8.3038,0.95825 4.3543,10.87088 -6.1892,15.53471 -9.3744,4.14678 -28.7599,4.9045 -38.2569,1.4951 z m 24.1395,-8.22827 c 1.9515,-0.74903 1.9703,-1.39429 0.1684,-5.70996 -1.1185,-2.67592 -3.0113,-5.84409 -4.2075,-7.03989 -3.2948,-3.29525 -3.7228,-34.67676 -0.7793,-57.15979 3.7637,-28.74889 7.233,-49.56087 9.1831,-55.0877 2.6546,-7.52382 2.6556,-7.6694 0.045,-6.66785 -1.1623,0.44564 -3.3098,-0.4745 -4.7731,-2.04528 -2.4094,-2.58636 -2.7469,-2.63133 -3.5737,-0.47727 -3.2719,8.52703 -9.3856,62.29332 -11.6136,102.13138 -0.2685,4.80144 -0.6351,9.1633 -1.0084,12.31055 -0.1636,5.67304 -2.7351,6.10805 -5.1263,10.18376 -1.5559,2.67542 -2.9244,5.63313 -2.9244,6.85081 0,1.06907 1.4329,2.21935 3.1841,2.55677 5.0763,0.97787 19.0181,1.07814 21.4263,0.15171 z m 13.2042,-143.49341 c 0.9944,0 1.808,0.9553 1.808,2.1226 0,3.91907 4.1739,2.17143 7.6041,-3.18372 4.5979,-7.1788 5.8448,-12.90486 3.0437,-13.97947 -2.2598,-0.86725 -3.0697,-7.60059 -0.9136,-7.60059 0.6837,0 1.893,-1.75132 2.6878,-3.89132 6.8408,-18.42354 8.4437,-21.39193 15.6686,-29.00935 4.2442,-4.47497 8.5754,-8.13669 9.6243,-8.13669 2.7072,0 2.3946,1.13509 -1.6305,5.91845 -1.9457,2.31258 -3.5376,4.75504 -3.5376,5.42766 0,0.67319 3.5075,3.96715 7.7942,7.32053 11.1393,8.71404 26.4482,13.83888 41.0258,13.73417 13.8091,-0.0998 24.3005,-2.58175 23.4915,-5.55809 -0.3088,-1.14307 -0.8664,-3.87114 -1.2355,-6.06218 -0.4524,-2.68868 -2.4429,-5.10265 -6.1206,-7.4243 -6.102,-3.85209 -10.4946,-9.6194 -9.0757,-11.91553 0.5941,-0.96104 2.4621,-0.22865 5.1185,2.00605 6.3756,5.36459 12.8391,6.61459 24.9179,4.81794 5.7311,-0.85245 10.7926,-1.17766 11.2471,-0.72277 1.8141,1.81421 -1.1834,5.43951 -6.2246,7.52899 -6.6753,2.76657 -6.4745,2.53847 -5.3491,6.08348 0.8954,2.82187 1.4059,2.64835 10.1024,-3.43086 5.8533,-3.91729 10.311,-9.1185 13.9767,-2.15757 1.2073,2.33497 2.7797,4.24502 3.4939,4.24502 1.8703,0 5.704,-5.86148 5.704,-8.72163 0,-3.61255 2.6706,-4.59688 5.5074,-2.02994 6.8892,6.23498 14.7481,-1.02447 9.7585,-9.01411 -1.9952,-3.19463 -0.4437,-5.60008 2.0215,-3.13487 0.9212,0.92107 3.1394,1.67473 4.9293,1.67473 2.6541,0 3.2548,-0.76364 3.2548,-4.13679 0,-3.90742 -5.896,-12.84437 -8.4739,-12.84437 -0.631,0 -4.4594,-2.2286 -8.507,-4.95279 -4.0477,-2.72402 -8.9079,-4.95261 -10.8,-4.95261 -3.9583,0 -6.1337,-3.92628 -3.2033,-5.78138 5.8828,-3.72519 24.168,3.33245 25.0689,9.67582 0.2488,1.75299 1.5222,3.76977 2.83,4.48181 1.3078,0.71204 5.5617,5.78027 9.453,11.26288 7.42,10.45317 9.1981,11.87038 9.1981,7.33085 0,-3.89684 2.5789,-4.99478 5.5071,-2.34495 1.3742,1.24389 3.7536,2.26153 5.2881,2.26153 1.5343,0 3.4816,0.69188 4.3276,1.53783 1.1076,1.10756 1.3404,-0.22051 0.8307,-4.73967 -0.554,-4.91284 -0.2125,-6.4688 1.575,-7.15402 3.4741,-1.33324 4.5735,-0.84365 7.0585,4.14629 1.4647,4.60905 3.5518,4.14081 3.6225,-1.12739 0.052,-3.6462 -0.5721,-8.37313 -1.3822,-10.50349 -1.8156,-4.77613 -0.66,-8.91459 1.8021,-6.45253 4.4698,4.46942 4.185,-0.8271 -0.3289,-6.13156 -3.9312,-4.61852 -4.3194,-5.95896 -2.2287,-7.69438 1.5609,-1.29513 2.5988,-0.98786 4.8579,1.43683 4.2304,4.54082 7.9385,2.67758 6.5979,-3.31561 -0.5631,-2.51793 -1.1705,-6.24996 -1.3498,-8.29413 -0.5898,-6.72871 -14.6444,-21.48849 -25.9897,-27.2941 -7.1338,-3.65026 -15.8492,0.29284 -15.8492,7.17381 0,4.42113 -3.4083,4.29237 -9.5062,-0.35703 -4.5172,-3.4453 -4.984,-3.52947 -7.4097,-1.33454 -2.1665,1.96074 -2.3364,3.00964 -1.0434,6.43644 1.958,5.18736 -1.2089,9.16561 -9.2029,11.56071 -10.1064,3.02776 -11.2402,-4.24084 -0.9271,-7.41301 4.6103,-1.41807 4.8228,-2.60237 -0.4006,-4.05706 -6.3745,-1.77525 -6.0846,-5.76343 -0.2689,-7.7569 6.8193,-2.33738 6.9299,-3.30655 0.593,-5.20513 -3.189,-0.9553 -5.7978,-2.25672 -5.7978,-2.89198 0,-0.63508 2.0317,-2.20548 4.5148,-3.48951 4.2383,-2.1916 4.3548,-2.45114 1.9055,-4.24224 -1.6708,-1.22131 -5.2987,-1.72079 -10.0878,-1.38818 -8.4037,0.58402 -10.1705,-0.18129 -6.57,-2.83722 2.1861,-1.61369 1.5768,-2.2151 -5.5717,-5.49945 -28.9179,-13.28724 -64.8286,-7.87123 -94.1658,14.20222 -18.4284,13.86535 -31.7536,36.27602 -34.4403,57.92233 -1.9429,15.65514 -6.0048,32.44188 -10.7527,44.4414 -2.3512,5.94195 -3.304,10.47906 -2.7652,13.17255 0.6311,3.15448 0.041,4.90692 -2.6185,7.54879 -1.8922,1.89209 -4.3543,3.08936 -5.4714,2.66111 -1.1753,-0.45102 -3.2943,0.82747 -5.0313,3.03517 -3.5287,4.48588 -4.0763,11.92311 -0.8776,11.92311 1.1671,0 2.1224,0.62934 2.1224,1.39872 0,0.76902 1.4326,1.24667 3.1839,1.06094 2.6458,-0.28083 3.2593,0.44361 3.6287,4.27886 0.4263,4.42483 0.5708,4.52713 3.4986,2.47613 1.6799,-1.17655 3.8676,-2.13925 4.8621,-2.13925 z m 2.2969,-20.57853 c -0.6385,-1.66344 -1.259,-1.76981 -2.8112,-0.48227 -3.2152,2.6687 -3.9349,0.24881 -1.1772,-3.95976 2.3194,-3.53963 2.627,-3.64545 3.4851,-1.19949 0.6564,1.87139 1.2591,2.1694 1.9907,0.98565 1.4042,-2.27245 3.6839,-0.71 3.6839,2.52551 0,3.31117 -4.0742,4.98961 -5.1713,2.13036 z" transform="translate(52.497702,108.43846) translate(-5535.3491,-85.75204)"/>
</svg>