<?xml version="1.0" ?><svg xmlns="http://www.w3.org/2000/svg" width="163.81403mm" height="167.30794mm" viewBox="0 0 163.81403 167.30794">
    <path d="m 5079.0591,-289.10893 c -5.089,0.61245 -16.658,6.79022 -19.6169,11.18381 0,0 -0.7399,3.35535 1.8935,8.5478 2.6334,5.19242 7.1901,11.90287 7.5158,17.57464 1.4534,7.58218 -1.6628,9.6634 -1.6686,20.18171 1.3511,4.43799 24.6851,-5.18643 27.9368,-12.93461 -1.4013,-9.40174 -5.3244,-27.38417 -4.8173,-35.47277 -0.482,-6.54472 -5.8308,-9.71525 -11.2433,-9.08058 z m 104.1151,107.41413 c -2.5426,2.83407 -4.8287,4.55056 -7.6331,7.19388 1.6155,-3.03133 14.7087,3.64065 22.9934,4.44624 1.476,0.12531 -9.5592,-7.69452 -15.3603,-11.64012 z" fill="#73a9a6" paint-order="fill markers stroke" transform="translate(8.9155297,20.73024) translate(-5057.6791,272.46944)"/>
    <path d="m 5062.2725,-213.69825 c 13.7613,-8.78102 37.1871,-16.98397 51.9387,-11.98802 4.8369,1.58919 62.8408,40.0062 66.718,42.35543 3.8772,2.34924 -1.382,7.1859 -12.7448,9.39694 -11.3628,2.21105 -45.1058,13.85362 -57.006,8.22235 -11.9001,-5.63126 -35.931,-14.89003 -37.428,-20.24493 -1.1826,-9.28598 -16.3819,-20.59871 -11.4779,-27.74177 z" fill="#d4d4d4" paint-order="fill markers stroke" transform="translate(8.9155297,20.73024) translate(-5057.6791,272.46944)"/>
    <path d="m 5095.1199,-244.55558 c -3.2517,7.7482 -26.586,17.37271 -27.9371,12.93472 0,0 -7.6744,8.76749 -7.2137,18.95906 0.4606,10.19156 17.7736,15.4428 20.6528,10.05337 2.8789,-5.38943 1.7978,-6.71409 5.6428,-12.50627 5.2977,-7.98051 24.7601,-12.88627 24.7601,-12.88627 z" fill="#967ea9" paint-order="fill markers stroke" transform="translate(8.9155297,20.73024) translate(-5057.6791,272.46944)"/>
    <path d="m 5104.7377,-126.45982 c -0.4701,-0.41006 0.7184,-2.60652 2.641,-4.8809 4.0112,-4.74427 3.0249,-5.00535 -4.9884,-1.31981 -4.4276,2.03644 -5.7343,2.27623 -5.8165,1.06845 -0.1268,-1.86373 5.068,-6.78119 7.3259,-6.93484 0.8786,-0.0598 1.5614,-0.63525 1.5176,-1.27867 -0.1345,-1.97644 -3.6554,-1.08247 -13.5454,3.43908 -5.2192,2.38654 -9.8975,3.98216 -10.3959,3.54605 -0.8602,-0.75211 2.3406,-4.37353 6.9633,-7.87845 1.8086,-1.37131 1.4433,-1.45383 -2.514,-0.56691 -2.5468,0.5708 -4.8892,1.12337 -5.2053,1.22755 -0.3161,0.1044 -0.8342,-0.32182 -1.1516,-0.94679 -0.9304,-1.83303 11.0563,-8.39174 15.9451,-8.7244 4.0061,-0.27259 4.8591,-0.95507 8.8735,-7.09945 2.4428,-3.73871 4.2241,-6.96131 3.9583,-7.16187 -0.2667,-0.19834 -3.703,-1.30987 -7.6382,-2.46565 -8.2338,-2.41851 -21.3507,-8.00726 -29.453,-14.9874 -15.2847,-13.16772 -14.9794,-29.03527 -10.6378,-43.48499 8.0541,-26.80558 6.7705,-35.01612 1.0032,-40.04855 -2.7998,-2.44287 -2.9876,-2.44946 -7.821,-0.27448 -2.7237,1.22584 -4.9835,1.77035 -5.0216,1.21057 -0.1761,-2.58866 1.3893,-4.98562 4.8955,-7.49712 2.4711,-1.76963 3.7497,-3.63696 3.6358,-5.31073 -0.2341,-3.44025 4.6977,-9.75047 10.2551,-13.12078 8.0942,-4.90887 19.5122,-4.20829 23.6446,1.77476 2.2103,3.20014 2.3603,8.58561 2.3314,16.98884 0.01,21.89598 15.7489,40.06152 32.3207,47.89447 12.8053,5.92254 23.1228,12.56457 35.9818,23.16314 5.4786,4.51553 13.3631,10.35775 17.5209,12.98232 4.1581,2.62455 11.528,7.27875 16.3783,10.34265 4.8496,3.06364 9.7433,5.50753 10.8752,5.43051 1.1318,-0.077 3.0718,0.83749 4.311,2.03275 2.1661,2.08881 2.1732,2.20955 0.179,3.13116 -2.8638,1.32865 -20.2224,0.75961 -33.905,-2.78652 -9.3028,-2.41102 -14.7171,-1.22566 -23.3949,1.63524 -6.4955,2.14135 -14.6274,4.22134 -18.0707,4.6219 l -6.2607,0.72915 -2.597,9.33402 -2.5968,9.33386 4.3345,1.47416 c 3.4305,1.16692 3.9882,1.72759 2.6733,2.68994 -0.9133,0.6686 -3.366,1.33975 -5.4499,1.49125 -2.4736,0.16831 -6.5171,2.2986 -11.6441,6.09935 -8.611,6.38387 -8.251,6.18883 -9.4658,5.1288 z m 14.2247,-26.02064 c 1.9647,-5.30504 3.1493,-9.61683 2.6327,-9.58167 -0.5167,0.0351 -2.5289,-0.14444 -4.4709,-0.39566 -3.227,-0.4205 -3.6632,-0.0606 -5.0594,4.16398 -0.8401,2.54289 -2.7872,6.5607 -4.3268,8.92795 l -2.7992,4.30394 3.3033,0.15935 c 1.817,0.0863 3.8367,0.6115 4.4886,1.16391 2.0949,1.77545 2.5985,1.06882 6.2317,-8.7418 z m 0.8343,-17.82163 c -3.6283,-1.07341 -8.1015,-2.3069 -9.9401,-2.74152 -4.4216,-1.04433 -15.152,-6.65233 -19.4355,-10.15721 -1.8805,-1.53882 -7.0108,-7.08536 -8.5339,-10.44219 -5.0673,-11.16731 -2.1402,-21.86623 4.597,-25.95247 4.1834,-2.53746 8.698,-1.41125 4.7046,1.123 -7.0348,4.46064 -8.3086,12.54807 -1.9866,23.16015 3.6626,6.14886 4.937,7.18593 16.0957,13.09943 10.4302,5.5278 15.37,6.91068 29.2279,8.18394 9.8408,0.9039 12.3792,0.72425 24.0247,-1.70082 7.1618,-1.49158 14.5141,-3.22214 16.3383,-3.84547 4.0722,-1.1347 3.2046,-1.21095 0.099,-3.35478 l -4.8489,-3.34728 c -4.437,-3.06268 -9.0188,-5.50384 -10.1825,-5.42466 -1.6453,0.11196 -1.7822,0.43443 -0.6159,1.45257 2.5832,2.25388 1.7842,3.16913 -3.053,3.49828 -3.4601,0.23544 -4.6471,0.79436 -4.5552,2.14406 0.095,1.3942 -0.9186,1.81026 -4.2876,1.76094 -4.9474,-0.0725 -6.488,-3.18463 -2.044,-4.12728 1.723,-0.36722 2.5524,-1.35616 2.446,-2.92105 -0.094,-1.37967 0.7926,-2.68793 2.124,-3.13467 1.2567,-0.42171 1.9625,-1.21739 1.5681,-1.76781 -0.3944,-0.55087 0.083,-1.37297 1.0642,-1.82754 0.9797,-0.45447 1.7491,-1.29873 1.7098,-1.87578 -0.156,-2.29258 -19.753,-13.44765 -29.0603,-16.54199 -11.5412,-3.83735 -19.4532,-9.44815 -26.3634,-18.6959 -8.0617,-10.78826 -10.6146,-18.53174 -11.3278,-34.35772 -0.5295,-11.7459 -0.9102,-13.87646 -2.8961,-15.787 -5.0101,-4.84672 -15.0231,-2.94404 -21.089,4.00802 -3.0938,3.54576 -3.4062,5.63896 -0.8145,5.46261 1.0767,-0.0733 1.829,0.97536 1.9474,2.71476 0.081,1.18464 -0.7459,1.56259 -0.069,2.29625 2.112,2.29036 2.9551,3.20069 4.6513,3.24469 5.089,0.132 5.267,2.38424 1.9674,3.20267 -1.6527,0.40992 -1.8031,2.21892 -0.9645,3.36463 0.6549,0.89391 1.3134,3.31577 1.4639,5.38118 0.3678,4.90478 -2.4845,22.37327 -5.4052,33.22586 -1.2702,4.72002 -2.4895,6.82726 -2.033,12.64917 1.8587,23.70376 35.2763,40.61798 58.5623,40.18784 2.9094,-0.16419 2.3795,-0.53696 -3.0849,-2.15381 z m 17.4405,-8.74179 c -0.4486,-0.96697 -0.5001,-2.11982 -0.1142,-2.56186 1.0102,-1.15764 6.9403,0.70301 7.6328,2.39472 0.8893,2.17231 -6.512,2.33682 -7.5182,0.16711 z m -21.9562,-1.48784 c -2.4396,-1.20685 -3.1624,-5.49809 -0.9862,-5.85452 2.2161,-0.36391 2.4425,-0.35273 5.1078,0.25981 2.0209,0.46387 2.4333,0.0777 2.2098,-2.07174 -0.2336,-2.25518 0.2834,-2.65452 3.5391,-2.72808 2.2975,-0.0534 3.7755,-0.64903 3.7175,-1.50197 -0.053,-0.77908 1.3582,-3.01267 3.1357,-4.96404 3.1258,-3.43102 3.3342,-3.49005 6.3419,-1.79946 3.0494,1.71418 4.2737,3.96541 2.2317,4.10436 -0.5685,0.0387 -1.2369,1.14188 -1.486,2.45148 -0.306,1.60939 -1.4365,2.44857 -3.4871,2.5881 -1.791,0.12188 -2.8738,0.79216 -2.6429,1.63673 0.2134,0.78676 -1.2854,2.05586 -3.3342,2.82061 -2.0489,0.76433 -3.6826,2.01464 -3.6307,2.77795 0.1868,2.74499 -6.781,4.22781 -10.7164,2.28077 z m 21.4115,-21.97936 c -4.1823,-1.43288 -5.5334,-4.86411 -2.0097,-5.10388 2.4353,-0.16572 8.2675,4.75045 6.8447,5.76976 -0.5148,0.36846 -2.6907,0.0694 -4.835,-0.66588 z m -67.4096,-72.7604 c -1.2675,-2.6934 1.4556,-5.72399 3.5046,-3.93605 1.1784,1.02793 0.6136,2.82026 -0.1356,4.41981 -1.3307,1.63673 -2.9199,0.47048 -3.369,-0.48376 z m 7.3853,-0.51439 c -1.0339,-2.22855 0.029,-4.26959 2.3044,-4.42439 1.1487,-0.0782 1.6967,0.77816 1.566,2.44584 -0.2439,3.116 -2.7485,4.39654 -3.8704,1.97855 z m 112.1625,100.93042 c -2.4061,-1.3325 -5.1166,-1.14806 -4.0945,0.27862 0.4414,0.61651 1.9554,1.03436 3.3645,0.9285 2.0839,-0.14181 2.2194,-0.38104 0.73,-1.20712 z" transform="translate(8.9155297,20.73024) translate(-5057.6791,272.46944)"/>
</svg>