<?xml version="1.0" ?><svg xmlns="http://www.w3.org/2000/svg" width="233.34325mm" height="224.42436mm" viewBox="0 0 233.34325 224.42436">
    <path fill="#ff7796" d="m 85.37687,1322.762 c 10.430658,-0.7726 5.408489,-27.4288 11.203299,-35.5415 5.794811,-8.1127 11.203301,-20.475 13.134901,-27.0425 1.93161,-6.5674 3.86321,-21.2476 -6.18113,-17.3844 -10.044336,3.8632 -20.861315,29.7467 -22.020277,35.5415 -1.158962,5.7948 -5.79481,36.7005 3.863207,44.4269 z" transform="translate(13.493864,-36.247926) matrix(0.59780648,0,0,0.59780648,-53.2839,-674.3863)"/>
    <path fill="#ff324c" d="m 116.66884,1277.5625 c 2.70425,0 12.74859,1.5453 12.74859,1.5453 v 90.0127 c 0,0 -16.99811,-37.4731 -16.99811,-47.1311 0,-9.6581 4.24952,-44.4269 4.24952,-44.4269 z" transform="translate(13.493864,-36.247926) matrix(0.59780648,0,0,0.59780648,-53.2839,-674.3863)"/>
    <path fill="#8a7568" d="m 391.72852,1199.9121 c -14.29387,0 -18.54297,8.8848 -18.54297,8.8848 0,0 -2.70396,-4.6344 -5.40821,-4.2481 -2.70424,0.3863 -8.50007,23.178 -12.36328,32.836 -3.8632,9.658 2.82082,68.5682 4.25,69.539 26.06561,17.705 45.74536,45.6866 39.21279,50.3901 l 50.41417,-65.4584 c 0,0 11.97565,-33.2218 5.4082,-30.5176 -6.56745,2.7043 -23.95117,25.4961 -23.95117,25.4961 0,0 18.15708,-31.2922 20.86133,-34.3828 2.70425,-3.0905 8.11313,-17.7711 0.38671,-17.3848 -7.72641,0.3863 -19.31604,19.3172 -20.86132,20.0898 -1.54529,0.7727 16.22452,-28.5872 12.36132,-33.6093 -3.86321,-5.0222 -14.68012,23.5647 -16.99804,22.0195 -2.31793,-1.5453 6.18164,-37.0859 6.18164,-37.0859 l -12.75,5.0215 c 0,0 -13.90731,-11.5899 -28.20117,-11.5899 z" transform="translate(13.493864,-36.247926) matrix(0.59780648,0,0,0.59780648,-53.2839,-674.3863)"/>
    <path fill="#42424b" d="m 393.25391,1215.2363 c -8.8896,-0.027 -25.31535,5.1063 -31.63477,9.1953 -6.74072,4.3617 -9.51562,26.17 -9.51562,26.17 9.51631,-15.464 19.82548,-20.6191 29.34179,-21.8086 9.51631,-1.1896 26.56604,4.7576 31.72071,7.1367 5.15467,2.3791 9.51757,9.1211 9.51757,9.1211 0,0 3.5683,-12.6892 4.36133,-17.0508 0.79302,-4.3617 -23.79042,-11.8944 -32.11719,-12.6875 -0.52042,-0.05 -1.08118,-0.074 -1.67382,-0.076 z m 44.54687,30.8848 c -2.10107,0.094 -5.99805,13.2031 -5.99805,13.2031 0.79303,6.7407 1.98243,15.8613 1.98243,17.8438 0,1.9826 -2.37925,28.9455 2.3789,26.5664 4.75816,-2.3791 7.92958,-11.8964 9.51563,-13.8789 1.58605,-1.9826 -7.13683,-17.0488 -5.55078,-18.6348 1.58605,-1.5861 1.3e-4,-23.3944 -1.98243,-24.9805 -0.10842,-0.087 -0.22415,-0.1246 -0.3457,-0.1191 z m -111.91601,52.834 c -18.04238,-0.5916 -50.87205,4.7314 -67.43555,11.8301 -18.92971,8.1127 -46.2312,34.4712 -64.00195,38.7207 0,0 -4.02749,32.9014 -11.75391,45.2636 -7.72641,12.3623 -28.55078,23.4141 -28.55078,23.4141 0,0 13.9069,22.4061 27.81445,33.6094 13.90754,11.2033 37.85907,23.9527 62.19727,23.5664 24.3382,-0.3864 79.58203,-27.8164 79.58203,-27.8164 0,0 16.99813,3.4769 41.72265,1.9316 24.72452,-1.5453 33.61058,-14.293 34.76954,-16.2246 1.15896,-1.9316 -16.99805,-10.8164 -16.99805,-10.8164 0,0 16.99844,-7.3415 17.38476,-8.8867 0.38632,-1.5453 -29.36046,-8.4977 -24.72461,-10.043 4.63585,-1.5453 35.1543,-18.5449 35.1543,-18.5449 0,0 -17.76957,-5.0215 -19.70117,-5.0215 -1.93161,0 9.27148,-22.4063 9.27148,-22.4063 2.07099,-14.0733 -21.77979,-50.5474 -40.95117,-50.6074 -1.72765,-0.01 -11.9745,-4.6376 -27.04101,-7.3418 -1.88332,-0.338 -4.1608,-0.5424 -6.73828,-0.6269 z" transform="translate(13.493864,-36.247926) matrix(0.59780648,0,0,0.59780648,-53.2839,-674.3863)"/>
    <path fill="#ffa1b6" d="m 112.41932,1242.7936 c 9.27169,-6.5674 24.72452,-13.1349 33.99622,-11.2033 9.27169,1.9316 16.61179,26.2698 15.83914,38.2458 -0.77264,11.9759 -12.74858,40.95 -3.09056,52.9259 9.65802,11.9759 19.31603,23.1792 28.58773,27.4288 9.2717,4.2495 15.06651,8.8853 5.02217,30.133 -10.04434,21.2476 -22.02028,41.3363 -31.29198,38.2457 -9.27169,-3.0905 -29.74669,-56.4028 -32.06461,-71.4693 -2.31793,-15.0665 0,-67.2198 0,-67.2198 l -23.95189,-9.658 z" transform="translate(13.493864,-36.247926) matrix(0.59780648,0,0,0.59780648,-53.2839,-674.3863)"/>
    <path fill="#c3a693" d="m 381.31836,1260.1465 c -12.43457,-0.2156 -23.12688,2.847 -25.1582,4.2012 -2.70844,1.8057 1.35351,9.0293 1.35351,9.0293 8.57672,-4.0627 25.27953,-3.1611 36.11328,2.2558 10.83375,5.4169 17.60352,40.1754 17.60352,44.6895 0,4.5141 0.45117,15.3476 0.45117,15.3476 0,0 14.89766,-12.6382 12.64063,-13.541 -2.25703,-0.9028 -10.54756,-55.9495 -30.24415,-60.4883 -4.27535,-0.9852 -8.6149,-1.4222 -12.75976,-1.4941 z m -4.28711,30.0273 c -1.22186,-0.022 -2.23732,0.2299 -2.77539,0.9473 -2.15227,2.8696 -0.24023,7.1758 -0.24024,7.1758 2.86969,-2.3914 9.32727,2.8696 9.56641,3.8261 0.23914,0.9566 2.63086,-9.3261 2.63086,-9.3261 0,0 -5.51606,-2.5558 -9.18164,-2.6231 z m -13.51953,4.9824 c -1.58192,0 -2.93289,0.4206 -3.60547,1.4668 -2.15227,3.348 0.95703,5.9786 0.95703,5.9786 10.52221,-1.1957 11.00047,4.0652 11.95703,3.8261 0.95657,-0.2392 1.19657,-5.2609 -0.23828,-7.6523 -0.98646,-1.6441 -5.5901,-3.628 -9.07031,-3.6192 z m 21.02734,5.7696 -1.43554,5.7402 c 4.78282,-0.7174 9.56617,3.3476 9.08789,7.1738 -0.47828,3.8263 5.97804,-5.2601 5.02148,-7.8906 -0.95657,-2.6306 -12.67383,-5.0234 -12.67383,-5.0234 z m 14.22461,19.0644 c -3.35562,0.085 -5.61523,2.459 -5.61523,2.459 l -0.71875,4.0664 c 6.69595,-0.4783 12.67571,10.0431 10.52343,14.3477 -2.15226,4.3045 3.10836,1.9129 5.02149,-0.4785 1.91313,-2.3914 1.91212,-14.3479 -4.06641,-18.6524 -1.86828,-1.3451 -3.61925,-1.7807 -5.14453,-1.7422 z" transform="translate(13.493864,-36.247926) matrix(0.59780648,0,0,0.59780648,-53.2839,-674.3863)"/>
    <path fill="#a1bfff" d="m 115.70221,1249.2883 c 8.65656,-5.0672 16.25743,-7.3897 24.70285,-4.2227 8.44542,3.167 6.12293,16.2574 1.68908,20.0579 -4.43384,3.8004 -21.74695,8.8677 -27.65874,3.5893 -5.91179,-5.2784 1.26681,-19.4245 1.26681,-19.4245 z" transform="translate(13.493864,-36.247926) matrix(0.59780648,0,0,0.59780648,-53.2839,-674.3863)"/>
    <path fill="#7c7c8c" d="m 370.44531,1381.8262 c -0.31567,-0.021 -0.61334,-0.02 -0.88867,0 -2.20261,0.1721 -2.95922,1.6882 0.20703,4.4414 6.33251,5.5065 -3.02882,12.9397 -9.36133,14.3164 0,0 5.23032,3.0288 12.93946,1.1016 7.70914,-1.9273 9.91284,-11.0129 4.68164,-16.2441 -2.28865,-2.2887 -5.36843,-3.4725 -7.57813,-3.6172 z m -5.91406,24.8164 c 7.98446,2.478 8.53557,12.1138 1.92773,14.3164 -6.60783,2.2026 11.84042,3.5791 14.31836,-0.8262 2.47793,-4.4052 -0.55187,-9.3597 -5.23242,-10.7363 -4.68055,-1.3766 -11.01367,-2.7539 -11.01367,-2.7539 z m -15.7793,0.4512 c -5.69151,-2e-4 -9.27539,1.4765 -9.27539,1.4765 7.70914,1.652 6.60816,11.2875 1.37696,12.9395 -5.2312,1.6519 5.50675,2.4779 9.36132,-0.2754 3.85457,-2.7532 8.26005,-13.4904 1.10157,-14.041 -0.89481,-0.069 -1.75138,-0.1 -2.56446,-0.1 z m -71.39062,7.1269 c -2.41774,-0.078 -3.80168,1.2535 -2.33594,3.7852 2.60576,4.5009 -0.9472,10.6599 -17.5293,14.9238 0,0 6.86994,2.606 17.29297,0.7109 10.42304,-1.8951 14.4498,-12.3181 9.23828,-16.582 -2.28003,-1.8655 -4.78555,-2.7776 -6.66601,-2.8379 z m 23.03125,4.3574 c -2.37415,0.081 -3.0407,2.5536 -1.66406,5.1348 2.20261,4.1299 -5.78129,7.4339 -14.31641,9.0859 0,0 13.49165,2.7538 19.54883,1.9278 6.05718,-0.8259 9.35972,-7.435 2.47656,-13.2168 -2.58119,-2.1682 -4.62043,-2.9801 -6.04492,-2.9317 z m 61.45898,5.7149 c -3.78183,-0.03 -5.92059,1.1062 -2.1582,3.0429 7.52479,3.8734 1.1387,12.2666 -13.33203,15.2286 0,0 4.05194,2.5057 12.73437,1.8222 8.68245,-0.6836 24.00595,-7.1955 14.7793,-16.1387 -2.81638,-2.7298 -8.2416,-3.9255 -12.02344,-3.955 z m -32.90039,0.582 c -3.29101,0.026 -0.96898,2.1409 -4.0664,3.793 -4.1299,2.2026 -11.28714,8.5356 -3.02735,10.4629 15.14295,0 23.67712,-11.2877 12.66406,-13.4903 -2.75326,-0.5506 -4.47331,-0.7742 -5.57031,-0.7656 z" transform="translate(13.493864,-36.247926) matrix(0.59780648,0,0,0.59780648,-53.2839,-674.3863)"/>
    <path d="m 274.4662,1562.6897 c 0,-0.7997 2.81768,-4.7521 6.2615,-8.7832 l 6.26149,-7.3291 -8.76448,4.3219 c -8.80915,4.344 -12.43869,4.4979 -13.93792,0.591 -1.21168,-3.1576 1.13804,-5.0979 16.78447,-13.8599 7.98055,-4.4691 15.45919,-9.0747 16.61919,-10.2347 1.24876,-1.2488 2.11046,-4.3818 2.11245,-7.6806 0.004,-6.3293 4.61612,-24.4229 11.39002,-44.682 2.53364,-7.5775 4.60662,-13.9339 4.60662,-14.1253 0,-0.1914 -7.00044,2.4555 -15.55653,5.8821 l -15.55653,6.2302 -2.35459,9.9786 c -2.44626,10.367 -9.60734,29.2255 -17.66451,46.5188 -4.4001,9.4441 -5.26344,10.4114 -14.53375,16.2839 -18.45971,11.6938 -32.53462,16.4966 -31.42263,10.7225 0.43004,-2.233 3.53258,-4.6173 13.9528,-10.7226 l 5.13574,-3.0091 -5.33334,0.9778 c -9.67535,1.774 -15.89257,1.2893 -16.39911,-1.2783 -0.56005,-2.8388 0.84499,-3.4487 22.92411,-9.9514 l 17.19166,-5.0633 4.87723,-11.3333 c 10.35682,-24.0664 16.5564,-39.9608 15.85873,-40.6585 -0.40005,-0.4 -4.86554,0.2874 -9.92332,1.5277 -12.45237,3.0535 -39.26215,3.0562 -51.70245,0.01 -13.08197,-3.2083 -30.42187,-12.0931 -39.15445,-20.0623 -6.77725,-6.1848 -22.92841,-28.9282 -25.67677,-36.1569 -0.61475,-1.6169 -3.39521,-6.4758 -6.1788,-10.7975 -2.78358,-4.3218 -6.89118,-12.3577 -9.12799,-17.8577 -3.0958,-7.6121 -5.69888,-11.5239 -10.90115,-16.3817 -7.96946,-7.4417 -11.99043,-15.7878 -14.56913,-30.2404 -2.71411,-15.2116 -2.33856,-39.7349 0.82765,-54.0446 2.46511,-11.1411 2.49671,-12.1162 0.44138,-13.6239 -1.21758,-0.8932 -2.65797,-1.3495 -3.20087,-1.0139 -2.10139,1.2987 -7.0811,23.083 -7.22284,31.5972 -0.11345,6.815 -0.809776,9.8466 -2.909376,12.6666 -6.0079,8.0694 -15.0078,7.3264 -19.69529,-1.626 -2.32688,-4.444 -2.79255,-7.706 -2.79255,-19.5623 v -14.229 l -3.64613,0.7249 c -2.60462,0.5178 -3.88351,0.1063 -4.47713,-1.4407 -1.46297,-3.8124 0.5481,-8.135 7.45925,-16.0327 3.70926,-4.2388 8.16669,-10.5014 9.90541,-13.9169 5.31391,-10.4384 11.87083,-14.8766 21.978676,-14.8766 3.45041,0 6.73155,-1.2207 10.37433,-3.8595 9.22604,-6.6833 14.01427,-8.5712 21.73893,-8.5712 21.97392,0 33.86121,23.4795 27.48851,54.2946 -5.35968,25.9166 -0.16363,48.3745 13.74017,59.3865 5.12778,4.0613 5.46934,4.1361 13.20164,2.8909 9.91452,-1.5967 19.04804,-6.1513 33.56968,-16.7399 15.24116,-11.1133 27.63074,-18.2449 41.814,-24.0684 30.74585,-12.6241 53.61111,-13.5451 79.81894,-3.2149 3.69257,1.4555 6.96996,2.3901 7.28308,2.077 0.31312,-0.3131 -0.37219,-5.2851 -1.5229,-11.0489 -2.45678,-12.3056 -5.60455,-69.5538 -4.22352,-76.8129 0.59129,-3.108 1.70102,-5 2.93267,-5 2.05842,0 2.42036,0.6805 3.89089,7.3153 0.77422,3.4931 1.46105,2.1838 5.5954,-10.6667 2.5921,-8.0567 5.313,-15.392 6.0466,-16.3006 1.9872,-2.4614 4.0374,-0.4964 3.332,3.1936 -0.3394,1.7759 0.084,5.2674 0.9401,7.7588 1.3882,4.0381 1.7187,4.2714 3.0445,2.1484 2.6995,-4.3224 13.6082,-8.465 20.538,-7.7991 6.49523,0.6241 17.21653,5.5008 25.06833,11.4027 l 4.558,3.4261 3.6866,-4.4159 c 3.9355,-4.7142 7.864,-4.8524 7.864,-0.2766 0,1.395 -1.8442,8.7638 -4.0981,16.3752 -5.9663,20.147 -5.9634,20.1878 0.5672,8.0225 6.1456,-11.448 12.372,-19.2366 14.7457,-18.4454 3.2739,1.0913 2.1921,10.2359 -2.5807,21.8139 -6.0646,14.7116 -18.7852,39.3916 -22.1833,43.039 -6.8935,7.3994 -6.7568,-0.1816 0.2346,-13.0075 2.9231,-5.3624 5.3146,-9.9457 5.3146,-10.1852 0,-0.2395 -1.05,-0.3522 -2.3333,-0.2503 -1.422,0.1128 -2.2679,-0.6851 -2.1657,-2.0427 0.1032,-1.3721 -0.5328,-1.9592 -1.6555,-1.5284 -3.7237,1.429 -3.255,-3.8347 1.8438,-20.7033 l 5.2346,-17.3175 -3.7785,2.7935 -3.7785,2.7936 -13.3681,-6.4115 c -11.0167,-5.2838 -14.27533,-6.2898 -18.52663,-5.7196 -7.7072,1.0337 -12.4372,3.7896 -16.028,9.3386 -3.7239,5.7545 -6.7775,6.4975 -6.7775,1.6491 0,-6.1372 -2.3207,-3.4201 -4.5046,5.274 -1.1891,4.7341 -2.1621,11.9529 -2.1621,16.0419 0,4.7183 -0.6089,7.6677 -1.6667,8.0727 -1.27808,0.4894 -1.47319,4.909 -0.8369,18.9581 1.4772,32.616 2.4134,39.0304 6.2097,42.5487 1.8425,1.7075 3.8624,3.1046 4.4886,3.1046 0.6263,0 1.1386,-4.7566 1.1386,-10.5702 0,-16.8286 3.1156,-38.1338 5.3725,-36.739 2.1394,1.3223 1.6747,52.9459 -0.5035,55.9248 -2.085,2.8513 -4.869,1.7165 -4.869,-1.9846 0,-2.0772 -0.55,-2.3416 -2.9917,-1.4383 -1.9982,0.7392 -5.4298,0.2644 -10.33332,-1.4297 -16.95671,-5.8583 -33.5774,-9.327 -44.54417,-9.2965 -23.398,0.065 -48.19273,9.1869 -75.91086,27.9267 -18.76657,12.6878 -30.7106,18.8479 -36.66199,18.9085 l -3.10875,0.032 2.86914,4.6423 c 4.5137,7.3033 0.56745,10.2894 -5.31831,4.0243 -2.41487,-2.5705 -4.46654,-3.3333 -8.9653,-3.3333 -3.20859,0 -7.63426,-0.9311 -9.83483,-2.069 -3.89088,-2.0121 -4.10568,-1.957 -7.80207,2 -2.09056,2.2379 -4.7603,4.069 -5.93275,4.069 -1.17244,0 -2.13172,0.6934 -2.13172,1.5408 0,0.8475 -1.55675,3.5818 -3.45945,6.0764 -2.6511,3.4758 -4.28411,4.4398 -6.9886,4.1259 -3.65153,-0.424 -6.00309,-5.0764 -2.56584,-5.0764 2.73382,0 9.54247,-7.516 7.78989,-8.5991 -3.08627,-1.9075 -1.49566,-4.7807 2.4789,-4.4778 2.29678,0.175 5.04892,-0.7214 6.64253,-2.1636 l 2.72096,-2.4625 -3.97834,-4.5311 c -2.18809,-2.4921 -5.48014,-7.4947 -7.31568,-11.117 -3.17728,-6.27 -3.49959,-6.5119 -6.72071,-5.0443 -2.88411,1.3141 -3.79241,1.1325 -6.15532,-1.2304 -2.85169,-2.8517 -2.38318,-6.1105 0.70795,-4.9243 3.17075,1.2167 7.45464,-3.7438 6.63999,-7.6887 -0.41112,-1.9908 -1.43159,-3.3058 -2.30523,-2.9706 -2.65943,1.0205 -6.68999,-2.8137 -5.69191,-5.4147 0.66012,-1.7202 1.34975,-1.9689 2.59469,-0.9357 2.71349,2.252 4.49289,0.064 6.10312,-7.5059 0.82668,-3.8861 1.50305,-7.2321 1.50305,-7.4357 0,-0.2036 -1.79309,-0.107 -3.98464,0.2147 -2.92681,0.4296 -4.22321,-0.037 -4.88331,-1.7571 -1.06415,-2.7731 2.3772,-5.7487 7.97225,-6.8932 4.02072,-0.8225 5.38436,-3.2209 7.80624,-13.7297 1.80166,-7.8176 -0.30312,-15.7895 -5.83124,-22.0856 -7.88656,-8.9823 -13.72461,-10.3366 -25.36262,-5.8835 -11.29697,4.3226 -12.50669,5.8903 -13.38205,17.3423 -0.41872,5.4781 -0.96531,10.7709 -1.21464,11.7619 -0.28844,1.1464 2.29724,2.803 7.10883,4.5545 6.12588,3.2171 8.5306,2.3503 14.51114,-0.1351 8.40485,-3.4929 9.26469,-3.5445 9.24354,-0.5545 -0.009,1.2833 -2.03624,3.6411 -4.5048,5.2395 -4.32158,2.7982 -4.44833,3.1201 -3.41244,8.6666 0.59171,3.1683 0.48164,14.1606 -0.2446,24.4272 -2.22454,31.4475 2.19369,62.0141 12.14132,83.9974 4.84233,10.701 7.4208,14.0026 10.93574,14.0026 2.43312,0 2.51511,-2.0211 0.3651,-9 -1.41261,-4.5852 3.45499,-7.7192 5.71552,-3.6799 0.92112,1.646 1.96826,1.2809 6.10399,-2.1281 4.7953,-3.9527 8.91667,-4.4174 8.91667,-1.0053 0,0.8821 -2.65501,4.1477 -5.90003,7.257 -3.70639,3.5513 -6.06113,7.0604 -6.33333,9.4381 -0.27294,2.3841 -1.54361,4.272 -3.4333,5.1011 -1.65,0.7239 -3.00001,1.6399 -3.00001,2.0355 0,1.9678 17.66434,22.6869 23.51249,27.5787 30.24701,25.3006 71.93009,29.0865 118.93988,10.8027 7.58213,-2.9489 13.28213,-5.8574 12.66667,-6.4633 -0.61547,-0.6059 -7.32363,-2.3619 -14.90703,-3.9023 -11.5395,-2.344 -17.62769,-2.7388 -37.33333,-2.4207 -26.17269,0.4225 -30.11649,-0.4516 -38.45671,-8.5234 -6.43095,-6.2239 -13.70129,-24.9685 -13.73947,-35.4234 -0.0235,-6.4431 2.13159,-5.2514 4.74784,2.6254 5.83378,17.5638 11.94061,26.4134 20.08103,29.1 3.33275,1.0999 11.79923,1.2861 28.93336,0.6363 l 24.22195,-0.9185 24,4.9582 c 35.44981,7.3238 60.06892,6.74 75.94092,-1.8007 l 4.0591,-2.1842 -10,-1.0724 c -5.5,-0.5899 -16.6419,-1.9731 -24.7598,-3.074 -13.1896,-1.7885 -15.27717,-1.7853 -19.62382,0.031 -6.20567,2.5929 -14.28263,2.5808 -24.33627,-0.036 -13.47625,-3.5082 -12.19699,-4.9483 3.47465,-3.9115 12.81379,0.8477 14.71326,0.6631 20.99926,-2.0411 5.648,-2.4297 7.28085,-2.6663 8.93395,-1.2943 1.48942,1.2361 5.09329,1.431 13.66743,0.739 13.2814,-1.0718 30.9678,-4.2133 32.5331,-5.7786 0.58,-0.58 -8.3895,-2.4269 -19.9322,-4.1043 -16.0581,-2.3334 -21.86473,-2.7159 -24.72503,-1.6284 -9.2997,3.5357 -28.89796,0.2307 -28.89796,-4.8733 0,-1.3899 0.70429,-1.6874 2.33334,-0.9859 6.47002,2.7864 19.04742,2.2466 30.44343,-1.3065 7.71502,-2.4054 11.94722,-3.1387 13.01232,-2.2548 1.0694,0.8876 5.8731,-0.087 14.8947,-3.0205 21.97503,-7.1466 23.17183,-8.5801 10.2484,-12.2757 -4.1794,-1.1951 -8.4989,-2.932 -9.5989,-3.8598 -1.1,-0.9278 -3.383,-2.1087 -5.0733,-2.6243 -4.6628,-1.4224 -2.6478,-4.0853 2.8422,-3.7561 l 4.8116,0.2884 2.73,-9.1668 c 1.5015,-5.0417 3.4079,-12.5425 4.2365,-16.6684 1.5319,-7.6279 3.7678,-9.135 5.11103,-3.4452 0.6485,2.7471 2.3768,1.2224 15.2255,-13.4322 16.3455,-18.6427 25.3711,-31.0292 34.1166,-46.8206 10.271,-18.5461 11.8203,-15.0554 3.8238,8.615 -10.8163,32.0174 -25.2365,54.7758 -41.208,65.0362 -4.5002,2.891 -6.7674,5.5831 -8.8468,10.5049 l -2.7958,6.6176 5.394,0.9113 c 2.9667,0.5012 6.7977,2.315 8.5134,4.0307 8.1733,8.1733 0.076,15.549 -23.27713,21.2031 -5.3514,1.2956 -9.5322,2.5533 -9.2907,2.7948 0.2415,0.2415 6.06,1.16 12.9299,2.041 18.72623,2.4016 22.52093,7.9197 8.96583,13.0376 -5.55983,2.0992 -6.39123,2.7876 -4.34533,3.5981 1.39153,0.5512 4.28523,0.3397 6.43053,-0.4701 8.7243,-3.293 10.4421,3.4228 3.1514,12.3201 -11.01423,13.4414 -37.16693,21.037 -62.51009,18.1551 -9.93136,-1.1293 -12.42006,-1.0057 -16.21833,0.8055 -3.975,1.8956 -4.40988,2.6134 -3.81271,6.2933 0.41847,2.5787 -1.93671,14.5129 -6.21144,31.4745 -4.02803,15.9829 -6.59038,28.8038 -6.1744,30.8942 0.71872,3.6116 -4.99403,31.6664 -7.34125,36.0522 -0.69893,1.306 -1.81427,2.3745 -2.47852,2.3745 -2.79999,0 -2.72802,-1.9441 0.62215,-16.805 0.40556,-1.799 -3.3624,1.1897 -10.50603,8.3333 -6.98522,6.9852 -12.19661,11.1384 -13.97647,11.1384 -1.56095,0 -2.8381,-0.6543 -2.8381,-1.454 z m -148.31391,-277.971 c -0.19703,-0.1971 -1.94446,-0.7564 -3.88319,-1.243 -3.47149,-0.8712 -3.5504,-0.7363 -5.20088,8.8917 -2.21287,12.9086 -0.2709,33.2162 4.8875,51.1096 l 3.84381,13.3334 0.35549,-35.8668 c 0.19552,-19.7267 0.19429,-36.0279 -0.003,-36.2249 z m -35.555046,30.425 c 0.81232,-2.13 1.0437,-7.2989 0.5521,-12.3333 -0.96551,-9.8877 2.69526,-24.4842 7.15218,-28.5177 4.006236,-3.6256 9.405436,-16.9401 8.576196,-21.149 -1.87334,-9.5085 -12.593556,-0.1985 -19.175916,16.6534 -3.60166,9.2209 -4.40441,13.3163 -4.93243,25.1638 -0.66803,14.9892 1.00372,23.8495 4.4999,23.8495 1.06127,0 2.55886,-1.65 3.32797,-3.6667 z m 189.535626,102.3572 c -1.65,-0.6992 -3,-2.1049 -3,-3.1237 0,-1.3627 2.76579,-2.042 10.46193,-2.5695 12.36813,-0.8478 18.0517,-3.3943 19.99082,-8.9568 1.84387,-5.2893 6.44665,-5.5671 7.72687,-0.4663 1.07975,4.3021 -1.33987,9.0474 -6.60973,12.9629 -2.98862,2.2205 -6.00822,2.8609 -14.66667,3.1104 -5.99677,0.1728 -12.25322,-0.2579 -13.90322,-0.957 z m -34.66667,-3.345 c -2.38333,-1.0359 -4.33333,-2.5335 -4.33333,-3.3281 0,-0.9421 0.81168,-1.029 2.33333,-0.2498 7.15341,3.6628 23.89349,1.8985 34.80553,-3.6684 9.5949,-4.895 10.83953,-2.6441 1.72093,3.1122 -9.06569,5.7229 -26.16137,7.7699 -34.52646,4.1341 z m 94.66667,-16.334 c -3.4827,-1.185 -1.43859,-4.2114 4.33334,-6.4157 9.17312,-3.5033 7.04216,-9.7874 -4.07274,-12.0104 -3.47563,-0.6951 -4.11456,-0.3066 -5.49062,3.339 -3.05285,8.088 -25.21271,14.3128 -39.67197,11.1442 -8.63687,-1.8927 -7.13686,-3.9337 3.52285,-4.7935 11.26649,-0.9087 25.06875,-5.2839 28.44772,-9.0176 1.47788,-1.633 1.7463,-2.5909 0.72605,-2.5909 -0.89027,0 -1.24785,-0.6 -0.79463,-1.3333 0.45323,-0.7333 3.22295,-1.3333 6.15493,-1.3333 17.80804,0 29.52406,10.2891 20.84507,18.3064 -3.19117,2.9479 -11.2271,5.6486 -14,4.7051 z m -88,-3.197 c -6.3419,-1.7915 -5.28787,-3.5946 1.64457,-2.8132 8.21735,0.9262 13.58678,-1.5876 16.78614,-7.8589 3.23859,-6.3481 5.912,-6.856 4.72012,-0.8966 -1.93236,9.6618 -12.03337,14.7094 -23.15083,11.5687 z m -102.12669,-6.2529 c -3.01175,-3.3279 -2.76912,-4.6864 0.6761,-3.7855 2.14975,0.5622 3.99409,-0.4594 7.25343,-4.0178 5.48739,-5.9908 9.30754,-5.3898 8.02237,1.2622 -1.55154,8.0307 -11.07122,11.9342 -15.9519,6.5411 z m 18.74345,-2.3893 c -1.49561,-1.4956 -1.11175,-3.1723 0.72628,-3.1723 0.922,0 3.30723,-2.7 5.30051,-6 6.26874,-10.3784 10.62848,-6.6154 4.63439,4 -2.8959,5.1285 -8.15396,7.6795 -10.66118,5.1723 z m 129.04991,-10.5556 c -0.73334,-0.2191 -3.58334,-0.7747 -6.33334,-1.2346 -8.02767,-1.3427 -5.76378,-3.3821 3.75433,-3.3821 10.78187,0 13.55155,-1.3876 14.67002,-7.3496 1.30598,-6.9615 4.84659,-6.2377 4.31899,0.8829 -0.30477,4.1132 -1.26553,6.1318 -3.74333,7.8647 -3.26988,2.2869 -10.03323,4.0056 -12.66667,3.2187 z m 62.91922,-1.4753 c -0.5229,-0.5229 -0.5905,-2.8711 -0.1502,-5.2181 0.7889,-4.2054 0.7009,-4.2913 -6.06079,-5.9134 -3.77374,-0.9053 -8.60364,-1.2975 -10.73309,-0.8716 -2.23989,0.4479 -4.26037,0.1455 -4.79381,-0.7176 -1.20044,-1.9424 3.14653,-5.0874 7.03166,-5.0874 2.16282,0 2.81393,-0.5804 2.26266,-2.017 -0.42569,-1.1093 -0.0393,-2.9022 0.85868,-3.9842 1.79235,-2.1597 2.21059,-1.8663 -7.25928,-5.0912 -2.89206,-0.9849 -5.52312,-2.5851 -5.8468,-3.5562 -0.8772,-2.6316 12.86935,-0.7147 17.00211,2.3708 4.6628,3.4813 4.78597,5.1055 0.67604,8.9144 l -3.62913,3.3634 h 4.23753 c 6.89692,0 13.26692,3.3327 14.30942,7.4864 1.4947,5.9552 -4.4758,13.7509 -7.905,10.3217 z m -196.29973,-3.7341 c -4.27856,-4.2785 -3.13332,-7.8785 2.13802,-6.7207 2.06401,0.4533 4.94447,0.1864 6.40102,-0.5931 7.01184,-3.7526 9.38127,3.7304 2.50813,7.9211 -5.606,3.418 -7.10424,3.3357 -11.04717,-0.6073 z m -22.00859,-22.1782 c -2.16818,-4.0513 -0.68365,-7.052 2.61534,-5.2864 1.80257,0.9647 3.71827,0.9655 6.2507,0 2.89338,-1.1001 4.08809,-0.9485 5.75397,0.73 1.91573,1.9304 1.80644,2.347 -1.23092,4.6919 -4.55943,3.5199 -11.46948,3.4486 -13.38909,-0.1382 z m 244.89402,-7.2629 c -1.0822,-2.82 2.4652,-20.5322 6.5968,-32.9384 3.28373,-9.86 5.14303,-12.8942 6.85333,-11.1839 1.1273,1.1273 -7.28963,42.1494 -9.09443,44.324 -1.9792,2.3848 -3.3883,2.3195 -4.3557,-0.2017 z m -6.9765,-17.179 c -2.0717,-5.3987 5.1348,-42.5108 11.3865,-58.6388 2.7756,-7.1603 2.7694,-2.6574 -0.015,10.631 -1.5233,7.2713 -3.9124,20.9789 -5.309,30.4612 -2.5157,17.0812 -4.2809,22.19 -6.0628,17.5466 z m 31.47163,-15.1298 c 0,-1.2884 3.1645,-6.8384 7.0322,-12.3333 11.3942,-16.1882 27.732,-42.5665 31.9599,-51.6013 4.4384,-9.4847 7.1246,-11.0733 5.7314,-3.3895 -1.1537,6.3626 -5.8668,16.7827 -13.7202,30.3333 -16.5129,28.4923 -31.0033,45.7812 -31.0033,36.9908 z m -285.36636,-45.7191 c -2.00213,-3.741 -1.10991,-10.7047 1.58787,-12.3932 3.39497,-2.1249 6.4451,1.1964 6.4451,7.0181 0,7.5785 -5.04657,10.9553 -8.03297,5.3751 z" transform="translate(13.493864,-36.247926) matrix(0.59780648,0,0,0.59780648,-53.2839,-674.3863)"/>
</svg>