<?xml version="1.0" encoding="UTF-8"?>
<svg width="1024" height="1024" viewBox="0 0 1024 1024" xmlns="http://www.w3.org/2000/svg" role="img" aria-labelledby="title desc">
  <title id="title">Laufdiktat App Icon</title>
  <desc id="desc">Handgezeichnetes Icon: laufendes Schulkind mit Zettel neben einer Basisstation mit Diktatblatt</desc>

  <defs>
    <filter id="softShadow" x="-20%" y="-20%" width="140%" height="140%">
      <feDropShadow dx="0" dy="8" stdDeviation="10" flood-color="#000000" flood-opacity="0.12"/>
    </filter>
    <style>
      .line {
        fill: none;
        stroke: #111;
        stroke-width: 18;
        stroke-linecap: round;
        stroke-linejoin: round;
      }
      .line-thin {
        fill: none;
        stroke: #111;
        stroke-width: 11;
        stroke-linecap: round;
        stroke-linejoin: round;
      }
      .textline {
        fill: none;
        stroke: #111;
        stroke-width: 8;
        stroke-linecap: round;
      }
      .dash {
        fill: none;
        stroke: #111;
        stroke-width: 9;
        stroke-linecap: round;
        stroke-dasharray: 36 34;
      }
    </style>
  </defs>

  <!-- App background -->
  <rect x="52" y="52" width="920" height="920" rx="210" fill="#FDFCF8" filter="url(#softShadow)"/>
  <rect x="52" y="52" width="920" height="920" rx="210" fill="none" stroke="#12CFC3" stroke-width="18"/>

  <!-- Motion lines -->
  <path class="line-thin" d="M128 660 C82 676 68 704 48 735"/>
  <path class="line-thin" d="M116 748 C70 760 48 786 30 820"/>
  <path class="dash" d="M145 880 C270 895 397 880 514 890 C590 896 690 892 780 878"/>

  <!-- Child legs behind -->
  <path d="M321 624 C278 677 250 735 208 796 L277 821 C323 770 354 715 394 660 Z" fill="#4E90BF" stroke="#111" stroke-width="18" stroke-linejoin="round"/>
  <path class="line" d="M208 796 C174 813 150 838 149 876"/>
  <path d="M142 861 C179 840 237 852 272 886 C239 919 175 930 141 902 C126 891 126 873 142 861 Z" fill="#fff" stroke="#111" stroke-width="18" stroke-linejoin="round"/>

  <!-- Child body -->
  <path d="M281 398 C353 360 456 395 485 471 C506 528 480 601 421 635 C360 670 268 648 235 586 C201 520 221 433 281 398 Z" fill="#86B96B" stroke="#111" stroke-width="18" stroke-linejoin="round"/>

  <!-- Front leg -->
  <path d="M409 629 C476 663 540 703 594 746 L548 802 C496 775 425 732 372 698 Z" fill="#4E90BF" stroke="#111" stroke-width="18" stroke-linejoin="round"/>
  <path d="M535 792 C576 769 634 782 665 823 C632 857 568 864 536 836 C519 821 519 803 535 792 Z" fill="#fff" stroke="#111" stroke-width="18" stroke-linejoin="round"/>

  <!-- Arm behind -->
  <path class="line" d="M246 517 C207 545 185 590 184 644"/>
  <path d="M171 641 C176 614 206 608 227 624 C247 641 232 678 202 682 C179 685 165 665 171 641 Z" fill="#F1B984" stroke="#111" stroke-width="18" stroke-linejoin="round"/>

  <!-- Neck -->
  <path d="M384 342 C385 373 381 396 360 410 C391 432 433 414 440 379 C417 374 397 360 384 342 Z" fill="#F1B984" stroke="#111" stroke-width="15" stroke-linejoin="round"/>

  <!-- Head -->
  <path d="M325 215 C404 158 525 195 550 286 C575 377 513 455 416 454 C332 453 265 395 261 317 C259 275 282 245 325 215 Z" fill="#F1B984" stroke="#111" stroke-width="18" stroke-linejoin="round"/>
  <path d="M269 320 C236 305 233 253 270 241 C310 228 330 273 309 304" fill="#F1B984" stroke="#111" stroke-width="16" stroke-linejoin="round"/>

  <!-- Hair -->
  <path d="M287 240 C308 174 390 142 458 164 C442 181 432 194 421 212 C471 184 534 194 574 234 C546 240 518 246 493 253 C529 269 554 293 567 327 C527 314 487 299 448 286 C428 334 380 343 348 315 C320 349 283 344 259 317 C257 288 264 263 287 240 Z" fill="#9A6337" stroke="#111" stroke-width="18" stroke-linejoin="round"/>

  <!-- Face -->
  <circle cx="430" cy="315" r="9" fill="#111"/>
  <circle cx="493" cy="316" r="9" fill="#111"/>
  <path class="line-thin" d="M460 336 C479 350 474 370 448 369"/>
  <path class="line-thin" d="M396 381 C431 414 482 414 514 378"/>

  <!-- Front arm and hand -->
  <path class="line" d="M482 510 C526 526 563 548 594 585"/>
  <path d="M583 573 C606 552 641 567 641 599 C641 627 606 642 585 623 C569 609 567 589 583 573 Z" fill="#F1B984" stroke="#111" stroke-width="17" stroke-linejoin="round"/>

  <!-- Small note -->
  <g transform="rotate(-8 656 574)">
    <rect x="635" y="507" width="95" height="138" rx="8" fill="#FFFFFF" stroke="#111" stroke-width="15"/>
    <path class="textline" d="M662 548 L710 548"/>
    <path class="textline" d="M662 582 L714 582"/>
    <path class="textline" d="M662 616 L699 616"/>
  </g>

  <!-- Station -->
  <path d="M760 806 L760 597" class="line"/>
  <path d="M681 806 L842 806 L872 850 L650 850 Z" fill="#A8794F" stroke="#111" stroke-width="18" stroke-linejoin="round"/>

  <g transform="rotate(2 761 430)">
    <rect x="652" y="268" width="274" height="300" rx="24" fill="#D6B78F" stroke="#111" stroke-width="18"/>
    <rect x="704" y="318" width="141" height="182" rx="11" fill="#FFFFFF" stroke="#111" stroke-width="15"/>
    <rect x="762" y="255" width="62" height="73" rx="14" fill="#B7B7B7" stroke="#111" stroke-width="15"/>
    <path class="textline" d="M736 368 L815 368"/>
    <path class="textline" d="M735 410 L820 410"/>
    <path class="textline" d="M735 452 L804 452"/>
  </g>

  <!-- Pencil -->
  <g transform="rotate(27 879 465)">
    <path d="M875 344 L918 344 L918 556 L897 604 L875 556 Z" fill="#F7CB45" stroke="#111" stroke-width="15" stroke-linejoin="round"/>
    <path d="M875 556 L918 556 L897 604 Z" fill="#F1B984" stroke="#111" stroke-width="13" stroke-linejoin="round"/>
    <path d="M890 594 L904 594" stroke="#111" stroke-width="10" stroke-linecap="round"/>
  </g>
</svg>
